<meta message text text='Have A Nice Day' time=0>
<meta message smpte_offset frame_rate=25 hours=32 minutes=0 seconds=0 frames=0 sub_frames=0 time=0>
<meta message time_signature numerator=4 denominator=4 clocks_per_click=24 notated_32nd_notes_per_beat=8 time=0>
<meta message set_tempo tempo=500000 time=0>
<meta message text text='"Have A Nice Day"' time=5760>
<meta message text text='Sequenced for GMIDI by' time=0>
<meta message text text='GaryW0001 (@AOL.com)' time=0>
<meta message text text='Composed & Arranged ' time=0>
<meta message text text='by Sammy Nestico' time=0>
<meta message text text='©1996 Blue Max Distribution' time=0>
<meta message end_of_track time=0>
<meta message text text='-<>-<>-<>-<>-' time=0>
<meta message channel_prefix channel=0 time=0>
<meta message end_of_track time=0>
<meta message text text='   "Have A' time=0>
<meta message channel_prefix channel=0 time=0>
<meta message end_of_track time=0>
<meta message text text='   Nice Day"' time=0>
<meta message channel_prefix channel=0 time=0>
<meta message end_of_track time=0>
<meta message text text='Transcribed ' time=0>
<meta message channel_prefix channel=0 time=0>
<meta message end_of_track time=0>
<meta message text text='& Sequenced' time=0>
<meta message channel_prefix channel=0 time=0>
<meta message end_of_track time=0>
<meta message text text='for GMIDI by' time=0>
<meta message channel_prefix channel=0 time=0>
<meta message end_of_track time=0>
<meta message text text='GaryW0001' time=0>
<meta message channel_prefix channel=0 time=0>
<meta message end_of_track time=0>
<meta message text text='Composed and' time=0>
<meta message channel_prefix channel=0 time=0>
<meta message end_of_track time=0>
<meta message text text='Arranged by' time=0>
<meta message channel_prefix channel=0 time=0>
<meta message end_of_track time=0>
<meta message text text='Sammy Nestico' time=0>
<meta message channel_prefix channel=0 time=0>
<meta message end_of_track time=0>
<meta message text text='Tempo = 120' time=0>
<meta message channel_prefix channel=0 time=0>
<meta message end_of_track time=0>
<meta message text text='Comments??' time=0>
<meta message channel_prefix channel=0 time=0>
<meta message end_of_track time=0>
<meta message text text='-<>-<>-<>-<>-' time=0>
<meta message channel_prefix channel=0 time=0>
<meta message end_of_track time=0>
<meta message text text='Jazz/Brush Kit' time=0>
control_change channel=9 control=11 value=96 time=0
control_change channel=9 control=7 value=94 time=0
control_change channel=9 control=10 value=45 time=0
control_change channel=9 control=91 value=75 time=0
control_change channel=9 control=93 value=5 time=0
control_change channel=9 control=0 value=62 time=0
control_change channel=9 control=32 value=0 time=0
program_change channel=9 program=32 time=0
note_on channel=9 note=37 velocity=84 time=1920
note_off channel=9 note=37 velocity=64 time=480
note_on channel=9 note=37 velocity=84 time=480
note_off channel=9 note=37 velocity=64 time=480
note_on channel=9 note=37 velocity=64 time=480
note_off channel=9 note=37 velocity=64 time=480
note_on channel=9 note=37 velocity=84 time=0
note_off channel=9 note=37 velocity=64 time=480
note_on channel=9 note=37 velocity=64 time=0
note_off channel=9 note=37 velocity=64 time=480
note_on channel=9 note=37 velocity=84 time=0
note_off channel=9 note=37 velocity=64 time=480
note_on channel=9 note=51 velocity=75 time=0
note_off channel=9 note=51 velocity=64 time=100
note_on channel=9 note=51 velocity=90 time=380
note_on channel=9 note=42 velocity=70 time=0
note_off channel=9 note=51 velocity=64 time=100
note_off channel=9 note=42 velocity=64 time=0
note_on channel=9 note=51 velocity=60 time=256
note_off channel=9 note=51 velocity=64 time=100
note_on channel=9 note=51 velocity=80 time=24
note_off channel=9 note=51 velocity=64 time=100
note_on channel=9 note=51 velocity=90 time=380
note_on channel=9 note=37 velocity=70 time=0
note_on channel=9 note=42 velocity=70 time=0
note_off channel=9 note=51 velocity=64 time=100
note_off channel=9 note=42 velocity=64 time=0
note_off channel=9 note=37 velocity=64 time=0
note_on channel=9 note=51 velocity=60 time=256
note_off channel=9 note=51 velocity=64 time=100
note_on channel=9 note=51 velocity=80 time=24
note_off channel=9 note=51 velocity=64 time=100
note_on channel=9 note=51 velocity=90 time=380
note_on channel=9 note=42 velocity=70 time=0
note_off channel=9 note=51 velocity=64 time=100
note_off channel=9 note=42 velocity=64 time=0
note_on channel=9 note=51 velocity=60 time=256
note_off channel=9 note=51 velocity=64 time=100
note_on channel=9 note=51 velocity=80 time=24
note_on channel=9 note=48 velocity=61 time=0
note_off channel=9 note=48 velocity=64 time=58
note_off channel=9 note=51 velocity=64 time=42
note_on channel=9 note=48 velocity=53 time=20
note_off channel=9 note=48 velocity=64 time=57
note_on channel=9 note=38 velocity=20 time=179
note_on channel=9 note=36 velocity=74 time=4
note_off channel=9 note=36 velocity=64 time=59
note_off channel=9 note=38 velocity=64 time=37
note_on channel=9 note=51 velocity=90 time=24
note_on channel=9 note=37 velocity=70 time=0
note_on channel=9 note=42 velocity=70 time=0
note_on channel=9 note=38 velocity=40 time=0
note_on channel=9 note=47 velocity=103 time=0
note_off channel=9 note=47 velocity=64 time=56
note_off channel=9 note=37 velocity=64 time=44
note_off channel=9 note=38 velocity=64 time=0
note_off channel=9 note=42 velocity=64 time=0
note_off channel=9 note=51 velocity=64 time=0
note_on channel=9 note=47 velocity=68 time=20
note_off channel=9 note=47 velocity=64 time=57
note_on channel=9 note=51 velocity=60 time=179
note_on channel=9 note=36 velocity=65 time=4
note_off channel=9 note=36 velocity=64 time=57
note_off channel=9 note=51 velocity=64 time=39
control_change channel=9 control=11 value=96 time=24
note_on channel=9 note=51 velocity=80 time=0
note_on channel=9 note=40 velocity=109 time=0
note_off channel=9 note=40 velocity=64 time=58
note_off channel=9 note=51 velocity=64 time=42
note_on channel=9 note=51 velocity=90 time=380
note_on channel=9 note=42 velocity=70 time=0
note_off channel=9 note=51 velocity=64 time=100
note_off channel=9 note=42 velocity=64 time=0
control_change channel=9 control=11 value=98 time=188
note_on channel=9 note=51 velocity=60 time=68
note_off channel=9 note=51 velocity=64 time=100
note_on channel=9 note=51 velocity=80 time=24
note_off channel=9 note=51 velocity=64 time=100
note_on channel=9 note=51 velocity=90 time=380
note_on channel=9 note=37 velocity=70 time=0
note_on channel=9 note=42 velocity=70 time=0
control_change channel=9 control=11 value=99 time=96
note_off channel=9 note=51 velocity=64 time=4
note_off channel=9 note=42 velocity=64 time=0
note_off channel=9 note=37 velocity=64 time=0
note_on channel=9 note=51 velocity=60 time=256
note_off channel=9 note=51 velocity=64 time=100
note_on channel=9 note=51 velocity=80 time=24
note_off channel=9 note=51 velocity=64 time=100
control_change channel=9 control=11 value=100 time=284
note_on channel=9 note=51 velocity=90 time=96
note_on channel=9 note=42 velocity=70 time=0
note_off channel=9 note=51 velocity=64 time=100
note_off channel=9 note=42 velocity=64 time=0
note_on channel=9 note=51 velocity=60 time=256
note_off channel=9 note=51 velocity=64 time=100
note_on channel=9 note=51 velocity=90 time=24
note_on channel=9 note=35 velocity=70 time=0
note_off channel=9 note=51 velocity=64 time=100
note_off channel=9 note=35 velocity=64 time=0
note_on channel=9 note=45 velocity=100 time=60
note_on channel=9 note=38 velocity=90 time=0
control_change channel=9 control=11 value=101 time=32
note_off channel=9 note=45 velocity=64 time=68
note_off channel=9 note=38 velocity=64 time=0
note_on channel=9 note=42 velocity=1 time=76
note_on channel=9 note=35 velocity=80 time=0
note_off channel=9 note=42 velocity=64 time=100
note_off channel=9 note=35 velocity=64 time=0
note_on channel=9 note=48 velocity=90 time=44
note_on channel=9 note=42 velocity=100 time=0
note_on channel=9 note=38 velocity=80 time=0
note_on channel=9 note=51 velocity=90 time=0
note_off channel=9 note=48 velocity=64 time=100
note_off channel=9 note=51 velocity=64 time=0
note_off channel=9 note=38 velocity=64 time=0
note_off channel=9 note=42 velocity=64 time=0
note_on channel=9 note=45 velocity=70 time=60
note_off channel=9 note=45 velocity=64 time=100
note_on channel=9 note=41 velocity=90 time=76
note_on channel=9 note=35 velocity=70 time=0
note_on channel=9 note=51 velocity=60 time=20
note_on channel=9 note=38 velocity=81 time=44
note_off channel=9 note=41 velocity=64 time=36
note_off channel=9 note=35 velocity=64 time=0
note_off channel=9 note=38 velocity=64 time=4
note_on channel=9 note=38 velocity=81 time=0
note_off channel=9 note=51 velocity=64 time=16
note_off channel=9 note=38 velocity=64 time=24
control_change channel=9 control=11 value=103 time=0
note_on channel=9 note=51 velocity=99 time=0
note_on channel=9 note=40 velocity=99 time=0
note_on channel=9 note=38 velocity=99 time=0
note_on channel=9 note=35 velocity=99 time=0
note_off channel=9 note=51 velocity=64 time=100
note_off channel=9 note=35 velocity=64 time=0
note_off channel=9 note=38 velocity=64 time=0
note_off channel=9 note=40 velocity=64 time=0
note_on channel=9 note=49 velocity=106 time=220
note_on channel=9 note=51 velocity=100 time=160
note_on channel=9 note=42 velocity=70 time=0
note_off channel=9 note=51 velocity=64 time=100
note_off channel=9 note=42 velocity=64 time=0
control_change channel=9 control=11 value=104 time=188
note_on channel=9 note=51 velocity=80 time=192
note_off channel=9 note=51 velocity=64 time=100
note_on channel=9 note=51 velocity=100 time=380
note_on channel=9 note=37 velocity=70 time=0
note_on channel=9 note=42 velocity=70 time=0
control_change channel=9 control=11 value=105 time=96
note_off channel=9 note=51 velocity=64 time=4
note_off channel=9 note=42 velocity=64 time=0
note_off channel=9 note=37 velocity=64 time=0
note_off channel=9 note=49 velocity=64 time=356
note_on channel=9 note=51 velocity=80 time=24
note_off channel=9 note=51 velocity=64 time=100
control_change channel=9 control=11 value=106 time=284
note_on channel=9 note=51 velocity=90 time=96
note_on channel=9 note=42 velocity=70 time=0
note_off channel=9 note=51 velocity=64 time=100
note_off channel=9 note=42 velocity=64 time=0
note_on channel=9 note=51 velocity=80 time=380
note_off channel=9 note=51 velocity=64 time=100
control_change channel=9 control=11 value=108 time=92
note_on channel=9 note=38 velocity=81 time=208
note_off channel=9 note=38 velocity=64 time=40
note_on channel=9 note=38 velocity=81 time=0
note_off channel=9 note=38 velocity=64 time=40
note_on channel=9 note=38 velocity=93 time=0
note_on channel=9 note=35 velocity=93 time=0
note_off channel=9 note=38 velocity=64 time=116
note_off channel=9 note=35 velocity=64 time=0
note_on channel=9 note=38 velocity=93 time=204
note_on channel=9 note=35 velocity=93 time=0
note_off channel=9 note=38 velocity=64 time=136
note_off channel=9 note=35 velocity=64 time=0
control_change channel=9 control=11 value=109 time=24
control_change channel=9 control=11 value=108 time=240
note_on channel=9 note=38 velocity=81 time=80
note_off channel=9 note=38 velocity=64 time=136
control_change channel=9 control=11 value=106 time=24
note_on channel=9 note=35 velocity=86 time=0
note_on channel=9 note=51 velocity=90 time=0
note_on channel=9 note=42 velocity=70 time=0
note_off channel=9 note=35 velocity=64 time=100
note_off channel=9 note=42 velocity=64 time=0
note_off channel=9 note=51 velocity=64 time=0
control_change channel=9 control=11 value=105 time=140
note_on channel=9 note=51 velocity=60 time=112
note_off channel=9 note=51 velocity=64 time=100
control_change channel=9 control=11 value=104 time=28
note_on channel=9 note=51 velocity=80 time=0
note_off channel=9 note=51 velocity=64 time=100
control_change channel=9 control=11 value=103 time=140
control_change channel=9 control=11 value=101 time=240
note_on channel=9 note=51 velocity=90 time=0
note_on channel=9 note=37 velocity=60 time=0
note_on channel=9 note=42 velocity=70 time=0
note_off channel=9 note=51 velocity=64 time=100
note_off channel=9 note=42 velocity=64 time=0
note_off channel=9 note=37 velocity=64 time=0
control_change channel=9 control=11 value=100 time=140
note_on channel=9 note=51 velocity=60 time=112
note_off channel=9 note=51 velocity=64 time=100
control_change channel=9 control=11 value=99 time=28
note_on channel=9 note=51 velocity=80 time=0
note_off channel=9 note=51 velocity=64 time=100
control_change channel=9 control=11 value=98 time=140
control_change channel=9 control=11 value=96 time=240
note_on channel=9 note=51 velocity=90 time=0
note_on channel=9 note=42 velocity=70 time=0
note_off channel=9 note=51 velocity=64 time=100
note_off channel=9 note=42 velocity=64 time=0
control_change channel=9 control=11 value=95 time=140
note_on channel=9 note=51 velocity=60 time=116
note_off channel=9 note=51 velocity=64 time=100
control_change channel=9 control=11 value=94 time=24
note_on channel=9 note=51 velocity=80 time=0
note_off channel=9 note=51 velocity=64 time=100
control_change channel=9 control=11 value=93 time=140
note_on channel=9 note=38 velocity=20 time=116
note_off channel=9 note=38 velocity=64 time=100
control_change channel=9 control=11 value=91 time=24
note_on channel=9 note=51 velocity=90 time=0
note_on channel=9 note=37 velocity=70 time=0
note_on channel=9 note=42 velocity=70 time=0
note_on channel=9 note=38 velocity=40 time=0
note_off channel=9 note=51 velocity=64 time=100
note_off channel=9 note=38 velocity=64 time=0
note_off channel=9 note=42 velocity=64 time=0
note_off channel=9 note=37 velocity=64 time=0
control_change channel=9 control=11 value=90 time=140
note_on channel=9 note=51 velocity=60 time=116
control_change channel=9 control=0 value=62 time=1
control_change channel=9 control=32 value=0 time=0
program_change channel=9 program=40 time=0
note_off channel=9 note=51 velocity=64 time=99
control_change channel=9 control=11 value=89 time=24
note_on channel=9 note=49 velocity=45 time=0
note_on channel=9 note=51 velocity=80 time=0
note_off channel=9 note=49 velocity=64 time=100
note_off channel=9 note=51 velocity=64 time=0
note_on channel=9 note=51 velocity=100 time=380
note_on channel=9 note=42 velocity=70 time=0
note_off channel=9 note=51 velocity=64 time=100
note_off channel=9 note=42 velocity=64 time=0
note_on channel=9 note=51 velocity=80 time=380
note_off channel=9 note=51 velocity=64 time=100
note_on channel=9 note=51 velocity=100 time=380
note_on channel=9 note=37 velocity=70 time=0
note_on channel=9 note=42 velocity=70 time=0
note_off channel=9 note=51 velocity=64 time=100
note_off channel=9 note=42 velocity=64 time=0
note_off channel=9 note=37 velocity=64 time=0
note_on channel=9 note=51 velocity=80 time=380
note_off channel=9 note=51 velocity=64 time=100
note_on channel=9 note=51 velocity=90 time=380
note_on channel=9 note=42 velocity=70 time=0
note_off channel=9 note=51 velocity=64 time=100
note_off channel=9 note=42 velocity=64 time=0
note_on channel=9 note=51 velocity=80 time=380
note_off channel=9 note=51 velocity=64 time=100
note_on channel=9 note=51 velocity=90 time=380
note_on channel=9 note=37 velocity=70 time=0
note_on channel=9 note=42 velocity=70 time=0
note_off channel=9 note=51 velocity=64 time=100
note_off channel=9 note=42 velocity=64 time=0
note_off channel=9 note=37 velocity=64 time=0
note_on channel=9 note=51 velocity=80 time=380
note_off channel=9 note=51 velocity=64 time=100
note_on channel=9 note=51 velocity=90 time=380
note_on channel=9 note=42 velocity=70 time=0
note_off channel=9 note=51 velocity=64 time=100
note_off channel=9 note=42 velocity=64 time=0
note_on channel=9 note=51 velocity=60 time=252
note_off channel=9 note=51 velocity=64 time=100
note_on channel=9 note=51 velocity=80 time=28
note_off channel=9 note=51 velocity=64 time=100
note_on channel=9 note=51 velocity=90 time=380
note_on channel=9 note=37 velocity=60 time=0
note_on channel=9 note=42 velocity=70 time=0
note_off channel=9 note=51 velocity=64 time=100
note_off channel=9 note=42 velocity=64 time=0
note_off channel=9 note=37 velocity=64 time=0
note_on channel=9 note=51 velocity=60 time=252
note_off channel=9 note=51 velocity=64 time=100
note_on channel=9 note=51 velocity=80 time=28
note_off channel=9 note=51 velocity=64 time=100
note_on channel=9 note=51 velocity=100 time=380
note_on channel=9 note=42 velocity=70 time=0
note_off channel=9 note=51 velocity=64 time=100
note_off channel=9 note=42 velocity=64 time=0
note_on channel=9 note=51 velocity=80 time=380
note_off channel=9 note=51 velocity=64 time=100
note_on channel=9 note=51 velocity=100 time=380
note_on channel=9 note=37 velocity=70 time=0
note_on channel=9 note=42 velocity=70 time=0
note_off channel=9 note=51 velocity=64 time=100
note_off channel=9 note=42 velocity=64 time=0
note_off channel=9 note=37 velocity=64 time=0
note_on channel=9 note=51 velocity=80 time=380
note_off channel=9 note=51 velocity=64 time=100
note_on channel=9 note=51 velocity=90 time=380
note_on channel=9 note=42 velocity=70 time=0
note_off channel=9 note=51 velocity=64 time=100
note_off channel=9 note=42 velocity=64 time=0
note_on channel=9 note=51 velocity=60 time=252
note_off channel=9 note=51 velocity=64 time=100
note_on channel=9 note=51 velocity=80 time=28
note_off channel=9 note=51 velocity=64 time=100
note_on channel=9 note=51 velocity=90 time=380
note_on channel=9 note=37 velocity=60 time=0
note_on channel=9 note=42 velocity=70 time=0
note_off channel=9 note=51 velocity=64 time=100
note_off channel=9 note=42 velocity=64 time=0
note_off channel=9 note=37 velocity=64 time=0
note_on channel=9 note=51 velocity=60 time=252
note_off channel=9 note=51 velocity=64 time=100
note_on channel=9 note=51 velocity=80 time=28
note_off channel=9 note=51 velocity=64 time=100
note_on channel=9 note=51 velocity=100 time=380
note_on channel=9 note=42 velocity=70 time=0
note_off channel=9 note=51 velocity=64 time=100
note_off channel=9 note=42 velocity=64 time=0
note_on channel=9 note=51 velocity=80 time=380
note_off channel=9 note=51 velocity=64 time=100
note_on channel=9 note=51 velocity=100 time=380
note_on channel=9 note=37 velocity=70 time=0
note_on channel=9 note=42 velocity=70 time=0
note_off channel=9 note=51 velocity=64 time=100
note_off channel=9 note=42 velocity=64 time=0
note_off channel=9 note=37 velocity=64 time=0
note_on channel=9 note=51 velocity=80 time=380
note_off channel=9 note=51 velocity=64 time=100
note_on channel=9 note=51 velocity=90 time=380
note_on channel=9 note=42 velocity=70 time=0
note_off channel=9 note=51 velocity=64 time=100
note_off channel=9 note=42 velocity=64 time=0
note_on channel=9 note=51 velocity=60 time=256
note_off channel=9 note=51 velocity=64 time=100
note_on channel=9 note=51 velocity=80 time=24
note_off channel=9 note=51 velocity=64 time=100
note_on channel=9 note=51 velocity=90 time=380
note_on channel=9 note=37 velocity=70 time=0
note_on channel=9 note=42 velocity=70 time=0
note_off channel=9 note=51 velocity=64 time=100
note_off channel=9 note=42 velocity=64 time=0
note_off channel=9 note=37 velocity=64 time=0
note_on channel=9 note=51 velocity=60 time=256
note_off channel=9 note=51 velocity=64 time=100
note_on channel=9 note=51 velocity=80 time=24
note_off channel=9 note=51 velocity=64 time=100
note_on channel=9 note=51 velocity=90 time=380
note_on channel=9 note=42 velocity=70 time=0
note_off channel=9 note=51 velocity=64 time=100
note_off channel=9 note=42 velocity=64 time=0
note_on channel=9 note=51 velocity=60 time=256
note_off channel=9 note=51 velocity=64 time=100
note_on channel=9 note=51 velocity=80 time=24
note_off channel=9 note=51 velocity=64 time=100
note_on channel=9 note=38 velocity=20 time=256
note_off channel=9 note=38 velocity=64 time=100
note_on channel=9 note=51 velocity=90 time=24
note_on channel=9 note=37 velocity=70 time=0
note_on channel=9 note=42 velocity=70 time=0
note_on channel=9 note=38 velocity=40 time=0
note_off channel=9 note=51 velocity=64 time=100
note_off channel=9 note=38 velocity=64 time=0
note_off channel=9 note=42 velocity=64 time=0
note_off channel=9 note=37 velocity=64 time=0
note_on channel=9 note=51 velocity=60 time=256
note_off channel=9 note=51 velocity=64 time=100
note_on channel=9 note=51 velocity=80 time=24
note_off channel=9 note=51 velocity=64 time=100
note_on channel=9 note=51 velocity=90 time=380
note_on channel=9 note=42 velocity=70 time=0
note_off channel=9 note=51 velocity=64 time=100
note_off channel=9 note=42 velocity=64 time=0
note_on channel=9 note=51 velocity=60 time=256
note_off channel=9 note=51 velocity=64 time=100
note_on channel=9 note=51 velocity=80 time=24
note_off channel=9 note=51 velocity=64 time=100
note_on channel=9 note=51 velocity=90 time=380
note_on channel=9 note=37 velocity=70 time=0
note_on channel=9 note=42 velocity=70 time=0
note_off channel=9 note=51 velocity=64 time=100
note_off channel=9 note=42 velocity=64 time=0
note_off channel=9 note=37 velocity=64 time=0
note_on channel=9 note=51 velocity=60 time=256
note_off channel=9 note=51 velocity=64 time=100
note_on channel=9 note=51 velocity=80 time=24
note_off channel=9 note=51 velocity=64 time=100
note_on channel=9 note=51 velocity=90 time=380
note_on channel=9 note=42 velocity=70 time=0
note_off channel=9 note=51 velocity=64 time=100
note_off channel=9 note=42 velocity=64 time=0
note_on channel=9 note=51 velocity=80 time=380
note_off channel=9 note=51 velocity=64 time=100
note_on channel=9 note=51 velocity=90 time=380
note_on channel=9 note=37 velocity=70 time=0
note_on channel=9 note=42 velocity=70 time=0
note_off channel=9 note=51 velocity=64 time=100
note_off channel=9 note=42 velocity=64 time=0
note_off channel=9 note=37 velocity=64 time=0
note_on channel=9 note=51 velocity=80 time=380
note_off channel=9 note=51 velocity=64 time=100
note_on channel=9 note=51 velocity=90 time=380
note_on channel=9 note=42 velocity=70 time=0
note_off channel=9 note=51 velocity=64 time=100
note_off channel=9 note=42 velocity=64 time=0
note_on channel=9 note=51 velocity=60 time=252
note_off channel=9 note=51 velocity=64 time=100
note_on channel=9 note=51 velocity=80 time=28
note_off channel=9 note=51 velocity=64 time=100
note_on channel=9 note=51 velocity=90 time=380
note_on channel=9 note=37 velocity=60 time=0
note_on channel=9 note=42 velocity=70 time=0
note_off channel=9 note=51 velocity=64 time=100
note_off channel=9 note=42 velocity=64 time=0
note_off channel=9 note=37 velocity=64 time=0
note_on channel=9 note=51 velocity=60 time=252
note_off channel=9 note=51 velocity=64 time=100
note_on channel=9 note=51 velocity=80 time=28
note_off channel=9 note=51 velocity=64 time=100
note_on channel=9 note=51 velocity=90 time=380
note_on channel=9 note=42 velocity=70 time=0
note_off channel=9 note=51 velocity=64 time=100
note_off channel=9 note=42 velocity=64 time=0
note_on channel=9 note=51 velocity=60 time=256
note_off channel=9 note=51 velocity=64 time=100
note_on channel=9 note=51 velocity=80 time=24
note_off channel=9 note=51 velocity=64 time=100
note_on channel=9 note=51 velocity=90 time=380
note_on channel=9 note=37 velocity=70 time=0
note_on channel=9 note=42 velocity=70 time=0
note_off channel=9 note=51 velocity=64 time=100
note_off channel=9 note=42 velocity=64 time=0
note_off channel=9 note=37 velocity=64 time=0
note_on channel=9 note=51 velocity=60 time=256
note_off channel=9 note=51 velocity=64 time=100
note_on channel=9 note=51 velocity=80 time=24
note_off channel=9 note=51 velocity=64 time=100
note_on channel=9 note=51 velocity=90 time=380
note_on channel=9 note=42 velocity=70 time=0
note_off channel=9 note=51 velocity=64 time=100
note_off channel=9 note=42 velocity=64 time=0
note_on channel=9 note=51 velocity=60 time=256
note_off channel=9 note=51 velocity=64 time=100
note_on channel=9 note=51 velocity=80 time=24
note_off channel=9 note=51 velocity=64 time=100
note_on channel=9 note=51 velocity=90 time=380
note_on channel=9 note=37 velocity=70 time=0
note_on channel=9 note=42 velocity=70 time=0
note_off channel=9 note=51 velocity=64 time=100
note_off channel=9 note=42 velocity=64 time=0
note_off channel=9 note=37 velocity=64 time=0
note_on channel=9 note=51 velocity=60 time=256
note_off channel=9 note=51 velocity=64 time=100
note_on channel=9 note=51 velocity=80 time=24
note_off channel=9 note=51 velocity=64 time=100
note_on channel=9 note=51 velocity=100 time=380
note_on channel=9 note=42 velocity=70 time=0
note_off channel=9 note=51 velocity=64 time=100
note_off channel=9 note=42 velocity=64 time=0
note_on channel=9 note=51 velocity=80 time=380
note_off channel=9 note=51 velocity=64 time=100
note_on channel=9 note=51 velocity=100 time=380
note_on channel=9 note=37 velocity=70 time=0
note_on channel=9 note=42 velocity=70 time=0
note_off channel=9 note=51 velocity=64 time=100
note_off channel=9 note=42 velocity=64 time=0
note_off channel=9 note=37 velocity=64 time=0
note_on channel=9 note=51 velocity=80 time=380
note_off channel=9 note=51 velocity=64 time=100
note_on channel=9 note=51 velocity=90 time=380
note_on channel=9 note=42 velocity=70 time=0
note_off channel=9 note=51 velocity=64 time=100
note_off channel=9 note=42 velocity=64 time=0
note_on channel=9 note=51 velocity=60 time=256
note_off channel=9 note=51 velocity=64 time=100
note_on channel=9 note=51 velocity=80 time=24
note_off channel=9 note=51 velocity=64 time=100
note_on channel=9 note=51 velocity=90 time=380
note_on channel=9 note=37 velocity=70 time=0
note_on channel=9 note=42 velocity=70 time=0
note_off channel=9 note=51 velocity=64 time=100
note_off channel=9 note=42 velocity=64 time=0
note_off channel=9 note=37 velocity=64 time=0
note_on channel=9 note=51 velocity=60 time=256
note_off channel=9 note=51 velocity=64 time=100
note_on channel=9 note=51 velocity=80 time=24
note_off channel=9 note=51 velocity=64 time=100
note_on channel=9 note=51 velocity=90 time=380
note_on channel=9 note=42 velocity=70 time=0
note_off channel=9 note=51 velocity=64 time=100
note_off channel=9 note=42 velocity=64 time=0
note_on channel=9 note=51 velocity=60 time=256
note_off channel=9 note=51 velocity=64 time=100
note_on channel=9 note=51 velocity=80 time=24
note_off channel=9 note=51 velocity=64 time=100
note_on channel=9 note=38 velocity=60 time=256
note_off channel=9 note=38 velocity=64 time=100
note_on channel=9 note=51 velocity=90 time=24
note_on channel=9 note=42 velocity=70 time=0
note_off channel=9 note=51 velocity=64 time=100
note_off channel=9 note=42 velocity=64 time=0
note_on channel=9 note=51 velocity=60 time=256
note_on channel=9 note=38 velocity=30 time=0
note_off channel=9 note=51 velocity=64 time=100
note_off channel=9 note=38 velocity=64 time=0
note_on channel=9 note=51 velocity=80 time=24
note_off channel=9 note=51 velocity=64 time=100
note_on channel=9 note=51 velocity=90 time=380
note_on channel=9 note=42 velocity=70 time=0
note_off channel=9 note=51 velocity=64 time=100
note_off channel=9 note=42 velocity=64 time=0
note_on channel=9 note=51 velocity=60 time=252
note_off channel=9 note=51 velocity=64 time=100
note_on channel=9 note=51 velocity=80 time=28
note_off channel=9 note=51 velocity=64 time=100
note_on channel=9 note=51 velocity=90 time=380
note_on channel=9 note=37 velocity=60 time=0
note_on channel=9 note=42 velocity=70 time=0
note_off channel=9 note=51 velocity=64 time=100
note_off channel=9 note=42 velocity=64 time=0
note_off channel=9 note=37 velocity=64 time=0
note_on channel=9 note=51 velocity=60 time=252
note_off channel=9 note=51 velocity=64 time=100
note_on channel=9 note=51 velocity=80 time=28
note_off channel=9 note=51 velocity=64 time=100
note_on channel=9 note=51 velocity=100 time=380
note_on channel=9 note=42 velocity=70 time=0
note_off channel=9 note=51 velocity=64 time=100
note_off channel=9 note=42 velocity=64 time=0
note_on channel=9 note=51 velocity=80 time=380
note_off channel=9 note=51 velocity=64 time=100
note_on channel=9 note=51 velocity=100 time=380
note_on channel=9 note=37 velocity=70 time=0
note_on channel=9 note=42 velocity=70 time=0
note_off channel=9 note=51 velocity=64 time=100
note_off channel=9 note=42 velocity=64 time=0
note_off channel=9 note=37 velocity=64 time=0
note_on channel=9 note=51 velocity=80 time=380
note_off channel=9 note=51 velocity=64 time=100
note_on channel=9 note=51 velocity=90 time=380
note_on channel=9 note=42 velocity=70 time=0
note_off channel=9 note=51 velocity=64 time=100
note_off channel=9 note=42 velocity=64 time=0
note_on channel=9 note=51 velocity=60 time=252
note_off channel=9 note=51 velocity=64 time=100
note_on channel=9 note=51 velocity=80 time=28
note_off channel=9 note=51 velocity=64 time=100
note_on channel=9 note=51 velocity=90 time=380
note_on channel=9 note=37 velocity=60 time=0
note_on channel=9 note=42 velocity=70 time=0
note_off channel=9 note=51 velocity=64 time=100
note_off channel=9 note=42 velocity=64 time=0
note_off channel=9 note=37 velocity=64 time=0
note_on channel=9 note=51 velocity=60 time=252
note_off channel=9 note=51 velocity=64 time=100
note_on channel=9 note=51 velocity=80 time=28
note_off channel=9 note=51 velocity=64 time=100
note_on channel=9 note=51 velocity=90 time=380
note_on channel=9 note=42 velocity=70 time=0
note_off channel=9 note=51 velocity=64 time=100
note_off channel=9 note=42 velocity=64 time=0
note_on channel=9 note=51 velocity=80 time=380
note_off channel=9 note=51 velocity=64 time=100
note_on channel=9 note=51 velocity=90 time=380
note_on channel=9 note=37 velocity=70 time=0
note_on channel=9 note=42 velocity=70 time=0
note_off channel=9 note=51 velocity=64 time=100
note_off channel=9 note=42 velocity=64 time=0
note_off channel=9 note=37 velocity=64 time=0
note_on channel=9 note=51 velocity=80 time=380
note_off channel=9 note=51 velocity=64 time=100
note_on channel=9 note=51 velocity=90 time=380
note_on channel=9 note=42 velocity=70 time=0
note_off channel=9 note=51 velocity=64 time=100
note_off channel=9 note=42 velocity=64 time=0
note_on channel=9 note=51 velocity=60 time=252
note_off channel=9 note=51 velocity=64 time=100
note_on channel=9 note=51 velocity=80 time=28
note_off channel=9 note=51 velocity=64 time=100
note_on channel=9 note=51 velocity=90 time=380
note_on channel=9 note=37 velocity=60 time=0
note_on channel=9 note=42 velocity=70 time=0
note_off channel=9 note=51 velocity=64 time=100
note_off channel=9 note=42 velocity=64 time=0
note_off channel=9 note=37 velocity=64 time=0
note_on channel=9 note=51 velocity=60 time=252
note_off channel=9 note=51 velocity=64 time=100
note_on channel=9 note=51 velocity=80 time=28
note_off channel=9 note=51 velocity=64 time=100
note_on channel=9 note=51 velocity=100 time=380
note_on channel=9 note=42 velocity=70 time=0
note_off channel=9 note=51 velocity=64 time=100
note_off channel=9 note=42 velocity=64 time=0
note_on channel=9 note=51 velocity=80 time=380
note_off channel=9 note=51 velocity=64 time=100
note_on channel=9 note=51 velocity=100 time=380
note_on channel=9 note=37 velocity=70 time=0
note_on channel=9 note=42 velocity=70 time=0
note_off channel=9 note=51 velocity=64 time=100
note_off channel=9 note=42 velocity=64 time=0
note_off channel=9 note=37 velocity=64 time=0
note_on channel=9 note=51 velocity=80 time=380
note_off channel=9 note=51 velocity=64 time=100
note_on channel=9 note=51 velocity=100 time=380
note_on channel=9 note=42 velocity=70 time=0
note_off channel=9 note=51 velocity=64 time=100
note_off channel=9 note=42 velocity=64 time=0
note_on channel=9 note=51 velocity=80 time=380
note_off channel=9 note=51 velocity=64 time=100
note_on channel=9 note=51 velocity=100 time=380
note_on channel=9 note=37 velocity=70 time=0
note_on channel=9 note=42 velocity=70 time=0
note_off channel=9 note=51 velocity=64 time=100
note_off channel=9 note=42 velocity=64 time=0
note_off channel=9 note=37 velocity=64 time=0
note_on channel=9 note=51 velocity=80 time=380
note_off channel=9 note=51 velocity=64 time=100
note_on channel=9 note=51 velocity=90 time=380
note_on channel=9 note=42 velocity=70 time=0
note_off channel=9 note=51 velocity=64 time=100
note_off channel=9 note=42 velocity=64 time=0
note_on channel=9 note=51 velocity=60 time=256
note_off channel=9 note=51 velocity=64 time=100
note_on channel=9 note=51 velocity=80 time=24
note_off channel=9 note=51 velocity=64 time=100
note_on channel=9 note=38 velocity=20 time=256
note_off channel=9 note=38 velocity=64 time=100
note_on channel=9 note=51 velocity=90 time=24
note_on channel=9 note=37 velocity=70 time=0
note_on channel=9 note=42 velocity=70 time=0
note_on channel=9 note=38 velocity=40 time=0
note_off channel=9 note=51 velocity=64 time=100
note_off channel=9 note=38 velocity=64 time=0
note_off channel=9 note=42 velocity=64 time=0
note_off channel=9 note=37 velocity=64 time=0
note_on channel=9 note=51 velocity=60 time=256
note_off channel=9 note=51 velocity=64 time=100
note_on channel=9 note=49 velocity=75 time=24
note_on channel=9 note=51 velocity=80 time=0
note_off channel=9 note=49 velocity=64 time=100
note_off channel=9 note=51 velocity=64 time=0
note_on channel=9 note=51 velocity=100 time=380
note_on channel=9 note=42 velocity=70 time=0
note_off channel=9 note=51 velocity=64 time=100
note_off channel=9 note=42 velocity=64 time=0
note_on channel=9 note=51 velocity=80 time=380
note_off channel=9 note=51 velocity=64 time=100
note_on channel=9 note=51 velocity=100 time=380
note_on channel=9 note=37 velocity=70 time=0
note_on channel=9 note=42 velocity=70 time=0
note_off channel=9 note=51 velocity=64 time=100
note_off channel=9 note=42 velocity=64 time=0
note_off channel=9 note=37 velocity=64 time=0
note_on channel=9 note=51 velocity=80 time=380
note_off channel=9 note=51 velocity=64 time=100
note_on channel=9 note=51 velocity=100 time=380
note_on channel=9 note=42 velocity=70 time=0
note_off channel=9 note=51 velocity=64 time=100
note_off channel=9 note=42 velocity=64 time=0
note_on channel=9 note=51 velocity=80 time=380
note_off channel=9 note=51 velocity=64 time=100
note_on channel=9 note=51 velocity=100 time=380
note_on channel=9 note=37 velocity=70 time=0
note_on channel=9 note=42 velocity=70 time=0
note_off channel=9 note=51 velocity=64 time=100
note_off channel=9 note=42 velocity=64 time=0
note_off channel=9 note=37 velocity=64 time=0
note_on channel=9 note=51 velocity=80 time=380
note_off channel=9 note=51 velocity=64 time=100
note_on channel=9 note=51 velocity=90 time=380
note_on channel=9 note=42 velocity=70 time=0
note_off channel=9 note=51 velocity=64 time=100
note_off channel=9 note=42 velocity=64 time=0
note_on channel=9 note=51 velocity=60 time=252
note_off channel=9 note=51 velocity=64 time=100
note_on channel=9 note=51 velocity=80 time=28
note_off channel=9 note=51 velocity=64 time=100
note_on channel=9 note=51 velocity=90 time=380
note_on channel=9 note=37 velocity=60 time=0
note_on channel=9 note=42 velocity=70 time=0
note_off channel=9 note=51 velocity=64 time=100
note_off channel=9 note=42 velocity=64 time=0
note_off channel=9 note=37 velocity=64 time=0
note_on channel=9 note=51 velocity=60 time=252
note_off channel=9 note=51 velocity=64 time=100
note_on channel=9 note=51 velocity=80 time=28
note_off channel=9 note=51 velocity=64 time=100
note_on channel=9 note=51 velocity=100 time=380
note_on channel=9 note=42 velocity=70 time=0
note_off channel=9 note=51 velocity=64 time=100
note_off channel=9 note=42 velocity=64 time=0
note_on channel=9 note=51 velocity=80 time=380
note_off channel=9 note=51 velocity=64 time=100
note_on channel=9 note=51 velocity=100 time=380
note_on channel=9 note=37 velocity=70 time=0
note_on channel=9 note=42 velocity=70 time=0
note_off channel=9 note=51 velocity=64 time=100
note_off channel=9 note=42 velocity=64 time=0
note_off channel=9 note=37 velocity=64 time=0
note_on channel=9 note=51 velocity=80 time=380
note_off channel=9 note=51 velocity=64 time=100
note_on channel=9 note=51 velocity=90 time=380
note_on channel=9 note=42 velocity=70 time=0
note_off channel=9 note=51 velocity=64 time=100
note_off channel=9 note=42 velocity=64 time=0
note_on channel=9 note=51 velocity=60 time=256
note_off channel=9 note=51 velocity=64 time=100
note_on channel=9 note=51 velocity=80 time=24
note_off channel=9 note=51 velocity=64 time=100
note_on channel=9 note=51 velocity=90 time=380
note_on channel=9 note=37 velocity=70 time=0
note_on channel=9 note=42 velocity=70 time=0
note_off channel=9 note=51 velocity=64 time=100
note_off channel=9 note=42 velocity=64 time=0
note_off channel=9 note=37 velocity=64 time=0
note_on channel=9 note=35 velocity=100 time=256
note_on channel=9 note=39 velocity=100 time=0
note_on channel=9 note=57 velocity=75 time=0
note_off channel=9 note=35 velocity=64 time=100
note_off channel=9 note=57 velocity=64 time=0
note_off channel=9 note=39 velocity=64 time=0
note_on channel=9 note=51 velocity=80 time=24
note_off channel=9 note=51 velocity=64 time=100
note_on channel=9 note=38 velocity=51 time=220
note_off channel=9 note=38 velocity=64 time=88
note_on channel=9 note=38 velocity=42 time=72
note_on channel=9 note=42 velocity=70 time=0
note_on channel=9 note=51 velocity=100 time=0
note_on channel=9 note=35 velocity=42 time=0
note_off channel=9 note=38 velocity=64 time=88
note_off channel=9 note=35 velocity=64 time=0
note_off channel=9 note=51 velocity=64 time=12
note_off channel=9 note=42 velocity=64 time=0
note_on channel=9 note=51 velocity=80 time=380
note_on channel=9 note=38 velocity=50 time=0
note_on channel=9 note=35 velocity=50 time=0
note_off channel=9 note=38 velocity=64 time=88
note_off channel=9 note=35 velocity=64 time=0
note_off channel=9 note=51 velocity=64 time=12
note_on channel=9 note=38 velocity=56 time=220
note_off channel=9 note=38 velocity=64 time=88
note_on channel=9 note=51 velocity=90 time=72
note_on channel=9 note=42 velocity=70 time=0
note_on channel=9 note=38 velocity=90 time=0
note_on channel=9 note=35 velocity=90 time=0
note_off channel=9 note=35 velocity=64 time=52
note_off channel=9 note=38 velocity=64 time=36
note_off channel=9 note=51 velocity=64 time=12
note_off channel=9 note=42 velocity=64 time=0
note_on channel=9 note=51 velocity=80 time=220
note_on channel=9 note=35 velocity=80 time=0
note_on channel=9 note=38 velocity=80 time=0
note_off channel=9 note=35 velocity=64 time=88
note_off channel=9 note=38 velocity=64 time=0
note_off channel=9 note=51 velocity=64 time=48
control_change channel=9 control=0 value=62 time=24
control_change channel=9 control=32 value=0 time=0
program_change channel=9 program=32 time=0
control_change channel=9 control=11 value=89 time=1896
control_change channel=9 control=11 value=90 time=336
control_change channel=9 control=11 value=91 time=312
note_on channel=9 note=38 velocity=75 time=256
note_off channel=9 note=38 velocity=64 time=40
note_on channel=9 note=38 velocity=77 time=0
note_off channel=9 note=38 velocity=64 time=40
control_change channel=9 control=11 value=93 time=0
note_on channel=9 note=35 velocity=80 time=0
note_on channel=9 note=38 velocity=106 time=0
note_off channel=9 note=35 velocity=64 time=112
note_off channel=9 note=38 velocity=64 time=0
control_change channel=9 control=11 value=94 time=200
note_on channel=9 note=49 velocity=94 time=8
note_on channel=9 note=38 velocity=94 time=0
note_on channel=9 note=35 velocity=81 time=0
note_on channel=9 note=51 velocity=81 time=0
note_off channel=9 note=38 velocity=64 time=112
note_off channel=9 note=51 velocity=64 time=0
note_off channel=9 note=35 velocity=64 time=0
control_change channel=9 control=11 value=95 time=216
note_on channel=9 note=51 velocity=60 time=188
note_off channel=9 note=51 velocity=64 time=100
control_change channel=9 control=11 value=96 time=24
note_on channel=9 note=51 velocity=80 time=0
note_on channel=9 note=35 velocity=80 time=0
note_off channel=9 note=51 velocity=64 time=100
note_off channel=9 note=35 velocity=64 time=0
note_on channel=9 note=51 velocity=90 time=380
note_on channel=9 note=42 velocity=70 time=0
note_off channel=9 note=51 velocity=64 time=100
note_off channel=9 note=42 velocity=64 time=0
note_on channel=9 note=51 velocity=60 time=256
note_off channel=9 note=51 velocity=64 time=100
note_on channel=9 note=51 velocity=80 time=24
note_off channel=9 note=49 velocity=64 time=24
note_off channel=9 note=51 velocity=64 time=76
note_on channel=9 note=51 velocity=90 time=380
note_on channel=9 note=37 velocity=70 time=0
note_on channel=9 note=42 velocity=70 time=0
note_off channel=9 note=51 velocity=64 time=100
note_off channel=9 note=42 velocity=64 time=0
note_off channel=9 note=37 velocity=64 time=0
note_on channel=9 note=51 velocity=60 time=256
note_off channel=9 note=51 velocity=64 time=100
note_on channel=9 note=51 velocity=80 time=24
note_on channel=9 note=35 velocity=80 time=0
note_off channel=9 note=51 velocity=64 time=100
note_off channel=9 note=35 velocity=64 time=0
note_on channel=9 note=51 velocity=90 time=380
note_on channel=9 note=42 velocity=70 time=0
note_off channel=9 note=51 velocity=64 time=100
note_off channel=9 note=42 velocity=64 time=0
note_on channel=9 note=51 velocity=60 time=256
note_on channel=9 note=38 velocity=75 time=44
note_off channel=9 note=38 velocity=64 time=40
note_on channel=9 note=38 velocity=77 time=0
note_off channel=9 note=51 velocity=64 time=16
note_off channel=9 note=38 velocity=64 time=24
note_on channel=9 note=51 velocity=80 time=0
note_on channel=9 note=38 velocity=106 time=0
note_on channel=9 note=35 velocity=106 time=0
note_off channel=9 note=51 velocity=64 time=100
note_off channel=9 note=35 velocity=64 time=12
note_off channel=9 note=38 velocity=64 time=0
note_on channel=9 note=38 velocity=88 time=208
note_on channel=9 note=35 velocity=88 time=0
note_on channel=9 note=40 velocity=88 time=0
note_off channel=9 note=38 velocity=64 time=112
note_off channel=9 note=40 velocity=64 time=0
note_off channel=9 note=35 velocity=64 time=0
note_on channel=9 note=51 velocity=90 time=48
note_on channel=9 note=42 velocity=70 time=0
note_off channel=9 note=51 velocity=64 time=100
note_off channel=9 note=42 velocity=64 time=0
note_on channel=9 note=35 velocity=88 time=220
note_on channel=9 note=38 velocity=88 time=0
note_on channel=9 note=49 velocity=96 time=0
note_on channel=9 note=51 velocity=60 time=36
note_off channel=9 note=35 velocity=64 time=76
note_off channel=9 note=38 velocity=64 time=0
note_off channel=9 note=51 velocity=64 time=24
note_on channel=9 note=51 velocity=80 time=24
note_off channel=9 note=51 velocity=64 time=100
note_on channel=9 note=51 velocity=100 time=380
note_on channel=9 note=42 velocity=70 time=0
note_off channel=9 note=51 velocity=64 time=100
note_off channel=9 note=42 velocity=64 time=0
note_on channel=9 note=51 velocity=80 time=380
note_off channel=9 note=51 velocity=64 time=100
note_on channel=9 note=51 velocity=100 time=380
note_on channel=9 note=37 velocity=70 time=0
note_on channel=9 note=42 velocity=70 time=0
note_off channel=9 note=51 velocity=64 time=100
note_off channel=9 note=42 velocity=64 time=0
note_off channel=9 note=37 velocity=64 time=0
note_off channel=9 note=49 velocity=64 time=356
note_on channel=9 note=51 velocity=80 time=24
note_off channel=9 note=51 velocity=64 time=100
note_on channel=9 note=51 velocity=90 time=380
note_on channel=9 note=42 velocity=70 time=0
note_off channel=9 note=51 velocity=64 time=100
note_off channel=9 note=42 velocity=64 time=0
note_on channel=9 note=51 velocity=80 time=380
note_off channel=9 note=51 velocity=64 time=100
note_on channel=9 note=51 velocity=90 time=380
note_on channel=9 note=37 velocity=70 time=0
note_on channel=9 note=42 velocity=70 time=0
note_off channel=9 note=51 velocity=64 time=100
note_off channel=9 note=42 velocity=64 time=0
note_off channel=9 note=37 velocity=64 time=0
note_on channel=9 note=38 velocity=81 time=300
note_off channel=9 note=38 velocity=64 time=40
note_on channel=9 note=38 velocity=81 time=0
note_off channel=9 note=38 velocity=64 time=40
note_on channel=9 note=51 velocity=80 time=0
note_on channel=9 note=35 velocity=96 time=0
note_on channel=9 note=38 velocity=80 time=0
note_off channel=9 note=51 velocity=64 time=100
note_off channel=9 note=38 velocity=64 time=0
note_off channel=9 note=35 velocity=64 time=0
note_on channel=9 note=40 velocity=88 time=220
note_on channel=9 note=49 velocity=88 time=0
note_off channel=9 note=40 velocity=64 time=112
note_on channel=9 note=51 velocity=100 time=48
note_on channel=9 note=42 velocity=70 time=0
note_off channel=9 note=51 velocity=64 time=100
note_off channel=9 note=42 velocity=64 time=0
note_off channel=9 note=49 velocity=64 time=188
note_on channel=9 note=38 velocity=88 time=32
note_on channel=9 note=35 velocity=88 time=0
note_on channel=9 note=49 velocity=88 time=0
note_off channel=9 note=38 velocity=64 time=112
note_off channel=9 note=35 velocity=64 time=0
note_on channel=9 note=51 velocity=80 time=48
note_off channel=9 note=51 velocity=64 time=100
note_on channel=9 note=51 velocity=100 time=380
note_on channel=9 note=42 velocity=70 time=0
note_off channel=9 note=51 velocity=64 time=100
note_off channel=9 note=42 velocity=64 time=0
note_on channel=9 note=38 velocity=81 time=300
note_off channel=9 note=49 velocity=64 time=8
note_off channel=9 note=38 velocity=64 time=32
note_on channel=9 note=38 velocity=81 time=0
note_off channel=9 note=38 velocity=64 time=40
note_on channel=9 note=51 velocity=80 time=0
note_on channel=9 note=35 velocity=96 time=0
note_on channel=9 note=38 velocity=80 time=0
note_off channel=9 note=51 velocity=64 time=100
note_off channel=9 note=38 velocity=64 time=0
note_off channel=9 note=35 velocity=64 time=0
note_on channel=9 note=40 velocity=88 time=220
note_on channel=9 note=57 velocity=88 time=0
note_off channel=9 note=40 velocity=64 time=112
note_on channel=9 note=51 velocity=90 time=48
note_on channel=9 note=42 velocity=70 time=0
note_off channel=9 note=51 velocity=64 time=100
note_off channel=9 note=42 velocity=64 time=0
note_off channel=9 note=57 velocity=64 time=188
note_on channel=9 note=38 velocity=88 time=32
note_on channel=9 note=35 velocity=88 time=0
note_on channel=9 note=57 velocity=88 time=0
note_off channel=9 note=38 velocity=64 time=112
note_off channel=9 note=35 velocity=64 time=0
note_on channel=9 note=51 velocity=80 time=48
note_off channel=9 note=51 velocity=64 time=100
note_on channel=9 note=51 velocity=90 time=380
note_on channel=9 note=42 velocity=70 time=0
note_off channel=9 note=51 velocity=64 time=100
note_off channel=9 note=42 velocity=64 time=0
note_off channel=9 note=57 velocity=64 time=308
note_on channel=9 note=51 velocity=80 time=72
note_off channel=9 note=51 velocity=64 time=100
note_on channel=9 note=38 velocity=81 time=220
note_on channel=9 note=35 velocity=81 time=0
note_on channel=9 note=49 velocity=81 time=0
note_off channel=9 note=38 velocity=64 time=112
note_off channel=9 note=49 velocity=64 time=0
note_off channel=9 note=35 velocity=64 time=0
note_on channel=9 note=51 velocity=100 time=48
note_on channel=9 note=38 velocity=70 time=0
note_off channel=9 note=51 velocity=64 time=100
note_off channel=9 note=38 velocity=64 time=0
note_on channel=9 note=40 velocity=84 time=220
note_on channel=9 note=35 velocity=84 time=0
note_on channel=9 note=57 velocity=84 time=0
note_off channel=9 note=40 velocity=64 time=112
note_off channel=9 note=57 velocity=64 time=0
note_off channel=9 note=35 velocity=64 time=0
note_on channel=9 note=51 velocity=80 time=48
note_off channel=9 note=51 velocity=64 time=100
note_on channel=9 note=38 velocity=88 time=220
note_on channel=9 note=35 velocity=88 time=0
note_on channel=9 note=49 velocity=88 time=0
note_off channel=9 note=38 velocity=64 time=112
note_off channel=9 note=49 velocity=64 time=0
note_off channel=9 note=35 velocity=64 time=0
note_on channel=9 note=51 velocity=100 time=48
note_on channel=9 note=43 velocity=70 time=0
note_off channel=9 note=51 velocity=64 time=100
note_off channel=9 note=43 velocity=64 time=0
note_on channel=9 note=41 velocity=81 time=60
note_off channel=9 note=41 velocity=64 time=64
note_on channel=9 note=40 velocity=81 time=96
note_on channel=9 note=35 velocity=81 time=0
note_off channel=9 note=40 velocity=64 time=88
note_off channel=9 note=35 velocity=64 time=48
control_change channel=9 control=11 value=96 time=24
note_on channel=9 note=51 velocity=80 time=0
note_on channel=9 note=38 velocity=91 time=0
note_off channel=9 note=38 velocity=64 time=64
note_off channel=9 note=51 velocity=64 time=36
control_change channel=9 control=11 value=95 time=92
note_on channel=9 note=57 velocity=94 time=128
note_on channel=9 note=40 velocity=94 time=0
note_on channel=9 note=35 velocity=94 time=0
note_on channel=9 note=49 velocity=94 time=0
control_change channel=9 control=11 value=94 time=64
note_off channel=9 note=35 velocity=64 time=44
note_off channel=9 note=40 velocity=64 time=4
note_on channel=9 note=51 velocity=90 time=48
note_on channel=9 note=42 velocity=70 time=0
control_change channel=9 control=11 value=93 time=96
note_off channel=9 note=51 velocity=64 time=4
note_off channel=9 note=42 velocity=64 time=0
control_change channel=9 control=11 value=91 time=188
note_on channel=9 note=51 velocity=60 time=68
note_off channel=9 note=51 velocity=64 time=100
control_change channel=9 control=11 value=90 time=24
note_on channel=9 note=51 velocity=80 time=0
note_off channel=9 note=51 velocity=64 time=100
control_change channel=9 control=11 value=89 time=92
note_off channel=9 note=49 velocity=64 time=92
note_off channel=9 note=57 velocity=64 time=0
note_on channel=9 note=38 velocity=20 time=72
control_change channel=9 control=11 value=88 time=28
note_off channel=9 note=38 velocity=64 time=72
note_on channel=9 note=51 velocity=90 time=24
note_on channel=9 note=37 velocity=70 time=0
note_on channel=9 note=42 velocity=70 time=0
note_on channel=9 note=38 velocity=40 time=0
control_change channel=9 control=11 value=86 time=96
note_off channel=9 note=51 velocity=64 time=4
note_off channel=9 note=38 velocity=64 time=0
note_off channel=9 note=42 velocity=64 time=0
note_off channel=9 note=37 velocity=64 time=0
control_change channel=9 control=11 value=85 time=188
note_on channel=9 note=51 velocity=60 time=68
note_on channel=9 note=38 velocity=81 time=44
note_off channel=9 note=38 velocity=64 time=40
note_on channel=9 note=38 velocity=81 time=0
note_off channel=9 note=51 velocity=64 time=16
note_off channel=9 note=38 velocity=64 time=24
control_change channel=9 control=11 value=84 time=0
note_on channel=9 note=51 velocity=80 time=0
note_on channel=9 note=38 velocity=84 time=0
note_on channel=9 note=35 velocity=84 time=0
note_off channel=9 note=51 velocity=64 time=100
note_off channel=9 note=35 velocity=64 time=16
note_off channel=9 note=38 velocity=64 time=0
note_on channel=9 note=38 velocity=82 time=204
note_on channel=9 note=35 velocity=82 time=0
note_off channel=9 note=38 velocity=64 time=124
note_off channel=9 note=35 velocity=64 time=0
note_on channel=9 note=51 velocity=90 time=36
note_on channel=9 note=42 velocity=70 time=0
note_off channel=9 note=51 velocity=64 time=100
note_off channel=9 note=42 velocity=64 time=0
note_on channel=9 note=51 velocity=60 time=252
note_off channel=9 note=51 velocity=64 time=100
note_on channel=9 note=51 velocity=80 time=28
note_off channel=9 note=51 velocity=64 time=100
note_on channel=9 note=51 velocity=90 time=380
note_on channel=9 note=37 velocity=60 time=0
note_on channel=9 note=42 velocity=70 time=0
note_off channel=9 note=51 velocity=64 time=100
note_off channel=9 note=42 velocity=64 time=0
note_off channel=9 note=37 velocity=64 time=0
note_on channel=9 note=51 velocity=60 time=252
note_off channel=9 note=51 velocity=64 time=100
note_on channel=9 note=51 velocity=80 time=28
note_off channel=9 note=51 velocity=64 time=100
note_on channel=9 note=51 velocity=90 time=380
note_on channel=9 note=42 velocity=70 time=0
note_off channel=9 note=51 velocity=64 time=100
note_off channel=9 note=42 velocity=64 time=0
note_on channel=9 note=51 velocity=60 time=256
note_off channel=9 note=51 velocity=64 time=100
note_on channel=9 note=51 velocity=80 time=24
note_off channel=9 note=51 velocity=64 time=100
note_on channel=9 note=51 velocity=90 time=380
note_on channel=9 note=37 velocity=70 time=0
note_on channel=9 note=42 velocity=70 time=0
note_off channel=9 note=51 velocity=64 time=100
note_off channel=9 note=42 velocity=64 time=0
note_off channel=9 note=37 velocity=64 time=0
note_on channel=9 note=51 velocity=60 time=256
note_off channel=9 note=51 velocity=64 time=100
note_on channel=9 note=51 velocity=80 time=24
note_off channel=9 note=51 velocity=64 time=100
note_on channel=9 note=51 velocity=90 time=380
note_on channel=9 note=42 velocity=70 time=0
note_off channel=9 note=51 velocity=64 time=100
note_off channel=9 note=42 velocity=64 time=0
note_on channel=9 note=51 velocity=60 time=252
note_off channel=9 note=51 velocity=64 time=100
note_on channel=9 note=51 velocity=80 time=28
note_off channel=9 note=51 velocity=64 time=100
note_on channel=9 note=51 velocity=90 time=380
note_on channel=9 note=37 velocity=60 time=0
note_on channel=9 note=42 velocity=70 time=0
note_off channel=9 note=51 velocity=64 time=100
note_off channel=9 note=42 velocity=64 time=0
note_off channel=9 note=37 velocity=64 time=0
note_on channel=9 note=51 velocity=60 time=252
note_off channel=9 note=51 velocity=64 time=100
note_on channel=9 note=51 velocity=80 time=28
note_off channel=9 note=51 velocity=64 time=100
note_on channel=9 note=51 velocity=90 time=380
note_on channel=9 note=42 velocity=70 time=0
note_off channel=9 note=51 velocity=64 time=100
note_off channel=9 note=42 velocity=64 time=0
note_on channel=9 note=51 velocity=80 time=380
note_off channel=9 note=51 velocity=64 time=100
note_on channel=9 note=51 velocity=90 time=380
note_on channel=9 note=37 velocity=70 time=0
note_on channel=9 note=42 velocity=70 time=0
note_off channel=9 note=51 velocity=64 time=100
note_off channel=9 note=42 velocity=64 time=0
note_off channel=9 note=37 velocity=64 time=0
note_on channel=9 note=51 velocity=80 time=380
note_off channel=9 note=51 velocity=64 time=100
note_on channel=9 note=51 velocity=100 time=380
note_on channel=9 note=42 velocity=70 time=0
note_off channel=9 note=51 velocity=64 time=100
note_off channel=9 note=42 velocity=64 time=0
note_on channel=9 note=51 velocity=80 time=380
note_off channel=9 note=51 velocity=64 time=100
note_on channel=9 note=51 velocity=100 time=380
note_on channel=9 note=37 velocity=70 time=0
note_on channel=9 note=42 velocity=70 time=0
note_off channel=9 note=51 velocity=64 time=100
note_off channel=9 note=42 velocity=64 time=0
note_off channel=9 note=37 velocity=64 time=0
note_on channel=9 note=51 velocity=80 time=380
note_off channel=9 note=51 velocity=64 time=100
note_on channel=9 note=51 velocity=90 time=380
note_on channel=9 note=42 velocity=70 time=0
note_off channel=9 note=51 velocity=64 time=100
note_off channel=9 note=42 velocity=64 time=0
note_on channel=9 note=51 velocity=80 time=380
note_off channel=9 note=51 velocity=64 time=100
note_on channel=9 note=51 velocity=90 time=380
note_on channel=9 note=37 velocity=70 time=0
note_on channel=9 note=42 velocity=70 time=0
note_off channel=9 note=51 velocity=64 time=100
note_off channel=9 note=42 velocity=64 time=0
note_off channel=9 note=37 velocity=64 time=0
control_change channel=9 control=11 value=84 time=380
note_on channel=9 note=51 velocity=80 time=0
note_off channel=9 note=51 velocity=64 time=100
control_change channel=9 control=11 value=85 time=92
control_change channel=9 control=11 value=86 time=192
note_on channel=9 note=51 velocity=90 time=96
note_on channel=9 note=42 velocity=70 time=0
control_change channel=9 control=11 value=88 time=96
note_off channel=9 note=51 velocity=64 time=4
note_off channel=9 note=42 velocity=64 time=0
control_change channel=9 control=11 value=89 time=188
note_on channel=9 note=51 velocity=60 time=68
note_off channel=9 note=51 velocity=64 time=100
control_change channel=9 control=11 value=90 time=24
note_on channel=9 note=51 velocity=80 time=0
note_off channel=9 note=51 velocity=64 time=100
control_change channel=9 control=11 value=91 time=92
control_change channel=9 control=11 value=93 time=192
note_on channel=9 note=51 velocity=90 time=96
note_on channel=9 note=37 velocity=70 time=0
note_on channel=9 note=42 velocity=70 time=0
control_change channel=9 control=11 value=94 time=96
note_off channel=9 note=51 velocity=64 time=4
note_off channel=9 note=42 velocity=64 time=0
note_off channel=9 note=37 velocity=64 time=0
control_change channel=9 control=11 value=95 time=188
note_on channel=9 note=51 velocity=60 time=68
note_off channel=9 note=51 velocity=64 time=100
control_change channel=9 control=11 value=96 time=24
note_on channel=9 note=51 velocity=80 time=0
note_off channel=9 note=51 velocity=64 time=100
control_change channel=9 control=11 value=98 time=92
control_change channel=9 control=11 value=99 time=192
note_on channel=9 note=51 velocity=90 time=96
note_on channel=9 note=42 velocity=70 time=0
control_change channel=9 control=11 value=100 time=96
note_off channel=9 note=51 velocity=64 time=4
note_off channel=9 note=42 velocity=64 time=0
control_change channel=9 control=11 value=101 time=188
note_on channel=9 note=51 velocity=60 time=68
note_off channel=9 note=51 velocity=64 time=100
control_change channel=9 control=11 value=103 time=24
note_on channel=9 note=48 velocity=61 time=0
note_on channel=9 note=51 velocity=80 time=0
note_off channel=9 note=48 velocity=64 time=58
note_off channel=9 note=51 velocity=64 time=42
note_on channel=9 note=48 velocity=53 time=20
note_off channel=9 note=48 velocity=64 time=57
control_change channel=9 control=11 value=104 time=15
note_on channel=9 note=38 velocity=60 time=164
note_on channel=9 note=36 velocity=74 time=4
control_change channel=9 control=11 value=105 time=24
note_off channel=9 note=36 velocity=64 time=35
note_off channel=9 note=38 velocity=64 time=37
note_on channel=9 note=47 velocity=103 time=24
note_on channel=9 note=51 velocity=90 time=0
note_on channel=9 note=42 velocity=70 time=0
note_off channel=9 note=47 velocity=64 time=56
control_change channel=9 control=11 value=106 time=40
note_off channel=9 note=42 velocity=64 time=4
note_off channel=9 note=51 velocity=64 time=0
note_on channel=9 note=47 velocity=68 time=20
note_off channel=9 note=47 velocity=64 time=57
control_change channel=9 control=11 value=108 time=111
note_on channel=9 note=51 velocity=60 time=68
note_on channel=9 note=38 velocity=30 time=0
note_on channel=9 note=36 velocity=65 time=4
note_on channel=9 note=40 velocity=81 time=40
note_off channel=9 note=36 velocity=64 time=17
note_off channel=9 note=40 velocity=64 time=23
note_on channel=9 note=40 velocity=81 time=0
note_off channel=9 note=51 velocity=64 time=16
note_off channel=9 note=38 velocity=64 time=0
note_off channel=9 note=40 velocity=64 time=24
control_change channel=9 control=11 value=109 time=0
note_on channel=9 note=51 velocity=80 time=0
note_on channel=9 note=40 velocity=92 time=0
note_off channel=9 note=40 velocity=64 time=76
note_off channel=9 note=51 velocity=64 time=24
note_on channel=9 note=40 velocity=109 time=236
note_on channel=9 note=49 velocity=109 time=0
note_on channel=9 note=36 velocity=80 time=0
note_off channel=9 note=40 velocity=64 time=58
note_off channel=9 note=36 velocity=64 time=42
note_on channel=9 note=51 velocity=90 time=44
note_on channel=9 note=42 velocity=70 time=0
note_off channel=9 note=51 velocity=64 time=100
note_off channel=9 note=42 velocity=64 time=0
note_on channel=9 note=51 velocity=60 time=256
note_off channel=9 note=51 velocity=64 time=100
note_on channel=9 note=51 velocity=80 time=24
note_on channel=9 note=38 velocity=94 time=0
note_off channel=9 note=38 velocity=64 time=88
note_off channel=9 note=51 velocity=64 time=12
note_on channel=9 note=38 velocity=94 time=220
note_on channel=9 note=38 velocity=20 time=36
note_off channel=9 note=38 velocity=64 time=52
note_off channel=9 note=38 velocity=64 time=48
note_on channel=9 note=51 velocity=90 time=24
note_on channel=9 note=37 velocity=70 time=0
note_on channel=9 note=42 velocity=70 time=0
note_on channel=9 note=38 velocity=40 time=0
note_off channel=9 note=51 velocity=64 time=100
note_off channel=9 note=38 velocity=64 time=0
note_off channel=9 note=42 velocity=64 time=0
note_off channel=9 note=37 velocity=64 time=0
note_off channel=9 note=49 velocity=64 time=150
note_on channel=9 note=51 velocity=60 time=106
note_on channel=9 note=38 velocity=30 time=0
note_on channel=9 note=36 velocity=65 time=4
note_on channel=9 note=40 velocity=81 time=40
note_off channel=9 note=36 velocity=64 time=17
note_off channel=9 note=40 velocity=64 time=23
note_on channel=9 note=40 velocity=81 time=0
note_off channel=9 note=51 velocity=64 time=16
note_off channel=9 note=38 velocity=64 time=0
note_off channel=9 note=40 velocity=64 time=24
note_on channel=9 note=51 velocity=80 time=0
note_on channel=9 note=40 velocity=92 time=0
note_off channel=9 note=40 velocity=64 time=76
note_off channel=9 note=51 velocity=64 time=24
note_on channel=9 note=36 velocity=80 time=236
note_on channel=9 note=40 velocity=109 time=0
note_on channel=9 note=57 velocity=109 time=0
note_off channel=9 note=40 velocity=64 time=58
note_off channel=9 note=36 velocity=64 time=42
note_on channel=9 note=51 velocity=90 time=44
note_on channel=9 note=42 velocity=70 time=0
note_off channel=9 note=51 velocity=64 time=100
note_off channel=9 note=42 velocity=64 time=0
note_on channel=9 note=51 velocity=60 time=256
note_off channel=9 note=51 velocity=64 time=100
note_on channel=9 note=51 velocity=80 time=24
note_on channel=9 note=38 velocity=94 time=0
note_off channel=9 note=38 velocity=64 time=88
note_off channel=9 note=51 velocity=64 time=12
note_on channel=9 note=38 velocity=94 time=220
note_on channel=9 note=38 velocity=20 time=36
note_off channel=9 note=38 velocity=64 time=52
note_off channel=9 note=38 velocity=64 time=48
note_on channel=9 note=51 velocity=90 time=24
note_on channel=9 note=37 velocity=70 time=0
note_on channel=9 note=42 velocity=70 time=0
note_on channel=9 note=38 velocity=40 time=0
note_off channel=9 note=51 velocity=64 time=100
note_off channel=9 note=38 velocity=64 time=0
note_off channel=9 note=42 velocity=64 time=0
note_off channel=9 note=37 velocity=64 time=0
note_off channel=9 note=57 velocity=64 time=150
note_on channel=9 note=51 velocity=60 time=106
note_on channel=9 note=40 velocity=81 time=44
note_off channel=9 note=40 velocity=64 time=40
note_on channel=9 note=40 velocity=81 time=0
note_off channel=9 note=51 velocity=64 time=16
note_off channel=9 note=40 velocity=64 time=24
note_on channel=9 note=51 velocity=80 time=0
note_on channel=9 note=40 velocity=92 time=0
note_off channel=9 note=40 velocity=64 time=76
note_off channel=9 note=51 velocity=64 time=24
note_on channel=9 note=40 velocity=109 time=236
note_on channel=9 note=36 velocity=80 time=0
note_on channel=9 note=49 velocity=109 time=0
note_off channel=9 note=40 velocity=64 time=58
note_off channel=9 note=36 velocity=64 time=42
note_on channel=9 note=51 velocity=90 time=44
note_on channel=9 note=42 velocity=70 time=0
note_off channel=9 note=51 velocity=64 time=100
note_off channel=9 note=42 velocity=64 time=0
note_on channel=9 note=51 velocity=60 time=256
note_off channel=9 note=51 velocity=64 time=100
note_on channel=9 note=51 velocity=80 time=24
note_on channel=9 note=38 velocity=94 time=0
note_off channel=9 note=38 velocity=64 time=88
note_off channel=9 note=51 velocity=64 time=12
note_on channel=9 note=38 velocity=94 time=220
note_on channel=9 note=38 velocity=20 time=36
note_off channel=9 note=38 velocity=64 time=52
note_off channel=9 note=38 velocity=64 time=48
note_on channel=9 note=51 velocity=90 time=24
note_on channel=9 note=37 velocity=70 time=0
note_on channel=9 note=42 velocity=70 time=0
note_on channel=9 note=38 velocity=40 time=0
note_off channel=9 note=51 velocity=64 time=100
note_off channel=9 note=38 velocity=64 time=0
note_off channel=9 note=42 velocity=64 time=0
note_off channel=9 note=37 velocity=64 time=0
note_off channel=9 note=49 velocity=64 time=150
note_on channel=9 note=51 velocity=60 time=106
note_on channel=9 note=40 velocity=81 time=44
note_off channel=9 note=40 velocity=64 time=40
note_on channel=9 note=40 velocity=81 time=0
note_off channel=9 note=51 velocity=64 time=16
note_off channel=9 note=40 velocity=64 time=24
note_on channel=9 note=51 velocity=80 time=0
note_on channel=9 note=40 velocity=92 time=0
note_off channel=9 note=40 velocity=64 time=76
note_off channel=9 note=51 velocity=64 time=24
note_on channel=9 note=40 velocity=109 time=236
note_on channel=9 note=36 velocity=80 time=0
note_on channel=9 note=57 velocity=109 time=0
note_off channel=9 note=40 velocity=64 time=58
note_off channel=9 note=36 velocity=64 time=42
note_on channel=9 note=51 velocity=90 time=44
note_on channel=9 note=42 velocity=70 time=0
note_off channel=9 note=51 velocity=64 time=100
note_off channel=9 note=42 velocity=64 time=0
note_on channel=9 note=51 velocity=60 time=256
note_off channel=9 note=51 velocity=64 time=100
note_on channel=9 note=51 velocity=80 time=24
note_on channel=9 note=40 velocity=88 time=0
note_off channel=9 note=40 velocity=64 time=84
note_off channel=9 note=51 velocity=64 time=16
note_on channel=9 note=38 velocity=20 time=256
note_off channel=9 note=38 velocity=64 time=100
note_on channel=9 note=51 velocity=90 time=24
note_on channel=9 note=37 velocity=70 time=0
note_on channel=9 note=42 velocity=70 time=0
note_on channel=9 note=38 velocity=40 time=0
note_on channel=9 note=40 velocity=88 time=0
note_off channel=9 note=40 velocity=64 time=84
note_off channel=9 note=37 velocity=64 time=16
note_off channel=9 note=38 velocity=64 time=0
note_off channel=9 note=42 velocity=64 time=0
note_off channel=9 note=51 velocity=64 time=0
note_off channel=9 note=57 velocity=64 time=150
note_on channel=9 note=51 velocity=60 time=106
note_on channel=9 note=40 velocity=81 time=44
note_off channel=9 note=40 velocity=64 time=40
note_on channel=9 note=40 velocity=81 time=0
note_off channel=9 note=51 velocity=64 time=16
note_off channel=9 note=40 velocity=64 time=24
note_on channel=9 note=51 velocity=80 time=0
note_on channel=9 note=40 velocity=109 time=0
note_on channel=9 note=36 velocity=94 time=0
note_off channel=9 note=51 velocity=64 time=100
note_off channel=9 note=36 velocity=64 time=20
note_off channel=9 note=40 velocity=64 time=0
note_on channel=9 note=49 velocity=109 time=216
note_on channel=9 note=36 velocity=80 time=0
note_on channel=9 note=40 velocity=109 time=0
note_off channel=9 note=40 velocity=64 time=58
note_off channel=9 note=36 velocity=64 time=42
note_on channel=9 note=51 velocity=100 time=44
note_on channel=9 note=42 velocity=70 time=0
note_off channel=9 note=51 velocity=64 time=100
note_off channel=9 note=42 velocity=64 time=0
note_on channel=9 note=51 velocity=80 time=380
note_on channel=9 note=40 velocity=88 time=0
note_off channel=9 note=40 velocity=64 time=92
note_off channel=9 note=51 velocity=64 time=8
note_on channel=9 note=40 velocity=88 time=220
note_off channel=9 note=40 velocity=64 time=108
note_on channel=9 note=51 velocity=100 time=52
note_on channel=9 note=37 velocity=70 time=0
note_on channel=9 note=42 velocity=70 time=0
note_off channel=9 note=51 velocity=64 time=100
note_off channel=9 note=42 velocity=64 time=0
note_off channel=9 note=37 velocity=64 time=0
note_off channel=9 note=49 velocity=64 time=150
note_on channel=9 note=40 velocity=81 time=150
note_off channel=9 note=40 velocity=64 time=40
note_on channel=9 note=40 velocity=81 time=0
note_off channel=9 note=40 velocity=64 time=40
note_on channel=9 note=51 velocity=80 time=0
note_on channel=9 note=36 velocity=94 time=0
note_on channel=9 note=40 velocity=109 time=0
note_off channel=9 note=51 velocity=64 time=100
note_off channel=9 note=40 velocity=64 time=20
note_off channel=9 note=36 velocity=64 time=0
note_on channel=9 note=51 velocity=90 time=360
note_on channel=9 note=42 velocity=70 time=0
note_on channel=9 note=40 velocity=81 time=0
note_off channel=9 note=40 velocity=64 time=88
note_off channel=9 note=51 velocity=64 time=12
note_off channel=9 note=42 velocity=64 time=0
note_on channel=9 note=40 velocity=81 time=220
note_on channel=9 note=57 velocity=101 time=0
note_on channel=9 note=51 velocity=60 time=36
note_off channel=9 note=40 velocity=64 time=52
note_off channel=9 note=51 velocity=64 time=48
note_on channel=9 note=51 velocity=80 time=24
note_off channel=9 note=51 velocity=64 time=100
note_on channel=9 note=38 velocity=60 time=256
note_off channel=9 note=38 velocity=64 time=100
note_on channel=9 note=51 velocity=90 time=24
note_on channel=9 note=42 velocity=70 time=0
note_off channel=9 note=51 velocity=64 time=100
note_off channel=9 note=42 velocity=64 time=0
note_on channel=9 note=51 velocity=60 time=256
note_on channel=9 note=38 velocity=30 time=0
note_off channel=9 note=57 velocity=64 time=52
note_off channel=9 note=38 velocity=64 time=48
note_off channel=9 note=51 velocity=64 time=0
note_on channel=9 note=51 velocity=80 time=24
note_off channel=9 note=51 velocity=64 time=100
note_on channel=9 note=40 velocity=94 time=220
note_on channel=9 note=36 velocity=94 time=0
note_off channel=9 note=40 velocity=64 time=112
note_off channel=9 note=36 velocity=64 time=0
note_on channel=9 note=51 velocity=90 time=48
note_on channel=9 note=44 velocity=55 time=0
note_on channel=9 note=47 velocity=103 time=0
note_off channel=9 note=44 velocity=64 time=18
note_off channel=9 note=47 velocity=64 time=40
note_off channel=9 note=51 velocity=64 time=42
note_on channel=9 note=40 velocity=8 time=60
note_on channel=9 note=40 velocity=8 time=0
note_off channel=9 note=40 velocity=64 time=44
note_off channel=9 note=40 velocity=64 time=0
note_on channel=9 note=40 velocity=94 time=116
note_on channel=9 note=51 velocity=60 time=36
note_off channel=9 note=40 velocity=64 time=20
note_off channel=9 note=51 velocity=64 time=80
note_on channel=9 note=51 velocity=80 time=24
note_on channel=9 note=44 velocity=55 time=0
note_off channel=9 note=44 velocity=64 time=20
note_off channel=9 note=51 velocity=64 time=80
note_on channel=9 note=43 velocity=109 time=60
note_off channel=9 note=43 velocity=64 time=57
note_on channel=9 note=51 velocity=90 time=263
note_on channel=9 note=37 velocity=70 time=0
note_on channel=9 note=40 velocity=111 time=0
note_on channel=9 note=44 velocity=55 time=0
note_off channel=9 note=44 velocity=64 time=19
note_off channel=9 note=40 velocity=64 time=37
note_off channel=9 note=51 velocity=64 time=44
note_off channel=9 note=37 velocity=64 time=0
note_on channel=9 note=40 velocity=8 time=92
note_off channel=9 note=40 velocity=64 time=57
note_on channel=9 note=40 velocity=66 time=71
note_on channel=9 note=51 velocity=60 time=36
note_off channel=9 note=40 velocity=64 time=23
note_on channel=9 note=40 velocity=70 time=67
note_off channel=9 note=51 velocity=64 time=10
note_on channel=9 note=51 velocity=80 time=24
note_on channel=9 note=40 velocity=126 time=0
note_off channel=9 note=40 velocity=64 time=1
note_off channel=9 note=40 velocity=64 time=0
note_on channel=9 note=36 velocity=86 time=59
note_off channel=9 note=51 velocity=64 time=40
note_off channel=9 note=36 velocity=64 time=19
note_on channel=9 note=51 velocity=100 time=361
note_on channel=9 note=36 velocity=96 time=0
note_on channel=9 note=40 velocity=96 time=0
note_on channel=9 note=49 velocity=106 time=0
note_off channel=9 note=36 velocity=64 time=56
note_off channel=9 note=49 velocity=64 time=0
note_off channel=9 note=40 velocity=64 time=0
note_off channel=9 note=51 velocity=64 time=44
note_on channel=9 note=36 velocity=102 time=220
note_on channel=9 note=40 velocity=74 time=0
note_on channel=9 note=57 velocity=108 time=0
note_off channel=9 note=36 velocity=64 time=57
note_off channel=9 note=40 velocity=64 time=1
note_on channel=9 note=51 velocity=80 time=102
note_off channel=9 note=51 velocity=64 time=100
note_on channel=9 note=40 velocity=81 time=220
note_off channel=9 note=40 velocity=64 time=64
note_on channel=9 note=51 velocity=100 time=96
note_on channel=9 note=37 velocity=70 time=0
note_off channel=9 note=51 velocity=64 time=100
note_off channel=9 note=37 velocity=64 time=0
note_off channel=9 note=57 velocity=64 time=296
note_on channel=9 note=51 velocity=80 time=84
note_on channel=9 note=40 velocity=94 time=0
note_on channel=9 note=36 velocity=94 time=0
note_off channel=9 note=40 velocity=64 time=64
note_off channel=9 note=36 velocity=64 time=0
note_off channel=9 note=51 velocity=64 time=36
note_on channel=9 note=38 velocity=94 time=220
note_on channel=9 note=36 velocity=94 time=0
note_off channel=9 note=38 velocity=64 time=64
note_off channel=9 note=36 velocity=64 time=0
note_on channel=9 note=51 velocity=90 time=96
note_on channel=9 note=38 velocity=40 time=0
note_off channel=9 note=51 velocity=64 time=100
note_off channel=9 note=38 velocity=64 time=0
note_on channel=9 note=38 velocity=30 time=60
note_off channel=9 note=38 velocity=64 time=100
note_on channel=9 note=48 velocity=90 time=60
note_on channel=9 note=51 velocity=60 time=36
note_off channel=9 note=48 velocity=64 time=64
note_off channel=9 note=51 velocity=64 time=36
note_on channel=9 note=51 velocity=80 time=24
note_on channel=9 note=38 velocity=60 time=0
note_off channel=9 note=51 velocity=64 time=100
note_off channel=9 note=38 velocity=64 time=0
note_on channel=9 note=38 velocity=40 time=60
note_off channel=9 note=38 velocity=64 time=100
note_on channel=9 note=45 velocity=90 time=60
note_on channel=9 note=38 velocity=60 time=36
note_off channel=9 note=45 velocity=64 time=64
note_off channel=9 note=38 velocity=64 time=36
note_on channel=9 note=51 velocity=90 time=24
note_on channel=9 note=38 velocity=60 time=0
note_off channel=9 note=51 velocity=64 time=100
note_off channel=9 note=38 velocity=64 time=0
note_on channel=9 note=38 velocity=40 time=84
note_off channel=9 note=38 velocity=64 time=100
note_on channel=9 note=41 velocity=90 time=36
note_on channel=9 note=51 velocity=60 time=36
note_on channel=9 note=38 velocity=81 time=44
note_off channel=9 note=41 velocity=64 time=20
note_off channel=9 note=38 velocity=64 time=20
note_on channel=9 note=38 velocity=81 time=0
note_off channel=9 note=51 velocity=64 time=16
note_off channel=9 note=38 velocity=64 time=24
note_on channel=9 note=51 velocity=80 time=0
note_on channel=9 note=35 velocity=90 time=0
note_on channel=9 note=38 velocity=90 time=0
note_on channel=9 note=57 velocity=90 time=0
note_off channel=9 note=51 velocity=64 time=100
note_off channel=9 note=35 velocity=64 time=0
note_off channel=9 note=38 velocity=64 time=0
note_on channel=9 note=51 velocity=100 time=380
note_on channel=9 note=42 velocity=70 time=0
note_on channel=9 note=40 velocity=94 time=0
note_on channel=9 note=35 velocity=94 time=0
note_off channel=9 note=40 velocity=64 time=72
note_off channel=9 note=35 velocity=64 time=0
note_off channel=9 note=51 velocity=64 time=28
note_off channel=9 note=42 velocity=64 time=0
note_on channel=9 note=51 velocity=80 time=380
note_on channel=9 note=40 velocity=94 time=0
note_on channel=9 note=35 velocity=94 time=0
note_off channel=9 note=40 velocity=64 time=80
note_off channel=9 note=35 velocity=64 time=0
note_off channel=9 note=51 velocity=64 time=20
note_on channel=9 note=40 velocity=94 time=220
note_on channel=9 note=35 velocity=94 time=0
note_off channel=9 note=40 velocity=64 time=132
note_off channel=9 note=35 velocity=64 time=0
note_on channel=9 note=51 velocity=88 time=28
note_on channel=9 note=37 velocity=88 time=0
note_on channel=9 note=42 velocity=88 time=0
note_on channel=9 note=40 velocity=88 time=0
note_off channel=9 note=40 velocity=64 time=64
note_off channel=9 note=57 velocity=64 time=12
note_off channel=9 note=42 velocity=64 time=24
note_off channel=9 note=37 velocity=64 time=0
note_off channel=9 note=51 velocity=64 time=0
note_on channel=9 note=38 velocity=74 time=60
note_off channel=9 note=38 velocity=64 time=64
note_on channel=9 note=49 velocity=106 time=96
note_on channel=9 note=35 velocity=94 time=0
note_on channel=9 note=38 velocity=106 time=0
note_off channel=9 note=35 velocity=64 time=64
note_off channel=9 note=38 velocity=64 time=24
note_on channel=9 note=51 velocity=80 time=72
note_off channel=9 note=51 velocity=64 time=100
note_on channel=9 note=51 velocity=90 time=380
note_on channel=9 note=42 velocity=70 time=0
note_off channel=9 note=51 velocity=64 time=100
note_off channel=9 note=42 velocity=64 time=0
note_on channel=9 note=51 velocity=80 time=380
note_off channel=9 note=51 velocity=64 time=100
note_on channel=9 note=51 velocity=90 time=380
note_on channel=9 note=37 velocity=70 time=0
note_on channel=9 note=42 velocity=70 time=0
note_on channel=9 note=35 velocity=94 time=0
note_on channel=9 note=38 velocity=94 time=0
note_off channel=9 note=35 velocity=64 time=92
note_off channel=9 note=38 velocity=64 time=0
note_off channel=9 note=42 velocity=64 time=8
note_off channel=9 note=51 velocity=64 time=0
note_off channel=9 note=37 velocity=64 time=0
note_on channel=9 note=35 velocity=94 time=220
note_on channel=9 note=38 velocity=94 time=0
note_on channel=9 note=51 velocity=100 time=0
note_off channel=9 note=49 velocity=64 time=16
note_off channel=9 note=51 velocity=64 time=96
note_off channel=9 note=38 velocity=64 time=0
note_off channel=9 note=35 velocity=64 time=0
note_on channel=9 note=51 velocity=80 time=48
note_off channel=9 note=51 velocity=64 time=100
note_on channel=9 note=36 velocity=94 time=220
note_on channel=9 note=40 velocity=94 time=0
note_off channel=9 note=36 velocity=64 time=112
note_off channel=9 note=40 velocity=64 time=0
note_on channel=9 note=47 velocity=103 time=48
note_on channel=9 note=44 velocity=55 time=0
note_on channel=9 note=51 velocity=90 time=0
note_off channel=9 note=44 velocity=64 time=18
note_off channel=9 note=47 velocity=64 time=40
note_off channel=9 note=51 velocity=64 time=42
note_on channel=9 note=40 velocity=8 time=60
note_on channel=9 note=40 velocity=8 time=0
note_off channel=9 note=40 velocity=64 time=44
note_off channel=9 note=40 velocity=64 time=0
note_on channel=9 note=40 velocity=94 time=116
note_on channel=9 note=51 velocity=60 time=36
note_off channel=9 note=40 velocity=64 time=20
note_off channel=9 note=51 velocity=64 time=80
note_on channel=9 note=44 velocity=55 time=24
note_on channel=9 note=51 velocity=80 time=0
note_off channel=9 note=44 velocity=64 time=20
note_off channel=9 note=51 velocity=64 time=80
note_on channel=9 note=43 velocity=109 time=60
note_off channel=9 note=43 velocity=64 time=57
note_on channel=9 note=44 velocity=55 time=263
note_on channel=9 note=40 velocity=111 time=0
note_on channel=9 note=37 velocity=70 time=0
note_on channel=9 note=51 velocity=90 time=0
note_off channel=9 note=44 velocity=64 time=19
note_off channel=9 note=40 velocity=64 time=37
note_off channel=9 note=37 velocity=64 time=44
note_off channel=9 note=51 velocity=64 time=0
note_on channel=9 note=40 velocity=8 time=92
note_off channel=9 note=40 velocity=64 time=57
note_on channel=9 note=40 velocity=66 time=71
note_on channel=9 note=51 velocity=60 time=36
note_off channel=9 note=40 velocity=64 time=23
note_on channel=9 note=40 velocity=70 time=67
note_off channel=9 note=51 velocity=64 time=10
note_on channel=9 note=40 velocity=126 time=24
note_on channel=9 note=51 velocity=80 time=0
note_off channel=9 note=40 velocity=64 time=1
note_off channel=9 note=40 velocity=64 time=0
note_on channel=9 note=36 velocity=86 time=59
note_on channel=9 note=40 velocity=86 time=0
note_off channel=9 note=51 velocity=64 time=40
note_off channel=9 note=40 velocity=64 time=19
note_off channel=9 note=36 velocity=64 time=0
note_on channel=9 note=38 velocity=94 time=201
note_on channel=9 note=36 velocity=94 time=0
note_on channel=9 note=49 velocity=106 time=0
note_off channel=9 note=38 velocity=64 time=100
note_off channel=9 note=36 velocity=64 time=0
note_on channel=9 note=51 velocity=100 time=60
note_off channel=9 note=51 velocity=64 time=100
note_on channel=9 note=40 velocity=74 time=220
note_on channel=9 note=36 velocity=102 time=0
note_off channel=9 note=36 velocity=64 time=57
note_off channel=9 note=40 velocity=64 time=1
note_on channel=9 note=51 velocity=80 time=102
note_on channel=9 note=38 velocity=94 time=0
note_off channel=9 note=38 velocity=64 time=84
note_off channel=9 note=51 velocity=64 time=16
note_on channel=9 note=40 velocity=81 time=220
note_off channel=9 note=40 velocity=64 time=64
note_on channel=9 note=36 velocity=70 time=96
note_on channel=9 note=51 velocity=100 time=0
note_on channel=9 note=38 velocity=94 time=0
note_off channel=9 note=38 velocity=64 time=80
note_off channel=9 note=36 velocity=64 time=20
note_off channel=9 note=51 velocity=64 time=0
note_on channel=9 note=38 velocity=94 time=220
note_on channel=9 note=36 velocity=94 time=0
note_off channel=9 note=38 velocity=64 time=88
note_off channel=9 note=36 velocity=64 time=0
note_off channel=9 note=49 velocity=64 time=36
note_on channel=9 note=51 velocity=80 time=36
note_off channel=9 note=51 velocity=64 time=100
note_on channel=9 note=38 velocity=94 time=220
note_off channel=9 note=38 velocity=64 time=88
note_on channel=9 note=51 velocity=90 time=72
note_on channel=9 note=42 velocity=70 time=0
note_off channel=9 note=51 velocity=64 time=100
note_off channel=9 note=42 velocity=64 time=0
note_on channel=9 note=36 velocity=75 time=220
note_on channel=9 note=51 velocity=75 time=36
note_off channel=9 note=36 velocity=64 time=88
note_off channel=9 note=51 velocity=64 time=12
note_on channel=9 note=51 velocity=79 time=24
note_on channel=9 note=38 velocity=79 time=0
note_off channel=9 note=38 velocity=64 time=88
note_off channel=9 note=51 velocity=64 time=12
note_on channel=9 note=51 velocity=90 time=380
note_on channel=9 note=36 velocity=70 time=0
note_on channel=9 note=42 velocity=70 time=0
note_on channel=9 note=38 velocity=94 time=0
note_off channel=9 note=38 velocity=64 time=88
note_off channel=9 note=36 velocity=64 time=12
note_off channel=9 note=42 velocity=64 time=0
note_off channel=9 note=51 velocity=64 time=0
note_on channel=9 note=51 velocity=60 time=256
note_on channel=9 note=40 velocity=81 time=44
note_off channel=9 note=40 velocity=64 time=40
note_on channel=9 note=40 velocity=81 time=0
note_off channel=9 note=51 velocity=64 time=16
note_off channel=9 note=40 velocity=64 time=24
note_on channel=9 note=51 velocity=80 time=0
note_on channel=9 note=36 velocity=90 time=0
note_on channel=9 note=40 velocity=98 time=0
note_off channel=9 note=51 velocity=64 time=100
note_off channel=9 note=40 velocity=64 time=0
note_off channel=9 note=36 velocity=64 time=0
note_on channel=9 note=51 velocity=100 time=380
note_on channel=9 note=42 velocity=70 time=0
note_on channel=9 note=49 velocity=109 time=0
note_on channel=9 note=36 velocity=109 time=0
note_on channel=9 note=40 velocity=109 time=0
note_off channel=9 note=36 velocity=64 time=96
note_off channel=9 note=40 velocity=64 time=0
note_off channel=9 note=42 velocity=64 time=4
note_off channel=9 note=51 velocity=64 time=0
note_on channel=9 note=51 velocity=80 time=380
note_off channel=9 note=51 velocity=64 time=100
note_off channel=9 note=49 velocity=64 time=332
note_on channel=9 note=51 velocity=100 time=48
note_on channel=9 note=36 velocity=70 time=0
note_on channel=9 note=42 velocity=70 time=0
note_on channel=9 note=40 velocity=94 time=0
note_off channel=9 note=40 velocity=64 time=84
note_off channel=9 note=36 velocity=64 time=16
note_off channel=9 note=42 velocity=64 time=0
note_off channel=9 note=51 velocity=64 time=0
note_on channel=9 note=38 velocity=81 time=300
note_off channel=9 note=38 velocity=64 time=40
note_on channel=9 note=38 velocity=81 time=0
note_off channel=9 note=38 velocity=64 time=40
note_on channel=9 note=51 velocity=80 time=0
note_on channel=9 note=38 velocity=100 time=0
note_on channel=9 note=36 velocity=89 time=0
note_off channel=9 note=38 velocity=64 time=92
note_off channel=9 note=36 velocity=64 time=0
note_off channel=9 note=51 velocity=64 time=8
note_on channel=9 note=57 velocity=103 time=220
note_on channel=9 note=51 velocity=90 time=160
note_on channel=9 note=42 velocity=70 time=0
note_off channel=9 note=51 velocity=64 time=100
note_off channel=9 note=42 velocity=64 time=0
note_on channel=9 note=51 velocity=60 time=256
note_on channel=9 note=38 velocity=81 time=44
note_off channel=9 note=38 velocity=64 time=40
note_on channel=9 note=38 velocity=81 time=0
note_off channel=9 note=51 velocity=64 time=16
note_off channel=9 note=38 velocity=64 time=24
control_change channel=9 control=11 value=109 time=0
note_on channel=9 note=51 velocity=80 time=0
note_on channel=9 note=48 velocity=61 time=0
note_on channel=9 note=38 velocity=100 time=0
note_on channel=9 note=36 velocity=92 time=0
note_off channel=9 note=48 velocity=64 time=58
note_off channel=9 note=36 velocity=64 time=34
note_off channel=9 note=38 velocity=64 time=0
note_off channel=9 note=51 velocity=64 time=8
control_change channel=9 control=11 value=106 time=20
note_on channel=9 note=48 velocity=53 time=0
note_off channel=9 note=48 velocity=64 time=57
control_change channel=9 control=11 value=104 time=63
note_on channel=9 note=49 velocity=94 time=80
note_on channel=9 note=38 velocity=60 time=36
control_change channel=9 control=11 value=101 time=4
note_off channel=9 note=57 velocity=64 time=12
note_off channel=9 note=38 velocity=64 time=84
control_change channel=9 control=11 value=99 time=24
note_on channel=9 note=51 velocity=90 time=0
note_on channel=9 note=42 velocity=70 time=0
note_on channel=9 note=47 velocity=103 time=0
note_off channel=9 note=47 velocity=64 time=56
note_off channel=9 note=51 velocity=64 time=44
note_off channel=9 note=42 velocity=64 time=0
control_change channel=9 control=11 value=96 time=20
note_on channel=9 note=47 velocity=68 time=0
note_off channel=9 note=47 velocity=64 time=57
control_change channel=9 control=11 value=94 time=63
note_on channel=9 note=51 velocity=60 time=116
note_on channel=9 note=38 velocity=30 time=0
control_change channel=9 control=11 value=91 time=4
note_off channel=9 note=51 velocity=64 time=96
note_off channel=9 note=38 velocity=64 time=0
control_change channel=9 control=11 value=89 time=24
note_on channel=9 note=51 velocity=80 time=0
note_off channel=9 note=51 velocity=64 time=100
note_on channel=9 note=51 velocity=100 time=380
note_on channel=9 note=42 velocity=70 time=0
note_off channel=9 note=51 velocity=64 time=100
note_off channel=9 note=42 velocity=64 time=0
note_off channel=9 note=49 velocity=64 time=332
note_on channel=9 note=51 velocity=80 time=48
note_off channel=9 note=51 velocity=64 time=100
note_on channel=9 note=51 velocity=100 time=380
note_on channel=9 note=37 velocity=70 time=0
note_on channel=9 note=42 velocity=70 time=0
note_off channel=9 note=51 velocity=64 time=100
note_off channel=9 note=42 velocity=64 time=0
note_off channel=9 note=37 velocity=64 time=0
note_on channel=9 note=51 velocity=80 time=380
note_off channel=9 note=51 velocity=64 time=100
note_on channel=9 note=51 velocity=100 time=380
note_on channel=9 note=42 velocity=70 time=0
note_off channel=9 note=51 velocity=64 time=100
note_off channel=9 note=42 velocity=64 time=0
note_on channel=9 note=51 velocity=80 time=380
note_off channel=9 note=51 velocity=64 time=100
note_on channel=9 note=51 velocity=100 time=380
note_on channel=9 note=37 velocity=70 time=0
note_on channel=9 note=42 velocity=70 time=0
note_off channel=9 note=51 velocity=64 time=100
note_off channel=9 note=42 velocity=64 time=0
note_off channel=9 note=37 velocity=64 time=0
note_on channel=9 note=51 velocity=80 time=380
note_off channel=9 note=51 velocity=64 time=100
note_on channel=9 note=51 velocity=100 time=380
note_on channel=9 note=42 velocity=70 time=0
note_off channel=9 note=51 velocity=64 time=100
note_off channel=9 note=42 velocity=64 time=0
note_on channel=9 note=51 velocity=80 time=380
note_off channel=9 note=51 velocity=64 time=100
note_on channel=9 note=51 velocity=100 time=380
note_on channel=9 note=37 velocity=70 time=0
note_on channel=9 note=42 velocity=70 time=0
note_off channel=9 note=51 velocity=64 time=100
note_off channel=9 note=42 velocity=64 time=0
note_off channel=9 note=37 velocity=64 time=0
note_on channel=9 note=51 velocity=80 time=380
note_off channel=9 note=51 velocity=64 time=100
note_on channel=9 note=51 velocity=100 time=380
note_on channel=9 note=42 velocity=70 time=0
note_off channel=9 note=51 velocity=64 time=100
note_off channel=9 note=42 velocity=64 time=0
note_on channel=9 note=51 velocity=80 time=380
note_off channel=9 note=51 velocity=64 time=100
note_on channel=9 note=51 velocity=100 time=380
note_on channel=9 note=37 velocity=70 time=0
note_on channel=9 note=42 velocity=70 time=0
note_off channel=9 note=51 velocity=64 time=100
note_off channel=9 note=42 velocity=64 time=0
note_off channel=9 note=37 velocity=64 time=0
note_on channel=9 note=51 velocity=80 time=380
note_off channel=9 note=51 velocity=64 time=100
note_on channel=9 note=51 velocity=100 time=380
note_on channel=9 note=42 velocity=70 time=0
note_off channel=9 note=51 velocity=64 time=100
note_off channel=9 note=42 velocity=64 time=0
note_on channel=9 note=51 velocity=80 time=380
note_off channel=9 note=51 velocity=64 time=100
note_on channel=9 note=51 velocity=100 time=380
note_on channel=9 note=37 velocity=70 time=0
note_on channel=9 note=42 velocity=70 time=0
note_off channel=9 note=51 velocity=64 time=100
note_off channel=9 note=42 velocity=64 time=0
note_off channel=9 note=37 velocity=64 time=0
note_on channel=9 note=51 velocity=80 time=380
note_off channel=9 note=51 velocity=64 time=100
note_on channel=9 note=51 velocity=90 time=380
note_on channel=9 note=42 velocity=70 time=0
note_off channel=9 note=51 velocity=64 time=100
note_off channel=9 note=42 velocity=64 time=0
note_on channel=9 note=51 velocity=60 time=256
note_off channel=9 note=51 velocity=64 time=100
note_on channel=9 note=51 velocity=80 time=24
note_off channel=9 note=51 velocity=64 time=100
note_on channel=9 note=51 velocity=90 time=380
note_on channel=9 note=37 velocity=70 time=0
note_on channel=9 note=42 velocity=70 time=0
note_off channel=9 note=51 velocity=64 time=100
note_off channel=9 note=42 velocity=64 time=0
note_off channel=9 note=37 velocity=64 time=0
note_on channel=9 note=51 velocity=60 time=256
note_off channel=9 note=51 velocity=64 time=100
control_change channel=9 control=11 value=89 time=24
note_on channel=9 note=51 velocity=80 time=0
note_off channel=9 note=51 velocity=64 time=100
control_change channel=9 control=11 value=90 time=140
control_change channel=9 control=11 value=91 time=240
note_on channel=9 note=51 velocity=100 time=0
note_on channel=9 note=42 velocity=70 time=0
note_off channel=9 note=51 velocity=64 time=100
note_off channel=9 note=42 velocity=64 time=0
control_change channel=9 control=11 value=93 time=140
control_change channel=9 control=11 value=94 time=240
note_on channel=9 note=51 velocity=80 time=0
note_off channel=9 note=51 velocity=64 time=100
control_change channel=9 control=11 value=95 time=140
control_change channel=9 control=11 value=96 time=240
note_on channel=9 note=51 velocity=100 time=0
note_on channel=9 note=37 velocity=70 time=0
note_on channel=9 note=42 velocity=70 time=0
note_off channel=9 note=51 velocity=64 time=100
note_off channel=9 note=42 velocity=64 time=0
note_off channel=9 note=37 velocity=64 time=0
control_change channel=9 control=11 value=98 time=140
control_change channel=9 control=11 value=99 time=240
note_on channel=9 note=51 velocity=80 time=0
note_on channel=9 note=38 velocity=100 time=0
note_on channel=9 note=35 velocity=100 time=0
note_off channel=9 note=51 velocity=64 time=100
note_off channel=9 note=35 velocity=64 time=0
note_off channel=9 note=38 velocity=64 time=0
note_on channel=9 note=38 velocity=60 time=60
control_change channel=9 control=11 value=100 time=80
note_off channel=9 note=38 velocity=64 time=20
note_on channel=9 note=38 velocity=50 time=60
note_off channel=9 note=38 velocity=64 time=100
control_change channel=9 control=11 value=101 time=60
note_on channel=9 note=51 velocity=90 time=0
note_on channel=9 note=42 velocity=70 time=0
note_on channel=9 note=42 velocity=100 time=0
note_on channel=9 note=38 velocity=40 time=0
note_off channel=9 note=51 velocity=64 time=100
note_off channel=9 note=38 velocity=64 time=0
note_off channel=9 note=42 velocity=64 time=0
note_off channel=9 note=42 velocity=64 time=0
note_on channel=9 note=38 velocity=30 time=60
control_change channel=9 control=11 value=103 time=80
note_off channel=9 note=38 velocity=64 time=20
note_on channel=9 note=48 velocity=90 time=60
note_on channel=9 note=51 velocity=60 time=36
note_off channel=9 note=48 velocity=64 time=64
note_off channel=9 note=51 velocity=64 time=36
control_change channel=9 control=11 value=104 time=24
note_on channel=9 note=51 velocity=80 time=0
note_on channel=9 note=38 velocity=60 time=0
note_off channel=9 note=51 velocity=64 time=100
note_off channel=9 note=38 velocity=64 time=0
note_on channel=9 note=38 velocity=40 time=60
control_change channel=9 control=11 value=105 time=80
note_off channel=9 note=38 velocity=64 time=20
note_on channel=9 note=45 velocity=90 time=60
note_on channel=9 note=38 velocity=60 time=36
note_off channel=9 note=45 velocity=64 time=64
note_off channel=9 note=38 velocity=64 time=36
control_change channel=9 control=11 value=106 time=24
note_on channel=9 note=51 velocity=90 time=0
note_on channel=9 note=42 velocity=70 time=0
note_on channel=9 note=42 velocity=100 time=0
note_on channel=9 note=38 velocity=60 time=0
note_off channel=9 note=51 velocity=64 time=100
note_off channel=9 note=38 velocity=64 time=0
note_off channel=9 note=42 velocity=64 time=0
note_off channel=9 note=42 velocity=64 time=0
note_on channel=9 note=38 velocity=40 time=60
control_change channel=9 control=11 value=108 time=80
note_off channel=9 note=38 velocity=64 time=20
note_on channel=9 note=41 velocity=90 time=60
note_on channel=9 note=51 velocity=60 time=36
note_on channel=9 note=38 velocity=30 time=0
note_on channel=9 note=40 velocity=81 time=44
note_off channel=9 note=41 velocity=64 time=20
note_off channel=9 note=40 velocity=64 time=20
note_on channel=9 note=40 velocity=81 time=0
note_off channel=9 note=38 velocity=64 time=16
note_off channel=9 note=51 velocity=64 time=0
note_off channel=9 note=40 velocity=64 time=24
control_change channel=9 control=11 value=109 time=0
note_on channel=9 note=51 velocity=80 time=0
note_on channel=9 note=38 velocity=90 time=0
note_on channel=9 note=35 velocity=90 time=0
note_on channel=9 note=40 velocity=90 time=0
note_off channel=9 note=51 velocity=64 time=100
note_off channel=9 note=40 velocity=64 time=0
note_off channel=9 note=35 velocity=64 time=0
note_off channel=9 note=38 velocity=64 time=0
note_on channel=9 note=38 velocity=95 time=220
note_on channel=9 note=49 velocity=100 time=0
note_on channel=9 note=35 velocity=95 time=0
note_off channel=9 note=38 velocity=64 time=72
note_off channel=9 note=35 velocity=64 time=0
note_on channel=9 note=51 velocity=90 time=88
note_on channel=9 note=42 velocity=70 time=0
note_off channel=9 note=51 velocity=64 time=100
note_off channel=9 note=42 velocity=64 time=0
note_on channel=9 note=38 velocity=95 time=220
note_on channel=9 note=35 velocity=95 time=0
note_on channel=9 note=51 velocity=60 time=36
note_off channel=9 note=38 velocity=64 time=28
note_off channel=9 note=35 velocity=64 time=0
note_off channel=9 note=51 velocity=64 time=72
note_on channel=9 note=51 velocity=80 time=24
note_on channel=9 note=38 velocity=95 time=0
note_on channel=9 note=35 velocity=95 time=0
note_off channel=9 note=38 velocity=64 time=64
note_off channel=9 note=35 velocity=64 time=0
note_off channel=9 note=51 velocity=64 time=36
note_on channel=9 note=51 velocity=90 time=380
note_on channel=9 note=35 velocity=70 time=0
note_on channel=9 note=42 velocity=70 time=0
note_on channel=9 note=38 velocity=95 time=0
note_off channel=9 note=35 velocity=64 time=64
note_off channel=9 note=38 velocity=64 time=0
note_off channel=9 note=42 velocity=64 time=36
note_off channel=9 note=51 velocity=64 time=0
note_on channel=9 note=51 velocity=60 time=256
note_off channel=9 note=49 velocity=64 time=12
note_off channel=9 note=51 velocity=64 time=88
control_change channel=9 control=93 value=30 time=24
control_change channel=9 control=93 value=30 time=0
control_change channel=9 control=93 value=30 time=0
control_change channel=9 control=93 value=30 time=0
note_on channel=9 note=51 velocity=80 time=0
note_on channel=9 note=38 velocity=94 time=0
note_on channel=9 note=57 velocity=94 time=0
note_on channel=9 note=35 velocity=94 time=0
note_off channel=9 note=38 velocity=64 time=64
note_off channel=9 note=35 velocity=64 time=0
note_off channel=9 note=51 velocity=64 time=36
note_on channel=9 note=51 velocity=90 time=380
note_on channel=9 note=42 velocity=70 time=0
note_on channel=9 note=38 velocity=94 time=0
note_off channel=9 note=38 velocity=64 time=64
note_off channel=9 note=51 velocity=64 time=36
note_off channel=9 note=42 velocity=64 time=0
note_on channel=9 note=38 velocity=94 time=220
note_on channel=9 note=35 velocity=94 time=0
note_on channel=9 note=51 velocity=60 time=36
note_off channel=9 note=38 velocity=64 time=28
note_off channel=9 note=35 velocity=64 time=0
note_off channel=9 note=51 velocity=64 time=72
note_on channel=9 note=51 velocity=80 time=24
note_off channel=9 note=51 velocity=64 time=100
note_on channel=9 note=40 velocity=86 time=300
note_off channel=9 note=40 velocity=64 time=40
note_on channel=9 note=40 velocity=81 time=0
note_off channel=9 note=40 velocity=64 time=40
note_on channel=9 note=51 velocity=90 time=0
note_on channel=9 note=35 velocity=70 time=0
note_on channel=9 note=42 velocity=70 time=0
note_on channel=9 note=40 velocity=94 time=0
note_off channel=9 note=35 velocity=64 time=88
note_off channel=9 note=40 velocity=64 time=0
note_off channel=9 note=42 velocity=64 time=12
note_off channel=9 note=51 velocity=64 time=0
note_on channel=9 note=49 velocity=100 time=220
note_on channel=9 note=35 velocity=81 time=0
note_on channel=9 note=38 velocity=94 time=0
note_on channel=9 note=51 velocity=60 time=36
note_off channel=9 note=57 velocity=64 time=44
note_off channel=9 note=38 velocity=64 time=8
note_off channel=9 note=35 velocity=64 time=0
note_off channel=9 note=51 velocity=64 time=48
note_on channel=9 note=51 velocity=80 time=24
note_off channel=9 note=51 velocity=64 time=100
note_on channel=9 note=51 velocity=90 time=380
note_on channel=9 note=42 velocity=70 time=0
note_on channel=9 note=38 velocity=94 time=0
note_on channel=9 note=35 velocity=94 time=0
note_off channel=9 note=51 velocity=64 time=100
note_off channel=9 note=42 velocity=64 time=0
note_off channel=9 note=38 velocity=64 time=12
note_off channel=9 note=35 velocity=64 time=0
note_on channel=9 note=51 velocity=60 time=244
note_off channel=9 note=51 velocity=64 time=100
note_on channel=9 note=51 velocity=80 time=24
note_on channel=9 note=38 velocity=94 time=0
note_off channel=9 note=51 velocity=64 time=100
note_off channel=9 note=38 velocity=64 time=12
note_on channel=9 note=38 velocity=94 time=208
note_on channel=9 note=35 velocity=94 time=0
note_off channel=9 note=38 velocity=64 time=112
note_off channel=9 note=35 velocity=64 time=0
note_on channel=9 note=51 velocity=90 time=48
note_on channel=9 note=35 velocity=70 time=0
note_on channel=9 note=42 velocity=70 time=0
note_on channel=9 note=40 velocity=90 time=0
note_off channel=9 note=49 velocity=64 time=48
note_off channel=9 note=40 velocity=64 time=52
note_off channel=9 note=42 velocity=64 time=0
note_off channel=9 note=35 velocity=64 time=0
note_off channel=9 note=51 velocity=64 time=0
note_on channel=9 note=38 velocity=94 time=220
note_on channel=9 note=57 velocity=101 time=0
note_on channel=9 note=35 velocity=94 time=0
note_on channel=9 note=51 velocity=60 time=36
note_off channel=9 note=38 velocity=64 time=76
note_off channel=9 note=35 velocity=64 time=0
note_off channel=9 note=51 velocity=64 time=24
note_on channel=9 note=51 velocity=80 time=24
note_off channel=9 note=51 velocity=64 time=100
note_on channel=9 note=51 velocity=90 time=380
note_on channel=9 note=42 velocity=70 time=0
note_on channel=9 note=38 velocity=94 time=0
note_on channel=9 note=35 velocity=94 time=0
note_off channel=9 note=51 velocity=64 time=100
note_off channel=9 note=42 velocity=64 time=0
note_off channel=9 note=38 velocity=64 time=12
note_off channel=9 note=35 velocity=64 time=0
note_on channel=9 note=38 velocity=94 time=208
note_on channel=9 note=35 velocity=94 time=0
note_on channel=9 note=51 velocity=60 time=36
note_off channel=9 note=38 velocity=64 time=76
note_off channel=9 note=35 velocity=64 time=0
note_off channel=9 note=51 velocity=64 time=24
note_on channel=9 note=51 velocity=80 time=24
note_on channel=9 note=40 velocity=10 time=0
note_off channel=9 note=40 velocity=64 time=57
note_off channel=9 note=51 velocity=64 time=43
note_on channel=9 note=40 velocity=8 time=140
note_off channel=9 note=40 velocity=64 time=57
note_on channel=9 note=38 velocity=20 time=59
note_on channel=9 note=40 velocity=103 time=4
note_off channel=9 note=40 velocity=64 time=58
note_off channel=9 note=38 velocity=64 time=38
note_on channel=9 note=51 velocity=90 time=24
note_on channel=9 note=35 velocity=70 time=0
note_on channel=9 note=38 velocity=40 time=0
note_off channel=9 note=51 velocity=64 time=100
note_off channel=9 note=38 velocity=64 time=0
note_off channel=9 note=35 velocity=64 time=0
note_on channel=9 note=47 velocity=111 time=20
note_off channel=9 note=47 velocity=64 time=57
note_on channel=9 note=40 velocity=8 time=63
note_off channel=9 note=40 velocity=64 time=57
note_on channel=9 note=51 velocity=60 time=59
note_off channel=9 note=57 velocity=64 time=4
note_on channel=9 note=40 velocity=64 time=0
note_off channel=9 note=40 velocity=64 time=57
note_off channel=9 note=51 velocity=64 time=39
note_on channel=9 note=40 velocity=62 time=2
note_on channel=9 note=51 velocity=80 time=22
note_on channel=9 note=40 velocity=126 time=1
note_off channel=9 note=40 velocity=64 time=7
note_off channel=9 note=40 velocity=64 time=0
note_off channel=9 note=51 velocity=64 time=92
note_on channel=9 note=49 velocity=101 time=220
note_on channel=9 note=35 velocity=101 time=0
note_on channel=9 note=40 velocity=101 time=0
note_off channel=9 note=35 velocity=64 time=88
note_off channel=9 note=40 velocity=64 time=0
note_on channel=9 note=51 velocity=90 time=72
note_on channel=9 note=42 velocity=70 time=0
note_off channel=9 note=51 velocity=64 time=100
note_off channel=9 note=42 velocity=64 time=0
note_on channel=9 note=51 velocity=60 time=252
note_off channel=9 note=51 velocity=64 time=100
note_on channel=9 note=51 velocity=80 time=28
note_on channel=9 note=38 velocity=94 time=0
note_on channel=9 note=35 velocity=94 time=0
note_off channel=9 note=38 velocity=64 time=60
note_off channel=9 note=35 velocity=64 time=0
note_off channel=9 note=51 velocity=64 time=40
note_on channel=9 note=51 velocity=90 time=380
note_on channel=9 note=42 velocity=70 time=0
note_on channel=9 note=38 velocity=94 time=0
note_on channel=9 note=35 velocity=94 time=0
note_off channel=9 note=38 velocity=64 time=60
note_off channel=9 note=35 velocity=64 time=0
note_off channel=9 note=51 velocity=64 time=40
note_off channel=9 note=42 velocity=64 time=0
note_off channel=9 note=49 velocity=64 time=236
note_on channel=9 note=51 velocity=60 time=16
note_off channel=9 note=51 velocity=64 time=100
note_on channel=9 note=51 velocity=80 time=28
note_on channel=9 note=38 velocity=94 time=0
note_off channel=9 note=38 velocity=64 time=86
note_off channel=9 note=51 velocity=64 time=14
note_on channel=9 note=40 velocity=81 time=220
note_off channel=9 note=40 velocity=64 time=88
note_on channel=9 note=51 velocity=90 time=72
note_on channel=9 note=42 velocity=70 time=0
note_on channel=9 note=38 velocity=81 time=0
note_off channel=9 note=38 velocity=64 time=88
note_off channel=9 note=51 velocity=64 time=12
note_off channel=9 note=42 velocity=64 time=0
note_on channel=9 note=38 velocity=94 time=220
note_on channel=9 note=57 velocity=94 time=0
note_on channel=9 note=35 velocity=94 time=0
note_on channel=9 note=51 velocity=60 time=36
note_off channel=9 note=38 velocity=64 time=88
note_off channel=9 note=35 velocity=64 time=0
note_off channel=9 note=51 velocity=64 time=12
note_on channel=9 note=51 velocity=80 time=24
note_off channel=9 note=51 velocity=64 time=100
note_on channel=9 note=38 velocity=20 time=256
note_on channel=9 note=40 velocity=103 time=4
note_off channel=9 note=40 velocity=64 time=58
note_off channel=9 note=38 velocity=64 time=38
note_on channel=9 note=51 velocity=90 time=24
note_on channel=9 note=37 velocity=70 time=0
note_on channel=9 note=42 velocity=70 time=0
note_on channel=9 note=38 velocity=40 time=0
note_on channel=9 note=35 velocity=70 time=0
note_off channel=9 note=51 velocity=64 time=100
note_off channel=9 note=35 velocity=64 time=0
note_off channel=9 note=38 velocity=64 time=0
note_off channel=9 note=42 velocity=64 time=0
note_off channel=9 note=37 velocity=64 time=0
note_on channel=9 note=47 velocity=111 time=20
note_off channel=9 note=47 velocity=64 time=57
note_on channel=9 note=40 velocity=8 time=63
note_off channel=9 note=40 velocity=64 time=57
note_on channel=9 note=51 velocity=60 time=59
note_on channel=9 note=40 velocity=64 time=4
note_off channel=9 note=40 velocity=64 time=57
note_off channel=9 note=51 velocity=64 time=39
note_on channel=9 note=40 velocity=62 time=2
note_on channel=9 note=51 velocity=80 time=22
note_on channel=9 note=40 velocity=126 time=1
note_off channel=9 note=40 velocity=64 time=7
note_off channel=9 note=40 velocity=64 time=0
note_off channel=9 note=51 velocity=64 time=92
note_on channel=9 note=40 velocity=101 time=220
note_on channel=9 note=35 velocity=101 time=0
note_on channel=9 note=49 velocity=101 time=0
note_off channel=9 note=40 velocity=64 time=88
note_off channel=9 note=35 velocity=64 time=0
note_off channel=9 note=57 velocity=64 time=36
note_on channel=9 note=51 velocity=100 time=36
note_on channel=9 note=42 velocity=70 time=0
note_off channel=9 note=51 velocity=64 time=100
note_off channel=9 note=42 velocity=64 time=0
note_on channel=9 note=51 velocity=80 time=380
note_off channel=9 note=51 velocity=64 time=100
note_on channel=9 note=51 velocity=100 time=380
note_on channel=9 note=35 velocity=70 time=0
note_on channel=9 note=42 velocity=70 time=0
note_off channel=9 note=51 velocity=64 time=100
note_off channel=9 note=42 velocity=64 time=0
note_off channel=9 note=35 velocity=64 time=0
note_off channel=9 note=49 velocity=64 time=236
note_on channel=9 note=51 velocity=80 time=144
note_off channel=9 note=51 velocity=64 time=100
note_on channel=9 note=51 velocity=90 time=380
note_on channel=9 note=42 velocity=70 time=0
note_off channel=9 note=51 velocity=64 time=100
note_off channel=9 note=42 velocity=64 time=0
note_on channel=9 note=51 velocity=60 time=256
note_off channel=9 note=51 velocity=64 time=100
control_change channel=9 control=11 value=109 time=24
note_on channel=9 note=51 velocity=80 time=0
note_on channel=9 note=45 velocity=81 time=0
note_off channel=9 note=45 velocity=64 time=80
note_off channel=9 note=51 velocity=64 time=20
control_change channel=9 control=11 value=108 time=20
control_change channel=9 control=11 value=106 time=120
note_on channel=9 note=45 velocity=81 time=80
control_change channel=9 control=11 value=105 time=40
note_off channel=9 note=45 velocity=64 time=48
control_change channel=9 control=11 value=103 time=72
note_on channel=9 note=51 velocity=90 time=0
note_on channel=9 note=35 velocity=70 time=0
note_on channel=9 note=40 velocity=70 time=0
note_on channel=9 note=43 velocity=81 time=0
note_off channel=9 note=43 velocity=64 time=88
note_off channel=9 note=35 velocity=64 time=12
note_off channel=9 note=40 velocity=64 time=0
note_off channel=9 note=51 velocity=64 time=0
control_change channel=9 control=11 value=101 time=20
note_on channel=9 note=41 velocity=81 time=40
control_change channel=9 control=11 value=100 time=80
note_off channel=9 note=41 velocity=64 time=8
note_on channel=9 note=40 velocity=84 time=72
note_on channel=9 note=51 velocity=84 time=36
control_change channel=9 control=11 value=99 time=4
note_off channel=9 note=40 velocity=64 time=48
note_off channel=9 note=51 velocity=64 time=48
note_on channel=9 note=40 velocity=62 time=2
control_change channel=9 control=11 value=96 time=22
note_on channel=9 note=51 velocity=80 time=0
note_on channel=9 note=40 velocity=126 time=1
note_off channel=9 note=40 velocity=64 time=7
note_off channel=9 note=40 velocity=64 time=0
note_off channel=9 note=51 velocity=64 time=92
note_on channel=9 note=49 velocity=94 time=220
note_on channel=9 note=40 velocity=81 time=0
note_on channel=9 note=35 velocity=81 time=0
note_off channel=9 note=40 velocity=64 time=88
note_off channel=9 note=35 velocity=64 time=0
note_on channel=9 note=51 velocity=90 time=72
note_on channel=9 note=42 velocity=70 time=0
note_off channel=9 note=51 velocity=64 time=100
note_off channel=9 note=42 velocity=64 time=0
note_on channel=9 note=51 velocity=60 time=256
note_off channel=9 note=51 velocity=64 time=100
note_on channel=9 note=51 velocity=80 time=24
note_off channel=9 note=51 velocity=64 time=100
note_on channel=9 note=51 velocity=90 time=380
note_on channel=9 note=37 velocity=70 time=0
note_on channel=9 note=42 velocity=70 time=0
note_off channel=9 note=51 velocity=64 time=100
note_off channel=9 note=42 velocity=64 time=0
note_off channel=9 note=37 velocity=64 time=0
note_off channel=9 note=49 velocity=64 time=236
note_on channel=9 note=51 velocity=60 time=20
note_off channel=9 note=51 velocity=64 time=100
note_on channel=9 note=51 velocity=80 time=24
note_off channel=9 note=51 velocity=64 time=100
note_on channel=9 note=51 velocity=100 time=380
note_on channel=9 note=42 velocity=70 time=0
note_off channel=9 note=51 velocity=64 time=100
note_off channel=9 note=42 velocity=64 time=0
note_on channel=9 note=51 velocity=80 time=380
note_off channel=9 note=51 velocity=64 time=100
note_on channel=9 note=38 velocity=60 time=300
note_off channel=9 note=38 velocity=64 time=40
note_on channel=9 note=38 velocity=65 time=0
note_off channel=9 note=38 velocity=64 time=40
note_on channel=9 note=51 velocity=66 time=0
note_on channel=9 note=35 velocity=66 time=0
note_on channel=9 note=42 velocity=66 time=0
note_on channel=9 note=38 velocity=66 time=0
note_off channel=9 note=51 velocity=64 time=100
note_off channel=9 note=38 velocity=64 time=0
note_off channel=9 note=42 velocity=64 time=0
note_off channel=9 note=35 velocity=64 time=0
note_on channel=9 note=38 velocity=67 time=238
note_on channel=9 note=35 velocity=67 time=0
note_off channel=9 note=38 velocity=61 time=108
note_off channel=9 note=35 velocity=61 time=0
control_change channel=9 control=0 value=62 time=34
control_change channel=9 control=32 value=0 time=0
program_change channel=9 program=40 time=0
note_on channel=9 note=38 velocity=54 time=1920
note_off channel=9 note=38 velocity=64 time=80
note_on channel=9 note=38 velocity=56 time=0
note_off channel=9 note=38 velocity=64 time=80
note_on channel=9 note=38 velocity=51 time=320
note_on channel=9 note=35 velocity=51 time=0
note_off channel=9 note=38 velocity=64 time=96
note_off channel=9 note=35 velocity=64 time=0
note_on channel=9 note=35 velocity=75 time=224
note_on channel=9 note=57 velocity=75 time=0
note_off channel=9 note=35 velocity=64 time=88
note_off channel=9 note=57 velocity=64 time=0
note_on channel=9 note=57 velocity=72 time=12
note_off channel=9 note=57 velocity=64 time=60
note_on channel=9 note=57 velocity=25 time=0
note_off channel=9 note=57 velocity=64 time=60
note_on channel=9 note=57 velocity=25 time=0
note_off channel=9 note=57 velocity=64 time=60
note_on channel=9 note=57 velocity=26 time=0
note_off channel=9 note=57 velocity=64 time=60
note_on channel=9 note=57 velocity=26 time=0
note_off channel=9 note=57 velocity=64 time=60
note_on channel=9 note=57 velocity=27 time=0
note_off channel=9 note=57 velocity=64 time=60
note_on channel=9 note=57 velocity=27 time=0
note_off channel=9 note=57 velocity=64 time=60
note_on channel=9 note=57 velocity=28 time=0
note_off channel=9 note=57 velocity=64 time=60
note_on channel=9 note=57 velocity=28 time=0
note_off channel=9 note=57 velocity=64 time=60
note_on channel=9 note=57 velocity=28 time=0
note_off channel=9 note=57 velocity=64 time=60
note_on channel=9 note=57 velocity=30 time=0
note_off channel=9 note=57 velocity=64 time=60
note_on channel=9 note=57 velocity=30 time=0
note_off channel=9 note=57 velocity=64 time=60
note_on channel=9 note=57 velocity=31 time=0
note_off channel=9 note=57 velocity=64 time=60
note_on channel=9 note=57 velocity=31 time=0
note_off channel=9 note=57 velocity=64 time=60
note_on channel=9 note=57 velocity=32 time=0
note_off channel=9 note=57 velocity=64 time=60
note_on channel=9 note=57 velocity=32 time=0
note_off channel=9 note=57 velocity=64 time=60
note_on channel=9 note=57 velocity=33 time=0
note_off channel=9 note=57 velocity=64 time=60
note_on channel=9 note=57 velocity=33 time=0
note_off channel=9 note=57 velocity=64 time=60
note_on channel=9 note=57 velocity=35 time=0
note_off channel=9 note=57 velocity=64 time=60
note_on channel=9 note=57 velocity=35 time=0
note_off channel=9 note=57 velocity=64 time=60
note_on channel=9 note=57 velocity=36 time=0
note_off channel=9 note=57 velocity=64 time=60
note_on channel=9 note=57 velocity=36 time=0
note_off channel=9 note=57 velocity=64 time=60
note_on channel=9 note=57 velocity=36 time=0
note_off channel=9 note=57 velocity=64 time=60
note_on channel=9 note=57 velocity=37 time=0
note_off channel=9 note=57 velocity=64 time=60
note_on channel=9 note=57 velocity=37 time=0
note_off channel=9 note=57 velocity=64 time=60
note_on channel=9 note=57 velocity=38 time=0
note_off channel=9 note=57 velocity=64 time=60
note_on channel=9 note=57 velocity=38 time=0
note_off channel=9 note=57 velocity=64 time=60
note_on channel=9 note=57 velocity=40 time=0
note_off channel=9 note=57 velocity=64 time=60
note_on channel=9 note=57 velocity=40 time=0
note_off channel=9 note=57 velocity=64 time=60
note_on channel=9 note=57 velocity=41 time=0
note_off channel=9 note=57 velocity=64 time=60
note_on channel=9 note=57 velocity=41 time=0
note_off channel=9 note=57 velocity=64 time=60
note_on channel=9 note=57 velocity=41 time=0
note_off channel=9 note=57 velocity=64 time=60
note_on channel=9 note=57 velocity=42 time=0
note_off channel=9 note=57 velocity=64 time=60
note_on channel=9 note=57 velocity=42 time=0
note_off channel=9 note=57 velocity=64 time=60
note_on channel=9 note=57 velocity=44 time=0
note_off channel=9 note=57 velocity=64 time=60
note_on channel=9 note=57 velocity=44 time=0
note_off channel=9 note=57 velocity=64 time=60
note_on channel=9 note=57 velocity=42 time=0
note_off channel=9 note=57 velocity=64 time=60
note_on channel=9 note=57 velocity=42 time=0
note_off channel=9 note=57 velocity=64 time=60
note_on channel=9 note=57 velocity=41 time=0
note_off channel=9 note=57 velocity=64 time=60
note_on channel=9 note=57 velocity=41 time=0
note_off channel=9 note=57 velocity=64 time=60
note_on channel=9 note=57 velocity=40 time=0
note_off channel=9 note=57 velocity=64 time=60
note_on channel=9 note=57 velocity=40 time=0
note_off channel=9 note=57 velocity=64 time=60
note_on channel=9 note=57 velocity=38 time=0
note_off channel=9 note=57 velocity=64 time=60
note_on channel=9 note=57 velocity=38 time=0
note_off channel=9 note=57 velocity=64 time=60
note_on channel=9 note=57 velocity=37 time=0
note_off channel=9 note=57 velocity=64 time=60
note_on channel=9 note=57 velocity=37 time=0
note_off channel=9 note=57 velocity=64 time=60
note_on channel=9 note=57 velocity=36 time=0
note_off channel=9 note=57 velocity=64 time=60
note_on channel=9 note=57 velocity=36 time=0
note_off channel=9 note=57 velocity=64 time=60
note_on channel=9 note=57 velocity=36 time=0
note_off channel=9 note=57 velocity=64 time=60
note_on channel=9 note=57 velocity=35 time=0
note_off channel=9 note=57 velocity=64 time=60
note_on channel=9 note=57 velocity=35 time=0
note_off channel=9 note=57 velocity=64 time=60
note_on channel=9 note=57 velocity=33 time=0
note_off channel=9 note=57 velocity=64 time=60
note_on channel=9 note=57 velocity=33 time=0
note_off channel=9 note=57 velocity=64 time=60
note_on channel=9 note=57 velocity=32 time=0
note_off channel=9 note=57 velocity=64 time=60
note_on channel=9 note=57 velocity=32 time=0
note_off channel=9 note=57 velocity=64 time=60
note_on channel=9 note=57 velocity=31 time=0
note_off channel=9 note=57 velocity=64 time=60
note_on channel=9 note=57 velocity=31 time=0
note_off channel=9 note=57 velocity=64 time=60
note_on channel=9 note=57 velocity=30 time=0
note_off channel=9 note=57 velocity=64 time=60
note_on channel=9 note=57 velocity=30 time=0
note_off channel=9 note=57 velocity=64 time=60
note_on channel=9 note=57 velocity=28 time=0
note_off channel=9 note=57 velocity=64 time=60
note_on channel=9 note=57 velocity=28 time=0
note_off channel=9 note=57 velocity=64 time=60
note_on channel=9 note=57 velocity=28 time=0
note_off channel=9 note=57 velocity=64 time=60
note_on channel=9 note=57 velocity=27 time=0
note_off channel=9 note=57 velocity=64 time=60
note_on channel=9 note=57 velocity=27 time=0
note_off channel=9 note=57 velocity=64 time=60
note_on channel=9 note=57 velocity=26 time=0
note_off channel=9 note=57 velocity=64 time=60
<meta message end_of_track time=0>
<meta message text text='Jazz Bass' time=0>
control_change channel=0 control=11 value=89 time=0
control_change channel=0 control=7 value=94 time=0
control_change channel=0 control=10 value=44 time=0
control_change channel=0 control=91 value=81 time=0
control_change channel=0 control=93 value=5 time=0
control_change channel=0 control=0 value=56 time=0
control_change channel=0 control=32 value=0 time=0
program_change channel=0 program=32 time=0
note_on channel=0 note=43 velocity=98 time=5760
note_on channel=0 note=31 velocity=91 time=356
note_off channel=0 note=43 velocity=64 time=8
note_off channel=0 note=31 velocity=64 time=116
note_on channel=0 note=43 velocity=100 time=0
note_off channel=0 note=43 velocity=64 time=476
note_on channel=0 note=43 velocity=72 time=4
note_off channel=0 note=43 velocity=64 time=360
note_on channel=0 note=31 velocity=69 time=0
note_off channel=0 note=31 velocity=64 time=32
note_on channel=0 note=43 velocity=72 time=88
note_off channel=0 note=43 velocity=64 time=360
note_on channel=0 note=31 velocity=69 time=0
note_off channel=0 note=31 velocity=64 time=32
note_on channel=0 note=36 velocity=82 time=88
note_off channel=0 note=36 velocity=64 time=268
note_on channel=0 note=36 velocity=94 time=88
note_off channel=0 note=36 velocity=64 time=116
note_on channel=0 note=35 velocity=75 time=8
note_off channel=0 note=35 velocity=64 time=480
note_on channel=0 note=36 velocity=87 time=0
note_on channel=0 note=24 velocity=64 time=356
note_off channel=0 note=36 velocity=64 time=76
note_off channel=0 note=24 velocity=64 time=52
note_on channel=0 note=42 velocity=87 time=0
note_off channel=0 note=42 velocity=64 time=476
control_change channel=0 control=11 value=96 time=0
note_on channel=0 note=41 velocity=98 time=0
note_on channel=0 note=29 velocity=91 time=356
note_off channel=0 note=41 velocity=64 time=8
note_off channel=0 note=29 velocity=64 time=116
note_on channel=0 note=41 velocity=100 time=0
control_change channel=0 control=11 value=98 time=288
note_off channel=0 note=41 velocity=64 time=188
note_on channel=0 note=41 velocity=72 time=4
note_off channel=0 note=41 velocity=64 time=360
note_on channel=0 note=29 velocity=69 time=0
note_off channel=0 note=29 velocity=64 time=32
note_on channel=0 note=41 velocity=72 time=88
control_change channel=0 control=11 value=99 time=96
note_off channel=0 note=41 velocity=64 time=264
note_on channel=0 note=29 velocity=69 time=0
note_off channel=0 note=29 velocity=64 time=32
note_on channel=0 note=38 velocity=86 time=88
note_on channel=0 note=33 velocity=62 time=356
control_change channel=0 control=11 value=100 time=28
note_off channel=0 note=33 velocity=64 time=52
note_off channel=0 note=38 velocity=64 time=24
note_on channel=0 note=45 velocity=79 time=20
note_off channel=0 note=45 velocity=64 time=356
note_on channel=0 note=33 velocity=64 time=0
note_off channel=0 note=33 velocity=64 time=68
note_on channel=0 note=38 velocity=91 time=56
control_change channel=0 control=11 value=101 time=192
note_on channel=0 note=42 velocity=88 time=288
note_off channel=0 note=38 velocity=64 time=60
note_off channel=0 note=42 velocity=64 time=376
control_change channel=0 control=11 value=103 time=44
note_on channel=0 note=43 velocity=93 time=0
note_off channel=0 note=43 velocity=64 time=480
note_on channel=0 note=43 velocity=100 time=0
control_change channel=0 control=11 value=104 time=288
note_off channel=0 note=43 velocity=64 time=192
note_on channel=0 note=43 velocity=70 time=0
note_off channel=0 note=43 velocity=64 time=480
note_on channel=0 note=43 velocity=72 time=0
control_change channel=0 control=11 value=105 time=96
note_off channel=0 note=43 velocity=64 time=264
note_on channel=0 note=31 velocity=69 time=0
note_off channel=0 note=31 velocity=64 time=32
note_on channel=0 note=36 velocity=87 time=88
note_off channel=0 note=36 velocity=64 time=256
note_on channel=0 note=36 velocity=80 time=100
control_change channel=0 control=11 value=106 time=28
note_on channel=0 note=43 velocity=75 time=96
note_off channel=0 note=36 velocity=64 time=16
note_off channel=0 note=43 velocity=64 time=464
note_on channel=0 note=36 velocity=79 time=0
control_change channel=0 control=11 value=108 time=192
note_off channel=0 note=36 velocity=64 time=228
note_on channel=0 note=40 velocity=82 time=60
note_off channel=0 note=40 velocity=64 time=272
note_on channel=0 note=41 velocity=85 time=48
note_off channel=0 note=41 velocity=64 time=124
control_change channel=0 control=11 value=109 time=36
control_change channel=0 control=11 value=108 time=240
note_on channel=0 note=41 velocity=98 time=108
note_off channel=0 note=41 velocity=73 time=91
note_on channel=0 note=45 velocity=83 time=36
control_change channel=0 control=11 value=106 time=5
control_change channel=0 control=11 value=105 time=240
control_change channel=0 control=11 value=104 time=240
note_off channel=0 note=45 velocity=55 time=2
note_on channel=0 note=46 velocity=58 time=3
control_change channel=0 control=11 value=103 time=235
note_off channel=0 note=46 velocity=37 time=211
control_change channel=0 control=11 value=101 time=29
note_on channel=0 note=47 velocity=58 time=9
control_change channel=0 control=11 value=100 time=231
control_change channel=0 control=11 value=99 time=240
note_off channel=0 note=47 velocity=57 time=5
note_on channel=0 note=48 velocity=75 time=14
control_change channel=0 control=11 value=98 time=221
control_change channel=0 control=11 value=96 time=240
note_off channel=0 note=48 velocity=52 time=36
note_on channel=0 note=51 velocity=62 time=7
control_change channel=0 control=11 value=95 time=197
note_off channel=0 note=51 velocity=49 time=218
control_change channel=0 control=11 value=94 time=22
note_on channel=0 note=50 velocity=77 time=2
control_change channel=0 control=11 value=93 time=238
note_off channel=0 note=50 velocity=56 time=115
note_on channel=0 note=38 velocity=58 time=10
control_change channel=0 control=11 value=91 time=115
note_on channel=0 note=44 velocity=83 time=29
note_off channel=0 note=38 velocity=43 time=12
control_change channel=0 control=11 value=90 time=199
note_off channel=0 note=44 velocity=46 time=209
control_change channel=0 control=11 value=89 time=31
note_on channel=0 note=43 velocity=81 time=0
note_off channel=0 note=43 velocity=64 time=360
note_on channel=0 note=31 velocity=69 time=0
note_off channel=0 note=31 velocity=64 time=32
note_on channel=0 note=43 velocity=70 time=88
note_off channel=0 note=43 velocity=64 time=480
note_on channel=0 note=43 velocity=82 time=0
note_off channel=0 note=43 velocity=64 time=268
note_on channel=0 note=43 velocity=94 time=88
note_off channel=0 note=43 velocity=64 time=116
note_on channel=0 note=35 velocity=75 time=8
note_off channel=0 note=35 velocity=64 time=480
note_on channel=0 note=36 velocity=86 time=0
note_on channel=0 note=31 velocity=62 time=356
note_off channel=0 note=31 velocity=64 time=80
note_off channel=0 note=36 velocity=64 time=24
note_on channel=0 note=43 velocity=79 time=20
note_off channel=0 note=43 velocity=64 time=356
note_on channel=0 note=31 velocity=64 time=0
note_off channel=0 note=31 velocity=64 time=68
note_on channel=0 note=36 velocity=82 time=56
note_off channel=0 note=36 velocity=64 time=268
note_on channel=0 note=36 velocity=94 time=88
note_off channel=0 note=36 velocity=64 time=116
note_on channel=0 note=40 velocity=75 time=8
note_off channel=0 note=40 velocity=64 time=480
note_on channel=0 note=41 velocity=70 time=0
note_off channel=0 note=41 velocity=64 time=480
note_on channel=0 note=41 velocity=72 time=0
note_off channel=0 note=41 velocity=64 time=360
note_on channel=0 note=29 velocity=69 time=0
note_off channel=0 note=29 velocity=64 time=32
note_on channel=0 note=41 velocity=86 time=88
note_on channel=0 note=36 velocity=62 time=356
note_off channel=0 note=36 velocity=64 time=80
note_off channel=0 note=41 velocity=64 time=24
note_on channel=0 note=48 velocity=79 time=20
note_off channel=0 note=48 velocity=64 time=356
note_on channel=0 note=36 velocity=64 time=0
note_off channel=0 note=36 velocity=64 time=68
note_on channel=0 note=50 velocity=78 time=56
note_on channel=0 note=45 velocity=77 time=480
note_off channel=0 note=50 velocity=64 time=60
note_off channel=0 note=45 velocity=64 time=420
note_on channel=0 note=38 velocity=87 time=0
note_off channel=0 note=38 velocity=64 time=256
note_on channel=0 note=38 velocity=80 time=100
note_on channel=0 note=45 velocity=73 time=124
note_off channel=0 note=38 velocity=64 time=16
note_off channel=0 note=45 velocity=64 time=464
note_on channel=0 note=43 velocity=70 time=0
note_off channel=0 note=43 velocity=64 time=480
note_on channel=0 note=43 velocity=72 time=0
note_off channel=0 note=43 velocity=64 time=360
note_on channel=0 note=31 velocity=69 time=0
note_off channel=0 note=31 velocity=64 time=32
note_on channel=0 note=43 velocity=93 time=88
note_off channel=0 note=43 velocity=64 time=480
note_on channel=0 note=43 velocity=100 time=0
note_off channel=0 note=43 velocity=64 time=480
note_on channel=0 note=36 velocity=98 time=0
note_on channel=0 note=24 velocity=91 time=356
note_off channel=0 note=36 velocity=64 time=8
note_off channel=0 note=24 velocity=64 time=116
note_on channel=0 note=36 velocity=100 time=0
note_off channel=0 note=36 velocity=64 time=476
note_on channel=0 note=36 velocity=93 time=4
note_off channel=0 note=36 velocity=64 time=480
note_on channel=0 note=36 velocity=100 time=0
note_off channel=0 note=36 velocity=64 time=480
note_on channel=0 note=36 velocity=102 time=0
note_off channel=0 note=36 velocity=64 time=276
note_on channel=0 note=24 velocity=110 time=80
note_off channel=0 note=24 velocity=64 time=92
note_on channel=0 note=38 velocity=102 time=32
note_off channel=0 note=38 velocity=64 time=436
note_on channel=0 note=39 velocity=82 time=44
note_off channel=0 note=39 velocity=64 time=448
note_on channel=0 note=43 velocity=95 time=32
note_off channel=0 note=43 velocity=64 time=332
note_on channel=0 note=36 velocity=100 time=24
note_off channel=0 note=36 velocity=64 time=124
note_on channel=0 note=41 velocity=78 time=0
note_on channel=0 note=43 velocity=80 time=480
note_off channel=0 note=41 velocity=64 time=80
note_on channel=0 note=45 velocity=75 time=400
note_off channel=0 note=43 velocity=64 time=44
note_on channel=0 note=48 velocity=76 time=436
note_off channel=0 note=45 velocity=64 time=80
note_off channel=0 note=48 velocity=64 time=400
note_on channel=0 note=34 velocity=70 time=0
note_off channel=0 note=34 velocity=64 time=480
note_on channel=0 note=33 velocity=72 time=0
note_off channel=0 note=33 velocity=64 time=360
note_on channel=0 note=21 velocity=69 time=0
note_off channel=0 note=21 velocity=64 time=32
note_on channel=0 note=34 velocity=82 time=88
note_off channel=0 note=34 velocity=64 time=268
note_on channel=0 note=34 velocity=94 time=88
note_off channel=0 note=34 velocity=64 time=116
note_on channel=0 note=34 velocity=75 time=8
note_off channel=0 note=34 velocity=64 time=480
note_on channel=0 note=35 velocity=98 time=0
note_on channel=0 note=23 velocity=91 time=356
note_off channel=0 note=35 velocity=64 time=8
note_off channel=0 note=23 velocity=64 time=116
note_on channel=0 note=35 velocity=100 time=0
note_off channel=0 note=35 velocity=64 time=476
note_on channel=0 note=40 velocity=82 time=4
note_off channel=0 note=40 velocity=64 time=268
note_on channel=0 note=40 velocity=94 time=88
note_off channel=0 note=40 velocity=64 time=116
note_on channel=0 note=32 velocity=75 time=8
note_off channel=0 note=32 velocity=64 time=480
note_on channel=0 note=33 velocity=87 time=0
note_off channel=0 note=33 velocity=64 time=256
note_on channel=0 note=33 velocity=80 time=100
note_on channel=0 note=40 velocity=73 time=124
note_off channel=0 note=33 velocity=64 time=16
note_off channel=0 note=40 velocity=64 time=464
note_on channel=0 note=44 velocity=72 time=0
note_off channel=0 note=44 velocity=64 time=360
note_on channel=0 note=32 velocity=69 time=0
note_off channel=0 note=32 velocity=64 time=32
note_on channel=0 note=33 velocity=70 time=88
note_off channel=0 note=33 velocity=64 time=480
note_on channel=0 note=38 velocity=85 time=0
note_on channel=0 note=33 velocity=64 time=356
note_off channel=0 note=38 velocity=64 time=12
note_off channel=0 note=33 velocity=64 time=64
note_on channel=0 note=40 velocity=83 time=48
note_off channel=0 note=40 velocity=64 time=476
note_on channel=0 note=42 velocity=90 time=4
note_off channel=0 note=42 velocity=64 time=312
note_on channel=0 note=33 velocity=68 time=44
note_off channel=0 note=33 velocity=64 time=72
note_on channel=0 note=45 velocity=92 time=52
note_on channel=0 note=33 velocity=61 time=356
note_off channel=0 note=33 velocity=64 time=40
note_off channel=0 note=45 velocity=64 time=44
note_on channel=0 note=43 velocity=82 time=40
note_off channel=0 note=43 velocity=64 time=268
note_on channel=0 note=43 velocity=94 time=88
note_off channel=0 note=43 velocity=64 time=116
note_on channel=0 note=42 velocity=75 time=8
note_off channel=0 note=42 velocity=64 time=480
note_on channel=0 note=42 velocity=82 time=0
note_off channel=0 note=42 velocity=64 time=268
note_on channel=0 note=42 velocity=94 time=88
note_off channel=0 note=42 velocity=64 time=116
note_on channel=0 note=42 velocity=75 time=8
note_off channel=0 note=42 velocity=64 time=480
note_on channel=0 note=36 velocity=98 time=0
note_on channel=0 note=24 velocity=91 time=356
note_off channel=0 note=36 velocity=64 time=8
note_off channel=0 note=24 velocity=64 time=116
note_on channel=0 note=36 velocity=100 time=0
note_off channel=0 note=36 velocity=64 time=476
note_on channel=0 note=34 velocity=86 time=4
note_on channel=0 note=31 velocity=62 time=356
note_off channel=0 note=31 velocity=64 time=80
note_off channel=0 note=34 velocity=64 time=24
note_on channel=0 note=43 velocity=79 time=20
note_off channel=0 note=43 velocity=64 time=356
note_on channel=0 note=31 velocity=64 time=0
note_off channel=0 note=31 velocity=64 time=68
note_on channel=0 note=33 velocity=86 time=56
note_off channel=0 note=33 velocity=64 time=456
note_on channel=0 note=32 velocity=80 time=24
note_off channel=0 note=32 velocity=64 time=480
note_on channel=0 note=33 velocity=87 time=0
note_on channel=0 note=21 velocity=64 time=356
note_off channel=0 note=33 velocity=64 time=76
note_off channel=0 note=21 velocity=64 time=52
note_on channel=0 note=39 velocity=87 time=0
note_off channel=0 note=39 velocity=64 time=476
note_on channel=0 note=50 velocity=78 time=0
note_on channel=0 note=45 velocity=77 time=480
note_off channel=0 note=50 velocity=64 time=60
note_off channel=0 note=45 velocity=64 time=420
note_on channel=0 note=38 velocity=72 time=0
note_off channel=0 note=38 velocity=64 time=360
note_on channel=0 note=26 velocity=69 time=0
note_off channel=0 note=26 velocity=64 time=32
note_on channel=0 note=38 velocity=72 time=88
note_off channel=0 note=38 velocity=64 time=360
note_on channel=0 note=26 velocity=69 time=0
note_off channel=0 note=26 velocity=64 time=32
note_on channel=0 note=43 velocity=87 time=88
note_on channel=0 note=31 velocity=64 time=356
note_off channel=0 note=43 velocity=64 time=76
note_off channel=0 note=31 velocity=64 time=52
note_on channel=0 note=44 velocity=87 time=0
note_off channel=0 note=44 velocity=64 time=476
note_on channel=0 note=43 velocity=98 time=0
note_on channel=0 note=31 velocity=91 time=356
note_off channel=0 note=43 velocity=64 time=8
note_off channel=0 note=31 velocity=64 time=116
note_on channel=0 note=43 velocity=100 time=0
note_off channel=0 note=43 velocity=64 time=476
note_on channel=0 note=36 velocity=86 time=4
note_on channel=0 note=31 velocity=62 time=356
note_off channel=0 note=31 velocity=64 time=80
note_off channel=0 note=36 velocity=64 time=24
note_on channel=0 note=43 velocity=79 time=20
note_off channel=0 note=43 velocity=64 time=356
note_on channel=0 note=31 velocity=64 time=0
note_off channel=0 note=31 velocity=64 time=68
note_on channel=0 note=36 velocity=93 time=56
note_off channel=0 note=36 velocity=64 time=480
note_on channel=0 note=36 velocity=100 time=0
note_off channel=0 note=36 velocity=64 time=480
note_on channel=0 note=41 velocity=85 time=0
note_on channel=0 note=36 velocity=64 time=356
note_off channel=0 note=41 velocity=64 time=12
note_off channel=0 note=36 velocity=64 time=64
note_on channel=0 note=43 velocity=83 time=48
note_off channel=0 note=43 velocity=64 time=476
note_on channel=0 note=45 velocity=90 time=4
note_off channel=0 note=45 velocity=64 time=312
note_on channel=0 note=36 velocity=68 time=44
note_off channel=0 note=36 velocity=64 time=72
note_on channel=0 note=48 velocity=92 time=52
note_on channel=0 note=36 velocity=61 time=356
note_off channel=0 note=36 velocity=64 time=40
note_off channel=0 note=48 velocity=64 time=44
note_on channel=0 note=38 velocity=93 time=40
note_off channel=0 note=38 velocity=64 time=480
note_on channel=0 note=38 velocity=100 time=0
note_off channel=0 note=38 velocity=64 time=480
note_on channel=0 note=38 velocity=81 time=0
note_on channel=0 note=45 velocity=80 time=480
note_off channel=0 note=38 velocity=64 time=88
note_off channel=0 note=45 velocity=64 time=392
note_on channel=0 note=43 velocity=82 time=0
note_off channel=0 note=43 velocity=64 time=268
note_on channel=0 note=43 velocity=94 time=88
note_off channel=0 note=43 velocity=64 time=116
note_on channel=0 note=42 velocity=75 time=8
note_off channel=0 note=42 velocity=64 time=480
note_on channel=0 note=43 velocity=93 time=0
note_off channel=0 note=43 velocity=64 time=480
note_on channel=0 note=43 velocity=100 time=0
note_off channel=0 note=43 velocity=64 time=480
note_on channel=0 note=36 velocity=87 time=0
note_off channel=0 note=36 velocity=64 time=256
note_on channel=0 note=36 velocity=80 time=100
note_on channel=0 note=43 velocity=73 time=124
note_off channel=0 note=36 velocity=64 time=16
note_off channel=0 note=43 velocity=64 time=464
note_on channel=0 note=36 velocity=82 time=0
note_off channel=0 note=36 velocity=64 time=268
note_on channel=0 note=36 velocity=94 time=88
note_off channel=0 note=36 velocity=64 time=116
note_on channel=0 note=35 velocity=75 time=8
note_off channel=0 note=35 velocity=64 time=480
note_on channel=0 note=36 velocity=102 time=0
note_off channel=0 note=36 velocity=64 time=316
note_on channel=0 note=24 velocity=110 time=40
note_off channel=0 note=24 velocity=64 time=92
note_on channel=0 note=38 velocity=102 time=32
note_off channel=0 note=38 velocity=64 time=476
note_on channel=0 note=39 velocity=82 time=4
note_off channel=0 note=39 velocity=64 time=480
note_on channel=0 note=43 velocity=95 time=0
note_off channel=0 note=43 velocity=64 time=336
note_on channel=0 note=36 velocity=100 time=20
note_off channel=0 note=36 velocity=64 time=124
note_on channel=0 note=41 velocity=85 time=0
note_off channel=0 note=41 velocity=64 time=480
note_on channel=0 note=48 velocity=84 time=0
note_off channel=0 note=48 velocity=64 time=484
note_on channel=0 note=45 velocity=79 time=0
note_off channel=0 note=45 velocity=64 time=484
note_on channel=0 note=41 velocity=97 time=0
note_off channel=0 note=41 velocity=64 time=472
note_on channel=0 note=34 velocity=72 time=0
note_off channel=0 note=34 velocity=64 time=360
note_on channel=0 note=22 velocity=69 time=0
note_off channel=0 note=22 velocity=64 time=32
note_on channel=0 note=33 velocity=70 time=88
note_off channel=0 note=33 velocity=64 time=480
note_on channel=0 note=34 velocity=98 time=0
note_on channel=0 note=22 velocity=91 time=356
note_off channel=0 note=34 velocity=64 time=8
note_off channel=0 note=22 velocity=64 time=116
note_on channel=0 note=34 velocity=100 time=0
note_off channel=0 note=34 velocity=64 time=476
note_on channel=0 note=34 velocity=72 time=4
note_off channel=0 note=34 velocity=64 time=360
note_on channel=0 note=22 velocity=69 time=0
note_off channel=0 note=22 velocity=64 time=32
note_on channel=0 note=34 velocity=70 time=88
note_off channel=0 note=34 velocity=64 time=480
note_on channel=0 note=39 velocity=87 time=0
note_off channel=0 note=39 velocity=64 time=256
note_on channel=0 note=39 velocity=80 time=100
note_on channel=0 note=46 velocity=73 time=124
note_off channel=0 note=39 velocity=64 time=16
note_off channel=0 note=46 velocity=64 time=464
note_on channel=0 note=41 velocity=72 time=0
note_off channel=0 note=41 velocity=64 time=360
note_on channel=0 note=29 velocity=69 time=0
note_off channel=0 note=29 velocity=64 time=32
note_on channel=0 note=40 velocity=70 time=88
note_off channel=0 note=40 velocity=64 time=480
note_on channel=0 note=39 velocity=72 time=0
note_off channel=0 note=39 velocity=64 time=360
note_on channel=0 note=27 velocity=69 time=0
note_off channel=0 note=27 velocity=64 time=32
note_on channel=0 note=38 velocity=72 time=88
note_off channel=0 note=38 velocity=64 time=360
note_on channel=0 note=26 velocity=69 time=0
note_off channel=0 note=26 velocity=64 time=32
note_on channel=0 note=33 velocity=87 time=88
note_off channel=0 note=33 velocity=64 time=256
note_on channel=0 note=33 velocity=80 time=100
note_on channel=0 note=40 velocity=73 time=124
note_off channel=0 note=33 velocity=64 time=16
note_off channel=0 note=40 velocity=64 time=464
note_on channel=0 note=38 velocity=82 time=0
note_off channel=0 note=38 velocity=64 time=268
note_on channel=0 note=38 velocity=94 time=88
note_off channel=0 note=38 velocity=64 time=116
note_on channel=0 note=42 velocity=75 time=8
note_off channel=0 note=42 velocity=64 time=480
note_on channel=0 note=43 velocity=70 time=0
note_off channel=0 note=43 velocity=64 time=480
note_on channel=0 note=43 velocity=72 time=0
note_off channel=0 note=43 velocity=64 time=360
note_on channel=0 note=31 velocity=69 time=0
note_off channel=0 note=31 velocity=64 time=32
note_on channel=0 note=43 velocity=87 time=88
note_off channel=0 note=43 velocity=64 time=256
note_on channel=0 note=43 velocity=80 time=100
note_on channel=0 note=50 velocity=73 time=124
note_off channel=0 note=43 velocity=64 time=16
note_off channel=0 note=50 velocity=64 time=464
note_on channel=0 note=36 velocity=86 time=0
note_on channel=0 note=31 velocity=62 time=356
note_off channel=0 note=31 velocity=64 time=80
note_off channel=0 note=36 velocity=64 time=24
note_on channel=0 note=43 velocity=79 time=20
note_off channel=0 note=43 velocity=64 time=356
note_on channel=0 note=31 velocity=64 time=0
note_off channel=0 note=31 velocity=64 time=68
note_on channel=0 note=36 velocity=72 time=56
note_off channel=0 note=36 velocity=64 time=300
note_on channel=0 note=41 velocity=85 time=40
note_off channel=0 note=41 velocity=64 time=612
control_change channel=0 control=11 value=89 time=3824
note_on channel=0 note=43 velocity=81 time=24
control_change channel=0 control=11 value=90 time=312
note_on channel=0 note=50 velocity=80 time=168
note_off channel=0 note=43 velocity=64 time=88
control_change channel=0 control=11 value=91 time=56
note_off channel=0 note=50 velocity=64 time=336
control_change channel=0 control=11 value=93 time=0
note_on channel=0 note=43 velocity=70 time=0
control_change channel=0 control=11 value=94 time=312
note_off channel=0 note=43 velocity=64 time=168
note_on channel=0 note=37 velocity=70 time=0
control_change channel=0 control=11 value=95 time=168
note_off channel=0 note=37 velocity=64 time=312
control_change channel=0 control=11 value=96 time=0
note_on channel=0 note=36 velocity=93 time=0
note_off channel=0 note=36 velocity=64 time=480
note_on channel=0 note=36 velocity=100 time=0
note_off channel=0 note=36 velocity=64 time=480
note_on channel=0 note=36 velocity=72 time=0
note_off channel=0 note=36 velocity=64 time=360
note_on channel=0 note=24 velocity=69 time=0
note_off channel=0 note=24 velocity=64 time=32
note_on channel=0 note=42 velocity=72 time=88
note_off channel=0 note=42 velocity=64 time=360
note_on channel=0 note=30 velocity=69 time=0
note_off channel=0 note=30 velocity=64 time=32
note_on channel=0 note=41 velocity=87 time=88
note_off channel=0 note=41 velocity=64 time=256
note_on channel=0 note=41 velocity=80 time=100
note_on channel=0 note=48 velocity=73 time=124
note_off channel=0 note=41 velocity=64 time=16
note_off channel=0 note=48 velocity=64 time=464
note_on channel=0 note=33 velocity=70 time=0
note_off channel=0 note=33 velocity=64 time=480
note_on channel=0 note=39 velocity=70 time=0
note_off channel=0 note=39 velocity=64 time=480
note_on channel=0 note=38 velocity=87 time=0
note_on channel=0 note=50 velocity=70 time=480
note_off channel=0 note=38 velocity=64 time=36
note_on channel=0 note=45 velocity=82 time=444
note_off channel=0 note=50 velocity=64 time=56
note_on channel=0 note=42 velocity=88 time=424
note_off channel=0 note=45 velocity=64 time=12
note_off channel=0 note=42 velocity=64 time=468
note_on channel=0 note=43 velocity=93 time=0
note_off channel=0 note=43 velocity=64 time=480
note_on channel=0 note=43 velocity=100 time=0
note_off channel=0 note=43 velocity=64 time=480
note_on channel=0 note=43 velocity=70 time=0
note_off channel=0 note=43 velocity=64 time=480
note_on channel=0 note=43 velocity=72 time=0
note_off channel=0 note=43 velocity=64 time=360
note_on channel=0 note=31 velocity=69 time=0
note_off channel=0 note=31 velocity=64 time=32
note_on channel=0 note=36 velocity=86 time=88
note_on channel=0 note=31 velocity=62 time=356
note_off channel=0 note=31 velocity=64 time=80
note_off channel=0 note=36 velocity=64 time=24
note_on channel=0 note=43 velocity=79 time=20
note_off channel=0 note=43 velocity=64 time=356
note_on channel=0 note=31 velocity=64 time=0
note_off channel=0 note=31 velocity=64 time=68
note_on channel=0 note=36 velocity=72 time=56
note_off channel=0 note=36 velocity=64 time=360
note_on channel=0 note=24 velocity=69 time=0
note_off channel=0 note=24 velocity=64 time=32
note_on channel=0 note=36 velocity=72 time=88
note_off channel=0 note=36 velocity=64 time=360
note_on channel=0 note=24 velocity=69 time=0
note_off channel=0 note=24 velocity=64 time=32
note_on channel=0 note=36 velocity=85 time=88
note_off channel=0 note=36 velocity=64 time=480
note_on channel=0 note=43 velocity=84 time=0
note_off channel=0 note=43 velocity=64 time=484
note_on channel=0 note=39 velocity=79 time=0
note_off channel=0 note=39 velocity=64 time=484
note_on channel=0 note=36 velocity=97 time=0
note_off channel=0 note=36 velocity=64 time=472
control_change channel=0 control=11 value=96 time=0
note_on channel=0 note=41 velocity=98 time=0
control_change channel=0 control=11 value=95 time=192
note_on channel=0 note=29 velocity=91 time=164
note_off channel=0 note=41 velocity=64 time=8
control_change channel=0 control=11 value=94 time=20
note_off channel=0 note=29 velocity=64 time=96
note_on channel=0 note=41 velocity=100 time=0
control_change channel=0 control=11 value=93 time=96
control_change channel=0 control=11 value=91 time=192
note_off channel=0 note=41 velocity=64 time=188
control_change channel=0 control=11 value=90 time=4
note_on channel=0 note=41 velocity=87 time=0
control_change channel=0 control=11 value=89 time=192
note_on channel=0 note=29 velocity=64 time=164
control_change channel=0 control=11 value=88 time=28
note_off channel=0 note=41 velocity=64 time=48
note_off channel=0 note=29 velocity=64 time=52
note_on channel=0 note=35 velocity=87 time=0
control_change channel=0 control=11 value=86 time=92
control_change channel=0 control=11 value=85 time=192
note_off channel=0 note=35 velocity=64 time=192
control_change channel=0 control=11 value=84 time=0
note_on channel=0 note=34 velocity=94 time=0
note_on channel=0 note=29 velocity=45 time=332
note_off channel=0 note=34 velocity=64 time=40
note_off channel=0 note=29 velocity=64 time=84
note_on channel=0 note=41 velocity=77 time=24
note_off channel=0 note=41 velocity=64 time=420
note_on channel=0 note=38 velocity=85 time=60
note_off channel=0 note=38 velocity=64 time=480
note_on channel=0 note=34 velocity=87 time=0
note_on channel=0 note=29 velocity=65 time=360
note_off channel=0 note=34 velocity=64 time=4
note_off channel=0 note=29 velocity=64 time=68
note_on channel=0 note=34 velocity=87 time=48
note_off channel=0 note=34 velocity=64 time=256
note_on channel=0 note=34 velocity=80 time=100
note_on channel=0 note=41 velocity=73 time=124
note_off channel=0 note=34 velocity=64 time=16
note_off channel=0 note=41 velocity=64 time=464
note_on channel=0 note=39 velocity=86 time=0
note_on channel=0 note=34 velocity=62 time=356
note_off channel=0 note=34 velocity=64 time=80
note_off channel=0 note=39 velocity=64 time=24
note_on channel=0 note=46 velocity=79 time=20
note_off channel=0 note=46 velocity=64 time=356
note_on channel=0 note=34 velocity=64 time=0
note_off channel=0 note=34 velocity=64 time=68
note_on channel=0 note=41 velocity=94 time=56
note_on channel=0 note=36 velocity=45 time=332
note_off channel=0 note=41 velocity=64 time=40
note_off channel=0 note=36 velocity=64 time=84
note_on channel=0 note=48 velocity=77 time=24
note_off channel=0 note=48 velocity=64 time=420
note_on channel=0 note=45 velocity=85 time=60
note_off channel=0 note=45 velocity=64 time=480
note_on channel=0 note=41 velocity=87 time=0
note_on channel=0 note=36 velocity=65 time=360
note_off channel=0 note=41 velocity=64 time=4
note_off channel=0 note=36 velocity=64 time=68
note_on channel=0 note=38 velocity=88 time=48
note_on channel=0 note=40 velocity=85 time=480
note_off channel=0 note=38 velocity=64 time=80
note_on channel=0 note=41 velocity=92 time=400
note_off channel=0 note=40 velocity=64 time=36
note_on channel=0 note=42 velocity=85 time=444
note_off channel=0 note=41 velocity=64 time=24
note_off channel=0 note=42 velocity=64 time=448
note_on channel=0 note=43 velocity=92 time=8
note_off channel=0 note=43 velocity=64 time=328
note_on channel=0 note=35 velocity=59 time=28
note_off channel=0 note=35 velocity=64 time=108
note_on channel=0 note=41 velocity=86 time=16
note_off channel=0 note=41 velocity=64 time=392
note_on channel=0 note=40 velocity=77 time=88
note_off channel=0 note=40 velocity=64 time=516
note_on channel=0 note=38 velocity=86 time=0
note_off channel=0 note=38 velocity=64 time=444
note_on channel=0 note=36 velocity=78 time=0
note_on channel=0 note=38 velocity=80 time=480
note_off channel=0 note=36 velocity=64 time=80
note_on channel=0 note=40 velocity=75 time=400
note_off channel=0 note=38 velocity=64 time=44
note_on channel=0 note=43 velocity=76 time=436
note_off channel=0 note=40 velocity=64 time=80
note_off channel=0 note=43 velocity=64 time=400
control_change channel=0 control=11 value=84 time=0
note_on channel=0 note=41 velocity=78 time=0
control_change channel=0 control=11 value=85 time=192
control_change channel=0 control=11 value=86 time=192
note_on channel=0 note=43 velocity=80 time=96
note_off channel=0 note=41 velocity=64 time=80
control_change channel=0 control=11 value=88 time=16
control_change channel=0 control=11 value=89 time=192
control_change channel=0 control=11 value=90 time=192
note_on channel=0 note=45 velocity=75 time=0
note_off channel=0 note=43 velocity=64 time=44
control_change channel=0 control=11 value=91 time=148
control_change channel=0 control=11 value=93 time=192
note_on channel=0 note=48 velocity=76 time=96
note_off channel=0 note=45 velocity=64 time=80
control_change channel=0 control=11 value=94 time=16
control_change channel=0 control=11 value=95 time=192
note_off channel=0 note=48 velocity=64 time=192
control_change channel=0 control=11 value=96 time=0
note_on channel=0 note=39 velocity=72 time=0
control_change channel=0 control=11 value=98 time=192
note_off channel=0 note=39 velocity=64 time=168
note_on channel=0 note=27 velocity=69 time=0
control_change channel=0 control=11 value=99 time=24
note_off channel=0 note=27 velocity=64 time=8
note_on channel=0 note=38 velocity=72 time=88
control_change channel=0 control=11 value=100 time=96
control_change channel=0 control=11 value=101 time=192
note_off channel=0 note=38 velocity=64 time=72
note_on channel=0 note=26 velocity=69 time=0
note_off channel=0 note=26 velocity=64 time=32
control_change channel=0 control=11 value=103 time=88
note_on channel=0 note=38 velocity=82 time=0
control_change channel=0 control=11 value=104 time=192
note_off channel=0 note=38 velocity=64 time=76
note_on channel=0 note=38 velocity=94 time=88
control_change channel=0 control=11 value=105 time=28
note_off channel=0 note=38 velocity=64 time=88
note_on channel=0 note=42 velocity=75 time=8
control_change channel=0 control=11 value=106 time=96
control_change channel=0 control=11 value=108 time=192
note_off channel=0 note=42 velocity=64 time=192
control_change channel=0 control=11 value=109 time=0
note_on channel=0 note=43 velocity=86 time=0
note_on channel=0 note=38 velocity=62 time=356
note_off channel=0 note=38 velocity=64 time=80
note_off channel=0 note=43 velocity=64 time=24
note_on channel=0 note=50 velocity=79 time=20
note_off channel=0 note=50 velocity=64 time=356
note_on channel=0 note=38 velocity=64 time=0
note_off channel=0 note=38 velocity=64 time=68
note_on channel=0 note=43 velocity=70 time=56
note_off channel=0 note=43 velocity=64 time=480
note_on channel=0 note=43 velocity=72 time=0
note_off channel=0 note=43 velocity=64 time=360
note_on channel=0 note=31 velocity=69 time=0
note_off channel=0 note=31 velocity=64 time=32
note_on channel=0 note=36 velocity=93 time=88
note_off channel=0 note=36 velocity=64 time=480
note_on channel=0 note=36 velocity=100 time=0
note_off channel=0 note=36 velocity=64 time=480
note_on channel=0 note=36 velocity=70 time=0
note_off channel=0 note=36 velocity=64 time=480
note_on channel=0 note=36 velocity=72 time=0
note_off channel=0 note=36 velocity=64 time=360
note_on channel=0 note=24 velocity=69 time=0
note_off channel=0 note=24 velocity=64 time=32
note_on channel=0 note=41 velocity=98 time=88
note_on channel=0 note=29 velocity=91 time=356
note_off channel=0 note=41 velocity=64 time=8
note_off channel=0 note=29 velocity=64 time=116
note_on channel=0 note=41 velocity=100 time=0
note_off channel=0 note=41 velocity=64 time=476
note_on channel=0 note=41 velocity=70 time=4
note_off channel=0 note=41 velocity=64 time=480
note_on channel=0 note=41 velocity=72 time=0
note_off channel=0 note=41 velocity=64 time=360
note_on channel=0 note=29 velocity=69 time=0
note_off channel=0 note=29 velocity=64 time=32
note_on channel=0 note=38 velocity=98 time=88
note_on channel=0 note=26 velocity=91 time=356
note_off channel=0 note=38 velocity=64 time=8
note_off channel=0 note=26 velocity=64 time=116
note_on channel=0 note=38 velocity=100 time=0
note_off channel=0 note=38 velocity=64 time=476
note_on channel=0 note=38 velocity=72 time=4
note_off channel=0 note=38 velocity=64 time=360
note_on channel=0 note=26 velocity=69 time=0
note_off channel=0 note=26 velocity=64 time=32
note_on channel=0 note=38 velocity=72 time=88
note_off channel=0 note=38 velocity=64 time=360
note_on channel=0 note=26 velocity=69 time=0
note_off channel=0 note=26 velocity=64 time=32
note_on channel=0 note=43 velocity=87 time=88
note_off channel=0 note=43 velocity=64 time=256
note_on channel=0 note=43 velocity=80 time=100
note_on channel=0 note=50 velocity=73 time=124
note_off channel=0 note=43 velocity=64 time=16
note_off channel=0 note=50 velocity=64 time=464
note_on channel=0 note=43 velocity=72 time=0
note_off channel=0 note=43 velocity=64 time=360
note_on channel=0 note=31 velocity=69 time=0
note_off channel=0 note=31 velocity=64 time=32
note_on channel=0 note=43 velocity=70 time=88
note_off channel=0 note=43 velocity=64 time=480
note_on channel=0 note=43 velocity=98 time=0
note_on channel=0 note=31 velocity=91 time=356
note_off channel=0 note=43 velocity=64 time=8
note_off channel=0 note=31 velocity=64 time=116
note_on channel=0 note=43 velocity=100 time=0
note_off channel=0 note=43 velocity=64 time=476
note_on channel=0 note=36 velocity=82 time=4
note_off channel=0 note=36 velocity=64 time=268
note_on channel=0 note=36 velocity=94 time=88
note_off channel=0 note=36 velocity=64 time=116
note_on channel=0 note=35 velocity=75 time=8
note_off channel=0 note=35 velocity=64 time=480
note_on channel=0 note=36 velocity=102 time=0
note_off channel=0 note=36 velocity=64 time=276
note_on channel=0 note=24 velocity=110 time=80
note_off channel=0 note=24 velocity=64 time=92
note_on channel=0 note=38 velocity=102 time=32
note_off channel=0 note=38 velocity=64 time=436
note_on channel=0 note=39 velocity=82 time=44
note_off channel=0 note=39 velocity=64 time=448
note_on channel=0 note=43 velocity=95 time=32
note_off channel=0 note=43 velocity=64 time=332
note_on channel=0 note=36 velocity=100 time=24
note_off channel=0 note=36 velocity=64 time=124
note_on channel=0 note=41 velocity=93 time=0
note_off channel=0 note=41 velocity=64 time=268
note_on channel=0 note=29 velocity=40 time=88
note_off channel=0 note=29 velocity=64 time=104
note_on channel=0 note=39 velocity=85 time=20
note_off channel=0 note=39 velocity=64 time=472
note_on channel=0 note=38 velocity=91 time=8
note_on channel=0 note=36 velocity=87 time=480
note_off channel=0 note=38 velocity=64 time=32
note_on channel=0 note=35 velocity=82 time=324
note_off channel=0 note=36 velocity=64 time=72
note_off channel=0 note=35 velocity=64 time=52
note_on channel=0 note=34 velocity=93 time=0
note_off channel=0 note=34 velocity=64 time=480
note_on channel=0 note=34 velocity=100 time=0
note_off channel=0 note=34 velocity=64 time=480
note_on channel=0 note=34 velocity=98 time=0
note_on channel=0 note=22 velocity=91 time=356
note_off channel=0 note=34 velocity=64 time=8
note_off channel=0 note=22 velocity=64 time=116
note_on channel=0 note=34 velocity=100 time=0
note_off channel=0 note=34 velocity=64 time=476
note_on channel=0 note=47 velocity=78 time=4
note_on channel=0 note=42 velocity=77 time=480
note_off channel=0 note=47 velocity=64 time=60
note_off channel=0 note=42 velocity=64 time=420
note_on channel=0 note=40 velocity=82 time=0
note_off channel=0 note=40 velocity=64 time=268
note_on channel=0 note=40 velocity=94 time=88
note_off channel=0 note=40 velocity=64 time=116
note_on channel=0 note=32 velocity=75 time=8
note_off channel=0 note=32 velocity=64 time=480
note_on channel=0 note=33 velocity=85 time=0
note_on channel=0 note=28 velocity=64 time=356
note_off channel=0 note=33 velocity=64 time=12
note_off channel=0 note=28 velocity=64 time=64
note_on channel=0 note=35 velocity=83 time=48
note_off channel=0 note=35 velocity=64 time=476
note_on channel=0 note=36 velocity=90 time=4
note_off channel=0 note=36 velocity=64 time=312
note_on channel=0 note=28 velocity=68 time=44
note_off channel=0 note=28 velocity=64 time=72
note_on channel=0 note=40 velocity=92 time=52
note_on channel=0 note=28 velocity=61 time=356
note_off channel=0 note=28 velocity=64 time=40
note_off channel=0 note=40 velocity=64 time=44
note_on channel=0 note=38 velocity=85 time=40
note_on channel=0 note=33 velocity=64 time=356
note_off channel=0 note=38 velocity=64 time=12
note_off channel=0 note=33 velocity=64 time=64
note_on channel=0 note=40 velocity=83 time=48
note_off channel=0 note=40 velocity=64 time=476
note_on channel=0 note=42 velocity=90 time=4
note_off channel=0 note=42 velocity=64 time=312
note_on channel=0 note=33 velocity=68 time=44
note_off channel=0 note=33 velocity=64 time=72
note_on channel=0 note=45 velocity=92 time=52
note_on channel=0 note=33 velocity=61 time=356
note_off channel=0 note=33 velocity=64 time=40
note_off channel=0 note=45 velocity=64 time=44
note_on channel=0 note=43 velocity=93 time=40
note_off channel=0 note=43 velocity=64 time=480
note_on channel=0 note=43 velocity=100 time=0
note_off channel=0 note=43 velocity=64 time=480
note_on channel=0 note=42 velocity=86 time=0
note_off channel=0 note=42 velocity=64 time=456
note_on channel=0 note=42 velocity=80 time=24
note_off channel=0 note=42 velocity=64 time=480
note_on channel=0 note=36 velocity=81 time=0
note_on channel=0 note=50 velocity=80 time=480
note_off channel=0 note=36 velocity=64 time=88
note_off channel=0 note=50 velocity=64 time=392
note_on channel=0 note=36 velocity=72 time=0
note_off channel=0 note=36 velocity=64 time=360
note_on channel=0 note=24 velocity=69 time=0
note_off channel=0 note=24 velocity=64 time=32
note_on channel=0 note=34 velocity=70 time=88
note_off channel=0 note=34 velocity=64 time=480
note_on channel=0 note=33 velocity=87 time=0
note_on channel=0 note=45 velocity=70 time=480
note_off channel=0 note=33 velocity=64 time=36
note_on channel=0 note=40 velocity=82 time=444
note_off channel=0 note=45 velocity=64 time=56
note_on channel=0 note=36 velocity=88 time=424
note_off channel=0 note=40 velocity=64 time=12
note_off channel=0 note=36 velocity=64 time=468
note_on channel=0 note=39 velocity=86 time=0
note_on channel=0 note=34 velocity=62 time=356
note_off channel=0 note=34 velocity=64 time=80
note_off channel=0 note=39 velocity=64 time=24
note_on channel=0 note=46 velocity=79 time=20
note_off channel=0 note=46 velocity=64 time=356
note_on channel=0 note=34 velocity=64 time=0
note_off channel=0 note=34 velocity=64 time=68
control_change channel=0 control=11 value=109 time=56
note_on channel=0 note=38 velocity=70 time=0
control_change channel=0 control=11 value=106 time=120
control_change channel=0 control=11 value=104 time=120
control_change channel=0 control=11 value=101 time=120
note_off channel=0 note=38 velocity=64 time=120
control_change channel=0 control=11 value=99 time=0
note_on channel=0 note=44 velocity=72 time=0
control_change channel=0 control=11 value=96 time=120
control_change channel=0 control=11 value=94 time=120
note_off channel=0 note=44 velocity=64 time=120
control_change channel=0 control=11 value=91 time=0
note_on channel=0 note=32 velocity=69 time=0
note_off channel=0 note=32 velocity=64 time=32
control_change channel=0 control=11 value=89 time=88
note_on channel=0 note=43 velocity=86 time=0
note_on channel=0 note=38 velocity=62 time=356
note_off channel=0 note=38 velocity=64 time=80
note_off channel=0 note=43 velocity=64 time=24
note_on channel=0 note=50 velocity=79 time=20
note_off channel=0 note=50 velocity=64 time=356
note_on channel=0 note=38 velocity=64 time=0
note_off channel=0 note=38 velocity=64 time=68
note_on channel=0 note=43 velocity=87 time=56
note_on channel=0 note=31 velocity=64 time=356
note_off channel=0 note=43 velocity=64 time=76
note_off channel=0 note=31 velocity=64 time=52
note_on channel=0 note=37 velocity=87 time=0
note_off channel=0 note=37 velocity=64 time=476
note_on channel=0 note=36 velocity=81 time=0
note_on channel=0 note=43 velocity=80 time=480
note_off channel=0 note=36 velocity=64 time=88
note_off channel=0 note=43 velocity=64 time=392
note_on channel=0 note=36 velocity=93 time=0
note_off channel=0 note=36 velocity=64 time=480
note_on channel=0 note=36 velocity=100 time=0
note_off channel=0 note=36 velocity=64 time=480
note_on channel=0 note=41 velocity=85 time=0
note_on channel=0 note=36 velocity=64 time=356
note_off channel=0 note=41 velocity=64 time=12
note_off channel=0 note=36 velocity=64 time=64
note_on channel=0 note=43 velocity=83 time=48
note_off channel=0 note=43 velocity=64 time=476
note_on channel=0 note=45 velocity=90 time=4
note_off channel=0 note=45 velocity=64 time=312
note_on channel=0 note=36 velocity=68 time=44
note_off channel=0 note=36 velocity=64 time=72
note_on channel=0 note=48 velocity=92 time=52
note_on channel=0 note=36 velocity=61 time=356
note_off channel=0 note=36 velocity=64 time=40
note_off channel=0 note=48 velocity=64 time=44
note_on channel=0 note=38 velocity=86 time=40
note_off channel=0 note=38 velocity=64 time=456
note_on channel=0 note=37 velocity=80 time=24
note_off channel=0 note=37 velocity=64 time=480
note_on channel=0 note=38 velocity=91 time=0
note_on channel=0 note=42 velocity=88 time=480
note_off channel=0 note=38 velocity=64 time=60
note_off channel=0 note=42 velocity=64 time=376
note_on channel=0 note=43 velocity=98 time=44
note_off channel=0 note=43 velocity=64 time=480
note_on channel=0 note=44 velocity=105 time=0
note_off channel=0 note=44 velocity=64 time=480
note_on channel=0 note=43 velocity=86 time=0
note_on channel=0 note=38 velocity=62 time=356
note_off channel=0 note=38 velocity=64 time=80
note_off channel=0 note=43 velocity=64 time=24
note_on channel=0 note=50 velocity=79 time=20
note_off channel=0 note=50 velocity=64 time=356
note_on channel=0 note=38 velocity=64 time=0
note_off channel=0 note=38 velocity=64 time=68
note_on channel=0 note=36 velocity=98 time=56
note_on channel=0 note=24 velocity=91 time=356
note_off channel=0 note=36 velocity=64 time=8
note_off channel=0 note=24 velocity=64 time=116
note_on channel=0 note=36 velocity=100 time=0
note_off channel=0 note=36 velocity=64 time=476
note_on channel=0 note=36 velocity=87 time=4
note_on channel=0 note=24 velocity=64 time=356
note_off channel=0 note=36 velocity=64 time=76
note_off channel=0 note=24 velocity=64 time=52
note_on channel=0 note=37 velocity=87 time=0
note_off channel=0 note=37 velocity=64 time=476
control_change channel=0 control=11 value=89 time=0
note_on channel=0 note=36 velocity=88 time=0
control_change channel=0 control=11 value=90 time=240
control_change channel=0 control=11 value=91 time=240
note_on channel=0 note=38 velocity=85 time=0
note_off channel=0 note=36 velocity=64 time=80
control_change channel=0 control=11 value=93 time=160
control_change channel=0 control=11 value=94 time=240
note_on channel=0 note=39 velocity=92 time=0
note_off channel=0 note=38 velocity=64 time=36
control_change channel=0 control=11 value=95 time=204
control_change channel=0 control=11 value=96 time=240
note_on channel=0 note=39 velocity=85 time=0
note_off channel=0 note=39 velocity=64 time=24
control_change channel=0 control=11 value=98 time=216
note_off channel=0 note=39 velocity=64 time=232
control_change channel=0 control=11 value=99 time=8
note_on channel=0 note=41 velocity=72 time=0
control_change channel=0 control=11 value=100 time=240
note_off channel=0 note=41 velocity=64 time=120
note_on channel=0 note=29 velocity=69 time=0
note_off channel=0 note=29 velocity=64 time=32
control_change channel=0 control=11 value=101 time=88
note_on channel=0 note=36 velocity=70 time=0
control_change channel=0 control=11 value=103 time=240
note_off channel=0 note=36 velocity=64 time=240
control_change channel=0 control=11 value=104 time=0
note_on channel=0 note=41 velocity=98 time=0
control_change channel=0 control=11 value=105 time=240
note_off channel=0 note=41 velocity=64 time=240
control_change channel=0 control=11 value=106 time=0
note_on channel=0 note=35 velocity=105 time=0
control_change channel=0 control=11 value=108 time=240
note_off channel=0 note=35 velocity=64 time=240
control_change channel=0 control=11 value=109 time=0
note_on channel=0 note=34 velocity=78 time=0
note_on channel=0 note=36 velocity=80 time=480
note_off channel=0 note=34 velocity=64 time=80
note_on channel=0 note=38 velocity=75 time=400
note_off channel=0 note=36 velocity=64 time=44
note_on channel=0 note=41 velocity=76 time=436
note_off channel=0 note=38 velocity=64 time=80
note_off channel=0 note=41 velocity=64 time=400
note_on channel=0 note=34 velocity=93 time=0
note_off channel=0 note=34 velocity=64 time=480
note_on channel=0 note=34 velocity=100 time=0
note_off channel=0 note=34 velocity=64 time=480
note_on channel=0 note=39 velocity=98 time=0
note_on channel=0 note=27 velocity=91 time=356
note_off channel=0 note=39 velocity=64 time=8
note_off channel=0 note=27 velocity=64 time=116
note_on channel=0 note=39 velocity=100 time=0
note_off channel=0 note=39 velocity=64 time=476
note_on channel=0 note=41 velocity=86 time=4
note_off channel=0 note=41 velocity=64 time=456
note_on channel=0 note=40 velocity=80 time=24
note_off channel=0 note=40 velocity=64 time=480
note_on channel=0 note=41 velocity=70 time=0
note_off channel=0 note=41 velocity=64 time=480
note_on channel=0 note=41 velocity=70 time=0
note_off channel=0 note=41 velocity=64 time=480
note_on channel=0 note=33 velocity=87 time=0
note_on channel=0 note=21 velocity=64 time=356
note_off channel=0 note=33 velocity=64 time=76
note_off channel=0 note=21 velocity=64 time=52
note_on channel=0 note=39 velocity=87 time=0
note_off channel=0 note=39 velocity=64 time=476
note_on channel=0 note=38 velocity=87 time=0
note_on channel=0 note=26 velocity=64 time=356
note_off channel=0 note=38 velocity=64 time=76
note_off channel=0 note=26 velocity=64 time=52
note_on channel=0 note=44 velocity=87 time=0
note_off channel=0 note=44 velocity=64 time=476
note_on channel=0 note=43 velocity=87 time=0
note_off channel=0 note=43 velocity=64 time=256
note_on channel=0 note=43 velocity=80 time=100
note_on channel=0 note=50 velocity=73 time=124
note_off channel=0 note=43 velocity=64 time=16
note_off channel=0 note=50 velocity=64 time=464
note_on channel=0 note=43 velocity=87 time=0
note_off channel=0 note=43 velocity=64 time=256
note_on channel=0 note=43 velocity=80 time=100
note_on channel=0 note=50 velocity=73 time=124
note_off channel=0 note=43 velocity=64 time=16
note_off channel=0 note=50 velocity=64 time=464
note_on channel=0 note=36 velocity=86 time=0
note_off channel=0 note=36 velocity=64 time=456
note_on channel=0 note=35 velocity=80 time=24
note_off channel=0 note=35 velocity=64 time=480
note_on channel=0 note=36 velocity=98 time=0
note_on channel=0 note=24 velocity=91 time=356
note_off channel=0 note=36 velocity=64 time=8
note_off channel=0 note=24 velocity=64 time=116
note_on channel=0 note=36 velocity=100 time=0
note_off channel=0 note=36 velocity=64 time=476
note_on channel=0 note=41 velocity=87 time=4
note_on channel=0 note=29 velocity=64 time=356
note_off channel=0 note=41 velocity=64 time=76
note_off channel=0 note=29 velocity=64 time=52
note_on channel=0 note=42 velocity=87 time=0
note_off channel=0 note=42 velocity=64 time=476
note_on channel=0 note=41 velocity=70 time=0
note_off channel=0 note=41 velocity=64 time=480
note_on channel=0 note=41 velocity=72 time=0
note_off channel=0 note=41 velocity=64 time=360
note_on channel=0 note=29 velocity=69 time=0
note_off channel=0 note=29 velocity=64 time=32
note_on channel=0 note=38 velocity=87 time=88
note_off channel=0 note=38 velocity=64 time=256
note_on channel=0 note=38 velocity=80 time=100
note_on channel=0 note=45 velocity=73 time=124
note_off channel=0 note=38 velocity=64 time=16
note_off channel=0 note=45 velocity=64 time=464
control_change channel=0 control=11 value=109 time=0
note_on channel=0 note=38 velocity=82 time=0
control_change channel=0 control=11 value=108 time=120
control_change channel=0 control=11 value=106 time=120
note_off channel=0 note=38 velocity=64 time=28
note_on channel=0 note=38 velocity=94 time=88
control_change channel=0 control=11 value=105 time=4
note_off channel=0 note=38 velocity=64 time=112
control_change channel=0 control=11 value=103 time=8
note_on channel=0 note=42 velocity=75 time=0
control_change channel=0 control=11 value=101 time=120
control_change channel=0 control=11 value=100 time=120
control_change channel=0 control=11 value=99 time=120
note_off channel=0 note=42 velocity=64 time=120
control_change channel=0 control=11 value=96 time=0
note_on channel=0 note=43 velocity=93 time=0
note_off channel=0 note=43 velocity=64 time=480
note_on channel=0 note=43 velocity=100 time=0
note_off channel=0 note=43 velocity=64 time=480
note_on channel=0 note=43 velocity=86 time=0
note_off channel=0 note=43 velocity=64 time=456
note_on channel=0 note=35 velocity=80 time=24
note_off channel=0 note=35 velocity=64 time=480
note_on channel=0 note=36 velocity=87 time=0
note_off channel=0 note=36 velocity=64 time=256
note_on channel=0 note=36 velocity=80 time=100
note_on channel=0 note=43 velocity=73 time=124
note_off channel=0 note=36 velocity=64 time=16
note_off channel=0 note=43 velocity=64 time=464
note_on channel=0 note=36 velocity=77 time=0
note_off channel=0 note=36 velocity=64 time=516
note_on channel=0 note=40 velocity=85 time=9
note_off channel=0 note=40 velocity=65 time=260
note_on channel=0 note=41 velocity=89 time=33
note_off channel=0 note=41 velocity=61 time=108
note_on channel=0 note=33 velocity=75 time=354
note_off channel=0 note=33 velocity=64 time=640
note_on channel=0 note=34 velocity=79 time=0
note_off channel=0 note=34 velocity=64 time=480
note_on channel=0 note=35 velocity=80 time=0
note_off channel=0 note=35 velocity=64 time=480
note_on channel=0 note=36 velocity=82 time=0
note_off channel=0 note=36 velocity=64 time=192
note_on channel=0 note=41 velocity=75 time=608
note_off channel=0 note=41 velocity=64 time=3976
<meta message end_of_track time=0>
<meta message text text='Piano' time=0>
control_change channel=1 control=11 value=96 time=0
control_change channel=1 control=7 value=94 time=0
control_change channel=1 control=10 value=35 time=0
control_change channel=1 control=91 value=81 time=0
control_change channel=1 control=93 value=5 time=0
control_change channel=1 control=0 value=56 time=0
control_change channel=1 control=32 value=0 time=0
program_change channel=1 program=0 time=0
note_on channel=1 note=75 velocity=81 time=6080
note_on channel=1 note=80 velocity=81 time=0
control_change channel=1 control=64 value=0 time=540
note_off channel=1 note=75 velocity=64 time=28
note_off channel=1 note=80 velocity=64 time=0
note_on channel=1 note=76 velocity=80 time=72
note_on channel=1 note=81 velocity=80 time=0
note_off channel=1 note=76 velocity=64 time=120
note_off channel=1 note=81 velocity=64 time=0
control_change channel=1 control=64 value=0 time=260
note_on channel=1 note=74 velocity=81 time=100
note_off channel=1 note=74 velocity=64 time=120
control_change channel=1 control=64 value=0 time=360
note_on channel=1 note=75 velocity=81 time=0
note_on channel=1 note=80 velocity=81 time=0
note_off channel=1 note=75 velocity=64 time=752
note_off channel=1 note=80 velocity=64 time=0
note_on channel=1 note=76 velocity=81 time=48
note_on channel=1 note=81 velocity=81 time=0
control_change channel=1 control=64 value=0 time=160
control_change channel=1 control=64 value=0 time=860
note_off channel=1 note=76 velocity=64 time=52
note_off channel=1 note=81 velocity=64 time=0
control_change channel=1 control=11 value=96 time=48
note_on channel=1 note=72 velocity=74 time=340
note_on channel=1 note=63 velocity=54 time=24
note_on channel=1 note=57 velocity=57 time=0
note_on channel=1 note=69 velocity=59 time=20
note_on channel=1 note=68 velocity=57 time=32
control_change channel=1 control=11 value=98 time=352
note_off channel=1 note=72 velocity=64 time=192
note_off channel=1 note=68 velocity=64 time=0
note_off channel=1 note=69 velocity=64 time=0
note_off channel=1 note=57 velocity=64 time=0
note_off channel=1 note=63 velocity=64 time=0
control_change channel=1 control=64 value=0 time=0
note_on channel=1 note=60 velocity=58 time=20
note_on channel=1 note=52 velocity=50 time=4
note_on channel=1 note=57 velocity=56 time=4
note_on channel=1 note=67 velocity=61 time=4
note_off channel=1 note=60 velocity=64 time=124
note_off channel=1 note=52 velocity=64 time=16
note_off channel=1 note=57 velocity=64 time=0
note_off channel=1 note=67 velocity=64 time=20
control_change channel=1 control=64 value=0 time=288
note_on channel=1 note=60 velocity=58 time=20
note_on channel=1 note=50 velocity=50 time=4
note_on channel=1 note=57 velocity=56 time=4
note_on channel=1 note=65 velocity=61 time=4
control_change channel=1 control=11 value=99 time=64
note_off channel=1 note=60 velocity=64 time=60
note_off channel=1 note=50 velocity=64 time=16
note_off channel=1 note=57 velocity=64 time=0
note_off channel=1 note=65 velocity=64 time=20
control_change channel=1 control=64 value=0 time=288
note_on channel=1 note=62 velocity=68 time=20
note_on channel=1 note=69 velocity=70 time=16
note_off channel=1 note=62 velocity=64 time=80
note_off channel=1 note=69 velocity=64 time=4
control_change channel=1 control=11 value=100 time=264
control_change channel=1 control=64 value=0 time=576
control_change channel=1 control=11 value=101 time=192
note_on channel=1 note=50 velocity=77 time=204
note_off channel=1 note=50 velocity=64 time=44
note_on channel=1 note=66 velocity=95 time=72
note_on channel=1 note=64 velocity=93 time=4
note_off channel=1 note=64 velocity=64 time=216
note_off channel=1 note=66 velocity=64 time=16
control_change channel=1 control=64 value=0 time=112
note_on channel=1 note=63 velocity=58 time=20
note_on channel=1 note=53 velocity=50 time=4
note_on channel=1 note=59 velocity=56 time=4
note_on channel=1 note=67 velocity=61 time=4
control_change channel=1 control=11 value=103 time=68
note_off channel=1 note=63 velocity=64 time=148
note_off channel=1 note=53 velocity=64 time=16
note_off channel=1 note=59 velocity=64 time=0
note_off channel=1 note=67 velocity=64 time=20
control_change channel=1 control=11 value=104 time=584
control_change channel=1 control=64 value=0 time=192
note_on channel=1 note=69 velocity=77 time=364
note_on channel=1 note=62 velocity=68 time=4
note_on channel=1 note=53 velocity=67 time=4
note_on channel=1 note=59 velocity=42 time=12
note_off channel=1 note=62 velocity=64 time=52
note_off channel=1 note=59 velocity=64 time=0
note_off channel=1 note=53 velocity=64 time=12
note_off channel=1 note=69 velocity=64 time=4
control_change channel=1 control=64 value=0 time=28
note_on channel=1 note=62 velocity=60 time=60
note_on channel=1 note=65 velocity=46 time=0
note_on channel=1 note=59 velocity=52 time=4
note_on channel=1 note=69 velocity=47 time=12
control_change channel=1 control=11 value=105 time=20
note_off channel=1 note=62 velocity=64 time=80
note_off channel=1 note=69 velocity=64 time=16
note_off channel=1 note=59 velocity=64 time=0
note_off channel=1 note=65 velocity=64 time=0
control_change channel=1 control=64 value=0 time=288
note_on channel=1 note=56 velocity=54 time=12
note_on channel=1 note=58 velocity=52 time=0
note_on channel=1 note=52 velocity=47 time=4
note_on channel=1 note=36 velocity=46 time=4
control_change channel=1 control=11 value=106 time=364
note_off channel=1 note=58 velocity=64 time=216
note_off channel=1 note=52 velocity=64 time=32
note_off channel=1 note=56 velocity=64 time=52
note_off channel=1 note=36 velocity=64 time=64
note_on channel=1 note=47 velocity=66 time=140
note_off channel=1 note=47 velocity=64 time=72
control_change channel=1 control=64 value=0 time=0
note_on channel=1 note=62 velocity=69 time=20
note_on channel=1 note=52 velocity=69 time=4
note_on channel=1 note=58 velocity=69 time=4
note_on channel=1 note=67 velocity=69 time=4
note_off channel=1 note=62 velocity=64 time=124
note_off channel=1 note=52 velocity=64 time=16
note_off channel=1 note=58 velocity=64 time=0
note_off channel=1 note=67 velocity=64 time=20
control_change channel=1 control=11 value=108 time=0
control_change channel=1 control=64 value=0 time=148
note_on channel=1 note=62 velocity=77 time=140
note_on channel=1 note=58 velocity=77 time=0
note_on channel=1 note=52 velocity=77 time=0
note_on channel=1 note=48 velocity=77 time=0
note_on channel=1 note=74 velocity=77 time=0
note_on channel=1 note=70 velocity=77 time=0
note_on channel=1 note=67 velocity=77 time=0
note_on channel=1 note=64 velocity=77 time=0
note_off channel=1 note=62 velocity=64 time=272
note_off channel=1 note=64 velocity=64 time=0
note_off channel=1 note=67 velocity=64 time=0
note_off channel=1 note=70 velocity=64 time=0
note_off channel=1 note=74 velocity=64 time=0
note_off channel=1 note=48 velocity=64 time=0
note_off channel=1 note=52 velocity=64 time=0
note_off channel=1 note=58 velocity=64 time=0
note_on channel=1 note=62 velocity=81 time=48
note_on channel=1 note=60 velocity=81 time=0
note_on channel=1 note=57 velocity=81 time=0
note_on channel=1 note=53 velocity=81 time=0
note_on channel=1 note=77 velocity=81 time=0
note_on channel=1 note=74 velocity=81 time=0
note_on channel=1 note=72 velocity=81 time=0
note_on channel=1 note=67 velocity=81 time=0
note_off channel=1 note=62 velocity=64 time=124
note_off channel=1 note=67 velocity=64 time=0
note_off channel=1 note=72 velocity=64 time=0
note_off channel=1 note=74 velocity=64 time=0
note_off channel=1 note=77 velocity=64 time=0
note_off channel=1 note=53 velocity=64 time=0
note_off channel=1 note=57 velocity=64 time=0
note_off channel=1 note=60 velocity=64 time=0
control_change channel=1 control=64 value=0 time=36
control_change channel=1 control=11 value=109 time=0
control_change channel=1 control=11 value=108 time=240
control_change channel=1 control=11 value=106 time=240
control_change channel=1 control=11 value=105 time=240
control_change channel=1 control=11 value=104 time=240
control_change channel=1 control=11 value=103 time=240
control_change channel=1 control=11 value=101 time=240
control_change channel=1 control=11 value=100 time=240
control_change channel=1 control=11 value=99 time=240
control_change channel=1 control=11 value=98 time=240
control_change channel=1 control=11 value=96 time=240
control_change channel=1 control=11 value=95 time=240
control_change channel=1 control=11 value=94 time=240
control_change channel=1 control=11 value=93 time=240
control_change channel=1 control=11 value=91 time=240
control_change channel=1 control=11 value=90 time=240
control_change channel=1 control=11 value=89 time=240
note_on channel=1 note=62 velocity=56 time=60
note_on channel=1 note=65 velocity=56 time=0
note_on channel=1 note=59 velocity=56 time=4
note_on channel=1 note=67 velocity=56 time=12
note_off channel=1 note=62 velocity=64 time=100
note_off channel=1 note=67 velocity=64 time=16
note_off channel=1 note=59 velocity=64 time=0
note_off channel=1 note=65 velocity=64 time=0
note_on channel=1 note=74 velocity=100 time=206
control_change channel=1 control=64 value=0 time=82
note_off channel=1 note=74 velocity=65 time=53
note_on channel=1 note=80 velocity=92 time=9
note_on channel=1 note=75 velocity=92 time=0
note_off channel=1 note=80 velocity=33 time=123
note_off channel=1 note=75 velocity=33 time=0
note_on channel=1 note=75 velocity=56 time=155
note_on channel=1 note=65 velocity=56 time=24
note_on channel=1 note=59 velocity=56 time=0
note_on channel=1 note=71 velocity=56 time=20
note_on channel=1 note=67 velocity=56 time=32
note_off channel=1 note=75 velocity=64 time=64
note_off channel=1 note=67 velocity=64 time=0
note_off channel=1 note=71 velocity=64 time=0
note_off channel=1 note=59 velocity=64 time=0
note_off channel=1 note=65 velocity=64 time=0
control_change channel=1 control=64 value=0 time=0
note_on channel=1 note=81 velocity=86 time=21
note_on channel=1 note=76 velocity=86 time=0
note_on channel=1 note=81 velocity=83 time=1
note_on channel=1 note=76 velocity=83 time=0
note_off channel=1 note=81 velocity=53 time=276
note_off channel=1 note=76 velocity=53 time=0
note_off channel=1 note=81 velocity=59 time=14
note_off channel=1 note=76 velocity=59 time=0
note_on channel=1 note=74 velocity=86 time=53
note_on channel=1 note=62 velocity=56 time=3
note_on channel=1 note=57 velocity=56 time=8
note_on channel=1 note=69 velocity=56 time=4
note_on channel=1 note=43 velocity=56 time=24
note_off channel=1 note=74 velocity=58 time=52
note_off channel=1 note=62 velocity=64 time=20
note_off channel=1 note=69 velocity=64 time=0
note_off channel=1 note=43 velocity=64 time=12
note_off channel=1 note=57 velocity=64 time=20
note_on channel=1 note=64 velocity=56 time=20
note_off channel=1 note=64 velocity=64 time=260
note_on channel=1 note=80 velocity=92 time=47
note_on channel=1 note=57 velocity=56 time=49
note_off channel=1 note=57 velocity=64 time=76
control_change channel=1 control=64 value=0 time=0
note_on channel=1 note=60 velocity=56 time=60
note_on channel=1 note=64 velocity=56 time=0
note_on channel=1 note=58 velocity=56 time=4
note_on channel=1 note=68 velocity=56 time=12
note_off channel=1 note=60 velocity=64 time=100
note_off channel=1 note=68 velocity=64 time=16
note_off channel=1 note=58 velocity=64 time=0
note_off channel=1 note=64 velocity=64 time=0
note_off channel=1 note=80 velocity=41 time=175
note_on channel=1 note=81 velocity=64 time=2
note_on channel=1 note=48 velocity=56 time=155
note_on channel=1 note=80 velocity=56 time=9
note_off channel=1 note=81 velocity=45 time=7
note_off channel=1 note=80 velocity=40 time=137
note_on channel=1 note=81 velocity=60 time=19
note_off channel=1 note=48 velocity=64 time=28
note_on channel=1 note=80 velocity=59 time=92
note_off channel=1 note=81 velocity=52 time=45
note_off channel=1 note=80 velocity=49 time=72
control_change channel=1 control=64 value=0 time=27
note_on channel=1 note=81 velocity=65 time=5
note_off channel=1 note=81 velocity=69 time=295
note_on channel=1 note=74 velocity=67 time=53
note_on channel=1 note=64 velocity=56 time=11
note_on channel=1 note=58 velocity=56 time=0
note_on channel=1 note=70 velocity=56 time=20
note_on channel=1 note=67 velocity=56 time=32
note_off channel=1 note=74 velocity=57 time=11
note_off channel=1 note=67 velocity=64 time=393
note_off channel=1 note=70 velocity=64 time=0
note_off channel=1 note=58 velocity=64 time=0
note_off channel=1 note=64 velocity=64 time=0
control_change channel=1 control=64 value=0 time=40
note_on channel=1 note=65 velocity=56 time=140
note_on channel=1 note=41 velocity=56 time=4
note_on channel=1 note=60 velocity=56 time=4
note_off channel=1 note=65 velocity=64 time=80
note_off channel=1 note=60 velocity=64 time=36
note_off channel=1 note=41 velocity=64 time=4
note_on channel=1 note=74 velocity=100 time=185
control_change channel=1 control=64 value=0 time=127
note_off channel=1 note=74 velocity=62 time=2
note_on channel=1 note=80 velocity=100 time=22
note_on channel=1 note=75 velocity=100 time=0
note_on channel=1 note=63 velocity=56 time=16
note_on channel=1 note=60 velocity=56 time=4
note_on channel=1 note=41 velocity=56 time=0
note_on channel=1 note=57 velocity=56 time=4
note_off channel=1 note=60 velocity=64 time=80
note_off channel=1 note=63 velocity=64 time=20
note_off channel=1 note=57 velocity=64 time=16
note_off channel=1 note=75 velocity=39 time=4
note_off channel=1 note=41 velocity=64 time=0
note_off channel=1 note=80 velocity=39 time=0
control_change channel=1 control=64 value=0 time=312
note_on channel=1 note=60 velocity=56 time=20
note_on channel=1 note=81 velocity=86 time=9
note_on channel=1 note=76 velocity=86 time=0
note_on channel=1 note=67 velocity=56 time=7
note_off channel=1 note=60 velocity=64 time=80
note_off channel=1 note=67 velocity=64 time=4
note_off channel=1 note=76 velocity=61 time=209
note_off channel=1 note=81 velocity=61 time=0
note_on channel=1 note=74 velocity=86 time=31
note_off channel=1 note=74 velocity=58 time=93
note_on channel=1 note=80 velocity=92 time=382
control_change channel=1 control=64 value=0 time=125
note_off channel=1 note=80 velocity=41 time=367
note_on channel=1 note=62 velocity=64 time=1
note_on channel=1 note=81 velocity=64 time=1
note_on channel=1 note=57 velocity=64 time=7
note_on channel=1 note=69 velocity=64 time=4
note_on channel=1 note=50 velocity=56 time=24
note_off channel=1 note=62 velocity=64 time=72
note_off channel=1 note=69 velocity=64 time=0
note_off channel=1 note=50 velocity=64 time=12
note_off channel=1 note=57 velocity=64 time=20
note_on channel=1 note=65 velocity=56 time=20
note_on channel=1 note=80 velocity=56 time=5
note_off channel=1 note=81 velocity=45 time=7
note_off channel=1 note=80 velocity=40 time=137
note_on channel=1 note=81 velocity=60 time=19
note_off channel=1 note=65 velocity=64 time=92
note_on channel=1 note=80 velocity=59 time=28
note_off channel=1 note=81 velocity=52 time=45
note_on channel=1 note=57 velocity=56 time=23
note_off channel=1 note=80 velocity=49 time=49
note_off channel=1 note=57 velocity=64 time=27
control_change channel=1 control=64 value=0 time=0
note_on channel=1 note=81 velocity=65 time=5
note_off channel=1 note=81 velocity=69 time=295
note_on channel=1 note=74 velocity=89 time=31
note_on channel=1 note=50 velocity=56 time=65
note_off channel=1 note=74 velocity=64 time=41
note_off channel=1 note=50 velocity=64 time=3
note_on channel=1 note=66 velocity=56 time=72
note_on channel=1 note=64 velocity=56 time=4
note_off channel=1 note=64 velocity=64 time=216
note_off channel=1 note=66 velocity=64 time=16
control_change channel=1 control=64 value=0 time=212
note_on channel=1 note=65 velocity=56 time=40
note_on channel=1 note=62 velocity=56 time=4
note_on channel=1 note=43 velocity=56 time=0
note_on channel=1 note=59 velocity=56 time=4
note_off channel=1 note=62 velocity=64 time=80
note_off channel=1 note=65 velocity=64 time=20
note_off channel=1 note=59 velocity=64 time=16
note_off channel=1 note=43 velocity=64 time=4
note_on channel=1 note=74 velocity=105 time=163
note_off channel=1 note=74 velocity=57 time=142
control_change channel=1 control=64 value=0 time=7
note_on channel=1 note=80 velocity=115 time=12
note_on channel=1 note=75 velocity=115 time=0
note_off channel=1 note=80 velocity=43 time=120
note_off channel=1 note=75 velocity=43 time=0
control_change channel=1 control=64 value=0 time=248
control_change channel=1 control=64 value=0 time=0
note_on channel=1 note=81 velocity=86 time=131
note_on channel=1 note=76 velocity=86 time=0
note_off channel=1 note=81 velocity=59 time=307
note_off channel=1 note=76 velocity=59 time=0
note_on channel=1 note=65 velocity=56 time=26
note_on channel=1 note=59 velocity=56 time=0
note_on channel=1 note=74 velocity=75 time=5
note_on channel=1 note=71 velocity=56 time=15
note_on channel=1 note=69 velocity=56 time=32
note_off channel=1 note=74 velocity=54 time=49
note_on channel=1 note=80 velocity=92 time=370
note_off channel=1 note=69 velocity=64 time=125
note_off channel=1 note=59 velocity=64 time=0
note_off channel=1 note=71 velocity=64 time=0
note_off channel=1 note=65 velocity=64 time=0
control_change channel=1 control=64 value=0 time=0
note_on channel=1 note=72 velocity=56 time=340
note_on channel=1 note=64 velocity=56 time=24
note_on channel=1 note=58 velocity=56 time=0
note_off channel=1 note=80 velocity=41 time=3
note_on channel=1 note=81 velocity=64 time=2
note_on channel=1 note=70 velocity=56 time=15
note_on channel=1 note=68 velocity=56 time=32
note_on channel=1 note=80 velocity=56 time=117
note_off channel=1 note=81 velocity=45 time=7
note_off channel=1 note=80 velocity=40 time=137
note_on channel=1 note=81 velocity=60 time=19
note_on channel=1 note=80 velocity=59 time=120
note_off channel=1 note=81 velocity=52 time=45
note_off channel=1 note=80 velocity=49 time=72
note_off channel=1 note=64 velocity=64 time=27
note_off channel=1 note=70 velocity=64 time=0
note_off channel=1 note=72 velocity=64 time=0
note_off channel=1 note=68 velocity=64 time=0
note_off channel=1 note=58 velocity=64 time=0
control_change channel=1 control=64 value=0 time=0
note_on channel=1 note=81 velocity=65 time=5
note_on channel=1 note=62 velocity=56 time=15
note_on channel=1 note=67 velocity=56 time=16
note_off channel=1 note=62 velocity=64 time=80
note_off channel=1 note=67 velocity=64 time=4
note_off channel=1 note=81 velocity=69 time=180
note_on channel=1 note=72 velocity=67 time=33
note_off channel=1 note=72 velocity=52 time=166
note_on channel=1 note=74 velocity=77 time=14
note_off channel=1 note=74 velocity=57 time=272
note_on channel=1 note=79 velocity=67 time=31
note_on channel=1 note=75 velocity=67 time=0
note_on channel=1 note=67 velocity=56 time=508
note_on channel=1 note=60 velocity=56 time=4
note_on channel=1 note=51 velocity=56 time=4
note_on channel=1 note=58 velocity=56 time=12
note_off channel=1 note=60 velocity=64 time=52
note_off channel=1 note=58 velocity=64 time=0
note_off channel=1 note=51 velocity=64 time=12
note_off channel=1 note=67 velocity=64 time=4
note_on channel=1 note=60 velocity=56 time=524
note_on channel=1 note=58 velocity=56 time=12
note_on channel=1 note=67 velocity=56 time=0
note_on channel=1 note=51 velocity=56 time=4
note_off channel=1 note=51 velocity=64 time=60
note_off channel=1 note=60 velocity=64 time=20
note_off channel=1 note=58 velocity=64 time=4
note_off channel=1 note=67 velocity=64 time=8
note_on channel=1 note=51 velocity=56 time=724
note_off channel=1 note=79 velocity=54 time=57
note_off channel=1 note=75 velocity=54 time=0
note_off channel=1 note=51 velocity=64 time=15
control_change channel=1 control=64 value=0 time=40
note_on channel=1 note=72 velocity=56 time=340
note_on channel=1 note=85 velocity=81 time=4
note_on channel=1 note=86 velocity=110 time=4
note_on channel=1 note=63 velocity=56 time=16
note_on channel=1 note=57 velocity=56 time=0
note_off channel=1 note=85 velocity=64 time=20
note_on channel=1 note=69 velocity=56 time=0
note_on channel=1 note=67 velocity=56 time=32
note_off channel=1 note=86 velocity=60 time=49
note_on channel=1 note=86 velocity=96 time=367
note_on channel=1 note=85 velocity=81 time=8
note_off channel=1 note=85 velocity=64 time=40
note_off channel=1 note=86 velocity=55 time=423
note_on channel=1 note=84 velocity=64 time=12
note_on channel=1 note=80 velocity=62 time=165
note_off channel=1 note=84 velocity=60 time=34
note_off channel=1 note=63 velocity=64 time=266
note_off channel=1 note=67 velocity=64 time=0
note_off channel=1 note=69 velocity=64 time=0
note_off channel=1 note=57 velocity=64 time=0
note_off channel=1 note=80 velocity=49 time=8
note_off channel=1 note=72 velocity=64 time=20
note_on channel=1 note=77 velocity=64 time=8
control_change channel=1 control=64 value=0 time=4
note_on channel=1 note=53 velocity=54 time=12
note_on channel=1 note=55 velocity=52 time=0
note_on channel=1 note=50 velocity=47 time=4
note_on channel=1 note=34 velocity=46 time=4
note_off channel=1 note=53 velocity=64 time=420
note_off channel=1 note=34 velocity=64 time=0
note_off channel=1 note=50 velocity=64 time=0
note_off channel=1 note=55 velocity=64 time=0
control_change channel=1 control=64 value=0 time=40
note_on channel=1 note=64 velocity=77 time=464
note_on channel=1 note=57 velocity=68 time=4
note_on channel=1 note=49 velocity=67 time=4
note_on channel=1 note=54 velocity=42 time=12
note_off channel=1 note=57 velocity=64 time=52
note_off channel=1 note=54 velocity=64 time=0
note_off channel=1 note=49 velocity=64 time=12
note_off channel=1 note=64 velocity=64 time=4
note_off channel=1 note=77 velocity=38 time=8
control_change channel=1 control=64 value=0 time=20
note_on channel=1 note=53 velocity=54 time=12
note_on channel=1 note=55 velocity=52 time=0
note_on channel=1 note=50 velocity=47 time=4
note_on channel=1 note=34 velocity=46 time=4
note_off channel=1 note=55 velocity=64 time=580
note_off channel=1 note=50 velocity=64 time=32
note_off channel=1 note=53 velocity=64 time=52
note_off channel=1 note=34 velocity=64 time=64
note_on channel=1 note=45 velocity=62 time=140
note_off channel=1 note=45 velocity=64 time=72
control_change channel=1 control=64 value=0 time=0
note_on channel=1 note=59 velocity=68 time=20
note_on channel=1 note=66 velocity=70 time=16
note_off channel=1 note=59 velocity=64 time=80
note_off channel=1 note=66 velocity=64 time=4
control_change channel=1 control=64 value=0 time=840
note_on channel=1 note=40 velocity=77 time=396
note_off channel=1 note=40 velocity=64 time=44
note_on channel=1 note=62 velocity=95 time=72
note_on channel=1 note=59 velocity=93 time=4
note_off channel=1 note=59 velocity=64 time=216
note_off channel=1 note=62 velocity=64 time=16
control_change channel=1 control=64 value=0 time=212
note_on channel=1 note=72 velocity=74 time=340
note_on channel=1 note=60 velocity=54 time=24
note_on channel=1 note=57 velocity=57 time=0
note_on channel=1 note=69 velocity=59 time=20
note_on channel=1 note=64 velocity=57 time=32
note_off channel=1 note=72 velocity=64 time=404
note_off channel=1 note=64 velocity=64 time=0
note_off channel=1 note=69 velocity=64 time=0
note_off channel=1 note=57 velocity=64 time=0
note_off channel=1 note=60 velocity=64 time=0
control_change channel=1 control=64 value=0 time=40
note_on channel=1 note=60 velocity=68 time=468
note_on channel=1 note=52 velocity=51 time=8
note_on channel=1 note=64 velocity=66 time=4
note_on channel=1 note=44 velocity=52 time=24
note_off channel=1 note=60 velocity=64 time=72
note_off channel=1 note=64 velocity=64 time=0
note_off channel=1 note=44 velocity=64 time=4
note_off channel=1 note=52 velocity=64 time=0
control_change channel=1 control=64 value=0 time=0
control_change channel=1 control=64 value=0 time=380
note_on channel=1 note=64 velocity=60 time=160
note_on channel=1 note=66 velocity=46 time=0
note_on channel=1 note=60 velocity=52 time=4
note_on channel=1 note=70 velocity=47 time=12
note_off channel=1 note=64 velocity=64 time=100
note_off channel=1 note=70 velocity=64 time=16
note_off channel=1 note=60 velocity=64 time=0
note_off channel=1 note=66 velocity=64 time=0
note_on channel=1 note=50 velocity=76 time=332
note_off channel=1 note=50 velocity=64 time=200
note_on channel=1 note=70 velocity=82 time=288
note_on channel=1 note=65 velocity=61 time=0
note_off channel=1 note=65 velocity=64 time=120
note_on channel=1 note=66 velocity=57 time=24
note_off channel=1 note=70 velocity=64 time=136
note_off channel=1 note=66 velocity=64 time=76
control_change channel=1 control=64 value=0 time=552
note_on channel=1 note=67 velocity=68 time=368
note_on channel=1 note=58 velocity=51 time=8
note_on channel=1 note=70 velocity=66 time=4
note_on channel=1 note=43 velocity=52 time=24
note_off channel=1 note=67 velocity=64 time=72
note_off channel=1 note=70 velocity=64 time=0
note_off channel=1 note=43 velocity=64 time=12
note_off channel=1 note=58 velocity=64 time=20
note_on channel=1 note=66 velocity=63 time=20
note_off channel=1 note=66 velocity=64 time=260
control_change channel=1 control=64 value=0 time=72
note_on channel=1 note=79 velocity=74 time=440
note_on channel=1 note=67 velocity=54 time=24
note_on channel=1 note=62 velocity=57 time=0
note_on channel=1 note=74 velocity=59 time=20
note_on channel=1 note=70 velocity=57 time=32
note_off channel=1 note=79 velocity=64 time=404
note_off channel=1 note=70 velocity=64 time=0
note_off channel=1 note=74 velocity=64 time=0
note_off channel=1 note=62 velocity=64 time=0
note_off channel=1 note=67 velocity=64 time=0
control_change channel=1 control=64 value=0 time=40
note_on channel=1 note=62 velocity=60 time=160
note_on channel=1 note=65 velocity=46 time=0
note_on channel=1 note=58 velocity=52 time=4
note_on channel=1 note=67 velocity=47 time=12
note_off channel=1 note=62 velocity=64 time=100
note_off channel=1 note=67 velocity=64 time=16
note_off channel=1 note=58 velocity=64 time=0
note_off channel=1 note=65 velocity=64 time=0
note_on channel=1 note=36 velocity=76 time=332
note_off channel=1 note=36 velocity=64 time=200
control_change channel=1 control=64 value=0 time=236
note_on channel=1 note=67 velocity=77 time=364
note_on channel=1 note=60 velocity=68 time=4
note_on channel=1 note=52 velocity=67 time=4
note_on channel=1 note=58 velocity=42 time=12
note_off channel=1 note=60 velocity=64 time=52
note_off channel=1 note=58 velocity=64 time=0
note_off channel=1 note=52 velocity=64 time=12
note_off channel=1 note=67 velocity=64 time=4
control_change channel=1 control=64 value=0 time=408
note_on channel=1 note=59 velocity=60 time=160
note_on channel=1 note=61 velocity=46 time=0
note_on channel=1 note=55 velocity=52 time=4
note_on channel=1 note=64 velocity=47 time=12
note_off channel=1 note=59 velocity=64 time=100
note_off channel=1 note=64 velocity=64 time=16
note_off channel=1 note=55 velocity=64 time=0
note_off channel=1 note=61 velocity=64 time=0
note_on channel=1 note=45 velocity=76 time=332
note_off channel=1 note=45 velocity=64 time=200
control_change channel=1 control=64 value=0 time=236
note_on channel=1 note=57 velocity=68 time=368
note_on channel=1 note=53 velocity=51 time=8
note_on channel=1 note=65 velocity=66 time=4
note_on channel=1 note=45 velocity=52 time=24
note_off channel=1 note=57 velocity=64 time=72
note_off channel=1 note=65 velocity=64 time=0
note_off channel=1 note=45 velocity=64 time=12
note_off channel=1 note=53 velocity=64 time=20
note_on channel=1 note=60 velocity=63 time=20
note_off channel=1 note=60 velocity=64 time=260
control_change channel=1 control=64 value=0 time=72
note_on channel=1 note=66 velocity=47 time=140
note_on channel=1 note=64 velocity=49 time=4
note_on channel=1 note=50 velocity=41 time=0
note_on channel=1 note=60 velocity=43 time=4
note_off channel=1 note=64 velocity=64 time=80
note_off channel=1 note=66 velocity=64 time=20
note_off channel=1 note=60 velocity=64 time=16
note_off channel=1 note=50 velocity=64 time=4
control_change channel=1 control=64 value=0 time=792
note_on channel=1 note=50 velocity=77 time=396
note_off channel=1 note=50 velocity=64 time=44
control_change channel=1 control=64 value=0 time=40
control_change channel=1 control=64 value=0 time=380
note_on channel=1 note=43 velocity=77 time=496
note_off channel=1 note=43 velocity=64 time=44
note_on channel=1 note=65 velocity=95 time=72
note_on channel=1 note=62 velocity=93 time=4
note_off channel=1 note=62 velocity=64 time=216
note_off channel=1 note=65 velocity=64 time=16
control_change channel=1 control=64 value=0 time=212
note_on channel=1 note=74 velocity=74 time=340
note_on channel=1 note=65 velocity=54 time=24
note_on channel=1 note=59 velocity=57 time=0
note_on channel=1 note=71 velocity=59 time=20
note_on channel=1 note=69 velocity=57 time=32
note_off channel=1 note=74 velocity=64 time=544
note_off channel=1 note=69 velocity=64 time=0
note_off channel=1 note=71 velocity=64 time=0
note_off channel=1 note=59 velocity=64 time=0
note_off channel=1 note=65 velocity=64 time=0
control_change channel=1 control=64 value=0 time=0
note_on channel=1 note=64 velocity=47 time=40
note_on channel=1 note=60 velocity=49 time=4
note_on channel=1 note=48 velocity=41 time=0
note_on channel=1 note=58 velocity=43 time=4
note_off channel=1 note=60 velocity=64 time=80
note_off channel=1 note=64 velocity=64 time=20
note_off channel=1 note=58 velocity=64 time=16
note_off channel=1 note=48 velocity=64 time=4
control_change channel=1 control=64 value=0 time=792
note_on channel=1 note=62 velocity=68 time=368
note_on channel=1 note=55 velocity=51 time=8
note_on channel=1 note=67 velocity=66 time=4
note_on channel=1 note=48 velocity=52 time=24
note_off channel=1 note=62 velocity=64 time=72
note_off channel=1 note=67 velocity=64 time=0
note_off channel=1 note=48 velocity=64 time=12
note_off channel=1 note=55 velocity=64 time=20
note_on channel=1 note=63 velocity=63 time=20
note_off channel=1 note=63 velocity=64 time=260
note_on channel=1 note=55 velocity=55 time=96
note_off channel=1 note=55 velocity=64 time=76
control_change channel=1 control=64 value=0 time=0
note_on channel=1 note=41 velocity=77 time=396
note_off channel=1 note=41 velocity=64 time=44
note_on channel=1 note=64 velocity=95 time=72
note_on channel=1 note=60 velocity=93 time=4
note_off channel=1 note=60 velocity=64 time=216
note_off channel=1 note=64 velocity=64 time=16
note_on channel=1 note=67 velocity=69 time=256
note_on channel=1 note=57 velocity=60 time=4
note_off channel=1 note=67 velocity=64 time=272
note_off channel=1 note=57 velocity=64 time=0
note_on channel=1 note=36 velocity=78 time=72
note_off channel=1 note=36 velocity=64 time=92
note_on channel=1 note=57 velocity=56 time=32
note_on channel=1 note=64 velocity=71 time=0
note_off channel=1 note=57 velocity=64 time=184
note_off channel=1 note=64 velocity=64 time=4
control_change channel=1 control=64 value=0 time=256
note_on channel=1 note=62 velocity=60 time=60
note_on channel=1 note=66 velocity=46 time=0
note_on channel=1 note=60 velocity=52 time=4
note_on channel=1 note=69 velocity=47 time=12
note_off channel=1 note=62 velocity=64 time=100
note_off channel=1 note=69 velocity=64 time=16
note_off channel=1 note=60 velocity=64 time=0
note_off channel=1 note=66 velocity=64 time=0
note_on channel=1 note=50 velocity=76 time=332
note_off channel=1 note=50 velocity=64 time=200
control_change channel=1 control=64 value=0 time=136
note_on channel=1 note=66 velocity=47 time=140
note_on channel=1 note=64 velocity=49 time=4
note_on channel=1 note=50 velocity=41 time=0
note_on channel=1 note=60 velocity=43 time=4
note_off channel=1 note=64 velocity=64 time=80
note_off channel=1 note=66 velocity=64 time=20
note_off channel=1 note=60 velocity=64 time=16
note_off channel=1 note=50 velocity=64 time=4
control_change channel=1 control=64 value=0 time=792
note_on channel=1 note=43 velocity=77 time=396
note_off channel=1 note=43 velocity=64 time=44
note_on channel=1 note=65 velocity=95 time=72
note_on channel=1 note=62 velocity=93 time=4
note_off channel=1 note=62 velocity=64 time=216
note_off channel=1 note=65 velocity=64 time=16
control_change channel=1 control=64 value=0 time=212
note_on channel=1 note=62 velocity=60 time=60
note_on channel=1 note=65 velocity=46 time=0
note_on channel=1 note=59 velocity=52 time=4
note_on channel=1 note=69 velocity=47 time=12
note_off channel=1 note=62 velocity=64 time=100
note_off channel=1 note=69 velocity=64 time=16
note_off channel=1 note=59 velocity=64 time=0
note_off channel=1 note=65 velocity=64 time=0
note_on channel=1 note=43 velocity=76 time=332
note_off channel=1 note=43 velocity=64 time=200
control_change channel=1 control=64 value=0 time=136
note_on channel=1 note=60 velocity=68 time=468
note_on channel=1 note=56 velocity=51 time=8
note_on channel=1 note=68 velocity=66 time=4
note_on channel=1 note=48 velocity=52 time=24
note_off channel=1 note=60 velocity=64 time=72
note_off channel=1 note=68 velocity=64 time=0
note_off channel=1 note=48 velocity=64 time=12
note_off channel=1 note=56 velocity=64 time=20
note_on channel=1 note=63 velocity=63 time=20
note_off channel=1 note=63 velocity=64 time=260
note_on channel=1 note=56 velocity=55 time=96
note_off channel=1 note=56 velocity=64 time=76
control_change channel=1 control=64 value=0 time=0
note_on channel=1 note=62 velocity=58 time=20
note_on channel=1 note=52 velocity=50 time=4
note_on channel=1 note=58 velocity=56 time=4
note_on channel=1 note=67 velocity=61 time=4
note_off channel=1 note=62 velocity=64 time=124
note_off channel=1 note=52 velocity=64 time=16
note_off channel=1 note=58 velocity=64 time=0
note_off channel=1 note=67 velocity=64 time=20
control_change channel=1 control=64 value=0 time=668
note_on channel=1 note=55 velocity=54 time=12
note_on channel=1 note=58 velocity=52 time=0
note_on channel=1 note=51 velocity=47 time=4
note_on channel=1 note=36 velocity=46 time=4
note_off channel=1 note=58 velocity=64 time=672
note_off channel=1 note=51 velocity=64 time=32
note_off channel=1 note=55 velocity=64 time=52
note_off channel=1 note=36 velocity=64 time=64
note_on channel=1 note=47 velocity=62 time=148
note_off channel=1 note=47 velocity=64 time=96
note_on channel=1 note=67 velocity=67 time=12
note_on channel=1 note=48 velocity=48 time=4
note_on channel=1 note=55 velocity=48 time=4
note_on channel=1 note=63 velocity=62 time=0
note_off channel=1 note=55 velocity=64 time=552
note_off channel=1 note=63 velocity=64 time=12
note_off channel=1 note=48 velocity=64 time=16
note_off channel=1 note=67 velocity=64 time=8
control_change channel=1 control=64 value=0 time=328
note_on channel=1 note=67 velocity=46 time=28
note_on channel=1 note=72 velocity=56 time=0
note_on channel=1 note=63 velocity=47 time=12
note_on channel=1 note=57 velocity=58 time=8
note_off channel=1 note=67 velocity=64 time=184
note_off channel=1 note=57 velocity=64 time=0
note_off channel=1 note=72 velocity=64 time=0
note_off channel=1 note=63 velocity=64 time=16
note_on channel=1 note=52 velocity=48 time=700
note_on channel=1 note=69 velocity=74 time=28
note_on channel=1 note=53 velocity=53 time=4
note_on channel=1 note=60 velocity=57 time=24
note_on channel=1 note=63 velocity=61 time=8
note_off channel=1 note=52 velocity=64 time=64
note_off channel=1 note=69 velocity=64 time=76
note_off channel=1 note=63 velocity=64 time=32
note_off channel=1 note=60 velocity=64 time=32
note_off channel=1 note=53 velocity=64 time=80
note_on channel=1 note=67 velocity=59 time=168
note_on channel=1 note=57 velocity=72 time=32
note_on channel=1 note=60 velocity=61 time=4
note_on channel=1 note=51 velocity=67 time=8
note_off channel=1 note=67 velocity=64 time=132
note_off channel=1 note=57 velocity=64 time=4
note_off channel=1 note=60 velocity=64 time=8
note_off channel=1 note=51 velocity=64 time=32
control_change channel=1 control=64 value=0 time=236
note_on channel=1 note=58 velocity=68 time=20
note_on channel=1 note=65 velocity=70 time=16
note_off channel=1 note=58 velocity=64 time=80
note_off channel=1 note=65 velocity=64 time=4
control_change channel=1 control=64 value=0 time=360
note_on channel=1 note=57 velocity=68 time=368
note_on channel=1 note=52 velocity=51 time=8
note_on channel=1 note=64 velocity=66 time=4
note_on channel=1 note=45 velocity=52 time=24
note_off channel=1 note=57 velocity=64 time=72
note_off channel=1 note=64 velocity=64 time=0
note_off channel=1 note=45 velocity=64 time=4
note_off channel=1 note=52 velocity=64 time=0
control_change channel=1 control=64 value=0 time=0
note_on channel=1 note=46 velocity=77 time=396
note_off channel=1 note=46 velocity=64 time=44
note_on channel=1 note=62 velocity=95 time=72
note_on channel=1 note=58 velocity=93 time=4
note_off channel=1 note=58 velocity=64 time=216
note_off channel=1 note=62 velocity=64 time=16
control_change channel=1 control=64 value=0 time=212
note_on channel=1 note=53 velocity=54 time=12
note_on channel=1 note=56 velocity=52 time=0
note_on channel=1 note=49 velocity=47 time=4
note_on channel=1 note=34 velocity=46 time=4
note_off channel=1 note=53 velocity=64 time=460
note_off channel=1 note=34 velocity=64 time=0
note_off channel=1 note=49 velocity=64 time=0
note_off channel=1 note=56 velocity=64 time=0
control_change channel=1 control=64 value=0 time=0
note_on channel=1 note=58 velocity=68 time=20
note_on channel=1 note=65 velocity=70 time=16
note_off channel=1 note=58 velocity=64 time=80
note_off channel=1 note=65 velocity=64 time=4
control_change channel=1 control=64 value=0 time=260
note_on channel=1 note=58 velocity=68 time=20
note_on channel=1 note=65 velocity=70 time=16
note_off channel=1 note=58 velocity=64 time=172
note_off channel=1 note=65 velocity=64 time=4
control_change channel=1 control=64 value=0 time=748
note_on channel=1 note=60 velocity=60 time=160
note_on channel=1 note=62 velocity=46 time=0
note_on channel=1 note=57 velocity=52 time=4
note_on channel=1 note=65 velocity=47 time=12
note_off channel=1 note=60 velocity=64 time=100
note_off channel=1 note=65 velocity=64 time=16
note_off channel=1 note=57 velocity=64 time=0
note_off channel=1 note=62 velocity=64 time=0
control_change channel=1 control=64 value=0 time=288
note_on channel=1 note=59 velocity=68 time=20
note_on channel=1 note=64 velocity=70 time=16
note_off channel=1 note=59 velocity=64 time=80
note_off channel=1 note=64 velocity=64 time=4
control_change channel=1 control=64 value=0 time=360
note_on channel=1 note=58 velocity=68 time=20
note_on channel=1 note=65 velocity=70 time=16
note_off channel=1 note=58 velocity=64 time=80
note_off channel=1 note=65 velocity=64 time=4
control_change channel=1 control=64 value=0 time=360
note_on channel=1 note=64 velocity=68 time=20
note_on channel=1 note=69 velocity=70 time=16
note_off channel=1 note=64 velocity=64 time=80
note_off channel=1 note=69 velocity=64 time=4
control_change channel=1 control=64 value=0 time=360
note_on channel=1 note=69 velocity=74 time=340
note_on channel=1 note=60 velocity=54 time=24
note_on channel=1 note=55 velocity=57 time=0
note_on channel=1 note=67 velocity=59 time=20
note_on channel=1 note=64 velocity=57 time=32
note_off channel=1 note=69 velocity=64 time=544
note_off channel=1 note=64 velocity=64 time=0
note_off channel=1 note=67 velocity=64 time=0
note_off channel=1 note=55 velocity=64 time=0
note_off channel=1 note=60 velocity=64 time=0
control_change channel=1 control=64 value=0 time=0
note_on channel=1 note=62 velocity=68 time=20
note_on channel=1 note=69 velocity=70 time=16
note_off channel=1 note=62 velocity=64 time=80
note_off channel=1 note=69 velocity=64 time=4
control_change channel=1 control=64 value=0 time=840
note_on channel=1 note=62 velocity=60 time=60
note_on channel=1 note=65 velocity=46 time=0
note_on channel=1 note=59 velocity=52 time=4
note_on channel=1 note=69 velocity=47 time=12
note_off channel=1 note=62 velocity=64 time=100
note_off channel=1 note=69 velocity=64 time=16
note_off channel=1 note=59 velocity=64 time=0
note_off channel=1 note=65 velocity=64 time=0
control_change channel=1 control=64 value=0 time=188
note_on channel=1 note=63 velocity=60 time=160
note_on channel=1 note=65 velocity=46 time=0
note_on channel=1 note=59 velocity=52 time=4
note_on channel=1 note=67 velocity=47 time=12
note_off channel=1 note=63 velocity=64 time=100
note_off channel=1 note=67 velocity=64 time=16
note_off channel=1 note=59 velocity=64 time=0
note_off channel=1 note=65 velocity=64 time=0
control_change channel=1 control=64 value=0 time=288
note_on channel=1 note=62 velocity=68 time=368
note_on channel=1 note=57 velocity=51 time=8
note_on channel=1 note=69 velocity=66 time=4
note_on channel=1 note=43 velocity=52 time=24
note_off channel=1 note=62 velocity=64 time=72
note_off channel=1 note=69 velocity=64 time=0
note_off channel=1 note=43 velocity=64 time=12
note_off channel=1 note=57 velocity=64 time=20
note_on channel=1 note=64 velocity=63 time=20
note_off channel=1 note=64 velocity=64 time=260
note_on channel=1 note=57 velocity=55 time=96
note_off channel=1 note=57 velocity=64 time=76
control_change channel=1 control=64 value=0 time=0
note_on channel=1 note=63 velocity=68 time=20
note_on channel=1 note=67 velocity=70 time=16
note_off channel=1 note=63 velocity=64 time=80
note_off channel=1 note=67 velocity=64 time=4
control_change channel=1 control=64 value=0 time=840
note_on channel=1 note=64 velocity=47 time=40
note_on channel=1 note=63 velocity=49 time=4
note_on channel=1 note=48 velocity=41 time=0
note_on channel=1 note=58 velocity=43 time=4
note_off channel=1 note=63 velocity=64 time=80
note_off channel=1 note=64 velocity=64 time=20
note_off channel=1 note=58 velocity=64 time=16
note_off channel=1 note=48 velocity=64 time=4
control_change channel=1 control=64 value=0 time=172
control_change channel=1 control=64 value=0 time=620
control_change channel=1 control=91 value=100 time=0
control_change channel=1 control=11 value=109 time=0
control_change channel=1 control=64 value=127 time=24
note_on channel=1 note=48 velocity=106 time=296
note_on channel=1 note=36 velocity=106 time=0
note_off channel=1 note=48 velocity=64 time=184
note_off channel=1 note=36 velocity=64 time=0
control_change channel=1 control=11 value=109 time=1416
control_change channel=1 control=11 value=108 time=120
control_change channel=1 control=11 value=106 time=120
control_change channel=1 control=11 value=105 time=120
control_change channel=1 control=11 value=104 time=120
control_change channel=1 control=11 value=103 time=120
control_change channel=1 control=11 value=101 time=120
control_change channel=1 control=11 value=100 time=120
control_change channel=1 control=11 value=99 time=120
control_change channel=1 control=11 value=98 time=120
control_change channel=1 control=11 value=96 time=120
control_change channel=1 control=11 value=95 time=120
control_change channel=1 control=11 value=94 time=120
control_change channel=1 control=11 value=93 time=120
control_change channel=1 control=11 value=91 time=120
control_change channel=1 control=11 value=90 time=120
control_change channel=1 control=11 value=89 time=96
control_change channel=1 control=64 value=0 time=24
control_change channel=1 control=91 value=81 time=0
control_change channel=1 control=11 value=90 time=312
note_on channel=1 note=43 velocity=77 time=84
note_off channel=1 note=43 velocity=64 time=44
note_on channel=1 note=65 velocity=95 time=72
note_on channel=1 note=62 velocity=93 time=4
control_change channel=1 control=11 value=91 time=108
note_off channel=1 note=62 velocity=64 time=108
note_off channel=1 note=65 velocity=64 time=16
control_change channel=1 control=64 value=0 time=212
control_change channel=1 control=11 value=93 time=0
note_on channel=1 note=62 velocity=68 time=20
note_on channel=1 note=69 velocity=70 time=16
note_off channel=1 note=62 velocity=64 time=80
note_off channel=1 note=69 velocity=64 time=4
control_change channel=1 control=11 value=94 time=192
control_change channel=1 control=64 value=0 time=168
note_on channel=1 note=63 velocity=68 time=20
note_on channel=1 note=69 velocity=70 time=16
note_off channel=1 note=63 velocity=64 time=80
note_off channel=1 note=69 velocity=64 time=4
control_change channel=1 control=11 value=95 time=48
control_change channel=1 control=11 value=96 time=312
control_change channel=1 control=64 value=0 time=0
note_on channel=1 note=62 velocity=68 time=368
note_on channel=1 note=55 velocity=51 time=8
note_on channel=1 note=67 velocity=66 time=4
note_on channel=1 note=48 velocity=52 time=24
note_off channel=1 note=62 velocity=64 time=72
note_off channel=1 note=67 velocity=64 time=0
note_off channel=1 note=48 velocity=64 time=12
note_off channel=1 note=55 velocity=64 time=20
note_on channel=1 note=63 velocity=63 time=20
note_off channel=1 note=63 velocity=64 time=260
note_on channel=1 note=55 velocity=55 time=96
note_off channel=1 note=55 velocity=64 time=76
control_change channel=1 control=64 value=0 time=0
note_on channel=1 note=64 velocity=47 time=40
note_on channel=1 note=62 velocity=49 time=4
note_on channel=1 note=48 velocity=41 time=0
note_on channel=1 note=58 velocity=43 time=4
note_off channel=1 note=62 velocity=64 time=80
note_off channel=1 note=64 velocity=64 time=20
note_off channel=1 note=58 velocity=64 time=16
note_off channel=1 note=48 velocity=64 time=4
control_change channel=1 control=64 value=0 time=312
control_change channel=1 control=64 value=0 time=380
note_on channel=1 note=60 velocity=60 time=160
note_on channel=1 note=62 velocity=46 time=0
note_on channel=1 note=57 velocity=52 time=4
note_on channel=1 note=65 velocity=47 time=12
note_off channel=1 note=60 velocity=64 time=100
note_off channel=1 note=65 velocity=64 time=16
note_off channel=1 note=57 velocity=64 time=0
note_off channel=1 note=62 velocity=64 time=0
note_on channel=1 note=41 velocity=76 time=332
note_off channel=1 note=41 velocity=64 time=200
control_change channel=1 control=64 value=0 time=236
note_on channel=1 note=60 velocity=47 time=40
note_on channel=1 note=57 velocity=49 time=4
note_on channel=1 note=45 velocity=41 time=0
note_on channel=1 note=55 velocity=43 time=4
note_off channel=1 note=57 velocity=64 time=80
note_off channel=1 note=60 velocity=64 time=20
note_off channel=1 note=55 velocity=64 time=16
note_off channel=1 note=45 velocity=64 time=4
control_change channel=1 control=64 value=0 time=312
note_on channel=1 note=65 velocity=77 time=364
note_on channel=1 note=58 velocity=68 time=4
note_on channel=1 note=49 velocity=67 time=4
note_on channel=1 note=55 velocity=42 time=12
note_off channel=1 note=58 velocity=64 time=52
note_off channel=1 note=55 velocity=64 time=0
note_off channel=1 note=49 velocity=64 time=12
note_off channel=1 note=65 velocity=64 time=4
control_change channel=1 control=64 value=0 time=28
note_on channel=1 note=70 velocity=77 time=364
note_on channel=1 note=64 velocity=68 time=4
note_on channel=1 note=54 velocity=67 time=4
note_on channel=1 note=60 velocity=42 time=12
note_off channel=1 note=64 velocity=64 time=52
note_off channel=1 note=60 velocity=64 time=0
note_off channel=1 note=54 velocity=64 time=12
note_off channel=1 note=70 velocity=64 time=4
note_on channel=1 note=64 velocity=61 time=524
note_on channel=1 note=60 velocity=61 time=12
note_on channel=1 note=70 velocity=59 time=0
note_on channel=1 note=54 velocity=59 time=4
note_off channel=1 note=54 velocity=64 time=60
note_off channel=1 note=64 velocity=64 time=20
note_off channel=1 note=60 velocity=64 time=4
note_off channel=1 note=70 velocity=64 time=8
note_on channel=1 note=53 velocity=55 time=724
note_off channel=1 note=53 velocity=64 time=72
control_change channel=1 control=64 value=0 time=40
note_on channel=1 note=63 velocity=68 time=20
note_on channel=1 note=69 velocity=70 time=16
note_off channel=1 note=63 velocity=64 time=80
note_off channel=1 note=69 velocity=64 time=4
control_change channel=1 control=64 value=0 time=740
note_on channel=1 note=63 velocity=60 time=160
note_on channel=1 note=65 velocity=46 time=0
note_on channel=1 note=59 velocity=52 time=4
note_on channel=1 note=69 velocity=47 time=12
note_off channel=1 note=63 velocity=64 time=100
note_off channel=1 note=69 velocity=64 time=16
note_off channel=1 note=59 velocity=64 time=0
note_off channel=1 note=65 velocity=64 time=0
control_change channel=1 control=64 value=0 time=288
note_on channel=1 note=62 velocity=68 time=20
note_on channel=1 note=69 velocity=70 time=16
note_off channel=1 note=62 velocity=64 time=80
note_off channel=1 note=69 velocity=64 time=4
control_change channel=1 control=64 value=0 time=260
note_on channel=1 note=60 velocity=68 time=468
note_on channel=1 note=55 velocity=51 time=8
note_on channel=1 note=67 velocity=66 time=4
note_on channel=1 note=48 velocity=52 time=24
note_off channel=1 note=60 velocity=64 time=72
note_off channel=1 note=67 velocity=64 time=0
note_off channel=1 note=48 velocity=64 time=12
note_off channel=1 note=55 velocity=64 time=20
note_on channel=1 note=63 velocity=63 time=20
note_off channel=1 note=63 velocity=64 time=260
note_on channel=1 note=55 velocity=55 time=96
note_off channel=1 note=55 velocity=64 time=76
control_change channel=1 control=64 value=0 time=0
control_change channel=1 control=64 value=0 time=380
note_on channel=1 note=62 velocity=58 time=20
note_on channel=1 note=52 velocity=50 time=4
note_on channel=1 note=58 velocity=56 time=4
note_on channel=1 note=67 velocity=61 time=4
note_off channel=1 note=62 velocity=64 time=216
note_off channel=1 note=52 velocity=64 time=16
note_off channel=1 note=58 velocity=64 time=0
note_off channel=1 note=67 velocity=64 time=20
control_change channel=1 control=64 value=0 time=196
note_on channel=1 note=67 velocity=77 time=464
note_on channel=1 note=60 velocity=68 time=4
note_on channel=1 note=51 velocity=67 time=4
note_on channel=1 note=58 velocity=42 time=12
note_off channel=1 note=60 velocity=64 time=52
note_off channel=1 note=58 velocity=64 time=0
note_off channel=1 note=51 velocity=64 time=12
note_off channel=1 note=67 velocity=64 time=4
note_on channel=1 note=60 velocity=61 time=524
note_on channel=1 note=58 velocity=61 time=12
note_on channel=1 note=67 velocity=59 time=0
note_on channel=1 note=51 velocity=59 time=4
note_off channel=1 note=51 velocity=64 time=60
note_off channel=1 note=60 velocity=64 time=20
note_off channel=1 note=58 velocity=64 time=4
note_off channel=1 note=67 velocity=64 time=8
control_change channel=1 control=64 value=0 time=836
note_on channel=1 note=67 velocity=77 time=364
note_on channel=1 note=60 velocity=68 time=4
note_on channel=1 note=51 velocity=67 time=4
note_on channel=1 note=58 velocity=42 time=12
note_off channel=1 note=60 velocity=64 time=52
note_off channel=1 note=58 velocity=64 time=0
note_off channel=1 note=51 velocity=64 time=12
note_off channel=1 note=67 velocity=64 time=4
control_change channel=1 control=64 value=0 time=508
note_on channel=1 note=73 velocity=74 time=340
note_on channel=1 note=63 velocity=54 time=24
note_on channel=1 note=57 velocity=57 time=0
note_on channel=1 note=69 velocity=59 time=20
note_on channel=1 note=65 velocity=57 time=32
note_off channel=1 note=73 velocity=64 time=544
note_off channel=1 note=65 velocity=64 time=0
note_off channel=1 note=69 velocity=64 time=0
note_off channel=1 note=57 velocity=64 time=0
note_off channel=1 note=63 velocity=64 time=0
control_change channel=1 control=64 value=0 time=0
control_change channel=1 control=11 value=109 time=0
note_on channel=1 note=58 velocity=44 time=20
note_on channel=1 note=50 velocity=44 time=4
note_on channel=1 note=55 velocity=44 time=4
note_on channel=1 note=65 velocity=44 time=4
note_off channel=1 note=58 velocity=64 time=124
note_off channel=1 note=50 velocity=64 time=16
note_off channel=1 note=55 velocity=64 time=0
note_off channel=1 note=65 velocity=64 time=20
note_on channel=1 note=73 velocity=83 time=670
note_off channel=1 note=73 velocity=46 time=93
note_on channel=1 note=74 velocity=55 time=70
note_off channel=1 note=74 velocity=58 time=261
note_on channel=1 note=77 velocity=67 time=29
note_on channel=1 note=55 velocity=44 time=69
note_off channel=1 note=55 velocity=64 time=40
note_on channel=1 note=79 velocity=86 time=14
note_off channel=1 note=77 velocity=60 time=14
note_on channel=1 note=70 velocity=44 time=8
note_on channel=1 note=55 velocity=44 time=4
note_on channel=1 note=62 velocity=44 time=8
note_on channel=1 note=65 velocity=44 time=0
note_off channel=1 note=79 velocity=55 time=64
note_off channel=1 note=62 velocity=64 time=120
note_off channel=1 note=70 velocity=64 time=124
note_off channel=1 note=55 velocity=64 time=0
note_off channel=1 note=65 velocity=64 time=0
control_change channel=1 control=64 value=0 time=40
note_on channel=1 note=80 velocity=83 time=107
note_on channel=1 note=65 velocity=44 time=357
note_on channel=1 note=58 velocity=44 time=4
note_on channel=1 note=49 velocity=44 time=4
note_on channel=1 note=56 velocity=44 time=12
note_off channel=1 note=58 velocity=64 time=52
note_off channel=1 note=56 velocity=64 time=0
note_off channel=1 note=49 velocity=64 time=12
note_off channel=1 note=65 velocity=64 time=4
note_off channel=1 note=80 velocity=37 time=381
note_on channel=1 note=77 velocity=67 time=29
control_change channel=1 control=64 value=0 time=98
note_on channel=1 note=70 velocity=44 time=340
note_on channel=1 note=61 velocity=44 time=24
note_on channel=1 note=55 velocity=44 time=0
note_on channel=1 note=67 velocity=44 time=20
note_on channel=1 note=65 velocity=44 time=32
note_off channel=1 note=70 velocity=64 time=544
note_off channel=1 note=65 velocity=64 time=0
note_off channel=1 note=67 velocity=64 time=0
note_off channel=1 note=55 velocity=64 time=0
note_off channel=1 note=61 velocity=64 time=0
control_change channel=1 control=64 value=0 time=0
note_off channel=1 note=77 velocity=33 time=34
note_on channel=1 note=60 velocity=44 time=334
note_on channel=1 note=53 velocity=44 time=8
note_on channel=1 note=65 velocity=44 time=4
note_on channel=1 note=41 velocity=44 time=24
note_off channel=1 note=60 velocity=64 time=72
note_off channel=1 note=65 velocity=64 time=0
note_off channel=1 note=41 velocity=64 time=12
note_off channel=1 note=53 velocity=64 time=20
note_on channel=1 note=62 velocity=44 time=20
note_off channel=1 note=62 velocity=64 time=260
note_on channel=1 note=73 velocity=75 time=62
note_on channel=1 note=53 velocity=44 time=34
note_off channel=1 note=53 velocity=64 time=88
note_off channel=1 note=73 velocity=42 time=12
note_on channel=1 note=57 velocity=44 time=16
note_on channel=1 note=62 velocity=44 time=0
note_on channel=1 note=74 velocity=55 time=34
note_off channel=1 note=57 velocity=64 time=154
note_off channel=1 note=62 velocity=64 time=8
note_off channel=1 note=74 velocity=58 time=107
note_on channel=1 note=77 velocity=86 time=15
note_off channel=1 note=77 velocity=57 time=144
note_on channel=1 note=79 velocity=89 time=16
note_off channel=1 note=79 velocity=33 time=178
note_on channel=1 note=50 velocity=44 time=156
note_off channel=1 note=50 velocity=64 time=72
control_change channel=1 control=64 value=0 time=36
note_on channel=1 note=66 velocity=44 time=0
note_on channel=1 note=69 velocity=44 time=16
note_on channel=1 note=54 velocity=44 time=0
note_on channel=1 note=60 velocity=44 time=0
note_on channel=1 note=80 velocity=96 time=10
note_off channel=1 note=69 velocity=64 time=174
note_off channel=1 note=66 velocity=64 time=568
note_off channel=1 note=60 velocity=64 time=4
note_off channel=1 note=54 velocity=64 time=0
note_off channel=1 note=80 velocity=42 time=46
note_on channel=1 note=77 velocity=83 time=27
note_on channel=1 note=69 velocity=44 time=115
note_on channel=1 note=65 velocity=44 time=0
note_on channel=1 note=60 velocity=44 time=0
note_on channel=1 note=50 velocity=44 time=0
note_off channel=1 note=65 velocity=64 time=128
note_on channel=1 note=66 velocity=44 time=32
note_off channel=1 note=50 velocity=64 time=448
note_off channel=1 note=60 velocity=64 time=0
note_off channel=1 note=69 velocity=64 time=0
note_off channel=1 note=66 velocity=64 time=288
control_change channel=1 control=64 value=0 time=64
note_off channel=1 note=77 velocity=44 time=34
note_on channel=1 note=67 velocity=44 time=330
note_on channel=1 note=62 velocity=44 time=4
note_on channel=1 note=53 velocity=44 time=4
note_on channel=1 note=59 velocity=44 time=12
note_off channel=1 note=62 velocity=64 time=52
note_off channel=1 note=59 velocity=64 time=0
note_off channel=1 note=53 velocity=64 time=12
note_off channel=1 note=67 velocity=64 time=4
note_on channel=1 note=73 velocity=92 time=388
note_off channel=1 note=73 velocity=53 time=127
note_on channel=1 note=62 velocity=44 time=9
note_on channel=1 note=59 velocity=44 time=12
note_on channel=1 note=67 velocity=44 time=0
note_on channel=1 note=53 velocity=44 time=4
note_on channel=1 note=74 velocity=73 time=6
note_off channel=1 note=53 velocity=64 time=54
note_off channel=1 note=62 velocity=64 time=20
note_off channel=1 note=59 velocity=64 time=4
note_off channel=1 note=67 velocity=64 time=8
note_off channel=1 note=74 velocity=58 time=195
note_on channel=1 note=77 velocity=86 time=17
note_off channel=1 note=77 velocity=62 time=134
note_on channel=1 note=79 velocity=96 time=29
note_off channel=1 note=79 velocity=58 time=108
control_change channel=1 control=64 value=0 time=253
note_on channel=1 note=80 velocity=90 time=129
note_off channel=1 note=80 velocity=50 time=290
note_on channel=1 note=67 velocity=44 time=45
note_on channel=1 note=60 velocity=44 time=4
note_on channel=1 note=83 velocity=89 time=2
note_on channel=1 note=52 velocity=44 time=2
note_on channel=1 note=58 velocity=44 time=12
note_off channel=1 note=60 velocity=64 time=52
note_off channel=1 note=58 velocity=64 time=0
note_off channel=1 note=52 velocity=64 time=12
note_off channel=1 note=67 velocity=64 time=4
note_on channel=1 note=60 velocity=44 time=524
note_on channel=1 note=58 velocity=44 time=12
note_on channel=1 note=67 velocity=44 time=0
note_on channel=1 note=52 velocity=44 time=4
note_off channel=1 note=52 velocity=64 time=60
note_off channel=1 note=60 velocity=64 time=20
note_off channel=1 note=58 velocity=64 time=4
note_off channel=1 note=67 velocity=64 time=8
note_off channel=1 note=83 velocity=59 time=190
note_on channel=1 note=82 velocity=63 time=53
note_off channel=1 note=82 velocity=40 time=166
note_on channel=1 note=80 velocity=69 time=12
note_off channel=1 note=80 velocity=55 time=278
note_on channel=1 note=51 velocity=44 time=25
note_on channel=1 note=77 velocity=83 time=11
note_off channel=1 note=51 velocity=64 time=61
control_change channel=1 control=64 value=0 time=40
control_change channel=1 control=11 value=109 time=0
note_on channel=1 note=65 velocity=44 time=368
note_on channel=1 note=57 velocity=44 time=8
note_on channel=1 note=69 velocity=44 time=4
note_on channel=1 note=41 velocity=44 time=24
note_off channel=1 note=65 velocity=64 time=72
note_off channel=1 note=69 velocity=64 time=0
control_change channel=1 control=11 value=108 time=4
note_off channel=1 note=41 velocity=64 time=8
note_off channel=1 note=57 velocity=64 time=20
note_on channel=1 note=64 velocity=44 time=20
note_off channel=1 note=64 velocity=64 time=260
note_on channel=1 note=57 velocity=44 time=96
control_change channel=1 control=11 value=106 time=76
note_off channel=1 note=57 velocity=64 time=12
note_on channel=1 note=60 velocity=44 time=28
note_on channel=1 note=65 velocity=44 time=0
note_off channel=1 note=60 velocity=64 time=188
note_off channel=1 note=65 velocity=64 time=8
control_change channel=1 control=11 value=105 time=244
control_change channel=1 control=64 value=0 time=380
note_on channel=1 note=58 velocity=58 time=20
note_on channel=1 note=49 velocity=50 time=4
note_on channel=1 note=55 velocity=56 time=4
note_on channel=1 note=63 velocity=61 time=4
control_change channel=1 control=11 value=104 time=44
note_off channel=1 note=77 velocity=47 time=22
note_off channel=1 note=58 velocity=64 time=150
note_off channel=1 note=55 velocity=64 time=16
note_off channel=1 note=49 velocity=64 time=0
note_off channel=1 note=63 velocity=64 time=20
control_change channel=1 control=64 value=0 time=296
note_on channel=1 note=65 velocity=60 time=60
note_on channel=1 note=66 velocity=46 time=0
note_on channel=1 note=60 velocity=52 time=4
note_on channel=1 note=69 velocity=47 time=12
note_off channel=1 note=65 velocity=64 time=100
note_off channel=1 note=69 velocity=64 time=16
note_off channel=1 note=60 velocity=64 time=0
note_off channel=1 note=66 velocity=64 time=0
control_change channel=1 control=64 value=0 time=188
note_on channel=1 note=65 velocity=58 time=20
note_on channel=1 note=54 velocity=50 time=4
note_on channel=1 note=60 velocity=56 time=4
note_on channel=1 note=69 velocity=61 time=4
note_off channel=1 note=65 velocity=64 time=216
note_off channel=1 note=54 velocity=64 time=16
note_off channel=1 note=60 velocity=64 time=0
note_off channel=1 note=69 velocity=64 time=20
control_change channel=1 control=64 value=0 time=676
note_on channel=1 note=62 velocity=68 time=20
note_on channel=1 note=69 velocity=70 time=16
note_off channel=1 note=62 velocity=64 time=172
note_off channel=1 note=69 velocity=64 time=4
control_change channel=1 control=64 value=0 time=848
note_on channel=1 note=55 velocity=54 time=12
note_on channel=1 note=59 velocity=52 time=0
note_on channel=1 note=53 velocity=47 time=4
note_on channel=1 note=43 velocity=46 time=4
note_off channel=1 note=55 velocity=64 time=320
note_off channel=1 note=43 velocity=64 time=0
note_off channel=1 note=53 velocity=64 time=0
note_off channel=1 note=59 velocity=64 time=0
control_change channel=1 control=64 value=0 time=40
note_on channel=1 note=65 velocity=47 time=140
note_on channel=1 note=62 velocity=49 time=4
note_on channel=1 note=43 velocity=41 time=0
note_on channel=1 note=59 velocity=43 time=4
note_off channel=1 note=62 velocity=64 time=80
note_off channel=1 note=65 velocity=64 time=20
note_off channel=1 note=59 velocity=64 time=16
note_off channel=1 note=43 velocity=64 time=4
control_change channel=1 control=64 value=0 time=212
note_on channel=1 note=67 velocity=77 time=464
note_on channel=1 note=62 velocity=68 time=4
note_on channel=1 note=52 velocity=67 time=4
note_on channel=1 note=58 velocity=42 time=12
note_off channel=1 note=62 velocity=64 time=52
note_off channel=1 note=58 velocity=64 time=0
note_off channel=1 note=52 velocity=64 time=12
note_off channel=1 note=67 velocity=64 time=4
control_change channel=1 control=64 value=0 time=408
note_on channel=1 note=63 velocity=68 time=468
note_on channel=1 note=55 velocity=51 time=8
note_on channel=1 note=67 velocity=66 time=4
note_on channel=1 note=48 velocity=52 time=24
note_off channel=1 note=63 velocity=64 time=72
note_off channel=1 note=67 velocity=64 time=0
note_off channel=1 note=48 velocity=64 time=4
note_off channel=1 note=55 velocity=64 time=0
control_change channel=1 control=64 value=0 time=0
control_change channel=1 control=64 value=0 time=380
note_on channel=1 note=62 velocity=47 time=140
note_on channel=1 note=60 velocity=49 time=4
note_on channel=1 note=41 velocity=41 time=0
note_on channel=1 note=57 velocity=43 time=4
note_off channel=1 note=60 velocity=64 time=80
note_off channel=1 note=62 velocity=64 time=20
note_off channel=1 note=57 velocity=64 time=16
note_off channel=1 note=41 velocity=64 time=4
control_change channel=1 control=64 value=0 time=792
note_on channel=1 note=53 velocity=54 time=12
note_on channel=1 note=56 velocity=52 time=0
note_on channel=1 note=50 velocity=47 time=4
note_on channel=1 note=41 velocity=46 time=4
note_off channel=1 note=53 velocity=64 time=320
note_off channel=1 note=41 velocity=64 time=0
note_off channel=1 note=50 velocity=64 time=0
note_off channel=1 note=56 velocity=64 time=0
control_change channel=1 control=64 value=0 time=40
note_on channel=1 note=60 velocity=68 time=468
note_on channel=1 note=53 velocity=51 time=8
note_on channel=1 note=65 velocity=66 time=4
note_on channel=1 note=41 velocity=52 time=24
note_off channel=1 note=60 velocity=64 time=72
note_off channel=1 note=65 velocity=64 time=0
note_off channel=1 note=41 velocity=64 time=4
note_off channel=1 note=53 velocity=64 time=0
control_change channel=1 control=64 value=0 time=0
note_on channel=1 note=57 velocity=54 time=12
note_on channel=1 note=60 velocity=52 time=0
note_on channel=1 note=54 velocity=47 time=4
note_on channel=1 note=38 velocity=46 time=4
note_off channel=1 note=60 velocity=64 time=580
note_off channel=1 note=54 velocity=64 time=32
note_off channel=1 note=57 velocity=64 time=52
note_off channel=1 note=38 velocity=64 time=64
note_on channel=1 note=49 velocity=62 time=140
note_off channel=1 note=49 velocity=64 time=72
control_change channel=1 control=64 value=0 time=0
note_on channel=1 note=62 velocity=60 time=60
note_on channel=1 note=66 velocity=46 time=0
note_on channel=1 note=60 velocity=52 time=4
note_on channel=1 note=69 velocity=47 time=12
note_off channel=1 note=62 velocity=64 time=100
note_off channel=1 note=69 velocity=64 time=16
note_off channel=1 note=60 velocity=64 time=0
note_off channel=1 note=66 velocity=64 time=0
control_change channel=1 control=64 value=0 time=288
note_on channel=1 note=64 velocity=68 time=368
note_on channel=1 note=57 velocity=51 time=8
note_on channel=1 note=69 velocity=66 time=4
note_on channel=1 note=50 velocity=52 time=24
note_off channel=1 note=64 velocity=64 time=72
note_off channel=1 note=69 velocity=64 time=0
note_off channel=1 note=50 velocity=64 time=4
note_off channel=1 note=57 velocity=64 time=0
control_change channel=1 control=64 value=0 time=0
note_on channel=1 note=69 velocity=77 time=364
note_on channel=1 note=62 velocity=68 time=4
note_on channel=1 note=53 velocity=67 time=4
note_on channel=1 note=59 velocity=42 time=12
note_off channel=1 note=62 velocity=64 time=52
note_off channel=1 note=59 velocity=64 time=0
note_off channel=1 note=53 velocity=64 time=12
note_off channel=1 note=69 velocity=64 time=4
control_change channel=1 control=64 value=0 time=508
note_on channel=1 note=62 velocity=68 time=20
note_on channel=1 note=69 velocity=70 time=16
note_off channel=1 note=62 velocity=64 time=80
note_off channel=1 note=69 velocity=64 time=4
control_change channel=1 control=64 value=0 time=260
note_on channel=1 note=65 velocity=47 time=140
note_on channel=1 note=62 velocity=49 time=4
note_on channel=1 note=43 velocity=41 time=0
note_on channel=1 note=59 velocity=43 time=4
note_off channel=1 note=62 velocity=64 time=80
note_off channel=1 note=65 velocity=64 time=20
note_off channel=1 note=59 velocity=64 time=16
note_off channel=1 note=43 velocity=64 time=4
control_change channel=1 control=64 value=0 time=312
note_on channel=1 note=65 velocity=47 time=40
note_on channel=1 note=62 velocity=49 time=4
note_on channel=1 note=43 velocity=41 time=0
note_on channel=1 note=58 velocity=43 time=4
note_off channel=1 note=62 velocity=64 time=80
note_off channel=1 note=65 velocity=64 time=20
note_off channel=1 note=58 velocity=64 time=16
note_off channel=1 note=43 velocity=64 time=4
control_change channel=1 control=64 value=0 time=792
note_on channel=1 note=62 velocity=68 time=368
note_on channel=1 note=55 velocity=51 time=8
note_on channel=1 note=67 velocity=66 time=4
note_on channel=1 note=48 velocity=52 time=24
note_off channel=1 note=62 velocity=64 time=72
note_off channel=1 note=67 velocity=64 time=0
note_off channel=1 note=48 velocity=64 time=12
note_off channel=1 note=55 velocity=64 time=20
note_on channel=1 note=63 velocity=63 time=20
note_off channel=1 note=63 velocity=64 time=260
control_change channel=1 control=64 value=0 time=72
note_on channel=1 note=72 velocity=74 time=440
note_on channel=1 note=63 velocity=54 time=24
note_on channel=1 note=58 velocity=57 time=0
note_on channel=1 note=70 velocity=59 time=20
note_on channel=1 note=67 velocity=57 time=32
note_off channel=1 note=72 velocity=64 time=1392
note_off channel=1 note=63 velocity=64 time=40
note_off channel=1 note=70 velocity=64 time=20
note_off channel=1 note=58 velocity=64 time=52
note_off channel=1 note=67 velocity=64 time=0
control_change channel=1 control=64 value=0 time=0
note_on channel=1 note=51 velocity=46 time=16
note_on channel=1 note=60 velocity=56 time=4
note_on channel=1 note=57 velocity=46 time=4
note_on channel=1 note=36 velocity=75 time=1276
note_off channel=1 note=51 velocity=64 time=12
note_off channel=1 note=36 velocity=64 time=40
note_off channel=1 note=57 velocity=64 time=332
note_off channel=1 note=60 velocity=64 time=0
control_change channel=1 control=64 value=0 time=136
note_on channel=1 note=62 velocity=47 time=140
note_on channel=1 note=58 velocity=49 time=4
note_on channel=1 note=46 velocity=41 time=0
note_on channel=1 note=57 velocity=43 time=4
note_off channel=1 note=58 velocity=64 time=80
note_off channel=1 note=62 velocity=64 time=20
note_off channel=1 note=57 velocity=64 time=16
note_off channel=1 note=46 velocity=64 time=4
control_change channel=1 control=64 value=0 time=792
note_on channel=1 note=58 velocity=60 time=60
note_on channel=1 note=62 velocity=46 time=0
note_on channel=1 note=55 velocity=52 time=4
note_on channel=1 note=65 velocity=47 time=12
note_off channel=1 note=58 velocity=64 time=100
note_off channel=1 note=65 velocity=64 time=16
note_off channel=1 note=55 velocity=64 time=0
note_off channel=1 note=62 velocity=64 time=0
note_on channel=1 note=46 velocity=76 time=332
note_off channel=1 note=46 velocity=64 time=200
control_change channel=1 control=64 value=0 time=136
note_on channel=1 note=47 velocity=77 time=496
note_off channel=1 note=47 velocity=64 time=44
note_on channel=1 note=62 velocity=95 time=72
note_on channel=1 note=59 velocity=93 time=4
note_off channel=1 note=59 velocity=64 time=216
note_off channel=1 note=62 velocity=64 time=16
control_change channel=1 control=64 value=0 time=212
note_on channel=1 note=71 velocity=74 time=340
note_on channel=1 note=62 velocity=54 time=24
note_on channel=1 note=56 velocity=57 time=0
note_on channel=1 note=68 velocity=59 time=20
note_on channel=1 note=64 velocity=57 time=32
note_off channel=1 note=71 velocity=64 time=544
note_off channel=1 note=64 velocity=64 time=0
note_off channel=1 note=68 velocity=64 time=0
note_off channel=1 note=56 velocity=64 time=0
note_off channel=1 note=62 velocity=64 time=0
control_change channel=1 control=64 value=0 time=0
note_on channel=1 note=48 velocity=46 time=16
note_on channel=1 note=57 velocity=56 time=4
note_on channel=1 note=55 velocity=46 time=4
note_on channel=1 note=40 velocity=75 time=1276
note_off channel=1 note=48 velocity=64 time=12
note_off channel=1 note=40 velocity=64 time=40
note_off channel=1 note=55 velocity=64 time=332
note_off channel=1 note=57 velocity=64 time=0
control_change channel=1 control=64 value=0 time=236
note_on channel=1 note=76 velocity=74 time=340
note_on channel=1 note=66 velocity=54 time=24
note_on channel=1 note=60 velocity=57 time=0
note_on channel=1 note=72 velocity=59 time=20
note_on channel=1 note=70 velocity=57 time=32
note_off channel=1 note=66 velocity=64 time=1364
note_off channel=1 note=70 velocity=64 time=0
note_off channel=1 note=72 velocity=64 time=0
note_off channel=1 note=60 velocity=64 time=0
note_off channel=1 note=76 velocity=64 time=28
control_change channel=1 control=64 value=0 time=12
note_on channel=1 note=67 velocity=46 time=160
note_on channel=1 note=62 velocity=52 time=4
note_on channel=1 note=70 velocity=47 time=12
note_off channel=1 note=67 velocity=64 time=100
note_off channel=1 note=70 velocity=64 time=16
note_off channel=1 note=62 velocity=64 time=0
note_on channel=1 note=43 velocity=76 time=332
note_off channel=1 note=43 velocity=64 time=200
control_change channel=1 control=64 value=0 time=236
note_on channel=1 note=70 velocity=77 time=364
note_on channel=1 note=67 velocity=68 time=4
note_on channel=1 note=55 velocity=67 time=4
note_on channel=1 note=62 velocity=42 time=12
note_off channel=1 note=67 velocity=64 time=52
note_off channel=1 note=62 velocity=64 time=0
note_off channel=1 note=55 velocity=64 time=12
note_off channel=1 note=70 velocity=64 time=4
control_change channel=1 control=64 value=0 time=508
note_on channel=1 note=74 velocity=74 time=340
note_on channel=1 note=65 velocity=54 time=24
note_on channel=1 note=58 velocity=57 time=0
note_on channel=1 note=70 velocity=59 time=20
note_on channel=1 note=67 velocity=57 time=32
note_off channel=1 note=74 velocity=64 time=544
note_off channel=1 note=67 velocity=64 time=0
note_off channel=1 note=70 velocity=64 time=0
note_off channel=1 note=58 velocity=64 time=0
note_off channel=1 note=65 velocity=64 time=0
control_change channel=1 control=64 value=0 time=0
note_on channel=1 note=62 velocity=58 time=20
note_on channel=1 note=53 velocity=50 time=4
note_on channel=1 note=58 velocity=56 time=4
note_on channel=1 note=67 velocity=61 time=4
note_off channel=1 note=62 velocity=64 time=124
note_off channel=1 note=53 velocity=64 time=16
note_off channel=1 note=58 velocity=64 time=0
note_off channel=1 note=67 velocity=64 time=20
control_change channel=1 control=64 value=0 time=288
control_change channel=1 control=64 value=0 time=380
note_on channel=1 note=57 velocity=58 time=20
note_on channel=1 note=48 velocity=50 time=4
note_on channel=1 note=55 velocity=56 time=4
note_on channel=1 note=64 velocity=61 time=4
note_off channel=1 note=57 velocity=64 time=216
note_off channel=1 note=48 velocity=64 time=16
note_off channel=1 note=55 velocity=64 time=0
note_off channel=1 note=64 velocity=64 time=20
note_on channel=1 note=53 velocity=42 time=1200
note_off channel=1 note=53 velocity=64 time=40
note_on channel=1 note=69 velocity=84 time=36
note_on channel=1 note=55 velocity=56 time=4
note_on channel=1 note=60 velocity=51 time=8
note_on channel=1 note=64 velocity=62 time=0
note_off channel=1 note=60 velocity=64 time=184
note_off channel=1 note=64 velocity=64 time=124
note_off channel=1 note=69 velocity=64 time=0
note_off channel=1 note=55 velocity=64 time=0
control_change channel=1 control=64 value=0 time=40
note_on channel=1 note=51 velocity=54 time=12
note_on channel=1 note=55 velocity=52 time=0
note_on channel=1 note=49 velocity=47 time=4
note_on channel=1 note=39 velocity=46 time=4
note_off channel=1 note=55 velocity=64 time=672
note_off channel=1 note=49 velocity=64 time=32
note_off channel=1 note=51 velocity=64 time=52
note_off channel=1 note=39 velocity=64 time=64
note_on channel=1 note=38 velocity=62 time=148
note_off channel=1 note=38 velocity=64 time=72
control_change channel=1 control=64 value=0 time=0
control_change channel=1 control=11 value=109 time=0
note_on channel=1 note=64 velocity=68 time=20
note_on channel=1 note=69 velocity=70 time=16
note_off channel=1 note=64 velocity=64 time=80
note_off channel=1 note=69 velocity=64 time=4
control_change channel=1 control=11 value=106 time=0
control_change channel=1 control=11 value=104 time=120
control_change channel=1 control=11 value=101 time=120
control_change channel=1 control=11 value=99 time=120
control_change channel=1 control=64 value=0 time=0
note_on channel=1 note=58 velocity=54 time=12
note_on channel=1 note=60 velocity=52 time=0
note_on channel=1 note=54 velocity=47 time=4
note_on channel=1 note=44 velocity=46 time=4
control_change channel=1 control=11 value=96 time=100
control_change channel=1 control=11 value=94 time=120
control_change channel=1 control=11 value=91 time=120
note_off channel=1 note=58 velocity=64 time=120
note_off channel=1 note=44 velocity=64 time=0
note_off channel=1 note=54 velocity=64 time=0
note_off channel=1 note=60 velocity=64 time=0
control_change channel=1 control=64 value=0 time=0
control_change channel=1 control=11 value=89 time=0
note_on channel=1 note=74 velocity=74 time=340
note_on channel=1 note=65 velocity=54 time=24
note_on channel=1 note=59 velocity=57 time=0
note_on channel=1 note=71 velocity=59 time=20
note_on channel=1 note=69 velocity=57 time=32
note_off channel=1 note=74 velocity=64 time=404
note_off channel=1 note=69 velocity=64 time=0
note_off channel=1 note=71 velocity=64 time=0
note_off channel=1 note=59 velocity=64 time=0
note_off channel=1 note=65 velocity=64 time=0
control_change channel=1 control=64 value=0 time=40
note_on channel=1 note=62 velocity=68 time=20
note_on channel=1 note=69 velocity=70 time=16
note_off channel=1 note=62 velocity=64 time=172
note_off channel=1 note=69 velocity=64 time=4
control_change channel=1 control=64 value=0 time=848
note_on channel=1 note=64 velocity=47 time=40
note_on channel=1 note=60 velocity=49 time=4
note_on channel=1 note=48 velocity=41 time=0
note_on channel=1 note=58 velocity=43 time=4
note_off channel=1 note=60 velocity=64 time=80
note_off channel=1 note=64 velocity=64 time=20
note_off channel=1 note=58 velocity=64 time=16
note_off channel=1 note=48 velocity=64 time=4
control_change channel=1 control=64 value=0 time=792
note_on channel=1 note=67 velocity=77 time=364
note_on channel=1 note=62 velocity=68 time=4
note_on channel=1 note=52 velocity=67 time=4
note_on channel=1 note=58 velocity=42 time=12
note_off channel=1 note=62 velocity=64 time=52
note_off channel=1 note=58 velocity=64 time=0
note_off channel=1 note=52 velocity=64 time=12
note_off channel=1 note=67 velocity=64 time=4
control_change channel=1 control=64 value=0 time=508
note_on channel=1 note=41 velocity=77 time=396
note_off channel=1 note=41 velocity=64 time=44
note_on channel=1 note=64 velocity=95 time=72
note_on channel=1 note=60 velocity=93 time=4
note_off channel=1 note=60 velocity=64 time=216
note_off channel=1 note=64 velocity=64 time=16
note_on channel=1 note=67 velocity=69 time=256
note_on channel=1 note=57 velocity=60 time=4
note_off channel=1 note=67 velocity=64 time=272
note_off channel=1 note=57 velocity=64 time=0
note_on channel=1 note=36 velocity=78 time=72
note_off channel=1 note=36 velocity=64 time=92
note_on channel=1 note=57 velocity=56 time=32
note_on channel=1 note=64 velocity=71 time=0
note_off channel=1 note=57 velocity=64 time=184
note_off channel=1 note=64 velocity=64 time=4
control_change channel=1 control=64 value=0 time=256
note_on channel=1 note=62 velocity=58 time=20
note_on channel=1 note=54 velocity=50 time=4
note_on channel=1 note=60 velocity=56 time=4
note_on channel=1 note=69 velocity=61 time=4
note_off channel=1 note=62 velocity=64 time=124
note_off channel=1 note=54 velocity=64 time=16
note_off channel=1 note=60 velocity=64 time=0
note_off channel=1 note=69 velocity=64 time=20
control_change channel=1 control=64 value=0 time=668
note_on channel=1 note=64 velocity=58 time=20
note_on channel=1 note=54 velocity=50 time=4
note_on channel=1 note=60 velocity=56 time=4
note_on channel=1 note=69 velocity=61 time=4
note_off channel=1 note=64 velocity=64 time=216
note_off channel=1 note=54 velocity=64 time=16
note_off channel=1 note=60 velocity=64 time=0
note_off channel=1 note=69 velocity=64 time=20
control_change channel=1 control=64 value=0 time=676
note_on channel=1 note=69 velocity=77 time=464
note_on channel=1 note=62 velocity=68 time=4
note_on channel=1 note=53 velocity=67 time=4
note_on channel=1 note=59 velocity=42 time=12
note_off channel=1 note=62 velocity=64 time=52
note_off channel=1 note=59 velocity=64 time=0
note_off channel=1 note=53 velocity=64 time=12
note_off channel=1 note=69 velocity=64 time=4
control_change channel=1 control=64 value=0 time=408
note_on channel=1 note=43 velocity=77 time=496
note_off channel=1 note=43 velocity=64 time=44
note_on channel=1 note=65 velocity=95 time=72
note_on channel=1 note=62 velocity=93 time=4
note_off channel=1 note=62 velocity=64 time=216
note_off channel=1 note=65 velocity=64 time=16
control_change channel=1 control=64 value=0 time=112
note_on channel=1 note=60 velocity=68 time=20
note_on channel=1 note=68 velocity=70 time=16
note_off channel=1 note=60 velocity=64 time=172
note_off channel=1 note=68 velocity=64 time=4
control_change channel=1 control=64 value=0 time=748
note_on channel=1 note=67 velocity=77 time=464
note_on channel=1 note=62 velocity=68 time=4
note_on channel=1 note=52 velocity=67 time=4
note_on channel=1 note=58 velocity=42 time=12
note_off channel=1 note=62 velocity=64 time=52
note_off channel=1 note=58 velocity=64 time=0
note_off channel=1 note=52 velocity=64 time=12
note_off channel=1 note=67 velocity=64 time=4
control_change channel=1 control=64 value=0 time=508
control_change channel=1 control=11 value=89 time=0
control_change channel=1 control=11 value=90 time=240
note_on channel=1 note=67 velocity=77 time=124
note_on channel=1 note=60 velocity=68 time=4
note_on channel=1 note=51 velocity=67 time=4
note_on channel=1 note=58 velocity=42 time=12
note_off channel=1 note=60 velocity=64 time=52
note_off channel=1 note=58 velocity=64 time=0
note_off channel=1 note=51 velocity=64 time=12
note_off channel=1 note=67 velocity=64 time=4
control_change channel=1 control=11 value=91 time=28
control_change channel=1 control=11 value=93 time=240
control_change channel=1 control=11 value=94 time=240
note_on channel=1 note=60 velocity=61 time=16
note_on channel=1 note=58 velocity=61 time=12
note_on channel=1 note=67 velocity=59 time=0
note_on channel=1 note=51 velocity=59 time=4
note_off channel=1 note=51 velocity=64 time=60
note_off channel=1 note=60 velocity=64 time=20
note_off channel=1 note=58 velocity=64 time=4
note_off channel=1 note=67 velocity=64 time=8
control_change channel=1 control=11 value=95 time=116
control_change channel=1 control=11 value=96 time=240
control_change channel=1 control=11 value=98 time=240
control_change channel=1 control=11 value=99 time=240
control_change channel=1 control=64 value=0 time=0
note_on channel=1 note=63 velocity=47 time=40
note_on channel=1 note=60 velocity=49 time=4
note_on channel=1 note=41 velocity=41 time=0
note_on channel=1 note=57 velocity=43 time=4
note_off channel=1 note=60 velocity=64 time=80
note_off channel=1 note=63 velocity=64 time=20
note_off channel=1 note=57 velocity=64 time=16
note_off channel=1 note=41 velocity=64 time=4
control_change channel=1 control=11 value=100 time=72
control_change channel=1 control=64 value=0 time=140
control_change channel=1 control=11 value=101 time=100
note_on channel=1 note=63 velocity=47 time=40
note_on channel=1 note=60 velocity=49 time=4
note_on channel=1 note=48 velocity=41 time=0
note_on channel=1 note=58 velocity=43 time=4
note_off channel=1 note=60 velocity=64 time=80
note_off channel=1 note=63 velocity=64 time=20
note_off channel=1 note=58 velocity=64 time=16
note_off channel=1 note=48 velocity=64 time=4
control_change channel=1 control=11 value=103 time=72
control_change channel=1 control=11 value=104 time=240
control_change channel=1 control=64 value=0 time=0
note_on channel=1 note=60 velocity=58 time=20
note_on channel=1 note=51 velocity=50 time=4
note_on channel=1 note=57 velocity=56 time=4
note_on channel=1 note=67 velocity=61 time=4
note_off channel=1 note=60 velocity=64 time=124
note_off channel=1 note=51 velocity=64 time=16
note_off channel=1 note=57 velocity=64 time=0
note_off channel=1 note=67 velocity=64 time=20
control_change channel=1 control=11 value=105 time=48
control_change channel=1 control=11 value=106 time=240
control_change channel=1 control=11 value=108 time=240
control_change channel=1 control=64 value=0 time=140
note_on channel=1 note=65 velocity=60 time=20
note_on channel=1 note=62 velocity=65 time=16
control_change channel=1 control=11 value=109 time=64
note_on channel=1 note=55 velocity=64 time=40
note_on channel=1 note=46 velocity=44 time=12
note_off channel=1 note=62 velocity=64 time=1708
note_off channel=1 note=46 velocity=64 time=8
note_off channel=1 note=55 velocity=64 time=0
note_off channel=1 note=65 velocity=64 time=8
control_change channel=1 control=64 value=0 time=44
note_on channel=1 note=58 velocity=58 time=20
note_on channel=1 note=49 velocity=50 time=4
note_on channel=1 note=56 velocity=56 time=4
note_on channel=1 note=65 velocity=61 time=4
note_off channel=1 note=58 velocity=64 time=216
note_off channel=1 note=49 velocity=64 time=16
note_off channel=1 note=56 velocity=64 time=0
note_off channel=1 note=65 velocity=64 time=20
control_change channel=1 control=64 value=0 time=776
note_on channel=1 note=51 velocity=54 time=12
note_on channel=1 note=55 velocity=52 time=0
note_on channel=1 note=49 velocity=47 time=4
note_on channel=1 note=39 velocity=46 time=4
note_off channel=1 note=55 velocity=64 time=580
note_off channel=1 note=49 velocity=64 time=32
note_off channel=1 note=51 velocity=64 time=52
note_off channel=1 note=39 velocity=64 time=64
note_on channel=1 note=38 velocity=62 time=140
note_off channel=1 note=38 velocity=64 time=72
control_change channel=1 control=64 value=0 time=0
note_on channel=1 note=72 velocity=74 time=340
note_on channel=1 note=62 velocity=54 time=24
note_on channel=1 note=57 velocity=57 time=0
note_on channel=1 note=69 velocity=59 time=20
note_on channel=1 note=65 velocity=57 time=32
note_off channel=1 note=72 velocity=64 time=404
note_off channel=1 note=65 velocity=64 time=0
note_off channel=1 note=69 velocity=64 time=0
note_off channel=1 note=57 velocity=64 time=0
note_off channel=1 note=62 velocity=64 time=0
control_change channel=1 control=64 value=0 time=40
note_on channel=1 note=60 velocity=58 time=20
note_on channel=1 note=50 velocity=50 time=4
note_on channel=1 note=57 velocity=56 time=4
note_on channel=1 note=65 velocity=61 time=4
note_off channel=1 note=60 velocity=64 time=216
note_off channel=1 note=50 velocity=64 time=16
note_off channel=1 note=57 velocity=64 time=0
note_off channel=1 note=65 velocity=64 time=20
control_change channel=1 control=64 value=0 time=296
note_on channel=1 note=60 velocity=58 time=20
note_on channel=1 note=52 velocity=50 time=4
note_on channel=1 note=57 velocity=56 time=4
note_on channel=1 note=67 velocity=61 time=4
note_off channel=1 note=60 velocity=64 time=124
note_off channel=1 note=52 velocity=64 time=16
note_off channel=1 note=57 velocity=64 time=0
note_off channel=1 note=67 velocity=64 time=20
control_change channel=1 control=64 value=0 time=288
note_on channel=1 note=57 velocity=68 time=368
note_on channel=1 note=52 velocity=51 time=8
note_on channel=1 note=64 velocity=66 time=4
note_on channel=1 note=45 velocity=52 time=24
note_off channel=1 note=57 velocity=64 time=72
note_off channel=1 note=64 velocity=64 time=0
note_off channel=1 note=45 velocity=64 time=12
note_off channel=1 note=52 velocity=64 time=20
note_on channel=1 note=60 velocity=63 time=20
note_off channel=1 note=60 velocity=64 time=260
control_change channel=1 control=64 value=0 time=72
note_on channel=1 note=62 velocity=68 time=468
note_on channel=1 note=58 velocity=51 time=8
note_on channel=1 note=70 velocity=66 time=4
note_on channel=1 note=50 velocity=52 time=24
note_off channel=1 note=62 velocity=64 time=72
note_off channel=1 note=70 velocity=64 time=0
note_off channel=1 note=50 velocity=64 time=12
note_off channel=1 note=58 velocity=64 time=20
note_on channel=1 note=65 velocity=63 time=20
note_off channel=1 note=65 velocity=64 time=260
note_on channel=1 note=58 velocity=55 time=96
note_off channel=1 note=58 velocity=64 time=76
control_change channel=1 control=64 value=0 time=0
note_on channel=1 note=75 velocity=74 time=340
note_on channel=1 note=65 velocity=54 time=24
note_on channel=1 note=59 velocity=57 time=0
note_on channel=1 note=71 velocity=59 time=20
note_on channel=1 note=67 velocity=57 time=32
note_off channel=1 note=75 velocity=64 time=544
note_off channel=1 note=67 velocity=64 time=0
note_off channel=1 note=71 velocity=64 time=0
note_off channel=1 note=59 velocity=64 time=0
note_off channel=1 note=65 velocity=64 time=0
control_change channel=1 control=64 value=0 time=0
note_on channel=1 note=43 velocity=77 time=396
note_off channel=1 note=43 velocity=64 time=44
note_on channel=1 note=65 velocity=95 time=72
note_on channel=1 note=62 velocity=93 time=4
note_off channel=1 note=62 velocity=64 time=216
note_off channel=1 note=65 velocity=64 time=16
control_change channel=1 control=64 value=0 time=212
note_on channel=1 note=72 velocity=74 time=340
note_on channel=1 note=64 velocity=54 time=24
note_on channel=1 note=58 velocity=57 time=0
note_on channel=1 note=70 velocity=59 time=20
note_on channel=1 note=68 velocity=57 time=32
note_off channel=1 note=72 velocity=64 time=544
note_off channel=1 note=68 velocity=64 time=0
note_off channel=1 note=70 velocity=64 time=0
note_off channel=1 note=58 velocity=64 time=0
note_off channel=1 note=64 velocity=64 time=0
control_change channel=1 control=64 value=0 time=0
note_on channel=1 note=72 velocity=74 time=340
note_on channel=1 note=64 velocity=54 time=24
note_on channel=1 note=58 velocity=57 time=0
note_on channel=1 note=70 velocity=59 time=20
note_on channel=1 note=67 velocity=57 time=32
note_off channel=1 note=72 velocity=64 time=544
note_off channel=1 note=67 velocity=64 time=0
note_off channel=1 note=70 velocity=64 time=0
note_off channel=1 note=58 velocity=64 time=0
note_off channel=1 note=64 velocity=64 time=0
control_change channel=1 control=64 value=0 time=0
note_on channel=1 note=53 velocity=54 time=12
note_on channel=1 note=57 velocity=52 time=0
note_on channel=1 note=51 velocity=47 time=4
note_on channel=1 note=41 velocity=46 time=4
note_off channel=1 note=57 velocity=64 time=580
note_off channel=1 note=51 velocity=64 time=32
note_off channel=1 note=53 velocity=64 time=52
note_off channel=1 note=41 velocity=64 time=64
note_on channel=1 note=40 velocity=62 time=140
note_off channel=1 note=40 velocity=64 time=72
control_change channel=1 control=64 value=0 time=0
note_on channel=1 note=60 velocity=58 time=20
note_on channel=1 note=52 velocity=50 time=4
note_on channel=1 note=57 velocity=56 time=4
note_on channel=1 note=67 velocity=61 time=4
note_off channel=1 note=60 velocity=64 time=124
note_off channel=1 note=52 velocity=64 time=16
note_off channel=1 note=57 velocity=64 time=0
note_off channel=1 note=67 velocity=64 time=20
control_change channel=1 control=64 value=0 time=288
note_on channel=1 note=60 velocity=60 time=60
note_on channel=1 note=62 velocity=46 time=0
note_on channel=1 note=57 velocity=52 time=4
note_on channel=1 note=65 velocity=47 time=12
note_off channel=1 note=60 velocity=64 time=100
note_off channel=1 note=65 velocity=64 time=16
note_off channel=1 note=57 velocity=64 time=0
note_off channel=1 note=62 velocity=64 time=0
control_change channel=1 control=64 value=0 time=188
note_on channel=1 note=62 velocity=60 time=160
note_on channel=1 note=66 velocity=46 time=0
note_on channel=1 note=60 velocity=52 time=4
note_on channel=1 note=69 velocity=47 time=12
note_off channel=1 note=62 velocity=64 time=100
note_off channel=1 note=69 velocity=64 time=16
note_off channel=1 note=60 velocity=64 time=0
note_off channel=1 note=66 velocity=64 time=0
note_on channel=1 note=50 velocity=76 time=332
note_off channel=1 note=50 velocity=64 time=200
control_change channel=1 control=64 value=0 time=236
note_on channel=1 note=64 velocity=60 time=60
note_on channel=1 note=66 velocity=46 time=0
note_on channel=1 note=60 velocity=52 time=4
note_on channel=1 note=69 velocity=47 time=12
note_off channel=1 note=64 velocity=64 time=100
note_off channel=1 note=69 velocity=64 time=16
note_off channel=1 note=60 velocity=64 time=0
note_off channel=1 note=66 velocity=64 time=0
note_on channel=1 note=50 velocity=76 time=332
note_off channel=1 note=50 velocity=64 time=200
control_change channel=1 control=64 value=0 time=136
note_on channel=1 note=63 velocity=68 time=20
note_on channel=1 note=67 velocity=70 time=16
control_change channel=1 control=64 value=0 time=64
note_off channel=1 note=63 velocity=64 time=108
note_off channel=1 note=67 velocity=64 time=4
note_on channel=1 note=80 velocity=81 time=243
note_on channel=1 note=75 velocity=81 time=0
note_off channel=1 note=80 velocity=50 time=588
note_off channel=1 note=75 velocity=50 time=0
control_change channel=1 control=64 value=0 time=17
note_on channel=1 note=57 velocity=50 time=12
note_on channel=1 note=59 velocity=50 time=0
note_on channel=1 note=53 velocity=50 time=4
note_on channel=1 note=43 velocity=50 time=4
note_on channel=1 note=81 velocity=81 time=6
note_on channel=1 note=76 velocity=81 time=0
note_off channel=1 note=81 velocity=53 time=142
note_off channel=1 note=76 velocity=53 time=0
note_on channel=1 note=74 velocity=81 time=314
note_off channel=1 note=59 velocity=64 time=118
note_off channel=1 note=53 velocity=64 time=32
note_off channel=1 note=74 velocity=52 time=16
note_off channel=1 note=57 velocity=64 time=36
note_off channel=1 note=43 velocity=64 time=64
control_change channel=1 control=64 value=0 time=112
note_on channel=1 note=80 velocity=81 time=109
note_on channel=1 note=75 velocity=81 time=0
note_on channel=1 note=72 velocity=50 time=331
note_on channel=1 note=64 velocity=50 time=24
note_on channel=1 note=58 velocity=50 time=0
note_on channel=1 note=70 velocity=50 time=20
note_on channel=1 note=68 velocity=50 time=32
note_off channel=1 note=80 velocity=44 time=409
note_off channel=1 note=75 velocity=44 time=0
note_on channel=1 note=81 velocity=81 time=29
note_on channel=1 note=76 velocity=81 time=0
note_off channel=1 note=70 velocity=64 time=106
note_off channel=1 note=68 velocity=64 time=0
note_off channel=1 note=64 velocity=64 time=0
note_off channel=1 note=58 velocity=64 time=0
note_off channel=1 note=72 velocity=64 time=0
control_change channel=1 control=64 value=0 time=0
control_change channel=1 control=64 value=0 time=340
note_off channel=1 note=76 velocity=75 time=159
note_off channel=1 note=81 velocity=75 time=0
note_on channel=1 note=74 velocity=81 time=26
note_off channel=1 note=74 velocity=65 time=260
note_on channel=1 note=77 velocity=81 time=33
note_off channel=1 note=77 velocity=61 time=108
control_change channel=1 control=64 value=0 time=34
control_change channel=1 control=11 value=96 time=0
note_on channel=1 note=68 velocity=75 time=2720
note_on channel=1 note=63 velocity=75 time=0
note_on channel=1 note=57 velocity=75 time=0
note_on channel=1 note=48 velocity=75 time=0
note_on channel=1 note=41 velocity=75 time=0
note_off channel=1 note=68 velocity=64 time=3976
note_off channel=1 note=41 velocity=64 time=0
note_off channel=1 note=48 velocity=64 time=0
note_off channel=1 note=57 velocity=64 time=0
note_off channel=1 note=63 velocity=64 time=0
<meta message end_of_track time=0>
<meta message text text='Alto Sax 1' time=0>
control_change channel=2 control=11 value=127 time=0
control_change channel=2 control=7 value=106 time=0
control_change channel=2 control=10 value=77 time=0
control_change channel=2 control=91 value=94 time=0
control_change channel=2 control=93 value=30 time=0
control_change channel=2 control=0 value=56 time=0
control_change channel=2 control=32 value=0 time=0
program_change channel=2 program=65 time=0
note_on channel=2 note=68 velocity=69 time=9920
note_off channel=2 note=68 velocity=64 time=604
note_on channel=2 note=69 velocity=70 time=36
note_off channel=2 note=69 velocity=64 time=192
note_on channel=2 note=62 velocity=72 time=288
note_off channel=2 note=62 velocity=64 time=192
note_on channel=2 note=68 velocity=74 time=288
note_off channel=2 note=68 velocity=64 time=788
note_on channel=2 note=69 velocity=76 time=12
note_off channel=2 note=69 velocity=64 time=1120
note_on channel=2 note=68 velocity=81 time=320
note_off channel=2 note=68 velocity=64 time=592
note_on channel=2 note=69 velocity=84 time=48
note_off channel=2 note=69 velocity=64 time=180
note_on channel=2 note=62 velocity=85 time=300
note_off channel=2 note=62 velocity=64 time=180
note_on channel=2 note=68 velocity=88 time=300
note_off channel=2 note=68 velocity=64 time=788
note_on channel=2 note=69 velocity=90 time=12
note_off channel=2 note=69 velocity=64 time=604
note_on channel=2 note=62 velocity=93 time=36
note_off channel=2 note=62 velocity=64 time=284
note_on channel=2 note=65 velocity=93 time=36
note_off channel=2 note=65 velocity=64 time=136
control_change channel=2 control=93 value=60 time=34584
note_on channel=2 note=62 velocity=62 time=320
note_off channel=2 note=62 velocity=64 time=148
note_on channel=2 note=68 velocity=75 time=12
note_off channel=2 note=68 velocity=64 time=156
note_on channel=2 note=69 velocity=69 time=324
note_off channel=2 note=69 velocity=64 time=308
note_on channel=2 note=62 velocity=69 time=12
note_off channel=2 note=62 velocity=64 time=112
note_on channel=2 note=68 velocity=76 time=368
note_off channel=2 note=68 velocity=64 time=468
note_on channel=2 note=69 velocity=69 time=12
note_off channel=2 note=69 velocity=64 time=160
note_on channel=2 note=68 velocity=56 time=0
note_on channel=2 note=69 velocity=44 time=160
note_off channel=2 note=68 velocity=64 time=24
note_on channel=2 note=68 velocity=62 time=136
note_off channel=2 note=69 velocity=64 time=24
note_on channel=2 note=69 velocity=69 time=136
note_off channel=2 note=68 velocity=64 time=24
note_off channel=2 note=69 velocity=64 time=284
note_on channel=2 note=62 velocity=69 time=12
note_off channel=2 note=62 velocity=64 time=148
note_on channel=2 note=62 velocity=62 time=812
note_off channel=2 note=62 velocity=64 time=148
note_on channel=2 note=68 velocity=75 time=12
note_off channel=2 note=68 velocity=64 time=156
note_on channel=2 note=69 velocity=69 time=324
note_off channel=2 note=69 velocity=64 time=308
note_on channel=2 note=62 velocity=69 time=12
note_off channel=2 note=62 velocity=64 time=112
note_on channel=2 note=68 velocity=76 time=368
note_off channel=2 note=68 velocity=64 time=468
note_on channel=2 note=69 velocity=69 time=12
note_off channel=2 note=69 velocity=64 time=160
note_on channel=2 note=68 velocity=56 time=0
note_on channel=2 note=69 velocity=44 time=160
note_off channel=2 note=68 velocity=64 time=24
note_on channel=2 note=68 velocity=62 time=136
note_off channel=2 note=69 velocity=64 time=24
note_on channel=2 note=69 velocity=69 time=136
note_off channel=2 note=68 velocity=64 time=24
note_off channel=2 note=69 velocity=64 time=284
note_on channel=2 note=62 velocity=69 time=12
note_off channel=2 note=62 velocity=64 time=148
note_on channel=2 note=62 velocity=62 time=812
note_off channel=2 note=62 velocity=64 time=148
note_on channel=2 note=68 velocity=75 time=12
note_off channel=2 note=68 velocity=64 time=156
note_on channel=2 note=69 velocity=69 time=324
note_off channel=2 note=69 velocity=64 time=308
note_on channel=2 note=62 velocity=69 time=12
note_off channel=2 note=62 velocity=64 time=112
note_on channel=2 note=68 velocity=75 time=368
note_off channel=2 note=68 velocity=64 time=468
note_on channel=2 note=69 velocity=69 time=12
note_off channel=2 note=69 velocity=64 time=160
note_on channel=2 note=68 velocity=56 time=0
note_on channel=2 note=69 velocity=44 time=160
note_off channel=2 note=68 velocity=64 time=24
note_on channel=2 note=68 velocity=62 time=136
note_off channel=2 note=69 velocity=64 time=24
note_on channel=2 note=69 velocity=69 time=136
note_off channel=2 note=68 velocity=64 time=24
note_off channel=2 note=69 velocity=64 time=284
note_on channel=2 note=60 velocity=56 time=12
note_off channel=2 note=60 velocity=64 time=160
note_on channel=2 note=62 velocity=65 time=0
note_off channel=2 note=62 velocity=64 time=320
note_on channel=2 note=67 velocity=69 time=0
control_change channel=2 control=11 value=127 time=232
control_change channel=2 control=11 value=121 time=24
control_change channel=2 control=11 value=115 time=24
control_change channel=2 control=11 value=109 time=24
control_change channel=2 control=11 value=103 time=24
control_change channel=2 control=11 value=96 time=24
control_change channel=2 control=11 value=90 time=24
control_change channel=2 control=11 value=84 time=24
control_change channel=2 control=11 value=84 time=0
control_change channel=2 control=11 value=85 time=120
control_change channel=2 control=11 value=86 time=120
control_change channel=2 control=11 value=88 time=120
control_change channel=2 control=11 value=89 time=120
control_change channel=2 control=11 value=91 time=120
control_change channel=2 control=11 value=93 time=120
control_change channel=2 control=11 value=94 time=120
control_change channel=2 control=11 value=95 time=120
control_change channel=2 control=11 value=96 time=120
control_change channel=2 control=11 value=99 time=120
control_change channel=2 control=11 value=100 time=120
control_change channel=2 control=11 value=101 time=120
control_change channel=2 control=11 value=103 time=120
control_change channel=2 control=11 value=105 time=120
control_change channel=2 control=11 value=104 time=288
control_change channel=2 control=11 value=103 time=264
control_change channel=2 control=11 value=101 time=264
control_change channel=2 control=11 value=100 time=288
control_change channel=2 control=11 value=99 time=264
control_change channel=2 control=11 value=98 time=264
note_off channel=2 note=67 velocity=64 time=216
control_change channel=2 control=11 value=96 time=48
control_change channel=2 control=11 value=127 time=24
control_change channel=2 control=93 value=30 time=0
note_on channel=2 note=58 velocity=69 time=3200
note_off channel=2 note=58 velocity=64 time=160
note_on channel=2 note=61 velocity=81 time=0
note_off channel=2 note=61 velocity=64 time=314
note_on channel=2 note=61 velocity=75 time=6
note_off channel=2 note=61 velocity=64 time=142
note_on channel=2 note=60 velocity=81 time=6
note_off channel=2 note=60 velocity=64 time=132
control_change channel=2 control=93 value=60 time=3720
note_on channel=2 note=62 velocity=62 time=320
note_off channel=2 note=62 velocity=64 time=136
note_on channel=2 note=68 velocity=75 time=24
note_off channel=2 note=68 velocity=64 time=156
note_on channel=2 note=69 velocity=69 time=324
note_off channel=2 note=69 velocity=64 time=308
note_on channel=2 note=62 velocity=69 time=12
note_off channel=2 note=62 velocity=64 time=136
note_on channel=2 note=63 velocity=75 time=344
control_change channel=2 control=11 value=127 time=160
pitchwheel channel=2 pitch=-1 time=9
control_change channel=2 control=11 value=123 time=3
control_change channel=2 control=11 value=119 time=12
pitchwheel channel=2 pitch=-130 time=0
control_change channel=2 control=11 value=114 time=12
control_change channel=2 control=11 value=110 time=12
pitchwheel channel=2 pitch=-323 time=7
control_change channel=2 control=11 value=105 time=5
control_change channel=2 control=11 value=101 time=12
pitchwheel channel=2 pitch=-517 time=0
control_change channel=2 control=11 value=98 time=12
control_change channel=2 control=11 value=93 time=12
control_change channel=2 control=11 value=89 time=12
control_change channel=2 control=11 value=84 time=12
control_change channel=2 control=11 value=84 time=0
pitchwheel channel=2 pitch=-646 time=60
control_change channel=2 control=11 value=88 time=36
pitchwheel channel=2 pitch=-839 time=24
control_change channel=2 control=11 value=91 time=60
control_change channel=2 control=11 value=94 time=60
pitchwheel channel=2 pitch=-646 time=81
control_change channel=2 control=11 value=98 time=15
pitchwheel channel=2 pitch=-517 time=16
pitchwheel channel=2 pitch=-323 time=60
control_change channel=2 control=11 value=101 time=8
pitchwheel channel=2 pitch=-130 time=57
control_change channel=2 control=11 value=104 time=3
pitchwheel channel=2 pitch=-1 time=43
control_change channel=2 control=11 value=108 time=41
pitchwheel channel=2 pitch=0 time=67
control_change channel=2 control=11 value=111 time=29
control_change channel=2 control=11 value=114 time=60
control_change channel=2 control=11 value=118 time=84
control_change channel=2 control=11 value=121 time=96
control_change channel=2 control=11 value=124 time=60
control_change channel=2 control=11 value=127 time=48
note_off channel=2 note=63 velocity=64 time=116
note_on channel=2 note=60 velocity=56 time=36
note_off channel=2 note=60 velocity=64 time=160
note_on channel=2 note=64 velocity=65 time=0
note_off channel=2 note=64 velocity=64 time=308
note_on channel=2 note=65 velocity=69 time=12
note_off channel=2 note=65 velocity=64 time=124
note_on channel=2 note=62 velocity=44 time=916
note_on channel=2 note=61 velocity=55 time=40
note_on channel=2 note=60 velocity=69 time=40
note_off channel=2 note=62 velocity=64 time=8
note_off channel=2 note=61 velocity=64 time=28
note_off channel=2 note=60 velocity=64 time=284
note_on channel=2 note=62 velocity=62 time=0
note_off channel=2 note=62 velocity=64 time=160
note_on channel=2 note=65 velocity=71 time=0
note_off channel=2 note=65 velocity=64 time=320
note_on channel=2 note=68 velocity=74 time=0
pitchwheel channel=2 pitch=-1 time=74
pitchwheel channel=2 pitch=-130 time=14
pitchwheel channel=2 pitch=-388 time=14
pitchwheel channel=2 pitch=-775 time=17
pitchwheel channel=2 pitch=-1033 time=15
pitchwheel channel=2 pitch=-1162 time=16
pitchwheel channel=2 pitch=-1355 time=15
pitchwheel channel=2 pitch=-1549 time=31
pitchwheel channel=2 pitch=-1355 time=108
pitchwheel channel=2 pitch=-1162 time=46
pitchwheel channel=2 pitch=-904 time=31
pitchwheel channel=2 pitch=-775 time=31
pitchwheel channel=2 pitch=-581 time=17
pitchwheel channel=2 pitch=-388 time=14
pitchwheel channel=2 pitch=-130 time=31
pitchwheel channel=2 pitch=-1 time=15
pitchwheel channel=2 pitch=0 time=31
note_off channel=2 note=68 velocity=64 time=108
note_on channel=2 note=65 velocity=75 time=12
note_off channel=2 note=65 velocity=64 time=320
note_on channel=2 note=63 velocity=81 time=0
control_change channel=2 control=11 value=127 time=160
control_change channel=2 control=11 value=124 time=120
control_change channel=2 control=11 value=121 time=96
control_change channel=2 control=11 value=119 time=120
control_change channel=2 control=11 value=116 time=96
control_change channel=2 control=11 value=114 time=120
control_change channel=2 control=11 value=111 time=72
control_change channel=2 control=11 value=109 time=120
control_change channel=2 control=11 value=106 time=96
note_off channel=2 note=63 velocity=64 time=72
control_change channel=2 control=11 value=104 time=24
control_change channel=2 control=11 value=127 time=24
control_change channel=2 control=93 value=30 time=0
note_on channel=2 note=64 velocity=69 time=0
note_off channel=2 note=64 velocity=64 time=156
note_on channel=2 note=64 velocity=69 time=324
note_off channel=2 note=64 velocity=64 time=308
note_on channel=2 note=62 velocity=69 time=12
note_off channel=2 note=62 velocity=64 time=148
note_on channel=2 note=64 velocity=62 time=12
note_off channel=2 note=64 velocity=64 time=68
note_on channel=2 note=64 velocity=69 time=12
note_off channel=2 note=64 velocity=64 time=80
note_on channel=2 note=63 velocity=69 time=320
note_off channel=2 note=63 velocity=64 time=320
control_change channel=2 control=11 value=104 time=0
note_on channel=2 note=62 velocity=75 time=0
control_change channel=2 control=11 value=105 time=100
control_change channel=2 control=11 value=108 time=80
control_change channel=2 control=11 value=109 time=100
control_change channel=2 control=11 value=111 time=100
control_change channel=2 control=11 value=114 time=90
control_change channel=2 control=11 value=115 time=100
control_change channel=2 control=11 value=118 time=70
control_change channel=2 control=11 value=119 time=100
control_change channel=2 control=11 value=121 time=100
control_change channel=2 control=11 value=124 time=90
control_change channel=2 control=11 value=125 time=100
control_change channel=2 control=11 value=127 time=10
note_off channel=2 note=62 velocity=64 time=92
note_on channel=2 note=68 velocity=76 time=308
note_on channel=2 note=67 velocity=40 time=112
note_on channel=2 note=66 velocity=28 time=40
note_off channel=2 note=68 velocity=64 time=4
note_off channel=2 note=67 velocity=64 time=8
note_on channel=2 note=65 velocity=17 time=28
note_off channel=2 note=66 velocity=64 time=12
note_off channel=2 note=65 velocity=64 time=40
note_on channel=2 note=67 velocity=75 time=236
note_off channel=2 note=67 velocity=64 time=604
note_on channel=2 note=67 velocity=69 time=36
note_off channel=2 note=67 velocity=64 time=308
note_on channel=2 note=67 velocity=57 time=12
note_off channel=2 note=67 velocity=64 time=148
note_on channel=2 note=67 velocity=69 time=12
note_off channel=2 note=67 velocity=64 time=296
note_on channel=2 note=65 velocity=69 time=24
note_off channel=2 note=65 velocity=64 time=168
note_on channel=2 note=64 velocity=69 time=312
control_change channel=2 control=11 value=127 time=160
control_change channel=2 control=11 value=124 time=96
control_change channel=2 control=11 value=121 time=72
control_change channel=2 control=11 value=118 time=120
control_change channel=2 control=11 value=115 time=72
control_change channel=2 control=11 value=111 time=120
control_change channel=2 control=11 value=108 time=120
control_change channel=2 control=11 value=105 time=72
control_change channel=2 control=11 value=101 time=120
note_off channel=2 note=64 velocity=64 time=108
control_change channel=2 control=11 value=98 time=12
control_change channel=2 control=11 value=96 time=24
control_change channel=2 control=11 value=127 time=24
control_change channel=2 control=93 value=60 time=0
note_on channel=2 note=64 velocity=81 time=320
note_off channel=2 note=64 velocity=64 time=148
note_on channel=2 note=62 velocity=69 time=12
note_off channel=2 note=62 velocity=64 time=296
note_on channel=2 note=57 velocity=75 time=24
control_change channel=2 control=11 value=127 time=160
control_change channel=2 control=11 value=119 time=24
control_change channel=2 control=11 value=111 time=24
control_change channel=2 control=11 value=104 time=24
control_change channel=2 control=11 value=96 time=24
control_change channel=2 control=11 value=89 time=24
control_change channel=2 control=11 value=89 time=0
control_change channel=2 control=11 value=93 time=120
control_change channel=2 control=11 value=96 time=96
control_change channel=2 control=11 value=99 time=72
control_change channel=2 control=11 value=103 time=96
control_change channel=2 control=11 value=106 time=120
control_change channel=2 control=11 value=109 time=48
control_change channel=2 control=11 value=113 time=120
control_change channel=2 control=11 value=116 time=96
control_change channel=2 control=11 value=119 time=72
control_change channel=2 control=11 value=123 time=96
control_change channel=2 control=11 value=127 time=96
note_off channel=2 note=57 velocity=64 time=104
note_on channel=2 note=64 velocity=81 time=24
note_off channel=2 note=64 velocity=64 time=148
note_on channel=2 note=62 velocity=69 time=12
note_off channel=2 note=62 velocity=64 time=296
note_on channel=2 note=57 velocity=75 time=24
control_change channel=2 control=11 value=127 time=160
control_change channel=2 control=11 value=119 time=24
control_change channel=2 control=11 value=111 time=24
control_change channel=2 control=11 value=104 time=24
control_change channel=2 control=11 value=96 time=24
control_change channel=2 control=11 value=89 time=24
control_change channel=2 control=11 value=89 time=0
control_change channel=2 control=11 value=93 time=120
control_change channel=2 control=11 value=96 time=96
control_change channel=2 control=11 value=99 time=72
control_change channel=2 control=11 value=103 time=96
control_change channel=2 control=11 value=106 time=120
control_change channel=2 control=11 value=109 time=48
control_change channel=2 control=11 value=113 time=120
control_change channel=2 control=11 value=116 time=96
control_change channel=2 control=11 value=119 time=72
control_change channel=2 control=11 value=123 time=96
control_change channel=2 control=11 value=127 time=96
note_off channel=2 note=57 velocity=64 time=104
note_on channel=2 note=62 velocity=81 time=24
note_off channel=2 note=62 velocity=64 time=148
note_on channel=2 note=60 velocity=69 time=12
note_off channel=2 note=60 velocity=64 time=296
note_on channel=2 note=55 velocity=75 time=24
control_change channel=2 control=11 value=127 time=232
control_change channel=2 control=11 value=121 time=24
control_change channel=2 control=11 value=115 time=24
control_change channel=2 control=11 value=109 time=24
control_change channel=2 control=11 value=103 time=24
control_change channel=2 control=11 value=96 time=24
control_change channel=2 control=11 value=90 time=24
control_change channel=2 control=11 value=85 time=24
control_change channel=2 control=11 value=84 time=0
control_change channel=2 control=11 value=84 time=0
control_change channel=2 control=11 value=85 time=120
control_change channel=2 control=11 value=88 time=120
control_change channel=2 control=11 value=89 time=120
control_change channel=2 control=11 value=91 time=120
control_change channel=2 control=11 value=94 time=120
control_change channel=2 control=11 value=95 time=120
control_change channel=2 control=11 value=98 time=120
control_change channel=2 control=11 value=99 time=120
control_change channel=2 control=11 value=101 time=120
control_change channel=2 control=11 value=104 time=120
control_change channel=2 control=11 value=105 time=120
control_change channel=2 control=11 value=108 time=120
control_change channel=2 control=11 value=109 time=120
control_change channel=2 control=11 value=111 time=120
control_change channel=2 control=11 value=114 time=120
control_change channel=2 control=11 value=115 time=120
control_change channel=2 control=11 value=118 time=120
control_change channel=2 control=11 value=119 time=120
control_change channel=2 control=11 value=121 time=120
control_change channel=2 control=11 value=124 time=120
control_change channel=2 control=11 value=125 time=120
control_change channel=2 control=11 value=127 time=24
note_off channel=2 note=55 velocity=64 time=368
control_change channel=2 control=93 value=30 time=40
note_on channel=2 note=65 velocity=75 time=8
note_off channel=2 note=65 velocity=64 time=616
note_on channel=2 note=60 velocity=69 time=24
note_off channel=2 note=60 velocity=64 time=296
note_on channel=2 note=60 velocity=70 time=24
note_off channel=2 note=60 velocity=64 time=136
control_change channel=2 control=93 value=60 time=12984
note_on channel=2 note=68 velocity=88 time=960
note_off channel=2 note=68 velocity=64 time=308
note_on channel=2 note=69 velocity=88 time=12
note_off channel=2 note=69 velocity=64 time=180
note_on channel=2 note=74 velocity=88 time=300
note_off channel=2 note=74 velocity=64 time=1072
note_on channel=2 note=68 velocity=88 time=48
note_off channel=2 note=68 velocity=64 time=308
note_on channel=2 note=69 velocity=88 time=12
note_off channel=2 note=69 velocity=64 time=180
note_on channel=2 note=62 velocity=88 time=300
note_off channel=2 note=62 velocity=64 time=1072
note_on channel=2 note=68 velocity=88 time=48
note_off channel=2 note=68 velocity=64 time=180
note_on channel=2 note=69 velocity=88 time=300
note_off channel=2 note=69 velocity=64 time=180
note_on channel=2 note=74 velocity=88 time=300
note_off channel=2 note=74 velocity=64 time=912
note_on channel=2 note=68 velocity=88 time=48
note_off channel=2 note=68 velocity=64 time=308
note_on channel=2 note=69 velocity=88 time=12
note_off channel=2 note=69 velocity=64 time=180
note_on channel=2 note=62 velocity=88 time=300
note_off channel=2 note=62 velocity=64 time=1072
note_on channel=2 note=68 velocity=88 time=48
note_off channel=2 note=68 velocity=64 time=180
note_on channel=2 note=69 velocity=88 time=300
note_off channel=2 note=69 velocity=64 time=180
note_on channel=2 note=74 velocity=88 time=300
note_off channel=2 note=74 velocity=64 time=912
note_on channel=2 note=76 velocity=88 time=48
note_off channel=2 note=76 velocity=64 time=308
note_on channel=2 note=74 velocity=88 time=12
note_off channel=2 note=74 velocity=64 time=180
note_on channel=2 note=62 velocity=88 time=300
note_off channel=2 note=62 velocity=64 time=1072
note_on channel=2 note=62 velocity=88 time=48
note_off channel=2 note=62 velocity=64 time=320
note_on channel=2 note=65 velocity=81 time=0
note_off channel=2 note=65 velocity=64 time=160
note_on channel=2 note=68 velocity=88 time=0
note_off channel=2 note=68 velocity=64 time=320
note_on channel=2 note=67 velocity=88 time=0
control_change channel=2 control=11 value=127 time=160
control_change channel=2 control=11 value=125 time=120
control_change channel=2 control=11 value=124 time=120
control_change channel=2 control=11 value=123 time=120
control_change channel=2 control=11 value=121 time=120
control_change channel=2 control=11 value=120 time=120
control_change channel=2 control=11 value=119 time=120
control_change channel=2 control=11 value=118 time=120
control_change channel=2 control=11 value=115 time=120
control_change channel=2 control=11 value=114 time=120
control_change channel=2 control=11 value=113 time=120
control_change channel=2 control=11 value=111 time=120
control_change channel=2 control=11 value=110 time=120
control_change channel=2 control=11 value=109 time=120
control_change channel=2 control=11 value=108 time=120
control_change channel=2 control=11 value=105 time=120
note_off channel=2 note=67 velocity=64 time=72
control_change channel=2 control=11 value=104 time=24
control_change channel=2 control=11 value=127 time=24
control_change channel=2 control=93 value=30 time=0
note_on channel=2 note=68 velocity=81 time=480
note_off channel=2 note=68 velocity=64 time=308
note_on channel=2 note=68 velocity=81 time=12
note_off channel=2 note=68 velocity=64 time=204
note_on channel=2 note=65 velocity=69 time=276
note_off channel=2 note=65 velocity=64 time=160
note_on channel=2 note=68 velocity=81 time=0
note_off channel=2 note=68 velocity=64 time=320
note_on channel=2 note=68 velocity=75 time=0
note_off channel=2 note=68 velocity=64 time=148
note_on channel=2 note=65 velocity=81 time=12
note_off channel=2 note=65 velocity=64 time=308
note_on channel=2 note=62 velocity=81 time=12
note_off channel=2 note=62 velocity=64 time=148
note_on channel=2 note=62 velocity=81 time=1932
note_off channel=2 note=62 velocity=64 time=180
note_on channel=2 note=64 velocity=81 time=300
note_off channel=2 note=64 velocity=64 time=308
note_on channel=2 note=65 velocity=81 time=12
note_off channel=2 note=65 velocity=64 time=192
note_on channel=2 note=72 velocity=81 time=288
note_on channel=2 note=74 velocity=59 time=1440
note_off channel=2 note=72 velocity=64 time=16
note_on channel=2 note=73 velocity=70 time=64
note_off channel=2 note=74 velocity=64 time=24
note_on channel=2 note=69 velocity=81 time=56
note_off channel=2 note=73 velocity=64 time=24
note_off channel=2 note=69 velocity=64 time=296
note_on channel=2 note=64 velocity=81 time=0
pitchwheel channel=2 pitch=0 time=160
control_change channel=2 control=11 value=127 time=0
pitchwheel channel=2 pitch=242 time=12
control_change channel=2 control=11 value=124 time=72
control_change channel=2 control=11 value=121 time=72
pitchwheel channel=2 pitch=0 time=48
control_change channel=2 control=11 value=119 time=60
control_change channel=2 control=11 value=116 time=48
pitchwheel channel=2 pitch=-82 time=36
control_change channel=2 control=11 value=114 time=72
pitchwheel channel=2 pitch=-244 time=24
control_change channel=2 control=11 value=111 time=24
pitchwheel channel=2 pitch=-407 time=48
pitchwheel channel=2 pitch=-569 time=60
control_change channel=2 control=11 value=109 time=0
control_change channel=2 control=11 value=106 time=48
pitchwheel channel=2 pitch=-731 time=12
pitchwheel channel=2 pitch=-893 time=36
pitchwheel channel=2 pitch=-1055 time=48
control_change channel=2 control=11 value=104 time=12
pitchwheel channel=2 pitch=-1218 time=24
pitchwheel channel=2 pitch=-1380 time=24
control_change channel=2 control=11 value=101 time=0
pitchwheel channel=2 pitch=-1542 time=36
pitchwheel channel=2 pitch=-1704 time=24
pitchwheel channel=2 pitch=-1866 time=12
pitchwheel channel=2 pitch=-2029 time=24
pitchwheel channel=2 pitch=-2191 time=12
control_change channel=2 control=11 value=99 time=0
pitchwheel channel=2 pitch=-2353 time=12
pitchwheel channel=2 pitch=-2515 time=12
note_off channel=2 note=64 velocity=64 time=12
pitchwheel channel=2 pitch=-2840 time=0
control_change channel=2 control=11 value=96 time=12
control_change channel=2 control=11 value=127 time=24
pitchwheel channel=2 pitch=0 time=0
note_on channel=2 note=67 velocity=81 time=1280
note_off channel=2 note=67 velocity=64 time=616
note_on channel=2 note=69 velocity=81 time=24
note_off channel=2 note=69 velocity=64 time=192
note_on channel=2 note=70 velocity=81 time=288
note_off channel=2 note=70 velocity=64 time=308
note_on channel=2 note=69 velocity=81 time=12
note_off channel=2 note=69 velocity=64 time=148
note_on channel=2 note=69 velocity=81 time=332
note_off channel=2 note=69 velocity=64 time=192
note_on channel=2 note=67 velocity=75 time=288
note_off channel=2 note=67 velocity=64 time=160
note_on channel=2 note=65 velocity=81 time=0
note_off channel=2 note=65 velocity=64 time=468
note_on channel=2 note=64 velocity=81 time=12
note_off channel=2 note=64 velocity=64 time=168
note_on channel=2 note=74 velocity=88 time=792
note_off channel=2 note=74 velocity=64 time=924
note_on channel=2 note=72 velocity=81 time=36
note_off channel=2 note=72 velocity=64 time=192
control_change channel=2 control=11 value=104 time=288
note_on channel=2 note=70 velocity=88 time=0
control_change channel=2 control=11 value=106 time=108
control_change channel=2 control=11 value=109 time=108
note_off channel=2 note=70 velocity=64 time=104
note_on channel=2 note=72 velocity=88 time=0
control_change channel=2 control=11 value=111 time=4
control_change channel=2 control=11 value=114 time=108
control_change channel=2 control=11 value=116 time=108
control_change channel=2 control=11 value=119 time=108
control_change channel=2 control=11 value=121 time=108
control_change channel=2 control=11 value=124 time=108
note_off channel=2 note=72 velocity=64 time=72
control_change channel=2 control=11 value=127 time=24
control_change channel=2 control=11 value=127 time=0
note_on channel=2 note=69 velocity=88 time=0
control_change channel=2 control=11 value=124 time=84
control_change channel=2 control=11 value=121 time=84
control_change channel=2 control=11 value=119 time=108
note_off channel=2 note=69 velocity=64 time=44
note_on channel=2 note=63 velocity=88 time=0
control_change channel=2 control=11 value=116 time=4
control_change channel=2 control=11 value=114 time=108
control_change channel=2 control=11 value=111 time=48
control_change channel=2 control=11 value=109 time=108
control_change channel=2 control=11 value=106 time=60
control_change channel=2 control=11 value=104 time=108
control_change channel=2 control=11 value=101 time=48
note_off channel=2 note=63 velocity=64 time=108
control_change channel=2 control=11 value=99 time=0
control_change channel=2 control=11 value=127 time=48
control_change channel=2 control=11 value=96 time=0
control_change channel=2 control=93 value=60 time=0
control_change channel=2 control=11 value=127 time=12
note_on channel=2 note=62 velocity=62 time=308
note_off channel=2 note=62 velocity=64 time=148
note_on channel=2 note=68 velocity=75 time=12
note_off channel=2 note=68 velocity=64 time=156
note_on channel=2 note=69 velocity=69 time=324
note_off channel=2 note=69 velocity=64 time=308
note_on channel=2 note=62 velocity=69 time=12
note_off channel=2 note=62 velocity=64 time=112
note_on channel=2 note=68 velocity=76 time=368
note_off channel=2 note=68 velocity=64 time=468
note_on channel=2 note=69 velocity=69 time=12
note_off channel=2 note=69 velocity=64 time=160
note_on channel=2 note=68 velocity=56 time=0
note_on channel=2 note=69 velocity=44 time=160
note_off channel=2 note=68 velocity=64 time=24
note_on channel=2 note=68 velocity=62 time=136
note_off channel=2 note=69 velocity=64 time=24
note_on channel=2 note=69 velocity=69 time=136
note_off channel=2 note=68 velocity=64 time=24
note_off channel=2 note=69 velocity=64 time=284
note_on channel=2 note=62 velocity=69 time=12
note_off channel=2 note=62 velocity=64 time=148
note_on channel=2 note=62 velocity=62 time=812
note_off channel=2 note=62 velocity=64 time=148
note_on channel=2 note=68 velocity=75 time=12
note_off channel=2 note=68 velocity=64 time=156
note_on channel=2 note=69 velocity=69 time=324
note_off channel=2 note=69 velocity=64 time=308
note_on channel=2 note=62 velocity=69 time=12
note_off channel=2 note=62 velocity=64 time=112
note_on channel=2 note=68 velocity=76 time=368
note_off channel=2 note=68 velocity=64 time=468
note_on channel=2 note=69 velocity=69 time=12
note_off channel=2 note=69 velocity=64 time=160
note_on channel=2 note=68 velocity=56 time=0
note_on channel=2 note=69 velocity=44 time=160
note_off channel=2 note=68 velocity=64 time=24
note_on channel=2 note=68 velocity=62 time=136
note_off channel=2 note=69 velocity=64 time=24
note_on channel=2 note=69 velocity=69 time=136
note_off channel=2 note=68 velocity=64 time=24
note_off channel=2 note=69 velocity=64 time=284
note_on channel=2 note=62 velocity=69 time=12
note_off channel=2 note=62 velocity=64 time=148
note_on channel=2 note=62 velocity=62 time=812
note_off channel=2 note=62 velocity=64 time=148
note_on channel=2 note=68 velocity=75 time=12
note_off channel=2 note=68 velocity=64 time=156
note_on channel=2 note=69 velocity=69 time=324
note_off channel=2 note=69 velocity=64 time=308
note_on channel=2 note=62 velocity=69 time=12
note_off channel=2 note=62 velocity=64 time=112
note_on channel=2 note=68 velocity=75 time=368
note_off channel=2 note=68 velocity=64 time=468
note_on channel=2 note=69 velocity=69 time=12
note_off channel=2 note=69 velocity=64 time=160
note_on channel=2 note=68 velocity=56 time=0
note_on channel=2 note=69 velocity=44 time=160
note_off channel=2 note=68 velocity=64 time=24
note_on channel=2 note=68 velocity=62 time=136
note_off channel=2 note=69 velocity=64 time=24
note_on channel=2 note=69 velocity=69 time=136
note_off channel=2 note=68 velocity=64 time=24
note_off channel=2 note=69 velocity=64 time=284
note_on channel=2 note=60 velocity=56 time=12
note_off channel=2 note=60 velocity=64 time=160
note_on channel=2 note=62 velocity=65 time=0
note_off channel=2 note=62 velocity=64 time=320
note_on channel=2 note=67 velocity=69 time=0
control_change channel=2 control=11 value=127 time=232
control_change channel=2 control=11 value=121 time=24
control_change channel=2 control=11 value=115 time=24
control_change channel=2 control=11 value=109 time=24
control_change channel=2 control=11 value=103 time=24
control_change channel=2 control=11 value=96 time=24
control_change channel=2 control=11 value=90 time=24
control_change channel=2 control=11 value=84 time=24
control_change channel=2 control=11 value=84 time=0
control_change channel=2 control=11 value=84 time=0
control_change channel=2 control=11 value=84 time=0
control_change channel=2 control=11 value=85 time=120
control_change channel=2 control=11 value=88 time=120
control_change channel=2 control=11 value=89 time=120
control_change channel=2 control=11 value=91 time=120
control_change channel=2 control=11 value=93 time=120
control_change channel=2 control=11 value=95 time=120
control_change channel=2 control=11 value=96 time=120
control_change channel=2 control=11 value=99 time=96
control_change channel=2 control=11 value=100 time=120
control_change channel=2 control=11 value=103 time=120
control_change channel=2 control=11 value=104 time=120
control_change channel=2 control=11 value=106 time=120
control_change channel=2 control=11 value=108 time=120
control_change channel=2 control=11 value=110 time=120
control_change channel=2 control=11 value=111 time=120
control_change channel=2 control=11 value=114 time=96
control_change channel=2 control=11 value=115 time=120
control_change channel=2 control=11 value=118 time=120
control_change channel=2 control=11 value=119 time=120
control_change channel=2 control=11 value=121 time=120
control_change channel=2 control=11 value=123 time=120
control_change channel=2 control=11 value=125 time=120
control_change channel=2 control=11 value=127 time=48
note_on channel=2 note=66 velocity=21 time=320
note_off channel=2 note=67 velocity=64 time=40
note_on channel=2 note=65 velocity=31 time=0
note_on channel=2 note=64 velocity=44 time=40
note_off channel=2 note=66 velocity=64 time=8
note_on channel=2 note=63 velocity=54 time=32
note_off channel=2 note=65 velocity=64 time=8
note_on channel=2 note=62 velocity=75 time=32
note_off channel=2 note=64 velocity=64 time=8
note_off channel=2 note=63 velocity=64 time=40
note_off channel=2 note=62 velocity=64 time=272
control_change channel=2 control=11 value=104 time=0
note_on channel=2 note=65 velocity=81 time=0
control_change channel=2 control=11 value=105 time=120
control_change channel=2 control=11 value=106 time=110
control_change channel=2 control=11 value=108 time=110
control_change channel=2 control=11 value=109 time=110
control_change channel=2 control=11 value=110 time=110
control_change channel=2 control=11 value=111 time=110
control_change channel=2 control=11 value=113 time=110
control_change channel=2 control=11 value=114 time=110
control_change channel=2 control=11 value=115 time=110
control_change channel=2 control=11 value=116 time=120
control_change channel=2 control=11 value=118 time=110
control_change channel=2 control=11 value=119 time=110
control_change channel=2 control=11 value=120 time=110
control_change channel=2 control=11 value=121 time=110
control_change channel=2 control=11 value=123 time=110
control_change channel=2 control=11 value=124 time=110
control_change channel=2 control=11 value=125 time=110
control_change channel=2 control=11 value=127 time=110
note_off channel=2 note=65 velocity=64 time=32
control_change channel=2 control=93 value=30 time=48
note_on channel=2 note=68 velocity=81 time=0
note_off channel=2 note=68 velocity=64 time=456
note_on channel=2 note=70 velocity=81 time=24
note_off channel=2 note=70 velocity=64 time=308
note_on channel=2 note=72 velocity=81 time=12
note_off channel=2 note=72 velocity=64 time=148
note_on channel=2 note=60 velocity=81 time=812
note_off channel=2 note=60 velocity=64 time=616
note_on channel=2 note=62 velocity=81 time=24
note_off channel=2 note=62 velocity=64 time=308
note_on channel=2 note=60 velocity=69 time=12
note_off channel=2 note=60 velocity=64 time=148
note_on channel=2 note=65 velocity=81 time=12
note_off channel=2 note=65 velocity=64 time=296
note_on channel=2 note=67 velocity=81 time=24
note_off channel=2 note=67 velocity=64 time=180
note_on channel=2 note=69 velocity=81 time=300
note_off channel=2 note=69 velocity=64 time=616
note_on channel=2 note=72 velocity=81 time=24
note_off channel=2 note=72 velocity=64 time=308
note_on channel=2 note=70 velocity=81 time=12
note_off channel=2 note=70 velocity=64 time=136
note_on channel=2 note=68 velocity=81 time=1304
note_off channel=2 note=68 velocity=64 time=580
note_on channel=2 note=69 velocity=81 time=60
note_off channel=2 note=69 velocity=64 time=168
note_on channel=2 note=62 velocity=81 time=312
note_off channel=2 note=62 velocity=64 time=168
note_on channel=2 note=68 velocity=81 time=312
note_off channel=2 note=68 velocity=64 time=794
note_on channel=2 note=69 velocity=81 time=6
note_off channel=2 note=69 velocity=64 time=1072
note_on channel=2 note=68 velocity=81 time=368
note_off channel=2 note=68 velocity=64 time=592
note_on channel=2 note=69 velocity=81 time=48
note_off channel=2 note=69 velocity=64 time=180
note_on channel=2 note=62 velocity=81 time=300
note_off channel=2 note=62 velocity=64 time=180
note_on channel=2 note=68 velocity=81 time=300
note_off channel=2 note=68 velocity=64 time=794
note_on channel=2 note=69 velocity=81 time=6
note_off channel=2 note=69 velocity=64 time=1072
<meta message end_of_track time=0>
<meta message text text='Alto Sax 2' time=0>
control_change channel=3 control=11 value=127 time=0
control_change channel=3 control=7 value=106 time=0
control_change channel=3 control=10 value=88 time=0
control_change channel=3 control=91 value=88 time=0
control_change channel=3 control=93 value=25 time=0
control_change channel=3 control=0 value=56 time=0
control_change channel=3 control=32 value=0 time=0
program_change channel=3 program=65 time=0
note_on channel=3 note=63 velocity=62 time=9920
note_off channel=3 note=63 velocity=64 time=604
note_on channel=3 note=64 velocity=64 time=36
note_off channel=3 note=64 velocity=64 time=192
note_on channel=3 note=63 velocity=67 time=768
note_off channel=3 note=63 velocity=64 time=788
note_on channel=3 note=64 velocity=70 time=12
note_off channel=3 note=64 velocity=64 time=1120
note_on channel=3 note=63 velocity=75 time=320
note_off channel=3 note=63 velocity=64 time=592
note_on channel=3 note=64 velocity=77 time=48
note_off channel=3 note=64 velocity=64 time=180
note_on channel=3 note=57 velocity=79 time=300
note_off channel=3 note=57 velocity=64 time=180
note_on channel=3 note=63 velocity=80 time=300
note_off channel=3 note=63 velocity=64 time=788
note_on channel=3 note=64 velocity=84 time=12
note_off channel=3 note=64 velocity=64 time=604
note_on channel=3 note=58 velocity=85 time=36
note_off channel=3 note=58 velocity=64 time=284
note_on channel=3 note=62 velocity=86 time=36
note_off channel=3 note=62 velocity=64 time=136
control_change channel=3 control=0 value=56 time=34584
control_change channel=3 control=32 value=0 time=0
program_change channel=3 program=73 time=0
note_on channel=3 note=86 velocity=56 time=3200
note_off channel=3 note=86 velocity=64 time=136
note_on channel=3 note=84 velocity=50 time=24
note_off channel=3 note=84 velocity=64 time=296
note_on channel=3 note=81 velocity=45 time=24
note_off channel=3 note=81 velocity=64 time=136
note_on channel=3 note=86 velocity=56 time=3224
note_off channel=3 note=86 velocity=64 time=136
note_on channel=3 note=84 velocity=50 time=24
note_off channel=3 note=84 velocity=64 time=296
note_on channel=3 note=81 velocity=45 time=24
note_off channel=3 note=81 velocity=64 time=136
control_change channel=3 control=0 value=56 time=24
control_change channel=3 control=32 value=0 time=0
program_change channel=3 program=65 time=0
note_on channel=3 note=55 velocity=62 time=10880
note_off channel=3 note=55 velocity=64 time=160
note_on channel=3 note=58 velocity=75 time=0
note_off channel=3 note=58 velocity=64 time=314
note_on channel=3 note=58 velocity=69 time=6
note_off channel=3 note=58 velocity=64 time=142
note_on channel=3 note=57 velocity=75 time=6
note_off channel=3 note=57 velocity=64 time=132
control_change channel=3 control=11 value=127 time=11400
note_on channel=3 note=59 velocity=62 time=0
note_off channel=3 note=59 velocity=64 time=156
note_on channel=3 note=59 velocity=62 time=324
note_off channel=3 note=59 velocity=64 time=308
note_on channel=3 note=59 velocity=62 time=12
note_off channel=3 note=59 velocity=64 time=148
note_on channel=3 note=59 velocity=56 time=12
note_off channel=3 note=59 velocity=64 time=68
note_on channel=3 note=59 velocity=62 time=12
note_off channel=3 note=59 velocity=64 time=80
note_on channel=3 note=59 velocity=65 time=320
note_off channel=3 note=59 velocity=64 time=320
control_change channel=3 control=11 value=104 time=0
note_on channel=3 note=58 velocity=67 time=0
control_change channel=3 control=11 value=105 time=100
control_change channel=3 control=11 value=108 time=80
control_change channel=3 control=11 value=109 time=100
control_change channel=3 control=11 value=111 time=100
control_change channel=3 control=11 value=114 time=90
control_change channel=3 control=11 value=115 time=100
control_change channel=3 control=11 value=118 time=70
control_change channel=3 control=11 value=119 time=100
control_change channel=3 control=11 value=121 time=100
control_change channel=3 control=11 value=124 time=90
control_change channel=3 control=11 value=125 time=100
control_change channel=3 control=11 value=127 time=10
note_off channel=3 note=58 velocity=64 time=92
note_on channel=3 note=64 velocity=69 time=308
note_on channel=3 note=63 velocity=40 time=112
note_on channel=3 note=62 velocity=28 time=40
note_off channel=3 note=64 velocity=64 time=4
note_off channel=3 note=63 velocity=64 time=8
note_on channel=3 note=61 velocity=17 time=28
note_off channel=3 note=62 velocity=64 time=12
note_off channel=3 note=61 velocity=64 time=40
note_on channel=3 note=62 velocity=70 time=236
note_off channel=3 note=62 velocity=64 time=604
note_on channel=3 note=62 velocity=62 time=36
note_off channel=3 note=62 velocity=64 time=308
note_on channel=3 note=60 velocity=50 time=12
note_off channel=3 note=60 velocity=64 time=148
note_on channel=3 note=62 velocity=62 time=12
note_off channel=3 note=62 velocity=64 time=296
note_on channel=3 note=61 velocity=62 time=24
note_off channel=3 note=61 velocity=64 time=168
note_on channel=3 note=60 velocity=62 time=312
control_change channel=3 control=11 value=127 time=160
control_change channel=3 control=11 value=124 time=96
control_change channel=3 control=11 value=121 time=72
control_change channel=3 control=11 value=118 time=120
control_change channel=3 control=11 value=115 time=72
control_change channel=3 control=11 value=111 time=120
control_change channel=3 control=11 value=108 time=120
control_change channel=3 control=11 value=105 time=72
control_change channel=3 control=11 value=101 time=120
note_off channel=3 note=60 velocity=64 time=108
control_change channel=3 control=11 value=98 time=12
control_change channel=3 control=11 value=96 time=24
control_change channel=3 control=11 value=127 time=24
note_on channel=3 note=63 velocity=69 time=8000
note_off channel=3 note=63 velocity=64 time=616
note_on channel=3 note=55 velocity=62 time=24
note_off channel=3 note=55 velocity=64 time=296
note_on channel=3 note=55 velocity=62 time=24
note_off channel=3 note=55 velocity=64 time=136
note_on channel=3 note=65 velocity=75 time=28824
note_off channel=3 note=65 velocity=64 time=308
note_on channel=3 note=65 velocity=75 time=12
note_off channel=3 note=65 velocity=64 time=204
note_on channel=3 note=63 velocity=62 time=276
note_off channel=3 note=63 velocity=64 time=160
note_on channel=3 note=65 velocity=75 time=0
note_off channel=3 note=65 velocity=64 time=320
note_on channel=3 note=65 velocity=69 time=0
note_off channel=3 note=65 velocity=64 time=148
note_on channel=3 note=62 velocity=75 time=12
note_off channel=3 note=62 velocity=64 time=308
note_on channel=3 note=58 velocity=75 time=12
note_off channel=3 note=58 velocity=64 time=148
note_on channel=3 note=59 velocity=75 time=1932
note_off channel=3 note=59 velocity=64 time=180
note_on channel=3 note=62 velocity=75 time=300
note_off channel=3 note=62 velocity=64 time=308
note_on channel=3 note=62 velocity=75 time=12
note_off channel=3 note=62 velocity=64 time=192
note_on channel=3 note=64 velocity=75 time=288
note_on channel=3 note=66 velocity=54 time=1440
note_off channel=3 note=64 velocity=64 time=16
note_on channel=3 note=65 velocity=62 time=64
note_off channel=3 note=66 velocity=64 time=24
note_on channel=3 note=64 velocity=74 time=56
note_off channel=3 note=65 velocity=64 time=24
note_off channel=3 note=64 velocity=64 time=284
note_on channel=3 note=60 velocity=75 time=12
pitchwheel channel=3 pitch=0 time=160
control_change channel=3 control=11 value=127 time=0
pitchwheel channel=3 pitch=242 time=12
control_change channel=3 control=11 value=124 time=72
control_change channel=3 control=11 value=121 time=72
pitchwheel channel=3 pitch=0 time=48
control_change channel=3 control=11 value=119 time=60
control_change channel=3 control=11 value=116 time=48
pitchwheel channel=3 pitch=-82 time=36
control_change channel=3 control=11 value=114 time=72
pitchwheel channel=3 pitch=-244 time=24
control_change channel=3 control=11 value=111 time=24
pitchwheel channel=3 pitch=-407 time=48
pitchwheel channel=3 pitch=-569 time=60
control_change channel=3 control=11 value=109 time=0
control_change channel=3 control=11 value=106 time=48
pitchwheel channel=3 pitch=-731 time=12
pitchwheel channel=3 pitch=-893 time=36
pitchwheel channel=3 pitch=-1055 time=48
control_change channel=3 control=11 value=104 time=12
pitchwheel channel=3 pitch=-1218 time=24
pitchwheel channel=3 pitch=-1380 time=24
control_change channel=3 control=11 value=101 time=0
pitchwheel channel=3 pitch=-1542 time=36
pitchwheel channel=3 pitch=-1704 time=24
pitchwheel channel=3 pitch=-1866 time=12
pitchwheel channel=3 pitch=-2029 time=24
pitchwheel channel=3 pitch=-2191 time=12
control_change channel=3 control=11 value=99 time=0
pitchwheel channel=3 pitch=-2353 time=12
note_off channel=3 note=60 velocity=64 time=12
pitchwheel channel=3 pitch=-2515 time=0
pitchwheel channel=3 pitch=-2840 time=12
control_change channel=3 control=11 value=96 time=12
control_change channel=3 control=11 value=127 time=24
pitchwheel channel=3 pitch=0 time=0
note_on channel=3 note=62 velocity=75 time=1280
note_off channel=3 note=62 velocity=64 time=616
note_on channel=3 note=66 velocity=75 time=24
note_off channel=3 note=66 velocity=64 time=192
note_on channel=3 note=66 velocity=75 time=288
note_off channel=3 note=66 velocity=64 time=308
note_on channel=3 note=65 velocity=75 time=12
note_off channel=3 note=65 velocity=64 time=148
note_on channel=3 note=65 velocity=75 time=332
note_off channel=3 note=65 velocity=64 time=192
note_on channel=3 note=65 velocity=69 time=288
note_off channel=3 note=65 velocity=64 time=160
note_on channel=3 note=62 velocity=75 time=0
note_off channel=3 note=62 velocity=64 time=468
note_on channel=3 note=60 velocity=75 time=12
note_off channel=3 note=60 velocity=64 time=168
note_on channel=3 note=67 velocity=81 time=792
note_off channel=3 note=67 velocity=64 time=924
note_on channel=3 note=67 velocity=75 time=36
note_off channel=3 note=67 velocity=64 time=192
control_change channel=3 control=11 value=104 time=288
note_on channel=3 note=65 velocity=81 time=0
control_change channel=3 control=11 value=106 time=108
control_change channel=3 control=11 value=109 time=108
note_off channel=3 note=65 velocity=64 time=104
note_on channel=3 note=65 velocity=81 time=0
control_change channel=3 control=11 value=111 time=4
control_change channel=3 control=11 value=114 time=108
control_change channel=3 control=11 value=116 time=108
control_change channel=3 control=11 value=119 time=108
control_change channel=3 control=11 value=121 time=108
control_change channel=3 control=11 value=124 time=108
note_off channel=3 note=65 velocity=64 time=72
control_change channel=3 control=11 value=127 time=24
control_change channel=3 control=11 value=127 time=0
note_on channel=3 note=64 velocity=81 time=0
control_change channel=3 control=11 value=124 time=84
control_change channel=3 control=11 value=121 time=84
control_change channel=3 control=11 value=119 time=108
note_off channel=3 note=64 velocity=64 time=44
note_on channel=3 note=60 velocity=81 time=0
control_change channel=3 control=11 value=116 time=4
control_change channel=3 control=11 value=114 time=108
control_change channel=3 control=11 value=111 time=48
control_change channel=3 control=11 value=109 time=108
control_change channel=3 control=11 value=106 time=60
control_change channel=3 control=11 value=104 time=108
control_change channel=3 control=11 value=101 time=48
note_off channel=3 note=60 velocity=64 time=108
control_change channel=3 control=11 value=127 time=48
control_change channel=3 control=0 value=56 time=1920
control_change channel=3 control=32 value=0 time=0
program_change channel=3 program=73 time=0
note_on channel=3 note=86 velocity=56 time=1280
note_off channel=3 note=86 velocity=64 time=136
note_on channel=3 note=84 velocity=50 time=24
note_off channel=3 note=84 velocity=64 time=296
note_on channel=3 note=81 velocity=45 time=24
note_off channel=3 note=81 velocity=64 time=136
note_on channel=3 note=86 velocity=56 time=3224
note_off channel=3 note=86 velocity=64 time=136
note_on channel=3 note=84 velocity=50 time=24
note_off channel=3 note=84 velocity=64 time=296
note_on channel=3 note=81 velocity=45 time=24
note_off channel=3 note=81 velocity=64 time=136
control_change channel=3 control=0 value=56 time=24
control_change channel=3 control=32 value=0 time=0
program_change channel=3 program=65 time=0
control_change channel=3 control=93 value=30 time=9600
note_on channel=3 note=65 velocity=75 time=0
note_off channel=3 note=65 velocity=64 time=456
note_on channel=3 note=65 velocity=75 time=24
note_off channel=3 note=65 velocity=64 time=308
note_on channel=3 note=65 velocity=75 time=12
note_off channel=3 note=65 velocity=64 time=148
note_on channel=3 note=57 velocity=75 time=812
note_off channel=3 note=57 velocity=64 time=616
note_on channel=3 note=60 velocity=75 time=24
note_off channel=3 note=60 velocity=64 time=308
note_on channel=3 note=57 velocity=62 time=12
note_off channel=3 note=57 velocity=64 time=148
note_on channel=3 note=62 velocity=75 time=12
note_off channel=3 note=62 velocity=64 time=296
note_on channel=3 note=64 velocity=75 time=24
note_off channel=3 note=64 velocity=64 time=180
note_on channel=3 note=63 velocity=75 time=300
note_off channel=3 note=63 velocity=64 time=616
note_on channel=3 note=63 velocity=75 time=24
note_off channel=3 note=63 velocity=64 time=308
note_on channel=3 note=63 velocity=75 time=12
note_off channel=3 note=63 velocity=64 time=136
note_on channel=3 note=63 velocity=75 time=1304
note_off channel=3 note=63 velocity=64 time=580
note_on channel=3 note=64 velocity=75 time=60
note_off channel=3 note=64 velocity=64 time=168
note_on channel=3 note=57 velocity=75 time=312
note_off channel=3 note=57 velocity=64 time=168
note_on channel=3 note=63 velocity=75 time=312
note_off channel=3 note=63 velocity=64 time=794
note_on channel=3 note=64 velocity=75 time=6
note_off channel=3 note=64 velocity=64 time=1072
note_on channel=3 note=63 velocity=75 time=368
note_off channel=3 note=63 velocity=64 time=592
note_on channel=3 note=64 velocity=75 time=48
note_off channel=3 note=64 velocity=64 time=180
note_on channel=3 note=57 velocity=75 time=300
note_off channel=3 note=57 velocity=64 time=180
note_on channel=3 note=63 velocity=75 time=300
note_off channel=3 note=63 velocity=64 time=794
note_on channel=3 note=64 velocity=75 time=6
note_off channel=3 note=64 velocity=64 time=1072
<meta message end_of_track time=0>
<meta message text text='Tenor Sax 1' time=0>
control_change channel=4 control=11 value=127 time=0
control_change channel=4 control=7 value=106 time=0
control_change channel=4 control=10 value=62 time=0
control_change channel=4 control=91 value=88 time=0
control_change channel=4 control=93 value=28 time=0
control_change channel=4 control=0 value=56 time=0
control_change channel=4 control=32 value=0 time=0
program_change channel=4 program=66 time=0
control_change channel=4 control=11 value=109 time=9920
note_on channel=4 note=57 velocity=62 time=0
control_change channel=4 control=11 value=110 time=250
control_change channel=4 control=11 value=111 time=250
control_change channel=4 control=11 value=113 time=250
control_change channel=4 control=11 value=114 time=250
control_change channel=4 control=11 value=115 time=240
control_change channel=4 control=11 value=116 time=250
note_off channel=4 note=57 velocity=64 time=86
note_on channel=4 note=54 velocity=67 time=24
control_change channel=4 control=11 value=118 time=140
control_change channel=4 control=11 value=119 time=250
control_change channel=4 control=11 value=120 time=250
control_change channel=4 control=11 value=121 time=240
control_change channel=4 control=11 value=123 time=250
control_change channel=4 control=11 value=124 time=250
control_change channel=4 control=11 value=125 time=250
control_change channel=4 control=11 value=127 time=240
note_off channel=4 note=54 velocity=64 time=26
note_on channel=4 note=53 velocity=75 time=344
note_off channel=4 note=53 velocity=64 time=592
note_on channel=4 note=53 velocity=77 time=48
note_off channel=4 note=53 velocity=64 time=180
note_on channel=4 note=55 velocity=79 time=300
note_off channel=4 note=55 velocity=64 time=180
note_on channel=4 note=52 velocity=80 time=300
note_off channel=4 note=52 velocity=64 time=788
note_on channel=4 note=52 velocity=84 time=12
note_off channel=4 note=52 velocity=64 time=604
note_on channel=4 note=52 velocity=85 time=36
note_off channel=4 note=52 velocity=64 time=284
note_on channel=4 note=48 velocity=86 time=36
note_off channel=4 note=48 velocity=64 time=136
control_change channel=4 control=93 value=60 time=34584
note_on channel=4 note=62 velocity=62 time=320
note_off channel=4 note=62 velocity=64 time=148
note_on channel=4 note=68 velocity=75 time=12
note_off channel=4 note=68 velocity=64 time=156
note_on channel=4 note=69 velocity=69 time=324
note_off channel=4 note=69 velocity=64 time=308
note_on channel=4 note=62 velocity=69 time=12
note_off channel=4 note=62 velocity=64 time=112
note_on channel=4 note=68 velocity=76 time=368
note_off channel=4 note=68 velocity=64 time=468
note_on channel=4 note=69 velocity=69 time=12
note_off channel=4 note=69 velocity=64 time=160
note_on channel=4 note=68 velocity=56 time=0
note_on channel=4 note=69 velocity=44 time=160
note_off channel=4 note=68 velocity=64 time=24
note_on channel=4 note=68 velocity=62 time=136
note_off channel=4 note=69 velocity=64 time=24
note_on channel=4 note=69 velocity=69 time=136
note_off channel=4 note=68 velocity=64 time=24
note_off channel=4 note=69 velocity=64 time=284
note_on channel=4 note=62 velocity=69 time=12
note_off channel=4 note=62 velocity=64 time=148
note_on channel=4 note=62 velocity=62 time=812
note_off channel=4 note=62 velocity=64 time=148
note_on channel=4 note=68 velocity=75 time=12
note_off channel=4 note=68 velocity=64 time=156
note_on channel=4 note=69 velocity=69 time=324
note_off channel=4 note=69 velocity=64 time=308
note_on channel=4 note=62 velocity=69 time=12
note_off channel=4 note=62 velocity=64 time=112
note_on channel=4 note=68 velocity=76 time=368
note_off channel=4 note=68 velocity=64 time=468
note_on channel=4 note=69 velocity=69 time=12
note_off channel=4 note=69 velocity=64 time=160
note_on channel=4 note=68 velocity=56 time=0
note_on channel=4 note=69 velocity=44 time=160
note_off channel=4 note=68 velocity=64 time=24
note_on channel=4 note=68 velocity=62 time=136
note_off channel=4 note=69 velocity=64 time=24
note_on channel=4 note=69 velocity=69 time=136
note_off channel=4 note=68 velocity=64 time=24
note_off channel=4 note=69 velocity=64 time=284
note_on channel=4 note=62 velocity=69 time=12
note_off channel=4 note=62 velocity=64 time=148
note_on channel=4 note=62 velocity=62 time=812
note_off channel=4 note=62 velocity=64 time=148
note_on channel=4 note=68 velocity=75 time=12
note_off channel=4 note=68 velocity=64 time=156
note_on channel=4 note=69 velocity=69 time=324
note_off channel=4 note=69 velocity=64 time=308
note_on channel=4 note=62 velocity=69 time=12
note_off channel=4 note=62 velocity=64 time=112
note_on channel=4 note=68 velocity=75 time=368
note_off channel=4 note=68 velocity=64 time=468
note_on channel=4 note=69 velocity=69 time=12
note_off channel=4 note=69 velocity=64 time=160
note_on channel=4 note=68 velocity=56 time=0
note_on channel=4 note=69 velocity=44 time=160
note_off channel=4 note=68 velocity=64 time=24
note_on channel=4 note=68 velocity=62 time=136
note_off channel=4 note=69 velocity=64 time=24
note_on channel=4 note=69 velocity=69 time=136
note_off channel=4 note=68 velocity=64 time=24
note_off channel=4 note=69 velocity=64 time=284
note_on channel=4 note=60 velocity=56 time=12
note_off channel=4 note=60 velocity=64 time=160
note_on channel=4 note=62 velocity=65 time=0
note_off channel=4 note=62 velocity=64 time=320
note_on channel=4 note=63 velocity=69 time=0
control_change channel=4 control=11 value=127 time=232
control_change channel=4 control=11 value=121 time=24
control_change channel=4 control=11 value=115 time=24
control_change channel=4 control=11 value=109 time=24
control_change channel=4 control=11 value=103 time=24
control_change channel=4 control=11 value=96 time=24
control_change channel=4 control=11 value=90 time=24
control_change channel=4 control=11 value=84 time=24
control_change channel=4 control=11 value=84 time=0
control_change channel=4 control=11 value=85 time=120
control_change channel=4 control=11 value=86 time=120
control_change channel=4 control=11 value=88 time=120
control_change channel=4 control=11 value=89 time=120
control_change channel=4 control=11 value=91 time=120
control_change channel=4 control=11 value=93 time=120
control_change channel=4 control=11 value=94 time=120
control_change channel=4 control=11 value=95 time=120
control_change channel=4 control=11 value=96 time=120
control_change channel=4 control=11 value=99 time=120
control_change channel=4 control=11 value=100 time=120
control_change channel=4 control=11 value=101 time=120
control_change channel=4 control=11 value=103 time=120
control_change channel=4 control=11 value=105 time=120
control_change channel=4 control=11 value=104 time=288
control_change channel=4 control=11 value=103 time=264
control_change channel=4 control=11 value=101 time=264
control_change channel=4 control=11 value=100 time=288
control_change channel=4 control=11 value=99 time=264
control_change channel=4 control=11 value=98 time=264
note_off channel=4 note=63 velocity=64 time=216
control_change channel=4 control=11 value=96 time=48
control_change channel=4 control=11 value=127 time=24
control_change channel=4 control=93 value=30 time=0
note_on channel=4 note=53 velocity=62 time=3200
note_off channel=4 note=53 velocity=64 time=160
note_on channel=4 note=55 velocity=75 time=0
note_off channel=4 note=55 velocity=64 time=314
note_on channel=4 note=55 velocity=69 time=6
note_off channel=4 note=55 velocity=64 time=142
note_on channel=4 note=53 velocity=75 time=6
note_off channel=4 note=53 velocity=64 time=132
control_change channel=4 control=93 value=60 time=3720
note_on channel=4 note=62 velocity=62 time=320
note_off channel=4 note=62 velocity=64 time=136
note_on channel=4 note=68 velocity=75 time=24
note_off channel=4 note=68 velocity=64 time=156
note_on channel=4 note=69 velocity=69 time=324
note_off channel=4 note=69 velocity=64 time=308
note_on channel=4 note=62 velocity=69 time=12
note_off channel=4 note=62 velocity=64 time=136
note_on channel=4 note=63 velocity=75 time=344
control_change channel=4 control=11 value=127 time=160
control_change channel=4 control=11 value=123 time=12
control_change channel=4 control=11 value=119 time=12
control_change channel=4 control=11 value=114 time=12
control_change channel=4 control=11 value=110 time=12
control_change channel=4 control=11 value=105 time=12
control_change channel=4 control=11 value=101 time=12
control_change channel=4 control=11 value=98 time=12
control_change channel=4 control=11 value=93 time=12
control_change channel=4 control=11 value=89 time=12
control_change channel=4 control=11 value=84 time=12
control_change channel=4 control=11 value=84 time=0
control_change channel=4 control=11 value=88 time=96
control_change channel=4 control=11 value=91 time=84
control_change channel=4 control=11 value=94 time=60
control_change channel=4 control=11 value=98 time=96
control_change channel=4 control=11 value=101 time=84
control_change channel=4 control=11 value=104 time=60
control_change channel=4 control=11 value=108 time=84
control_change channel=4 control=11 value=111 time=96
control_change channel=4 control=11 value=114 time=60
control_change channel=4 control=11 value=118 time=84
control_change channel=4 control=11 value=121 time=96
control_change channel=4 control=11 value=124 time=60
control_change channel=4 control=11 value=127 time=48
note_off channel=4 note=63 velocity=64 time=116
note_on channel=4 note=60 velocity=56 time=36
note_off channel=4 note=60 velocity=64 time=160
note_on channel=4 note=64 velocity=65 time=0
note_off channel=4 note=64 velocity=64 time=308
note_on channel=4 note=65 velocity=69 time=12
note_off channel=4 note=65 velocity=64 time=124
note_on channel=4 note=62 velocity=44 time=916
note_on channel=4 note=61 velocity=55 time=40
note_on channel=4 note=60 velocity=69 time=40
note_off channel=4 note=62 velocity=64 time=8
note_off channel=4 note=61 velocity=64 time=28
note_off channel=4 note=60 velocity=64 time=284
note_on channel=4 note=62 velocity=62 time=0
note_off channel=4 note=62 velocity=64 time=160
note_on channel=4 note=65 velocity=71 time=0
note_off channel=4 note=65 velocity=64 time=320
note_on channel=4 note=63 velocity=74 time=0
note_off channel=4 note=63 velocity=64 time=628
note_on channel=4 note=60 velocity=70 time=12
note_off channel=4 note=60 velocity=64 time=320
note_on channel=4 note=58 velocity=75 time=0
control_change channel=4 control=11 value=127 time=160
control_change channel=4 control=11 value=124 time=120
control_change channel=4 control=11 value=121 time=96
control_change channel=4 control=11 value=119 time=120
control_change channel=4 control=11 value=116 time=96
control_change channel=4 control=11 value=114 time=120
control_change channel=4 control=11 value=111 time=72
control_change channel=4 control=11 value=109 time=120
control_change channel=4 control=11 value=106 time=96
note_off channel=4 note=58 velocity=64 time=72
control_change channel=4 control=11 value=104 time=24
control_change channel=4 control=11 value=127 time=24
control_change channel=4 control=11 value=127 time=0
control_change channel=4 control=93 value=30 time=0
note_on channel=4 note=57 velocity=62 time=0
note_off channel=4 note=57 velocity=64 time=156
note_on channel=4 note=57 velocity=62 time=324
note_off channel=4 note=57 velocity=64 time=308
note_on channel=4 note=55 velocity=62 time=12
note_off channel=4 note=55 velocity=64 time=148
note_on channel=4 note=57 velocity=56 time=12
note_off channel=4 note=57 velocity=64 time=68
note_on channel=4 note=57 velocity=62 time=12
note_off channel=4 note=57 velocity=64 time=80
note_on channel=4 note=55 velocity=65 time=320
note_off channel=4 note=55 velocity=64 time=320
control_change channel=4 control=11 value=104 time=0
note_on channel=4 note=57 velocity=67 time=0
control_change channel=4 control=11 value=105 time=100
control_change channel=4 control=11 value=108 time=80
control_change channel=4 control=11 value=109 time=100
control_change channel=4 control=11 value=111 time=100
control_change channel=4 control=11 value=114 time=90
control_change channel=4 control=11 value=115 time=100
control_change channel=4 control=11 value=118 time=70
control_change channel=4 control=11 value=119 time=100
control_change channel=4 control=11 value=121 time=100
control_change channel=4 control=11 value=124 time=90
control_change channel=4 control=11 value=125 time=100
control_change channel=4 control=11 value=127 time=10
note_off channel=4 note=57 velocity=64 time=92
note_on channel=4 note=60 velocity=69 time=308
note_on channel=4 note=59 velocity=40 time=112
note_on channel=4 note=58 velocity=28 time=40
note_off channel=4 note=60 velocity=64 time=4
note_off channel=4 note=59 velocity=64 time=8
note_on channel=4 note=57 velocity=17 time=28
note_off channel=4 note=58 velocity=64 time=12
note_off channel=4 note=57 velocity=64 time=40
note_on channel=4 note=60 velocity=70 time=236
note_off channel=4 note=60 velocity=64 time=604
note_on channel=4 note=60 velocity=62 time=36
note_off channel=4 note=60 velocity=64 time=308
note_on channel=4 note=60 velocity=50 time=12
note_off channel=4 note=60 velocity=64 time=148
note_on channel=4 note=60 velocity=62 time=12
note_off channel=4 note=60 velocity=64 time=296
note_on channel=4 note=60 velocity=62 time=24
note_off channel=4 note=60 velocity=64 time=168
note_on channel=4 note=56 velocity=62 time=312
control_change channel=4 control=11 value=127 time=160
control_change channel=4 control=11 value=124 time=96
control_change channel=4 control=11 value=121 time=72
control_change channel=4 control=11 value=118 time=120
control_change channel=4 control=11 value=115 time=72
control_change channel=4 control=11 value=111 time=120
control_change channel=4 control=11 value=108 time=120
control_change channel=4 control=11 value=105 time=72
control_change channel=4 control=11 value=101 time=120
note_off channel=4 note=56 velocity=64 time=108
control_change channel=4 control=11 value=98 time=12
control_change channel=4 control=11 value=96 time=24
control_change channel=4 control=11 value=127 time=24
control_change channel=4 control=93 value=60 time=0
note_on channel=4 note=64 velocity=75 time=320
note_off channel=4 note=64 velocity=64 time=148
note_on channel=4 note=62 velocity=62 time=12
note_off channel=4 note=62 velocity=64 time=296
note_on channel=4 note=57 velocity=69 time=24
control_change channel=4 control=11 value=127 time=160
control_change channel=4 control=11 value=119 time=24
control_change channel=4 control=11 value=111 time=24
control_change channel=4 control=11 value=104 time=24
control_change channel=4 control=11 value=96 time=24
control_change channel=4 control=11 value=89 time=24
control_change channel=4 control=11 value=89 time=0
control_change channel=4 control=11 value=93 time=120
control_change channel=4 control=11 value=96 time=96
control_change channel=4 control=11 value=99 time=72
control_change channel=4 control=11 value=103 time=96
control_change channel=4 control=11 value=106 time=120
control_change channel=4 control=11 value=109 time=48
control_change channel=4 control=11 value=113 time=120
control_change channel=4 control=11 value=116 time=96
control_change channel=4 control=11 value=119 time=72
control_change channel=4 control=11 value=123 time=96
control_change channel=4 control=11 value=127 time=96
note_off channel=4 note=57 velocity=64 time=104
note_on channel=4 note=64 velocity=75 time=24
note_off channel=4 note=64 velocity=64 time=148
note_on channel=4 note=62 velocity=62 time=12
note_off channel=4 note=62 velocity=64 time=296
note_on channel=4 note=57 velocity=69 time=24
control_change channel=4 control=11 value=127 time=160
control_change channel=4 control=11 value=119 time=24
control_change channel=4 control=11 value=111 time=24
control_change channel=4 control=11 value=104 time=24
control_change channel=4 control=11 value=96 time=24
control_change channel=4 control=11 value=89 time=24
control_change channel=4 control=11 value=89 time=0
control_change channel=4 control=11 value=93 time=120
control_change channel=4 control=11 value=96 time=96
control_change channel=4 control=11 value=99 time=72
control_change channel=4 control=11 value=103 time=96
control_change channel=4 control=11 value=106 time=120
control_change channel=4 control=11 value=109 time=48
control_change channel=4 control=11 value=113 time=120
control_change channel=4 control=11 value=116 time=96
control_change channel=4 control=11 value=119 time=72
control_change channel=4 control=11 value=123 time=96
control_change channel=4 control=11 value=127 time=96
note_off channel=4 note=57 velocity=64 time=104
note_on channel=4 note=62 velocity=75 time=24
note_off channel=4 note=62 velocity=64 time=148
note_on channel=4 note=60 velocity=62 time=12
note_off channel=4 note=60 velocity=64 time=296
note_on channel=4 note=55 velocity=69 time=24
control_change channel=4 control=11 value=127 time=232
control_change channel=4 control=11 value=121 time=24
control_change channel=4 control=11 value=115 time=24
control_change channel=4 control=11 value=109 time=24
control_change channel=4 control=11 value=103 time=24
control_change channel=4 control=11 value=96 time=24
control_change channel=4 control=11 value=90 time=24
control_change channel=4 control=11 value=84 time=24
control_change channel=4 control=11 value=84 time=0
control_change channel=4 control=11 value=85 time=0
control_change channel=4 control=11 value=85 time=120
control_change channel=4 control=11 value=88 time=120
control_change channel=4 control=11 value=89 time=120
control_change channel=4 control=11 value=91 time=120
control_change channel=4 control=11 value=94 time=120
control_change channel=4 control=11 value=95 time=120
control_change channel=4 control=11 value=98 time=120
control_change channel=4 control=11 value=99 time=120
control_change channel=4 control=11 value=101 time=120
control_change channel=4 control=11 value=104 time=120
control_change channel=4 control=11 value=105 time=120
control_change channel=4 control=11 value=108 time=120
control_change channel=4 control=11 value=109 time=120
control_change channel=4 control=11 value=111 time=120
control_change channel=4 control=11 value=114 time=120
control_change channel=4 control=11 value=115 time=120
control_change channel=4 control=11 value=118 time=120
control_change channel=4 control=11 value=119 time=120
control_change channel=4 control=11 value=121 time=120
control_change channel=4 control=11 value=124 time=120
control_change channel=4 control=11 value=125 time=120
control_change channel=4 control=11 value=127 time=24
note_off channel=4 note=55 velocity=64 time=368
control_change channel=4 control=93 value=30 time=40
note_on channel=4 note=61 velocity=69 time=8
note_off channel=4 note=61 velocity=64 time=616
note_on channel=4 note=53 velocity=62 time=24
note_off channel=4 note=53 velocity=64 time=296
note_on channel=4 note=53 velocity=62 time=24
note_off channel=4 note=53 velocity=64 time=136
control_change channel=4 control=93 value=60 time=12984
note_on channel=4 note=56 velocity=88 time=960
note_off channel=4 note=56 velocity=64 time=308
note_on channel=4 note=57 velocity=88 time=12
note_off channel=4 note=57 velocity=64 time=180
note_on channel=4 note=62 velocity=88 time=300
note_off channel=4 note=62 velocity=64 time=1072
note_on channel=4 note=56 velocity=88 time=48
note_off channel=4 note=56 velocity=64 time=308
note_on channel=4 note=57 velocity=88 time=12
note_off channel=4 note=57 velocity=64 time=180
note_on channel=4 note=50 velocity=88 time=300
note_off channel=4 note=50 velocity=64 time=1072
note_on channel=4 note=56 velocity=88 time=48
note_off channel=4 note=56 velocity=64 time=180
note_on channel=4 note=57 velocity=88 time=300
note_off channel=4 note=57 velocity=64 time=180
note_on channel=4 note=62 velocity=88 time=300
note_off channel=4 note=62 velocity=64 time=912
note_on channel=4 note=56 velocity=88 time=48
note_off channel=4 note=56 velocity=64 time=308
note_on channel=4 note=57 velocity=88 time=12
note_off channel=4 note=57 velocity=64 time=180
note_on channel=4 note=50 velocity=88 time=300
note_off channel=4 note=50 velocity=64 time=1072
note_on channel=4 note=56 velocity=88 time=48
note_off channel=4 note=56 velocity=64 time=180
note_on channel=4 note=57 velocity=88 time=300
note_off channel=4 note=57 velocity=64 time=180
note_on channel=4 note=62 velocity=88 time=300
note_off channel=4 note=62 velocity=64 time=912
note_on channel=4 note=64 velocity=88 time=48
note_off channel=4 note=64 velocity=64 time=308
note_on channel=4 note=62 velocity=88 time=12
note_off channel=4 note=62 velocity=64 time=180
note_on channel=4 note=50 velocity=88 time=300
note_off channel=4 note=50 velocity=64 time=1072
note_on channel=4 note=50 velocity=88 time=48
note_off channel=4 note=50 velocity=64 time=320
note_on channel=4 note=53 velocity=81 time=0
note_off channel=4 note=53 velocity=64 time=160
note_on channel=4 note=56 velocity=88 time=0
note_off channel=4 note=56 velocity=64 time=320
note_on channel=4 note=55 velocity=88 time=0
control_change channel=4 control=11 value=127 time=160
control_change channel=4 control=11 value=125 time=120
control_change channel=4 control=11 value=124 time=120
control_change channel=4 control=11 value=123 time=120
control_change channel=4 control=11 value=121 time=120
control_change channel=4 control=11 value=120 time=120
control_change channel=4 control=11 value=119 time=120
control_change channel=4 control=11 value=118 time=120
control_change channel=4 control=11 value=115 time=120
control_change channel=4 control=11 value=114 time=120
control_change channel=4 control=11 value=113 time=120
control_change channel=4 control=11 value=111 time=120
control_change channel=4 control=11 value=110 time=120
control_change channel=4 control=11 value=109 time=120
control_change channel=4 control=11 value=108 time=120
control_change channel=4 control=11 value=105 time=120
note_off channel=4 note=55 velocity=64 time=72
control_change channel=4 control=93 value=30 time=48
control_change channel=4 control=11 value=127 time=0
note_on channel=4 note=63 velocity=75 time=480
note_off channel=4 note=63 velocity=64 time=308
note_on channel=4 note=63 velocity=75 time=12
note_off channel=4 note=63 velocity=64 time=204
note_on channel=4 note=60 velocity=62 time=276
note_off channel=4 note=60 velocity=64 time=160
note_on channel=4 note=63 velocity=75 time=0
note_off channel=4 note=63 velocity=64 time=320
note_on channel=4 note=63 velocity=69 time=0
note_off channel=4 note=63 velocity=64 time=148
note_on channel=4 note=60 velocity=75 time=12
note_off channel=4 note=60 velocity=64 time=308
note_on channel=4 note=55 velocity=75 time=12
note_off channel=4 note=55 velocity=64 time=148
note_on channel=4 note=57 velocity=75 time=1932
note_off channel=4 note=57 velocity=64 time=180
note_on channel=4 note=58 velocity=75 time=300
note_off channel=4 note=58 velocity=64 time=308
note_on channel=4 note=58 velocity=75 time=12
note_off channel=4 note=58 velocity=64 time=192
note_on channel=4 note=60 velocity=75 time=288
note_on channel=4 note=62 velocity=54 time=1440
note_off channel=4 note=60 velocity=64 time=16
note_on channel=4 note=61 velocity=62 time=64
note_off channel=4 note=62 velocity=64 time=24
note_on channel=4 note=60 velocity=74 time=56
note_off channel=4 note=61 velocity=64 time=24
note_off channel=4 note=60 velocity=64 time=284
note_on channel=4 note=56 velocity=75 time=12
pitchwheel channel=4 pitch=0 time=160
control_change channel=4 control=11 value=127 time=0
pitchwheel channel=4 pitch=242 time=12
control_change channel=4 control=11 value=124 time=72
control_change channel=4 control=11 value=121 time=72
pitchwheel channel=4 pitch=0 time=48
control_change channel=4 control=11 value=119 time=60
control_change channel=4 control=11 value=116 time=48
pitchwheel channel=4 pitch=-82 time=36
control_change channel=4 control=11 value=114 time=72
pitchwheel channel=4 pitch=-244 time=24
control_change channel=4 control=11 value=111 time=24
pitchwheel channel=4 pitch=-407 time=48
pitchwheel channel=4 pitch=-569 time=60
control_change channel=4 control=11 value=109 time=0
control_change channel=4 control=11 value=106 time=48
pitchwheel channel=4 pitch=-731 time=12
pitchwheel channel=4 pitch=-893 time=36
pitchwheel channel=4 pitch=-1055 time=48
control_change channel=4 control=11 value=104 time=12
pitchwheel channel=4 pitch=-1218 time=24
pitchwheel channel=4 pitch=-1380 time=24
control_change channel=4 control=11 value=101 time=0
pitchwheel channel=4 pitch=-1542 time=36
pitchwheel channel=4 pitch=-1704 time=24
pitchwheel channel=4 pitch=-1866 time=12
pitchwheel channel=4 pitch=-2029 time=24
pitchwheel channel=4 pitch=-2191 time=12
control_change channel=4 control=11 value=99 time=0
pitchwheel channel=4 pitch=-2353 time=12
note_off channel=4 note=56 velocity=64 time=12
pitchwheel channel=4 pitch=-2515 time=0
pitchwheel channel=4 pitch=-2840 time=12
control_change channel=4 control=11 value=96 time=12
control_change channel=4 control=11 value=127 time=24
pitchwheel channel=4 pitch=0 time=0
note_on channel=4 note=58 velocity=75 time=1280
note_off channel=4 note=58 velocity=64 time=616
note_on channel=4 note=58 velocity=75 time=24
note_off channel=4 note=58 velocity=64 time=192
note_on channel=4 note=58 velocity=75 time=288
note_off channel=4 note=58 velocity=64 time=308
note_on channel=4 note=62 velocity=75 time=12
note_off channel=4 note=62 velocity=64 time=148
note_on channel=4 note=62 velocity=75 time=332
note_off channel=4 note=62 velocity=64 time=192
note_on channel=4 note=62 velocity=69 time=288
note_off channel=4 note=62 velocity=64 time=160
note_on channel=4 note=58 velocity=75 time=0
note_off channel=4 note=58 velocity=64 time=468
note_on channel=4 note=55 velocity=75 time=12
note_off channel=4 note=55 velocity=64 time=168
note_on channel=4 note=63 velocity=81 time=792
note_off channel=4 note=63 velocity=64 time=924
note_on channel=4 note=63 velocity=75 time=36
note_off channel=4 note=63 velocity=64 time=192
control_change channel=4 control=11 value=104 time=288
note_on channel=4 note=61 velocity=81 time=0
control_change channel=4 control=11 value=106 time=108
control_change channel=4 control=11 value=109 time=108
note_off channel=4 note=61 velocity=64 time=104
note_on channel=4 note=61 velocity=81 time=0
control_change channel=4 control=11 value=111 time=4
control_change channel=4 control=11 value=114 time=108
control_change channel=4 control=11 value=116 time=108
control_change channel=4 control=11 value=119 time=108
control_change channel=4 control=11 value=121 time=108
control_change channel=4 control=11 value=124 time=108
note_off channel=4 note=61 velocity=64 time=72
control_change channel=4 control=11 value=127 time=24
control_change channel=4 control=11 value=127 time=0
note_on channel=4 note=60 velocity=81 time=0
control_change channel=4 control=11 value=124 time=84
control_change channel=4 control=11 value=121 time=84
control_change channel=4 control=11 value=119 time=108
note_off channel=4 note=60 velocity=64 time=44
note_on channel=4 note=58 velocity=81 time=0
control_change channel=4 control=11 value=116 time=4
control_change channel=4 control=11 value=114 time=108
control_change channel=4 control=11 value=111 time=48
control_change channel=4 control=11 value=109 time=108
control_change channel=4 control=11 value=106 time=60
control_change channel=4 control=11 value=104 time=108
control_change channel=4 control=11 value=101 time=48
note_off channel=4 note=58 velocity=64 time=108
control_change channel=4 control=93 value=60 time=24
control_change channel=4 control=11 value=127 time=24
note_on channel=4 note=62 velocity=62 time=320
note_off channel=4 note=62 velocity=64 time=148
note_on channel=4 note=68 velocity=75 time=12
note_off channel=4 note=68 velocity=64 time=156
note_on channel=4 note=69 velocity=69 time=324
note_off channel=4 note=69 velocity=64 time=308
note_on channel=4 note=62 velocity=69 time=12
note_off channel=4 note=62 velocity=64 time=112
note_on channel=4 note=68 velocity=76 time=368
note_off channel=4 note=68 velocity=64 time=468
note_on channel=4 note=69 velocity=69 time=12
note_off channel=4 note=69 velocity=64 time=160
note_on channel=4 note=68 velocity=56 time=0
note_on channel=4 note=69 velocity=44 time=160
note_off channel=4 note=68 velocity=64 time=24
note_on channel=4 note=68 velocity=62 time=136
note_off channel=4 note=69 velocity=64 time=24
note_on channel=4 note=69 velocity=69 time=136
note_off channel=4 note=68 velocity=64 time=24
note_off channel=4 note=69 velocity=64 time=284
note_on channel=4 note=62 velocity=69 time=12
note_off channel=4 note=62 velocity=64 time=148
note_on channel=4 note=62 velocity=62 time=812
note_off channel=4 note=62 velocity=64 time=148
note_on channel=4 note=68 velocity=75 time=12
note_off channel=4 note=68 velocity=64 time=156
note_on channel=4 note=69 velocity=69 time=324
note_off channel=4 note=69 velocity=64 time=308
note_on channel=4 note=62 velocity=69 time=12
note_off channel=4 note=62 velocity=64 time=112
note_on channel=4 note=68 velocity=76 time=368
note_off channel=4 note=68 velocity=64 time=468
note_on channel=4 note=69 velocity=69 time=12
note_off channel=4 note=69 velocity=64 time=160
note_on channel=4 note=68 velocity=56 time=0
note_on channel=4 note=69 velocity=44 time=160
note_off channel=4 note=68 velocity=64 time=24
note_on channel=4 note=68 velocity=62 time=136
note_off channel=4 note=69 velocity=64 time=24
note_on channel=4 note=69 velocity=69 time=136
note_off channel=4 note=68 velocity=64 time=24
note_off channel=4 note=69 velocity=64 time=284
note_on channel=4 note=62 velocity=69 time=12
note_off channel=4 note=62 velocity=64 time=148
note_on channel=4 note=62 velocity=62 time=812
note_off channel=4 note=62 velocity=64 time=148
note_on channel=4 note=68 velocity=75 time=12
note_off channel=4 note=68 velocity=64 time=156
note_on channel=4 note=69 velocity=69 time=324
note_off channel=4 note=69 velocity=64 time=308
note_on channel=4 note=62 velocity=69 time=12
note_off channel=4 note=62 velocity=64 time=112
note_on channel=4 note=68 velocity=75 time=368
note_off channel=4 note=68 velocity=64 time=468
note_on channel=4 note=69 velocity=69 time=12
note_off channel=4 note=69 velocity=64 time=160
note_on channel=4 note=68 velocity=56 time=0
note_on channel=4 note=69 velocity=44 time=160
note_off channel=4 note=68 velocity=64 time=24
note_on channel=4 note=68 velocity=62 time=136
note_off channel=4 note=69 velocity=64 time=24
note_on channel=4 note=69 velocity=69 time=136
note_off channel=4 note=68 velocity=64 time=24
note_off channel=4 note=69 velocity=64 time=284
note_on channel=4 note=60 velocity=56 time=12
note_off channel=4 note=60 velocity=64 time=160
note_on channel=4 note=62 velocity=65 time=0
note_off channel=4 note=62 velocity=64 time=320
note_on channel=4 note=63 velocity=69 time=0
control_change channel=4 control=11 value=127 time=232
control_change channel=4 control=11 value=121 time=24
control_change channel=4 control=11 value=115 time=24
control_change channel=4 control=11 value=109 time=24
control_change channel=4 control=11 value=103 time=24
control_change channel=4 control=11 value=96 time=24
control_change channel=4 control=11 value=90 time=24
control_change channel=4 control=11 value=84 time=24
control_change channel=4 control=11 value=84 time=0
control_change channel=4 control=11 value=84 time=0
control_change channel=4 control=11 value=84 time=0
control_change channel=4 control=11 value=85 time=120
control_change channel=4 control=11 value=88 time=120
control_change channel=4 control=11 value=89 time=120
control_change channel=4 control=11 value=91 time=120
control_change channel=4 control=11 value=93 time=120
control_change channel=4 control=11 value=95 time=120
control_change channel=4 control=11 value=96 time=120
control_change channel=4 control=11 value=99 time=96
control_change channel=4 control=11 value=100 time=120
control_change channel=4 control=11 value=103 time=120
control_change channel=4 control=11 value=104 time=120
control_change channel=4 control=11 value=106 time=120
control_change channel=4 control=11 value=108 time=120
control_change channel=4 control=11 value=110 time=120
control_change channel=4 control=11 value=111 time=120
control_change channel=4 control=11 value=114 time=96
control_change channel=4 control=11 value=115 time=120
control_change channel=4 control=11 value=118 time=120
control_change channel=4 control=11 value=119 time=120
control_change channel=4 control=11 value=121 time=120
control_change channel=4 control=11 value=123 time=120
control_change channel=4 control=11 value=125 time=120
control_change channel=4 control=11 value=127 time=48
note_on channel=4 note=61 velocity=21 time=320
note_off channel=4 note=63 velocity=64 time=40
note_on channel=4 note=58 velocity=31 time=0
note_on channel=4 note=55 velocity=44 time=40
note_off channel=4 note=61 velocity=64 time=8
note_on channel=4 note=52 velocity=54 time=32
note_off channel=4 note=58 velocity=64 time=8
note_on channel=4 note=50 velocity=75 time=32
note_off channel=4 note=55 velocity=64 time=8
note_off channel=4 note=52 velocity=64 time=40
note_off channel=4 note=50 velocity=64 time=272
control_change channel=4 control=11 value=104 time=0
note_on channel=4 note=53 velocity=81 time=0
control_change channel=4 control=11 value=105 time=120
control_change channel=4 control=11 value=106 time=110
control_change channel=4 control=11 value=108 time=110
control_change channel=4 control=11 value=109 time=110
control_change channel=4 control=11 value=110 time=110
control_change channel=4 control=11 value=111 time=110
control_change channel=4 control=11 value=113 time=110
control_change channel=4 control=11 value=114 time=110
control_change channel=4 control=11 value=115 time=110
control_change channel=4 control=11 value=116 time=120
control_change channel=4 control=11 value=118 time=110
control_change channel=4 control=11 value=119 time=110
control_change channel=4 control=11 value=120 time=110
control_change channel=4 control=11 value=121 time=110
control_change channel=4 control=11 value=123 time=110
control_change channel=4 control=11 value=124 time=110
control_change channel=4 control=11 value=125 time=110
control_change channel=4 control=11 value=127 time=110
note_off channel=4 note=53 velocity=64 time=32
control_change channel=4 control=93 value=30 time=48
control_change channel=4 control=93 value=30 time=0
note_on channel=4 note=61 velocity=75 time=0
note_off channel=4 note=61 velocity=64 time=456
note_on channel=4 note=61 velocity=75 time=24
note_off channel=4 note=61 velocity=64 time=308
note_on channel=4 note=61 velocity=75 time=12
note_off channel=4 note=61 velocity=64 time=148
note_on channel=4 note=53 velocity=75 time=812
note_off channel=4 note=53 velocity=64 time=616
note_on channel=4 note=57 velocity=75 time=24
note_off channel=4 note=57 velocity=64 time=308
note_on channel=4 note=53 velocity=62 time=12
note_off channel=4 note=53 velocity=64 time=148
note_on channel=4 note=60 velocity=75 time=12
note_off channel=4 note=60 velocity=64 time=296
note_on channel=4 note=60 velocity=75 time=24
note_off channel=4 note=60 velocity=64 time=180
note_on channel=4 note=60 velocity=75 time=300
note_off channel=4 note=60 velocity=64 time=616
note_on channel=4 note=60 velocity=75 time=24
note_off channel=4 note=60 velocity=64 time=308
note_on channel=4 note=60 velocity=75 time=12
note_off channel=4 note=60 velocity=64 time=136
note_on channel=4 note=59 velocity=75 time=1304
note_off channel=4 note=59 velocity=64 time=580
note_on channel=4 note=59 velocity=75 time=60
note_off channel=4 note=59 velocity=64 time=168
note_on channel=4 note=59 velocity=75 time=312
note_off channel=4 note=59 velocity=64 time=168
note_on channel=4 note=58 velocity=75 time=312
note_off channel=4 note=58 velocity=64 time=794
note_on channel=4 note=58 velocity=75 time=6
note_off channel=4 note=58 velocity=64 time=1072
note_on channel=4 note=60 velocity=69 time=368
note_off channel=4 note=60 velocity=64 time=1588
note_on channel=4 note=60 velocity=69 time=12
note_off channel=4 note=60 velocity=64 time=1850
<meta message end_of_track time=0>
<meta message text text='Tenor Sax 2' time=0>
control_change channel=5 control=11 value=127 time=0
control_change channel=5 control=7 value=106 time=0
control_change channel=5 control=10 value=51 time=0
control_change channel=5 control=91 value=81 time=0
control_change channel=5 control=93 value=25 time=0
control_change channel=5 control=0 value=56 time=0
control_change channel=5 control=32 value=0 time=0
program_change channel=5 program=66 time=0
control_change channel=5 control=11 value=109 time=9920
note_on channel=5 note=60 velocity=60 time=0
control_change channel=5 control=11 value=110 time=250
control_change channel=5 control=11 value=111 time=250
control_change channel=5 control=11 value=113 time=250
control_change channel=5 control=11 value=114 time=250
control_change channel=5 control=11 value=115 time=240
control_change channel=5 control=11 value=116 time=250
note_off channel=5 note=60 velocity=64 time=86
note_on channel=5 note=61 velocity=62 time=24
control_change channel=5 control=11 value=118 time=140
control_change channel=5 control=11 value=119 time=250
control_change channel=5 control=11 value=120 time=250
control_change channel=5 control=11 value=121 time=240
control_change channel=5 control=11 value=123 time=250
control_change channel=5 control=11 value=124 time=250
control_change channel=5 control=11 value=125 time=250
control_change channel=5 control=11 value=127 time=240
note_off channel=5 note=61 velocity=64 time=26
note_on channel=5 note=59 velocity=75 time=344
note_off channel=5 note=59 velocity=64 time=592
note_on channel=5 note=59 velocity=77 time=48
note_off channel=5 note=59 velocity=64 time=180
note_on channel=5 note=59 velocity=79 time=300
note_off channel=5 note=59 velocity=64 time=180
note_on channel=5 note=58 velocity=80 time=300
note_off channel=5 note=58 velocity=64 time=788
note_on channel=5 note=58 velocity=84 time=12
note_off channel=5 note=58 velocity=64 time=604
note_on channel=5 note=58 velocity=85 time=36
note_off channel=5 note=58 velocity=64 time=284
note_on channel=5 note=57 velocity=86 time=36
note_off channel=5 note=57 velocity=64 time=136
note_on channel=5 note=49 velocity=62 time=53144
note_off channel=5 note=49 velocity=64 time=160
note_on channel=5 note=53 velocity=75 time=0
note_off channel=5 note=53 velocity=64 time=314
note_on channel=5 note=53 velocity=69 time=6
note_off channel=5 note=53 velocity=64 time=142
note_on channel=5 note=50 velocity=75 time=6
note_off channel=5 note=50 velocity=64 time=132
note_on channel=5 note=54 velocity=62 time=10760
note_off channel=5 note=54 velocity=64 time=580
note_on channel=5 note=53 velocity=62 time=60
note_off channel=5 note=53 velocity=64 time=156
note_on channel=5 note=53 velocity=62 time=324
note_off channel=5 note=53 velocity=64 time=308
note_on channel=5 note=53 velocity=62 time=12
note_off channel=5 note=53 velocity=64 time=148
note_on channel=5 note=53 velocity=56 time=12
note_off channel=5 note=53 velocity=64 time=68
note_on channel=5 note=53 velocity=62 time=12
note_off channel=5 note=53 velocity=64 time=80
note_on channel=5 note=53 velocity=65 time=320
note_off channel=5 note=53 velocity=64 time=320
control_change channel=5 control=11 value=104 time=0
note_on channel=5 note=52 velocity=67 time=0
control_change channel=5 control=11 value=105 time=100
control_change channel=5 control=11 value=108 time=80
control_change channel=5 control=11 value=109 time=100
control_change channel=5 control=11 value=111 time=100
control_change channel=5 control=11 value=114 time=90
control_change channel=5 control=11 value=115 time=100
control_change channel=5 control=11 value=118 time=70
control_change channel=5 control=11 value=119 time=100
control_change channel=5 control=11 value=121 time=100
control_change channel=5 control=11 value=124 time=90
control_change channel=5 control=11 value=125 time=100
control_change channel=5 control=11 value=127 time=10
note_off channel=5 note=52 velocity=64 time=92
note_on channel=5 note=58 velocity=69 time=308
note_on channel=5 note=57 velocity=40 time=112
note_on channel=5 note=56 velocity=28 time=40
note_off channel=5 note=58 velocity=64 time=4
note_off channel=5 note=57 velocity=64 time=8
note_on channel=5 note=55 velocity=17 time=28
note_off channel=5 note=56 velocity=64 time=12
note_off channel=5 note=55 velocity=64 time=40
note_on channel=5 note=57 velocity=70 time=236
note_off channel=5 note=57 velocity=64 time=604
note_on channel=5 note=57 velocity=62 time=36
note_off channel=5 note=57 velocity=64 time=308
note_on channel=5 note=57 velocity=50 time=12
note_off channel=5 note=57 velocity=64 time=148
note_on channel=5 note=55 velocity=62 time=12
note_off channel=5 note=55 velocity=64 time=296
note_on channel=5 note=55 velocity=62 time=24
note_off channel=5 note=55 velocity=64 time=168
note_on channel=5 note=54 velocity=62 time=312
control_change channel=5 control=11 value=127 time=160
control_change channel=5 control=11 value=124 time=96
control_change channel=5 control=11 value=121 time=72
control_change channel=5 control=11 value=118 time=120
control_change channel=5 control=11 value=115 time=72
control_change channel=5 control=11 value=111 time=120
control_change channel=5 control=11 value=108 time=120
control_change channel=5 control=11 value=105 time=72
control_change channel=5 control=11 value=101 time=120
note_off channel=5 note=54 velocity=64 time=108
control_change channel=5 control=11 value=98 time=12
control_change channel=5 control=11 value=96 time=24
control_change channel=5 control=11 value=127 time=24
note_on channel=5 note=57 velocity=69 time=8000
note_off channel=5 note=57 velocity=64 time=616
note_on channel=5 note=50 velocity=62 time=24
note_off channel=5 note=50 velocity=64 time=296
note_on channel=5 note=50 velocity=62 time=24
note_off channel=5 note=50 velocity=64 time=136
note_on channel=5 note=57 velocity=75 time=28824
note_off channel=5 note=57 velocity=64 time=308
note_on channel=5 note=57 velocity=75 time=12
note_off channel=5 note=57 velocity=64 time=204
note_on channel=5 note=57 velocity=75 time=436
note_off channel=5 note=57 velocity=64 time=320
note_on channel=5 note=57 velocity=69 time=0
note_off channel=5 note=57 velocity=64 time=148
note_on channel=5 note=57 velocity=75 time=12
note_off channel=5 note=57 velocity=64 time=308
note_on channel=5 note=53 velocity=75 time=12
note_off channel=5 note=53 velocity=64 time=148
note_on channel=5 note=53 velocity=75 time=1932
note_off channel=5 note=53 velocity=64 time=180
note_on channel=5 note=56 velocity=75 time=300
note_off channel=5 note=56 velocity=64 time=308
note_on channel=5 note=56 velocity=75 time=12
note_off channel=5 note=56 velocity=64 time=192
note_on channel=5 note=55 velocity=75 time=288
note_on channel=5 note=57 velocity=54 time=1440
note_off channel=5 note=55 velocity=64 time=16
note_on channel=5 note=56 velocity=62 time=64
note_off channel=5 note=57 velocity=64 time=24
note_on channel=5 note=55 velocity=74 time=56
note_off channel=5 note=56 velocity=64 time=24
note_off channel=5 note=55 velocity=64 time=284
note_on channel=5 note=54 velocity=75 time=12
pitchwheel channel=5 pitch=0 time=160
control_change channel=5 control=11 value=127 time=0
pitchwheel channel=5 pitch=242 time=12
control_change channel=5 control=11 value=124 time=72
control_change channel=5 control=11 value=121 time=72
pitchwheel channel=5 pitch=0 time=48
control_change channel=5 control=11 value=119 time=60
control_change channel=5 control=11 value=116 time=48
pitchwheel channel=5 pitch=-82 time=36
control_change channel=5 control=11 value=114 time=72
pitchwheel channel=5 pitch=-244 time=24
control_change channel=5 control=11 value=111 time=24
pitchwheel channel=5 pitch=-407 time=48
pitchwheel channel=5 pitch=-569 time=60
control_change channel=5 control=11 value=109 time=0
control_change channel=5 control=11 value=106 time=48
pitchwheel channel=5 pitch=-731 time=12
pitchwheel channel=5 pitch=-893 time=36
pitchwheel channel=5 pitch=-1055 time=48
control_change channel=5 control=11 value=104 time=12
pitchwheel channel=5 pitch=-1218 time=24
pitchwheel channel=5 pitch=-1380 time=24
control_change channel=5 control=11 value=101 time=0
pitchwheel channel=5 pitch=-1542 time=36
pitchwheel channel=5 pitch=-1704 time=24
pitchwheel channel=5 pitch=-1866 time=12
pitchwheel channel=5 pitch=-2029 time=24
pitchwheel channel=5 pitch=-2191 time=12
control_change channel=5 control=11 value=99 time=0
pitchwheel channel=5 pitch=-2353 time=12
note_off channel=5 note=54 velocity=64 time=12
pitchwheel channel=5 pitch=-2515 time=0
pitchwheel channel=5 pitch=-2840 time=12
control_change channel=5 control=11 value=96 time=12
control_change channel=5 control=11 value=127 time=24
pitchwheel channel=5 pitch=0 time=0
note_on channel=5 note=50 velocity=75 time=1280
note_off channel=5 note=50 velocity=64 time=616
note_on channel=5 note=50 velocity=75 time=24
note_off channel=5 note=50 velocity=64 time=192
note_on channel=5 note=50 velocity=75 time=288
note_off channel=5 note=50 velocity=64 time=308
note_on channel=5 note=58 velocity=75 time=12
note_off channel=5 note=58 velocity=64 time=148
note_on channel=5 note=58 velocity=75 time=332
note_off channel=5 note=58 velocity=64 time=192
note_on channel=5 note=58 velocity=69 time=288
note_off channel=5 note=58 velocity=64 time=160
note_on channel=5 note=55 velocity=75 time=0
note_off channel=5 note=55 velocity=64 time=468
note_on channel=5 note=52 velocity=75 time=12
note_off channel=5 note=52 velocity=64 time=168
note_on channel=5 note=60 velocity=81 time=792
note_off channel=5 note=60 velocity=64 time=924
note_on channel=5 note=60 velocity=75 time=36
note_off channel=5 note=60 velocity=64 time=192
control_change channel=5 control=11 value=104 time=288
note_on channel=5 note=55 velocity=81 time=0
control_change channel=5 control=11 value=106 time=108
control_change channel=5 control=11 value=109 time=108
note_off channel=5 note=55 velocity=64 time=104
note_on channel=5 note=55 velocity=81 time=0
control_change channel=5 control=11 value=111 time=4
control_change channel=5 control=11 value=114 time=108
control_change channel=5 control=11 value=116 time=108
control_change channel=5 control=11 value=119 time=108
control_change channel=5 control=11 value=121 time=108
control_change channel=5 control=11 value=124 time=108
note_off channel=5 note=55 velocity=64 time=72
control_change channel=5 control=11 value=127 time=24
control_change channel=5 control=11 value=127 time=0
note_on channel=5 note=54 velocity=81 time=0
control_change channel=5 control=11 value=124 time=84
control_change channel=5 control=11 value=121 time=84
control_change channel=5 control=11 value=119 time=108
note_off channel=5 note=54 velocity=64 time=44
note_on channel=5 note=54 velocity=81 time=0
control_change channel=5 control=11 value=116 time=4
control_change channel=5 control=11 value=114 time=108
control_change channel=5 control=11 value=111 time=48
control_change channel=5 control=11 value=109 time=108
control_change channel=5 control=11 value=106 time=60
control_change channel=5 control=11 value=104 time=108
control_change channel=5 control=11 value=101 time=48
note_off channel=5 note=54 velocity=64 time=108
control_change channel=5 control=11 value=127 time=48
control_change channel=5 control=93 value=30 time=17280
note_on channel=5 note=56 velocity=75 time=0
note_off channel=5 note=56 velocity=64 time=456
note_on channel=5 note=56 velocity=75 time=24
note_off channel=5 note=56 velocity=64 time=308
note_on channel=5 note=55 velocity=75 time=12
note_off channel=5 note=55 velocity=64 time=148
note_on channel=5 note=50 velocity=75 time=812
note_off channel=5 note=50 velocity=64 time=616
note_on channel=5 note=53 velocity=75 time=24
note_off channel=5 note=53 velocity=64 time=308
note_on channel=5 note=50 velocity=62 time=12
note_off channel=5 note=50 velocity=64 time=148
note_on channel=5 note=57 velocity=75 time=12
note_off channel=5 note=57 velocity=64 time=296
note_on channel=5 note=57 velocity=75 time=24
note_off channel=5 note=57 velocity=64 time=180
note_on channel=5 note=55 velocity=75 time=300
note_off channel=5 note=55 velocity=64 time=616
note_on channel=5 note=55 velocity=75 time=24
note_off channel=5 note=55 velocity=64 time=308
note_on channel=5 note=54 velocity=75 time=12
note_off channel=5 note=54 velocity=64 time=136
note_on channel=5 note=53 velocity=75 time=1304
note_off channel=5 note=53 velocity=64 time=580
note_on channel=5 note=53 velocity=75 time=60
note_off channel=5 note=53 velocity=64 time=168
note_on channel=5 note=53 velocity=75 time=312
note_off channel=5 note=53 velocity=64 time=168
note_on channel=5 note=52 velocity=75 time=312
note_off channel=5 note=52 velocity=64 time=794
note_on channel=5 note=52 velocity=75 time=6
note_off channel=5 note=52 velocity=64 time=1072
note_on channel=5 note=57 velocity=69 time=368
note_off channel=5 note=57 velocity=64 time=1588
note_on channel=5 note=54 velocity=69 time=12
note_off channel=5 note=54 velocity=64 time=1850
<meta message end_of_track time=0>
<meta message text text='Bari Sax' time=0>
control_change channel=6 control=11 value=127 time=0
control_change channel=6 control=7 value=106 time=0
control_change channel=6 control=10 value=96 time=0
control_change channel=6 control=91 value=81 time=0
control_change channel=6 control=93 value=25 time=0
control_change channel=6 control=0 value=56 time=0
control_change channel=6 control=32 value=0 time=0
program_change channel=6 program=67 time=0
control_change channel=6 control=11 value=109 time=9944
note_on channel=6 note=53 velocity=60 time=0
control_change channel=6 control=11 value=110 time=250
control_change channel=6 control=11 value=111 time=250
control_change channel=6 control=11 value=113 time=250
control_change channel=6 control=11 value=114 time=250
control_change channel=6 control=11 value=115 time=240
control_change channel=6 control=11 value=116 time=250
note_off channel=6 note=53 velocity=64 time=86
note_on channel=6 note=50 velocity=62 time=24
control_change channel=6 control=11 value=118 time=140
control_change channel=6 control=11 value=119 time=250
control_change channel=6 control=11 value=120 time=250
control_change channel=6 control=11 value=121 time=240
control_change channel=6 control=11 value=123 time=250
control_change channel=6 control=11 value=124 time=250
control_change channel=6 control=11 value=125 time=250
control_change channel=6 control=11 value=127 time=240
note_off channel=6 note=50 velocity=64 time=26
note_on channel=6 note=55 velocity=75 time=344
note_off channel=6 note=55 velocity=64 time=592
note_on channel=6 note=55 velocity=77 time=48
note_off channel=6 note=55 velocity=64 time=180
note_on channel=6 note=55 velocity=79 time=300
note_off channel=6 note=55 velocity=64 time=180
note_on channel=6 note=60 velocity=81 time=300
note_off channel=6 note=60 velocity=64 time=788
note_on channel=6 note=60 velocity=84 time=12
note_off channel=6 note=60 velocity=64 time=604
note_on channel=6 note=60 velocity=86 time=36
note_off channel=6 note=60 velocity=64 time=284
note_on channel=6 note=53 velocity=86 time=36
note_off channel=6 note=53 velocity=64 time=136
note_on channel=6 note=46 velocity=62 time=53120
note_off channel=6 note=46 velocity=64 time=160
note_on channel=6 note=49 velocity=75 time=0
note_off channel=6 note=49 velocity=64 time=314
note_on channel=6 note=49 velocity=69 time=6
note_off channel=6 note=49 velocity=64 time=142
note_on channel=6 note=48 velocity=75 time=6
note_off channel=6 note=48 velocity=64 time=132
note_on channel=6 note=44 velocity=62 time=10760
note_off channel=6 note=44 velocity=64 time=580
note_on channel=6 note=43 velocity=62 time=60
note_off channel=6 note=43 velocity=64 time=156
note_on channel=6 note=43 velocity=62 time=324
note_off channel=6 note=43 velocity=64 time=308
note_on channel=6 note=43 velocity=62 time=12
note_off channel=6 note=43 velocity=64 time=148
note_on channel=6 note=43 velocity=56 time=12
note_off channel=6 note=43 velocity=64 time=68
note_on channel=6 note=43 velocity=62 time=12
note_off channel=6 note=43 velocity=64 time=80
note_on channel=6 note=49 velocity=65 time=320
note_off channel=6 note=49 velocity=64 time=320
control_change channel=6 control=11 value=104 time=0
note_on channel=6 note=48 velocity=67 time=0
control_change channel=6 control=11 value=105 time=100
control_change channel=6 control=11 value=108 time=80
control_change channel=6 control=11 value=109 time=100
control_change channel=6 control=11 value=111 time=100
control_change channel=6 control=11 value=114 time=90
control_change channel=6 control=11 value=115 time=100
control_change channel=6 control=11 value=118 time=70
control_change channel=6 control=11 value=119 time=100
control_change channel=6 control=11 value=121 time=100
control_change channel=6 control=11 value=124 time=90
control_change channel=6 control=11 value=125 time=100
control_change channel=6 control=11 value=127 time=10
note_off channel=6 note=48 velocity=64 time=92
note_on channel=6 note=42 velocity=69 time=308
note_on channel=6 note=41 velocity=40 time=112
note_on channel=6 note=40 velocity=28 time=40
note_off channel=6 note=42 velocity=64 time=4
note_off channel=6 note=41 velocity=64 time=8
note_on channel=6 note=39 velocity=17 time=28
note_off channel=6 note=40 velocity=64 time=12
note_off channel=6 note=39 velocity=64 time=40
note_on channel=6 note=41 velocity=70 time=236
note_off channel=6 note=41 velocity=64 time=604
note_on channel=6 note=41 velocity=62 time=36
note_off channel=6 note=41 velocity=64 time=308
note_on channel=6 note=41 velocity=50 time=12
note_off channel=6 note=41 velocity=64 time=148
note_on channel=6 note=45 velocity=62 time=12
note_off channel=6 note=45 velocity=64 time=296
note_on channel=6 note=39 velocity=62 time=24
note_off channel=6 note=39 velocity=64 time=168
note_on channel=6 note=38 velocity=62 time=312
control_change channel=6 control=11 value=127 time=160
control_change channel=6 control=11 value=124 time=96
control_change channel=6 control=11 value=121 time=72
control_change channel=6 control=11 value=118 time=120
control_change channel=6 control=11 value=115 time=72
control_change channel=6 control=11 value=111 time=120
control_change channel=6 control=11 value=108 time=120
control_change channel=6 control=11 value=105 time=72
control_change channel=6 control=11 value=101 time=120
note_off channel=6 note=38 velocity=64 time=108
control_change channel=6 control=11 value=98 time=12
control_change channel=6 control=11 value=96 time=24
control_change channel=6 control=11 value=127 time=24
note_on channel=6 note=64 velocity=75 time=320
note_off channel=6 note=64 velocity=64 time=148
note_on channel=6 note=62 velocity=62 time=12
note_off channel=6 note=62 velocity=64 time=296
note_on channel=6 note=57 velocity=69 time=24
control_change channel=6 control=11 value=127 time=160
control_change channel=6 control=11 value=119 time=24
control_change channel=6 control=11 value=111 time=24
control_change channel=6 control=11 value=104 time=24
control_change channel=6 control=11 value=96 time=24
control_change channel=6 control=11 value=89 time=24
control_change channel=6 control=11 value=89 time=0
control_change channel=6 control=11 value=93 time=120
control_change channel=6 control=11 value=96 time=96
control_change channel=6 control=11 value=99 time=72
control_change channel=6 control=11 value=103 time=96
control_change channel=6 control=11 value=106 time=120
control_change channel=6 control=11 value=109 time=48
control_change channel=6 control=11 value=113 time=120
control_change channel=6 control=11 value=116 time=96
control_change channel=6 control=11 value=119 time=72
control_change channel=6 control=11 value=123 time=96
control_change channel=6 control=11 value=127 time=96
note_off channel=6 note=57 velocity=64 time=104
note_on channel=6 note=64 velocity=75 time=24
note_off channel=6 note=64 velocity=64 time=148
note_on channel=6 note=62 velocity=62 time=12
note_off channel=6 note=62 velocity=64 time=296
note_on channel=6 note=57 velocity=69 time=24
control_change channel=6 control=11 value=127 time=160
control_change channel=6 control=11 value=119 time=24
control_change channel=6 control=11 value=111 time=24
control_change channel=6 control=11 value=104 time=24
control_change channel=6 control=11 value=96 time=24
control_change channel=6 control=11 value=89 time=24
control_change channel=6 control=11 value=89 time=0
control_change channel=6 control=11 value=93 time=120
control_change channel=6 control=11 value=96 time=96
control_change channel=6 control=11 value=99 time=72
control_change channel=6 control=11 value=103 time=96
control_change channel=6 control=11 value=106 time=120
control_change channel=6 control=11 value=109 time=48
control_change channel=6 control=11 value=113 time=120
control_change channel=6 control=11 value=116 time=96
control_change channel=6 control=11 value=119 time=72
control_change channel=6 control=11 value=123 time=96
control_change channel=6 control=11 value=127 time=96
note_off channel=6 note=57 velocity=64 time=104
note_on channel=6 note=62 velocity=75 time=24
note_off channel=6 note=62 velocity=64 time=148
note_on channel=6 note=60 velocity=62 time=12
note_off channel=6 note=60 velocity=64 time=296
note_on channel=6 note=55 velocity=69 time=24
control_change channel=6 control=11 value=127 time=232
control_change channel=6 control=11 value=121 time=24
control_change channel=6 control=11 value=115 time=24
control_change channel=6 control=11 value=109 time=24
control_change channel=6 control=11 value=103 time=24
control_change channel=6 control=11 value=96 time=24
control_change channel=6 control=11 value=90 time=24
control_change channel=6 control=11 value=85 time=24
control_change channel=6 control=11 value=84 time=0
control_change channel=6 control=11 value=84 time=0
control_change channel=6 control=11 value=85 time=120
control_change channel=6 control=11 value=88 time=120
control_change channel=6 control=11 value=89 time=120
control_change channel=6 control=11 value=91 time=120
control_change channel=6 control=11 value=94 time=120
control_change channel=6 control=11 value=95 time=120
control_change channel=6 control=11 value=98 time=120
control_change channel=6 control=11 value=99 time=120
control_change channel=6 control=11 value=101 time=120
control_change channel=6 control=11 value=104 time=120
control_change channel=6 control=11 value=105 time=120
control_change channel=6 control=11 value=108 time=120
control_change channel=6 control=11 value=109 time=120
control_change channel=6 control=11 value=111 time=120
control_change channel=6 control=11 value=114 time=120
control_change channel=6 control=11 value=115 time=120
control_change channel=6 control=11 value=118 time=120
control_change channel=6 control=11 value=119 time=120
control_change channel=6 control=11 value=121 time=120
control_change channel=6 control=11 value=124 time=120
control_change channel=6 control=11 value=125 time=120
control_change channel=6 control=11 value=127 time=24
note_off channel=6 note=55 velocity=64 time=368
note_on channel=6 note=41 velocity=69 time=48
note_off channel=6 note=41 velocity=64 time=616
note_on channel=6 note=46 velocity=62 time=24
note_off channel=6 note=46 velocity=64 time=296
note_on channel=6 note=46 velocity=62 time=24
note_off channel=6 note=46 velocity=64 time=136
note_on channel=6 note=56 velocity=81 time=13944
note_off channel=6 note=56 velocity=64 time=308
note_on channel=6 note=57 velocity=81 time=12
note_off channel=6 note=57 velocity=64 time=180
note_on channel=6 note=62 velocity=81 time=300
note_off channel=6 note=62 velocity=64 time=1072
note_on channel=6 note=56 velocity=81 time=48
note_off channel=6 note=56 velocity=64 time=308
note_on channel=6 note=57 velocity=81 time=12
note_off channel=6 note=57 velocity=64 time=180
note_on channel=6 note=50 velocity=81 time=300
note_off channel=6 note=50 velocity=64 time=1072
note_on channel=6 note=56 velocity=81 time=48
note_off channel=6 note=56 velocity=64 time=180
note_on channel=6 note=57 velocity=81 time=300
note_off channel=6 note=57 velocity=64 time=180
note_on channel=6 note=62 velocity=81 time=300
note_off channel=6 note=62 velocity=64 time=912
note_on channel=6 note=56 velocity=81 time=48
note_off channel=6 note=56 velocity=64 time=308
note_on channel=6 note=57 velocity=81 time=12
note_off channel=6 note=57 velocity=64 time=180
note_on channel=6 note=50 velocity=81 time=300
note_off channel=6 note=50 velocity=64 time=1072
note_on channel=6 note=56 velocity=81 time=48
note_off channel=6 note=56 velocity=64 time=180
note_on channel=6 note=57 velocity=81 time=300
note_off channel=6 note=57 velocity=64 time=180
note_on channel=6 note=62 velocity=81 time=300
note_off channel=6 note=62 velocity=64 time=912
note_on channel=6 note=64 velocity=81 time=48
note_off channel=6 note=64 velocity=64 time=308
note_on channel=6 note=62 velocity=81 time=12
note_off channel=6 note=62 velocity=64 time=180
note_on channel=6 note=50 velocity=81 time=300
note_off channel=6 note=50 velocity=64 time=1072
note_on channel=6 note=50 velocity=81 time=48
note_off channel=6 note=50 velocity=64 time=320
note_on channel=6 note=53 velocity=74 time=0
note_off channel=6 note=53 velocity=64 time=160
note_on channel=6 note=56 velocity=81 time=0
note_off channel=6 note=56 velocity=64 time=320
note_on channel=6 note=55 velocity=81 time=0
control_change channel=6 control=11 value=127 time=160
control_change channel=6 control=11 value=125 time=120
control_change channel=6 control=11 value=124 time=120
control_change channel=6 control=11 value=123 time=120
control_change channel=6 control=11 value=121 time=120
control_change channel=6 control=11 value=120 time=120
control_change channel=6 control=11 value=119 time=120
control_change channel=6 control=11 value=118 time=120
control_change channel=6 control=11 value=115 time=120
control_change channel=6 control=11 value=114 time=120
control_change channel=6 control=11 value=113 time=120
control_change channel=6 control=11 value=111 time=120
control_change channel=6 control=11 value=110 time=120
control_change channel=6 control=11 value=109 time=120
control_change channel=6 control=11 value=108 time=120
control_change channel=6 control=11 value=105 time=120
note_off channel=6 note=55 velocity=64 time=72
control_change channel=6 control=11 value=127 time=48
note_on channel=6 note=56 velocity=75 time=480
note_off channel=6 note=56 velocity=64 time=308
note_on channel=6 note=56 velocity=75 time=12
note_off channel=6 note=56 velocity=64 time=204
note_on channel=6 note=53 velocity=62 time=276
note_off channel=6 note=53 velocity=64 time=160
note_on channel=6 note=56 velocity=75 time=0
note_off channel=6 note=56 velocity=64 time=320
note_on channel=6 note=56 velocity=69 time=0
note_off channel=6 note=56 velocity=64 time=148
note_on channel=6 note=53 velocity=75 time=12
note_off channel=6 note=53 velocity=64 time=308
note_on channel=6 note=50 velocity=75 time=12
note_off channel=6 note=50 velocity=64 time=148
note_on channel=6 note=47 velocity=75 time=1932
note_off channel=6 note=47 velocity=64 time=180
note_on channel=6 note=40 velocity=75 time=300
note_off channel=6 note=40 velocity=64 time=308
note_on channel=6 note=40 velocity=75 time=12
note_off channel=6 note=40 velocity=64 time=192
note_on channel=6 note=45 velocity=75 time=288
note_on channel=6 note=47 velocity=54 time=1440
note_off channel=6 note=45 velocity=64 time=16
note_on channel=6 note=46 velocity=62 time=64
note_off channel=6 note=47 velocity=64 time=24
note_on channel=6 note=45 velocity=74 time=56
note_off channel=6 note=46 velocity=64 time=24
note_off channel=6 note=45 velocity=64 time=284
note_on channel=6 note=38 velocity=75 time=12
pitchwheel channel=6 pitch=0 time=160
control_change channel=6 control=11 value=127 time=0
pitchwheel channel=6 pitch=242 time=12
control_change channel=6 control=11 value=124 time=72
control_change channel=6 control=11 value=121 time=72
pitchwheel channel=6 pitch=0 time=48
control_change channel=6 control=11 value=119 time=60
control_change channel=6 control=11 value=116 time=48
pitchwheel channel=6 pitch=-82 time=36
control_change channel=6 control=11 value=114 time=72
pitchwheel channel=6 pitch=-244 time=24
control_change channel=6 control=11 value=111 time=24
pitchwheel channel=6 pitch=-407 time=48
pitchwheel channel=6 pitch=-569 time=60
control_change channel=6 control=11 value=109 time=0
control_change channel=6 control=11 value=106 time=48
pitchwheel channel=6 pitch=-731 time=12
pitchwheel channel=6 pitch=-893 time=36
pitchwheel channel=6 pitch=-1055 time=48
control_change channel=6 control=11 value=104 time=12
pitchwheel channel=6 pitch=-1218 time=24
pitchwheel channel=6 pitch=-1380 time=24
control_change channel=6 control=11 value=101 time=0
pitchwheel channel=6 pitch=-1542 time=36
pitchwheel channel=6 pitch=-1704 time=24
pitchwheel channel=6 pitch=-1866 time=12
pitchwheel channel=6 pitch=-2029 time=24
pitchwheel channel=6 pitch=-2191 time=12
control_change channel=6 control=11 value=99 time=0
pitchwheel channel=6 pitch=-2353 time=12
note_off channel=6 note=38 velocity=64 time=12
pitchwheel channel=6 pitch=-2515 time=0
pitchwheel channel=6 pitch=-2840 time=12
control_change channel=6 control=11 value=96 time=12
control_change channel=6 control=11 value=127 time=24
pitchwheel channel=6 pitch=0 time=0
note_on channel=6 note=43 velocity=75 time=1280
note_off channel=6 note=43 velocity=64 time=616
note_on channel=6 note=43 velocity=75 time=24
note_off channel=6 note=43 velocity=64 time=192
note_on channel=6 note=43 velocity=75 time=288
note_off channel=6 note=43 velocity=64 time=308
note_on channel=6 note=48 velocity=75 time=12
note_off channel=6 note=48 velocity=64 time=148
note_on channel=6 note=48 velocity=75 time=332
note_off channel=6 note=48 velocity=64 time=192
note_on channel=6 note=55 velocity=69 time=288
note_off channel=6 note=55 velocity=64 time=160
note_on channel=6 note=48 velocity=75 time=0
note_off channel=6 note=48 velocity=64 time=468
note_on channel=6 note=46 velocity=75 time=12
note_off channel=6 note=46 velocity=64 time=168
note_on channel=6 note=45 velocity=81 time=792
note_off channel=6 note=45 velocity=64 time=924
note_on channel=6 note=45 velocity=75 time=36
note_off channel=6 note=45 velocity=64 time=192
control_change channel=6 control=11 value=104 time=288
note_on channel=6 note=46 velocity=81 time=0
control_change channel=6 control=11 value=106 time=108
control_change channel=6 control=11 value=109 time=108
note_off channel=6 note=46 velocity=64 time=104
note_on channel=6 note=39 velocity=81 time=0
control_change channel=6 control=11 value=111 time=4
control_change channel=6 control=11 value=114 time=108
control_change channel=6 control=11 value=116 time=108
control_change channel=6 control=11 value=119 time=108
control_change channel=6 control=11 value=121 time=108
control_change channel=6 control=11 value=124 time=108
note_off channel=6 note=39 velocity=64 time=72
control_change channel=6 control=11 value=127 time=24
control_change channel=6 control=11 value=127 time=0
note_on channel=6 note=38 velocity=81 time=0
control_change channel=6 control=11 value=124 time=84
control_change channel=6 control=11 value=121 time=84
control_change channel=6 control=11 value=119 time=108
note_off channel=6 note=38 velocity=64 time=44
note_on channel=6 note=44 velocity=81 time=0
control_change channel=6 control=11 value=116 time=4
control_change channel=6 control=11 value=114 time=108
control_change channel=6 control=11 value=111 time=48
control_change channel=6 control=11 value=109 time=108
control_change channel=6 control=11 value=106 time=60
control_change channel=6 control=11 value=104 time=108
control_change channel=6 control=11 value=101 time=48
note_off channel=6 note=44 velocity=64 time=108
control_change channel=6 control=11 value=127 time=48
control_change channel=6 control=93 value=30 time=17280
note_on channel=6 note=46 velocity=75 time=0
note_off channel=6 note=46 velocity=64 time=456
note_on channel=6 note=46 velocity=75 time=24
note_off channel=6 note=46 velocity=64 time=308
note_on channel=6 note=39 velocity=75 time=12
note_off channel=6 note=39 velocity=64 time=148
note_on channel=6 note=48 velocity=75 time=812
note_off channel=6 note=48 velocity=64 time=616
note_on channel=6 note=50 velocity=75 time=24
note_off channel=6 note=50 velocity=64 time=308
note_on channel=6 note=48 velocity=62 time=12
note_off channel=6 note=48 velocity=64 time=148
note_on channel=6 note=53 velocity=75 time=12
note_off channel=6 note=53 velocity=64 time=296
note_on channel=6 note=48 velocity=75 time=24
note_off channel=6 note=48 velocity=64 time=180
note_on channel=6 note=45 velocity=75 time=300
note_off channel=6 note=45 velocity=64 time=616
note_on channel=6 note=45 velocity=75 time=24
note_off channel=6 note=45 velocity=64 time=308
note_on channel=6 note=38 velocity=75 time=12
note_off channel=6 note=38 velocity=64 time=136
note_on channel=6 note=43 velocity=75 time=1304
note_off channel=6 note=43 velocity=64 time=580
note_on channel=6 note=43 velocity=75 time=60
note_off channel=6 note=43 velocity=64 time=168
note_on channel=6 note=43 velocity=75 time=312
note_off channel=6 note=43 velocity=64 time=168
note_on channel=6 note=48 velocity=75 time=312
note_off channel=6 note=48 velocity=64 time=794
note_on channel=6 note=48 velocity=75 time=6
note_off channel=6 note=48 velocity=64 time=1072
note_on channel=6 note=41 velocity=75 time=368
note_off channel=6 note=41 velocity=64 time=1588
note_on channel=6 note=38 velocity=75 time=12
note_off channel=6 note=38 velocity=64 time=1850
<meta message end_of_track time=0>
<meta message text text='Trumpet 1' time=0>
control_change channel=7 control=11 value=127 time=0
control_change channel=7 control=7 value=106 time=0
control_change channel=7 control=10 value=74 time=0
control_change channel=7 control=91 value=94 time=0
control_change channel=7 control=93 value=30 time=0
control_change channel=7 control=0 value=56 time=0
control_change channel=7 control=32 value=0 time=0
program_change channel=7 program=56 time=0
note_on channel=7 note=80 velocity=121 time=13760
note_off channel=7 note=80 velocity=64 time=580
note_on channel=7 note=81 velocity=121 time=60
note_off channel=7 note=81 velocity=64 time=168
note_on channel=7 note=74 velocity=121 time=312
note_off channel=7 note=74 velocity=64 time=168
note_on channel=7 note=80 velocity=121 time=312
note_off channel=7 note=80 velocity=64 time=764
note_on channel=7 note=81 velocity=121 time=36
note_off channel=7 note=81 velocity=64 time=592
note_on channel=7 note=74 velocity=121 time=48
note_off channel=7 note=74 velocity=64 time=272
note_on channel=7 note=77 velocity=121 time=48
note_off channel=7 note=77 velocity=64 time=124
note_on channel=7 note=65 velocity=75 time=19556
note_off channel=7 note=65 velocity=64 time=124
note_on channel=7 note=73 velocity=80 time=36
note_off channel=7 note=73 velocity=64 time=132
note_on channel=7 note=74 velocity=75 time=348
note_off channel=7 note=74 velocity=64 time=294
control_change channel=7 control=11 value=109 time=26
note_on channel=7 note=77 velocity=82 time=0
control_change channel=7 control=11 value=110 time=100
control_change channel=7 control=11 value=111 time=100
control_change channel=7 control=11 value=113 time=100
control_change channel=7 control=11 value=114 time=100
control_change channel=7 control=11 value=115 time=100
control_change channel=7 control=11 value=116 time=100
control_change channel=7 control=11 value=118 time=100
control_change channel=7 control=11 value=119 time=100
control_change channel=7 control=11 value=120 time=100
control_change channel=7 control=11 value=121 time=100
control_change channel=7 control=11 value=123 time=100
control_change channel=7 control=11 value=124 time=100
control_change channel=7 control=11 value=125 time=100
control_change channel=7 control=11 value=127 time=60
note_off channel=7 note=77 velocity=64 time=44
note_on channel=7 note=76 velocity=85 time=36
note_off channel=7 note=76 velocity=64 time=112
note_on channel=7 note=74 velocity=81 time=368
note_off channel=7 note=74 velocity=64 time=144
note_on channel=7 note=76 velocity=75 time=336
note_off channel=7 note=76 velocity=64 time=136
note_on channel=7 note=64 velocity=80 time=24
note_off channel=7 note=64 velocity=64 time=284
note_on channel=7 note=64 velocity=75 time=36
note_off channel=7 note=64 velocity=64 time=136
note_on channel=7 note=69 velocity=80 time=24
note_off channel=7 note=69 velocity=64 time=120
note_on channel=7 note=72 velocity=80 time=360
note_off channel=7 note=72 velocity=64 time=284
note_on channel=7 note=76 velocity=80 time=36
note_off channel=7 note=76 velocity=64 time=120
note_on channel=7 note=71 velocity=80 time=360
control_change channel=7 control=11 value=127 time=232
control_change channel=7 control=11 value=120 time=24
control_change channel=7 control=11 value=114 time=24
control_change channel=7 control=11 value=108 time=24
control_change channel=7 control=11 value=101 time=24
control_change channel=7 control=11 value=94 time=24
control_change channel=7 control=11 value=96 time=120
control_change channel=7 control=11 value=99 time=120
control_change channel=7 control=11 value=101 time=120
control_change channel=7 control=11 value=104 time=120
control_change channel=7 control=11 value=106 time=120
control_change channel=7 control=11 value=109 time=120
control_change channel=7 control=11 value=111 time=120
control_change channel=7 control=11 value=114 time=120
control_change channel=7 control=11 value=116 time=120
control_change channel=7 control=11 value=119 time=120
control_change channel=7 control=11 value=121 time=120
control_change channel=7 control=11 value=124 time=120
control_change channel=7 control=11 value=127 time=120
note_off channel=7 note=71 velocity=64 time=120
note_on channel=7 note=62 velocity=75 time=368
note_off channel=7 note=62 velocity=64 time=124
note_on channel=7 note=67 velocity=80 time=36
note_off channel=7 note=67 velocity=64 time=120
note_on channel=7 note=70 velocity=79 time=360
note_off channel=7 note=70 velocity=64 time=284
note_on channel=7 note=74 velocity=83 time=36
note_off channel=7 note=74 velocity=64 time=108
note_on channel=7 note=77 velocity=89 time=372
note_off channel=7 note=77 velocity=64 time=592
note_on channel=7 note=76 velocity=85 time=48
note_off channel=7 note=76 velocity=64 time=296
note_on channel=7 note=74 velocity=75 time=24
note_off channel=7 note=74 velocity=64 time=134
note_on channel=7 note=72 velocity=82 time=26
note_off channel=7 note=72 velocity=64 time=284
note_on channel=7 note=74 velocity=78 time=36
note_off channel=7 note=74 velocity=64 time=120
note_on channel=7 note=69 velocity=85 time=360
control_change channel=7 control=11 value=127 time=232
control_change channel=7 control=11 value=120 time=24
control_change channel=7 control=11 value=114 time=24
control_change channel=7 control=11 value=108 time=24
control_change channel=7 control=11 value=101 time=24
control_change channel=7 control=11 value=95 time=24
control_change channel=7 control=11 value=95 time=0
control_change channel=7 control=11 value=96 time=120
control_change channel=7 control=11 value=98 time=120
control_change channel=7 control=11 value=99 time=120
control_change channel=7 control=11 value=100 time=120
control_change channel=7 control=11 value=101 time=120
control_change channel=7 control=11 value=103 time=120
control_change channel=7 control=11 value=104 time=120
control_change channel=7 control=11 value=105 time=120
control_change channel=7 control=11 value=106 time=120
control_change channel=7 control=11 value=108 time=120
control_change channel=7 control=11 value=109 time=120
control_change channel=7 control=11 value=110 time=120
control_change channel=7 control=11 value=111 time=120
control_change channel=7 control=11 value=113 time=120
control_change channel=7 control=11 value=114 time=120
control_change channel=7 control=11 value=115 time=120
control_change channel=7 control=11 value=116 time=120
control_change channel=7 control=11 value=118 time=120
control_change channel=7 control=11 value=119 time=120
control_change channel=7 control=11 value=120 time=120
control_change channel=7 control=11 value=121 time=120
control_change channel=7 control=11 value=123 time=120
control_change channel=7 control=11 value=124 time=120
control_change channel=7 control=11 value=125 time=120
control_change channel=7 control=11 value=127 time=48
note_off channel=7 note=69 velocity=64 time=192
note_on channel=7 note=70 velocity=85 time=48
note_off channel=7 note=70 velocity=64 time=284
note_on channel=7 note=69 velocity=85 time=36
note_off channel=7 note=69 velocity=64 time=112
note_on channel=7 note=65 velocity=90 time=15728
note_off channel=7 note=65 velocity=64 time=136
note_on channel=7 note=73 velocity=96 time=24
note_off channel=7 note=73 velocity=64 time=144
note_on channel=7 note=74 velocity=101 time=336
note_off channel=7 note=74 velocity=64 time=296
note_on channel=7 note=77 velocity=90 time=24
note_off channel=7 note=77 velocity=64 time=136
note_on channel=7 note=79 velocity=103 time=24
note_off channel=7 note=79 velocity=64 time=296
note_on channel=7 note=80 velocity=109 time=24
note_off channel=7 note=80 velocity=64 time=604
note_on channel=7 note=79 velocity=103 time=36
note_off channel=7 note=79 velocity=64 time=308
note_on channel=7 note=77 velocity=106 time=12
control_change channel=7 control=11 value=127 time=16
control_change channel=7 control=11 value=125 time=120
control_change channel=7 control=11 value=123 time=120
control_change channel=7 control=11 value=121 time=120
control_change channel=7 control=11 value=119 time=120
control_change channel=7 control=11 value=118 time=120
control_change channel=7 control=11 value=115 time=96
control_change channel=7 control=11 value=114 time=120
control_change channel=7 control=11 value=111 time=120
note_off channel=7 note=77 velocity=64 time=120
control_change channel=7 control=11 value=110 time=0
control_change channel=7 control=11 value=109 time=24
control_change channel=7 control=11 value=127 time=24
note_on channel=7 note=65 velocity=90 time=320
note_off channel=7 note=65 velocity=64 time=136
note_on channel=7 note=68 velocity=96 time=24
note_off channel=7 note=68 velocity=64 time=144
note_on channel=7 note=69 velocity=101 time=336
note_off channel=7 note=69 velocity=64 time=296
note_on channel=7 note=72 velocity=90 time=24
note_off channel=7 note=72 velocity=64 time=136
note_on channel=7 note=74 velocity=103 time=24
note_off channel=7 note=74 velocity=64 time=296
note_on channel=7 note=75 velocity=109 time=24
note_off channel=7 note=75 velocity=64 time=604
note_on channel=7 note=74 velocity=103 time=36
note_off channel=7 note=74 velocity=64 time=308
note_on channel=7 note=72 velocity=106 time=12
control_change channel=7 control=11 value=127 time=16
control_change channel=7 control=11 value=125 time=120
control_change channel=7 control=11 value=123 time=120
control_change channel=7 control=11 value=121 time=120
control_change channel=7 control=11 value=119 time=120
control_change channel=7 control=11 value=118 time=120
control_change channel=7 control=11 value=115 time=96
control_change channel=7 control=11 value=114 time=120
control_change channel=7 control=11 value=111 time=120
note_off channel=7 note=72 velocity=64 time=120
control_change channel=7 control=11 value=110 time=0
control_change channel=7 control=11 value=109 time=24
control_change channel=7 control=11 value=127 time=24
note_on channel=7 note=70 velocity=96 time=7040
note_off channel=7 note=70 velocity=64 time=580
note_on channel=7 note=69 velocity=96 time=60
note_off channel=7 note=69 velocity=64 time=144
note_on channel=7 note=69 velocity=96 time=336
note_off channel=7 note=69 velocity=64 time=296
note_on channel=7 note=67 velocity=96 time=24
note_off channel=7 note=67 velocity=64 time=136
note_on channel=7 note=69 velocity=90 time=24
note_off channel=7 note=69 velocity=64 time=56
note_on channel=7 note=69 velocity=96 time=24
note_off channel=7 note=69 velocity=64 time=68
note_on channel=7 note=67 velocity=96 time=332
note_off channel=7 note=67 velocity=64 time=308
control_change channel=7 control=11 value=104 time=12
note_on channel=7 note=69 velocity=103 time=0
control_change channel=7 control=11 value=105 time=100
control_change channel=7 control=11 value=108 time=80
control_change channel=7 control=11 value=109 time=100
control_change channel=7 control=11 value=111 time=100
control_change channel=7 control=11 value=114 time=90
control_change channel=7 control=11 value=115 time=100
control_change channel=7 control=11 value=118 time=70
control_change channel=7 control=11 value=119 time=100
control_change channel=7 control=11 value=121 time=100
control_change channel=7 control=11 value=124 time=90
control_change channel=7 control=11 value=125 time=100
control_change channel=7 control=11 value=127 time=10
note_off channel=7 note=69 velocity=64 time=80
note_on channel=7 note=72 velocity=103 time=320
note_on channel=7 note=71 velocity=66 time=112
note_on channel=7 note=70 velocity=47 time=40
note_off channel=7 note=72 velocity=64 time=4
note_off channel=7 note=71 velocity=64 time=8
note_on channel=7 note=69 velocity=33 time=28
note_off channel=7 note=70 velocity=64 time=12
note_off channel=7 note=69 velocity=64 time=40
note_on channel=7 note=74 velocity=103 time=236
note_off channel=7 note=74 velocity=64 time=592
note_on channel=7 note=74 velocity=96 time=48
note_off channel=7 note=74 velocity=64 time=296
note_on channel=7 note=72 velocity=85 time=24
note_off channel=7 note=72 velocity=64 time=136
note_on channel=7 note=74 velocity=96 time=24
note_off channel=7 note=74 velocity=64 time=284
note_on channel=7 note=72 velocity=96 time=36
note_off channel=7 note=72 velocity=64 time=156
note_on channel=7 note=74 velocity=96 time=324
control_change channel=7 control=11 value=127 time=160
control_change channel=7 control=11 value=125 time=120
control_change channel=7 control=11 value=123 time=120
control_change channel=7 control=11 value=121 time=120
control_change channel=7 control=11 value=119 time=120
control_change channel=7 control=11 value=118 time=120
control_change channel=7 control=11 value=115 time=120
control_change channel=7 control=11 value=114 time=120
control_change channel=7 control=11 value=111 time=120
control_change channel=7 control=11 value=110 time=120
control_change channel=7 control=11 value=108 time=120
control_change channel=7 control=11 value=106 time=120
control_change channel=7 control=11 value=104 time=120
control_change channel=7 control=11 value=103 time=120
control_change channel=7 control=11 value=100 time=120
control_change channel=7 control=11 value=99 time=120
note_off channel=7 note=74 velocity=64 time=60
control_change channel=7 control=11 value=96 time=36
control_change channel=7 control=11 value=127 time=24
note_on channel=7 note=73 velocity=103 time=320
note_on channel=7 note=72 velocity=51 time=112
note_on channel=7 note=71 velocity=27 time=40
note_off channel=7 note=73 velocity=64 time=4
note_off channel=7 note=72 velocity=64 time=8
note_off channel=7 note=71 velocity=64 time=40
note_on channel=7 note=76 velocity=103 time=276
note_off channel=7 note=76 velocity=64 time=580
note_on channel=7 note=74 velocity=103 time=60
note_off channel=7 note=74 velocity=64 time=168
note_on channel=7 note=73 velocity=103 time=632
note_on channel=7 note=72 velocity=51 time=112
note_on channel=7 note=71 velocity=27 time=40
note_off channel=7 note=73 velocity=64 time=4
note_off channel=7 note=72 velocity=64 time=8
note_off channel=7 note=71 velocity=64 time=40
note_on channel=7 note=74 velocity=103 time=276
note_off channel=7 note=74 velocity=64 time=580
note_on channel=7 note=72 velocity=103 time=60
note_off channel=7 note=72 velocity=64 time=168
note_on channel=7 note=67 velocity=96 time=632
note_off channel=7 note=67 velocity=64 time=444
note_on channel=7 note=70 velocity=99 time=36
note_off channel=7 note=70 velocity=64 time=444
note_on channel=7 note=72 velocity=103 time=36
note_off channel=7 note=72 velocity=64 time=444
note_on channel=7 note=70 velocity=100 time=36
note_off channel=7 note=70 velocity=64 time=136
note_on channel=7 note=74 velocity=106 time=24
note_off channel=7 note=74 velocity=64 time=148
note_on channel=7 note=70 velocity=90 time=12
note_off channel=7 note=70 velocity=64 time=148
note_on channel=7 note=77 velocity=109 time=12
note_off channel=7 note=77 velocity=64 time=924
note_on channel=7 note=68 velocity=103 time=36
note_off channel=7 note=68 velocity=64 time=604
note_on channel=7 note=65 velocity=99 time=36
note_off channel=7 note=65 velocity=64 time=284
note_on channel=7 note=65 velocity=97 time=36
note_off channel=7 note=65 velocity=64 time=124
note_on channel=7 note=81 velocity=109 time=15236
note_off channel=7 note=81 velocity=64 time=604
note_on channel=7 note=76 velocity=109 time=36
note_off channel=7 note=76 velocity=64 time=296
note_on channel=7 note=74 velocity=109 time=24
note_off channel=7 note=74 velocity=64 time=136
note_on channel=7 note=81 velocity=109 time=824
note_off channel=7 note=81 velocity=64 time=604
note_on channel=7 note=75 velocity=109 time=36
note_off channel=7 note=75 velocity=64 time=296
note_on channel=7 note=72 velocity=109 time=24
note_off channel=7 note=72 velocity=64 time=136
note_on channel=7 note=81 velocity=109 time=824
note_off channel=7 note=81 velocity=64 time=604
note_on channel=7 note=76 velocity=109 time=36
note_off channel=7 note=76 velocity=64 time=296
note_on channel=7 note=74 velocity=109 time=24
note_off channel=7 note=74 velocity=64 time=136
note_on channel=7 note=81 velocity=109 time=824
note_off channel=7 note=81 velocity=64 time=604
note_on channel=7 note=75 velocity=109 time=36
note_off channel=7 note=75 velocity=64 time=296
note_on channel=7 note=72 velocity=109 time=24
note_off channel=7 note=72 velocity=64 time=136
note_on channel=7 note=81 velocity=109 time=824
note_off channel=7 note=81 velocity=64 time=580
note_on channel=7 note=81 velocity=109 time=60
note_off channel=7 note=81 velocity=64 time=168
note_on channel=7 note=81 velocity=109 time=312
note_off channel=7 note=81 velocity=64 time=168
note_on channel=7 note=81 velocity=109 time=312
note_off channel=7 note=81 velocity=64 time=296
note_on channel=7 note=84 velocity=96 time=24
note_off channel=7 note=84 velocity=64 time=148
note_on channel=7 note=81 velocity=109 time=12
note_off channel=7 note=81 velocity=64 time=311
note_on channel=7 note=81 velocity=109 time=9
pitchwheel channel=7 pitch=0 time=16
control_change channel=7 control=11 value=127 time=0
pitchwheel channel=7 pitch=242 time=24
control_change channel=7 control=11 value=124 time=72
control_change channel=7 control=11 value=121 time=96
pitchwheel channel=7 pitch=0 time=72
control_change channel=7 control=11 value=119 time=48
control_change channel=7 control=11 value=116 time=48
pitchwheel channel=7 pitch=-82 time=96
control_change channel=7 control=11 value=114 time=24
control_change channel=7 control=11 value=111 time=72
pitchwheel channel=7 pitch=-244 time=24
pitchwheel channel=7 pitch=-407 time=96
control_change channel=7 control=11 value=109 time=0
control_change channel=7 control=11 value=106 time=48
pitchwheel channel=7 pitch=-569 time=24
pitchwheel channel=7 pitch=-731 time=72
control_change channel=7 control=11 value=104 time=24
pitchwheel channel=7 pitch=-893 time=24
pitchwheel channel=7 pitch=-1055 time=48
control_change channel=7 control=11 value=101 time=0
pitchwheel channel=7 pitch=-1218 time=48
pitchwheel channel=7 pitch=-1380 time=24
pitchwheel channel=7 pitch=-1542 time=24
pitchwheel channel=7 pitch=-1704 time=24
control_change channel=7 control=11 value=99 time=0
note_off channel=7 note=81 velocity=64 time=24
pitchwheel channel=7 pitch=-2029 time=0
control_change channel=7 control=11 value=96 time=24
control_change channel=7 control=11 value=127 time=0
control_change channel=7 control=11 value=127 time=24
pitchwheel channel=7 pitch=0 time=0
note_on channel=7 note=79 velocity=109 time=320
note_on channel=7 note=78 velocity=45 time=112
note_on channel=7 note=77 velocity=35 time=40
note_off channel=7 note=79 velocity=64 time=8
note_off channel=7 note=78 velocity=64 time=4
note_off channel=7 note=77 velocity=64 time=40
note_on channel=7 note=79 velocity=109 time=436
note_off channel=7 note=79 velocity=64 time=168
note_on channel=7 note=79 velocity=109 time=312
note_off channel=7 note=79 velocity=64 time=168
note_on channel=7 note=80 velocity=109 time=792
note_off channel=7 note=80 velocity=64 time=296
note_on channel=7 note=80 velocity=109 time=24
note_off channel=7 note=80 velocity=64 time=192
note_on channel=7 note=77 velocity=96 time=288
note_off channel=7 note=77 velocity=64 time=148
note_on channel=7 note=80 velocity=109 time=12
note_off channel=7 note=80 velocity=64 time=308
note_on channel=7 note=80 velocity=103 time=12
note_off channel=7 note=80 velocity=64 time=136
note_on channel=7 note=77 velocity=109 time=24
note_off channel=7 note=77 velocity=64 time=296
note_on channel=7 note=74 velocity=109 time=24
note_off channel=7 note=74 velocity=64 time=136
note_on channel=7 note=74 velocity=109 time=1944
note_off channel=7 note=74 velocity=64 time=168
note_on channel=7 note=76 velocity=109 time=312
note_off channel=7 note=76 velocity=64 time=296
note_on channel=7 note=77 velocity=109 time=24
note_off channel=7 note=77 velocity=64 time=180
note_on channel=7 note=84 velocity=109 time=300
note_on channel=7 note=86 velocity=90 time=1440
note_off channel=7 note=84 velocity=64 time=16
note_on channel=7 note=85 velocity=99 time=64
note_off channel=7 note=86 velocity=64 time=24
note_on channel=7 note=81 velocity=109 time=56
note_off channel=7 note=85 velocity=64 time=24
note_off channel=7 note=81 velocity=64 time=284
note_on channel=7 note=76 velocity=109 time=12
pitchwheel channel=7 pitch=0 time=160
control_change channel=7 control=11 value=127 time=0
pitchwheel channel=7 pitch=242 time=12
control_change channel=7 control=11 value=124 time=72
control_change channel=7 control=11 value=121 time=72
pitchwheel channel=7 pitch=0 time=48
control_change channel=7 control=11 value=119 time=60
control_change channel=7 control=11 value=116 time=48
pitchwheel channel=7 pitch=-82 time=36
control_change channel=7 control=11 value=114 time=72
pitchwheel channel=7 pitch=-244 time=24
control_change channel=7 control=11 value=111 time=24
pitchwheel channel=7 pitch=-407 time=48
pitchwheel channel=7 pitch=-569 time=60
control_change channel=7 control=11 value=109 time=0
control_change channel=7 control=11 value=106 time=48
pitchwheel channel=7 pitch=-731 time=12
pitchwheel channel=7 pitch=-893 time=36
pitchwheel channel=7 pitch=-1055 time=48
control_change channel=7 control=11 value=104 time=12
pitchwheel channel=7 pitch=-1218 time=24
pitchwheel channel=7 pitch=-1380 time=24
control_change channel=7 control=11 value=101 time=0
pitchwheel channel=7 pitch=-1542 time=36
pitchwheel channel=7 pitch=-1704 time=24
pitchwheel channel=7 pitch=-1866 time=12
pitchwheel channel=7 pitch=-2029 time=24
pitchwheel channel=7 pitch=-2191 time=12
control_change channel=7 control=11 value=99 time=0
pitchwheel channel=7 pitch=-2353 time=12
note_off channel=7 note=76 velocity=64 time=12
pitchwheel channel=7 pitch=-2515 time=0
pitchwheel channel=7 pitch=-2840 time=12
control_change channel=7 control=11 value=96 time=12
control_change channel=7 control=11 value=127 time=24
pitchwheel channel=7 pitch=0 time=0
note_on channel=7 note=79 velocity=109 time=1280
note_off channel=7 note=79 velocity=64 time=604
note_on channel=7 note=81 velocity=109 time=36
note_off channel=7 note=81 velocity=64 time=180
note_on channel=7 note=82 velocity=109 time=300
note_off channel=7 note=82 velocity=64 time=296
note_on channel=7 note=81 velocity=109 time=24
note_off channel=7 note=81 velocity=64 time=136
note_on channel=7 note=81 velocity=109 time=344
note_off channel=7 note=81 velocity=64 time=180
note_on channel=7 note=79 velocity=103 time=300
note_off channel=7 note=79 velocity=64 time=148
note_on channel=7 note=77 velocity=109 time=12
note_off channel=7 note=77 velocity=64 time=456
note_on channel=7 note=76 velocity=109 time=24
note_off channel=7 note=76 velocity=64 time=156
note_on channel=7 note=86 velocity=116 time=804
note_off channel=7 note=86 velocity=64 time=912
note_on channel=7 note=84 velocity=109 time=48
note_off channel=7 note=84 velocity=64 time=180
control_change channel=7 control=11 value=104 time=300
note_on channel=7 note=82 velocity=115 time=0
control_change channel=7 control=11 value=106 time=108
control_change channel=7 control=11 value=109 time=108
note_off channel=7 note=82 velocity=64 time=92
note_on channel=7 note=84 velocity=115 time=12
control_change channel=7 control=11 value=111 time=4
control_change channel=7 control=11 value=114 time=108
control_change channel=7 control=11 value=116 time=108
control_change channel=7 control=11 value=119 time=108
control_change channel=7 control=11 value=121 time=108
control_change channel=7 control=11 value=124 time=108
note_off channel=7 note=84 velocity=64 time=60
control_change channel=7 control=11 value=127 time=36
control_change channel=7 control=11 value=127 time=0
note_on channel=7 note=81 velocity=115 time=0
control_change channel=7 control=11 value=124 time=84
control_change channel=7 control=11 value=121 time=84
control_change channel=7 control=11 value=119 time=108
note_off channel=7 note=81 velocity=64 time=32
note_on channel=7 note=75 velocity=115 time=12
control_change channel=7 control=11 value=116 time=4
control_change channel=7 control=11 value=114 time=108
control_change channel=7 control=11 value=111 time=48
control_change channel=7 control=11 value=109 time=108
control_change channel=7 control=11 value=106 time=60
control_change channel=7 control=11 value=104 time=108
control_change channel=7 control=11 value=101 time=48
note_off channel=7 note=75 velocity=64 time=108
control_change channel=7 control=11 value=99 time=0
control_change channel=7 control=11 value=96 time=48
control_change channel=7 control=11 value=127 time=0
control_change channel=7 control=11 value=127 time=12
note_on channel=7 note=74 velocity=110 time=15668
note_off channel=7 note=74 velocity=64 time=168
note_on channel=7 note=76 velocity=110 time=312
note_off channel=7 note=76 velocity=64 time=136
note_on channel=7 note=77 velocity=110 time=24
note_off channel=7 note=77 velocity=64 time=168
note_on channel=7 note=79 velocity=110 time=312
note_off channel=7 note=79 velocity=64 time=168
control_change channel=7 control=93 value=30 time=312
note_on channel=7 note=80 velocity=109 time=0
note_off channel=7 note=80 velocity=64 time=444
note_on channel=7 note=82 velocity=109 time=36
note_off channel=7 note=82 velocity=64 time=296
note_on channel=7 note=84 velocity=109 time=24
note_off channel=7 note=84 velocity=64 time=136
note_on channel=7 note=72 velocity=109 time=824
note_off channel=7 note=72 velocity=64 time=604
note_on channel=7 note=74 velocity=109 time=36
note_off channel=7 note=74 velocity=64 time=296
note_on channel=7 note=72 velocity=96 time=24
note_off channel=7 note=72 velocity=64 time=136
note_on channel=7 note=77 velocity=109 time=24
note_off channel=7 note=77 velocity=64 time=284
note_on channel=7 note=79 velocity=109 time=36
note_off channel=7 note=79 velocity=64 time=168
note_on channel=7 note=81 velocity=109 time=312
note_off channel=7 note=81 velocity=64 time=604
note_on channel=7 note=84 velocity=109 time=36
note_off channel=7 note=84 velocity=64 time=296
note_on channel=7 note=82 velocity=109 time=24
note_off channel=7 note=82 velocity=64 time=124
note_on channel=7 note=80 velocity=109 time=1316
note_off channel=7 note=80 velocity=64 time=568
note_on channel=7 note=81 velocity=109 time=72
note_off channel=7 note=81 velocity=64 time=156
note_on channel=7 note=74 velocity=109 time=324
note_off channel=7 note=74 velocity=64 time=156
note_on channel=7 note=80 velocity=109 time=324
note_off channel=7 note=80 velocity=64 time=782
note_on channel=7 note=81 velocity=109 time=18
note_off channel=7 note=81 velocity=64 time=1060
control_change channel=7 control=0 value=56 time=7740
control_change channel=7 control=32 value=0 time=0
program_change channel=7 program=59 time=0
note_on channel=7 note=74 velocity=75 time=2720
control_change channel=7 control=11 value=127 time=1120
control_change channel=7 control=11 value=125 time=120
control_change channel=7 control=11 value=124 time=120
control_change channel=7 control=11 value=123 time=120
control_change channel=7 control=11 value=121 time=120
control_change channel=7 control=11 value=120 time=120
control_change channel=7 control=11 value=119 time=120
control_change channel=7 control=11 value=118 time=120
control_change channel=7 control=11 value=116 time=120
control_change channel=7 control=11 value=115 time=120
control_change channel=7 control=11 value=114 time=120
control_change channel=7 control=11 value=113 time=120
control_change channel=7 control=11 value=111 time=120
control_change channel=7 control=11 value=110 time=120
control_change channel=7 control=11 value=109 time=120
control_change channel=7 control=11 value=108 time=120
control_change channel=7 control=11 value=106 time=120
control_change channel=7 control=11 value=105 time=120
control_change channel=7 control=11 value=104 time=120
control_change channel=7 control=11 value=103 time=120
control_change channel=7 control=11 value=101 time=120
control_change channel=7 control=11 value=100 time=120
control_change channel=7 control=11 value=99 time=120
control_change channel=7 control=11 value=98 time=120
note_off channel=7 note=74 velocity=64 time=96
control_change channel=7 control=11 value=96 time=0
<meta message end_of_track time=0>
<meta message text text='Trumpet 2' time=0>
control_change channel=8 control=11 value=127 time=0
control_change channel=8 control=7 value=106 time=0
control_change channel=8 control=91 value=89 time=0
control_change channel=8 control=93 value=25 time=0
control_change channel=8 control=0 value=56 time=0
control_change channel=8 control=32 value=0 time=0
program_change channel=8 program=56 time=0
note_on channel=8 note=75 velocity=94 time=13760
note_off channel=8 note=75 velocity=64 time=580
note_on channel=8 note=76 velocity=94 time=60
note_off channel=8 note=76 velocity=64 time=168
note_on channel=8 note=69 velocity=94 time=312
note_off channel=8 note=69 velocity=64 time=168
note_on channel=8 note=75 velocity=94 time=312
note_off channel=8 note=75 velocity=64 time=764
note_on channel=8 note=76 velocity=94 time=36
note_off channel=8 note=76 velocity=64 time=592
note_on channel=8 note=70 velocity=94 time=48
note_off channel=8 note=70 velocity=64 time=272
note_on channel=8 note=74 velocity=94 time=48
note_off channel=8 note=74 velocity=64 time=124
note_on channel=8 note=62 velocity=50 time=19556
note_off channel=8 note=62 velocity=64 time=124
note_on channel=8 note=69 velocity=55 time=36
note_off channel=8 note=69 velocity=64 time=132
note_on channel=8 note=70 velocity=50 time=348
note_off channel=8 note=70 velocity=64 time=294
control_change channel=8 control=11 value=109 time=26
note_on channel=8 note=74 velocity=58 time=0
control_change channel=8 control=11 value=110 time=100
control_change channel=8 control=11 value=111 time=100
control_change channel=8 control=11 value=113 time=100
control_change channel=8 control=11 value=114 time=100
control_change channel=8 control=11 value=115 time=100
control_change channel=8 control=11 value=116 time=100
control_change channel=8 control=11 value=118 time=100
control_change channel=8 control=11 value=119 time=100
control_change channel=8 control=11 value=120 time=100
control_change channel=8 control=11 value=121 time=100
control_change channel=8 control=11 value=123 time=100
control_change channel=8 control=11 value=124 time=100
control_change channel=8 control=11 value=125 time=100
control_change channel=8 control=11 value=127 time=60
note_off channel=8 note=74 velocity=64 time=44
note_on channel=8 note=70 velocity=70 time=36
note_off channel=8 note=70 velocity=64 time=112
note_on channel=8 note=70 velocity=55 time=368
note_off channel=8 note=70 velocity=64 time=144
note_on channel=8 note=70 velocity=50 time=336
note_off channel=8 note=70 velocity=64 time=136
note_on channel=8 note=60 velocity=55 time=24
note_off channel=8 note=60 velocity=64 time=284
note_on channel=8 note=60 velocity=50 time=36
note_off channel=8 note=60 velocity=64 time=136
note_on channel=8 note=64 velocity=55 time=24
note_off channel=8 note=64 velocity=64 time=120
note_on channel=8 note=68 velocity=55 time=360
note_off channel=8 note=68 velocity=64 time=284
note_on channel=8 note=72 velocity=55 time=36
note_off channel=8 note=72 velocity=64 time=120
note_on channel=8 note=67 velocity=55 time=360
control_change channel=8 control=11 value=127 time=232
control_change channel=8 control=11 value=120 time=24
control_change channel=8 control=11 value=114 time=24
control_change channel=8 control=11 value=108 time=24
control_change channel=8 control=11 value=101 time=24
control_change channel=8 control=11 value=94 time=24
control_change channel=8 control=11 value=96 time=120
control_change channel=8 control=11 value=99 time=120
control_change channel=8 control=11 value=101 time=120
control_change channel=8 control=11 value=104 time=120
control_change channel=8 control=11 value=106 time=120
control_change channel=8 control=11 value=109 time=120
control_change channel=8 control=11 value=111 time=120
control_change channel=8 control=11 value=114 time=120
control_change channel=8 control=11 value=116 time=120
control_change channel=8 control=11 value=119 time=120
control_change channel=8 control=11 value=121 time=120
control_change channel=8 control=11 value=124 time=120
control_change channel=8 control=11 value=127 time=120
note_off channel=8 note=67 velocity=64 time=120
note_on channel=8 note=62 velocity=54 time=528
note_off channel=8 note=62 velocity=64 time=120
note_on channel=8 note=66 velocity=56 time=360
note_off channel=8 note=66 velocity=64 time=284
note_on channel=8 note=70 velocity=59 time=36
note_off channel=8 note=70 velocity=64 time=108
note_on channel=8 note=74 velocity=65 time=372
note_off channel=8 note=74 velocity=64 time=592
note_on channel=8 note=72 velocity=60 time=48
note_off channel=8 note=72 velocity=64 time=296
note_on channel=8 note=70 velocity=50 time=24
note_off channel=8 note=70 velocity=64 time=134
note_on channel=8 note=67 velocity=55 time=26
note_off channel=8 note=67 velocity=64 time=284
note_on channel=8 note=67 velocity=55 time=36
note_off channel=8 note=67 velocity=64 time=120
control_change channel=8 control=93 value=50 time=40
note_on channel=8 note=66 velocity=70 time=320
note_off channel=8 note=66 velocity=64 time=468
note_on channel=8 note=65 velocity=63 time=12
note_off channel=8 note=65 velocity=64 time=160
note_on channel=8 note=66 velocity=69 time=0
note_off channel=8 note=66 velocity=64 time=192
note_on channel=8 note=65 velocity=67 time=288
note_off channel=8 note=65 velocity=64 time=308
note_on channel=8 note=66 velocity=59 time=12
note_off channel=8 note=66 velocity=64 time=160
note_on channel=8 note=65 velocity=66 time=0
note_off channel=8 note=65 velocity=64 time=192
note_on channel=8 note=64 velocity=65 time=288
note_off channel=8 note=64 velocity=64 time=308
note_on channel=8 note=65 velocity=58 time=12
note_off channel=8 note=65 velocity=64 time=160
note_on channel=8 note=64 velocity=63 time=0
note_off channel=8 note=64 velocity=64 time=308
note_on channel=8 note=63 velocity=62 time=12
note_off channel=8 note=63 velocity=64 time=592
control_change channel=8 control=93 value=25 time=48
note_on channel=8 note=66 velocity=61 time=0
note_off channel=8 note=66 velocity=64 time=284
note_on channel=8 note=65 velocity=60 time=36
note_off channel=8 note=65 velocity=64 time=112
note_on channel=8 note=74 velocity=75 time=3248
note_off channel=8 note=74 velocity=64 time=136
note_on channel=8 note=72 velocity=72 time=24
note_off channel=8 note=72 velocity=64 time=296
note_on channel=8 note=69 velocity=63 time=24
note_off channel=8 note=69 velocity=64 time=136
note_on channel=8 note=74 velocity=75 time=3224
note_off channel=8 note=74 velocity=64 time=136
note_on channel=8 note=72 velocity=72 time=24
note_off channel=8 note=72 velocity=64 time=296
note_on channel=8 note=69 velocity=63 time=24
note_off channel=8 note=69 velocity=64 time=136
note_on channel=8 note=62 velocity=62 time=8024
note_off channel=8 note=62 velocity=64 time=136
note_on channel=8 note=69 velocity=69 time=24
note_off channel=8 note=69 velocity=64 time=144
note_on channel=8 note=70 velocity=75 time=336
note_off channel=8 note=70 velocity=64 time=296
note_on channel=8 note=74 velocity=62 time=24
note_off channel=8 note=74 velocity=64 time=136
note_on channel=8 note=77 velocity=72 time=24
note_off channel=8 note=77 velocity=64 time=296
note_on channel=8 note=77 velocity=81 time=24
note_off channel=8 note=77 velocity=64 time=604
note_on channel=8 note=73 velocity=71 time=36
note_off channel=8 note=73 velocity=64 time=308
note_on channel=8 note=73 velocity=77 time=12
control_change channel=8 control=11 value=127 time=16
control_change channel=8 control=11 value=125 time=120
control_change channel=8 control=11 value=123 time=120
control_change channel=8 control=11 value=121 time=120
control_change channel=8 control=11 value=119 time=120
control_change channel=8 control=11 value=118 time=120
control_change channel=8 control=11 value=115 time=96
control_change channel=8 control=11 value=114 time=120
control_change channel=8 control=11 value=111 time=120
note_off channel=8 note=73 velocity=64 time=120
control_change channel=8 control=11 value=110 time=0
control_change channel=8 control=11 value=109 time=24
control_change channel=8 control=11 value=127 time=24
note_on channel=8 note=62 velocity=62 time=320
note_off channel=8 note=62 velocity=64 time=136
note_on channel=8 note=64 velocity=69 time=24
note_off channel=8 note=64 velocity=64 time=144
note_on channel=8 note=65 velocity=76 time=336
note_off channel=8 note=65 velocity=64 time=296
note_on channel=8 note=69 velocity=62 time=24
note_off channel=8 note=69 velocity=64 time=136
note_on channel=8 note=69 velocity=72 time=24
note_off channel=8 note=69 velocity=64 time=296
note_on channel=8 note=72 velocity=81 time=24
note_off channel=8 note=72 velocity=64 time=604
note_on channel=8 note=69 velocity=72 time=36
note_off channel=8 note=69 velocity=64 time=308
note_on channel=8 note=68 velocity=77 time=12
control_change channel=8 control=11 value=127 time=16
control_change channel=8 control=11 value=125 time=120
control_change channel=8 control=11 value=123 time=120
control_change channel=8 control=11 value=121 time=120
control_change channel=8 control=11 value=119 time=120
control_change channel=8 control=11 value=118 time=120
control_change channel=8 control=11 value=115 time=96
control_change channel=8 control=11 value=114 time=120
control_change channel=8 control=11 value=111 time=120
note_off channel=8 note=68 velocity=64 time=120
control_change channel=8 control=11 value=110 time=0
control_change channel=8 control=11 value=109 time=24
control_change channel=8 control=11 value=127 time=24
note_on channel=8 note=63 velocity=69 time=7040
note_off channel=8 note=63 velocity=64 time=580
note_on channel=8 note=64 velocity=69 time=60
note_off channel=8 note=64 velocity=64 time=144
note_on channel=8 note=64 velocity=69 time=336
note_off channel=8 note=64 velocity=64 time=296
note_on channel=8 note=62 velocity=69 time=24
note_off channel=8 note=62 velocity=64 time=136
note_on channel=8 note=64 velocity=62 time=24
note_off channel=8 note=64 velocity=64 time=56
note_on channel=8 note=64 velocity=69 time=24
note_off channel=8 note=64 velocity=64 time=68
note_on channel=8 note=63 velocity=69 time=332
note_off channel=8 note=63 velocity=64 time=308
control_change channel=8 control=11 value=104 time=12
note_on channel=8 note=64 velocity=75 time=0
control_change channel=8 control=11 value=105 time=100
control_change channel=8 control=11 value=108 time=80
control_change channel=8 control=11 value=109 time=100
control_change channel=8 control=11 value=111 time=100
control_change channel=8 control=11 value=114 time=90
control_change channel=8 control=11 value=115 time=100
control_change channel=8 control=11 value=118 time=70
control_change channel=8 control=11 value=119 time=100
control_change channel=8 control=11 value=121 time=100
control_change channel=8 control=11 value=124 time=90
control_change channel=8 control=11 value=125 time=100
control_change channel=8 control=11 value=127 time=10
note_off channel=8 note=64 velocity=64 time=80
note_on channel=8 note=68 velocity=76 time=320
note_on channel=8 note=67 velocity=40 time=112
note_on channel=8 note=66 velocity=28 time=40
note_off channel=8 note=68 velocity=64 time=4
note_off channel=8 note=67 velocity=64 time=8
note_on channel=8 note=65 velocity=17 time=28
note_off channel=8 note=66 velocity=64 time=12
note_off channel=8 note=65 velocity=64 time=40
note_on channel=8 note=69 velocity=75 time=236
note_off channel=8 note=69 velocity=64 time=592
note_on channel=8 note=69 velocity=69 time=48
note_off channel=8 note=69 velocity=64 time=296
note_on channel=8 note=69 velocity=57 time=24
note_off channel=8 note=69 velocity=64 time=136
note_on channel=8 note=69 velocity=69 time=24
note_off channel=8 note=69 velocity=64 time=284
note_on channel=8 note=67 velocity=69 time=36
note_off channel=8 note=67 velocity=64 time=156
note_on channel=8 note=71 velocity=69 time=324
control_change channel=8 control=11 value=127 time=160
control_change channel=8 control=11 value=125 time=120
control_change channel=8 control=11 value=123 time=120
control_change channel=8 control=11 value=121 time=120
control_change channel=8 control=11 value=119 time=120
control_change channel=8 control=11 value=118 time=120
control_change channel=8 control=11 value=115 time=120
control_change channel=8 control=11 value=114 time=120
control_change channel=8 control=11 value=111 time=120
control_change channel=8 control=11 value=110 time=120
control_change channel=8 control=11 value=108 time=120
control_change channel=8 control=11 value=106 time=120
control_change channel=8 control=11 value=104 time=120
control_change channel=8 control=11 value=103 time=120
control_change channel=8 control=11 value=100 time=120
control_change channel=8 control=11 value=99 time=120
note_off channel=8 note=71 velocity=64 time=60
control_change channel=8 control=11 value=96 time=36
control_change channel=8 control=11 value=127 time=24
note_on channel=8 note=69 velocity=75 time=320
note_on channel=8 note=68 velocity=30 time=112
note_on channel=8 note=67 velocity=20 time=40
note_off channel=8 note=69 velocity=64 time=4
note_off channel=8 note=68 velocity=64 time=8
note_off channel=8 note=67 velocity=64 time=40
note_on channel=8 note=73 velocity=75 time=276
note_off channel=8 note=73 velocity=64 time=580
note_on channel=8 note=71 velocity=75 time=60
note_off channel=8 note=71 velocity=64 time=168
note_on channel=8 note=69 velocity=74 time=632
note_on channel=8 note=68 velocity=32 time=112
note_on channel=8 note=67 velocity=23 time=40
note_off channel=8 note=69 velocity=64 time=4
note_off channel=8 note=68 velocity=64 time=8
note_off channel=8 note=67 velocity=64 time=40
note_on channel=8 note=69 velocity=75 time=276
note_off channel=8 note=69 velocity=64 time=580
note_on channel=8 note=69 velocity=75 time=60
note_off channel=8 note=69 velocity=64 time=168
note_on channel=8 note=63 velocity=69 time=632
note_off channel=8 note=63 velocity=64 time=444
note_on channel=8 note=67 velocity=71 time=36
note_off channel=8 note=67 velocity=64 time=444
note_on channel=8 note=70 velocity=74 time=36
note_off channel=8 note=70 velocity=64 time=444
note_on channel=8 note=67 velocity=66 time=36
note_off channel=8 note=67 velocity=64 time=136
note_on channel=8 note=70 velocity=79 time=24
note_off channel=8 note=70 velocity=64 time=148
note_on channel=8 note=67 velocity=65 time=12
note_off channel=8 note=67 velocity=64 time=148
note_on channel=8 note=72 velocity=80 time=12
note_off channel=8 note=72 velocity=64 time=924
note_on channel=8 note=65 velocity=75 time=36
note_off channel=8 note=65 velocity=64 time=604
note_on channel=8 note=62 velocity=69 time=36
note_off channel=8 note=62 velocity=64 time=284
note_on channel=8 note=62 velocity=70 time=36
note_off channel=8 note=62 velocity=64 time=124
note_on channel=8 note=77 velocity=81 time=15236
note_off channel=8 note=77 velocity=64 time=604
note_on channel=8 note=71 velocity=81 time=36
note_off channel=8 note=71 velocity=64 time=296
note_on channel=8 note=71 velocity=81 time=24
note_off channel=8 note=71 velocity=64 time=136
note_on channel=8 note=76 velocity=81 time=824
note_off channel=8 note=76 velocity=64 time=604
note_on channel=8 note=72 velocity=81 time=36
note_off channel=8 note=72 velocity=64 time=296
note_on channel=8 note=69 velocity=81 time=24
note_off channel=8 note=69 velocity=64 time=136
note_on channel=8 note=77 velocity=81 time=824
note_off channel=8 note=77 velocity=64 time=604
note_on channel=8 note=71 velocity=81 time=36
note_off channel=8 note=71 velocity=64 time=296
note_on channel=8 note=72 velocity=81 time=24
note_off channel=8 note=72 velocity=64 time=136
note_on channel=8 note=78 velocity=81 time=824
note_off channel=8 note=78 velocity=64 time=604
note_on channel=8 note=72 velocity=81 time=36
note_off channel=8 note=72 velocity=64 time=296
note_on channel=8 note=69 velocity=81 time=24
note_off channel=8 note=69 velocity=64 time=136
note_on channel=8 note=77 velocity=81 time=824
note_off channel=8 note=77 velocity=64 time=580
note_on channel=8 note=77 velocity=81 time=60
note_off channel=8 note=77 velocity=64 time=168
note_on channel=8 note=77 velocity=81 time=312
note_off channel=8 note=77 velocity=64 time=168
note_on channel=8 note=77 velocity=81 time=312
note_off channel=8 note=77 velocity=64 time=296
note_on channel=8 note=81 velocity=69 time=24
note_off channel=8 note=81 velocity=64 time=148
note_on channel=8 note=77 velocity=81 time=12
note_off channel=8 note=77 velocity=64 time=311
note_on channel=8 note=76 velocity=81 time=9
pitchwheel channel=8 pitch=0 time=16
control_change channel=8 control=11 value=127 time=0
pitchwheel channel=8 pitch=242 time=24
control_change channel=8 control=11 value=124 time=72
control_change channel=8 control=11 value=121 time=96
pitchwheel channel=8 pitch=0 time=72
control_change channel=8 control=11 value=119 time=48
control_change channel=8 control=11 value=116 time=48
pitchwheel channel=8 pitch=-82 time=96
control_change channel=8 control=11 value=114 time=24
control_change channel=8 control=11 value=111 time=72
pitchwheel channel=8 pitch=-244 time=24
pitchwheel channel=8 pitch=-407 time=96
control_change channel=8 control=11 value=109 time=0
control_change channel=8 control=11 value=106 time=48
pitchwheel channel=8 pitch=-569 time=24
pitchwheel channel=8 pitch=-731 time=72
control_change channel=8 control=11 value=104 time=24
pitchwheel channel=8 pitch=-893 time=24
pitchwheel channel=8 pitch=-1055 time=48
control_change channel=8 control=11 value=101 time=0
pitchwheel channel=8 pitch=-1218 time=48
pitchwheel channel=8 pitch=-1380 time=24
pitchwheel channel=8 pitch=-1542 time=24
pitchwheel channel=8 pitch=-1704 time=24
control_change channel=8 control=11 value=99 time=0
note_off channel=8 note=76 velocity=64 time=24
pitchwheel channel=8 pitch=-2029 time=0
control_change channel=8 control=11 value=96 time=24
control_change channel=8 control=11 value=127 time=0
control_change channel=8 control=11 value=127 time=24
pitchwheel channel=8 pitch=0 time=0
note_on channel=8 note=74 velocity=81 time=320
note_on channel=8 note=73 velocity=30 time=112
note_on channel=8 note=72 velocity=20 time=40
note_off channel=8 note=74 velocity=64 time=8
note_off channel=8 note=73 velocity=64 time=4
note_off channel=8 note=72 velocity=64 time=40
note_on channel=8 note=74 velocity=81 time=436
note_off channel=8 note=74 velocity=64 time=168
note_on channel=8 note=74 velocity=81 time=312
note_off channel=8 note=74 velocity=64 time=168
note_on channel=8 note=77 velocity=81 time=792
note_off channel=8 note=77 velocity=64 time=296
note_on channel=8 note=77 velocity=81 time=24
note_off channel=8 note=77 velocity=64 time=192
note_on channel=8 note=72 velocity=69 time=288
note_off channel=8 note=72 velocity=64 time=148
note_on channel=8 note=77 velocity=81 time=12
note_off channel=8 note=77 velocity=64 time=308
note_on channel=8 note=77 velocity=75 time=12
note_off channel=8 note=77 velocity=64 time=136
note_on channel=8 note=74 velocity=81 time=24
note_off channel=8 note=74 velocity=64 time=296
note_on channel=8 note=70 velocity=81 time=24
note_off channel=8 note=70 velocity=64 time=136
note_on channel=8 note=71 velocity=81 time=1944
note_off channel=8 note=71 velocity=64 time=168
note_on channel=8 note=70 velocity=81 time=312
note_off channel=8 note=70 velocity=64 time=296
note_on channel=8 note=70 velocity=81 time=24
note_off channel=8 note=70 velocity=64 time=180
note_on channel=8 note=79 velocity=81 time=300
note_on channel=8 note=81 velocity=59 time=1440
note_off channel=8 note=79 velocity=64 time=16
note_on channel=8 note=80 velocity=70 time=64
note_off channel=8 note=81 velocity=64 time=24
note_on channel=8 note=76 velocity=81 time=56
note_off channel=8 note=80 velocity=64 time=24
note_off channel=8 note=76 velocity=64 time=284
note_on channel=8 note=71 velocity=81 time=12
pitchwheel channel=8 pitch=0 time=160
control_change channel=8 control=11 value=127 time=0
pitchwheel channel=8 pitch=242 time=12
control_change channel=8 control=11 value=124 time=72
control_change channel=8 control=11 value=121 time=72
pitchwheel channel=8 pitch=0 time=48
control_change channel=8 control=11 value=119 time=60
control_change channel=8 control=11 value=116 time=48
pitchwheel channel=8 pitch=-82 time=36
control_change channel=8 control=11 value=114 time=72
pitchwheel channel=8 pitch=-244 time=24
control_change channel=8 control=11 value=111 time=24
pitchwheel channel=8 pitch=-407 time=48
pitchwheel channel=8 pitch=-569 time=60
control_change channel=8 control=11 value=109 time=0
control_change channel=8 control=11 value=106 time=48
pitchwheel channel=8 pitch=-731 time=12
pitchwheel channel=8 pitch=-893 time=36
pitchwheel channel=8 pitch=-1055 time=48
control_change channel=8 control=11 value=104 time=12
pitchwheel channel=8 pitch=-1218 time=24
pitchwheel channel=8 pitch=-1380 time=24
control_change channel=8 control=11 value=101 time=0
pitchwheel channel=8 pitch=-1542 time=36
pitchwheel channel=8 pitch=-1704 time=24
pitchwheel channel=8 pitch=-1866 time=12
pitchwheel channel=8 pitch=-2029 time=24
pitchwheel channel=8 pitch=-2191 time=12
control_change channel=8 control=11 value=99 time=0
pitchwheel channel=8 pitch=-2353 time=12
note_off channel=8 note=71 velocity=64 time=12
pitchwheel channel=8 pitch=-2515 time=0
pitchwheel channel=8 pitch=-2840 time=12
control_change channel=8 control=11 value=96 time=12
control_change channel=8 control=11 value=127 time=24
pitchwheel channel=8 pitch=0 time=0
note_on channel=8 note=74 velocity=81 time=1280
note_off channel=8 note=74 velocity=64 time=604
note_on channel=8 note=78 velocity=81 time=36
note_off channel=8 note=78 velocity=64 time=180
note_on channel=8 note=78 velocity=81 time=300
note_off channel=8 note=78 velocity=64 time=296
note_on channel=8 note=77 velocity=81 time=24
note_off channel=8 note=77 velocity=64 time=136
note_on channel=8 note=77 velocity=81 time=344
note_off channel=8 note=77 velocity=64 time=180
note_on channel=8 note=74 velocity=75 time=300
note_off channel=8 note=74 velocity=64 time=148
note_on channel=8 note=74 velocity=81 time=12
note_off channel=8 note=74 velocity=64 time=456
note_on channel=8 note=72 velocity=81 time=24
note_off channel=8 note=72 velocity=64 time=156
note_on channel=8 note=81 velocity=88 time=804
note_off channel=8 note=81 velocity=64 time=912
note_on channel=8 note=79 velocity=81 time=48
note_off channel=8 note=79 velocity=64 time=180
control_change channel=8 control=11 value=104 time=300
note_on channel=8 note=79 velocity=88 time=0
control_change channel=8 control=11 value=106 time=108
control_change channel=8 control=11 value=109 time=108
note_off channel=8 note=79 velocity=64 time=92
note_on channel=8 note=81 velocity=88 time=12
control_change channel=8 control=11 value=111 time=4
control_change channel=8 control=11 value=114 time=108
control_change channel=8 control=11 value=116 time=108
control_change channel=8 control=11 value=119 time=108
control_change channel=8 control=11 value=121 time=108
control_change channel=8 control=11 value=124 time=108
note_off channel=8 note=81 velocity=64 time=60
control_change channel=8 control=11 value=127 time=36
control_change channel=8 control=11 value=127 time=0
note_on channel=8 note=78 velocity=88 time=0
control_change channel=8 control=11 value=124 time=84
control_change channel=8 control=11 value=121 time=84
control_change channel=8 control=11 value=119 time=108
note_off channel=8 note=78 velocity=64 time=32
note_on channel=8 note=72 velocity=88 time=12
control_change channel=8 control=11 value=116 time=4
control_change channel=8 control=11 value=114 time=108
control_change channel=8 control=11 value=111 time=48
control_change channel=8 control=11 value=109 time=108
control_change channel=8 control=11 value=106 time=60
control_change channel=8 control=11 value=104 time=108
control_change channel=8 control=11 value=101 time=48
note_off channel=8 note=72 velocity=64 time=108
control_change channel=8 control=11 value=99 time=0
control_change channel=8 control=11 value=96 time=48
control_change channel=8 control=11 value=127 time=0
control_change channel=8 control=11 value=127 time=12
note_on channel=8 note=74 velocity=75 time=3188
note_off channel=8 note=74 velocity=64 time=136
note_on channel=8 note=72 velocity=72 time=24
note_off channel=8 note=72 velocity=64 time=296
note_on channel=8 note=69 velocity=63 time=24
note_off channel=8 note=69 velocity=64 time=136
note_on channel=8 note=74 velocity=75 time=3224
note_off channel=8 note=74 velocity=64 time=136
note_on channel=8 note=72 velocity=72 time=24
note_off channel=8 note=72 velocity=64 time=296
note_on channel=8 note=69 velocity=63 time=24
note_off channel=8 note=69 velocity=64 time=136
note_on channel=8 note=70 velocity=81 time=8024
note_off channel=8 note=70 velocity=64 time=168
note_on channel=8 note=72 velocity=81 time=312
note_off channel=8 note=72 velocity=64 time=136
note_on channel=8 note=74 velocity=81 time=24
note_off channel=8 note=74 velocity=64 time=168
note_on channel=8 note=74 velocity=81 time=312
note_off channel=8 note=74 velocity=64 time=168
control_change channel=8 control=93 value=30 time=312
note_on channel=8 note=77 velocity=81 time=0
note_off channel=8 note=77 velocity=64 time=444
note_on channel=8 note=77 velocity=81 time=36
note_off channel=8 note=77 velocity=64 time=296
note_on channel=8 note=79 velocity=81 time=24
note_off channel=8 note=79 velocity=64 time=136
note_on channel=8 note=69 velocity=81 time=824
note_off channel=8 note=69 velocity=64 time=604
note_on channel=8 note=72 velocity=81 time=36
note_off channel=8 note=72 velocity=64 time=296
note_on channel=8 note=69 velocity=69 time=24
note_off channel=8 note=69 velocity=64 time=136
note_on channel=8 note=74 velocity=81 time=24
note_off channel=8 note=74 velocity=64 time=284
note_on channel=8 note=76 velocity=81 time=36
note_off channel=8 note=76 velocity=64 time=168
note_on channel=8 note=75 velocity=81 time=312
note_off channel=8 note=75 velocity=64 time=604
note_on channel=8 note=79 velocity=81 time=36
note_off channel=8 note=79 velocity=64 time=296
note_on channel=8 note=78 velocity=81 time=24
note_off channel=8 note=78 velocity=64 time=124
note_on channel=8 note=75 velocity=81 time=1316
note_off channel=8 note=75 velocity=64 time=568
note_on channel=8 note=76 velocity=81 time=72
note_off channel=8 note=76 velocity=64 time=156
note_on channel=8 note=69 velocity=81 time=324
note_off channel=8 note=69 velocity=64 time=156
note_on channel=8 note=75 velocity=81 time=324
note_off channel=8 note=75 velocity=64 time=782
note_on channel=8 note=76 velocity=81 time=18
note_off channel=8 note=76 velocity=64 time=1060
control_change channel=8 control=0 value=56 time=7740
control_change channel=8 control=32 value=0 time=0
program_change channel=8 program=59 time=0
note_on channel=8 note=71 velocity=45 time=2720
control_change channel=8 control=11 value=127 time=1120
control_change channel=8 control=11 value=125 time=120
control_change channel=8 control=11 value=124 time=120
control_change channel=8 control=11 value=123 time=120
control_change channel=8 control=11 value=121 time=120
control_change channel=8 control=11 value=120 time=120
control_change channel=8 control=11 value=119 time=120
control_change channel=8 control=11 value=118 time=120
control_change channel=8 control=11 value=116 time=120
control_change channel=8 control=11 value=115 time=120
control_change channel=8 control=11 value=114 time=120
control_change channel=8 control=11 value=113 time=120
control_change channel=8 control=11 value=111 time=120
control_change channel=8 control=11 value=110 time=120
control_change channel=8 control=11 value=109 time=120
control_change channel=8 control=11 value=108 time=120
control_change channel=8 control=11 value=106 time=120
control_change channel=8 control=11 value=105 time=120
control_change channel=8 control=11 value=104 time=120
control_change channel=8 control=11 value=103 time=120
control_change channel=8 control=11 value=101 time=120
control_change channel=8 control=11 value=100 time=120
control_change channel=8 control=11 value=99 time=120
control_change channel=8 control=11 value=98 time=120
note_off channel=8 note=71 velocity=64 time=96
<meta message end_of_track time=0>
<meta message text text='Trumpet 3' time=0>
control_change channel=10 control=11 value=127 time=0
control_change channel=10 control=7 value=106 time=0
control_change channel=10 control=10 value=54 time=0
control_change channel=10 control=91 value=84 time=0
control_change channel=10 control=93 value=25 time=0
control_change channel=10 control=0 value=56 time=0
control_change channel=10 control=32 value=0 time=0
program_change channel=10 program=56 time=0
note_on channel=10 note=71 velocity=94 time=13760
note_off channel=10 note=71 velocity=64 time=580
note_on channel=10 note=71 velocity=94 time=60
note_off channel=10 note=71 velocity=64 time=168
note_on channel=10 note=65 velocity=94 time=312
note_off channel=10 note=65 velocity=64 time=168
note_on channel=10 note=72 velocity=94 time=312
note_off channel=10 note=72 velocity=64 time=764
note_on channel=10 note=72 velocity=94 time=36
note_off channel=10 note=72 velocity=64 time=592
note_on channel=10 note=67 velocity=94 time=48
note_off channel=10 note=67 velocity=64 time=272
note_on channel=10 note=72 velocity=94 time=48
note_off channel=10 note=72 velocity=64 time=124
note_on channel=10 note=58 velocity=50 time=19556
note_off channel=10 note=58 velocity=64 time=124
note_on channel=10 note=66 velocity=55 time=36
note_off channel=10 note=66 velocity=64 time=132
note_on channel=10 note=67 velocity=50 time=348
note_off channel=10 note=67 velocity=64 time=294
control_change channel=10 control=11 value=109 time=26
note_on channel=10 note=70 velocity=58 time=0
control_change channel=10 control=11 value=110 time=100
control_change channel=10 control=11 value=111 time=100
control_change channel=10 control=11 value=113 time=100
control_change channel=10 control=11 value=114 time=100
control_change channel=10 control=11 value=115 time=100
control_change channel=10 control=11 value=116 time=100
note_off channel=10 note=70 velocity=64 time=12
note_on channel=10 note=71 velocity=58 time=28
control_change channel=10 control=11 value=118 time=60
control_change channel=10 control=11 value=119 time=100
control_change channel=10 control=11 value=120 time=100
control_change channel=10 control=11 value=121 time=100
control_change channel=10 control=11 value=123 time=100
control_change channel=10 control=11 value=124 time=100
control_change channel=10 control=11 value=125 time=100
control_change channel=10 control=11 value=127 time=60
note_off channel=10 note=71 velocity=64 time=32
note_on channel=10 note=68 velocity=60 time=48
note_off channel=10 note=68 velocity=64 time=112
note_on channel=10 note=68 velocity=55 time=368
note_off channel=10 note=68 velocity=64 time=144
note_on channel=10 note=68 velocity=50 time=336
note_off channel=10 note=68 velocity=64 time=136
note_on channel=10 note=60 velocity=55 time=24
note_off channel=10 note=60 velocity=64 time=284
note_on channel=10 note=60 velocity=50 time=36
note_off channel=10 note=60 velocity=64 time=136
note_on channel=10 note=60 velocity=55 time=24
note_off channel=10 note=60 velocity=64 time=120
note_on channel=10 note=64 velocity=55 time=360
note_off channel=10 note=64 velocity=64 time=284
note_on channel=10 note=69 velocity=55 time=36
note_off channel=10 note=69 velocity=64 time=120
note_on channel=10 note=64 velocity=55 time=360
control_change channel=10 control=11 value=127 time=232
control_change channel=10 control=11 value=120 time=24
control_change channel=10 control=11 value=114 time=24
control_change channel=10 control=11 value=108 time=24
control_change channel=10 control=11 value=101 time=24
control_change channel=10 control=11 value=94 time=24
control_change channel=10 control=11 value=96 time=120
control_change channel=10 control=11 value=99 time=120
control_change channel=10 control=11 value=101 time=120
control_change channel=10 control=11 value=104 time=120
control_change channel=10 control=11 value=106 time=120
control_change channel=10 control=11 value=109 time=120
control_change channel=10 control=11 value=111 time=120
control_change channel=10 control=11 value=114 time=120
control_change channel=10 control=11 value=116 time=120
control_change channel=10 control=11 value=119 time=120
control_change channel=10 control=11 value=121 time=120
control_change channel=10 control=11 value=124 time=120
control_change channel=10 control=11 value=127 time=120
note_off channel=10 note=64 velocity=64 time=120
note_on channel=10 note=58 velocity=60 time=368
note_off channel=10 note=58 velocity=64 time=124
note_on channel=10 note=58 velocity=54 time=36
note_off channel=10 note=58 velocity=64 time=120
note_on channel=10 note=62 velocity=56 time=360
note_off channel=10 note=62 velocity=64 time=284
note_on channel=10 note=66 velocity=59 time=36
note_off channel=10 note=66 velocity=64 time=108
note_on channel=10 note=70 velocity=65 time=372
note_off channel=10 note=70 velocity=64 time=592
note_on channel=10 note=69 velocity=60 time=48
note_off channel=10 note=69 velocity=64 time=296
note_on channel=10 note=67 velocity=50 time=24
note_off channel=10 note=67 velocity=64 time=134
note_on channel=10 note=64 velocity=55 time=26
note_off channel=10 note=64 velocity=64 time=284
note_on channel=10 note=64 velocity=55 time=36
note_off channel=10 note=64 velocity=64 time=120
note_on channel=10 note=64 velocity=59 time=3880
note_off channel=10 note=64 velocity=64 time=284
note_on channel=10 note=62 velocity=60 time=36
note_off channel=10 note=62 velocity=64 time=112
note_on channel=10 note=58 velocity=62 time=15728
note_off channel=10 note=58 velocity=64 time=136
note_on channel=10 note=66 velocity=69 time=24
note_off channel=10 note=66 velocity=64 time=144
note_on channel=10 note=67 velocity=75 time=336
note_off channel=10 note=67 velocity=64 time=296
note_on channel=10 note=70 velocity=62 time=24
note_off channel=10 note=70 velocity=64 time=136
note_on channel=10 note=74 velocity=72 time=24
note_off channel=10 note=74 velocity=64 time=296
note_on channel=10 note=73 velocity=81 time=24
note_off channel=10 note=73 velocity=64 time=604
note_on channel=10 note=70 velocity=71 time=36
note_off channel=10 note=70 velocity=64 time=308
note_on channel=10 note=70 velocity=77 time=12
control_change channel=10 control=11 value=127 time=16
control_change channel=10 control=11 value=125 time=120
control_change channel=10 control=11 value=123 time=120
control_change channel=10 control=11 value=121 time=120
control_change channel=10 control=11 value=119 time=120
control_change channel=10 control=11 value=118 time=120
control_change channel=10 control=11 value=115 time=96
control_change channel=10 control=11 value=114 time=120
control_change channel=10 control=11 value=111 time=120
note_off channel=10 note=70 velocity=64 time=120
control_change channel=10 control=11 value=110 time=0
control_change channel=10 control=11 value=109 time=24
control_change channel=10 control=11 value=127 time=24
note_on channel=10 note=60 velocity=62 time=320
note_off channel=10 note=60 velocity=64 time=136
note_on channel=10 note=62 velocity=69 time=24
note_off channel=10 note=62 velocity=64 time=144
note_on channel=10 note=61 velocity=76 time=336
note_off channel=10 note=61 velocity=64 time=296
note_on channel=10 note=65 velocity=62 time=24
note_off channel=10 note=65 velocity=64 time=136
note_on channel=10 note=66 velocity=72 time=24
note_off channel=10 note=66 velocity=64 time=296
note_on channel=10 note=69 velocity=81 time=24
note_off channel=10 note=69 velocity=64 time=604
note_on channel=10 note=67 velocity=72 time=36
note_off channel=10 note=67 velocity=64 time=308
note_on channel=10 note=66 velocity=77 time=12
control_change channel=10 control=11 value=127 time=16
control_change channel=10 control=11 value=125 time=120
control_change channel=10 control=11 value=123 time=120
control_change channel=10 control=11 value=121 time=120
control_change channel=10 control=11 value=119 time=120
control_change channel=10 control=11 value=118 time=120
control_change channel=10 control=11 value=115 time=96
control_change channel=10 control=11 value=114 time=120
control_change channel=10 control=11 value=111 time=120
note_off channel=10 note=66 velocity=64 time=120
control_change channel=10 control=11 value=110 time=0
control_change channel=10 control=11 value=109 time=24
control_change channel=10 control=11 value=127 time=24
control_change channel=10 control=11 value=104 time=9440
note_on channel=10 note=62 velocity=75 time=0
control_change channel=10 control=11 value=105 time=100
control_change channel=10 control=11 value=108 time=80
control_change channel=10 control=11 value=109 time=100
control_change channel=10 control=11 value=111 time=100
control_change channel=10 control=11 value=114 time=90
control_change channel=10 control=11 value=115 time=100
control_change channel=10 control=11 value=118 time=70
control_change channel=10 control=11 value=119 time=100
control_change channel=10 control=11 value=121 time=100
control_change channel=10 control=11 value=124 time=90
control_change channel=10 control=11 value=125 time=100
control_change channel=10 control=11 value=127 time=10
note_off channel=10 note=62 velocity=64 time=80
note_on channel=10 note=64 velocity=76 time=320
note_on channel=10 note=63 velocity=40 time=112
note_on channel=10 note=62 velocity=28 time=40
note_off channel=10 note=64 velocity=64 time=4
note_off channel=10 note=63 velocity=64 time=8
note_on channel=10 note=61 velocity=17 time=28
note_off channel=10 note=62 velocity=64 time=12
note_off channel=10 note=61 velocity=64 time=40
note_on channel=10 note=67 velocity=75 time=236
note_off channel=10 note=67 velocity=64 time=592
note_on channel=10 note=67 velocity=69 time=48
note_off channel=10 note=67 velocity=64 time=296
note_on channel=10 note=65 velocity=57 time=24
note_off channel=10 note=65 velocity=64 time=136
note_on channel=10 note=67 velocity=69 time=24
note_off channel=10 note=67 velocity=64 time=284
note_on channel=10 note=65 velocity=69 time=36
note_off channel=10 note=65 velocity=64 time=156
note_on channel=10 note=68 velocity=69 time=324
control_change channel=10 control=11 value=127 time=160
control_change channel=10 control=11 value=125 time=120
control_change channel=10 control=11 value=123 time=120
control_change channel=10 control=11 value=121 time=120
control_change channel=10 control=11 value=119 time=120
control_change channel=10 control=11 value=118 time=120
control_change channel=10 control=11 value=115 time=120
control_change channel=10 control=11 value=114 time=120
control_change channel=10 control=11 value=111 time=120
control_change channel=10 control=11 value=110 time=120
control_change channel=10 control=11 value=108 time=120
control_change channel=10 control=11 value=106 time=120
control_change channel=10 control=11 value=104 time=120
control_change channel=10 control=11 value=103 time=120
control_change channel=10 control=11 value=100 time=120
control_change channel=10 control=11 value=99 time=120
note_off channel=10 note=68 velocity=64 time=60
control_change channel=10 control=11 value=96 time=36
control_change channel=10 control=11 value=127 time=24
note_on channel=10 note=64 velocity=75 time=320
note_on channel=10 note=63 velocity=30 time=112
note_on channel=10 note=62 velocity=20 time=40
note_off channel=10 note=64 velocity=64 time=4
note_off channel=10 note=63 velocity=64 time=8
note_off channel=10 note=62 velocity=64 time=40
note_on channel=10 note=69 velocity=75 time=276
note_off channel=10 note=69 velocity=64 time=580
note_on channel=10 note=67 velocity=75 time=60
note_off channel=10 note=67 velocity=64 time=168
note_on channel=10 note=64 velocity=74 time=632
note_on channel=10 note=63 velocity=32 time=112
note_on channel=10 note=62 velocity=23 time=40
note_off channel=10 note=64 velocity=64 time=4
note_off channel=10 note=63 velocity=64 time=8
note_off channel=10 note=62 velocity=64 time=40
note_on channel=10 note=64 velocity=75 time=276
note_off channel=10 note=64 velocity=64 time=580
note_on channel=10 note=64 velocity=75 time=60
note_off channel=10 note=64 velocity=64 time=168
note_on channel=10 note=60 velocity=69 time=632
note_off channel=10 note=60 velocity=64 time=444
note_on channel=10 note=63 velocity=71 time=36
note_off channel=10 note=63 velocity=64 time=444
note_on channel=10 note=67 velocity=74 time=36
note_off channel=10 note=67 velocity=64 time=444
note_on channel=10 note=63 velocity=66 time=36
note_off channel=10 note=63 velocity=64 time=136
note_on channel=10 note=67 velocity=79 time=24
note_off channel=10 note=67 velocity=64 time=148
note_on channel=10 note=63 velocity=65 time=12
note_off channel=10 note=63 velocity=64 time=148
note_on channel=10 note=70 velocity=80 time=12
note_off channel=10 note=70 velocity=64 time=924
note_on channel=10 note=63 velocity=75 time=36
note_off channel=10 note=63 velocity=64 time=604
note_on channel=10 note=60 velocity=69 time=36
note_off channel=10 note=60 velocity=64 time=284
note_on channel=10 note=60 velocity=70 time=36
note_off channel=10 note=60 velocity=64 time=124
note_on channel=10 note=74 velocity=81 time=15236
note_off channel=10 note=74 velocity=64 time=604
note_on channel=10 note=68 velocity=81 time=36
note_off channel=10 note=68 velocity=64 time=296
note_on channel=10 note=69 velocity=81 time=24
note_off channel=10 note=69 velocity=64 time=136
note_on channel=10 note=72 velocity=81 time=824
note_off channel=10 note=72 velocity=64 time=604
note_on channel=10 note=68 velocity=81 time=36
note_off channel=10 note=68 velocity=64 time=296
note_on channel=10 note=64 velocity=81 time=24
note_off channel=10 note=64 velocity=64 time=136
note_on channel=10 note=72 velocity=81 time=824
note_off channel=10 note=72 velocity=64 time=604
note_on channel=10 note=68 velocity=81 time=36
note_off channel=10 note=68 velocity=64 time=296
note_on channel=10 note=69 velocity=81 time=24
note_off channel=10 note=69 velocity=64 time=136
note_on channel=10 note=74 velocity=81 time=824
note_off channel=10 note=74 velocity=64 time=604
note_on channel=10 note=68 velocity=81 time=36
note_off channel=10 note=68 velocity=64 time=296
note_on channel=10 note=66 velocity=81 time=24
note_off channel=10 note=66 velocity=64 time=136
note_on channel=10 note=74 velocity=81 time=824
note_off channel=10 note=74 velocity=64 time=580
note_on channel=10 note=76 velocity=81 time=60
note_off channel=10 note=76 velocity=64 time=168
note_on channel=10 note=74 velocity=81 time=312
note_off channel=10 note=74 velocity=64 time=168
note_on channel=10 note=72 velocity=81 time=312
note_off channel=10 note=72 velocity=64 time=296
note_on channel=10 note=77 velocity=69 time=24
note_off channel=10 note=77 velocity=64 time=148
note_on channel=10 note=72 velocity=81 time=12
note_off channel=10 note=72 velocity=64 time=311
note_on channel=10 note=72 velocity=81 time=9
pitchwheel channel=10 pitch=0 time=16
control_change channel=10 control=11 value=127 time=0
pitchwheel channel=10 pitch=242 time=24
control_change channel=10 control=11 value=124 time=72
control_change channel=10 control=11 value=121 time=96
pitchwheel channel=10 pitch=0 time=72
control_change channel=10 control=11 value=119 time=48
control_change channel=10 control=11 value=116 time=48
pitchwheel channel=10 pitch=-82 time=96
control_change channel=10 control=11 value=114 time=24
control_change channel=10 control=11 value=111 time=72
pitchwheel channel=10 pitch=-244 time=24
pitchwheel channel=10 pitch=-407 time=96
control_change channel=10 control=11 value=109 time=0
control_change channel=10 control=11 value=106 time=48
pitchwheel channel=10 pitch=-569 time=24
pitchwheel channel=10 pitch=-731 time=72
control_change channel=10 control=11 value=104 time=24
pitchwheel channel=10 pitch=-893 time=24
pitchwheel channel=10 pitch=-1055 time=48
control_change channel=10 control=11 value=101 time=0
pitchwheel channel=10 pitch=-1218 time=48
pitchwheel channel=10 pitch=-1380 time=24
pitchwheel channel=10 pitch=-1542 time=24
pitchwheel channel=10 pitch=-1704 time=24
control_change channel=10 control=11 value=99 time=0
note_off channel=10 note=72 velocity=64 time=24
pitchwheel channel=10 pitch=-2029 time=0
control_change channel=10 control=11 value=96 time=24
control_change channel=10 control=11 value=127 time=0
control_change channel=10 control=11 value=127 time=24
pitchwheel channel=10 pitch=0 time=0
note_on channel=10 note=70 velocity=81 time=320
note_on channel=10 note=69 velocity=30 time=112
note_on channel=10 note=68 velocity=20 time=40
note_off channel=10 note=70 velocity=64 time=8
note_off channel=10 note=69 velocity=64 time=4
note_off channel=10 note=68 velocity=64 time=40
note_on channel=10 note=70 velocity=81 time=436
note_off channel=10 note=70 velocity=64 time=168
note_on channel=10 note=70 velocity=81 time=312
note_off channel=10 note=70 velocity=64 time=168
note_on channel=10 note=72 velocity=81 time=792
note_off channel=10 note=72 velocity=64 time=296
note_on channel=10 note=72 velocity=81 time=24
note_off channel=10 note=72 velocity=64 time=192
note_on channel=10 note=68 velocity=69 time=288
note_off channel=10 note=68 velocity=64 time=148
note_on channel=10 note=72 velocity=81 time=12
note_off channel=10 note=72 velocity=64 time=308
note_on channel=10 note=72 velocity=75 time=12
note_off channel=10 note=72 velocity=64 time=136
note_on channel=10 note=72 velocity=81 time=24
note_off channel=10 note=72 velocity=64 time=296
note_on channel=10 note=67 velocity=81 time=24
note_off channel=10 note=67 velocity=64 time=136
note_on channel=10 note=69 velocity=81 time=1944
note_off channel=10 note=69 velocity=64 time=168
note_on channel=10 note=68 velocity=81 time=312
note_off channel=10 note=68 velocity=64 time=296
note_on channel=10 note=68 velocity=81 time=24
note_off channel=10 note=68 velocity=64 time=180
note_on channel=10 note=76 velocity=81 time=300
note_on channel=10 note=78 velocity=59 time=1440
note_off channel=10 note=76 velocity=64 time=16
note_on channel=10 note=77 velocity=70 time=64
note_off channel=10 note=78 velocity=64 time=24
note_on channel=10 note=72 velocity=81 time=56
note_off channel=10 note=77 velocity=64 time=24
note_off channel=10 note=72 velocity=64 time=284
note_on channel=10 note=68 velocity=81 time=12
pitchwheel channel=10 pitch=0 time=160
control_change channel=10 control=11 value=127 time=0
pitchwheel channel=10 pitch=242 time=12
control_change channel=10 control=11 value=124 time=72
control_change channel=10 control=11 value=121 time=72
pitchwheel channel=10 pitch=0 time=48
control_change channel=10 control=11 value=119 time=60
control_change channel=10 control=11 value=116 time=48
pitchwheel channel=10 pitch=-82 time=36
control_change channel=10 control=11 value=114 time=72
pitchwheel channel=10 pitch=-244 time=24
control_change channel=10 control=11 value=111 time=24
pitchwheel channel=10 pitch=-407 time=48
pitchwheel channel=10 pitch=-569 time=60
control_change channel=10 control=11 value=109 time=0
control_change channel=10 control=11 value=106 time=48
pitchwheel channel=10 pitch=-731 time=12
pitchwheel channel=10 pitch=-893 time=36
pitchwheel channel=10 pitch=-1055 time=48
control_change channel=10 control=11 value=104 time=12
pitchwheel channel=10 pitch=-1218 time=24
pitchwheel channel=10 pitch=-1380 time=24
control_change channel=10 control=11 value=101 time=0
pitchwheel channel=10 pitch=-1542 time=36
pitchwheel channel=10 pitch=-1704 time=24
pitchwheel channel=10 pitch=-1866 time=12
pitchwheel channel=10 pitch=-2029 time=24
pitchwheel channel=10 pitch=-2191 time=12
control_change channel=10 control=11 value=99 time=0
pitchwheel channel=10 pitch=-2353 time=12
note_off channel=10 note=68 velocity=64 time=12
pitchwheel channel=10 pitch=-2515 time=0
pitchwheel channel=10 pitch=-2840 time=12
control_change channel=10 control=11 value=96 time=12
control_change channel=10 control=11 value=127 time=24
pitchwheel channel=10 pitch=0 time=0
note_on channel=10 note=70 velocity=81 time=1280
note_off channel=10 note=70 velocity=64 time=604
note_on channel=10 note=74 velocity=81 time=36
note_off channel=10 note=74 velocity=64 time=180
note_on channel=10 note=74 velocity=81 time=300
note_off channel=10 note=74 velocity=64 time=296
note_on channel=10 note=74 velocity=81 time=24
note_off channel=10 note=74 velocity=64 time=136
note_on channel=10 note=74 velocity=81 time=344
note_off channel=10 note=74 velocity=64 time=180
note_on channel=10 note=70 velocity=75 time=300
note_off channel=10 note=70 velocity=64 time=148
note_on channel=10 note=70 velocity=81 time=12
note_off channel=10 note=70 velocity=64 time=456
note_on channel=10 note=67 velocity=81 time=24
note_off channel=10 note=67 velocity=64 time=156
note_on channel=10 note=79 velocity=88 time=804
note_off channel=10 note=79 velocity=64 time=912
note_on channel=10 note=75 velocity=81 time=48
note_off channel=10 note=75 velocity=64 time=180
control_change channel=10 control=11 value=104 time=300
note_on channel=10 note=75 velocity=88 time=0
control_change channel=10 control=11 value=106 time=108
control_change channel=10 control=11 value=109 time=108
note_off channel=10 note=75 velocity=64 time=92
note_on channel=10 note=77 velocity=88 time=12
control_change channel=10 control=11 value=111 time=4
control_change channel=10 control=11 value=114 time=108
control_change channel=10 control=11 value=116 time=108
control_change channel=10 control=11 value=119 time=108
control_change channel=10 control=11 value=121 time=108
control_change channel=10 control=11 value=124 time=108
note_off channel=10 note=77 velocity=64 time=60
control_change channel=10 control=11 value=127 time=36
control_change channel=10 control=11 value=127 time=0
note_on channel=10 note=74 velocity=88 time=0
control_change channel=10 control=11 value=124 time=84
control_change channel=10 control=11 value=121 time=84
control_change channel=10 control=11 value=119 time=108
note_off channel=10 note=74 velocity=64 time=32
note_on channel=10 note=68 velocity=88 time=12
control_change channel=10 control=11 value=116 time=4
control_change channel=10 control=11 value=114 time=108
control_change channel=10 control=11 value=111 time=48
control_change channel=10 control=11 value=109 time=108
control_change channel=10 control=11 value=106 time=60
control_change channel=10 control=11 value=104 time=108
control_change channel=10 control=11 value=101 time=48
note_off channel=10 note=68 velocity=64 time=108
control_change channel=10 control=11 value=99 time=0
control_change channel=10 control=11 value=96 time=48
control_change channel=10 control=11 value=127 time=0
control_change channel=10 control=11 value=127 time=12
note_on channel=10 note=67 velocity=81 time=15668
note_off channel=10 note=67 velocity=64 time=168
note_on channel=10 note=69 velocity=81 time=312
note_off channel=10 note=69 velocity=64 time=136
note_on channel=10 note=70 velocity=81 time=24
note_off channel=10 note=70 velocity=64 time=168
note_on channel=10 note=70 velocity=81 time=312
note_off channel=10 note=70 velocity=64 time=168
control_change channel=10 control=93 value=30 time=312
note_on channel=10 note=73 velocity=81 time=0
note_off channel=10 note=73 velocity=64 time=444
note_on channel=10 note=73 velocity=81 time=36
note_off channel=10 note=73 velocity=64 time=296
note_on channel=10 note=75 velocity=81 time=24
note_off channel=10 note=75 velocity=64 time=136
note_on channel=10 note=65 velocity=81 time=824
note_off channel=10 note=65 velocity=64 time=604
note_on channel=10 note=69 velocity=81 time=36
note_off channel=10 note=69 velocity=64 time=296
note_on channel=10 note=65 velocity=69 time=24
note_off channel=10 note=65 velocity=64 time=136
note_on channel=10 note=72 velocity=81 time=24
note_off channel=10 note=72 velocity=64 time=284
note_on channel=10 note=72 velocity=81 time=36
note_off channel=10 note=72 velocity=64 time=168
note_on channel=10 note=72 velocity=81 time=312
note_off channel=10 note=72 velocity=64 time=604
note_on channel=10 note=75 velocity=81 time=36
note_off channel=10 note=75 velocity=64 time=296
note_on channel=10 note=75 velocity=81 time=24
note_off channel=10 note=75 velocity=64 time=124
note_on channel=10 note=71 velocity=81 time=1316
note_off channel=10 note=71 velocity=64 time=568
note_on channel=10 note=71 velocity=81 time=72
note_off channel=10 note=71 velocity=64 time=156
note_on channel=10 note=65 velocity=81 time=324
note_off channel=10 note=65 velocity=64 time=156
note_on channel=10 note=72 velocity=81 time=324
note_off channel=10 note=72 velocity=64 time=782
note_on channel=10 note=73 velocity=81 time=18
note_off channel=10 note=73 velocity=64 time=1060
control_change channel=10 control=0 value=56 time=7740
control_change channel=10 control=32 value=0 time=0
program_change channel=10 program=59 time=0
note_on channel=10 note=68 velocity=45 time=2720
control_change channel=10 control=11 value=127 time=1120
control_change channel=10 control=11 value=125 time=120
control_change channel=10 control=11 value=124 time=120
control_change channel=10 control=11 value=123 time=120
control_change channel=10 control=11 value=121 time=120
control_change channel=10 control=11 value=120 time=120
control_change channel=10 control=11 value=119 time=120
control_change channel=10 control=11 value=118 time=120
control_change channel=10 control=11 value=116 time=120
control_change channel=10 control=11 value=115 time=120
control_change channel=10 control=11 value=114 time=120
control_change channel=10 control=11 value=113 time=120
control_change channel=10 control=11 value=111 time=120
control_change channel=10 control=11 value=110 time=120
control_change channel=10 control=11 value=109 time=120
control_change channel=10 control=11 value=108 time=120
control_change channel=10 control=11 value=106 time=120
control_change channel=10 control=11 value=105 time=120
control_change channel=10 control=11 value=104 time=120
control_change channel=10 control=11 value=103 time=120
control_change channel=10 control=11 value=101 time=120
control_change channel=10 control=11 value=100 time=120
control_change channel=10 control=11 value=99 time=120
control_change channel=10 control=11 value=98 time=120
note_off channel=10 note=68 velocity=64 time=96
<meta message end_of_track time=0>
<meta message text text='Trumpet 4' time=0>
control_change channel=11 control=11 value=127 time=0
control_change channel=11 control=7 value=106 time=0
control_change channel=11 control=10 value=44 time=0
control_change channel=11 control=91 value=81 time=0
control_change channel=11 control=93 value=25 time=0
control_change channel=11 control=0 value=56 time=0
control_change channel=11 control=32 value=0 time=0
program_change channel=11 program=56 time=0
note_on channel=11 note=68 velocity=94 time=13760
note_off channel=11 note=68 velocity=64 time=580
note_on channel=11 note=69 velocity=94 time=60
note_off channel=11 note=69 velocity=64 time=168
note_on channel=11 note=62 velocity=94 time=312
note_off channel=11 note=62 velocity=64 time=168
note_on channel=11 note=68 velocity=94 time=312
note_off channel=11 note=68 velocity=64 time=764
note_on channel=11 note=69 velocity=94 time=36
note_off channel=11 note=69 velocity=64 time=592
note_on channel=11 note=64 velocity=94 time=48
note_off channel=11 note=64 velocity=64 time=272
note_on channel=11 note=67 velocity=94 time=48
note_off channel=11 note=67 velocity=64 time=124
note_on channel=11 note=55 velocity=50 time=19556
note_off channel=11 note=55 velocity=64 time=124
note_on channel=11 note=64 velocity=55 time=36
note_off channel=11 note=64 velocity=64 time=132
note_on channel=11 note=65 velocity=50 time=348
note_off channel=11 note=65 velocity=64 time=294
control_change channel=11 control=11 value=109 time=26
note_on channel=11 note=67 velocity=58 time=0
control_change channel=11 control=11 value=110 time=100
control_change channel=11 control=11 value=111 time=100
control_change channel=11 control=11 value=113 time=100
control_change channel=11 control=11 value=114 time=100
control_change channel=11 control=11 value=115 time=100
control_change channel=11 control=11 value=116 time=100
note_off channel=11 note=67 velocity=64 time=12
note_on channel=11 note=69 velocity=58 time=28
control_change channel=11 control=11 value=118 time=60
control_change channel=11 control=11 value=119 time=100
control_change channel=11 control=11 value=120 time=100
control_change channel=11 control=11 value=121 time=100
control_change channel=11 control=11 value=123 time=100
control_change channel=11 control=11 value=124 time=100
control_change channel=11 control=11 value=125 time=100
control_change channel=11 control=11 value=127 time=60
note_off channel=11 note=69 velocity=64 time=32
note_on channel=11 note=65 velocity=60 time=48
note_off channel=11 note=65 velocity=64 time=112
note_on channel=11 note=65 velocity=55 time=368
note_off channel=11 note=65 velocity=64 time=144
note_on channel=11 note=65 velocity=50 time=336
note_off channel=11 note=65 velocity=64 time=136
note_on channel=11 note=59 velocity=55 time=24
note_off channel=11 note=59 velocity=64 time=284
note_on channel=11 note=59 velocity=50 time=36
note_off channel=11 note=59 velocity=64 time=136
note_on channel=11 note=57 velocity=55 time=24
note_off channel=11 note=57 velocity=64 time=120
note_on channel=11 note=60 velocity=55 time=360
note_off channel=11 note=60 velocity=64 time=284
note_on channel=11 note=67 velocity=55 time=36
note_off channel=11 note=67 velocity=64 time=120
note_on channel=11 note=60 velocity=55 time=360
control_change channel=11 control=11 value=127 time=232
control_change channel=11 control=11 value=120 time=24
control_change channel=11 control=11 value=114 time=24
control_change channel=11 control=11 value=108 time=24
control_change channel=11 control=11 value=101 time=24
control_change channel=11 control=11 value=94 time=24
control_change channel=11 control=11 value=96 time=120
control_change channel=11 control=11 value=99 time=120
control_change channel=11 control=11 value=101 time=120
control_change channel=11 control=11 value=104 time=120
control_change channel=11 control=11 value=106 time=120
control_change channel=11 control=11 value=109 time=120
control_change channel=11 control=11 value=111 time=120
control_change channel=11 control=11 value=114 time=120
control_change channel=11 control=11 value=116 time=120
control_change channel=11 control=11 value=119 time=120
control_change channel=11 control=11 value=121 time=120
control_change channel=11 control=11 value=124 time=120
control_change channel=11 control=11 value=127 time=120
note_off channel=11 note=60 velocity=64 time=120
note_on channel=11 note=58 velocity=56 time=1008
note_off channel=11 note=58 velocity=64 time=284
note_on channel=11 note=62 velocity=59 time=36
note_off channel=11 note=62 velocity=64 time=108
note_on channel=11 note=65 velocity=65 time=372
note_off channel=11 note=65 velocity=64 time=592
note_on channel=11 note=64 velocity=60 time=48
note_off channel=11 note=64 velocity=64 time=296
note_on channel=11 note=62 velocity=50 time=24
note_off channel=11 note=62 velocity=64 time=134
note_on channel=11 note=60 velocity=55 time=26
note_off channel=11 note=60 velocity=64 time=284
note_on channel=11 note=61 velocity=55 time=36
note_off channel=11 note=61 velocity=64 time=120
note_on channel=11 note=61 velocity=56 time=360
control_change channel=11 control=11 value=127 time=232
control_change channel=11 control=11 value=120 time=24
control_change channel=11 control=11 value=114 time=24
control_change channel=11 control=11 value=108 time=24
control_change channel=11 control=11 value=101 time=24
control_change channel=11 control=11 value=95 time=24
control_change channel=11 control=11 value=95 time=0
control_change channel=11 control=11 value=96 time=120
control_change channel=11 control=11 value=98 time=120
control_change channel=11 control=11 value=99 time=120
control_change channel=11 control=11 value=100 time=120
control_change channel=11 control=11 value=101 time=120
control_change channel=11 control=11 value=103 time=120
control_change channel=11 control=11 value=104 time=120
control_change channel=11 control=11 value=105 time=120
control_change channel=11 control=11 value=106 time=120
control_change channel=11 control=11 value=108 time=120
control_change channel=11 control=11 value=109 time=120
control_change channel=11 control=11 value=110 time=120
control_change channel=11 control=11 value=111 time=120
control_change channel=11 control=11 value=113 time=120
note_off channel=11 note=61 velocity=64 time=32
note_on channel=11 note=60 velocity=51 time=16
control_change channel=11 control=11 value=114 time=72
control_change channel=11 control=11 value=115 time=120
control_change channel=11 control=11 value=116 time=120
control_change channel=11 control=11 value=118 time=120
control_change channel=11 control=11 value=119 time=120
control_change channel=11 control=11 value=120 time=120
control_change channel=11 control=11 value=121 time=120
control_change channel=11 control=11 value=123 time=120
control_change channel=11 control=11 value=124 time=120
control_change channel=11 control=11 value=125 time=120
control_change channel=11 control=11 value=127 time=48
note_off channel=11 note=60 velocity=64 time=180
note_on channel=11 note=60 velocity=59 time=60
note_off channel=11 note=60 velocity=64 time=284
note_on channel=11 note=59 velocity=60 time=36
note_off channel=11 note=59 velocity=64 time=112
note_on channel=11 note=62 velocity=69 time=3248
note_off channel=11 note=62 velocity=64 time=136
note_on channel=11 note=60 velocity=66 time=24
note_off channel=11 note=60 velocity=64 time=296
note_on channel=11 note=57 velocity=57 time=24
note_off channel=11 note=57 velocity=64 time=136
note_on channel=11 note=62 velocity=69 time=3224
note_off channel=11 note=62 velocity=64 time=136
note_on channel=11 note=60 velocity=66 time=24
note_off channel=11 note=60 velocity=64 time=296
note_on channel=11 note=57 velocity=57 time=24
note_off channel=11 note=57 velocity=64 time=136
note_on channel=11 note=55 velocity=62 time=8024
note_off channel=11 note=55 velocity=64 time=136
note_on channel=11 note=64 velocity=69 time=24
note_off channel=11 note=64 velocity=64 time=144
note_on channel=11 note=65 velocity=75 time=336
note_off channel=11 note=65 velocity=64 time=296
note_on channel=11 note=67 velocity=62 time=24
note_off channel=11 note=67 velocity=64 time=136
note_on channel=11 note=70 velocity=72 time=24
note_off channel=11 note=70 velocity=64 time=296
note_on channel=11 note=70 velocity=81 time=24
note_off channel=11 note=70 velocity=64 time=604
note_on channel=11 note=67 velocity=71 time=36
note_off channel=11 note=67 velocity=64 time=308
note_on channel=11 note=67 velocity=77 time=12
control_change channel=11 control=11 value=127 time=16
control_change channel=11 control=11 value=125 time=120
control_change channel=11 control=11 value=123 time=120
control_change channel=11 control=11 value=121 time=120
control_change channel=11 control=11 value=119 time=120
control_change channel=11 control=11 value=118 time=120
control_change channel=11 control=11 value=115 time=96
control_change channel=11 control=11 value=114 time=120
control_change channel=11 control=11 value=111 time=120
note_off channel=11 note=67 velocity=64 time=120
control_change channel=11 control=11 value=110 time=0
control_change channel=11 control=11 value=109 time=24
control_change channel=11 control=11 value=127 time=24
note_on channel=11 note=57 velocity=62 time=320
note_off channel=11 note=57 velocity=64 time=136
note_on channel=11 note=59 velocity=69 time=24
note_off channel=11 note=59 velocity=64 time=144
note_on channel=11 note=61 velocity=76 time=336
note_off channel=11 note=61 velocity=64 time=296
note_on channel=11 note=61 velocity=62 time=24
note_off channel=11 note=61 velocity=64 time=136
note_on channel=11 note=64 velocity=72 time=24
note_off channel=11 note=64 velocity=64 time=296
note_on channel=11 note=67 velocity=81 time=24
note_off channel=11 note=67 velocity=64 time=604
note_on channel=11 note=63 velocity=72 time=36
note_off channel=11 note=63 velocity=64 time=308
note_on channel=11 note=63 velocity=77 time=12
control_change channel=11 control=11 value=127 time=16
control_change channel=11 control=11 value=125 time=120
control_change channel=11 control=11 value=123 time=120
control_change channel=11 control=11 value=121 time=120
control_change channel=11 control=11 value=119 time=120
control_change channel=11 control=11 value=118 time=120
control_change channel=11 control=11 value=115 time=96
control_change channel=11 control=11 value=114 time=120
control_change channel=11 control=11 value=111 time=120
note_off channel=11 note=63 velocity=64 time=120
control_change channel=11 control=11 value=110 time=0
control_change channel=11 control=11 value=109 time=24
control_change channel=11 control=11 value=127 time=24
note_on channel=11 note=60 velocity=69 time=7040
note_off channel=11 note=60 velocity=64 time=580
note_on channel=11 note=59 velocity=69 time=60
note_off channel=11 note=59 velocity=64 time=144
note_on channel=11 note=59 velocity=69 time=336
note_off channel=11 note=59 velocity=64 time=296
note_on channel=11 note=59 velocity=69 time=24
note_off channel=11 note=59 velocity=64 time=136
note_on channel=11 note=59 velocity=62 time=24
note_off channel=11 note=59 velocity=64 time=56
note_on channel=11 note=59 velocity=69 time=24
note_off channel=11 note=59 velocity=64 time=68
note_on channel=11 note=59 velocity=69 time=332
note_off channel=11 note=59 velocity=64 time=308
control_change channel=11 control=11 value=104 time=12
note_on channel=11 note=58 velocity=75 time=0
control_change channel=11 control=11 value=105 time=100
control_change channel=11 control=11 value=108 time=80
control_change channel=11 control=11 value=109 time=100
control_change channel=11 control=11 value=111 time=100
control_change channel=11 control=11 value=114 time=90
control_change channel=11 control=11 value=115 time=100
control_change channel=11 control=11 value=118 time=70
control_change channel=11 control=11 value=119 time=100
control_change channel=11 control=11 value=121 time=100
control_change channel=11 control=11 value=124 time=90
control_change channel=11 control=11 value=125 time=100
control_change channel=11 control=11 value=127 time=10
note_off channel=11 note=58 velocity=64 time=80
note_on channel=11 note=60 velocity=76 time=320
note_on channel=11 note=59 velocity=40 time=112
note_on channel=11 note=58 velocity=28 time=40
note_off channel=11 note=60 velocity=64 time=4
note_off channel=11 note=59 velocity=64 time=8
note_on channel=11 note=57 velocity=17 time=28
note_off channel=11 note=58 velocity=64 time=12
note_off channel=11 note=57 velocity=64 time=40
note_on channel=11 note=62 velocity=75 time=236
note_off channel=11 note=62 velocity=64 time=592
note_on channel=11 note=62 velocity=69 time=48
note_off channel=11 note=62 velocity=64 time=296
note_on channel=11 note=60 velocity=57 time=24
note_off channel=11 note=60 velocity=64 time=136
note_on channel=11 note=64 velocity=69 time=24
note_off channel=11 note=64 velocity=64 time=284
note_on channel=11 note=61 velocity=69 time=36
note_off channel=11 note=61 velocity=64 time=156
note_on channel=11 note=64 velocity=69 time=324
control_change channel=11 control=11 value=127 time=160
control_change channel=11 control=11 value=125 time=120
control_change channel=11 control=11 value=123 time=120
control_change channel=11 control=11 value=121 time=120
control_change channel=11 control=11 value=119 time=120
control_change channel=11 control=11 value=118 time=120
control_change channel=11 control=11 value=115 time=120
control_change channel=11 control=11 value=114 time=120
control_change channel=11 control=11 value=111 time=120
control_change channel=11 control=11 value=110 time=120
control_change channel=11 control=11 value=108 time=120
control_change channel=11 control=11 value=106 time=120
control_change channel=11 control=11 value=104 time=120
control_change channel=11 control=11 value=103 time=120
control_change channel=11 control=11 value=100 time=120
control_change channel=11 control=11 value=99 time=120
note_off channel=11 note=64 velocity=64 time=60
control_change channel=11 control=11 value=96 time=36
control_change channel=11 control=11 value=127 time=24
note_on channel=11 note=61 velocity=75 time=320
note_on channel=11 note=60 velocity=30 time=112
note_on channel=11 note=59 velocity=20 time=40
note_off channel=11 note=61 velocity=64 time=4
note_off channel=11 note=60 velocity=64 time=8
note_off channel=11 note=59 velocity=64 time=40
note_on channel=11 note=64 velocity=75 time=276
note_off channel=11 note=64 velocity=64 time=580
note_on channel=11 note=62 velocity=75 time=60
note_off channel=11 note=62 velocity=64 time=168
note_on channel=11 note=61 velocity=74 time=632
note_on channel=11 note=60 velocity=32 time=112
note_on channel=11 note=59 velocity=23 time=40
note_off channel=11 note=61 velocity=64 time=4
note_off channel=11 note=60 velocity=64 time=8
note_off channel=11 note=59 velocity=64 time=40
note_on channel=11 note=62 velocity=75 time=276
note_off channel=11 note=62 velocity=64 time=580
note_on channel=11 note=60 velocity=75 time=60
note_off channel=11 note=60 velocity=64 time=168
note_on channel=11 note=58 velocity=69 time=632
note_off channel=11 note=58 velocity=64 time=444
note_on channel=11 note=60 velocity=71 time=36
note_off channel=11 note=60 velocity=64 time=444
note_on channel=11 note=63 velocity=74 time=36
note_off channel=11 note=63 velocity=64 time=444
note_on channel=11 note=60 velocity=66 time=36
note_off channel=11 note=60 velocity=64 time=136
note_on channel=11 note=63 velocity=79 time=24
note_off channel=11 note=63 velocity=64 time=148
note_on channel=11 note=60 velocity=65 time=12
note_off channel=11 note=60 velocity=64 time=148
note_on channel=11 note=67 velocity=80 time=12
note_off channel=11 note=67 velocity=64 time=924
note_on channel=11 note=61 velocity=75 time=36
note_off channel=11 note=61 velocity=64 time=604
note_on channel=11 note=55 velocity=69 time=36
note_off channel=11 note=55 velocity=64 time=284
note_on channel=11 note=55 velocity=70 time=36
note_off channel=11 note=55 velocity=64 time=124
note_on channel=11 note=69 velocity=81 time=15236
note_off channel=11 note=69 velocity=64 time=604
note_on channel=11 note=64 velocity=81 time=36
note_off channel=11 note=64 velocity=64 time=296
note_on channel=11 note=65 velocity=81 time=24
note_off channel=11 note=65 velocity=64 time=136
note_on channel=11 note=69 velocity=81 time=824
note_off channel=11 note=69 velocity=64 time=604
note_on channel=11 note=63 velocity=81 time=36
note_off channel=11 note=63 velocity=64 time=296
note_on channel=11 note=60 velocity=81 time=24
note_off channel=11 note=60 velocity=64 time=136
note_on channel=11 note=69 velocity=81 time=824
note_off channel=11 note=69 velocity=64 time=604
note_on channel=11 note=64 velocity=81 time=36
note_off channel=11 note=64 velocity=64 time=296
note_on channel=11 note=65 velocity=81 time=24
note_off channel=11 note=65 velocity=64 time=136
note_on channel=11 note=69 velocity=81 time=824
note_off channel=11 note=69 velocity=64 time=604
note_on channel=11 note=63 velocity=81 time=36
note_off channel=11 note=63 velocity=64 time=296
note_on channel=11 note=64 velocity=81 time=24
note_off channel=11 note=64 velocity=64 time=136
note_on channel=11 note=69 velocity=81 time=824
note_off channel=11 note=69 velocity=64 time=580
note_on channel=11 note=69 velocity=81 time=60
note_off channel=11 note=69 velocity=64 time=168
note_on channel=11 note=69 velocity=81 time=312
note_off channel=11 note=69 velocity=64 time=168
note_on channel=11 note=69 velocity=81 time=312
note_off channel=11 note=69 velocity=64 time=296
note_on channel=11 note=72 velocity=69 time=24
note_off channel=11 note=72 velocity=64 time=148
note_on channel=11 note=69 velocity=81 time=12
note_off channel=11 note=69 velocity=64 time=311
note_on channel=11 note=69 velocity=81 time=9
pitchwheel channel=11 pitch=0 time=16
control_change channel=11 control=11 value=127 time=0
pitchwheel channel=11 pitch=242 time=24
control_change channel=11 control=11 value=124 time=72
control_change channel=11 control=11 value=121 time=96
pitchwheel channel=11 pitch=0 time=72
control_change channel=11 control=11 value=119 time=48
control_change channel=11 control=11 value=116 time=48
pitchwheel channel=11 pitch=-82 time=96
control_change channel=11 control=11 value=114 time=24
control_change channel=11 control=11 value=111 time=72
pitchwheel channel=11 pitch=-244 time=24
pitchwheel channel=11 pitch=-407 time=96
control_change channel=11 control=11 value=109 time=0
control_change channel=11 control=11 value=106 time=48
pitchwheel channel=11 pitch=-569 time=24
pitchwheel channel=11 pitch=-731 time=72
control_change channel=11 control=11 value=104 time=24
pitchwheel channel=11 pitch=-893 time=24
pitchwheel channel=11 pitch=-1055 time=48
control_change channel=11 control=11 value=101 time=0
pitchwheel channel=11 pitch=-1218 time=48
pitchwheel channel=11 pitch=-1380 time=24
pitchwheel channel=11 pitch=-1542 time=24
pitchwheel channel=11 pitch=-1704 time=24
control_change channel=11 control=11 value=99 time=0
note_off channel=11 note=69 velocity=64 time=24
pitchwheel channel=11 pitch=-2029 time=0
control_change channel=11 control=11 value=96 time=24
control_change channel=11 control=11 value=127 time=0
control_change channel=11 control=11 value=127 time=24
pitchwheel channel=11 pitch=0 time=0
note_on channel=11 note=67 velocity=81 time=320
note_on channel=11 note=66 velocity=30 time=112
note_on channel=11 note=65 velocity=20 time=40
note_off channel=11 note=67 velocity=64 time=8
note_off channel=11 note=66 velocity=64 time=4
note_off channel=11 note=65 velocity=64 time=40
note_on channel=11 note=67 velocity=81 time=436
note_off channel=11 note=67 velocity=64 time=168
note_on channel=11 note=67 velocity=81 time=312
note_off channel=11 note=67 velocity=64 time=168
note_on channel=11 note=68 velocity=81 time=792
note_off channel=11 note=68 velocity=64 time=296
note_on channel=11 note=68 velocity=81 time=24
note_off channel=11 note=68 velocity=64 time=192
note_on channel=11 note=65 velocity=69 time=288
note_off channel=11 note=65 velocity=64 time=148
note_on channel=11 note=68 velocity=81 time=12
note_off channel=11 note=68 velocity=64 time=308
note_on channel=11 note=68 velocity=75 time=12
note_off channel=11 note=68 velocity=64 time=136
note_on channel=11 note=69 velocity=81 time=24
note_off channel=11 note=69 velocity=64 time=296
note_on channel=11 note=65 velocity=81 time=24
note_off channel=11 note=65 velocity=64 time=136
note_on channel=11 note=65 velocity=81 time=1944
note_off channel=11 note=65 velocity=64 time=168
note_on channel=11 note=64 velocity=81 time=312
note_off channel=11 note=64 velocity=64 time=296
note_on channel=11 note=65 velocity=81 time=24
note_off channel=11 note=65 velocity=64 time=180
note_on channel=11 note=72 velocity=81 time=300
note_on channel=11 note=74 velocity=59 time=1440
note_off channel=11 note=72 velocity=64 time=16
note_on channel=11 note=73 velocity=70 time=64
note_off channel=11 note=74 velocity=64 time=24
note_on channel=11 note=69 velocity=81 time=56
note_off channel=11 note=73 velocity=64 time=24
note_off channel=11 note=69 velocity=64 time=284
note_on channel=11 note=64 velocity=81 time=12
pitchwheel channel=11 pitch=0 time=160
control_change channel=11 control=11 value=127 time=0
pitchwheel channel=11 pitch=242 time=12
control_change channel=11 control=11 value=124 time=72
control_change channel=11 control=11 value=121 time=72
pitchwheel channel=11 pitch=0 time=48
control_change channel=11 control=11 value=119 time=60
control_change channel=11 control=11 value=116 time=48
pitchwheel channel=11 pitch=-82 time=36
control_change channel=11 control=11 value=114 time=72
pitchwheel channel=11 pitch=-244 time=24
control_change channel=11 control=11 value=111 time=24
pitchwheel channel=11 pitch=-407 time=48
pitchwheel channel=11 pitch=-569 time=60
control_change channel=11 control=11 value=109 time=0
control_change channel=11 control=11 value=106 time=48
pitchwheel channel=11 pitch=-731 time=12
pitchwheel channel=11 pitch=-893 time=36
pitchwheel channel=11 pitch=-1055 time=48
control_change channel=11 control=11 value=104 time=12
pitchwheel channel=11 pitch=-1218 time=24
pitchwheel channel=11 pitch=-1380 time=24
control_change channel=11 control=11 value=101 time=0
pitchwheel channel=11 pitch=-1542 time=36
pitchwheel channel=11 pitch=-1704 time=24
pitchwheel channel=11 pitch=-1866 time=12
pitchwheel channel=11 pitch=-2029 time=24
pitchwheel channel=11 pitch=-2191 time=12
control_change channel=11 control=11 value=99 time=0
pitchwheel channel=11 pitch=-2353 time=12
note_off channel=11 note=64 velocity=64 time=12
pitchwheel channel=11 pitch=-2515 time=0
pitchwheel channel=11 pitch=-2840 time=12
control_change channel=11 control=11 value=96 time=12
control_change channel=11 control=11 value=127 time=24
pitchwheel channel=11 pitch=0 time=0
note_on channel=11 note=67 velocity=81 time=1280
note_off channel=11 note=67 velocity=64 time=604
note_on channel=11 note=69 velocity=81 time=36
note_off channel=11 note=69 velocity=64 time=180
note_on channel=11 note=70 velocity=81 time=300
note_off channel=11 note=70 velocity=64 time=296
note_on channel=11 note=69 velocity=81 time=24
note_off channel=11 note=69 velocity=64 time=136
note_on channel=11 note=69 velocity=81 time=344
note_off channel=11 note=69 velocity=64 time=180
note_on channel=11 note=67 velocity=75 time=300
note_off channel=11 note=67 velocity=64 time=148
note_on channel=11 note=65 velocity=81 time=12
note_off channel=11 note=65 velocity=64 time=456
note_on channel=11 note=64 velocity=81 time=24
note_off channel=11 note=64 velocity=64 time=156
note_on channel=11 note=74 velocity=88 time=804
note_off channel=11 note=74 velocity=64 time=912
note_on channel=11 note=72 velocity=81 time=48
note_off channel=11 note=72 velocity=64 time=180
control_change channel=11 control=11 value=104 time=300
note_on channel=11 note=70 velocity=88 time=0
control_change channel=11 control=11 value=106 time=108
control_change channel=11 control=11 value=109 time=108
note_off channel=11 note=70 velocity=64 time=92
note_on channel=11 note=72 velocity=88 time=12
control_change channel=11 control=11 value=111 time=4
control_change channel=11 control=11 value=114 time=108
control_change channel=11 control=11 value=116 time=108
control_change channel=11 control=11 value=119 time=108
control_change channel=11 control=11 value=121 time=108
control_change channel=11 control=11 value=124 time=108
note_off channel=11 note=72 velocity=64 time=60
control_change channel=11 control=11 value=127 time=36
control_change channel=11 control=11 value=127 time=0
note_on channel=11 note=69 velocity=88 time=0
control_change channel=11 control=11 value=124 time=84
control_change channel=11 control=11 value=121 time=84
control_change channel=11 control=11 value=119 time=108
note_off channel=11 note=69 velocity=64 time=32
note_on channel=11 note=63 velocity=88 time=12
control_change channel=11 control=11 value=116 time=4
control_change channel=11 control=11 value=114 time=108
control_change channel=11 control=11 value=111 time=48
control_change channel=11 control=11 value=109 time=108
control_change channel=11 control=11 value=106 time=60
control_change channel=11 control=11 value=104 time=108
control_change channel=11 control=11 value=101 time=48
note_off channel=11 note=63 velocity=64 time=108
control_change channel=11 control=11 value=99 time=0
control_change channel=11 control=11 value=96 time=48
control_change channel=11 control=11 value=127 time=0
control_change channel=11 control=11 value=127 time=12
note_on channel=11 note=62 velocity=69 time=3188
note_off channel=11 note=62 velocity=64 time=136
note_on channel=11 note=60 velocity=66 time=24
note_off channel=11 note=60 velocity=64 time=296
note_on channel=11 note=57 velocity=57 time=24
note_off channel=11 note=57 velocity=64 time=136
note_on channel=11 note=62 velocity=69 time=3224
note_off channel=11 note=62 velocity=64 time=136
note_on channel=11 note=60 velocity=66 time=24
note_off channel=11 note=60 velocity=64 time=296
note_on channel=11 note=57 velocity=57 time=24
note_off channel=11 note=57 velocity=64 time=136
note_on channel=11 note=65 velocity=81 time=8024
note_off channel=11 note=65 velocity=64 time=168
note_on channel=11 note=67 velocity=81 time=312
note_off channel=11 note=67 velocity=64 time=136
note_on channel=11 note=67 velocity=81 time=24
note_off channel=11 note=67 velocity=64 time=168
note_on channel=11 note=67 velocity=81 time=312
note_off channel=11 note=67 velocity=64 time=168
control_change channel=11 control=93 value=30 time=312
note_on channel=11 note=68 velocity=81 time=0
note_off channel=11 note=68 velocity=64 time=444
note_on channel=11 note=70 velocity=81 time=36
note_off channel=11 note=70 velocity=64 time=296
note_on channel=11 note=72 velocity=81 time=24
note_off channel=11 note=72 velocity=64 time=136
note_on channel=11 note=62 velocity=81 time=824
note_off channel=11 note=62 velocity=64 time=604
note_on channel=11 note=65 velocity=81 time=36
note_off channel=11 note=65 velocity=64 time=296
note_on channel=11 note=62 velocity=69 time=24
note_off channel=11 note=62 velocity=64 time=136
note_on channel=11 note=69 velocity=81 time=24
note_off channel=11 note=69 velocity=64 time=284
note_on channel=11 note=69 velocity=81 time=36
note_off channel=11 note=69 velocity=64 time=168
note_on channel=11 note=69 velocity=81 time=312
note_off channel=11 note=69 velocity=64 time=604
note_on channel=11 note=72 velocity=81 time=36
note_off channel=11 note=72 velocity=64 time=296
note_on channel=11 note=70 velocity=81 time=24
note_off channel=11 note=70 velocity=64 time=124
note_on channel=11 note=68 velocity=81 time=1316
note_off channel=11 note=68 velocity=64 time=568
note_on channel=11 note=69 velocity=81 time=72
note_off channel=11 note=69 velocity=64 time=156
note_on channel=11 note=62 velocity=81 time=324
note_off channel=11 note=62 velocity=64 time=156
note_on channel=11 note=68 velocity=81 time=324
note_off channel=11 note=68 velocity=64 time=782
note_on channel=11 note=69 velocity=81 time=18
note_off channel=11 note=69 velocity=64 time=1060
control_change channel=11 control=0 value=56 time=7740
control_change channel=11 control=32 value=0 time=0
program_change channel=11 program=59 time=0
note_on channel=11 note=65 velocity=45 time=2720
control_change channel=11 control=11 value=127 time=1120
control_change channel=11 control=11 value=125 time=120
control_change channel=11 control=11 value=124 time=120
control_change channel=11 control=11 value=123 time=120
control_change channel=11 control=11 value=121 time=120
control_change channel=11 control=11 value=120 time=120
control_change channel=11 control=11 value=119 time=120
control_change channel=11 control=11 value=118 time=120
control_change channel=11 control=11 value=116 time=120
control_change channel=11 control=11 value=115 time=120
control_change channel=11 control=11 value=114 time=120
control_change channel=11 control=11 value=113 time=120
control_change channel=11 control=11 value=111 time=120
control_change channel=11 control=11 value=110 time=120
control_change channel=11 control=11 value=109 time=120
control_change channel=11 control=11 value=108 time=120
control_change channel=11 control=11 value=106 time=120
control_change channel=11 control=11 value=105 time=120
control_change channel=11 control=11 value=104 time=120
control_change channel=11 control=11 value=103 time=120
control_change channel=11 control=11 value=101 time=120
control_change channel=11 control=11 value=100 time=120
control_change channel=11 control=11 value=99 time=120
control_change channel=11 control=11 value=98 time=120
note_off channel=11 note=65 velocity=64 time=96
<meta message end_of_track time=0>
<meta message text text='Trombone 1' time=0>
control_change channel=12 control=11 value=127 time=0
control_change channel=12 control=7 value=106 time=0
control_change channel=12 control=10 value=84 time=0
control_change channel=12 control=91 value=94 time=0
control_change channel=12 control=93 value=30 time=0
control_change channel=12 control=0 value=56 time=0
control_change channel=12 control=32 value=0 time=0
program_change channel=12 program=57 time=0
note_on channel=12 note=68 velocity=69 time=9920
note_off channel=12 note=68 velocity=64 time=580
note_on channel=12 note=69 velocity=70 time=60
note_off channel=12 note=69 velocity=64 time=168
note_on channel=12 note=62 velocity=72 time=312
note_off channel=12 note=62 velocity=64 time=168
note_on channel=12 note=68 velocity=74 time=312
note_off channel=12 note=68 velocity=64 time=764
note_on channel=12 note=69 velocity=76 time=36
note_off channel=12 note=69 velocity=64 time=1072
note_on channel=12 note=63 velocity=81 time=368
note_off channel=12 note=63 velocity=64 time=580
note_on channel=12 note=64 velocity=84 time=60
note_off channel=12 note=64 velocity=64 time=168
note_on channel=12 note=62 velocity=85 time=312
note_off channel=12 note=62 velocity=64 time=168
note_on channel=12 note=63 velocity=88 time=312
note_off channel=12 note=63 velocity=64 time=764
note_on channel=12 note=62 velocity=90 time=36
note_off channel=12 note=62 velocity=64 time=592
note_on channel=12 note=62 velocity=93 time=48
note_off channel=12 note=62 velocity=64 time=272
note_on channel=12 note=62 velocity=93 time=48
note_off channel=12 note=62 velocity=64 time=124
note_on channel=12 note=53 velocity=50 time=19556
note_off channel=12 note=53 velocity=64 time=124
note_on channel=12 note=61 velocity=55 time=36
note_off channel=12 note=61 velocity=64 time=132
note_on channel=12 note=62 velocity=50 time=348
note_off channel=12 note=62 velocity=64 time=294
control_change channel=12 control=11 value=109 time=26
note_on channel=12 note=65 velocity=58 time=0
control_change channel=12 control=11 value=110 time=100
control_change channel=12 control=11 value=111 time=100
control_change channel=12 control=11 value=113 time=100
control_change channel=12 control=11 value=114 time=100
control_change channel=12 control=11 value=115 time=100
control_change channel=12 control=11 value=116 time=100
control_change channel=12 control=11 value=118 time=100
control_change channel=12 control=11 value=119 time=100
control_change channel=12 control=11 value=120 time=100
control_change channel=12 control=11 value=121 time=100
control_change channel=12 control=11 value=123 time=100
control_change channel=12 control=11 value=124 time=100
control_change channel=12 control=11 value=125 time=100
control_change channel=12 control=11 value=127 time=60
note_off channel=12 note=65 velocity=64 time=44
note_on channel=12 note=64 velocity=60 time=36
note_off channel=12 note=64 velocity=64 time=112
note_on channel=12 note=62 velocity=55 time=368
note_off channel=12 note=62 velocity=64 time=144
note_on channel=12 note=64 velocity=50 time=336
note_off channel=12 note=64 velocity=64 time=136
note_on channel=12 note=59 velocity=55 time=24
note_off channel=12 note=59 velocity=64 time=284
note_on channel=12 note=59 velocity=50 time=36
note_off channel=12 note=59 velocity=64 time=136
note_on channel=12 note=57 velocity=55 time=24
note_off channel=12 note=57 velocity=64 time=120
note_on channel=12 note=56 velocity=55 time=360
note_off channel=12 note=56 velocity=64 time=284
note_on channel=12 note=64 velocity=55 time=36
note_off channel=12 note=64 velocity=64 time=120
note_on channel=12 note=59 velocity=55 time=360
control_change channel=12 control=11 value=127 time=232
control_change channel=12 control=11 value=120 time=24
control_change channel=12 control=11 value=114 time=24
control_change channel=12 control=11 value=108 time=24
control_change channel=12 control=11 value=101 time=24
control_change channel=12 control=11 value=94 time=24
control_change channel=12 control=11 value=96 time=120
control_change channel=12 control=11 value=99 time=120
control_change channel=12 control=11 value=101 time=120
control_change channel=12 control=11 value=104 time=120
control_change channel=12 control=11 value=106 time=120
control_change channel=12 control=11 value=109 time=120
control_change channel=12 control=11 value=111 time=120
control_change channel=12 control=11 value=114 time=120
control_change channel=12 control=11 value=116 time=120
control_change channel=12 control=11 value=119 time=120
control_change channel=12 control=11 value=121 time=120
control_change channel=12 control=11 value=124 time=120
control_change channel=12 control=11 value=127 time=120
note_off channel=12 note=59 velocity=64 time=120
note_on channel=12 note=55 velocity=60 time=368
note_off channel=12 note=55 velocity=64 time=124
note_on channel=12 note=55 velocity=54 time=36
note_off channel=12 note=55 velocity=64 time=120
note_on channel=12 note=58 velocity=56 time=360
note_off channel=12 note=58 velocity=64 time=284
note_on channel=12 note=58 velocity=59 time=36
note_off channel=12 note=58 velocity=64 time=108
note_on channel=12 note=62 velocity=65 time=372
note_off channel=12 note=62 velocity=64 time=592
note_on channel=12 note=62 velocity=60 time=48
note_off channel=12 note=62 velocity=64 time=296
note_on channel=12 note=62 velocity=50 time=24
note_off channel=12 note=62 velocity=64 time=134
note_on channel=12 note=60 velocity=55 time=26
note_off channel=12 note=60 velocity=64 time=284
note_on channel=12 note=62 velocity=55 time=36
note_off channel=12 note=62 velocity=64 time=120
note_on channel=12 note=61 velocity=56 time=360
control_change channel=12 control=11 value=127 time=232
control_change channel=12 control=11 value=120 time=24
control_change channel=12 control=11 value=114 time=24
control_change channel=12 control=11 value=108 time=24
control_change channel=12 control=11 value=101 time=24
control_change channel=12 control=11 value=95 time=24
control_change channel=12 control=11 value=95 time=0
control_change channel=12 control=11 value=96 time=120
control_change channel=12 control=11 value=98 time=120
control_change channel=12 control=11 value=99 time=120
control_change channel=12 control=11 value=100 time=120
control_change channel=12 control=11 value=101 time=120
control_change channel=12 control=11 value=103 time=120
control_change channel=12 control=11 value=104 time=120
control_change channel=12 control=11 value=105 time=120
control_change channel=12 control=11 value=106 time=120
control_change channel=12 control=11 value=108 time=120
control_change channel=12 control=11 value=109 time=120
control_change channel=12 control=11 value=110 time=120
control_change channel=12 control=11 value=111 time=120
control_change channel=12 control=11 value=113 time=120
note_off channel=12 note=61 velocity=64 time=32
note_on channel=12 note=60 velocity=51 time=16
control_change channel=12 control=11 value=114 time=72
control_change channel=12 control=11 value=115 time=120
control_change channel=12 control=11 value=116 time=120
control_change channel=12 control=11 value=118 time=120
control_change channel=12 control=11 value=119 time=120
control_change channel=12 control=11 value=120 time=120
control_change channel=12 control=11 value=121 time=120
control_change channel=12 control=11 value=123 time=120
control_change channel=12 control=11 value=124 time=120
control_change channel=12 control=11 value=125 time=120
control_change channel=12 control=11 value=127 time=48
note_off channel=12 note=60 velocity=64 time=180
note_on channel=12 note=60 velocity=59 time=60
note_off channel=12 note=60 velocity=64 time=284
note_on channel=12 note=59 velocity=60 time=36
note_off channel=12 note=59 velocity=64 time=112
note_on channel=12 note=58 velocity=48 time=1808
control_change channel=12 control=11 value=127 time=232
control_change channel=12 control=11 value=121 time=24
control_change channel=12 control=11 value=115 time=24
control_change channel=12 control=11 value=109 time=24
control_change channel=12 control=11 value=103 time=24
control_change channel=12 control=11 value=96 time=24
control_change channel=12 control=11 value=90 time=24
control_change channel=12 control=11 value=84 time=24
control_change channel=12 control=11 value=84 time=24
control_change channel=12 control=11 value=86 time=120
control_change channel=12 control=11 value=89 time=48
control_change channel=12 control=11 value=93 time=120
control_change channel=12 control=11 value=95 time=120
control_change channel=12 control=11 value=98 time=48
control_change channel=12 control=11 value=101 time=120
control_change channel=12 control=11 value=104 time=96
control_change channel=12 control=11 value=108 time=120
control_change channel=12 control=11 value=111 time=120
control_change channel=12 control=11 value=114 time=72
control_change channel=12 control=11 value=116 time=120
control_change channel=12 control=11 value=119 time=48
control_change channel=12 control=11 value=123 time=120
control_change channel=12 control=11 value=127 time=120
note_off channel=12 note=58 velocity=64 time=80
note_on channel=12 note=57 velocity=60 time=24
note_off channel=12 note=57 velocity=64 time=136
note_on channel=12 note=60 velocity=60 time=1784
control_change channel=12 control=11 value=127 time=232
control_change channel=12 control=11 value=121 time=24
control_change channel=12 control=11 value=115 time=24
control_change channel=12 control=11 value=109 time=24
control_change channel=12 control=11 value=103 time=24
control_change channel=12 control=11 value=96 time=24
control_change channel=12 control=11 value=90 time=24
control_change channel=12 control=11 value=84 time=24
control_change channel=12 control=11 value=84 time=24
control_change channel=12 control=11 value=86 time=120
control_change channel=12 control=11 value=89 time=48
control_change channel=12 control=11 value=93 time=120
control_change channel=12 control=11 value=95 time=120
control_change channel=12 control=11 value=98 time=48
control_change channel=12 control=11 value=101 time=120
control_change channel=12 control=11 value=104 time=96
control_change channel=12 control=11 value=108 time=120
control_change channel=12 control=11 value=111 time=120
control_change channel=12 control=11 value=114 time=72
control_change channel=12 control=11 value=116 time=120
control_change channel=12 control=11 value=119 time=48
control_change channel=12 control=11 value=123 time=120
control_change channel=12 control=11 value=127 time=120
note_off channel=12 note=60 velocity=64 time=80
note_on channel=12 note=59 velocity=60 time=24
note_off channel=12 note=59 velocity=64 time=136
note_on channel=12 note=58 velocity=60 time=1784
control_change channel=12 control=11 value=127 time=232
control_change channel=12 control=11 value=121 time=24
control_change channel=12 control=11 value=115 time=24
control_change channel=12 control=11 value=109 time=24
control_change channel=12 control=11 value=103 time=24
control_change channel=12 control=11 value=96 time=24
control_change channel=12 control=11 value=90 time=24
control_change channel=12 control=11 value=84 time=24
control_change channel=12 control=11 value=84 time=24
control_change channel=12 control=11 value=86 time=120
control_change channel=12 control=11 value=89 time=48
control_change channel=12 control=11 value=93 time=120
control_change channel=12 control=11 value=95 time=120
control_change channel=12 control=11 value=98 time=48
control_change channel=12 control=11 value=101 time=120
control_change channel=12 control=11 value=104 time=96
control_change channel=12 control=11 value=108 time=120
control_change channel=12 control=11 value=111 time=120
control_change channel=12 control=11 value=114 time=72
control_change channel=12 control=11 value=116 time=120
control_change channel=12 control=11 value=119 time=48
control_change channel=12 control=11 value=123 time=120
control_change channel=12 control=11 value=127 time=120
note_off channel=12 note=58 velocity=64 time=80
control_change channel=12 control=93 value=60 time=184
note_on channel=12 note=62 velocity=75 time=320
note_off channel=12 note=62 velocity=64 time=580
note_on channel=12 note=60 velocity=75 time=60
note_off channel=12 note=60 velocity=64 time=144
note_on channel=12 note=55 velocity=75 time=336
note_off channel=12 note=55 velocity=64 time=144
note_on channel=12 note=59 velocity=75 time=336
note_off channel=12 note=59 velocity=64 time=444
note_on channel=12 note=60 velocity=75 time=36
note_off channel=12 note=60 velocity=64 time=284
note_on channel=12 note=62 velocity=75 time=36
note_off channel=12 note=62 velocity=64 time=124
note_on channel=12 note=60 velocity=75 time=380
note_off channel=12 note=60 velocity=64 time=556
control_change channel=12 control=93 value=30 time=60
note_on channel=12 note=53 velocity=62 time=320
note_off channel=12 note=53 velocity=64 time=136
note_on channel=12 note=61 velocity=69 time=24
note_off channel=12 note=61 velocity=64 time=144
note_on channel=12 note=62 velocity=75 time=336
note_off channel=12 note=62 velocity=64 time=296
note_on channel=12 note=65 velocity=62 time=24
note_off channel=12 note=65 velocity=64 time=136
note_on channel=12 note=67 velocity=72 time=24
note_off channel=12 note=67 velocity=64 time=296
note_on channel=12 note=68 velocity=81 time=24
note_off channel=12 note=68 velocity=64 time=604
note_on channel=12 note=67 velocity=71 time=36
note_off channel=12 note=67 velocity=64 time=308
note_on channel=12 note=65 velocity=77 time=12
control_change channel=12 control=11 value=127 time=16
control_change channel=12 control=11 value=125 time=120
control_change channel=12 control=11 value=123 time=120
control_change channel=12 control=11 value=121 time=120
control_change channel=12 control=11 value=119 time=120
control_change channel=12 control=11 value=118 time=120
control_change channel=12 control=11 value=115 time=96
control_change channel=12 control=11 value=114 time=120
control_change channel=12 control=11 value=111 time=120
note_off channel=12 note=65 velocity=64 time=120
control_change channel=12 control=11 value=110 time=0
control_change channel=12 control=11 value=109 time=24
control_change channel=12 control=11 value=127 time=24
note_on channel=12 note=57 velocity=62 time=320
note_off channel=12 note=57 velocity=64 time=136
note_on channel=12 note=56 velocity=69 time=24
note_off channel=12 note=56 velocity=64 time=144
note_on channel=12 note=57 velocity=76 time=336
note_off channel=12 note=57 velocity=64 time=296
note_on channel=12 note=60 velocity=62 time=24
note_off channel=12 note=60 velocity=64 time=136
note_on channel=12 note=62 velocity=72 time=24
note_off channel=12 note=62 velocity=64 time=296
note_on channel=12 note=63 velocity=81 time=24
note_off channel=12 note=63 velocity=64 time=604
note_on channel=12 note=62 velocity=72 time=36
note_off channel=12 note=62 velocity=64 time=308
note_on channel=12 note=60 velocity=77 time=12
control_change channel=12 control=11 value=127 time=16
control_change channel=12 control=11 value=125 time=120
control_change channel=12 control=11 value=123 time=120
control_change channel=12 control=11 value=121 time=120
control_change channel=12 control=11 value=119 time=120
control_change channel=12 control=11 value=118 time=120
control_change channel=12 control=11 value=115 time=96
control_change channel=12 control=11 value=114 time=120
control_change channel=12 control=11 value=111 time=120
note_off channel=12 note=60 velocity=64 time=120
control_change channel=12 control=11 value=110 time=0
control_change channel=12 control=11 value=109 time=24
control_change channel=12 control=11 value=127 time=24
note_on channel=12 note=58 velocity=62 time=1760
control_change channel=12 control=11 value=127 time=232
control_change channel=12 control=11 value=121 time=24
control_change channel=12 control=11 value=115 time=24
control_change channel=12 control=11 value=109 time=24
control_change channel=12 control=11 value=103 time=24
control_change channel=12 control=11 value=96 time=24
control_change channel=12 control=11 value=90 time=24
control_change channel=12 control=11 value=84 time=24
control_change channel=12 control=11 value=88 time=96
control_change channel=12 control=11 value=91 time=96
control_change channel=12 control=11 value=94 time=72
control_change channel=12 control=11 value=98 time=96
control_change channel=12 control=11 value=101 time=96
control_change channel=12 control=11 value=104 time=48
control_change channel=12 control=11 value=108 time=96
control_change channel=12 control=11 value=111 time=96
control_change channel=12 control=11 value=114 time=72
control_change channel=12 control=11 value=118 time=72
control_change channel=12 control=11 value=121 time=96
control_change channel=12 control=11 value=124 time=72
control_change channel=12 control=11 value=127 time=48
note_off channel=12 note=58 velocity=64 time=104
note_on channel=12 note=58 velocity=62 time=40
note_off channel=12 note=58 velocity=64 time=296
note_on channel=12 note=57 velocity=62 time=24
note_off channel=12 note=57 velocity=64 time=136
note_on channel=12 note=60 velocity=69 time=3224
note_off channel=12 note=60 velocity=64 time=580
note_on channel=12 note=59 velocity=69 time=60
note_off channel=12 note=59 velocity=64 time=144
note_on channel=12 note=59 velocity=69 time=336
note_off channel=12 note=59 velocity=64 time=296
note_on channel=12 note=59 velocity=69 time=24
note_off channel=12 note=59 velocity=64 time=136
note_on channel=12 note=59 velocity=62 time=24
note_off channel=12 note=59 velocity=64 time=56
note_on channel=12 note=59 velocity=69 time=24
note_off channel=12 note=59 velocity=64 time=68
note_on channel=12 note=59 velocity=69 time=332
note_off channel=12 note=59 velocity=64 time=308
control_change channel=12 control=11 value=104 time=12
note_on channel=12 note=58 velocity=75 time=0
control_change channel=12 control=11 value=105 time=100
control_change channel=12 control=11 value=108 time=80
control_change channel=12 control=11 value=109 time=100
control_change channel=12 control=11 value=111 time=100
control_change channel=12 control=11 value=114 time=90
control_change channel=12 control=11 value=115 time=100
control_change channel=12 control=11 value=118 time=70
control_change channel=12 control=11 value=119 time=100
control_change channel=12 control=11 value=121 time=100
control_change channel=12 control=11 value=124 time=90
control_change channel=12 control=11 value=125 time=100
control_change channel=12 control=11 value=127 time=10
note_off channel=12 note=58 velocity=64 time=80
note_on channel=12 note=58 velocity=76 time=320
note_on channel=12 note=57 velocity=40 time=112
note_on channel=12 note=56 velocity=28 time=40
note_off channel=12 note=58 velocity=64 time=4
note_off channel=12 note=57 velocity=64 time=8
note_on channel=12 note=55 velocity=17 time=28
note_off channel=12 note=56 velocity=64 time=12
note_off channel=12 note=55 velocity=64 time=40
note_on channel=12 note=57 velocity=75 time=236
note_off channel=12 note=57 velocity=64 time=592
note_on channel=12 note=57 velocity=69 time=48
note_off channel=12 note=57 velocity=64 time=296
note_on channel=12 note=57 velocity=57 time=24
note_off channel=12 note=57 velocity=64 time=136
note_on channel=12 note=60 velocity=69 time=24
note_off channel=12 note=60 velocity=64 time=284
note_on channel=12 note=60 velocity=69 time=36
note_off channel=12 note=60 velocity=64 time=156
note_on channel=12 note=60 velocity=69 time=324
control_change channel=12 control=11 value=127 time=160
control_change channel=12 control=11 value=125 time=120
control_change channel=12 control=11 value=123 time=120
control_change channel=12 control=11 value=121 time=120
control_change channel=12 control=11 value=119 time=120
control_change channel=12 control=11 value=118 time=120
control_change channel=12 control=11 value=115 time=120
control_change channel=12 control=11 value=114 time=120
control_change channel=12 control=11 value=111 time=120
control_change channel=12 control=11 value=110 time=120
control_change channel=12 control=11 value=108 time=120
control_change channel=12 control=11 value=106 time=120
control_change channel=12 control=11 value=104 time=120
control_change channel=12 control=11 value=103 time=120
control_change channel=12 control=11 value=100 time=120
control_change channel=12 control=11 value=99 time=120
note_off channel=12 note=60 velocity=64 time=60
control_change channel=12 control=11 value=96 time=36
control_change channel=12 control=11 value=127 time=24
note_on channel=12 note=59 velocity=75 time=320
note_on channel=12 note=58 velocity=30 time=112
note_on channel=12 note=57 velocity=20 time=40
note_off channel=12 note=59 velocity=64 time=4
note_off channel=12 note=58 velocity=64 time=8
note_off channel=12 note=57 velocity=64 time=40
note_on channel=12 note=59 velocity=75 time=276
note_off channel=12 note=59 velocity=64 time=580
note_on channel=12 note=59 velocity=75 time=60
note_off channel=12 note=59 velocity=64 time=168
note_on channel=12 note=58 velocity=74 time=632
note_on channel=12 note=57 velocity=32 time=112
note_on channel=12 note=56 velocity=23 time=40
note_off channel=12 note=58 velocity=64 time=4
note_off channel=12 note=57 velocity=64 time=8
note_off channel=12 note=56 velocity=64 time=40
note_on channel=12 note=58 velocity=75 time=276
note_off channel=12 note=58 velocity=64 time=580
note_on channel=12 note=58 velocity=75 time=60
note_off channel=12 note=58 velocity=64 time=168
note_on channel=12 note=58 velocity=69 time=632
note_off channel=12 note=58 velocity=64 time=444
note_on channel=12 note=58 velocity=71 time=36
note_off channel=12 note=58 velocity=64 time=444
note_on channel=12 note=60 velocity=74 time=36
note_off channel=12 note=60 velocity=64 time=444
note_on channel=12 note=58 velocity=66 time=36
note_off channel=12 note=58 velocity=64 time=136
note_on channel=12 note=62 velocity=79 time=24
note_off channel=12 note=62 velocity=64 time=148
note_on channel=12 note=58 velocity=65 time=12
note_off channel=12 note=58 velocity=64 time=148
note_on channel=12 note=65 velocity=80 time=12
note_off channel=12 note=65 velocity=64 time=924
note_on channel=12 note=57 velocity=75 time=36
note_off channel=12 note=57 velocity=64 time=604
note_on channel=12 note=55 velocity=69 time=36
note_off channel=12 note=55 velocity=64 time=284
note_on channel=12 note=55 velocity=70 time=36
note_off channel=12 note=55 velocity=64 time=124
note_on channel=12 note=60 velocity=81 time=12516
note_off channel=12 note=60 velocity=64 time=168
note_on channel=12 note=63 velocity=71 time=312
note_off channel=12 note=63 velocity=64 time=308
control_change channel=12 control=11 value=109 time=12
note_on channel=12 note=65 velocity=82 time=0
control_change channel=12 control=11 value=110 time=120
control_change channel=12 control=11 value=111 time=110
control_change channel=12 control=11 value=113 time=110
control_change channel=12 control=11 value=114 time=110
control_change channel=12 control=11 value=115 time=110
control_change channel=12 control=11 value=116 time=110
control_change channel=12 control=11 value=118 time=110
control_change channel=12 control=11 value=119 time=120
control_change channel=12 control=11 value=120 time=110
control_change channel=12 control=11 value=121 time=110
control_change channel=12 control=11 value=123 time=110
control_change channel=12 control=11 value=124 time=110
control_change channel=12 control=11 value=125 time=110
note_off channel=12 note=65 velocity=64 time=102
control_change channel=12 control=11 value=127 time=8
note_on channel=12 note=65 velocity=81 time=360
note_off channel=12 note=65 velocity=64 time=604
note_on channel=12 note=64 velocity=81 time=36
note_off channel=12 note=64 velocity=64 time=296
note_on channel=12 note=62 velocity=81 time=24
note_off channel=12 note=62 velocity=64 time=136
note_on channel=12 note=62 velocity=81 time=824
note_off channel=12 note=62 velocity=64 time=604
note_on channel=12 note=58 velocity=81 time=36
note_off channel=12 note=58 velocity=64 time=296
note_on channel=12 note=58 velocity=81 time=24
note_off channel=12 note=58 velocity=64 time=136
note_on channel=12 note=67 velocity=81 time=824
note_off channel=12 note=67 velocity=64 time=604
note_on channel=12 note=61 velocity=81 time=36
note_off channel=12 note=61 velocity=64 time=296
note_on channel=12 note=62 velocity=81 time=24
note_off channel=12 note=62 velocity=64 time=136
note_on channel=12 note=64 velocity=81 time=824
note_off channel=12 note=64 velocity=64 time=604
note_on channel=12 note=60 velocity=81 time=36
note_off channel=12 note=60 velocity=64 time=296
note_on channel=12 note=60 velocity=81 time=24
note_off channel=12 note=60 velocity=64 time=136
note_on channel=12 note=65 velocity=81 time=824
note_off channel=12 note=65 velocity=64 time=580
note_on channel=12 note=65 velocity=81 time=60
note_off channel=12 note=65 velocity=64 time=168
note_on channel=12 note=65 velocity=81 time=312
note_off channel=12 note=65 velocity=64 time=168
note_on channel=12 note=65 velocity=81 time=312
note_off channel=12 note=65 velocity=64 time=296
note_on channel=12 note=67 velocity=69 time=24
note_off channel=12 note=67 velocity=64 time=148
note_on channel=12 note=65 velocity=81 time=12
note_off channel=12 note=65 velocity=64 time=311
note_on channel=12 note=64 velocity=81 time=9
pitchwheel channel=12 pitch=0 time=16
control_change channel=12 control=11 value=127 time=0
pitchwheel channel=12 pitch=242 time=24
control_change channel=12 control=11 value=124 time=72
control_change channel=12 control=11 value=121 time=96
pitchwheel channel=12 pitch=0 time=72
control_change channel=12 control=11 value=119 time=48
control_change channel=12 control=11 value=116 time=48
pitchwheel channel=12 pitch=-82 time=96
control_change channel=12 control=11 value=114 time=24
control_change channel=12 control=11 value=111 time=72
pitchwheel channel=12 pitch=-244 time=24
pitchwheel channel=12 pitch=-407 time=96
control_change channel=12 control=11 value=109 time=0
control_change channel=12 control=11 value=106 time=48
pitchwheel channel=12 pitch=-569 time=24
pitchwheel channel=12 pitch=-731 time=72
control_change channel=12 control=11 value=104 time=24
pitchwheel channel=12 pitch=-893 time=24
pitchwheel channel=12 pitch=-1055 time=48
control_change channel=12 control=11 value=101 time=0
pitchwheel channel=12 pitch=-1218 time=48
pitchwheel channel=12 pitch=-1380 time=24
pitchwheel channel=12 pitch=-1542 time=24
pitchwheel channel=12 pitch=-1704 time=24
control_change channel=12 control=11 value=99 time=0
note_off channel=12 note=64 velocity=64 time=24
pitchwheel channel=12 pitch=-2029 time=0
control_change channel=12 control=11 value=127 time=24
control_change channel=12 control=11 value=96 time=0
control_change channel=12 control=11 value=127 time=24
pitchwheel channel=12 pitch=0 time=0
note_on channel=12 note=63 velocity=81 time=320
note_on channel=12 note=62 velocity=30 time=112
note_on channel=12 note=61 velocity=20 time=40
note_off channel=12 note=63 velocity=64 time=8
note_off channel=12 note=62 velocity=64 time=4
note_off channel=12 note=61 velocity=64 time=40
note_on channel=12 note=63 velocity=81 time=436
note_off channel=12 note=63 velocity=64 time=168
note_on channel=12 note=63 velocity=81 time=312
note_off channel=12 note=63 velocity=64 time=168
note_on channel=12 note=65 velocity=81 time=792
note_off channel=12 note=65 velocity=64 time=296
note_on channel=12 note=65 velocity=81 time=24
note_off channel=12 note=65 velocity=64 time=192
note_on channel=12 note=63 velocity=69 time=288
note_off channel=12 note=63 velocity=64 time=148
note_on channel=12 note=65 velocity=81 time=12
note_off channel=12 note=65 velocity=64 time=308
note_on channel=12 note=65 velocity=75 time=12
note_off channel=12 note=65 velocity=64 time=136
note_on channel=12 note=65 velocity=81 time=24
note_off channel=12 note=65 velocity=64 time=296
note_on channel=12 note=62 velocity=81 time=24
note_off channel=12 note=62 velocity=64 time=136
note_on channel=12 note=62 velocity=81 time=1944
note_off channel=12 note=62 velocity=64 time=168
note_on channel=12 note=62 velocity=81 time=312
note_off channel=12 note=62 velocity=64 time=296
note_on channel=12 note=62 velocity=81 time=24
note_off channel=12 note=62 velocity=64 time=180
note_on channel=12 note=67 velocity=81 time=300
note_on channel=12 note=69 velocity=59 time=1440
note_off channel=12 note=67 velocity=64 time=16
note_on channel=12 note=68 velocity=70 time=64
note_off channel=12 note=69 velocity=64 time=24
note_on channel=12 note=67 velocity=81 time=56
note_off channel=12 note=68 velocity=64 time=24
note_off channel=12 note=67 velocity=64 time=284
note_on channel=12 note=60 velocity=81 time=12
pitchwheel channel=12 pitch=0 time=160
control_change channel=12 control=11 value=127 time=0
pitchwheel channel=12 pitch=242 time=12
control_change channel=12 control=11 value=124 time=72
control_change channel=12 control=11 value=121 time=72
pitchwheel channel=12 pitch=0 time=48
control_change channel=12 control=11 value=119 time=60
control_change channel=12 control=11 value=116 time=48
pitchwheel channel=12 pitch=-82 time=36
control_change channel=12 control=11 value=114 time=72
pitchwheel channel=12 pitch=-244 time=24
control_change channel=12 control=11 value=111 time=24
pitchwheel channel=12 pitch=-407 time=48
pitchwheel channel=12 pitch=-569 time=60
control_change channel=12 control=11 value=109 time=0
control_change channel=12 control=11 value=106 time=48
pitchwheel channel=12 pitch=-731 time=12
pitchwheel channel=12 pitch=-893 time=36
pitchwheel channel=12 pitch=-1055 time=48
control_change channel=12 control=11 value=104 time=12
pitchwheel channel=12 pitch=-1218 time=24
pitchwheel channel=12 pitch=-1380 time=24
control_change channel=12 control=11 value=101 time=0
pitchwheel channel=12 pitch=-1542 time=36
pitchwheel channel=12 pitch=-1704 time=24
pitchwheel channel=12 pitch=-1866 time=12
pitchwheel channel=12 pitch=-2029 time=24
pitchwheel channel=12 pitch=-2191 time=12
control_change channel=12 control=11 value=99 time=0
pitchwheel channel=12 pitch=-2353 time=12
note_off channel=12 note=60 velocity=64 time=12
pitchwheel channel=12 pitch=-2515 time=0
pitchwheel channel=12 pitch=-2840 time=12
control_change channel=12 control=11 value=96 time=12
control_change channel=12 control=11 value=127 time=24
pitchwheel channel=12 pitch=0 time=0
note_on channel=12 note=62 velocity=81 time=1280
note_off channel=12 note=62 velocity=64 time=604
note_on channel=12 note=66 velocity=81 time=36
note_off channel=12 note=66 velocity=64 time=180
note_on channel=12 note=66 velocity=81 time=300
note_off channel=12 note=66 velocity=64 time=296
note_on channel=12 note=65 velocity=81 time=24
note_off channel=12 note=65 velocity=64 time=136
note_on channel=12 note=65 velocity=81 time=344
note_off channel=12 note=65 velocity=64 time=180
note_on channel=12 note=65 velocity=75 time=300
note_off channel=12 note=65 velocity=64 time=148
note_on channel=12 note=62 velocity=81 time=12
note_off channel=12 note=62 velocity=64 time=456
note_on channel=12 note=64 velocity=81 time=24
note_off channel=12 note=64 velocity=64 time=156
note_on channel=12 note=67 velocity=88 time=804
note_off channel=12 note=67 velocity=64 time=912
note_on channel=12 note=67 velocity=81 time=48
note_off channel=12 note=67 velocity=64 time=180
control_change channel=12 control=11 value=104 time=300
note_on channel=12 note=65 velocity=88 time=0
control_change channel=12 control=11 value=106 time=108
control_change channel=12 control=11 value=109 time=108
note_off channel=12 note=65 velocity=64 time=92
note_on channel=12 note=65 velocity=88 time=12
control_change channel=12 control=11 value=111 time=4
control_change channel=12 control=11 value=114 time=108
control_change channel=12 control=11 value=116 time=108
control_change channel=12 control=11 value=119 time=108
control_change channel=12 control=11 value=121 time=108
control_change channel=12 control=11 value=124 time=108
note_off channel=12 note=65 velocity=64 time=60
control_change channel=12 control=11 value=127 time=36
control_change channel=12 control=11 value=127 time=0
note_on channel=12 note=64 velocity=88 time=0
control_change channel=12 control=11 value=124 time=84
control_change channel=12 control=11 value=121 time=84
control_change channel=12 control=11 value=119 time=108
note_off channel=12 note=64 velocity=64 time=32
note_on channel=12 note=60 velocity=88 time=12
control_change channel=12 control=11 value=116 time=4
control_change channel=12 control=11 value=114 time=108
control_change channel=12 control=11 value=111 time=48
control_change channel=12 control=11 value=109 time=108
control_change channel=12 control=11 value=106 time=60
control_change channel=12 control=11 value=104 time=108
control_change channel=12 control=11 value=101 time=48
note_off channel=12 note=60 velocity=64 time=108
control_change channel=12 control=11 value=99 time=0
control_change channel=12 control=11 value=127 time=48
control_change channel=12 control=11 value=96 time=0
control_change channel=12 control=11 value=127 time=12
note_on channel=12 note=58 velocity=60 time=1748
control_change channel=12 control=11 value=127 time=232
control_change channel=12 control=11 value=121 time=24
control_change channel=12 control=11 value=115 time=24
control_change channel=12 control=11 value=109 time=24
control_change channel=12 control=11 value=103 time=24
control_change channel=12 control=11 value=96 time=24
control_change channel=12 control=11 value=90 time=24
control_change channel=12 control=11 value=84 time=24
control_change channel=12 control=11 value=84 time=24
control_change channel=12 control=11 value=86 time=120
control_change channel=12 control=11 value=89 time=48
control_change channel=12 control=11 value=93 time=120
control_change channel=12 control=11 value=95 time=120
control_change channel=12 control=11 value=98 time=48
control_change channel=12 control=11 value=101 time=120
control_change channel=12 control=11 value=104 time=96
control_change channel=12 control=11 value=108 time=120
control_change channel=12 control=11 value=111 time=120
control_change channel=12 control=11 value=114 time=72
control_change channel=12 control=11 value=116 time=120
control_change channel=12 control=11 value=119 time=48
control_change channel=12 control=11 value=123 time=120
control_change channel=12 control=11 value=127 time=120
note_off channel=12 note=58 velocity=64 time=80
note_on channel=12 note=57 velocity=60 time=24
note_off channel=12 note=57 velocity=64 time=136
note_on channel=12 note=60 velocity=60 time=1784
control_change channel=12 control=11 value=127 time=232
control_change channel=12 control=11 value=121 time=24
control_change channel=12 control=11 value=115 time=24
control_change channel=12 control=11 value=109 time=24
control_change channel=12 control=11 value=103 time=24
control_change channel=12 control=11 value=96 time=24
control_change channel=12 control=11 value=90 time=24
control_change channel=12 control=11 value=84 time=24
control_change channel=12 control=11 value=84 time=24
control_change channel=12 control=11 value=86 time=120
control_change channel=12 control=11 value=89 time=48
control_change channel=12 control=11 value=93 time=120
control_change channel=12 control=11 value=95 time=120
control_change channel=12 control=11 value=98 time=48
control_change channel=12 control=11 value=101 time=120
control_change channel=12 control=11 value=104 time=96
control_change channel=12 control=11 value=108 time=120
control_change channel=12 control=11 value=111 time=120
control_change channel=12 control=11 value=114 time=72
control_change channel=12 control=11 value=116 time=120
control_change channel=12 control=11 value=119 time=48
control_change channel=12 control=11 value=123 time=120
control_change channel=12 control=11 value=127 time=120
note_off channel=12 note=60 velocity=64 time=80
note_on channel=12 note=59 velocity=60 time=24
note_off channel=12 note=59 velocity=64 time=136
note_on channel=12 note=58 velocity=60 time=1784
control_change channel=12 control=11 value=127 time=232
control_change channel=12 control=11 value=121 time=24
control_change channel=12 control=11 value=115 time=24
control_change channel=12 control=11 value=109 time=24
control_change channel=12 control=11 value=103 time=24
control_change channel=12 control=11 value=96 time=24
control_change channel=12 control=11 value=90 time=24
control_change channel=12 control=11 value=84 time=24
control_change channel=12 control=11 value=84 time=24
control_change channel=12 control=11 value=86 time=120
control_change channel=12 control=11 value=89 time=48
control_change channel=12 control=11 value=93 time=120
control_change channel=12 control=11 value=95 time=120
control_change channel=12 control=11 value=98 time=48
control_change channel=12 control=11 value=101 time=120
control_change channel=12 control=11 value=104 time=96
control_change channel=12 control=11 value=108 time=120
control_change channel=12 control=11 value=111 time=120
control_change channel=12 control=11 value=114 time=72
control_change channel=12 control=11 value=116 time=120
control_change channel=12 control=11 value=119 time=48
control_change channel=12 control=11 value=123 time=120
control_change channel=12 control=11 value=127 time=120
note_off channel=12 note=58 velocity=64 time=80
control_change channel=12 control=93 value=60 time=184
note_on channel=12 note=62 velocity=75 time=320
note_off channel=12 note=62 velocity=64 time=580
note_on channel=12 note=60 velocity=75 time=60
note_off channel=12 note=60 velocity=64 time=144
note_on channel=12 note=55 velocity=75 time=336
note_off channel=12 note=55 velocity=64 time=144
note_on channel=12 note=59 velocity=75 time=336
note_off channel=12 note=59 velocity=64 time=444
note_on channel=12 note=58 velocity=75 time=36
note_off channel=12 note=58 velocity=64 time=284
note_on channel=12 note=57 velocity=75 time=36
note_off channel=12 note=57 velocity=64 time=124
control_change channel=12 control=93 value=30 time=36
note_on channel=12 note=62 velocity=81 time=1280
note_off channel=12 note=62 velocity=64 time=168
note_on channel=12 note=64 velocity=81 time=312
note_off channel=12 note=64 velocity=64 time=136
note_on channel=12 note=65 velocity=81 time=24
note_off channel=12 note=65 velocity=64 time=168
note_on channel=12 note=65 velocity=81 time=312
note_off channel=12 note=65 velocity=64 time=168
control_change channel=12 control=93 value=30 time=312
note_on channel=12 note=65 velocity=81 time=0
note_off channel=12 note=65 velocity=64 time=444
note_on channel=12 note=65 velocity=81 time=36
note_off channel=12 note=65 velocity=64 time=296
note_on channel=12 note=65 velocity=81 time=24
note_off channel=12 note=65 velocity=64 time=136
note_on channel=12 note=60 velocity=81 time=824
note_off channel=12 note=60 velocity=64 time=604
note_on channel=12 note=62 velocity=81 time=36
note_off channel=12 note=62 velocity=64 time=296
note_on channel=12 note=60 velocity=69 time=24
note_off channel=12 note=60 velocity=64 time=136
note_on channel=12 note=65 velocity=81 time=24
note_off channel=12 note=65 velocity=64 time=284
note_on channel=12 note=67 velocity=81 time=36
note_off channel=12 note=67 velocity=64 time=168
note_on channel=12 note=67 velocity=81 time=312
note_off channel=12 note=67 velocity=64 time=604
note_on channel=12 note=67 velocity=81 time=36
note_off channel=12 note=67 velocity=64 time=296
note_on channel=12 note=66 velocity=81 time=24
note_off channel=12 note=66 velocity=64 time=124
note_on channel=12 note=63 velocity=81 time=1316
note_off channel=12 note=63 velocity=64 time=568
note_on channel=12 note=64 velocity=81 time=72
note_off channel=12 note=64 velocity=64 time=156
note_on channel=12 note=62 velocity=81 time=324
note_off channel=12 note=62 velocity=64 time=156
note_on channel=12 note=63 velocity=81 time=324
note_off channel=12 note=63 velocity=64 time=782
note_on channel=12 note=64 velocity=81 time=18
note_off channel=12 note=64 velocity=64 time=1060
note_on channel=12 note=68 velocity=81 time=380
note_off channel=12 note=68 velocity=64 time=580
note_on channel=12 note=69 velocity=81 time=60
note_off channel=12 note=69 velocity=64 time=168
note_on channel=12 note=62 velocity=81 time=312
note_off channel=12 note=62 velocity=64 time=168
note_on channel=12 note=68 velocity=81 time=312
note_off channel=12 note=68 velocity=64 time=782
note_on channel=12 note=69 velocity=81 time=18
note_off channel=12 note=69 velocity=64 time=1060
note_on channel=12 note=60 velocity=56 time=5820
note_off channel=12 note=60 velocity=64 time=80
note_on channel=12 note=60 velocity=62 time=0
note_off channel=12 note=60 velocity=64 time=80
note_on channel=12 note=57 velocity=45 time=640
control_change channel=12 control=11 value=127 time=1120
control_change channel=12 control=11 value=125 time=120
control_change channel=12 control=11 value=124 time=120
control_change channel=12 control=11 value=123 time=120
control_change channel=12 control=11 value=121 time=120
control_change channel=12 control=11 value=120 time=120
control_change channel=12 control=11 value=119 time=120
control_change channel=12 control=11 value=118 time=120
control_change channel=12 control=11 value=116 time=120
control_change channel=12 control=11 value=115 time=120
control_change channel=12 control=11 value=114 time=120
control_change channel=12 control=11 value=113 time=120
control_change channel=12 control=11 value=111 time=120
control_change channel=12 control=11 value=110 time=120
control_change channel=12 control=11 value=109 time=120
control_change channel=12 control=11 value=108 time=120
control_change channel=12 control=11 value=106 time=120
control_change channel=12 control=11 value=105 time=120
control_change channel=12 control=11 value=104 time=120
control_change channel=12 control=11 value=103 time=120
control_change channel=12 control=11 value=101 time=120
control_change channel=12 control=11 value=100 time=120
control_change channel=12 control=11 value=99 time=120
control_change channel=12 control=11 value=98 time=120
note_off channel=12 note=57 velocity=64 time=96
<meta message end_of_track time=0>
<meta message text text='Trombone 2' time=0>
control_change channel=13 control=11 value=127 time=0
control_change channel=13 control=7 value=106 time=0
control_change channel=13 control=10 value=89 time=0
control_change channel=13 control=91 value=89 time=0
control_change channel=13 control=93 value=25 time=0
control_change channel=13 control=0 value=56 time=0
control_change channel=13 control=32 value=0 time=0
program_change channel=13 program=57 time=0
note_on channel=13 note=63 velocity=62 time=9920
note_off channel=13 note=63 velocity=64 time=580
note_on channel=13 note=64 velocity=64 time=60
note_off channel=13 note=64 velocity=64 time=168
note_on channel=13 note=63 velocity=67 time=792
note_off channel=13 note=63 velocity=64 time=764
note_on channel=13 note=64 velocity=70 time=36
note_off channel=13 note=64 velocity=64 time=1072
note_on channel=13 note=59 velocity=75 time=368
note_off channel=13 note=59 velocity=64 time=580
note_on channel=13 note=59 velocity=77 time=60
note_off channel=13 note=59 velocity=64 time=168
note_on channel=13 note=59 velocity=79 time=312
note_off channel=13 note=59 velocity=64 time=168
note_on channel=13 note=58 velocity=81 time=312
note_off channel=13 note=58 velocity=64 time=764
note_on channel=13 note=58 velocity=84 time=36
note_off channel=13 note=58 velocity=64 time=592
note_on channel=13 note=58 velocity=86 time=48
note_off channel=13 note=58 velocity=64 time=272
note_on channel=13 note=60 velocity=86 time=48
note_off channel=13 note=60 velocity=64 time=124
note_on channel=13 note=55 velocity=45 time=19556
note_off channel=13 note=55 velocity=64 time=124
note_on channel=13 note=57 velocity=50 time=36
note_off channel=13 note=57 velocity=64 time=132
note_on channel=13 note=58 velocity=45 time=348
note_off channel=13 note=58 velocity=64 time=294
control_change channel=13 control=11 value=109 time=26
note_on channel=13 note=62 velocity=52 time=0
control_change channel=13 control=11 value=110 time=100
control_change channel=13 control=11 value=111 time=100
control_change channel=13 control=11 value=113 time=100
control_change channel=13 control=11 value=114 time=100
control_change channel=13 control=11 value=115 time=100
control_change channel=13 control=11 value=116 time=100
control_change channel=13 control=11 value=118 time=100
control_change channel=13 control=11 value=119 time=100
control_change channel=13 control=11 value=120 time=100
control_change channel=13 control=11 value=121 time=100
control_change channel=13 control=11 value=123 time=100
control_change channel=13 control=11 value=124 time=100
control_change channel=13 control=11 value=125 time=100
control_change channel=13 control=11 value=127 time=60
note_off channel=13 note=62 velocity=64 time=44
note_on channel=13 note=58 velocity=55 time=36
note_off channel=13 note=58 velocity=64 time=112
note_on channel=13 note=58 velocity=50 time=368
note_off channel=13 note=58 velocity=64 time=144
note_on channel=13 note=58 velocity=45 time=336
note_off channel=13 note=58 velocity=64 time=136
note_on channel=13 note=52 velocity=50 time=24
note_off channel=13 note=52 velocity=64 time=284
note_on channel=13 note=52 velocity=45 time=36
note_off channel=13 note=52 velocity=64 time=136
note_on channel=13 note=52 velocity=50 time=24
note_off channel=13 note=52 velocity=64 time=120
note_on channel=13 note=52 velocity=50 time=360
note_off channel=13 note=52 velocity=64 time=284
note_on channel=13 note=60 velocity=50 time=36
note_off channel=13 note=60 velocity=64 time=120
note_on channel=13 note=56 velocity=50 time=360
control_change channel=13 control=11 value=127 time=232
control_change channel=13 control=11 value=120 time=24
control_change channel=13 control=11 value=114 time=24
control_change channel=13 control=11 value=108 time=24
control_change channel=13 control=11 value=101 time=24
control_change channel=13 control=11 value=94 time=24
control_change channel=13 control=11 value=96 time=120
control_change channel=13 control=11 value=99 time=120
control_change channel=13 control=11 value=101 time=120
control_change channel=13 control=11 value=104 time=120
control_change channel=13 control=11 value=106 time=120
control_change channel=13 control=11 value=109 time=120
control_change channel=13 control=11 value=111 time=120
control_change channel=13 control=11 value=114 time=120
control_change channel=13 control=11 value=116 time=120
control_change channel=13 control=11 value=119 time=120
control_change channel=13 control=11 value=121 time=120
control_change channel=13 control=11 value=124 time=120
control_change channel=13 control=11 value=127 time=120
note_off channel=13 note=56 velocity=64 time=120
note_on channel=13 note=50 velocity=55 time=368
note_off channel=13 note=50 velocity=64 time=124
note_on channel=13 note=50 velocity=50 time=36
note_off channel=13 note=50 velocity=64 time=120
note_on channel=13 note=54 velocity=52 time=360
note_off channel=13 note=54 velocity=64 time=284
note_on channel=13 note=54 velocity=55 time=36
note_off channel=13 note=54 velocity=64 time=108
note_on channel=13 note=58 velocity=60 time=372
note_off channel=13 note=58 velocity=64 time=592
note_on channel=13 note=58 velocity=55 time=48
note_off channel=13 note=58 velocity=64 time=296
note_on channel=13 note=58 velocity=45 time=24
note_off channel=13 note=58 velocity=64 time=134
note_on channel=13 note=55 velocity=50 time=26
note_off channel=13 note=55 velocity=64 time=284
note_on channel=13 note=55 velocity=50 time=36
note_off channel=13 note=55 velocity=64 time=120
note_on channel=13 note=55 velocity=50 time=360
control_change channel=13 control=11 value=127 time=232
control_change channel=13 control=11 value=120 time=24
control_change channel=13 control=11 value=114 time=24
control_change channel=13 control=11 value=108 time=24
control_change channel=13 control=11 value=101 time=24
control_change channel=13 control=11 value=95 time=24
control_change channel=13 control=11 value=95 time=0
control_change channel=13 control=11 value=96 time=120
control_change channel=13 control=11 value=98 time=120
control_change channel=13 control=11 value=99 time=120
control_change channel=13 control=11 value=100 time=120
control_change channel=13 control=11 value=101 time=120
control_change channel=13 control=11 value=103 time=120
control_change channel=13 control=11 value=104 time=120
control_change channel=13 control=11 value=105 time=120
control_change channel=13 control=11 value=106 time=120
control_change channel=13 control=11 value=108 time=120
control_change channel=13 control=11 value=109 time=120
control_change channel=13 control=11 value=110 time=120
control_change channel=13 control=11 value=111 time=120
control_change channel=13 control=11 value=113 time=120
note_off channel=13 note=55 velocity=64 time=32
note_on channel=13 note=54 velocity=45 time=16
control_change channel=13 control=11 value=114 time=72
control_change channel=13 control=11 value=115 time=120
control_change channel=13 control=11 value=116 time=120
control_change channel=13 control=11 value=118 time=120
control_change channel=13 control=11 value=119 time=120
control_change channel=13 control=11 value=120 time=120
control_change channel=13 control=11 value=121 time=120
control_change channel=13 control=11 value=123 time=120
control_change channel=13 control=11 value=124 time=120
control_change channel=13 control=11 value=125 time=120
control_change channel=13 control=11 value=127 time=48
note_off channel=13 note=54 velocity=64 time=180
note_on channel=13 note=54 velocity=55 time=60
note_off channel=13 note=54 velocity=64 time=284
note_on channel=13 note=53 velocity=55 time=36
note_off channel=13 note=53 velocity=64 time=112
note_on channel=13 note=52 velocity=45 time=1808
control_change channel=13 control=11 value=127 time=232
control_change channel=13 control=11 value=121 time=24
control_change channel=13 control=11 value=115 time=24
control_change channel=13 control=11 value=109 time=24
control_change channel=13 control=11 value=103 time=24
control_change channel=13 control=11 value=96 time=24
control_change channel=13 control=11 value=90 time=24
control_change channel=13 control=11 value=84 time=24
control_change channel=13 control=11 value=84 time=24
control_change channel=13 control=11 value=86 time=120
control_change channel=13 control=11 value=89 time=48
control_change channel=13 control=11 value=93 time=120
control_change channel=13 control=11 value=95 time=120
control_change channel=13 control=11 value=98 time=48
control_change channel=13 control=11 value=101 time=120
control_change channel=13 control=11 value=104 time=96
control_change channel=13 control=11 value=108 time=120
control_change channel=13 control=11 value=111 time=120
control_change channel=13 control=11 value=114 time=72
control_change channel=13 control=11 value=116 time=120
control_change channel=13 control=11 value=119 time=48
control_change channel=13 control=11 value=123 time=120
control_change channel=13 control=11 value=127 time=120
note_off channel=13 note=52 velocity=64 time=80
note_on channel=13 note=50 velocity=56 time=24
note_off channel=13 note=50 velocity=64 time=136
note_on channel=13 note=54 velocity=56 time=1784
control_change channel=13 control=11 value=127 time=232
control_change channel=13 control=11 value=121 time=24
control_change channel=13 control=11 value=115 time=24
control_change channel=13 control=11 value=109 time=24
control_change channel=13 control=11 value=103 time=24
control_change channel=13 control=11 value=96 time=24
control_change channel=13 control=11 value=90 time=24
control_change channel=13 control=11 value=84 time=24
control_change channel=13 control=11 value=84 time=24
control_change channel=13 control=11 value=86 time=120
control_change channel=13 control=11 value=89 time=48
control_change channel=13 control=11 value=93 time=120
control_change channel=13 control=11 value=95 time=120
control_change channel=13 control=11 value=98 time=48
control_change channel=13 control=11 value=101 time=120
control_change channel=13 control=11 value=104 time=96
control_change channel=13 control=11 value=108 time=120
control_change channel=13 control=11 value=111 time=120
control_change channel=13 control=11 value=114 time=72
control_change channel=13 control=11 value=116 time=120
control_change channel=13 control=11 value=119 time=48
control_change channel=13 control=11 value=123 time=120
control_change channel=13 control=11 value=127 time=120
note_off channel=13 note=54 velocity=64 time=80
note_on channel=13 note=53 velocity=56 time=24
note_off channel=13 note=53 velocity=64 time=136
note_on channel=13 note=52 velocity=56 time=1784
control_change channel=13 control=11 value=127 time=232
control_change channel=13 control=11 value=121 time=24
control_change channel=13 control=11 value=115 time=24
control_change channel=13 control=11 value=109 time=24
control_change channel=13 control=11 value=103 time=24
control_change channel=13 control=11 value=96 time=24
control_change channel=13 control=11 value=90 time=24
control_change channel=13 control=11 value=84 time=24
control_change channel=13 control=11 value=84 time=24
control_change channel=13 control=11 value=86 time=120
control_change channel=13 control=11 value=89 time=48
control_change channel=13 control=11 value=93 time=120
control_change channel=13 control=11 value=95 time=120
control_change channel=13 control=11 value=98 time=48
control_change channel=13 control=11 value=101 time=120
control_change channel=13 control=11 value=104 time=96
control_change channel=13 control=11 value=108 time=120
control_change channel=13 control=11 value=111 time=120
control_change channel=13 control=11 value=114 time=72
control_change channel=13 control=11 value=116 time=120
control_change channel=13 control=11 value=119 time=48
control_change channel=13 control=11 value=123 time=120
control_change channel=13 control=11 value=127 time=120
note_off channel=13 note=52 velocity=64 time=80
note_on channel=13 note=50 velocity=56 time=4344
note_off channel=13 note=50 velocity=64 time=136
note_on channel=13 note=57 velocity=62 time=24
note_off channel=13 note=57 velocity=64 time=144
note_on channel=13 note=58 velocity=69 time=336
note_off channel=13 note=58 velocity=64 time=296
note_on channel=13 note=62 velocity=56 time=24
note_off channel=13 note=62 velocity=64 time=136
note_on channel=13 note=65 velocity=67 time=24
note_off channel=13 note=65 velocity=64 time=296
note_on channel=13 note=65 velocity=81 time=24
note_off channel=13 note=65 velocity=64 time=604
note_on channel=13 note=65 velocity=65 time=36
note_off channel=13 note=65 velocity=64 time=308
note_on channel=13 note=61 velocity=69 time=12
control_change channel=13 control=11 value=127 time=16
control_change channel=13 control=11 value=125 time=120
control_change channel=13 control=11 value=123 time=120
control_change channel=13 control=11 value=121 time=120
control_change channel=13 control=11 value=119 time=120
control_change channel=13 control=11 value=118 time=120
control_change channel=13 control=11 value=115 time=96
control_change channel=13 control=11 value=114 time=120
control_change channel=13 control=11 value=111 time=120
note_off channel=13 note=61 velocity=64 time=120
control_change channel=13 control=11 value=110 time=0
control_change channel=13 control=11 value=109 time=24
control_change channel=13 control=11 value=127 time=24
note_on channel=13 note=53 velocity=56 time=320
note_off channel=13 note=53 velocity=64 time=136
note_on channel=13 note=52 velocity=64 time=24
note_off channel=13 note=52 velocity=64 time=144
note_on channel=13 note=55 velocity=69 time=336
note_off channel=13 note=55 velocity=64 time=296
note_on channel=13 note=55 velocity=56 time=24
note_off channel=13 note=55 velocity=64 time=136
note_on channel=13 note=60 velocity=66 time=24
note_off channel=13 note=60 velocity=64 time=296
note_on channel=13 note=60 velocity=75 time=24
note_off channel=13 note=60 velocity=64 time=604
note_on channel=13 note=60 velocity=64 time=36
note_off channel=13 note=60 velocity=64 time=308
note_on channel=13 note=56 velocity=69 time=12
control_change channel=13 control=11 value=127 time=16
control_change channel=13 control=11 value=125 time=120
control_change channel=13 control=11 value=123 time=120
control_change channel=13 control=11 value=121 time=120
control_change channel=13 control=11 value=119 time=120
control_change channel=13 control=11 value=118 time=120
control_change channel=13 control=11 value=115 time=96
control_change channel=13 control=11 value=114 time=120
control_change channel=13 control=11 value=111 time=120
note_off channel=13 note=56 velocity=64 time=120
control_change channel=13 control=11 value=110 time=0
control_change channel=13 control=11 value=109 time=24
control_change channel=13 control=11 value=127 time=24
note_on channel=13 note=52 velocity=56 time=1760
control_change channel=13 control=11 value=127 time=232
control_change channel=13 control=11 value=121 time=24
control_change channel=13 control=11 value=115 time=24
control_change channel=13 control=11 value=109 time=24
control_change channel=13 control=11 value=103 time=24
control_change channel=13 control=11 value=96 time=24
control_change channel=13 control=11 value=90 time=24
control_change channel=13 control=11 value=84 time=24
control_change channel=13 control=11 value=88 time=96
control_change channel=13 control=11 value=91 time=96
control_change channel=13 control=11 value=94 time=72
control_change channel=13 control=11 value=98 time=96
control_change channel=13 control=11 value=101 time=96
control_change channel=13 control=11 value=104 time=48
control_change channel=13 control=11 value=108 time=96
control_change channel=13 control=11 value=111 time=96
control_change channel=13 control=11 value=114 time=72
control_change channel=13 control=11 value=118 time=72
control_change channel=13 control=11 value=121 time=96
control_change channel=13 control=11 value=124 time=72
control_change channel=13 control=11 value=127 time=48
note_off channel=13 note=52 velocity=64 time=104
note_on channel=13 note=52 velocity=56 time=40
note_off channel=13 note=52 velocity=64 time=296
note_on channel=13 note=50 velocity=56 time=24
note_off channel=13 note=50 velocity=64 time=136
note_on channel=13 note=58 velocity=62 time=3224
note_off channel=13 note=58 velocity=64 time=580
note_on channel=13 note=57 velocity=62 time=60
note_off channel=13 note=57 velocity=64 time=144
note_on channel=13 note=57 velocity=62 time=336
note_off channel=13 note=57 velocity=64 time=296
note_on channel=13 note=55 velocity=62 time=24
note_off channel=13 note=55 velocity=64 time=136
note_on channel=13 note=57 velocity=56 time=24
note_off channel=13 note=57 velocity=64 time=56
note_on channel=13 note=57 velocity=62 time=24
note_off channel=13 note=57 velocity=64 time=68
note_on channel=13 note=55 velocity=62 time=332
note_off channel=13 note=55 velocity=64 time=308
control_change channel=13 control=11 value=104 time=12
note_on channel=13 note=57 velocity=69 time=0
control_change channel=13 control=11 value=105 time=100
control_change channel=13 control=11 value=108 time=80
control_change channel=13 control=11 value=109 time=100
control_change channel=13 control=11 value=111 time=100
control_change channel=13 control=11 value=114 time=90
control_change channel=13 control=11 value=115 time=100
control_change channel=13 control=11 value=118 time=70
control_change channel=13 control=11 value=119 time=100
control_change channel=13 control=11 value=121 time=100
control_change channel=13 control=11 value=124 time=90
control_change channel=13 control=11 value=125 time=100
control_change channel=13 control=11 value=127 time=10
note_off channel=13 note=57 velocity=64 time=80
note_on channel=13 note=52 velocity=69 time=320
note_on channel=13 note=51 velocity=40 time=112
note_on channel=13 note=50 velocity=28 time=40
note_off channel=13 note=52 velocity=64 time=4
note_off channel=13 note=51 velocity=64 time=8
note_on channel=13 note=49 velocity=17 time=28
note_off channel=13 note=50 velocity=64 time=12
note_off channel=13 note=49 velocity=64 time=40
note_on channel=13 note=50 velocity=69 time=236
note_off channel=13 note=50 velocity=64 time=592
note_on channel=13 note=50 velocity=62 time=48
note_off channel=13 note=50 velocity=64 time=296
note_on channel=13 note=50 velocity=50 time=24
note_off channel=13 note=50 velocity=64 time=136
note_on channel=13 note=55 velocity=62 time=24
note_off channel=13 note=55 velocity=64 time=284
note_on channel=13 note=55 velocity=62 time=36
note_off channel=13 note=55 velocity=64 time=156
note_on channel=13 note=54 velocity=62 time=324
control_change channel=13 control=11 value=127 time=160
control_change channel=13 control=11 value=125 time=120
control_change channel=13 control=11 value=123 time=120
control_change channel=13 control=11 value=121 time=120
control_change channel=13 control=11 value=119 time=120
control_change channel=13 control=11 value=118 time=120
control_change channel=13 control=11 value=115 time=120
control_change channel=13 control=11 value=114 time=120
control_change channel=13 control=11 value=111 time=120
control_change channel=13 control=11 value=110 time=120
control_change channel=13 control=11 value=108 time=120
control_change channel=13 control=11 value=106 time=120
control_change channel=13 control=11 value=104 time=120
control_change channel=13 control=11 value=103 time=120
control_change channel=13 control=11 value=100 time=120
control_change channel=13 control=11 value=99 time=120
note_off channel=13 note=54 velocity=64 time=60
control_change channel=13 control=11 value=96 time=36
control_change channel=13 control=11 value=127 time=24
note_on channel=13 note=57 velocity=69 time=320
note_on channel=13 note=56 velocity=30 time=112
note_on channel=13 note=55 velocity=20 time=40
note_off channel=13 note=57 velocity=64 time=4
note_off channel=13 note=56 velocity=64 time=8
note_off channel=13 note=55 velocity=64 time=40
note_on channel=13 note=57 velocity=69 time=276
note_off channel=13 note=57 velocity=64 time=580
note_on channel=13 note=57 velocity=69 time=60
note_off channel=13 note=57 velocity=64 time=168
note_on channel=13 note=57 velocity=69 time=632
note_on channel=13 note=56 velocity=32 time=112
note_on channel=13 note=55 velocity=23 time=40
note_off channel=13 note=57 velocity=64 time=4
note_off channel=13 note=56 velocity=64 time=8
note_off channel=13 note=55 velocity=64 time=40
note_on channel=13 note=54 velocity=69 time=276
note_off channel=13 note=54 velocity=64 time=580
note_on channel=13 note=55 velocity=69 time=60
note_off channel=13 note=55 velocity=64 time=168
note_on channel=13 note=55 velocity=62 time=632
note_off channel=13 note=55 velocity=64 time=444
note_on channel=13 note=55 velocity=65 time=36
note_off channel=13 note=55 velocity=64 time=444
note_on channel=13 note=58 velocity=69 time=36
note_off channel=13 note=58 velocity=64 time=444
note_on channel=13 note=55 velocity=61 time=36
note_off channel=13 note=55 velocity=64 time=136
note_on channel=13 note=58 velocity=72 time=24
note_off channel=13 note=58 velocity=64 time=148
note_on channel=13 note=55 velocity=60 time=12
note_off channel=13 note=55 velocity=64 time=148
note_on channel=13 note=63 velocity=74 time=12
note_off channel=13 note=63 velocity=64 time=924
note_on channel=13 note=53 velocity=69 time=36
note_off channel=13 note=53 velocity=64 time=604
note_on channel=13 note=53 velocity=62 time=36
note_off channel=13 note=53 velocity=64 time=284
note_on channel=13 note=53 velocity=65 time=36
note_off channel=13 note=53 velocity=64 time=124
note_on channel=13 note=61 velocity=64 time=12996
note_off channel=13 note=61 velocity=64 time=308
control_change channel=13 control=11 value=109 time=12
note_on channel=13 note=60 velocity=75 time=0
control_change channel=13 control=11 value=110 time=120
control_change channel=13 control=11 value=111 time=110
control_change channel=13 control=11 value=113 time=110
control_change channel=13 control=11 value=114 time=110
control_change channel=13 control=11 value=115 time=110
control_change channel=13 control=11 value=116 time=110
control_change channel=13 control=11 value=118 time=110
control_change channel=13 control=11 value=119 time=120
control_change channel=13 control=11 value=120 time=110
control_change channel=13 control=11 value=121 time=110
control_change channel=13 control=11 value=123 time=110
control_change channel=13 control=11 value=124 time=110
control_change channel=13 control=11 value=125 time=110
note_off channel=13 note=60 velocity=64 time=102
control_change channel=13 control=11 value=127 time=8
note_on channel=13 note=62 velocity=75 time=360
note_off channel=13 note=62 velocity=64 time=604
note_on channel=13 note=59 velocity=75 time=36
note_off channel=13 note=59 velocity=64 time=296
note_on channel=13 note=59 velocity=75 time=24
note_off channel=13 note=59 velocity=64 time=136
note_on channel=13 note=58 velocity=75 time=824
note_off channel=13 note=58 velocity=64 time=604
note_on channel=13 note=56 velocity=75 time=36
note_off channel=13 note=56 velocity=64 time=296
note_on channel=13 note=57 velocity=75 time=24
note_off channel=13 note=57 velocity=64 time=136
note_on channel=13 note=62 velocity=75 time=824
note_off channel=13 note=62 velocity=64 time=604
note_on channel=13 note=59 velocity=75 time=36
note_off channel=13 note=59 velocity=64 time=296
note_on channel=13 note=60 velocity=75 time=24
note_off channel=13 note=60 velocity=64 time=136
note_on channel=13 note=60 velocity=75 time=824
note_off channel=13 note=60 velocity=64 time=604
note_on channel=13 note=56 velocity=75 time=36
note_off channel=13 note=56 velocity=64 time=296
note_on channel=13 note=57 velocity=75 time=24
note_off channel=13 note=57 velocity=64 time=136
note_on channel=13 note=62 velocity=75 time=824
note_off channel=13 note=62 velocity=64 time=580
note_on channel=13 note=64 velocity=75 time=60
note_off channel=13 note=64 velocity=64 time=168
note_on channel=13 note=62 velocity=75 time=312
note_off channel=13 note=62 velocity=64 time=168
note_on channel=13 note=62 velocity=75 time=312
note_off channel=13 note=62 velocity=64 time=296
note_on channel=13 note=65 velocity=62 time=24
note_off channel=13 note=65 velocity=64 time=148
note_on channel=13 note=62 velocity=75 time=12
note_off channel=13 note=62 velocity=64 time=311
note_on channel=13 note=62 velocity=75 time=9
control_change channel=13 control=11 value=127 time=16
control_change channel=13 control=11 value=124 time=96
control_change channel=13 control=11 value=121 time=96
control_change channel=13 control=11 value=119 time=120
control_change channel=13 control=11 value=116 time=48
control_change channel=13 control=11 value=114 time=120
control_change channel=13 control=11 value=111 time=72
control_change channel=13 control=11 value=109 time=120
control_change channel=13 control=11 value=106 time=48
control_change channel=13 control=11 value=104 time=120
control_change channel=13 control=11 value=101 time=72
control_change channel=13 control=11 value=99 time=120
note_off channel=13 note=62 velocity=64 time=24
control_change channel=13 control=11 value=96 time=24
control_change channel=13 control=11 value=127 time=0
control_change channel=13 control=11 value=127 time=24
note_on channel=13 note=60 velocity=75 time=320
note_on channel=13 note=59 velocity=30 time=112
note_on channel=13 note=58 velocity=20 time=40
note_off channel=13 note=60 velocity=64 time=8
note_off channel=13 note=59 velocity=64 time=4
note_off channel=13 note=58 velocity=64 time=40
note_on channel=13 note=60 velocity=75 time=436
note_off channel=13 note=60 velocity=64 time=168
note_on channel=13 note=60 velocity=75 time=312
note_off channel=13 note=60 velocity=64 time=168
note_on channel=13 note=63 velocity=75 time=792
note_off channel=13 note=63 velocity=64 time=296
note_on channel=13 note=63 velocity=75 time=24
note_off channel=13 note=63 velocity=64 time=192
note_on channel=13 note=60 velocity=62 time=288
note_off channel=13 note=60 velocity=64 time=148
note_on channel=13 note=63 velocity=75 time=12
note_off channel=13 note=63 velocity=64 time=308
note_on channel=13 note=63 velocity=69 time=12
note_off channel=13 note=63 velocity=64 time=136
note_on channel=13 note=62 velocity=75 time=24
note_off channel=13 note=62 velocity=64 time=296
note_on channel=13 note=58 velocity=75 time=24
note_off channel=13 note=58 velocity=64 time=136
note_on channel=13 note=59 velocity=75 time=1944
note_off channel=13 note=59 velocity=64 time=168
note_on channel=13 note=58 velocity=75 time=312
note_off channel=13 note=58 velocity=64 time=296
note_on channel=13 note=58 velocity=75 time=24
note_off channel=13 note=58 velocity=64 time=180
note_on channel=13 note=64 velocity=75 time=300
note_on channel=13 note=66 velocity=54 time=1440
note_off channel=13 note=64 velocity=64 time=16
note_on channel=13 note=65 velocity=62 time=64
note_off channel=13 note=66 velocity=64 time=24
note_on channel=13 note=64 velocity=74 time=56
note_off channel=13 note=65 velocity=64 time=24
note_off channel=13 note=64 velocity=64 time=284
note_on channel=13 note=56 velocity=75 time=12
pitchwheel channel=13 pitch=0 time=160
control_change channel=13 control=11 value=127 time=0
pitchwheel channel=13 pitch=242 time=12
control_change channel=13 control=11 value=124 time=72
control_change channel=13 control=11 value=121 time=72
pitchwheel channel=13 pitch=0 time=48
control_change channel=13 control=11 value=119 time=60
control_change channel=13 control=11 value=116 time=48
pitchwheel channel=13 pitch=-82 time=36
control_change channel=13 control=11 value=114 time=72
pitchwheel channel=13 pitch=-244 time=24
control_change channel=13 control=11 value=111 time=24
pitchwheel channel=13 pitch=-407 time=48
pitchwheel channel=13 pitch=-569 time=60
control_change channel=13 control=11 value=109 time=0
control_change channel=13 control=11 value=106 time=48
pitchwheel channel=13 pitch=-731 time=12
pitchwheel channel=13 pitch=-893 time=36
pitchwheel channel=13 pitch=-1055 time=48
control_change channel=13 control=11 value=104 time=12
pitchwheel channel=13 pitch=-1218 time=24
pitchwheel channel=13 pitch=-1380 time=24
control_change channel=13 control=11 value=101 time=0
pitchwheel channel=13 pitch=-1542 time=36
pitchwheel channel=13 pitch=-1704 time=24
pitchwheel channel=13 pitch=-1866 time=12
pitchwheel channel=13 pitch=-2029 time=24
pitchwheel channel=13 pitch=-2191 time=12
control_change channel=13 control=11 value=99 time=0
pitchwheel channel=13 pitch=-2353 time=12
note_off channel=13 note=56 velocity=64 time=12
pitchwheel channel=13 pitch=-2515 time=0
pitchwheel channel=13 pitch=-2840 time=12
control_change channel=13 control=11 value=96 time=12
control_change channel=13 control=11 value=127 time=24
pitchwheel channel=13 pitch=0 time=0
note_on channel=13 note=58 velocity=75 time=1280
note_off channel=13 note=58 velocity=64 time=604
note_on channel=13 note=62 velocity=75 time=36
note_off channel=13 note=62 velocity=64 time=180
note_on channel=13 note=62 velocity=75 time=300
note_off channel=13 note=62 velocity=64 time=296
note_on channel=13 note=62 velocity=75 time=24
note_off channel=13 note=62 velocity=64 time=136
note_on channel=13 note=62 velocity=75 time=344
note_off channel=13 note=62 velocity=64 time=180
note_on channel=13 note=62 velocity=69 time=300
note_off channel=13 note=62 velocity=64 time=148
note_on channel=13 note=58 velocity=75 time=12
note_off channel=13 note=58 velocity=64 time=456
note_on channel=13 note=60 velocity=75 time=24
note_off channel=13 note=60 velocity=64 time=156
note_on channel=13 note=63 velocity=81 time=804
note_off channel=13 note=63 velocity=64 time=912
note_on channel=13 note=63 velocity=75 time=48
note_off channel=13 note=63 velocity=64 time=180
control_change channel=13 control=11 value=104 time=300
note_on channel=13 note=61 velocity=81 time=0
control_change channel=13 control=11 value=106 time=108
control_change channel=13 control=11 value=109 time=108
note_off channel=13 note=61 velocity=64 time=92
note_on channel=13 note=61 velocity=81 time=12
control_change channel=13 control=11 value=111 time=4
control_change channel=13 control=11 value=114 time=108
control_change channel=13 control=11 value=116 time=108
control_change channel=13 control=11 value=119 time=108
control_change channel=13 control=11 value=121 time=108
control_change channel=13 control=11 value=124 time=108
note_off channel=13 note=61 velocity=64 time=60
control_change channel=13 control=11 value=127 time=36
control_change channel=13 control=11 value=127 time=0
note_on channel=13 note=60 velocity=81 time=0
control_change channel=13 control=11 value=124 time=84
control_change channel=13 control=11 value=121 time=84
control_change channel=13 control=11 value=119 time=108
note_off channel=13 note=60 velocity=64 time=32
note_on channel=13 note=58 velocity=81 time=12
control_change channel=13 control=11 value=116 time=4
control_change channel=13 control=11 value=114 time=108
control_change channel=13 control=11 value=111 time=48
control_change channel=13 control=11 value=109 time=108
control_change channel=13 control=11 value=106 time=60
control_change channel=13 control=11 value=104 time=108
control_change channel=13 control=11 value=101 time=48
note_off channel=13 note=58 velocity=64 time=108
control_change channel=13 control=11 value=127 time=48
note_on channel=13 note=52 velocity=56 time=1760
control_change channel=13 control=11 value=127 time=232
control_change channel=13 control=11 value=121 time=24
control_change channel=13 control=11 value=115 time=24
control_change channel=13 control=11 value=109 time=24
control_change channel=13 control=11 value=103 time=24
control_change channel=13 control=11 value=96 time=24
control_change channel=13 control=11 value=90 time=24
control_change channel=13 control=11 value=84 time=24
control_change channel=13 control=11 value=84 time=24
control_change channel=13 control=11 value=86 time=120
control_change channel=13 control=11 value=89 time=48
control_change channel=13 control=11 value=93 time=120
control_change channel=13 control=11 value=95 time=120
control_change channel=13 control=11 value=98 time=48
control_change channel=13 control=11 value=101 time=120
control_change channel=13 control=11 value=104 time=96
control_change channel=13 control=11 value=108 time=120
control_change channel=13 control=11 value=111 time=120
control_change channel=13 control=11 value=114 time=72
control_change channel=13 control=11 value=116 time=120
control_change channel=13 control=11 value=119 time=48
control_change channel=13 control=11 value=123 time=120
control_change channel=13 control=11 value=127 time=120
note_off channel=13 note=52 velocity=64 time=80
note_on channel=13 note=50 velocity=56 time=24
note_off channel=13 note=50 velocity=64 time=136
note_on channel=13 note=54 velocity=56 time=1784
control_change channel=13 control=11 value=127 time=232
control_change channel=13 control=11 value=121 time=24
control_change channel=13 control=11 value=115 time=24
control_change channel=13 control=11 value=109 time=24
control_change channel=13 control=11 value=103 time=24
control_change channel=13 control=11 value=96 time=24
control_change channel=13 control=11 value=90 time=24
control_change channel=13 control=11 value=84 time=24
control_change channel=13 control=11 value=84 time=24
control_change channel=13 control=11 value=86 time=120
control_change channel=13 control=11 value=89 time=48
control_change channel=13 control=11 value=93 time=120
control_change channel=13 control=11 value=95 time=120
control_change channel=13 control=11 value=98 time=48
control_change channel=13 control=11 value=101 time=120
control_change channel=13 control=11 value=104 time=96
control_change channel=13 control=11 value=108 time=120
control_change channel=13 control=11 value=111 time=120
control_change channel=13 control=11 value=114 time=72
control_change channel=13 control=11 value=116 time=120
control_change channel=13 control=11 value=119 time=48
control_change channel=13 control=11 value=123 time=120
control_change channel=13 control=11 value=127 time=120
note_off channel=13 note=54 velocity=64 time=80
note_on channel=13 note=53 velocity=56 time=24
note_off channel=13 note=53 velocity=64 time=136
note_on channel=13 note=52 velocity=56 time=1784
control_change channel=13 control=11 value=127 time=232
control_change channel=13 control=11 value=121 time=24
control_change channel=13 control=11 value=115 time=24
control_change channel=13 control=11 value=109 time=24
control_change channel=13 control=11 value=103 time=24
control_change channel=13 control=11 value=96 time=24
control_change channel=13 control=11 value=90 time=24
control_change channel=13 control=11 value=84 time=24
control_change channel=13 control=11 value=84 time=24
control_change channel=13 control=11 value=86 time=120
control_change channel=13 control=11 value=89 time=48
control_change channel=13 control=11 value=93 time=120
control_change channel=13 control=11 value=95 time=120
control_change channel=13 control=11 value=98 time=48
control_change channel=13 control=11 value=101 time=120
control_change channel=13 control=11 value=104 time=96
control_change channel=13 control=11 value=108 time=120
control_change channel=13 control=11 value=111 time=120
control_change channel=13 control=11 value=114 time=72
control_change channel=13 control=11 value=116 time=120
control_change channel=13 control=11 value=119 time=48
control_change channel=13 control=11 value=123 time=120
control_change channel=13 control=11 value=127 time=120
note_off channel=13 note=52 velocity=64 time=80
note_on channel=13 note=58 velocity=75 time=4344
note_off channel=13 note=58 velocity=64 time=168
note_on channel=13 note=60 velocity=75 time=312
note_off channel=13 note=60 velocity=64 time=136
note_on channel=13 note=62 velocity=75 time=24
note_off channel=13 note=62 velocity=64 time=168
note_on channel=13 note=62 velocity=75 time=312
note_off channel=13 note=62 velocity=64 time=168
control_change channel=13 control=93 value=30 time=312
note_on channel=13 note=61 velocity=75 time=0
note_off channel=13 note=61 velocity=64 time=444
note_on channel=13 note=61 velocity=75 time=36
note_off channel=13 note=61 velocity=64 time=296
note_on channel=13 note=61 velocity=75 time=24
note_off channel=13 note=61 velocity=64 time=136
note_on channel=13 note=57 velocity=75 time=824
note_off channel=13 note=57 velocity=64 time=604
note_on channel=13 note=60 velocity=75 time=36
note_off channel=13 note=60 velocity=64 time=296
note_on channel=13 note=57 velocity=64 time=24
note_off channel=13 note=57 velocity=64 time=136
note_on channel=13 note=62 velocity=75 time=24
note_off channel=13 note=62 velocity=64 time=284
note_on channel=13 note=64 velocity=75 time=36
note_off channel=13 note=64 velocity=64 time=168
note_on channel=13 note=63 velocity=75 time=312
note_off channel=13 note=63 velocity=64 time=604
note_on channel=13 note=63 velocity=75 time=36
note_off channel=13 note=63 velocity=64 time=296
note_on channel=13 note=63 velocity=75 time=24
note_off channel=13 note=63 velocity=64 time=124
note_on channel=13 note=59 velocity=75 time=1316
note_off channel=13 note=59 velocity=64 time=568
note_on channel=13 note=59 velocity=75 time=72
note_off channel=13 note=59 velocity=64 time=156
note_on channel=13 note=59 velocity=75 time=324
note_off channel=13 note=59 velocity=64 time=156
note_on channel=13 note=58 velocity=75 time=324
note_off channel=13 note=58 velocity=64 time=782
note_on channel=13 note=61 velocity=75 time=18
note_off channel=13 note=61 velocity=64 time=1060
note_on channel=13 note=63 velocity=75 time=380
note_off channel=13 note=63 velocity=64 time=580
note_on channel=13 note=64 velocity=75 time=60
note_off channel=13 note=64 velocity=64 time=168
note_on channel=13 note=62 velocity=75 time=312
note_off channel=13 note=62 velocity=64 time=168
note_on channel=13 note=63 velocity=75 time=312
note_off channel=13 note=63 velocity=64 time=782
note_on channel=13 note=64 velocity=75 time=18
note_off channel=13 note=64 velocity=64 time=1060
note_on channel=13 note=48 velocity=56 time=5820
note_off channel=13 note=48 velocity=64 time=80
note_on channel=13 note=48 velocity=62 time=0
note_off channel=13 note=48 velocity=64 time=80
note_on channel=13 note=51 velocity=40 time=640
control_change channel=13 control=11 value=127 time=1120
control_change channel=13 control=11 value=125 time=120
control_change channel=13 control=11 value=124 time=120
control_change channel=13 control=11 value=123 time=120
control_change channel=13 control=11 value=121 time=120
control_change channel=13 control=11 value=120 time=120
control_change channel=13 control=11 value=119 time=120
control_change channel=13 control=11 value=118 time=120
control_change channel=13 control=11 value=116 time=120
control_change channel=13 control=11 value=115 time=120
control_change channel=13 control=11 value=114 time=120
control_change channel=13 control=11 value=113 time=120
control_change channel=13 control=11 value=111 time=120
control_change channel=13 control=11 value=110 time=120
control_change channel=13 control=11 value=109 time=120
control_change channel=13 control=11 value=108 time=120
control_change channel=13 control=11 value=106 time=120
control_change channel=13 control=11 value=105 time=120
control_change channel=13 control=11 value=104 time=120
control_change channel=13 control=11 value=103 time=120
control_change channel=13 control=11 value=101 time=120
control_change channel=13 control=11 value=100 time=120
control_change channel=13 control=11 value=99 time=120
control_change channel=13 control=11 value=98 time=120
note_off channel=13 note=51 velocity=64 time=96
<meta message end_of_track time=0>
<meta message text text='Trombone 3' time=0>
control_change channel=14 control=11 value=127 time=0
control_change channel=14 control=7 value=106 time=0
control_change channel=14 control=10 value=94 time=0
control_change channel=14 control=91 value=85 time=0
control_change channel=14 control=93 value=25 time=0
control_change channel=14 control=0 value=56 time=0
control_change channel=14 control=32 value=0 time=0
program_change channel=14 program=57 time=0
control_change channel=14 control=11 value=109 time=9944
note_on channel=14 note=57 velocity=60 time=0
control_change channel=14 control=11 value=110 time=250
control_change channel=14 control=11 value=111 time=250
control_change channel=14 control=11 value=113 time=250
control_change channel=14 control=11 value=114 time=250
control_change channel=14 control=11 value=115 time=240
control_change channel=14 control=11 value=116 time=250
note_off channel=14 note=57 velocity=64 time=74
note_on channel=14 note=54 velocity=62 time=36
control_change channel=14 control=11 value=118 time=140
control_change channel=14 control=11 value=119 time=250
control_change channel=14 control=11 value=120 time=250
control_change channel=14 control=11 value=121 time=240
control_change channel=14 control=11 value=123 time=250
control_change channel=14 control=11 value=124 time=250
control_change channel=14 control=11 value=125 time=250
control_change channel=14 control=11 value=127 time=240
note_off channel=14 note=54 velocity=64 time=14
note_on channel=14 note=53 velocity=75 time=332
note_off channel=14 note=53 velocity=64 time=580
note_on channel=14 note=53 velocity=77 time=60
note_off channel=14 note=53 velocity=64 time=168
note_on channel=14 note=53 velocity=79 time=312
note_off channel=14 note=53 velocity=64 time=168
note_on channel=14 note=52 velocity=81 time=312
note_off channel=14 note=52 velocity=64 time=764
note_on channel=14 note=52 velocity=84 time=36
note_off channel=14 note=52 velocity=64 time=592
note_on channel=14 note=52 velocity=86 time=48
note_off channel=14 note=52 velocity=64 time=272
note_on channel=14 note=57 velocity=86 time=48
note_off channel=14 note=57 velocity=64 time=124
note_on channel=14 note=50 velocity=45 time=19556
note_off channel=14 note=50 velocity=64 time=124
note_on channel=14 note=54 velocity=50 time=36
note_off channel=14 note=54 velocity=64 time=132
note_on channel=14 note=55 velocity=45 time=348
note_off channel=14 note=55 velocity=64 time=294
control_change channel=14 control=11 value=109 time=26
note_on channel=14 note=58 velocity=52 time=0
control_change channel=14 control=11 value=110 time=100
control_change channel=14 control=11 value=111 time=100
control_change channel=14 control=11 value=113 time=100
control_change channel=14 control=11 value=114 time=100
control_change channel=14 control=11 value=115 time=100
control_change channel=14 control=11 value=116 time=100
note_off channel=14 note=58 velocity=64 time=12
note_on channel=14 note=59 velocity=50 time=28
control_change channel=14 control=11 value=118 time=60
control_change channel=14 control=11 value=119 time=100
control_change channel=14 control=11 value=120 time=100
control_change channel=14 control=11 value=121 time=100
control_change channel=14 control=11 value=123 time=100
control_change channel=14 control=11 value=124 time=100
control_change channel=14 control=11 value=125 time=100
control_change channel=14 control=11 value=127 time=60
note_off channel=14 note=59 velocity=64 time=32
note_on channel=14 note=56 velocity=55 time=48
note_off channel=14 note=56 velocity=64 time=112
note_on channel=14 note=56 velocity=50 time=368
note_off channel=14 note=56 velocity=64 time=144
note_on channel=14 note=56 velocity=45 time=336
note_off channel=14 note=56 velocity=64 time=136
note_on channel=14 note=48 velocity=50 time=24
note_off channel=14 note=48 velocity=64 time=284
note_on channel=14 note=48 velocity=45 time=36
note_off channel=14 note=48 velocity=64 time=136
note_on channel=14 note=48 velocity=50 time=24
note_off channel=14 note=48 velocity=64 time=120
note_on channel=14 note=48 velocity=50 time=360
note_off channel=14 note=48 velocity=64 time=284
note_on channel=14 note=55 velocity=50 time=36
note_off channel=14 note=55 velocity=64 time=120
note_on channel=14 note=54 velocity=50 time=360
control_change channel=14 control=11 value=127 time=232
control_change channel=14 control=11 value=120 time=24
control_change channel=14 control=11 value=114 time=24
control_change channel=14 control=11 value=108 time=24
control_change channel=14 control=11 value=101 time=24
control_change channel=14 control=11 value=94 time=24
control_change channel=14 control=11 value=96 time=120
control_change channel=14 control=11 value=99 time=120
control_change channel=14 control=11 value=101 time=120
control_change channel=14 control=11 value=104 time=120
control_change channel=14 control=11 value=106 time=120
control_change channel=14 control=11 value=109 time=120
control_change channel=14 control=11 value=111 time=120
control_change channel=14 control=11 value=114 time=120
control_change channel=14 control=11 value=116 time=120
control_change channel=14 control=11 value=119 time=120
control_change channel=14 control=11 value=121 time=120
control_change channel=14 control=11 value=124 time=120
control_change channel=14 control=11 value=127 time=120
note_off channel=14 note=54 velocity=64 time=120
note_on channel=14 note=45 velocity=52 time=1008
note_off channel=14 note=45 velocity=64 time=284
note_on channel=14 note=45 velocity=55 time=36
note_off channel=14 note=45 velocity=64 time=108
note_on channel=14 note=55 velocity=60 time=372
note_off channel=14 note=55 velocity=64 time=592
note_on channel=14 note=55 velocity=55 time=48
note_off channel=14 note=55 velocity=64 time=296
note_on channel=14 note=55 velocity=45 time=24
note_off channel=14 note=55 velocity=64 time=134
note_on channel=14 note=57 velocity=50 time=826
control_change channel=14 control=11 value=127 time=232
control_change channel=14 control=11 value=120 time=24
control_change channel=14 control=11 value=114 time=24
control_change channel=14 control=11 value=108 time=24
control_change channel=14 control=11 value=101 time=24
control_change channel=14 control=11 value=95 time=24
control_change channel=14 control=11 value=95 time=0
control_change channel=14 control=11 value=96 time=120
control_change channel=14 control=11 value=98 time=120
control_change channel=14 control=11 value=99 time=120
control_change channel=14 control=11 value=100 time=120
control_change channel=14 control=11 value=101 time=120
control_change channel=14 control=11 value=103 time=120
control_change channel=14 control=11 value=104 time=120
control_change channel=14 control=11 value=105 time=120
control_change channel=14 control=11 value=106 time=120
control_change channel=14 control=11 value=108 time=120
control_change channel=14 control=11 value=109 time=120
control_change channel=14 control=11 value=110 time=120
control_change channel=14 control=11 value=111 time=120
control_change channel=14 control=11 value=113 time=120
control_change channel=14 control=11 value=114 time=120
control_change channel=14 control=11 value=115 time=120
control_change channel=14 control=11 value=116 time=120
control_change channel=14 control=11 value=118 time=120
control_change channel=14 control=11 value=119 time=120
control_change channel=14 control=11 value=120 time=120
control_change channel=14 control=11 value=121 time=120
control_change channel=14 control=11 value=123 time=120
control_change channel=14 control=11 value=124 time=120
control_change channel=14 control=11 value=125 time=120
control_change channel=14 control=11 value=127 time=48
note_off channel=14 note=57 velocity=64 time=192
note_on channel=14 note=50 velocity=55 time=48
note_off channel=14 note=50 velocity=64 time=284
note_on channel=14 note=50 velocity=55 time=36
note_off channel=14 note=50 velocity=64 time=112
note_on channel=14 note=43 velocity=45 time=1808
control_change channel=14 control=11 value=127 time=232
control_change channel=14 control=11 value=121 time=24
control_change channel=14 control=11 value=115 time=24
control_change channel=14 control=11 value=109 time=24
control_change channel=14 control=11 value=103 time=24
control_change channel=14 control=11 value=96 time=24
control_change channel=14 control=11 value=90 time=24
control_change channel=14 control=11 value=84 time=24
control_change channel=14 control=11 value=84 time=24
control_change channel=14 control=11 value=86 time=120
control_change channel=14 control=11 value=89 time=48
control_change channel=14 control=11 value=93 time=120
control_change channel=14 control=11 value=95 time=120
control_change channel=14 control=11 value=98 time=48
control_change channel=14 control=11 value=101 time=120
control_change channel=14 control=11 value=104 time=96
control_change channel=14 control=11 value=108 time=120
control_change channel=14 control=11 value=111 time=120
control_change channel=14 control=11 value=114 time=72
control_change channel=14 control=11 value=116 time=120
control_change channel=14 control=11 value=119 time=48
control_change channel=14 control=11 value=123 time=120
control_change channel=14 control=11 value=127 time=120
note_off channel=14 note=43 velocity=64 time=80
note_on channel=14 note=48 velocity=56 time=24
note_off channel=14 note=48 velocity=64 time=136
note_on channel=14 note=45 velocity=56 time=1784
control_change channel=14 control=11 value=127 time=232
control_change channel=14 control=11 value=121 time=24
control_change channel=14 control=11 value=115 time=24
control_change channel=14 control=11 value=109 time=24
control_change channel=14 control=11 value=103 time=24
control_change channel=14 control=11 value=96 time=24
control_change channel=14 control=11 value=90 time=24
control_change channel=14 control=11 value=84 time=24
control_change channel=14 control=11 value=84 time=24
control_change channel=14 control=11 value=86 time=120
control_change channel=14 control=11 value=89 time=48
control_change channel=14 control=11 value=93 time=120
control_change channel=14 control=11 value=95 time=120
control_change channel=14 control=11 value=98 time=48
control_change channel=14 control=11 value=101 time=120
control_change channel=14 control=11 value=104 time=96
control_change channel=14 control=11 value=108 time=120
control_change channel=14 control=11 value=111 time=120
control_change channel=14 control=11 value=114 time=72
control_change channel=14 control=11 value=116 time=120
control_change channel=14 control=11 value=119 time=48
control_change channel=14 control=11 value=123 time=120
control_change channel=14 control=11 value=127 time=120
note_off channel=14 note=45 velocity=64 time=80
note_on channel=14 note=50 velocity=56 time=24
note_off channel=14 note=50 velocity=64 time=136
note_on channel=14 note=43 velocity=56 time=1784
control_change channel=14 control=11 value=127 time=232
control_change channel=14 control=11 value=121 time=24
control_change channel=14 control=11 value=115 time=24
control_change channel=14 control=11 value=109 time=24
control_change channel=14 control=11 value=103 time=24
control_change channel=14 control=11 value=96 time=24
control_change channel=14 control=11 value=90 time=24
control_change channel=14 control=11 value=84 time=24
control_change channel=14 control=11 value=84 time=24
control_change channel=14 control=11 value=86 time=120
control_change channel=14 control=11 value=89 time=48
control_change channel=14 control=11 value=93 time=120
control_change channel=14 control=11 value=95 time=120
control_change channel=14 control=11 value=98 time=48
control_change channel=14 control=11 value=101 time=120
control_change channel=14 control=11 value=104 time=96
control_change channel=14 control=11 value=108 time=120
control_change channel=14 control=11 value=111 time=120
control_change channel=14 control=11 value=114 time=72
control_change channel=14 control=11 value=116 time=120
control_change channel=14 control=11 value=119 time=48
control_change channel=14 control=11 value=123 time=120
control_change channel=14 control=11 value=127 time=120
note_off channel=14 note=43 velocity=64 time=80
note_on channel=14 note=46 velocity=56 time=4344
note_off channel=14 note=46 velocity=64 time=136
note_on channel=14 note=54 velocity=62 time=24
note_off channel=14 note=54 velocity=64 time=144
note_on channel=14 note=55 velocity=69 time=336
note_off channel=14 note=55 velocity=64 time=296
note_on channel=14 note=58 velocity=56 time=24
note_off channel=14 note=58 velocity=64 time=136
note_on channel=14 note=62 velocity=67 time=24
note_off channel=14 note=62 velocity=64 time=296
note_on channel=14 note=61 velocity=81 time=24
note_off channel=14 note=61 velocity=64 time=604
note_on channel=14 note=61 velocity=65 time=36
note_off channel=14 note=61 velocity=64 time=308
note_on channel=14 note=58 velocity=69 time=12
control_change channel=14 control=11 value=127 time=16
control_change channel=14 control=11 value=125 time=120
control_change channel=14 control=11 value=123 time=120
control_change channel=14 control=11 value=121 time=120
control_change channel=14 control=11 value=119 time=120
control_change channel=14 control=11 value=118 time=120
control_change channel=14 control=11 value=115 time=96
control_change channel=14 control=11 value=114 time=120
control_change channel=14 control=11 value=111 time=120
note_off channel=14 note=58 velocity=64 time=120
control_change channel=14 control=11 value=110 time=0
control_change channel=14 control=11 value=109 time=24
control_change channel=14 control=11 value=127 time=24
note_on channel=14 note=50 velocity=56 time=320
note_off channel=14 note=50 velocity=64 time=136
note_on channel=14 note=50 velocity=64 time=24
note_off channel=14 note=50 velocity=64 time=144
note_on channel=14 note=51 velocity=69 time=336
note_off channel=14 note=51 velocity=64 time=296
note_on channel=14 note=51 velocity=56 time=24
note_off channel=14 note=51 velocity=64 time=136
note_on channel=14 note=54 velocity=66 time=24
note_off channel=14 note=54 velocity=64 time=296
note_on channel=14 note=55 velocity=75 time=24
note_off channel=14 note=55 velocity=64 time=604
note_on channel=14 note=55 velocity=64 time=36
note_off channel=14 note=55 velocity=64 time=308
note_on channel=14 note=54 velocity=69 time=12
control_change channel=14 control=11 value=127 time=16
control_change channel=14 control=11 value=125 time=120
control_change channel=14 control=11 value=123 time=120
control_change channel=14 control=11 value=121 time=120
control_change channel=14 control=11 value=119 time=120
control_change channel=14 control=11 value=118 time=120
control_change channel=14 control=11 value=115 time=96
control_change channel=14 control=11 value=114 time=120
control_change channel=14 control=11 value=111 time=120
note_off channel=14 note=54 velocity=64 time=120
control_change channel=14 control=11 value=110 time=0
control_change channel=14 control=11 value=109 time=24
control_change channel=14 control=11 value=127 time=24
note_on channel=14 note=43 velocity=56 time=1760
control_change channel=14 control=11 value=127 time=232
control_change channel=14 control=11 value=121 time=24
control_change channel=14 control=11 value=115 time=24
control_change channel=14 control=11 value=109 time=24
control_change channel=14 control=11 value=103 time=24
control_change channel=14 control=11 value=96 time=24
control_change channel=14 control=11 value=90 time=24
control_change channel=14 control=11 value=84 time=24
control_change channel=14 control=11 value=88 time=96
control_change channel=14 control=11 value=91 time=96
control_change channel=14 control=11 value=94 time=72
control_change channel=14 control=11 value=98 time=96
control_change channel=14 control=11 value=101 time=96
control_change channel=14 control=11 value=104 time=48
control_change channel=14 control=11 value=108 time=96
control_change channel=14 control=11 value=111 time=96
control_change channel=14 control=11 value=114 time=72
control_change channel=14 control=11 value=118 time=72
control_change channel=14 control=11 value=121 time=96
control_change channel=14 control=11 value=124 time=72
control_change channel=14 control=11 value=127 time=48
note_off channel=14 note=43 velocity=64 time=104
note_on channel=14 note=43 velocity=56 time=40
note_off channel=14 note=43 velocity=64 time=296
note_on channel=14 note=48 velocity=56 time=24
note_off channel=14 note=48 velocity=64 time=136
note_on channel=14 note=54 velocity=62 time=3224
note_off channel=14 note=54 velocity=64 time=580
note_on channel=14 note=53 velocity=62 time=60
note_off channel=14 note=53 velocity=64 time=144
note_on channel=14 note=53 velocity=62 time=336
note_off channel=14 note=53 velocity=64 time=296
note_on channel=14 note=53 velocity=62 time=24
note_off channel=14 note=53 velocity=64 time=136
note_on channel=14 note=53 velocity=56 time=24
note_off channel=14 note=53 velocity=64 time=56
note_on channel=14 note=53 velocity=62 time=24
note_off channel=14 note=53 velocity=64 time=68
note_on channel=14 note=53 velocity=62 time=332
note_off channel=14 note=53 velocity=64 time=308
control_change channel=14 control=11 value=104 time=12
note_on channel=14 note=52 velocity=69 time=0
control_change channel=14 control=11 value=105 time=100
control_change channel=14 control=11 value=108 time=80
control_change channel=14 control=11 value=109 time=100
control_change channel=14 control=11 value=111 time=100
control_change channel=14 control=11 value=114 time=90
control_change channel=14 control=11 value=115 time=100
control_change channel=14 control=11 value=118 time=70
control_change channel=14 control=11 value=119 time=100
control_change channel=14 control=11 value=121 time=100
control_change channel=14 control=11 value=124 time=90
control_change channel=14 control=11 value=125 time=100
control_change channel=14 control=11 value=127 time=10
note_off channel=14 note=52 velocity=64 time=80
note_on channel=14 note=49 velocity=69 time=320
note_on channel=14 note=48 velocity=40 time=112
note_on channel=14 note=47 velocity=28 time=40
note_off channel=14 note=49 velocity=64 time=4
note_off channel=14 note=48 velocity=64 time=8
note_on channel=14 note=46 velocity=17 time=28
note_off channel=14 note=47 velocity=64 time=12
note_off channel=14 note=46 velocity=64 time=40
note_on channel=14 note=48 velocity=69 time=236
note_off channel=14 note=48 velocity=64 time=592
note_on channel=14 note=48 velocity=62 time=48
note_off channel=14 note=48 velocity=64 time=296
note_on channel=14 note=48 velocity=50 time=24
note_off channel=14 note=48 velocity=64 time=136
note_on channel=14 note=52 velocity=62 time=24
note_off channel=14 note=52 velocity=64 time=284
note_on channel=14 note=46 velocity=62 time=36
note_off channel=14 note=46 velocity=64 time=156
note_on channel=14 note=45 velocity=62 time=324
control_change channel=14 control=11 value=127 time=160
control_change channel=14 control=11 value=125 time=120
control_change channel=14 control=11 value=123 time=120
control_change channel=14 control=11 value=121 time=120
control_change channel=14 control=11 value=119 time=120
control_change channel=14 control=11 value=118 time=120
control_change channel=14 control=11 value=115 time=120
control_change channel=14 control=11 value=114 time=120
control_change channel=14 control=11 value=111 time=120
control_change channel=14 control=11 value=110 time=120
control_change channel=14 control=11 value=108 time=120
control_change channel=14 control=11 value=106 time=120
control_change channel=14 control=11 value=104 time=120
control_change channel=14 control=11 value=103 time=120
control_change channel=14 control=11 value=100 time=120
control_change channel=14 control=11 value=99 time=120
note_off channel=14 note=45 velocity=64 time=60
control_change channel=14 control=11 value=96 time=36
control_change channel=14 control=11 value=127 time=24
note_on channel=14 note=53 velocity=69 time=320
note_on channel=14 note=52 velocity=30 time=112
note_on channel=14 note=51 velocity=20 time=40
note_off channel=14 note=53 velocity=64 time=4
note_off channel=14 note=52 velocity=64 time=8
note_off channel=14 note=51 velocity=64 time=40
note_on channel=14 note=53 velocity=69 time=276
note_off channel=14 note=53 velocity=64 time=580
note_on channel=14 note=53 velocity=69 time=60
note_off channel=14 note=53 velocity=64 time=168
note_on channel=14 note=52 velocity=69 time=632
note_on channel=14 note=51 velocity=32 time=112
note_on channel=14 note=50 velocity=23 time=40
note_off channel=14 note=52 velocity=64 time=4
note_off channel=14 note=51 velocity=64 time=8
note_off channel=14 note=50 velocity=64 time=40
note_on channel=14 note=52 velocity=69 time=276
note_off channel=14 note=52 velocity=64 time=580
note_on channel=14 note=52 velocity=69 time=60
note_off channel=14 note=52 velocity=64 time=168
note_on channel=14 note=51 velocity=62 time=632
note_off channel=14 note=51 velocity=64 time=444
note_on channel=14 note=51 velocity=65 time=36
note_off channel=14 note=51 velocity=64 time=444
note_on channel=14 note=55 velocity=69 time=36
note_off channel=14 note=55 velocity=64 time=444
note_on channel=14 note=51 velocity=61 time=36
note_off channel=14 note=51 velocity=64 time=136
note_on channel=14 note=55 velocity=72 time=24
note_off channel=14 note=55 velocity=64 time=148
note_on channel=14 note=51 velocity=60 time=12
note_off channel=14 note=51 velocity=64 time=148
note_on channel=14 note=60 velocity=74 time=12
note_off channel=14 note=60 velocity=64 time=924
note_on channel=14 note=51 velocity=69 time=36
note_off channel=14 note=51 velocity=64 time=604
note_on channel=14 note=50 velocity=62 time=36
note_off channel=14 note=50 velocity=64 time=284
note_on channel=14 note=50 velocity=65 time=36
note_off channel=14 note=50 velocity=64 time=124
note_on channel=14 note=55 velocity=64 time=12996
note_off channel=14 note=55 velocity=64 time=308
control_change channel=14 control=11 value=109 time=12
note_on channel=14 note=54 velocity=75 time=0
control_change channel=14 control=11 value=110 time=120
control_change channel=14 control=11 value=111 time=110
control_change channel=14 control=11 value=113 time=110
control_change channel=14 control=11 value=114 time=110
control_change channel=14 control=11 value=115 time=110
control_change channel=14 control=11 value=116 time=110
control_change channel=14 control=11 value=118 time=110
control_change channel=14 control=11 value=119 time=120
control_change channel=14 control=11 value=120 time=110
control_change channel=14 control=11 value=121 time=110
control_change channel=14 control=11 value=123 time=110
control_change channel=14 control=11 value=124 time=110
control_change channel=14 control=11 value=125 time=110
note_off channel=14 note=54 velocity=64 time=102
control_change channel=14 control=11 value=127 time=8
note_on channel=14 note=59 velocity=75 time=360
note_off channel=14 note=59 velocity=64 time=604
note_on channel=14 note=56 velocity=75 time=36
note_off channel=14 note=56 velocity=64 time=296
note_on channel=14 note=57 velocity=75 time=24
note_off channel=14 note=57 velocity=64 time=136
note_on channel=14 note=55 velocity=75 time=824
note_off channel=14 note=55 velocity=64 time=604
note_on channel=14 note=52 velocity=75 time=36
note_off channel=14 note=52 velocity=64 time=296
note_on channel=14 note=52 velocity=75 time=24
note_off channel=14 note=52 velocity=64 time=136
note_on channel=14 note=60 velocity=75 time=824
note_off channel=14 note=60 velocity=64 time=604
note_on channel=14 note=56 velocity=75 time=36
note_off channel=14 note=56 velocity=64 time=296
note_on channel=14 note=57 velocity=75 time=24
note_off channel=14 note=57 velocity=64 time=136
note_on channel=14 note=57 velocity=75 time=824
note_off channel=14 note=57 velocity=64 time=604
note_on channel=14 note=54 velocity=75 time=36
note_off channel=14 note=54 velocity=64 time=296
note_on channel=14 note=54 velocity=75 time=24
note_off channel=14 note=54 velocity=64 time=136
note_on channel=14 note=59 velocity=75 time=824
note_off channel=14 note=59 velocity=64 time=580
note_on channel=14 note=59 velocity=75 time=60
note_off channel=14 note=59 velocity=64 time=168
note_on channel=14 note=59 velocity=75 time=312
note_off channel=14 note=59 velocity=64 time=168
note_on channel=14 note=58 velocity=75 time=312
note_off channel=14 note=58 velocity=64 time=296
note_on channel=14 note=62 velocity=62 time=24
note_off channel=14 note=62 velocity=64 time=148
note_on channel=14 note=58 velocity=75 time=12
note_off channel=14 note=58 velocity=64 time=311
note_on channel=14 note=58 velocity=75 time=9
control_change channel=14 control=11 value=127 time=16
control_change channel=14 control=11 value=124 time=96
control_change channel=14 control=11 value=121 time=96
control_change channel=14 control=11 value=119 time=120
control_change channel=14 control=11 value=116 time=48
control_change channel=14 control=11 value=114 time=120
control_change channel=14 control=11 value=111 time=72
control_change channel=14 control=11 value=109 time=120
control_change channel=14 control=11 value=106 time=48
control_change channel=14 control=11 value=104 time=120
control_change channel=14 control=11 value=101 time=72
control_change channel=14 control=11 value=99 time=120
note_off channel=14 note=58 velocity=64 time=24
control_change channel=14 control=11 value=96 time=24
control_change channel=14 control=11 value=127 time=0
control_change channel=14 control=11 value=127 time=24
note_on channel=14 note=58 velocity=75 time=320
note_on channel=14 note=57 velocity=30 time=112
note_on channel=14 note=56 velocity=20 time=40
note_off channel=14 note=58 velocity=64 time=8
note_off channel=14 note=57 velocity=64 time=4
note_off channel=14 note=56 velocity=64 time=40
note_on channel=14 note=58 velocity=75 time=436
note_off channel=14 note=58 velocity=64 time=168
note_on channel=14 note=58 velocity=75 time=312
note_off channel=14 note=58 velocity=64 time=168
note_on channel=14 note=60 velocity=75 time=792
note_off channel=14 note=60 velocity=64 time=296
note_on channel=14 note=60 velocity=75 time=24
note_off channel=14 note=60 velocity=64 time=192
note_on channel=14 note=57 velocity=62 time=288
note_off channel=14 note=57 velocity=64 time=148
note_on channel=14 note=60 velocity=75 time=12
note_off channel=14 note=60 velocity=64 time=308
note_on channel=14 note=60 velocity=69 time=12
note_off channel=14 note=60 velocity=64 time=136
note_on channel=14 note=60 velocity=75 time=24
note_off channel=14 note=60 velocity=64 time=296
note_on channel=14 note=55 velocity=75 time=24
note_off channel=14 note=55 velocity=64 time=136
note_on channel=14 note=57 velocity=75 time=1944
note_off channel=14 note=57 velocity=64 time=168
note_on channel=14 note=56 velocity=75 time=312
note_off channel=14 note=56 velocity=64 time=296
note_on channel=14 note=56 velocity=75 time=24
note_off channel=14 note=56 velocity=64 time=180
note_on channel=14 note=60 velocity=75 time=300
note_on channel=14 note=62 velocity=54 time=1440
note_off channel=14 note=60 velocity=64 time=16
note_on channel=14 note=61 velocity=62 time=64
note_off channel=14 note=62 velocity=64 time=24
note_on channel=14 note=60 velocity=74 time=56
note_off channel=14 note=61 velocity=64 time=24
note_off channel=14 note=60 velocity=64 time=284
note_on channel=14 note=54 velocity=75 time=12
pitchwheel channel=14 pitch=0 time=160
control_change channel=14 control=11 value=127 time=0
pitchwheel channel=14 pitch=242 time=12
control_change channel=14 control=11 value=124 time=72
control_change channel=14 control=11 value=121 time=72
pitchwheel channel=14 pitch=0 time=48
control_change channel=14 control=11 value=119 time=60
control_change channel=14 control=11 value=116 time=48
pitchwheel channel=14 pitch=-82 time=36
control_change channel=14 control=11 value=114 time=72
pitchwheel channel=14 pitch=-244 time=24
control_change channel=14 control=11 value=111 time=24
pitchwheel channel=14 pitch=-407 time=48
pitchwheel channel=14 pitch=-569 time=60
control_change channel=14 control=11 value=109 time=0
control_change channel=14 control=11 value=106 time=48
pitchwheel channel=14 pitch=-731 time=12
pitchwheel channel=14 pitch=-893 time=36
pitchwheel channel=14 pitch=-1055 time=48
control_change channel=14 control=11 value=104 time=12
pitchwheel channel=14 pitch=-1218 time=24
pitchwheel channel=14 pitch=-1380 time=24
control_change channel=14 control=11 value=101 time=0
pitchwheel channel=14 pitch=-1542 time=36
pitchwheel channel=14 pitch=-1704 time=24
pitchwheel channel=14 pitch=-1866 time=12
pitchwheel channel=14 pitch=-2029 time=24
pitchwheel channel=14 pitch=-2191 time=12
control_change channel=14 control=11 value=99 time=0
pitchwheel channel=14 pitch=-2353 time=12
note_off channel=14 note=54 velocity=64 time=12
pitchwheel channel=14 pitch=-2515 time=0
pitchwheel channel=14 pitch=-2840 time=12
control_change channel=14 control=11 value=96 time=12
control_change channel=14 control=11 value=127 time=24
pitchwheel channel=14 pitch=0 time=0
note_on channel=14 note=55 velocity=75 time=1280
note_off channel=14 note=55 velocity=64 time=604
note_on channel=14 note=58 velocity=75 time=36
note_off channel=14 note=58 velocity=64 time=180
note_on channel=14 note=58 velocity=75 time=300
note_off channel=14 note=58 velocity=64 time=296
note_on channel=14 note=58 velocity=75 time=24
note_off channel=14 note=58 velocity=64 time=136
note_on channel=14 note=58 velocity=75 time=344
note_off channel=14 note=58 velocity=64 time=180
note_on channel=14 note=58 velocity=69 time=300
note_off channel=14 note=58 velocity=64 time=148
note_on channel=14 note=55 velocity=75 time=12
note_off channel=14 note=55 velocity=64 time=456
note_on channel=14 note=55 velocity=75 time=24
note_off channel=14 note=55 velocity=64 time=156
note_on channel=14 note=60 velocity=81 time=804
note_off channel=14 note=60 velocity=64 time=912
note_on channel=14 note=60 velocity=75 time=48
note_off channel=14 note=60 velocity=64 time=180
control_change channel=14 control=11 value=104 time=300
note_on channel=14 note=58 velocity=81 time=0
control_change channel=14 control=11 value=106 time=108
control_change channel=14 control=11 value=109 time=108
note_off channel=14 note=58 velocity=64 time=92
note_on channel=14 note=58 velocity=81 time=12
control_change channel=14 control=11 value=111 time=4
control_change channel=14 control=11 value=114 time=108
control_change channel=14 control=11 value=116 time=108
control_change channel=14 control=11 value=119 time=108
control_change channel=14 control=11 value=121 time=108
control_change channel=14 control=11 value=124 time=108
note_off channel=14 note=58 velocity=64 time=60
control_change channel=14 control=11 value=127 time=36
control_change channel=14 control=11 value=127 time=0
note_on channel=14 note=57 velocity=81 time=0
control_change channel=14 control=11 value=124 time=84
control_change channel=14 control=11 value=121 time=84
control_change channel=14 control=11 value=119 time=108
note_off channel=14 note=57 velocity=64 time=32
note_on channel=14 note=54 velocity=81 time=12
control_change channel=14 control=11 value=116 time=4
control_change channel=14 control=11 value=114 time=108
control_change channel=14 control=11 value=111 time=48
control_change channel=14 control=11 value=109 time=108
control_change channel=14 control=11 value=106 time=60
control_change channel=14 control=11 value=104 time=108
control_change channel=14 control=11 value=101 time=48
note_off channel=14 note=54 velocity=64 time=108
control_change channel=14 control=11 value=127 time=72
note_on channel=14 note=43 velocity=56 time=1736
control_change channel=14 control=11 value=127 time=232
control_change channel=14 control=11 value=121 time=24
control_change channel=14 control=11 value=115 time=24
control_change channel=14 control=11 value=109 time=24
control_change channel=14 control=11 value=103 time=24
control_change channel=14 control=11 value=96 time=24
control_change channel=14 control=11 value=90 time=24
control_change channel=14 control=11 value=84 time=24
control_change channel=14 control=11 value=84 time=24
control_change channel=14 control=11 value=86 time=120
control_change channel=14 control=11 value=89 time=48
control_change channel=14 control=11 value=93 time=120
control_change channel=14 control=11 value=95 time=120
control_change channel=14 control=11 value=98 time=48
control_change channel=14 control=11 value=101 time=120
control_change channel=14 control=11 value=104 time=96
control_change channel=14 control=11 value=108 time=120
control_change channel=14 control=11 value=111 time=120
control_change channel=14 control=11 value=114 time=72
control_change channel=14 control=11 value=116 time=120
control_change channel=14 control=11 value=119 time=48
control_change channel=14 control=11 value=123 time=120
control_change channel=14 control=11 value=127 time=120
note_off channel=14 note=43 velocity=64 time=80
note_on channel=14 note=48 velocity=56 time=24
note_off channel=14 note=48 velocity=64 time=136
note_on channel=14 note=45 velocity=56 time=1784
control_change channel=14 control=11 value=127 time=232
control_change channel=14 control=11 value=121 time=24
control_change channel=14 control=11 value=115 time=24
control_change channel=14 control=11 value=109 time=24
control_change channel=14 control=11 value=103 time=24
control_change channel=14 control=11 value=96 time=24
control_change channel=14 control=11 value=90 time=24
control_change channel=14 control=11 value=84 time=24
control_change channel=14 control=11 value=84 time=24
control_change channel=14 control=11 value=86 time=120
control_change channel=14 control=11 value=89 time=48
control_change channel=14 control=11 value=93 time=120
control_change channel=14 control=11 value=95 time=120
control_change channel=14 control=11 value=98 time=48
control_change channel=14 control=11 value=101 time=120
control_change channel=14 control=11 value=104 time=96
control_change channel=14 control=11 value=108 time=120
control_change channel=14 control=11 value=111 time=120
control_change channel=14 control=11 value=114 time=72
control_change channel=14 control=11 value=116 time=120
control_change channel=14 control=11 value=119 time=48
control_change channel=14 control=11 value=123 time=120
control_change channel=14 control=11 value=127 time=120
note_off channel=14 note=45 velocity=64 time=80
note_on channel=14 note=50 velocity=56 time=24
note_off channel=14 note=50 velocity=64 time=136
note_on channel=14 note=43 velocity=56 time=1784
control_change channel=14 control=11 value=127 time=232
control_change channel=14 control=11 value=121 time=24
control_change channel=14 control=11 value=115 time=24
control_change channel=14 control=11 value=109 time=24
control_change channel=14 control=11 value=103 time=24
control_change channel=14 control=11 value=96 time=24
control_change channel=14 control=11 value=90 time=24
control_change channel=14 control=11 value=84 time=24
control_change channel=14 control=11 value=84 time=24
control_change channel=14 control=11 value=86 time=120
control_change channel=14 control=11 value=89 time=48
control_change channel=14 control=11 value=93 time=120
control_change channel=14 control=11 value=95 time=120
control_change channel=14 control=11 value=98 time=48
control_change channel=14 control=11 value=101 time=120
control_change channel=14 control=11 value=104 time=96
control_change channel=14 control=11 value=108 time=120
control_change channel=14 control=11 value=111 time=120
control_change channel=14 control=11 value=114 time=72
control_change channel=14 control=11 value=116 time=120
control_change channel=14 control=11 value=119 time=48
control_change channel=14 control=11 value=123 time=120
control_change channel=14 control=11 value=127 time=120
note_off channel=14 note=43 velocity=64 time=80
note_on channel=14 note=55 velocity=75 time=4344
note_off channel=14 note=55 velocity=64 time=168
note_on channel=14 note=57 velocity=75 time=312
note_off channel=14 note=57 velocity=64 time=136
note_on channel=14 note=58 velocity=75 time=24
note_off channel=14 note=58 velocity=64 time=168
note_on channel=14 note=58 velocity=75 time=312
note_off channel=14 note=58 velocity=64 time=168
control_change channel=14 control=93 value=30 time=312
note_on channel=14 note=58 velocity=75 time=0
note_off channel=14 note=58 velocity=64 time=444
note_on channel=14 note=58 velocity=75 time=36
note_off channel=14 note=58 velocity=64 time=296
note_on channel=14 note=58 velocity=75 time=24
note_off channel=14 note=58 velocity=64 time=136
note_on channel=14 note=53 velocity=75 time=824
note_off channel=14 note=53 velocity=64 time=604
note_on channel=14 note=57 velocity=75 time=36
note_off channel=14 note=57 velocity=64 time=296
note_on channel=14 note=53 velocity=64 time=24
note_off channel=14 note=53 velocity=64 time=136
note_on channel=14 note=60 velocity=75 time=24
note_off channel=14 note=60 velocity=64 time=284
note_on channel=14 note=60 velocity=75 time=36
note_off channel=14 note=60 velocity=64 time=168
note_on channel=14 note=60 velocity=75 time=312
note_off channel=14 note=60 velocity=64 time=604
note_on channel=14 note=60 velocity=75 time=36
note_off channel=14 note=60 velocity=64 time=296
note_on channel=14 note=60 velocity=75 time=24
note_off channel=14 note=60 velocity=64 time=124
note_on channel=14 note=53 velocity=75 time=1316
note_off channel=14 note=53 velocity=64 time=568
note_on channel=14 note=53 velocity=75 time=72
note_off channel=14 note=53 velocity=64 time=156
note_on channel=14 note=53 velocity=75 time=324
note_off channel=14 note=53 velocity=64 time=156
note_on channel=14 note=52 velocity=75 time=324
note_off channel=14 note=52 velocity=64 time=782
note_on channel=14 note=58 velocity=75 time=18
note_off channel=14 note=58 velocity=64 time=1060
note_on channel=14 note=57 velocity=69 time=380
note_off channel=14 note=57 velocity=64 time=1576
note_on channel=14 note=54 velocity=69 time=24
note_off channel=14 note=54 velocity=64 time=1838
note_on channel=14 note=59 velocity=40 time=6642
control_change channel=14 control=11 value=127 time=1120
control_change channel=14 control=11 value=125 time=120
control_change channel=14 control=11 value=124 time=120
control_change channel=14 control=11 value=123 time=120
control_change channel=14 control=11 value=121 time=120
control_change channel=14 control=11 value=120 time=120
control_change channel=14 control=11 value=119 time=120
control_change channel=14 control=11 value=118 time=120
control_change channel=14 control=11 value=116 time=120
control_change channel=14 control=11 value=115 time=120
control_change channel=14 control=11 value=114 time=120
control_change channel=14 control=11 value=113 time=120
control_change channel=14 control=11 value=111 time=120
control_change channel=14 control=11 value=110 time=120
control_change channel=14 control=11 value=109 time=120
control_change channel=14 control=11 value=108 time=120
control_change channel=14 control=11 value=106 time=120
control_change channel=14 control=11 value=105 time=120
control_change channel=14 control=11 value=104 time=120
control_change channel=14 control=11 value=103 time=120
control_change channel=14 control=11 value=101 time=120
control_change channel=14 control=11 value=100 time=120
control_change channel=14 control=11 value=99 time=120
control_change channel=14 control=11 value=98 time=120
note_off channel=14 note=59 velocity=64 time=96
<meta message end_of_track time=0>
<meta message text text='Trombone 4' time=0>
control_change channel=15 control=11 value=127 time=0
control_change channel=15 control=7 value=106 time=0
control_change channel=15 control=10 value=99 time=0
control_change channel=15 control=91 value=81 time=0
control_change channel=15 control=93 value=25 time=0
control_change channel=15 control=0 value=56 time=0
control_change channel=15 control=32 value=0 time=0
program_change channel=15 program=57 time=0
control_change channel=15 control=11 value=109 time=9944
note_on channel=15 note=48 velocity=60 time=0
control_change channel=15 control=11 value=110 time=250
control_change channel=15 control=11 value=111 time=250
control_change channel=15 control=11 value=113 time=250
control_change channel=15 control=11 value=114 time=250
control_change channel=15 control=11 value=115 time=240
control_change channel=15 control=11 value=116 time=250
note_off channel=15 note=48 velocity=64 time=74
note_on channel=15 note=45 velocity=62 time=60
control_change channel=15 control=11 value=118 time=116
control_change channel=15 control=11 value=119 time=250
control_change channel=15 control=11 value=120 time=250
control_change channel=15 control=11 value=121 time=240
control_change channel=15 control=11 value=123 time=250
control_change channel=15 control=11 value=124 time=250
control_change channel=15 control=11 value=125 time=250
control_change channel=15 control=11 value=127 time=240
note_off channel=15 note=45 velocity=64 time=38
note_on channel=15 note=43 velocity=75 time=308
note_off channel=15 note=43 velocity=64 time=580
note_on channel=15 note=43 velocity=77 time=60
note_off channel=15 note=43 velocity=64 time=168
note_on channel=15 note=43 velocity=79 time=312
note_off channel=15 note=43 velocity=64 time=168
note_on channel=15 note=48 velocity=81 time=312
note_off channel=15 note=48 velocity=64 time=764
note_on channel=15 note=48 velocity=84 time=36
note_off channel=15 note=48 velocity=64 time=592
note_on channel=15 note=48 velocity=86 time=48
note_off channel=15 note=48 velocity=64 time=272
note_on channel=15 note=53 velocity=86 time=48
note_off channel=15 note=53 velocity=64 time=124
note_on channel=15 note=46 velocity=45 time=19556
note_off channel=15 note=46 velocity=64 time=124
note_on channel=15 note=52 velocity=50 time=36
note_off channel=15 note=52 velocity=64 time=132
note_on channel=15 note=54 velocity=45 time=348
note_off channel=15 note=54 velocity=64 time=294
control_change channel=15 control=11 value=109 time=26
note_on channel=15 note=55 velocity=52 time=0
control_change channel=15 control=11 value=110 time=100
control_change channel=15 control=11 value=111 time=100
control_change channel=15 control=11 value=113 time=100
control_change channel=15 control=11 value=114 time=100
control_change channel=15 control=11 value=115 time=100
control_change channel=15 control=11 value=116 time=100
note_off channel=15 note=55 velocity=64 time=12
note_on channel=15 note=57 velocity=50 time=28
control_change channel=15 control=11 value=118 time=60
control_change channel=15 control=11 value=119 time=100
control_change channel=15 control=11 value=120 time=100
control_change channel=15 control=11 value=121 time=100
control_change channel=15 control=11 value=123 time=100
control_change channel=15 control=11 value=124 time=100
control_change channel=15 control=11 value=125 time=100
control_change channel=15 control=11 value=127 time=60
note_off channel=15 note=57 velocity=64 time=32
note_on channel=15 note=52 velocity=55 time=48
note_off channel=15 note=52 velocity=64 time=112
note_on channel=15 note=52 velocity=50 time=368
note_off channel=15 note=52 velocity=64 time=144
note_on channel=15 note=52 velocity=45 time=336
note_off channel=15 note=52 velocity=64 time=136
note_on channel=15 note=45 velocity=50 time=24
note_off channel=15 note=45 velocity=64 time=284
note_on channel=15 note=45 velocity=45 time=36
note_off channel=15 note=45 velocity=64 time=136
note_on channel=15 note=45 velocity=50 time=24
note_off channel=15 note=45 velocity=64 time=120
note_on channel=15 note=45 velocity=50 time=360
note_off channel=15 note=45 velocity=64 time=284
note_on channel=15 note=45 velocity=50 time=36
note_off channel=15 note=45 velocity=64 time=120
note_on channel=15 note=50 velocity=50 time=360
control_change channel=15 control=11 value=127 time=232
control_change channel=15 control=11 value=120 time=24
control_change channel=15 control=11 value=114 time=24
control_change channel=15 control=11 value=108 time=24
control_change channel=15 control=11 value=101 time=24
control_change channel=15 control=11 value=94 time=24
control_change channel=15 control=11 value=96 time=120
control_change channel=15 control=11 value=99 time=120
control_change channel=15 control=11 value=101 time=120
control_change channel=15 control=11 value=104 time=120
control_change channel=15 control=11 value=106 time=120
control_change channel=15 control=11 value=109 time=120
control_change channel=15 control=11 value=111 time=120
control_change channel=15 control=11 value=114 time=120
control_change channel=15 control=11 value=116 time=120
control_change channel=15 control=11 value=119 time=120
control_change channel=15 control=11 value=121 time=120
control_change channel=15 control=11 value=124 time=120
control_change channel=15 control=11 value=127 time=120
note_off channel=15 note=50 velocity=64 time=120
note_on channel=15 note=43 velocity=55 time=368
note_off channel=15 note=43 velocity=64 time=124
note_on channel=15 note=43 velocity=50 time=36
note_off channel=15 note=43 velocity=64 time=120
note_on channel=15 note=43 velocity=52 time=360
note_off channel=15 note=43 velocity=64 time=284
note_on channel=15 note=43 velocity=55 time=36
note_off channel=15 note=43 velocity=64 time=108
note_on channel=15 note=48 velocity=60 time=372
note_off channel=15 note=48 velocity=64 time=592
note_on channel=15 note=48 velocity=55 time=48
note_off channel=15 note=48 velocity=64 time=296
note_on channel=15 note=48 velocity=45 time=24
note_off channel=15 note=48 velocity=64 time=134
note_on channel=15 note=46 velocity=50 time=26
note_off channel=15 note=46 velocity=64 time=284
note_on channel=15 note=46 velocity=50 time=36
note_off channel=15 note=46 velocity=64 time=120
note_on channel=15 note=45 velocity=50 time=360
control_change channel=15 control=11 value=127 time=232
control_change channel=15 control=11 value=120 time=24
control_change channel=15 control=11 value=114 time=24
control_change channel=15 control=11 value=108 time=24
control_change channel=15 control=11 value=101 time=24
control_change channel=15 control=11 value=95 time=24
control_change channel=15 control=11 value=95 time=0
control_change channel=15 control=11 value=96 time=120
control_change channel=15 control=11 value=98 time=120
control_change channel=15 control=11 value=99 time=120
control_change channel=15 control=11 value=100 time=120
control_change channel=15 control=11 value=101 time=120
control_change channel=15 control=11 value=103 time=120
control_change channel=15 control=11 value=104 time=120
control_change channel=15 control=11 value=105 time=120
control_change channel=15 control=11 value=106 time=120
control_change channel=15 control=11 value=108 time=120
control_change channel=15 control=11 value=109 time=120
control_change channel=15 control=11 value=110 time=120
control_change channel=15 control=11 value=111 time=120
control_change channel=15 control=11 value=113 time=120
note_off channel=15 note=45 velocity=64 time=32
note_on channel=15 note=38 velocity=45 time=16
control_change channel=15 control=11 value=114 time=72
control_change channel=15 control=11 value=115 time=120
control_change channel=15 control=11 value=116 time=120
control_change channel=15 control=11 value=118 time=120
control_change channel=15 control=11 value=119 time=120
control_change channel=15 control=11 value=120 time=120
control_change channel=15 control=11 value=121 time=120
control_change channel=15 control=11 value=123 time=120
control_change channel=15 control=11 value=124 time=120
control_change channel=15 control=11 value=125 time=120
control_change channel=15 control=11 value=127 time=48
note_off channel=15 note=38 velocity=64 time=180
note_on channel=15 note=38 velocity=55 time=60
note_off channel=15 note=38 velocity=64 time=284
note_on channel=15 note=43 velocity=55 time=36
note_off channel=15 note=43 velocity=64 time=112
note_on channel=15 note=36 velocity=45 time=1808
control_change channel=15 control=11 value=127 time=232
control_change channel=15 control=11 value=121 time=24
control_change channel=15 control=11 value=115 time=24
control_change channel=15 control=11 value=109 time=24
control_change channel=15 control=11 value=103 time=24
control_change channel=15 control=11 value=96 time=24
control_change channel=15 control=11 value=90 time=24
control_change channel=15 control=11 value=84 time=24
control_change channel=15 control=11 value=84 time=24
control_change channel=15 control=11 value=86 time=120
control_change channel=15 control=11 value=89 time=48
control_change channel=15 control=11 value=93 time=120
control_change channel=15 control=11 value=95 time=120
control_change channel=15 control=11 value=98 time=48
control_change channel=15 control=11 value=101 time=120
control_change channel=15 control=11 value=104 time=96
control_change channel=15 control=11 value=108 time=120
control_change channel=15 control=11 value=111 time=120
control_change channel=15 control=11 value=114 time=72
control_change channel=15 control=11 value=116 time=120
control_change channel=15 control=11 value=119 time=48
control_change channel=15 control=11 value=123 time=120
control_change channel=15 control=11 value=127 time=120
note_off channel=15 note=36 velocity=64 time=80
note_on channel=15 note=41 velocity=56 time=24
note_off channel=15 note=41 velocity=64 time=136
note_on channel=15 note=38 velocity=56 time=1784
control_change channel=15 control=11 value=127 time=232
control_change channel=15 control=11 value=121 time=24
control_change channel=15 control=11 value=115 time=24
control_change channel=15 control=11 value=109 time=24
control_change channel=15 control=11 value=103 time=24
control_change channel=15 control=11 value=96 time=24
control_change channel=15 control=11 value=90 time=24
control_change channel=15 control=11 value=84 time=24
control_change channel=15 control=11 value=84 time=24
control_change channel=15 control=11 value=86 time=120
control_change channel=15 control=11 value=89 time=48
control_change channel=15 control=11 value=93 time=120
control_change channel=15 control=11 value=95 time=120
control_change channel=15 control=11 value=98 time=48
control_change channel=15 control=11 value=101 time=120
control_change channel=15 control=11 value=104 time=96
control_change channel=15 control=11 value=108 time=120
control_change channel=15 control=11 value=111 time=120
control_change channel=15 control=11 value=114 time=72
control_change channel=15 control=11 value=116 time=120
control_change channel=15 control=11 value=119 time=48
control_change channel=15 control=11 value=123 time=120
control_change channel=15 control=11 value=127 time=120
note_off channel=15 note=38 velocity=64 time=80
note_on channel=15 note=43 velocity=56 time=24
note_off channel=15 note=43 velocity=64 time=136
note_on channel=15 note=36 velocity=56 time=1784
control_change channel=15 control=11 value=127 time=232
control_change channel=15 control=11 value=121 time=24
control_change channel=15 control=11 value=115 time=24
control_change channel=15 control=11 value=109 time=24
control_change channel=15 control=11 value=103 time=24
control_change channel=15 control=11 value=96 time=24
control_change channel=15 control=11 value=90 time=24
control_change channel=15 control=11 value=84 time=24
control_change channel=15 control=11 value=84 time=24
control_change channel=15 control=11 value=86 time=120
control_change channel=15 control=11 value=89 time=48
control_change channel=15 control=11 value=93 time=120
control_change channel=15 control=11 value=95 time=120
control_change channel=15 control=11 value=98 time=48
control_change channel=15 control=11 value=101 time=120
control_change channel=15 control=11 value=104 time=96
control_change channel=15 control=11 value=108 time=120
control_change channel=15 control=11 value=111 time=120
control_change channel=15 control=11 value=114 time=72
control_change channel=15 control=11 value=116 time=120
control_change channel=15 control=11 value=119 time=48
control_change channel=15 control=11 value=123 time=120
control_change channel=15 control=11 value=127 time=120
note_off channel=15 note=36 velocity=64 time=80
note_on channel=15 note=50 velocity=69 time=504
note_off channel=15 note=50 velocity=64 time=580
note_on channel=15 note=48 velocity=69 time=60
note_off channel=15 note=48 velocity=64 time=144
note_on channel=15 note=43 velocity=69 time=336
note_off channel=15 note=43 velocity=64 time=144
note_on channel=15 note=47 velocity=69 time=336
note_off channel=15 note=47 velocity=64 time=444
note_on channel=15 note=48 velocity=69 time=36
note_off channel=15 note=48 velocity=64 time=284
note_on channel=15 note=50 velocity=69 time=36
note_off channel=15 note=50 velocity=64 time=124
note_on channel=15 note=48 velocity=69 time=380
note_off channel=15 note=48 velocity=64 time=556
note_on channel=15 note=46 velocity=56 time=380
note_off channel=15 note=46 velocity=64 time=136
note_on channel=15 note=52 velocity=62 time=24
note_off channel=15 note=52 velocity=64 time=144
note_on channel=15 note=53 velocity=69 time=336
note_off channel=15 note=53 velocity=64 time=296
note_on channel=15 note=55 velocity=56 time=24
note_off channel=15 note=55 velocity=64 time=136
note_on channel=15 note=58 velocity=67 time=24
note_off channel=15 note=58 velocity=64 time=296
note_on channel=15 note=58 velocity=81 time=24
note_off channel=15 note=58 velocity=64 time=604
note_on channel=15 note=58 velocity=65 time=36
note_off channel=15 note=58 velocity=64 time=308
note_on channel=15 note=55 velocity=69 time=12
control_change channel=15 control=11 value=127 time=16
control_change channel=15 control=11 value=125 time=120
control_change channel=15 control=11 value=123 time=120
control_change channel=15 control=11 value=121 time=120
control_change channel=15 control=11 value=119 time=120
control_change channel=15 control=11 value=118 time=120
control_change channel=15 control=11 value=115 time=96
control_change channel=15 control=11 value=114 time=120
control_change channel=15 control=11 value=111 time=120
note_off channel=15 note=55 velocity=64 time=120
control_change channel=15 control=11 value=110 time=0
control_change channel=15 control=11 value=109 time=24
control_change channel=15 control=11 value=127 time=24
note_on channel=15 note=48 velocity=56 time=320
note_off channel=15 note=48 velocity=64 time=136
note_on channel=15 note=47 velocity=64 time=24
note_off channel=15 note=47 velocity=64 time=144
note_on channel=15 note=46 velocity=69 time=336
note_off channel=15 note=46 velocity=64 time=296
note_on channel=15 note=46 velocity=56 time=24
note_off channel=15 note=46 velocity=64 time=136
note_on channel=15 note=50 velocity=66 time=24
note_off channel=15 note=50 velocity=64 time=296
note_on channel=15 note=45 velocity=75 time=24
note_off channel=15 note=45 velocity=64 time=604
note_on channel=15 note=45 velocity=64 time=36
note_off channel=15 note=45 velocity=64 time=308
note_on channel=15 note=50 velocity=69 time=12
control_change channel=15 control=11 value=127 time=16
control_change channel=15 control=11 value=125 time=120
control_change channel=15 control=11 value=123 time=120
control_change channel=15 control=11 value=121 time=120
control_change channel=15 control=11 value=119 time=120
control_change channel=15 control=11 value=118 time=120
control_change channel=15 control=11 value=115 time=96
control_change channel=15 control=11 value=114 time=120
control_change channel=15 control=11 value=111 time=120
note_off channel=15 note=50 velocity=64 time=120
control_change channel=15 control=11 value=110 time=0
control_change channel=15 control=11 value=109 time=24
control_change channel=15 control=11 value=127 time=24
note_on channel=15 note=36 velocity=56 time=1760
control_change channel=15 control=11 value=127 time=232
control_change channel=15 control=11 value=121 time=24
control_change channel=15 control=11 value=115 time=24
control_change channel=15 control=11 value=109 time=24
control_change channel=15 control=11 value=103 time=24
control_change channel=15 control=11 value=96 time=24
control_change channel=15 control=11 value=90 time=24
control_change channel=15 control=11 value=84 time=24
control_change channel=15 control=11 value=88 time=96
control_change channel=15 control=11 value=91 time=96
control_change channel=15 control=11 value=94 time=72
control_change channel=15 control=11 value=98 time=96
control_change channel=15 control=11 value=101 time=96
control_change channel=15 control=11 value=104 time=48
control_change channel=15 control=11 value=108 time=96
control_change channel=15 control=11 value=111 time=96
control_change channel=15 control=11 value=114 time=72
control_change channel=15 control=11 value=118 time=72
control_change channel=15 control=11 value=121 time=96
control_change channel=15 control=11 value=124 time=72
control_change channel=15 control=11 value=127 time=48
note_off channel=15 note=36 velocity=64 time=104
note_on channel=15 note=36 velocity=56 time=40
note_off channel=15 note=36 velocity=64 time=296
note_on channel=15 note=41 velocity=56 time=24
note_off channel=15 note=41 velocity=64 time=136
note_on channel=15 note=44 velocity=62 time=3224
note_off channel=15 note=44 velocity=64 time=580
note_on channel=15 note=43 velocity=62 time=60
note_off channel=15 note=43 velocity=64 time=144
note_on channel=15 note=43 velocity=62 time=336
note_off channel=15 note=43 velocity=64 time=296
note_on channel=15 note=43 velocity=62 time=24
note_off channel=15 note=43 velocity=64 time=136
note_on channel=15 note=43 velocity=56 time=24
note_off channel=15 note=43 velocity=64 time=56
note_on channel=15 note=43 velocity=62 time=24
note_off channel=15 note=43 velocity=64 time=68
note_on channel=15 note=49 velocity=62 time=332
note_off channel=15 note=49 velocity=64 time=308
control_change channel=15 control=11 value=104 time=12
note_on channel=15 note=48 velocity=69 time=0
control_change channel=15 control=11 value=105 time=100
control_change channel=15 control=11 value=108 time=80
control_change channel=15 control=11 value=109 time=100
control_change channel=15 control=11 value=111 time=100
control_change channel=15 control=11 value=114 time=90
control_change channel=15 control=11 value=115 time=100
control_change channel=15 control=11 value=118 time=70
control_change channel=15 control=11 value=119 time=100
control_change channel=15 control=11 value=121 time=100
control_change channel=15 control=11 value=124 time=90
control_change channel=15 control=11 value=125 time=100
control_change channel=15 control=11 value=127 time=10
note_off channel=15 note=48 velocity=64 time=80
note_on channel=15 note=42 velocity=69 time=320
note_on channel=15 note=41 velocity=40 time=112
note_on channel=15 note=40 velocity=28 time=40
note_off channel=15 note=42 velocity=64 time=4
note_off channel=15 note=41 velocity=64 time=8
note_on channel=15 note=39 velocity=17 time=28
note_off channel=15 note=40 velocity=64 time=12
note_off channel=15 note=39 velocity=64 time=40
note_on channel=15 note=41 velocity=69 time=236
note_off channel=15 note=41 velocity=64 time=592
note_on channel=15 note=41 velocity=62 time=48
note_off channel=15 note=41 velocity=64 time=296
note_on channel=15 note=41 velocity=50 time=24
note_off channel=15 note=41 velocity=64 time=136
note_on channel=15 note=45 velocity=62 time=24
note_off channel=15 note=45 velocity=64 time=284
note_on channel=15 note=39 velocity=62 time=36
note_off channel=15 note=39 velocity=64 time=156
note_on channel=15 note=38 velocity=62 time=324
note_off channel=15 note=38 velocity=64 time=2020
note_on channel=15 note=43 velocity=69 time=380
note_on channel=15 note=42 velocity=30 time=112
note_on channel=15 note=41 velocity=20 time=40
note_off channel=15 note=43 velocity=64 time=4
note_off channel=15 note=42 velocity=64 time=8
note_off channel=15 note=41 velocity=64 time=40
note_on channel=15 note=43 velocity=69 time=276
note_off channel=15 note=43 velocity=64 time=580
note_on channel=15 note=43 velocity=69 time=60
note_off channel=15 note=43 velocity=64 time=168
note_on channel=15 note=48 velocity=69 time=632
note_on channel=15 note=47 velocity=32 time=112
note_on channel=15 note=46 velocity=23 time=40
note_off channel=15 note=48 velocity=64 time=4
note_off channel=15 note=47 velocity=64 time=8
note_off channel=15 note=46 velocity=64 time=40
note_on channel=15 note=48 velocity=69 time=276
note_off channel=15 note=48 velocity=64 time=580
note_on channel=15 note=48 velocity=69 time=60
note_off channel=15 note=48 velocity=64 time=168
note_on channel=15 note=48 velocity=62 time=632
note_off channel=15 note=48 velocity=64 time=444
note_on channel=15 note=48 velocity=65 time=36
note_off channel=15 note=48 velocity=64 time=444
note_on channel=15 note=51 velocity=69 time=36
note_off channel=15 note=51 velocity=64 time=444
note_on channel=15 note=48 velocity=61 time=36
note_off channel=15 note=48 velocity=64 time=136
note_on channel=15 note=51 velocity=72 time=24
note_off channel=15 note=51 velocity=64 time=148
note_on channel=15 note=48 velocity=60 time=12
note_off channel=15 note=48 velocity=64 time=148
note_on channel=15 note=53 velocity=74 time=12
note_off channel=15 note=53 velocity=64 time=924
note_on channel=15 note=41 velocity=69 time=36
note_off channel=15 note=41 velocity=64 time=604
note_on channel=15 note=46 velocity=62 time=36
note_off channel=15 note=46 velocity=64 time=284
note_on channel=15 note=46 velocity=65 time=36
note_off channel=15 note=46 velocity=64 time=124
note_on channel=15 note=48 velocity=81 time=12516
note_off channel=15 note=48 velocity=64 time=168
note_on channel=15 note=51 velocity=64 time=312
note_off channel=15 note=51 velocity=64 time=308
control_change channel=15 control=11 value=109 time=12
note_on channel=15 note=50 velocity=75 time=0
control_change channel=15 control=11 value=110 time=120
control_change channel=15 control=11 value=111 time=110
control_change channel=15 control=11 value=113 time=110
control_change channel=15 control=11 value=114 time=110
control_change channel=15 control=11 value=115 time=110
control_change channel=15 control=11 value=116 time=110
control_change channel=15 control=11 value=118 time=110
control_change channel=15 control=11 value=119 time=120
control_change channel=15 control=11 value=120 time=110
control_change channel=15 control=11 value=121 time=110
control_change channel=15 control=11 value=123 time=110
control_change channel=15 control=11 value=124 time=110
control_change channel=15 control=11 value=125 time=110
note_off channel=15 note=50 velocity=64 time=102
control_change channel=15 control=11 value=127 time=8
note_on channel=15 note=57 velocity=75 time=360
note_off channel=15 note=57 velocity=64 time=604
note_on channel=15 note=53 velocity=75 time=36
note_off channel=15 note=53 velocity=64 time=296
note_on channel=15 note=53 velocity=75 time=24
note_off channel=15 note=53 velocity=64 time=136
note_on channel=15 note=52 velocity=75 time=824
note_off channel=15 note=52 velocity=64 time=604
note_on channel=15 note=48 velocity=75 time=36
note_off channel=15 note=48 velocity=64 time=296
note_on channel=15 note=48 velocity=75 time=24
note_off channel=15 note=48 velocity=64 time=136
note_on channel=15 note=57 velocity=75 time=824
note_off channel=15 note=57 velocity=64 time=604
note_on channel=15 note=53 velocity=75 time=36
note_off channel=15 note=53 velocity=64 time=296
note_on channel=15 note=53 velocity=75 time=24
note_off channel=15 note=53 velocity=64 time=136
note_on channel=15 note=54 velocity=75 time=824
note_off channel=15 note=54 velocity=64 time=604
note_on channel=15 note=50 velocity=75 time=36
note_off channel=15 note=50 velocity=64 time=296
note_on channel=15 note=50 velocity=75 time=24
note_off channel=15 note=50 velocity=64 time=136
note_on channel=15 note=57 velocity=75 time=824
note_off channel=15 note=57 velocity=64 time=580
note_on channel=15 note=57 velocity=75 time=60
note_off channel=15 note=57 velocity=64 time=168
note_on channel=15 note=57 velocity=75 time=312
note_off channel=15 note=57 velocity=64 time=168
note_on channel=15 note=57 velocity=75 time=312
note_off channel=15 note=57 velocity=64 time=296
note_on channel=15 note=60 velocity=62 time=24
note_off channel=15 note=60 velocity=64 time=148
note_on channel=15 note=57 velocity=75 time=12
note_off channel=15 note=57 velocity=64 time=311
note_on channel=15 note=57 velocity=75 time=9
control_change channel=15 control=11 value=127 time=16
control_change channel=15 control=11 value=124 time=96
control_change channel=15 control=11 value=121 time=96
control_change channel=15 control=11 value=119 time=120
control_change channel=15 control=11 value=116 time=48
control_change channel=15 control=11 value=114 time=120
control_change channel=15 control=11 value=111 time=72
control_change channel=15 control=11 value=109 time=120
control_change channel=15 control=11 value=106 time=48
control_change channel=15 control=11 value=104 time=120
control_change channel=15 control=11 value=101 time=72
control_change channel=15 control=11 value=99 time=120
note_off channel=15 note=57 velocity=64 time=24
control_change channel=15 control=11 value=96 time=24
control_change channel=15 control=11 value=127 time=0
control_change channel=15 control=11 value=127 time=24
note_on channel=15 note=55 velocity=75 time=320
note_on channel=15 note=54 velocity=30 time=112
note_on channel=15 note=53 velocity=20 time=40
note_off channel=15 note=55 velocity=64 time=8
note_off channel=15 note=54 velocity=64 time=4
note_off channel=15 note=53 velocity=64 time=40
note_on channel=15 note=55 velocity=75 time=436
note_off channel=15 note=55 velocity=64 time=168
note_on channel=15 note=55 velocity=75 time=312
note_off channel=15 note=55 velocity=64 time=168
note_on channel=15 note=57 velocity=75 time=792
note_off channel=15 note=57 velocity=64 time=296
note_on channel=15 note=57 velocity=75 time=24
note_off channel=15 note=57 velocity=64 time=192
note_on channel=15 note=53 velocity=62 time=288
note_off channel=15 note=53 velocity=64 time=148
note_on channel=15 note=57 velocity=75 time=12
note_off channel=15 note=57 velocity=64 time=308
note_on channel=15 note=57 velocity=69 time=12
note_off channel=15 note=57 velocity=64 time=136
note_on channel=15 note=57 velocity=75 time=24
note_off channel=15 note=57 velocity=64 time=296
note_on channel=15 note=53 velocity=75 time=24
note_off channel=15 note=53 velocity=64 time=136
note_on channel=15 note=53 velocity=75 time=1944
note_off channel=15 note=53 velocity=64 time=168
note_on channel=15 note=52 velocity=75 time=312
note_off channel=15 note=52 velocity=64 time=296
note_on channel=15 note=52 velocity=75 time=24
note_off channel=15 note=52 velocity=64 time=180
note_on channel=15 note=57 velocity=75 time=300
note_on channel=15 note=59 velocity=54 time=1440
note_off channel=15 note=57 velocity=64 time=16
note_on channel=15 note=58 velocity=62 time=64
note_off channel=15 note=59 velocity=64 time=24
note_on channel=15 note=57 velocity=74 time=56
note_off channel=15 note=58 velocity=64 time=24
note_off channel=15 note=57 velocity=64 time=284
note_on channel=15 note=50 velocity=75 time=12
pitchwheel channel=15 pitch=0 time=160
control_change channel=15 control=11 value=127 time=0
pitchwheel channel=15 pitch=242 time=12
control_change channel=15 control=11 value=124 time=72
control_change channel=15 control=11 value=121 time=72
pitchwheel channel=15 pitch=0 time=48
control_change channel=15 control=11 value=119 time=60
control_change channel=15 control=11 value=116 time=48
pitchwheel channel=15 pitch=-82 time=36
control_change channel=15 control=11 value=114 time=72
pitchwheel channel=15 pitch=-244 time=24
control_change channel=15 control=11 value=111 time=24
pitchwheel channel=15 pitch=-407 time=48
pitchwheel channel=15 pitch=-569 time=60
control_change channel=15 control=11 value=109 time=0
control_change channel=15 control=11 value=106 time=48
pitchwheel channel=15 pitch=-731 time=12
pitchwheel channel=15 pitch=-893 time=36
pitchwheel channel=15 pitch=-1055 time=48
control_change channel=15 control=11 value=104 time=12
pitchwheel channel=15 pitch=-1218 time=24
pitchwheel channel=15 pitch=-1380 time=24
control_change channel=15 control=11 value=101 time=0
pitchwheel channel=15 pitch=-1542 time=36
pitchwheel channel=15 pitch=-1704 time=24
pitchwheel channel=15 pitch=-1866 time=12
pitchwheel channel=15 pitch=-2029 time=24
pitchwheel channel=15 pitch=-2191 time=12
control_change channel=15 control=11 value=99 time=0
pitchwheel channel=15 pitch=-2353 time=12
note_off channel=15 note=50 velocity=64 time=12
pitchwheel channel=15 pitch=-2515 time=0
pitchwheel channel=15 pitch=-2840 time=12
control_change channel=15 control=11 value=96 time=12
control_change channel=15 control=11 value=127 time=24
pitchwheel channel=15 pitch=0 time=0
note_on channel=15 note=43 velocity=75 time=1280
note_off channel=15 note=43 velocity=64 time=604
note_on channel=15 note=43 velocity=75 time=36
note_off channel=15 note=43 velocity=64 time=180
note_on channel=15 note=43 velocity=75 time=300
note_off channel=15 note=43 velocity=64 time=296
note_on channel=15 note=48 velocity=75 time=24
note_off channel=15 note=48 velocity=64 time=136
note_on channel=15 note=48 velocity=75 time=344
note_off channel=15 note=48 velocity=64 time=180
note_on channel=15 note=55 velocity=69 time=300
note_off channel=15 note=55 velocity=64 time=148
note_on channel=15 note=48 velocity=75 time=12
note_off channel=15 note=48 velocity=64 time=456
note_on channel=15 note=46 velocity=75 time=24
note_off channel=15 note=46 velocity=64 time=156
note_on channel=15 note=57 velocity=81 time=804
note_off channel=15 note=57 velocity=64 time=912
note_on channel=15 note=57 velocity=75 time=48
note_off channel=15 note=57 velocity=64 time=180
control_change channel=15 control=11 value=104 time=300
note_on channel=15 note=55 velocity=81 time=0
control_change channel=15 control=11 value=106 time=108
control_change channel=15 control=11 value=109 time=108
note_off channel=15 note=55 velocity=64 time=92
note_on channel=15 note=55 velocity=81 time=12
control_change channel=15 control=11 value=111 time=4
control_change channel=15 control=11 value=114 time=108
control_change channel=15 control=11 value=116 time=108
control_change channel=15 control=11 value=119 time=108
control_change channel=15 control=11 value=121 time=108
control_change channel=15 control=11 value=124 time=108
note_off channel=15 note=55 velocity=64 time=60
control_change channel=15 control=11 value=127 time=36
control_change channel=15 control=11 value=127 time=0
note_on channel=15 note=54 velocity=81 time=0
control_change channel=15 control=11 value=124 time=84
control_change channel=15 control=11 value=121 time=84
control_change channel=15 control=11 value=119 time=108
note_off channel=15 note=54 velocity=64 time=32
note_on channel=15 note=44 velocity=81 time=12
control_change channel=15 control=11 value=116 time=4
control_change channel=15 control=11 value=114 time=108
control_change channel=15 control=11 value=111 time=48
control_change channel=15 control=11 value=109 time=108
control_change channel=15 control=11 value=106 time=60
control_change channel=15 control=11 value=104 time=108
control_change channel=15 control=11 value=101 time=48
note_off channel=15 note=44 velocity=64 time=108
control_change channel=15 control=11 value=127 time=72
note_on channel=15 note=36 velocity=56 time=1736
control_change channel=15 control=11 value=127 time=232
control_change channel=15 control=11 value=121 time=24
control_change channel=15 control=11 value=115 time=24
control_change channel=15 control=11 value=109 time=24
control_change channel=15 control=11 value=103 time=24
control_change channel=15 control=11 value=96 time=24
control_change channel=15 control=11 value=90 time=24
control_change channel=15 control=11 value=84 time=24
control_change channel=15 control=11 value=84 time=24
control_change channel=15 control=11 value=86 time=120
control_change channel=15 control=11 value=89 time=48
control_change channel=15 control=11 value=93 time=120
control_change channel=15 control=11 value=95 time=120
control_change channel=15 control=11 value=98 time=48
control_change channel=15 control=11 value=101 time=120
control_change channel=15 control=11 value=104 time=96
control_change channel=15 control=11 value=108 time=120
control_change channel=15 control=11 value=111 time=120
control_change channel=15 control=11 value=114 time=72
control_change channel=15 control=11 value=116 time=120
control_change channel=15 control=11 value=119 time=48
control_change channel=15 control=11 value=123 time=120
control_change channel=15 control=11 value=127 time=120
note_off channel=15 note=36 velocity=64 time=80
note_on channel=15 note=41 velocity=56 time=24
note_off channel=15 note=41 velocity=64 time=136
note_on channel=15 note=38 velocity=56 time=1784
control_change channel=15 control=11 value=127 time=232
control_change channel=15 control=11 value=121 time=24
control_change channel=15 control=11 value=115 time=24
control_change channel=15 control=11 value=109 time=24
control_change channel=15 control=11 value=103 time=24
control_change channel=15 control=11 value=96 time=24
control_change channel=15 control=11 value=90 time=24
control_change channel=15 control=11 value=84 time=24
control_change channel=15 control=11 value=84 time=24
control_change channel=15 control=11 value=86 time=120
control_change channel=15 control=11 value=89 time=48
control_change channel=15 control=11 value=93 time=120
control_change channel=15 control=11 value=95 time=120
control_change channel=15 control=11 value=98 time=48
control_change channel=15 control=11 value=101 time=120
control_change channel=15 control=11 value=104 time=96
control_change channel=15 control=11 value=108 time=120
control_change channel=15 control=11 value=111 time=120
control_change channel=15 control=11 value=114 time=72
control_change channel=15 control=11 value=116 time=120
control_change channel=15 control=11 value=119 time=48
control_change channel=15 control=11 value=123 time=120
control_change channel=15 control=11 value=127 time=120
note_off channel=15 note=38 velocity=64 time=80
note_on channel=15 note=43 velocity=56 time=24
note_off channel=15 note=43 velocity=64 time=136
note_on channel=15 note=36 velocity=56 time=1784
control_change channel=15 control=11 value=127 time=232
control_change channel=15 control=11 value=121 time=24
control_change channel=15 control=11 value=115 time=24
control_change channel=15 control=11 value=109 time=24
control_change channel=15 control=11 value=103 time=24
control_change channel=15 control=11 value=96 time=24
control_change channel=15 control=11 value=90 time=24
control_change channel=15 control=11 value=84 time=24
control_change channel=15 control=11 value=84 time=24
control_change channel=15 control=11 value=86 time=120
control_change channel=15 control=11 value=89 time=48
control_change channel=15 control=11 value=93 time=120
control_change channel=15 control=11 value=95 time=120
control_change channel=15 control=11 value=98 time=48
control_change channel=15 control=11 value=101 time=120
control_change channel=15 control=11 value=104 time=96
control_change channel=15 control=11 value=108 time=120
control_change channel=15 control=11 value=111 time=120
control_change channel=15 control=11 value=114 time=72
control_change channel=15 control=11 value=116 time=120
control_change channel=15 control=11 value=119 time=48
control_change channel=15 control=11 value=123 time=120
control_change channel=15 control=11 value=127 time=120
note_off channel=15 note=36 velocity=64 time=80
note_on channel=15 note=50 velocity=69 time=504
note_off channel=15 note=50 velocity=64 time=580
note_on channel=15 note=48 velocity=69 time=60
note_off channel=15 note=48 velocity=64 time=144
note_on channel=15 note=43 velocity=69 time=336
note_off channel=15 note=43 velocity=64 time=144
note_on channel=15 note=47 velocity=69 time=336
note_off channel=15 note=47 velocity=64 time=444
note_on channel=15 note=46 velocity=69 time=36
note_off channel=15 note=46 velocity=64 time=284
note_on channel=15 note=45 velocity=69 time=36
note_off channel=15 note=45 velocity=64 time=124
note_on channel=15 note=53 velocity=75 time=1316
note_off channel=15 note=53 velocity=64 time=168
note_on channel=15 note=55 velocity=75 time=312
note_off channel=15 note=55 velocity=64 time=136
note_on channel=15 note=55 velocity=75 time=24
note_off channel=15 note=55 velocity=64 time=168
note_on channel=15 note=55 velocity=75 time=312
note_off channel=15 note=55 velocity=64 time=168
control_change channel=15 control=93 value=30 time=312
note_on channel=15 note=56 velocity=75 time=0
note_off channel=15 note=56 velocity=64 time=444
note_on channel=15 note=56 velocity=75 time=36
note_off channel=15 note=56 velocity=64 time=296
note_on channel=15 note=55 velocity=75 time=24
note_off channel=15 note=55 velocity=64 time=136
note_on channel=15 note=50 velocity=75 time=824
note_off channel=15 note=50 velocity=64 time=604
note_on channel=15 note=53 velocity=75 time=36
note_off channel=15 note=53 velocity=64 time=296
note_on channel=15 note=50 velocity=64 time=24
note_off channel=15 note=50 velocity=64 time=136
note_on channel=15 note=57 velocity=75 time=24
note_off channel=15 note=57 velocity=64 time=284
note_on channel=15 note=57 velocity=75 time=36
note_off channel=15 note=57 velocity=64 time=168
note_on channel=15 note=57 velocity=75 time=312
note_off channel=15 note=57 velocity=64 time=604
note_on channel=15 note=57 velocity=75 time=36
note_off channel=15 note=57 velocity=64 time=296
note_on channel=15 note=58 velocity=75 time=24
note_off channel=15 note=58 velocity=64 time=124
note_on channel=15 note=43 velocity=75 time=1316
note_off channel=15 note=43 velocity=64 time=568
note_on channel=15 note=43 velocity=75 time=72
note_off channel=15 note=43 velocity=64 time=156
note_on channel=15 note=43 velocity=75 time=324
note_off channel=15 note=43 velocity=64 time=156
note_on channel=15 note=48 velocity=75 time=324
note_off channel=15 note=48 velocity=64 time=782
note_on channel=15 note=48 velocity=75 time=18
note_off channel=15 note=48 velocity=64 time=1060
note_on channel=15 note=48 velocity=69 time=380
note_off channel=15 note=48 velocity=64 time=1576
note_on channel=15 note=45 velocity=69 time=24
note_off channel=15 note=45 velocity=64 time=1838
note_on channel=15 note=41 velocity=40 time=6642
control_change channel=15 control=11 value=127 time=1120
control_change channel=15 control=11 value=125 time=120
control_change channel=15 control=11 value=124 time=120
control_change channel=15 control=11 value=123 time=120
control_change channel=15 control=11 value=121 time=120
control_change channel=15 control=11 value=120 time=120
control_change channel=15 control=11 value=119 time=120
control_change channel=15 control=11 value=118 time=120
control_change channel=15 control=11 value=116 time=120
control_change channel=15 control=11 value=115 time=120
control_change channel=15 control=11 value=114 time=120
control_change channel=15 control=11 value=113 time=120
control_change channel=15 control=11 value=111 time=120
control_change channel=15 control=11 value=110 time=120
control_change channel=15 control=11 value=109 time=120
control_change channel=15 control=11 value=108 time=120
control_change channel=15 control=11 value=106 time=120
control_change channel=15 control=11 value=105 time=120
control_change channel=15 control=11 value=104 time=120
control_change channel=15 control=11 value=103 time=120
control_change channel=15 control=11 value=101 time=120
control_change channel=15 control=11 value=100 time=120
control_change channel=15 control=11 value=99 time=120
control_change channel=15 control=11 value=98 time=120
note_off channel=15 note=41 velocity=64 time=96
<meta message end_of_track time=0>
<meta message text text='Have A Nice Day' time=0>
<meta message smpte_offset frame_rate=25 hours=32 minutes=0 seconds=0 frames=0 sub_frames=0 time=0>
<meta message time_signature numerator=4 denominator=4 clocks_per_click=24 notated_32nd_notes_per_beat=8 time=0>
<meta message set_tempo tempo=500000 time=0>
<meta message text text='"Have A Nice Day"' time=5760>
<meta message text text='Sequenced for GMIDI by' time=0>
<meta message text text='GaryW0001 (@AOL.com)' time=0>
<meta message text text='Composed & Arranged ' time=0>
<meta message text text='by Sammy Nestico' time=0>
<meta message text text='©1996 Blue Max Distribution' time=0>
<meta message end_of_track time=0>
<meta message text text='-<>-<>-<>-<>-' time=0>
<meta message channel_prefix channel=0 time=0>
<meta message end_of_track time=0>
<meta message text text='   "Have A' time=0>
<meta message channel_prefix channel=0 time=0>
<meta message end_of_track time=0>
<meta message text text='   Nice Day"' time=0>
<meta message channel_prefix channel=0 time=0>
<meta message end_of_track time=0>
<meta message text text='Transcribed ' time=0>
<meta message channel_prefix channel=0 time=0>
<meta message end_of_track time=0>
<meta message text text='& Sequenced' time=0>
<meta message channel_prefix channel=0 time=0>
<meta message end_of_track time=0>
<meta message text text='for GMIDI by' time=0>
<meta message channel_prefix channel=0 time=0>
<meta message end_of_track time=0>
<meta message text text='GaryW0001' time=0>
<meta message channel_prefix channel=0 time=0>
<meta message end_of_track time=0>
<meta message text text='Composed and' time=0>
<meta message channel_prefix channel=0 time=0>
<meta message end_of_track time=0>
<meta message text text='Arranged by' time=0>
<meta message channel_prefix channel=0 time=0>
<meta message end_of_track time=0>
<meta message text text='Sammy Nestico' time=0>
<meta message channel_prefix channel=0 time=0>
<meta message end_of_track time=0>
<meta message text text='Tempo = 120' time=0>
<meta message channel_prefix channel=0 time=0>
<meta message end_of_track time=0>
<meta message text text='Comments??' time=0>
<meta message channel_prefix channel=0 time=0>
<meta message end_of_track time=0>
<meta message text text='-<>-<>-<>-<>-' time=0>
<meta message channel_prefix channel=0 time=0>
<meta message end_of_track time=0>
<meta message text text='Jazz/Brush Kit' time=0>
control_change channel=9 control=11 value=96 time=0
control_change channel=9 control=7 value=94 time=0
control_change channel=9 control=10 value=45 time=0
control_change channel=9 control=91 value=75 time=0
control_change channel=9 control=93 value=5 time=0
control_change channel=9 control=0 value=62 time=0
control_change channel=9 control=32 value=0 time=0
program_change channel=9 program=32 time=0
note_on channel=9 note=37 velocity=84 time=1920
note_off channel=9 note=37 velocity=64 time=480
note_on channel=9 note=37 velocity=84 time=480
note_off channel=9 note=37 velocity=64 time=480
note_on channel=9 note=37 velocity=64 time=480
note_off channel=9 note=37 velocity=64 time=480
note_on channel=9 note=37 velocity=84 time=0
note_off channel=9 note=37 velocity=64 time=480
note_on channel=9 note=37 velocity=64 time=0
note_off channel=9 note=37 velocity=64 time=480
note_on channel=9 note=37 velocity=84 time=0
note_off channel=9 note=37 velocity=64 time=480
note_on channel=9 note=51 velocity=75 time=0
note_off channel=9 note=51 velocity=64 time=100
note_on channel=9 note=51 velocity=90 time=380
note_on channel=9 note=42 velocity=70 time=0
note_off channel=9 note=51 velocity=64 time=100
note_off channel=9 note=42 velocity=64 time=0
note_on channel=9 note=51 velocity=60 time=256
note_off channel=9 note=51 velocity=64 time=100
note_on channel=9 note=51 velocity=80 time=24
note_off channel=9 note=51 velocity=64 time=100
note_on channel=9 note=51 velocity=90 time=380
note_on channel=9 note=37 velocity=70 time=0
note_on channel=9 note=42 velocity=70 time=0
note_off channel=9 note=51 velocity=64 time=100
note_off channel=9 note=42 velocity=64 time=0
note_off channel=9 note=37 velocity=64 time=0
note_on channel=9 note=51 velocity=60 time=256
note_off channel=9 note=51 velocity=64 time=100
note_on channel=9 note=51 velocity=80 time=24
note_off channel=9 note=51 velocity=64 time=100
note_on channel=9 note=51 velocity=90 time=380
note_on channel=9 note=42 velocity=70 time=0
note_off channel=9 note=51 velocity=64 time=100
note_off channel=9 note=42 velocity=64 time=0
note_on channel=9 note=51 velocity=60 time=256
note_off channel=9 note=51 velocity=64 time=100
note_on channel=9 note=51 velocity=80 time=24
note_on channel=9 note=48 velocity=61 time=0
note_off channel=9 note=48 velocity=64 time=58
note_off channel=9 note=51 velocity=64 time=42
note_on channel=9 note=48 velocity=53 time=20
note_off channel=9 note=48 velocity=64 time=57
note_on channel=9 note=38 velocity=20 time=179
note_on channel=9 note=36 velocity=74 time=4
note_off channel=9 note=36 velocity=64 time=59
note_off channel=9 note=38 velocity=64 time=37
note_on channel=9 note=51 velocity=90 time=24
note_on channel=9 note=37 velocity=70 time=0
note_on channel=9 note=42 velocity=70 time=0
note_on channel=9 note=38 velocity=40 time=0
note_on channel=9 note=47 velocity=103 time=0
note_off channel=9 note=47 velocity=64 time=56
note_off channel=9 note=37 velocity=64 time=44
note_off channel=9 note=38 velocity=64 time=0
note_off channel=9 note=42 velocity=64 time=0
note_off channel=9 note=51 velocity=64 time=0
note_on channel=9 note=47 velocity=68 time=20
note_off channel=9 note=47 velocity=64 time=57
note_on channel=9 note=51 velocity=60 time=179
note_on channel=9 note=36 velocity=65 time=4
note_off channel=9 note=36 velocity=64 time=57
note_off channel=9 note=51 velocity=64 time=39
control_change channel=9 control=11 value=96 time=24
note_on channel=9 note=51 velocity=80 time=0
note_on channel=9 note=40 velocity=109 time=0
note_off channel=9 note=40 velocity=64 time=58
note_off channel=9 note=51 velocity=64 time=42
note_on channel=9 note=51 velocity=90 time=380
note_on channel=9 note=42 velocity=70 time=0
note_off channel=9 note=51 velocity=64 time=100
note_off channel=9 note=42 velocity=64 time=0
control_change channel=9 control=11 value=98 time=188
note_on channel=9 note=51 velocity=60 time=68
note_off channel=9 note=51 velocity=64 time=100
note_on channel=9 note=51 velocity=80 time=24
note_off channel=9 note=51 velocity=64 time=100
note_on channel=9 note=51 velocity=90 time=380
note_on channel=9 note=37 velocity=70 time=0
note_on channel=9 note=42 velocity=70 time=0
control_change channel=9 control=11 value=99 time=96
note_off channel=9 note=51 velocity=64 time=4
note_off channel=9 note=42 velocity=64 time=0
note_off channel=9 note=37 velocity=64 time=0
note_on channel=9 note=51 velocity=60 time=256
note_off channel=9 note=51 velocity=64 time=100
note_on channel=9 note=51 velocity=80 time=24
note_off channel=9 note=51 velocity=64 time=100
control_change channel=9 control=11 value=100 time=284
note_on channel=9 note=51 velocity=90 time=96
note_on channel=9 note=42 velocity=70 time=0
note_off channel=9 note=51 velocity=64 time=100
note_off channel=9 note=42 velocity=64 time=0
note_on channel=9 note=51 velocity=60 time=256
note_off channel=9 note=51 velocity=64 time=100
note_on channel=9 note=51 velocity=90 time=24
note_on channel=9 note=35 velocity=70 time=0
note_off channel=9 note=51 velocity=64 time=100
note_off channel=9 note=35 velocity=64 time=0
note_on channel=9 note=45 velocity=100 time=60
note_on channel=9 note=38 velocity=90 time=0
control_change channel=9 control=11 value=101 time=32
note_off channel=9 note=45 velocity=64 time=68
note_off channel=9 note=38 velocity=64 time=0
note_on channel=9 note=42 velocity=1 time=76
note_on channel=9 note=35 velocity=80 time=0
note_off channel=9 note=42 velocity=64 time=100
note_off channel=9 note=35 velocity=64 time=0
note_on channel=9 note=48 velocity=90 time=44
note_on channel=9 note=42 velocity=100 time=0
note_on channel=9 note=38 velocity=80 time=0
note_on channel=9 note=51 velocity=90 time=0
note_off channel=9 note=48 velocity=64 time=100
note_off channel=9 note=51 velocity=64 time=0
note_off channel=9 note=38 velocity=64 time=0
note_off channel=9 note=42 velocity=64 time=0
note_on channel=9 note=45 velocity=70 time=60
note_off channel=9 note=45 velocity=64 time=100
note_on channel=9 note=41 velocity=90 time=76
note_on channel=9 note=35 velocity=70 time=0
note_on channel=9 note=51 velocity=60 time=20
note_on channel=9 note=38 velocity=81 time=44
note_off channel=9 note=41 velocity=64 time=36
note_off channel=9 note=35 velocity=64 time=0
note_off channel=9 note=38 velocity=64 time=4
note_on channel=9 note=38 velocity=81 time=0
note_off channel=9 note=51 velocity=64 time=16
note_off channel=9 note=38 velocity=64 time=24
control_change channel=9 control=11 value=103 time=0
note_on channel=9 note=51 velocity=99 time=0
note_on channel=9 note=40 velocity=99 time=0
note_on channel=9 note=38 velocity=99 time=0
note_on channel=9 note=35 velocity=99 time=0
note_off channel=9 note=51 velocity=64 time=100
note_off channel=9 note=35 velocity=64 time=0
note_off channel=9 note=38 velocity=64 time=0
note_off channel=9 note=40 velocity=64 time=0
note_on channel=9 note=49 velocity=106 time=220
note_on channel=9 note=51 velocity=100 time=160
note_on channel=9 note=42 velocity=70 time=0
note_off channel=9 note=51 velocity=64 time=100
note_off channel=9 note=42 velocity=64 time=0
control_change channel=9 control=11 value=104 time=188
note_on channel=9 note=51 velocity=80 time=192
note_off channel=9 note=51 velocity=64 time=100
note_on channel=9 note=51 velocity=100 time=380
note_on channel=9 note=37 velocity=70 time=0
note_on channel=9 note=42 velocity=70 time=0
control_change channel=9 control=11 value=105 time=96
note_off channel=9 note=51 velocity=64 time=4
note_off channel=9 note=42 velocity=64 time=0
note_off channel=9 note=37 velocity=64 time=0
note_off channel=9 note=49 velocity=64 time=356
note_on channel=9 note=51 velocity=80 time=24
note_off channel=9 note=51 velocity=64 time=100
control_change channel=9 control=11 value=106 time=284
note_on channel=9 note=51 velocity=90 time=96
note_on channel=9 note=42 velocity=70 time=0
note_off channel=9 note=51 velocity=64 time=100
note_off channel=9 note=42 velocity=64 time=0
note_on channel=9 note=51 velocity=80 time=380
note_off channel=9 note=51 velocity=64 time=100
control_change channel=9 control=11 value=108 time=92
note_on channel=9 note=38 velocity=81 time=208
note_off channel=9 note=38 velocity=64 time=40
note_on channel=9 note=38 velocity=81 time=0
note_off channel=9 note=38 velocity=64 time=40
note_on channel=9 note=38 velocity=93 time=0
note_on channel=9 note=35 velocity=93 time=0
note_off channel=9 note=38 velocity=64 time=116
note_off channel=9 note=35 velocity=64 time=0
note_on channel=9 note=38 velocity=93 time=204
note_on channel=9 note=35 velocity=93 time=0
note_off channel=9 note=38 velocity=64 time=136
note_off channel=9 note=35 velocity=64 time=0
control_change channel=9 control=11 value=109 time=24
control_change channel=9 control=11 value=108 time=240
note_on channel=9 note=38 velocity=81 time=80
note_off channel=9 note=38 velocity=64 time=136
control_change channel=9 control=11 value=106 time=24
note_on channel=9 note=35 velocity=86 time=0
note_on channel=9 note=51 velocity=90 time=0
note_on channel=9 note=42 velocity=70 time=0
note_off channel=9 note=35 velocity=64 time=100
note_off channel=9 note=42 velocity=64 time=0
note_off channel=9 note=51 velocity=64 time=0
control_change channel=9 control=11 value=105 time=140
note_on channel=9 note=51 velocity=60 time=112
note_off channel=9 note=51 velocity=64 time=100
control_change channel=9 control=11 value=104 time=28
note_on channel=9 note=51 velocity=80 time=0
note_off channel=9 note=51 velocity=64 time=100
control_change channel=9 control=11 value=103 time=140
control_change channel=9 control=11 value=101 time=240
note_on channel=9 note=51 velocity=90 time=0
note_on channel=9 note=37 velocity=60 time=0
note_on channel=9 note=42 velocity=70 time=0
note_off channel=9 note=51 velocity=64 time=100
note_off channel=9 note=42 velocity=64 time=0
note_off channel=9 note=37 velocity=64 time=0
control_change channel=9 control=11 value=100 time=140
note_on channel=9 note=51 velocity=60 time=112
note_off channel=9 note=51 velocity=64 time=100
control_change channel=9 control=11 value=99 time=28
note_on channel=9 note=51 velocity=80 time=0
note_off channel=9 note=51 velocity=64 time=100
control_change channel=9 control=11 value=98 time=140
control_change channel=9 control=11 value=96 time=240
note_on channel=9 note=51 velocity=90 time=0
note_on channel=9 note=42 velocity=70 time=0
note_off channel=9 note=51 velocity=64 time=100
note_off channel=9 note=42 velocity=64 time=0
control_change channel=9 control=11 value=95 time=140
note_on channel=9 note=51 velocity=60 time=116
note_off channel=9 note=51 velocity=64 time=100
control_change channel=9 control=11 value=94 time=24
note_on channel=9 note=51 velocity=80 time=0
note_off channel=9 note=51 velocity=64 time=100
control_change channel=9 control=11 value=93 time=140
note_on channel=9 note=38 velocity=20 time=116
note_off channel=9 note=38 velocity=64 time=100
control_change channel=9 control=11 value=91 time=24
note_on channel=9 note=51 velocity=90 time=0
note_on channel=9 note=37 velocity=70 time=0
note_on channel=9 note=42 velocity=70 time=0
note_on channel=9 note=38 velocity=40 time=0
note_off channel=9 note=51 velocity=64 time=100
note_off channel=9 note=38 velocity=64 time=0
note_off channel=9 note=42 velocity=64 time=0
note_off channel=9 note=37 velocity=64 time=0
control_change channel=9 control=11 value=90 time=140
note_on channel=9 note=51 velocity=60 time=116
control_change channel=9 control=0 value=62 time=1
control_change channel=9 control=32 value=0 time=0
program_change channel=9 program=40 time=0
note_off channel=9 note=51 velocity=64 time=99
control_change channel=9 control=11 value=89 time=24
note_on channel=9 note=49 velocity=45 time=0
note_on channel=9 note=51 velocity=80 time=0
note_off channel=9 note=49 velocity=64 time=100
note_off channel=9 note=51 velocity=64 time=0
note_on channel=9 note=51 velocity=100 time=380
note_on channel=9 note=42 velocity=70 time=0
note_off channel=9 note=51 velocity=64 time=100
note_off channel=9 note=42 velocity=64 time=0
note_on channel=9 note=51 velocity=80 time=380
note_off channel=9 note=51 velocity=64 time=100
note_on channel=9 note=51 velocity=100 time=380
note_on channel=9 note=37 velocity=70 time=0
note_on channel=9 note=42 velocity=70 time=0
note_off channel=9 note=51 velocity=64 time=100
note_off channel=9 note=42 velocity=64 time=0
note_off channel=9 note=37 velocity=64 time=0
note_on channel=9 note=51 velocity=80 time=380
note_off channel=9 note=51 velocity=64 time=100
note_on channel=9 note=51 velocity=90 time=380
note_on channel=9 note=42 velocity=70 time=0
note_off channel=9 note=51 velocity=64 time=100
note_off channel=9 note=42 velocity=64 time=0
note_on channel=9 note=51 velocity=80 time=380
note_off channel=9 note=51 velocity=64 time=100
note_on channel=9 note=51 velocity=90 time=380
note_on channel=9 note=37 velocity=70 time=0
note_on channel=9 note=42 velocity=70 time=0
note_off channel=9 note=51 velocity=64 time=100
note_off channel=9 note=42 velocity=64 time=0
note_off channel=9 note=37 velocity=64 time=0
note_on channel=9 note=51 velocity=80 time=380
note_off channel=9 note=51 velocity=64 time=100
note_on channel=9 note=51 velocity=90 time=380
note_on channel=9 note=42 velocity=70 time=0
note_off channel=9 note=51 velocity=64 time=100
note_off channel=9 note=42 velocity=64 time=0
note_on channel=9 note=51 velocity=60 time=252
note_off channel=9 note=51 velocity=64 time=100
note_on channel=9 note=51 velocity=80 time=28
note_off channel=9 note=51 velocity=64 time=100
note_on channel=9 note=51 velocity=90 time=380
note_on channel=9 note=37 velocity=60 time=0
note_on channel=9 note=42 velocity=70 time=0
note_off channel=9 note=51 velocity=64 time=100
note_off channel=9 note=42 velocity=64 time=0
note_off channel=9 note=37 velocity=64 time=0
note_on channel=9 note=51 velocity=60 time=252
note_off channel=9 note=51 velocity=64 time=100
note_on channel=9 note=51 velocity=80 time=28
note_off channel=9 note=51 velocity=64 time=100
note_on channel=9 note=51 velocity=100 time=380
note_on channel=9 note=42 velocity=70 time=0
note_off channel=9 note=51 velocity=64 time=100
note_off channel=9 note=42 velocity=64 time=0
note_on channel=9 note=51 velocity=80 time=380
note_off channel=9 note=51 velocity=64 time=100
note_on channel=9 note=51 velocity=100 time=380
note_on channel=9 note=37 velocity=70 time=0
note_on channel=9 note=42 velocity=70 time=0
note_off channel=9 note=51 velocity=64 time=100
note_off channel=9 note=42 velocity=64 time=0
note_off channel=9 note=37 velocity=64 time=0
note_on channel=9 note=51 velocity=80 time=380
note_off channel=9 note=51 velocity=64 time=100
note_on channel=9 note=51 velocity=90 time=380
note_on channel=9 note=42 velocity=70 time=0
note_off channel=9 note=51 velocity=64 time=100
note_off channel=9 note=42 velocity=64 time=0
note_on channel=9 note=51 velocity=60 time=252
note_off channel=9 note=51 velocity=64 time=100
note_on channel=9 note=51 velocity=80 time=28
note_off channel=9 note=51 velocity=64 time=100
note_on channel=9 note=51 velocity=90 time=380
note_on channel=9 note=37 velocity=60 time=0
note_on channel=9 note=42 velocity=70 time=0
note_off channel=9 note=51 velocity=64 time=100
note_off channel=9 note=42 velocity=64 time=0
note_off channel=9 note=37 velocity=64 time=0
note_on channel=9 note=51 velocity=60 time=252
note_off channel=9 note=51 velocity=64 time=100
note_on channel=9 note=51 velocity=80 time=28
note_off channel=9 note=51 velocity=64 time=100
note_on channel=9 note=51 velocity=100 time=380
note_on channel=9 note=42 velocity=70 time=0
note_off channel=9 note=51 velocity=64 time=100
note_off channel=9 note=42 velocity=64 time=0
note_on channel=9 note=51 velocity=80 time=380
note_off channel=9 note=51 velocity=64 time=100
note_on channel=9 note=51 velocity=100 time=380
note_on channel=9 note=37 velocity=70 time=0
note_on channel=9 note=42 velocity=70 time=0
note_off channel=9 note=51 velocity=64 time=100
note_off channel=9 note=42 velocity=64 time=0
note_off channel=9 note=37 velocity=64 time=0
note_on channel=9 note=51 velocity=80 time=380
note_off channel=9 note=51 velocity=64 time=100
note_on channel=9 note=51 velocity=90 time=380
note_on channel=9 note=42 velocity=70 time=0
note_off channel=9 note=51 velocity=64 time=100
note_off channel=9 note=42 velocity=64 time=0
note_on channel=9 note=51 velocity=60 time=256
note_off channel=9 note=51 velocity=64 time=100
note_on channel=9 note=51 velocity=80 time=24
note_off channel=9 note=51 velocity=64 time=100
note_on channel=9 note=51 velocity=90 time=380
note_on channel=9 note=37 velocity=70 time=0
note_on channel=9 note=42 velocity=70 time=0
note_off channel=9 note=51 velocity=64 time=100
note_off channel=9 note=42 velocity=64 time=0
note_off channel=9 note=37 velocity=64 time=0
note_on channel=9 note=51 velocity=60 time=256
note_off channel=9 note=51 velocity=64 time=100
note_on channel=9 note=51 velocity=80 time=24
note_off channel=9 note=51 velocity=64 time=100
note_on channel=9 note=51 velocity=90 time=380
note_on channel=9 note=42 velocity=70 time=0
note_off channel=9 note=51 velocity=64 time=100
note_off channel=9 note=42 velocity=64 time=0
note_on channel=9 note=51 velocity=60 time=256
note_off channel=9 note=51 velocity=64 time=100
note_on channel=9 note=51 velocity=80 time=24
note_off channel=9 note=51 velocity=64 time=100
note_on channel=9 note=38 velocity=20 time=256
note_off channel=9 note=38 velocity=64 time=100
note_on channel=9 note=51 velocity=90 time=24
note_on channel=9 note=37 velocity=70 time=0
note_on channel=9 note=42 velocity=70 time=0
note_on channel=9 note=38 velocity=40 time=0
note_off channel=9 note=51 velocity=64 time=100
note_off channel=9 note=38 velocity=64 time=0
note_off channel=9 note=42 velocity=64 time=0
note_off channel=9 note=37 velocity=64 time=0
note_on channel=9 note=51 velocity=60 time=256
note_off channel=9 note=51 velocity=64 time=100
note_on channel=9 note=51 velocity=80 time=24
note_off channel=9 note=51 velocity=64 time=100
note_on channel=9 note=51 velocity=90 time=380
note_on channel=9 note=42 velocity=70 time=0
note_off channel=9 note=51 velocity=64 time=100
note_off channel=9 note=42 velocity=64 time=0
note_on channel=9 note=51 velocity=60 time=256
note_off channel=9 note=51 velocity=64 time=100
note_on channel=9 note=51 velocity=80 time=24
note_off channel=9 note=51 velocity=64 time=100
note_on channel=9 note=51 velocity=90 time=380
note_on channel=9 note=37 velocity=70 time=0
note_on channel=9 note=42 velocity=70 time=0
note_off channel=9 note=51 velocity=64 time=100
note_off channel=9 note=42 velocity=64 time=0
note_off channel=9 note=37 velocity=64 time=0
note_on channel=9 note=51 velocity=60 time=256
note_off channel=9 note=51 velocity=64 time=100
note_on channel=9 note=51 velocity=80 time=24
note_off channel=9 note=51 velocity=64 time=100
note_on channel=9 note=51 velocity=90 time=380
note_on channel=9 note=42 velocity=70 time=0
note_off channel=9 note=51 velocity=64 time=100
note_off channel=9 note=42 velocity=64 time=0
note_on channel=9 note=51 velocity=80 time=380
note_off channel=9 note=51 velocity=64 time=100
note_on channel=9 note=51 velocity=90 time=380
note_on channel=9 note=37 velocity=70 time=0
note_on channel=9 note=42 velocity=70 time=0
note_off channel=9 note=51 velocity=64 time=100
note_off channel=9 note=42 velocity=64 time=0
note_off channel=9 note=37 velocity=64 time=0
note_on channel=9 note=51 velocity=80 time=380
note_off channel=9 note=51 velocity=64 time=100
note_on channel=9 note=51 velocity=90 time=380
note_on channel=9 note=42 velocity=70 time=0
note_off channel=9 note=51 velocity=64 time=100
note_off channel=9 note=42 velocity=64 time=0
note_on channel=9 note=51 velocity=60 time=252
note_off channel=9 note=51 velocity=64 time=100
note_on channel=9 note=51 velocity=80 time=28
note_off channel=9 note=51 velocity=64 time=100
note_on channel=9 note=51 velocity=90 time=380
note_on channel=9 note=37 velocity=60 time=0
note_on channel=9 note=42 velocity=70 time=0
note_off channel=9 note=51 velocity=64 time=100
note_off channel=9 note=42 velocity=64 time=0
note_off channel=9 note=37 velocity=64 time=0
note_on channel=9 note=51 velocity=60 time=252
note_off channel=9 note=51 velocity=64 time=100
note_on channel=9 note=51 velocity=80 time=28
note_off channel=9 note=51 velocity=64 time=100
note_on channel=9 note=51 velocity=90 time=380
note_on channel=9 note=42 velocity=70 time=0
note_off channel=9 note=51 velocity=64 time=100
note_off channel=9 note=42 velocity=64 time=0
note_on channel=9 note=51 velocity=60 time=256
note_off channel=9 note=51 velocity=64 time=100
note_on channel=9 note=51 velocity=80 time=24
note_off channel=9 note=51 velocity=64 time=100
note_on channel=9 note=51 velocity=90 time=380
note_on channel=9 note=37 velocity=70 time=0
note_on channel=9 note=42 velocity=70 time=0
note_off channel=9 note=51 velocity=64 time=100
note_off channel=9 note=42 velocity=64 time=0
note_off channel=9 note=37 velocity=64 time=0
note_on channel=9 note=51 velocity=60 time=256
note_off channel=9 note=51 velocity=64 time=100
note_on channel=9 note=51 velocity=80 time=24
note_off channel=9 note=51 velocity=64 time=100
note_on channel=9 note=51 velocity=90 time=380
note_on channel=9 note=42 velocity=70 time=0
note_off channel=9 note=51 velocity=64 time=100
note_off channel=9 note=42 velocity=64 time=0
note_on channel=9 note=51 velocity=60 time=256
note_off channel=9 note=51 velocity=64 time=100
note_on channel=9 note=51 velocity=80 time=24
note_off channel=9 note=51 velocity=64 time=100
note_on channel=9 note=51 velocity=90 time=380
note_on channel=9 note=37 velocity=70 time=0
note_on channel=9 note=42 velocity=70 time=0
note_off channel=9 note=51 velocity=64 time=100
note_off channel=9 note=42 velocity=64 time=0
note_off channel=9 note=37 velocity=64 time=0
note_on channel=9 note=51 velocity=60 time=256
note_off channel=9 note=51 velocity=64 time=100
note_on channel=9 note=51 velocity=80 time=24
note_off channel=9 note=51 velocity=64 time=100
note_on channel=9 note=51 velocity=100 time=380
note_on channel=9 note=42 velocity=70 time=0
note_off channel=9 note=51 velocity=64 time=100
note_off channel=9 note=42 velocity=64 time=0
note_on channel=9 note=51 velocity=80 time=380
note_off channel=9 note=51 velocity=64 time=100
note_on channel=9 note=51 velocity=100 time=380
note_on channel=9 note=37 velocity=70 time=0
note_on channel=9 note=42 velocity=70 time=0
note_off channel=9 note=51 velocity=64 time=100
note_off channel=9 note=42 velocity=64 time=0
note_off channel=9 note=37 velocity=64 time=0
note_on channel=9 note=51 velocity=80 time=380
note_off channel=9 note=51 velocity=64 time=100
note_on channel=9 note=51 velocity=90 time=380
note_on channel=9 note=42 velocity=70 time=0
note_off channel=9 note=51 velocity=64 time=100
note_off channel=9 note=42 velocity=64 time=0
note_on channel=9 note=51 velocity=60 time=256
note_off channel=9 note=51 velocity=64 time=100
note_on channel=9 note=51 velocity=80 time=24
note_off channel=9 note=51 velocity=64 time=100
note_on channel=9 note=51 velocity=90 time=380
note_on channel=9 note=37 velocity=70 time=0
note_on channel=9 note=42 velocity=70 time=0
note_off channel=9 note=51 velocity=64 time=100
note_off channel=9 note=42 velocity=64 time=0
note_off channel=9 note=37 velocity=64 time=0
note_on channel=9 note=51 velocity=60 time=256
note_off channel=9 note=51 velocity=64 time=100
note_on channel=9 note=51 velocity=80 time=24
note_off channel=9 note=51 velocity=64 time=100
note_on channel=9 note=51 velocity=90 time=380
note_on channel=9 note=42 velocity=70 time=0
note_off channel=9 note=51 velocity=64 time=100
note_off channel=9 note=42 velocity=64 time=0
note_on channel=9 note=51 velocity=60 time=256
note_off channel=9 note=51 velocity=64 time=100
note_on channel=9 note=51 velocity=80 time=24
note_off channel=9 note=51 velocity=64 time=100
note_on channel=9 note=38 velocity=60 time=256
note_off channel=9 note=38 velocity=64 time=100
note_on channel=9 note=51 velocity=90 time=24
note_on channel=9 note=42 velocity=70 time=0
note_off channel=9 note=51 velocity=64 time=100
note_off channel=9 note=42 velocity=64 time=0
note_on channel=9 note=51 velocity=60 time=256
note_on channel=9 note=38 velocity=30 time=0
note_off channel=9 note=51 velocity=64 time=100
note_off channel=9 note=38 velocity=64 time=0
note_on channel=9 note=51 velocity=80 time=24
note_off channel=9 note=51 velocity=64 time=100
note_on channel=9 note=51 velocity=90 time=380
note_on channel=9 note=42 velocity=70 time=0
note_off channel=9 note=51 velocity=64 time=100
note_off channel=9 note=42 velocity=64 time=0
note_on channel=9 note=51 velocity=60 time=252
note_off channel=9 note=51 velocity=64 time=100
note_on channel=9 note=51 velocity=80 time=28
note_off channel=9 note=51 velocity=64 time=100
note_on channel=9 note=51 velocity=90 time=380
note_on channel=9 note=37 velocity=60 time=0
note_on channel=9 note=42 velocity=70 time=0
note_off channel=9 note=51 velocity=64 time=100
note_off channel=9 note=42 velocity=64 time=0
note_off channel=9 note=37 velocity=64 time=0
note_on channel=9 note=51 velocity=60 time=252
note_off channel=9 note=51 velocity=64 time=100
note_on channel=9 note=51 velocity=80 time=28
note_off channel=9 note=51 velocity=64 time=100
note_on channel=9 note=51 velocity=100 time=380
note_on channel=9 note=42 velocity=70 time=0
note_off channel=9 note=51 velocity=64 time=100
note_off channel=9 note=42 velocity=64 time=0
note_on channel=9 note=51 velocity=80 time=380
note_off channel=9 note=51 velocity=64 time=100
note_on channel=9 note=51 velocity=100 time=380
note_on channel=9 note=37 velocity=70 time=0
note_on channel=9 note=42 velocity=70 time=0
note_off channel=9 note=51 velocity=64 time=100
note_off channel=9 note=42 velocity=64 time=0
note_off channel=9 note=37 velocity=64 time=0
note_on channel=9 note=51 velocity=80 time=380
note_off channel=9 note=51 velocity=64 time=100
note_on channel=9 note=51 velocity=90 time=380
note_on channel=9 note=42 velocity=70 time=0
note_off channel=9 note=51 velocity=64 time=100
note_off channel=9 note=42 velocity=64 time=0
note_on channel=9 note=51 velocity=60 time=252
note_off channel=9 note=51 velocity=64 time=100
note_on channel=9 note=51 velocity=80 time=28
note_off channel=9 note=51 velocity=64 time=100
note_on channel=9 note=51 velocity=90 time=380
note_on channel=9 note=37 velocity=60 time=0
note_on channel=9 note=42 velocity=70 time=0
note_off channel=9 note=51 velocity=64 time=100
note_off channel=9 note=42 velocity=64 time=0
note_off channel=9 note=37 velocity=64 time=0
note_on channel=9 note=51 velocity=60 time=252
note_off channel=9 note=51 velocity=64 time=100
note_on channel=9 note=51 velocity=80 time=28
note_off channel=9 note=51 velocity=64 time=100
note_on channel=9 note=51 velocity=90 time=380
note_on channel=9 note=42 velocity=70 time=0
note_off channel=9 note=51 velocity=64 time=100
note_off channel=9 note=42 velocity=64 time=0
note_on channel=9 note=51 velocity=80 time=380
note_off channel=9 note=51 velocity=64 time=100
note_on channel=9 note=51 velocity=90 time=380
note_on channel=9 note=37 velocity=70 time=0
note_on channel=9 note=42 velocity=70 time=0
note_off channel=9 note=51 velocity=64 time=100
note_off channel=9 note=42 velocity=64 time=0
note_off channel=9 note=37 velocity=64 time=0
note_on channel=9 note=51 velocity=80 time=380
note_off channel=9 note=51 velocity=64 time=100
note_on channel=9 note=51 velocity=90 time=380
note_on channel=9 note=42 velocity=70 time=0
note_off channel=9 note=51 velocity=64 time=100
note_off channel=9 note=42 velocity=64 time=0
note_on channel=9 note=51 velocity=60 time=252
note_off channel=9 note=51 velocity=64 time=100
note_on channel=9 note=51 velocity=80 time=28
note_off channel=9 note=51 velocity=64 time=100
note_on channel=9 note=51 velocity=90 time=380
note_on channel=9 note=37 velocity=60 time=0
note_on channel=9 note=42 velocity=70 time=0
note_off channel=9 note=51 velocity=64 time=100
note_off channel=9 note=42 velocity=64 time=0
note_off channel=9 note=37 velocity=64 time=0
note_on channel=9 note=51 velocity=60 time=252
note_off channel=9 note=51 velocity=64 time=100
note_on channel=9 note=51 velocity=80 time=28
note_off channel=9 note=51 velocity=64 time=100
note_on channel=9 note=51 velocity=100 time=380
note_on channel=9 note=42 velocity=70 time=0
note_off channel=9 note=51 velocity=64 time=100
note_off channel=9 note=42 velocity=64 time=0
note_on channel=9 note=51 velocity=80 time=380
note_off channel=9 note=51 velocity=64 time=100
note_on channel=9 note=51 velocity=100 time=380
note_on channel=9 note=37 velocity=70 time=0
note_on channel=9 note=42 velocity=70 time=0
note_off channel=9 note=51 velocity=64 time=100
note_off channel=9 note=42 velocity=64 time=0
note_off channel=9 note=37 velocity=64 time=0
note_on channel=9 note=51 velocity=80 time=380
note_off channel=9 note=51 velocity=64 time=100
note_on channel=9 note=51 velocity=100 time=380
note_on channel=9 note=42 velocity=70 time=0
note_off channel=9 note=51 velocity=64 time=100
note_off channel=9 note=42 velocity=64 time=0
note_on channel=9 note=51 velocity=80 time=380
note_off channel=9 note=51 velocity=64 time=100
note_on channel=9 note=51 velocity=100 time=380
note_on channel=9 note=37 velocity=70 time=0
note_on channel=9 note=42 velocity=70 time=0
note_off channel=9 note=51 velocity=64 time=100
note_off channel=9 note=42 velocity=64 time=0
note_off channel=9 note=37 velocity=64 time=0
note_on channel=9 note=51 velocity=80 time=380
note_off channel=9 note=51 velocity=64 time=100
note_on channel=9 note=51 velocity=90 time=380
note_on channel=9 note=42 velocity=70 time=0
note_off channel=9 note=51 velocity=64 time=100
note_off channel=9 note=42 velocity=64 time=0
note_on channel=9 note=51 velocity=60 time=256
note_off channel=9 note=51 velocity=64 time=100
note_on channel=9 note=51 velocity=80 time=24
note_off channel=9 note=51 velocity=64 time=100
note_on channel=9 note=38 velocity=20 time=256
note_off channel=9 note=38 velocity=64 time=100
note_on channel=9 note=51 velocity=90 time=24
note_on channel=9 note=37 velocity=70 time=0
note_on channel=9 note=42 velocity=70 time=0
note_on channel=9 note=38 velocity=40 time=0
note_off channel=9 note=51 velocity=64 time=100
note_off channel=9 note=38 velocity=64 time=0
note_off channel=9 note=42 velocity=64 time=0
note_off channel=9 note=37 velocity=64 time=0
note_on channel=9 note=51 velocity=60 time=256
note_off channel=9 note=51 velocity=64 time=100
note_on channel=9 note=49 velocity=75 time=24
note_on channel=9 note=51 velocity=80 time=0
note_off channel=9 note=49 velocity=64 time=100
note_off channel=9 note=51 velocity=64 time=0
note_on channel=9 note=51 velocity=100 time=380
note_on channel=9 note=42 velocity=70 time=0
note_off channel=9 note=51 velocity=64 time=100
note_off channel=9 note=42 velocity=64 time=0
note_on channel=9 note=51 velocity=80 time=380
note_off channel=9 note=51 velocity=64 time=100
note_on channel=9 note=51 velocity=100 time=380
note_on channel=9 note=37 velocity=70 time=0
note_on channel=9 note=42 velocity=70 time=0
note_off channel=9 note=51 velocity=64 time=100
note_off channel=9 note=42 velocity=64 time=0
note_off channel=9 note=37 velocity=64 time=0
note_on channel=9 note=51 velocity=80 time=380
note_off channel=9 note=51 velocity=64 time=100
note_on channel=9 note=51 velocity=100 time=380
note_on channel=9 note=42 velocity=70 time=0
note_off channel=9 note=51 velocity=64 time=100
note_off channel=9 note=42 velocity=64 time=0
note_on channel=9 note=51 velocity=80 time=380
note_off channel=9 note=51 velocity=64 time=100
note_on channel=9 note=51 velocity=100 time=380
note_on channel=9 note=37 velocity=70 time=0
note_on channel=9 note=42 velocity=70 time=0
note_off channel=9 note=51 velocity=64 time=100
note_off channel=9 note=42 velocity=64 time=0
note_off channel=9 note=37 velocity=64 time=0
note_on channel=9 note=51 velocity=80 time=380
note_off channel=9 note=51 velocity=64 time=100
note_on channel=9 note=51 velocity=90 time=380
note_on channel=9 note=42 velocity=70 time=0
note_off channel=9 note=51 velocity=64 time=100
note_off channel=9 note=42 velocity=64 time=0
note_on channel=9 note=51 velocity=60 time=252
note_off channel=9 note=51 velocity=64 time=100
note_on channel=9 note=51 velocity=80 time=28
note_off channel=9 note=51 velocity=64 time=100
note_on channel=9 note=51 velocity=90 time=380
note_on channel=9 note=37 velocity=60 time=0
note_on channel=9 note=42 velocity=70 time=0
note_off channel=9 note=51 velocity=64 time=100
note_off channel=9 note=42 velocity=64 time=0
note_off channel=9 note=37 velocity=64 time=0
note_on channel=9 note=51 velocity=60 time=252
note_off channel=9 note=51 velocity=64 time=100
note_on channel=9 note=51 velocity=80 time=28
note_off channel=9 note=51 velocity=64 time=100
note_on channel=9 note=51 velocity=100 time=380
note_on channel=9 note=42 velocity=70 time=0
note_off channel=9 note=51 velocity=64 time=100
note_off channel=9 note=42 velocity=64 time=0
note_on channel=9 note=51 velocity=80 time=380
note_off channel=9 note=51 velocity=64 time=100
note_on channel=9 note=51 velocity=100 time=380
note_on channel=9 note=37 velocity=70 time=0
note_on channel=9 note=42 velocity=70 time=0
note_off channel=9 note=51 velocity=64 time=100
note_off channel=9 note=42 velocity=64 time=0
note_off channel=9 note=37 velocity=64 time=0
note_on channel=9 note=51 velocity=80 time=380
note_off channel=9 note=51 velocity=64 time=100
note_on channel=9 note=51 velocity=90 time=380
note_on channel=9 note=42 velocity=70 time=0
note_off channel=9 note=51 velocity=64 time=100
note_off channel=9 note=42 velocity=64 time=0
note_on channel=9 note=51 velocity=60 time=256
note_off channel=9 note=51 velocity=64 time=100
note_on channel=9 note=51 velocity=80 time=24
note_off channel=9 note=51 velocity=64 time=100
note_on channel=9 note=51 velocity=90 time=380
note_on channel=9 note=37 velocity=70 time=0
note_on channel=9 note=42 velocity=70 time=0
note_off channel=9 note=51 velocity=64 time=100
note_off channel=9 note=42 velocity=64 time=0
note_off channel=9 note=37 velocity=64 time=0
note_on channel=9 note=35 velocity=100 time=256
note_on channel=9 note=39 velocity=100 time=0
note_on channel=9 note=57 velocity=75 time=0
note_off channel=9 note=35 velocity=64 time=100
note_off channel=9 note=57 velocity=64 time=0
note_off channel=9 note=39 velocity=64 time=0
note_on channel=9 note=51 velocity=80 time=24
note_off channel=9 note=51 velocity=64 time=100
note_on channel=9 note=38 velocity=51 time=220
note_off channel=9 note=38 velocity=64 time=88
note_on channel=9 note=38 velocity=42 time=72
note_on channel=9 note=42 velocity=70 time=0
note_on channel=9 note=51 velocity=100 time=0
note_on channel=9 note=35 velocity=42 time=0
note_off channel=9 note=38 velocity=64 time=88
note_off channel=9 note=35 velocity=64 time=0
note_off channel=9 note=51 velocity=64 time=12
note_off channel=9 note=42 velocity=64 time=0
note_on channel=9 note=51 velocity=80 time=380
note_on channel=9 note=38 velocity=50 time=0
note_on channel=9 note=35 velocity=50 time=0
note_off channel=9 note=38 velocity=64 time=88
note_off channel=9 note=35 velocity=64 time=0
note_off channel=9 note=51 velocity=64 time=12
note_on channel=9 note=38 velocity=56 time=220
note_off channel=9 note=38 velocity=64 time=88
note_on channel=9 note=51 velocity=90 time=72
note_on channel=9 note=42 velocity=70 time=0
note_on channel=9 note=38 velocity=90 time=0
note_on channel=9 note=35 velocity=90 time=0
note_off channel=9 note=35 velocity=64 time=52
note_off channel=9 note=38 velocity=64 time=36
note_off channel=9 note=51 velocity=64 time=12
note_off channel=9 note=42 velocity=64 time=0
note_on channel=9 note=51 velocity=80 time=220
note_on channel=9 note=35 velocity=80 time=0
note_on channel=9 note=38 velocity=80 time=0
note_off channel=9 note=35 velocity=64 time=88
note_off channel=9 note=38 velocity=64 time=0
note_off channel=9 note=51 velocity=64 time=48
control_change channel=9 control=0 value=62 time=24
control_change channel=9 control=32 value=0 time=0
program_change channel=9 program=32 time=0
control_change channel=9 control=11 value=89 time=1896
control_change channel=9 control=11 value=90 time=336
control_change channel=9 control=11 value=91 time=312
note_on channel=9 note=38 velocity=75 time=256
note_off channel=9 note=38 velocity=64 time=40
note_on channel=9 note=38 velocity=77 time=0
note_off channel=9 note=38 velocity=64 time=40
control_change channel=9 control=11 value=93 time=0
note_on channel=9 note=35 velocity=80 time=0
note_on channel=9 note=38 velocity=106 time=0
note_off channel=9 note=35 velocity=64 time=112
note_off channel=9 note=38 velocity=64 time=0
control_change channel=9 control=11 value=94 time=200
note_on channel=9 note=49 velocity=94 time=8
note_on channel=9 note=38 velocity=94 time=0
note_on channel=9 note=35 velocity=81 time=0
note_on channel=9 note=51 velocity=81 time=0
note_off channel=9 note=38 velocity=64 time=112
note_off channel=9 note=51 velocity=64 time=0
note_off channel=9 note=35 velocity=64 time=0
control_change channel=9 control=11 value=95 time=216
note_on channel=9 note=51 velocity=60 time=188
note_off channel=9 note=51 velocity=64 time=100
control_change channel=9 control=11 value=96 time=24
note_on channel=9 note=51 velocity=80 time=0
note_on channel=9 note=35 velocity=80 time=0
note_off channel=9 note=51 velocity=64 time=100
note_off channel=9 note=35 velocity=64 time=0
note_on channel=9 note=51 velocity=90 time=380
note_on channel=9 note=42 velocity=70 time=0
note_off channel=9 note=51 velocity=64 time=100
note_off channel=9 note=42 velocity=64 time=0
note_on channel=9 note=51 velocity=60 time=256
note_off channel=9 note=51 velocity=64 time=100
note_on channel=9 note=51 velocity=80 time=24
note_off channel=9 note=49 velocity=64 time=24
note_off channel=9 note=51 velocity=64 time=76
note_on channel=9 note=51 velocity=90 time=380
note_on channel=9 note=37 velocity=70 time=0
note_on channel=9 note=42 velocity=70 time=0
note_off channel=9 note=51 velocity=64 time=100
note_off channel=9 note=42 velocity=64 time=0
note_off channel=9 note=37 velocity=64 time=0
note_on channel=9 note=51 velocity=60 time=256
note_off channel=9 note=51 velocity=64 time=100
note_on channel=9 note=51 velocity=80 time=24
note_on channel=9 note=35 velocity=80 time=0
note_off channel=9 note=51 velocity=64 time=100
note_off channel=9 note=35 velocity=64 time=0
note_on channel=9 note=51 velocity=90 time=380
note_on channel=9 note=42 velocity=70 time=0
note_off channel=9 note=51 velocity=64 time=100
note_off channel=9 note=42 velocity=64 time=0
note_on channel=9 note=51 velocity=60 time=256
note_on channel=9 note=38 velocity=75 time=44
note_off channel=9 note=38 velocity=64 time=40
note_on channel=9 note=38 velocity=77 time=0
note_off channel=9 note=51 velocity=64 time=16
note_off channel=9 note=38 velocity=64 time=24
note_on channel=9 note=51 velocity=80 time=0
note_on channel=9 note=38 velocity=106 time=0
note_on channel=9 note=35 velocity=106 time=0
note_off channel=9 note=51 velocity=64 time=100
note_off channel=9 note=35 velocity=64 time=12
note_off channel=9 note=38 velocity=64 time=0
note_on channel=9 note=38 velocity=88 time=208
note_on channel=9 note=35 velocity=88 time=0
note_on channel=9 note=40 velocity=88 time=0
note_off channel=9 note=38 velocity=64 time=112
note_off channel=9 note=40 velocity=64 time=0
note_off channel=9 note=35 velocity=64 time=0
note_on channel=9 note=51 velocity=90 time=48
note_on channel=9 note=42 velocity=70 time=0
note_off channel=9 note=51 velocity=64 time=100
note_off channel=9 note=42 velocity=64 time=0
note_on channel=9 note=35 velocity=88 time=220
note_on channel=9 note=38 velocity=88 time=0
note_on channel=9 note=49 velocity=96 time=0
note_on channel=9 note=51 velocity=60 time=36
note_off channel=9 note=35 velocity=64 time=76
note_off channel=9 note=38 velocity=64 time=0
note_off channel=9 note=51 velocity=64 time=24
note_on channel=9 note=51 velocity=80 time=24
note_off channel=9 note=51 velocity=64 time=100
note_on channel=9 note=51 velocity=100 time=380
note_on channel=9 note=42 velocity=70 time=0
note_off channel=9 note=51 velocity=64 time=100
note_off channel=9 note=42 velocity=64 time=0
note_on channel=9 note=51 velocity=80 time=380
note_off channel=9 note=51 velocity=64 time=100
note_on channel=9 note=51 velocity=100 time=380
note_on channel=9 note=37 velocity=70 time=0
note_on channel=9 note=42 velocity=70 time=0
note_off channel=9 note=51 velocity=64 time=100
note_off channel=9 note=42 velocity=64 time=0
note_off channel=9 note=37 velocity=64 time=0
note_off channel=9 note=49 velocity=64 time=356
note_on channel=9 note=51 velocity=80 time=24
note_off channel=9 note=51 velocity=64 time=100
note_on channel=9 note=51 velocity=90 time=380
note_on channel=9 note=42 velocity=70 time=0
note_off channel=9 note=51 velocity=64 time=100
note_off channel=9 note=42 velocity=64 time=0
note_on channel=9 note=51 velocity=80 time=380
note_off channel=9 note=51 velocity=64 time=100
note_on channel=9 note=51 velocity=90 time=380
note_on channel=9 note=37 velocity=70 time=0
note_on channel=9 note=42 velocity=70 time=0
note_off channel=9 note=51 velocity=64 time=100
note_off channel=9 note=42 velocity=64 time=0
note_off channel=9 note=37 velocity=64 time=0
note_on channel=9 note=38 velocity=81 time=300
note_off channel=9 note=38 velocity=64 time=40
note_on channel=9 note=38 velocity=81 time=0
note_off channel=9 note=38 velocity=64 time=40
note_on channel=9 note=51 velocity=80 time=0
note_on channel=9 note=35 velocity=96 time=0
note_on channel=9 note=38 velocity=80 time=0
note_off channel=9 note=51 velocity=64 time=100
note_off channel=9 note=38 velocity=64 time=0
note_off channel=9 note=35 velocity=64 time=0
note_on channel=9 note=40 velocity=88 time=220
note_on channel=9 note=49 velocity=88 time=0
note_off channel=9 note=40 velocity=64 time=112
note_on channel=9 note=51 velocity=100 time=48
note_on channel=9 note=42 velocity=70 time=0
note_off channel=9 note=51 velocity=64 time=100
note_off channel=9 note=42 velocity=64 time=0
note_off channel=9 note=49 velocity=64 time=188
note_on channel=9 note=38 velocity=88 time=32
note_on channel=9 note=35 velocity=88 time=0
note_on channel=9 note=49 velocity=88 time=0
note_off channel=9 note=38 velocity=64 time=112
note_off channel=9 note=35 velocity=64 time=0
note_on channel=9 note=51 velocity=80 time=48
note_off channel=9 note=51 velocity=64 time=100
note_on channel=9 note=51 velocity=100 time=380
note_on channel=9 note=42 velocity=70 time=0
note_off channel=9 note=51 velocity=64 time=100
note_off channel=9 note=42 velocity=64 time=0
note_on channel=9 note=38 velocity=81 time=300
note_off channel=9 note=49 velocity=64 time=8
note_off channel=9 note=38 velocity=64 time=32
note_on channel=9 note=38 velocity=81 time=0
note_off channel=9 note=38 velocity=64 time=40
note_on channel=9 note=51 velocity=80 time=0
note_on channel=9 note=35 velocity=96 time=0
note_on channel=9 note=38 velocity=80 time=0
note_off channel=9 note=51 velocity=64 time=100
note_off channel=9 note=38 velocity=64 time=0
note_off channel=9 note=35 velocity=64 time=0
note_on channel=9 note=40 velocity=88 time=220
note_on channel=9 note=57 velocity=88 time=0
note_off channel=9 note=40 velocity=64 time=112
note_on channel=9 note=51 velocity=90 time=48
note_on channel=9 note=42 velocity=70 time=0
note_off channel=9 note=51 velocity=64 time=100
note_off channel=9 note=42 velocity=64 time=0
note_off channel=9 note=57 velocity=64 time=188
note_on channel=9 note=38 velocity=88 time=32
note_on channel=9 note=35 velocity=88 time=0
note_on channel=9 note=57 velocity=88 time=0
note_off channel=9 note=38 velocity=64 time=112
note_off channel=9 note=35 velocity=64 time=0
note_on channel=9 note=51 velocity=80 time=48
note_off channel=9 note=51 velocity=64 time=100
note_on channel=9 note=51 velocity=90 time=380
note_on channel=9 note=42 velocity=70 time=0
note_off channel=9 note=51 velocity=64 time=100
note_off channel=9 note=42 velocity=64 time=0
note_off channel=9 note=57 velocity=64 time=308
note_on channel=9 note=51 velocity=80 time=72
note_off channel=9 note=51 velocity=64 time=100
note_on channel=9 note=38 velocity=81 time=220
note_on channel=9 note=35 velocity=81 time=0
note_on channel=9 note=49 velocity=81 time=0
note_off channel=9 note=38 velocity=64 time=112
note_off channel=9 note=49 velocity=64 time=0
note_off channel=9 note=35 velocity=64 time=0
note_on channel=9 note=51 velocity=100 time=48
note_on channel=9 note=38 velocity=70 time=0
note_off channel=9 note=51 velocity=64 time=100
note_off channel=9 note=38 velocity=64 time=0
note_on channel=9 note=40 velocity=84 time=220
note_on channel=9 note=35 velocity=84 time=0
note_on channel=9 note=57 velocity=84 time=0
note_off channel=9 note=40 velocity=64 time=112
note_off channel=9 note=57 velocity=64 time=0
note_off channel=9 note=35 velocity=64 time=0
note_on channel=9 note=51 velocity=80 time=48
note_off channel=9 note=51 velocity=64 time=100
note_on channel=9 note=38 velocity=88 time=220
note_on channel=9 note=35 velocity=88 time=0
note_on channel=9 note=49 velocity=88 time=0
note_off channel=9 note=38 velocity=64 time=112
note_off channel=9 note=49 velocity=64 time=0
note_off channel=9 note=35 velocity=64 time=0
note_on channel=9 note=51 velocity=100 time=48
note_on channel=9 note=43 velocity=70 time=0
note_off channel=9 note=51 velocity=64 time=100
note_off channel=9 note=43 velocity=64 time=0
note_on channel=9 note=41 velocity=81 time=60
note_off channel=9 note=41 velocity=64 time=64
note_on channel=9 note=40 velocity=81 time=96
note_on channel=9 note=35 velocity=81 time=0
note_off channel=9 note=40 velocity=64 time=88
note_off channel=9 note=35 velocity=64 time=48
control_change channel=9 control=11 value=96 time=24
note_on channel=9 note=51 velocity=80 time=0
note_on channel=9 note=38 velocity=91 time=0
note_off channel=9 note=38 velocity=64 time=64
note_off channel=9 note=51 velocity=64 time=36
control_change channel=9 control=11 value=95 time=92
note_on channel=9 note=57 velocity=94 time=128
note_on channel=9 note=40 velocity=94 time=0
note_on channel=9 note=35 velocity=94 time=0
note_on channel=9 note=49 velocity=94 time=0
control_change channel=9 control=11 value=94 time=64
note_off channel=9 note=35 velocity=64 time=44
note_off channel=9 note=40 velocity=64 time=4
note_on channel=9 note=51 velocity=90 time=48
note_on channel=9 note=42 velocity=70 time=0
control_change channel=9 control=11 value=93 time=96
note_off channel=9 note=51 velocity=64 time=4
note_off channel=9 note=42 velocity=64 time=0
control_change channel=9 control=11 value=91 time=188
note_on channel=9 note=51 velocity=60 time=68
note_off channel=9 note=51 velocity=64 time=100
control_change channel=9 control=11 value=90 time=24
note_on channel=9 note=51 velocity=80 time=0
note_off channel=9 note=51 velocity=64 time=100
control_change channel=9 control=11 value=89 time=92
note_off channel=9 note=49 velocity=64 time=92
note_off channel=9 note=57 velocity=64 time=0
note_on channel=9 note=38 velocity=20 time=72
control_change channel=9 control=11 value=88 time=28
note_off channel=9 note=38 velocity=64 time=72
note_on channel=9 note=51 velocity=90 time=24
note_on channel=9 note=37 velocity=70 time=0
note_on channel=9 note=42 velocity=70 time=0
note_on channel=9 note=38 velocity=40 time=0
control_change channel=9 control=11 value=86 time=96
note_off channel=9 note=51 velocity=64 time=4
note_off channel=9 note=38 velocity=64 time=0
note_off channel=9 note=42 velocity=64 time=0
note_off channel=9 note=37 velocity=64 time=0
control_change channel=9 control=11 value=85 time=188
note_on channel=9 note=51 velocity=60 time=68
note_on channel=9 note=38 velocity=81 time=44
note_off channel=9 note=38 velocity=64 time=40
note_on channel=9 note=38 velocity=81 time=0
note_off channel=9 note=51 velocity=64 time=16
note_off channel=9 note=38 velocity=64 time=24
control_change channel=9 control=11 value=84 time=0
note_on channel=9 note=51 velocity=80 time=0
note_on channel=9 note=38 velocity=84 time=0
note_on channel=9 note=35 velocity=84 time=0
note_off channel=9 note=51 velocity=64 time=100
note_off channel=9 note=35 velocity=64 time=16
note_off channel=9 note=38 velocity=64 time=0
note_on channel=9 note=38 velocity=82 time=204
note_on channel=9 note=35 velocity=82 time=0
note_off channel=9 note=38 velocity=64 time=124
note_off channel=9 note=35 velocity=64 time=0
note_on channel=9 note=51 velocity=90 time=36
note_on channel=9 note=42 velocity=70 time=0
note_off channel=9 note=51 velocity=64 time=100
note_off channel=9 note=42 velocity=64 time=0
note_on channel=9 note=51 velocity=60 time=252
note_off channel=9 note=51 velocity=64 time=100
note_on channel=9 note=51 velocity=80 time=28
note_off channel=9 note=51 velocity=64 time=100
note_on channel=9 note=51 velocity=90 time=380
note_on channel=9 note=37 velocity=60 time=0
note_on channel=9 note=42 velocity=70 time=0
note_off channel=9 note=51 velocity=64 time=100
note_off channel=9 note=42 velocity=64 time=0
note_off channel=9 note=37 velocity=64 time=0
note_on channel=9 note=51 velocity=60 time=252
note_off channel=9 note=51 velocity=64 time=100
note_on channel=9 note=51 velocity=80 time=28
note_off channel=9 note=51 velocity=64 time=100
note_on channel=9 note=51 velocity=90 time=380
note_on channel=9 note=42 velocity=70 time=0
note_off channel=9 note=51 velocity=64 time=100
note_off channel=9 note=42 velocity=64 time=0
note_on channel=9 note=51 velocity=60 time=256
note_off channel=9 note=51 velocity=64 time=100
note_on channel=9 note=51 velocity=80 time=24
note_off channel=9 note=51 velocity=64 time=100
note_on channel=9 note=51 velocity=90 time=380
note_on channel=9 note=37 velocity=70 time=0
note_on channel=9 note=42 velocity=70 time=0
note_off channel=9 note=51 velocity=64 time=100
note_off channel=9 note=42 velocity=64 time=0
note_off channel=9 note=37 velocity=64 time=0
note_on channel=9 note=51 velocity=60 time=256
note_off channel=9 note=51 velocity=64 time=100
note_on channel=9 note=51 velocity=80 time=24
note_off channel=9 note=51 velocity=64 time=100
note_on channel=9 note=51 velocity=90 time=380
note_on channel=9 note=42 velocity=70 time=0
note_off channel=9 note=51 velocity=64 time=100
note_off channel=9 note=42 velocity=64 time=0
note_on channel=9 note=51 velocity=60 time=252
note_off channel=9 note=51 velocity=64 time=100
note_on channel=9 note=51 velocity=80 time=28
note_off channel=9 note=51 velocity=64 time=100
note_on channel=9 note=51 velocity=90 time=380
note_on channel=9 note=37 velocity=60 time=0
note_on channel=9 note=42 velocity=70 time=0
note_off channel=9 note=51 velocity=64 time=100
note_off channel=9 note=42 velocity=64 time=0
note_off channel=9 note=37 velocity=64 time=0
note_on channel=9 note=51 velocity=60 time=252
note_off channel=9 note=51 velocity=64 time=100
note_on channel=9 note=51 velocity=80 time=28
note_off channel=9 note=51 velocity=64 time=100
note_on channel=9 note=51 velocity=90 time=380
note_on channel=9 note=42 velocity=70 time=0
note_off channel=9 note=51 velocity=64 time=100
note_off channel=9 note=42 velocity=64 time=0
note_on channel=9 note=51 velocity=80 time=380
note_off channel=9 note=51 velocity=64 time=100
note_on channel=9 note=51 velocity=90 time=380
note_on channel=9 note=37 velocity=70 time=0
note_on channel=9 note=42 velocity=70 time=0
note_off channel=9 note=51 velocity=64 time=100
note_off channel=9 note=42 velocity=64 time=0
note_off channel=9 note=37 velocity=64 time=0
note_on channel=9 note=51 velocity=80 time=380
note_off channel=9 note=51 velocity=64 time=100
note_on channel=9 note=51 velocity=100 time=380
note_on channel=9 note=42 velocity=70 time=0
note_off channel=9 note=51 velocity=64 time=100
note_off channel=9 note=42 velocity=64 time=0
note_on channel=9 note=51 velocity=80 time=380
note_off channel=9 note=51 velocity=64 time=100
note_on channel=9 note=51 velocity=100 time=380
note_on channel=9 note=37 velocity=70 time=0
note_on channel=9 note=42 velocity=70 time=0
note_off channel=9 note=51 velocity=64 time=100
note_off channel=9 note=42 velocity=64 time=0
note_off channel=9 note=37 velocity=64 time=0
note_on channel=9 note=51 velocity=80 time=380
note_off channel=9 note=51 velocity=64 time=100
note_on channel=9 note=51 velocity=90 time=380
note_on channel=9 note=42 velocity=70 time=0
note_off channel=9 note=51 velocity=64 time=100
note_off channel=9 note=42 velocity=64 time=0
note_on channel=9 note=51 velocity=80 time=380
note_off channel=9 note=51 velocity=64 time=100
note_on channel=9 note=51 velocity=90 time=380
note_on channel=9 note=37 velocity=70 time=0
note_on channel=9 note=42 velocity=70 time=0
note_off channel=9 note=51 velocity=64 time=100
note_off channel=9 note=42 velocity=64 time=0
note_off channel=9 note=37 velocity=64 time=0
control_change channel=9 control=11 value=84 time=380
note_on channel=9 note=51 velocity=80 time=0
note_off channel=9 note=51 velocity=64 time=100
control_change channel=9 control=11 value=85 time=92
control_change channel=9 control=11 value=86 time=192
note_on channel=9 note=51 velocity=90 time=96
note_on channel=9 note=42 velocity=70 time=0
control_change channel=9 control=11 value=88 time=96
note_off channel=9 note=51 velocity=64 time=4
note_off channel=9 note=42 velocity=64 time=0
control_change channel=9 control=11 value=89 time=188
note_on channel=9 note=51 velocity=60 time=68
note_off channel=9 note=51 velocity=64 time=100
control_change channel=9 control=11 value=90 time=24
note_on channel=9 note=51 velocity=80 time=0
note_off channel=9 note=51 velocity=64 time=100
control_change channel=9 control=11 value=91 time=92
control_change channel=9 control=11 value=93 time=192
note_on channel=9 note=51 velocity=90 time=96
note_on channel=9 note=37 velocity=70 time=0
note_on channel=9 note=42 velocity=70 time=0
control_change channel=9 control=11 value=94 time=96
note_off channel=9 note=51 velocity=64 time=4
note_off channel=9 note=42 velocity=64 time=0
note_off channel=9 note=37 velocity=64 time=0
control_change channel=9 control=11 value=95 time=188
note_on channel=9 note=51 velocity=60 time=68
note_off channel=9 note=51 velocity=64 time=100
control_change channel=9 control=11 value=96 time=24
note_on channel=9 note=51 velocity=80 time=0
note_off channel=9 note=51 velocity=64 time=100
control_change channel=9 control=11 value=98 time=92
control_change channel=9 control=11 value=99 time=192
note_on channel=9 note=51 velocity=90 time=96
note_on channel=9 note=42 velocity=70 time=0
control_change channel=9 control=11 value=100 time=96
note_off channel=9 note=51 velocity=64 time=4
note_off channel=9 note=42 velocity=64 time=0
control_change channel=9 control=11 value=101 time=188
note_on channel=9 note=51 velocity=60 time=68
note_off channel=9 note=51 velocity=64 time=100
control_change channel=9 control=11 value=103 time=24
note_on channel=9 note=48 velocity=61 time=0
note_on channel=9 note=51 velocity=80 time=0
note_off channel=9 note=48 velocity=64 time=58
note_off channel=9 note=51 velocity=64 time=42
note_on channel=9 note=48 velocity=53 time=20
note_off channel=9 note=48 velocity=64 time=57
control_change channel=9 control=11 value=104 time=15
note_on channel=9 note=38 velocity=60 time=164
note_on channel=9 note=36 velocity=74 time=4
control_change channel=9 control=11 value=105 time=24
note_off channel=9 note=36 velocity=64 time=35
note_off channel=9 note=38 velocity=64 time=37
note_on channel=9 note=47 velocity=103 time=24
note_on channel=9 note=51 velocity=90 time=0
note_on channel=9 note=42 velocity=70 time=0
note_off channel=9 note=47 velocity=64 time=56
control_change channel=9 control=11 value=106 time=40
note_off channel=9 note=42 velocity=64 time=4
note_off channel=9 note=51 velocity=64 time=0
note_on channel=9 note=47 velocity=68 time=20
note_off channel=9 note=47 velocity=64 time=57
control_change channel=9 control=11 value=108 time=111
note_on channel=9 note=51 velocity=60 time=68
note_on channel=9 note=38 velocity=30 time=0
note_on channel=9 note=36 velocity=65 time=4
note_on channel=9 note=40 velocity=81 time=40
note_off channel=9 note=36 velocity=64 time=17
note_off channel=9 note=40 velocity=64 time=23
note_on channel=9 note=40 velocity=81 time=0
note_off channel=9 note=51 velocity=64 time=16
note_off channel=9 note=38 velocity=64 time=0
note_off channel=9 note=40 velocity=64 time=24
control_change channel=9 control=11 value=109 time=0
note_on channel=9 note=51 velocity=80 time=0
note_on channel=9 note=40 velocity=92 time=0
note_off channel=9 note=40 velocity=64 time=76
note_off channel=9 note=51 velocity=64 time=24
note_on channel=9 note=40 velocity=109 time=236
note_on channel=9 note=49 velocity=109 time=0
note_on channel=9 note=36 velocity=80 time=0
note_off channel=9 note=40 velocity=64 time=58
note_off channel=9 note=36 velocity=64 time=42
note_on channel=9 note=51 velocity=90 time=44
note_on channel=9 note=42 velocity=70 time=0
note_off channel=9 note=51 velocity=64 time=100
note_off channel=9 note=42 velocity=64 time=0
note_on channel=9 note=51 velocity=60 time=256
note_off channel=9 note=51 velocity=64 time=100
note_on channel=9 note=51 velocity=80 time=24
note_on channel=9 note=38 velocity=94 time=0
note_off channel=9 note=38 velocity=64 time=88
note_off channel=9 note=51 velocity=64 time=12
note_on channel=9 note=38 velocity=94 time=220
note_on channel=9 note=38 velocity=20 time=36
note_off channel=9 note=38 velocity=64 time=52
note_off channel=9 note=38 velocity=64 time=48
note_on channel=9 note=51 velocity=90 time=24
note_on channel=9 note=37 velocity=70 time=0
note_on channel=9 note=42 velocity=70 time=0
note_on channel=9 note=38 velocity=40 time=0
note_off channel=9 note=51 velocity=64 time=100
note_off channel=9 note=38 velocity=64 time=0
note_off channel=9 note=42 velocity=64 time=0
note_off channel=9 note=37 velocity=64 time=0
note_off channel=9 note=49 velocity=64 time=150
note_on channel=9 note=51 velocity=60 time=106
note_on channel=9 note=38 velocity=30 time=0
note_on channel=9 note=36 velocity=65 time=4
note_on channel=9 note=40 velocity=81 time=40
note_off channel=9 note=36 velocity=64 time=17
note_off channel=9 note=40 velocity=64 time=23
note_on channel=9 note=40 velocity=81 time=0
note_off channel=9 note=51 velocity=64 time=16
note_off channel=9 note=38 velocity=64 time=0
note_off channel=9 note=40 velocity=64 time=24
note_on channel=9 note=51 velocity=80 time=0
note_on channel=9 note=40 velocity=92 time=0
note_off channel=9 note=40 velocity=64 time=76
note_off channel=9 note=51 velocity=64 time=24
note_on channel=9 note=36 velocity=80 time=236
note_on channel=9 note=40 velocity=109 time=0
note_on channel=9 note=57 velocity=109 time=0
note_off channel=9 note=40 velocity=64 time=58
note_off channel=9 note=36 velocity=64 time=42
note_on channel=9 note=51 velocity=90 time=44
note_on channel=9 note=42 velocity=70 time=0
note_off channel=9 note=51 velocity=64 time=100
note_off channel=9 note=42 velocity=64 time=0
note_on channel=9 note=51 velocity=60 time=256
note_off channel=9 note=51 velocity=64 time=100
note_on channel=9 note=51 velocity=80 time=24
note_on channel=9 note=38 velocity=94 time=0
note_off channel=9 note=38 velocity=64 time=88
note_off channel=9 note=51 velocity=64 time=12
note_on channel=9 note=38 velocity=94 time=220
note_on channel=9 note=38 velocity=20 time=36
note_off channel=9 note=38 velocity=64 time=52
note_off channel=9 note=38 velocity=64 time=48
note_on channel=9 note=51 velocity=90 time=24
note_on channel=9 note=37 velocity=70 time=0
note_on channel=9 note=42 velocity=70 time=0
note_on channel=9 note=38 velocity=40 time=0
note_off channel=9 note=51 velocity=64 time=100
note_off channel=9 note=38 velocity=64 time=0
note_off channel=9 note=42 velocity=64 time=0
note_off channel=9 note=37 velocity=64 time=0
note_off channel=9 note=57 velocity=64 time=150
note_on channel=9 note=51 velocity=60 time=106
note_on channel=9 note=40 velocity=81 time=44
note_off channel=9 note=40 velocity=64 time=40
note_on channel=9 note=40 velocity=81 time=0
note_off channel=9 note=51 velocity=64 time=16
note_off channel=9 note=40 velocity=64 time=24
note_on channel=9 note=51 velocity=80 time=0
note_on channel=9 note=40 velocity=92 time=0
note_off channel=9 note=40 velocity=64 time=76
note_off channel=9 note=51 velocity=64 time=24
note_on channel=9 note=40 velocity=109 time=236
note_on channel=9 note=36 velocity=80 time=0
note_on channel=9 note=49 velocity=109 time=0
note_off channel=9 note=40 velocity=64 time=58
note_off channel=9 note=36 velocity=64 time=42
note_on channel=9 note=51 velocity=90 time=44
note_on channel=9 note=42 velocity=70 time=0
note_off channel=9 note=51 velocity=64 time=100
note_off channel=9 note=42 velocity=64 time=0
note_on channel=9 note=51 velocity=60 time=256
note_off channel=9 note=51 velocity=64 time=100
note_on channel=9 note=51 velocity=80 time=24
note_on channel=9 note=38 velocity=94 time=0
note_off channel=9 note=38 velocity=64 time=88
note_off channel=9 note=51 velocity=64 time=12
note_on channel=9 note=38 velocity=94 time=220
note_on channel=9 note=38 velocity=20 time=36
note_off channel=9 note=38 velocity=64 time=52
note_off channel=9 note=38 velocity=64 time=48
note_on channel=9 note=51 velocity=90 time=24
note_on channel=9 note=37 velocity=70 time=0
note_on channel=9 note=42 velocity=70 time=0
note_on channel=9 note=38 velocity=40 time=0
note_off channel=9 note=51 velocity=64 time=100
note_off channel=9 note=38 velocity=64 time=0
note_off channel=9 note=42 velocity=64 time=0
note_off channel=9 note=37 velocity=64 time=0
note_off channel=9 note=49 velocity=64 time=150
note_on channel=9 note=51 velocity=60 time=106
note_on channel=9 note=40 velocity=81 time=44
note_off channel=9 note=40 velocity=64 time=40
note_on channel=9 note=40 velocity=81 time=0
note_off channel=9 note=51 velocity=64 time=16
note_off channel=9 note=40 velocity=64 time=24
note_on channel=9 note=51 velocity=80 time=0
note_on channel=9 note=40 velocity=92 time=0
note_off channel=9 note=40 velocity=64 time=76
note_off channel=9 note=51 velocity=64 time=24
note_on channel=9 note=40 velocity=109 time=236
note_on channel=9 note=36 velocity=80 time=0
note_on channel=9 note=57 velocity=109 time=0
note_off channel=9 note=40 velocity=64 time=58
note_off channel=9 note=36 velocity=64 time=42
note_on channel=9 note=51 velocity=90 time=44
note_on channel=9 note=42 velocity=70 time=0
note_off channel=9 note=51 velocity=64 time=100
note_off channel=9 note=42 velocity=64 time=0
note_on channel=9 note=51 velocity=60 time=256
note_off channel=9 note=51 velocity=64 time=100
note_on channel=9 note=51 velocity=80 time=24
note_on channel=9 note=40 velocity=88 time=0
note_off channel=9 note=40 velocity=64 time=84
note_off channel=9 note=51 velocity=64 time=16
note_on channel=9 note=38 velocity=20 time=256
note_off channel=9 note=38 velocity=64 time=100
note_on channel=9 note=51 velocity=90 time=24
note_on channel=9 note=37 velocity=70 time=0
note_on channel=9 note=42 velocity=70 time=0
note_on channel=9 note=38 velocity=40 time=0
note_on channel=9 note=40 velocity=88 time=0
note_off channel=9 note=40 velocity=64 time=84
note_off channel=9 note=37 velocity=64 time=16
note_off channel=9 note=38 velocity=64 time=0
note_off channel=9 note=42 velocity=64 time=0
note_off channel=9 note=51 velocity=64 time=0
note_off channel=9 note=57 velocity=64 time=150
note_on channel=9 note=51 velocity=60 time=106
note_on channel=9 note=40 velocity=81 time=44
note_off channel=9 note=40 velocity=64 time=40
note_on channel=9 note=40 velocity=81 time=0
note_off channel=9 note=51 velocity=64 time=16
note_off channel=9 note=40 velocity=64 time=24
note_on channel=9 note=51 velocity=80 time=0
note_on channel=9 note=40 velocity=109 time=0
note_on channel=9 note=36 velocity=94 time=0
note_off channel=9 note=51 velocity=64 time=100
note_off channel=9 note=36 velocity=64 time=20
note_off channel=9 note=40 velocity=64 time=0
note_on channel=9 note=49 velocity=109 time=216
note_on channel=9 note=36 velocity=80 time=0
note_on channel=9 note=40 velocity=109 time=0
note_off channel=9 note=40 velocity=64 time=58
note_off channel=9 note=36 velocity=64 time=42
note_on channel=9 note=51 velocity=100 time=44
note_on channel=9 note=42 velocity=70 time=0
note_off channel=9 note=51 velocity=64 time=100
note_off channel=9 note=42 velocity=64 time=0
note_on channel=9 note=51 velocity=80 time=380
note_on channel=9 note=40 velocity=88 time=0
note_off channel=9 note=40 velocity=64 time=92
note_off channel=9 note=51 velocity=64 time=8
note_on channel=9 note=40 velocity=88 time=220
note_off channel=9 note=40 velocity=64 time=108
note_on channel=9 note=51 velocity=100 time=52
note_on channel=9 note=37 velocity=70 time=0
note_on channel=9 note=42 velocity=70 time=0
note_off channel=9 note=51 velocity=64 time=100
note_off channel=9 note=42 velocity=64 time=0
note_off channel=9 note=37 velocity=64 time=0
note_off channel=9 note=49 velocity=64 time=150
note_on channel=9 note=40 velocity=81 time=150
note_off channel=9 note=40 velocity=64 time=40
note_on channel=9 note=40 velocity=81 time=0
note_off channel=9 note=40 velocity=64 time=40
note_on channel=9 note=51 velocity=80 time=0
note_on channel=9 note=36 velocity=94 time=0
note_on channel=9 note=40 velocity=109 time=0
note_off channel=9 note=51 velocity=64 time=100
note_off channel=9 note=40 velocity=64 time=20
note_off channel=9 note=36 velocity=64 time=0
note_on channel=9 note=51 velocity=90 time=360
note_on channel=9 note=42 velocity=70 time=0
note_on channel=9 note=40 velocity=81 time=0
note_off channel=9 note=40 velocity=64 time=88
note_off channel=9 note=51 velocity=64 time=12
note_off channel=9 note=42 velocity=64 time=0
note_on channel=9 note=40 velocity=81 time=220
note_on channel=9 note=57 velocity=101 time=0
note_on channel=9 note=51 velocity=60 time=36
note_off channel=9 note=40 velocity=64 time=52
note_off channel=9 note=51 velocity=64 time=48
note_on channel=9 note=51 velocity=80 time=24
note_off channel=9 note=51 velocity=64 time=100
note_on channel=9 note=38 velocity=60 time=256
note_off channel=9 note=38 velocity=64 time=100
note_on channel=9 note=51 velocity=90 time=24
note_on channel=9 note=42 velocity=70 time=0
note_off channel=9 note=51 velocity=64 time=100
note_off channel=9 note=42 velocity=64 time=0
note_on channel=9 note=51 velocity=60 time=256
note_on channel=9 note=38 velocity=30 time=0
note_off channel=9 note=57 velocity=64 time=52
note_off channel=9 note=38 velocity=64 time=48
note_off channel=9 note=51 velocity=64 time=0
note_on channel=9 note=51 velocity=80 time=24
note_off channel=9 note=51 velocity=64 time=100
note_on channel=9 note=40 velocity=94 time=220
note_on channel=9 note=36 velocity=94 time=0
note_off channel=9 note=40 velocity=64 time=112
note_off channel=9 note=36 velocity=64 time=0
note_on channel=9 note=51 velocity=90 time=48
note_on channel=9 note=44 velocity=55 time=0
note_on channel=9 note=47 velocity=103 time=0
note_off channel=9 note=44 velocity=64 time=18
note_off channel=9 note=47 velocity=64 time=40
note_off channel=9 note=51 velocity=64 time=42
note_on channel=9 note=40 velocity=8 time=60
note_on channel=9 note=40 velocity=8 time=0
note_off channel=9 note=40 velocity=64 time=44
note_off channel=9 note=40 velocity=64 time=0
note_on channel=9 note=40 velocity=94 time=116
note_on channel=9 note=51 velocity=60 time=36
note_off channel=9 note=40 velocity=64 time=20
note_off channel=9 note=51 velocity=64 time=80
note_on channel=9 note=51 velocity=80 time=24
note_on channel=9 note=44 velocity=55 time=0
note_off channel=9 note=44 velocity=64 time=20
note_off channel=9 note=51 velocity=64 time=80
note_on channel=9 note=43 velocity=109 time=60
note_off channel=9 note=43 velocity=64 time=57
note_on channel=9 note=51 velocity=90 time=263
note_on channel=9 note=37 velocity=70 time=0
note_on channel=9 note=40 velocity=111 time=0
note_on channel=9 note=44 velocity=55 time=0
note_off channel=9 note=44 velocity=64 time=19
note_off channel=9 note=40 velocity=64 time=37
note_off channel=9 note=51 velocity=64 time=44
note_off channel=9 note=37 velocity=64 time=0
note_on channel=9 note=40 velocity=8 time=92
note_off channel=9 note=40 velocity=64 time=57
note_on channel=9 note=40 velocity=66 time=71
note_on channel=9 note=51 velocity=60 time=36
note_off channel=9 note=40 velocity=64 time=23
note_on channel=9 note=40 velocity=70 time=67
note_off channel=9 note=51 velocity=64 time=10
note_on channel=9 note=51 velocity=80 time=24
note_on channel=9 note=40 velocity=126 time=0
note_off channel=9 note=40 velocity=64 time=1
note_off channel=9 note=40 velocity=64 time=0
note_on channel=9 note=36 velocity=86 time=59
note_off channel=9 note=51 velocity=64 time=40
note_off channel=9 note=36 velocity=64 time=19
note_on channel=9 note=51 velocity=100 time=361
note_on channel=9 note=36 velocity=96 time=0
note_on channel=9 note=40 velocity=96 time=0
note_on channel=9 note=49 velocity=106 time=0
note_off channel=9 note=36 velocity=64 time=56
note_off channel=9 note=49 velocity=64 time=0
note_off channel=9 note=40 velocity=64 time=0
note_off channel=9 note=51 velocity=64 time=44
note_on channel=9 note=36 velocity=102 time=220
note_on channel=9 note=40 velocity=74 time=0
note_on channel=9 note=57 velocity=108 time=0
note_off channel=9 note=36 velocity=64 time=57
note_off channel=9 note=40 velocity=64 time=1
note_on channel=9 note=51 velocity=80 time=102
note_off channel=9 note=51 velocity=64 time=100
note_on channel=9 note=40 velocity=81 time=220
note_off channel=9 note=40 velocity=64 time=64
note_on channel=9 note=51 velocity=100 time=96
note_on channel=9 note=37 velocity=70 time=0
note_off channel=9 note=51 velocity=64 time=100
note_off channel=9 note=37 velocity=64 time=0
note_off channel=9 note=57 velocity=64 time=296
note_on channel=9 note=51 velocity=80 time=84
note_on channel=9 note=40 velocity=94 time=0
note_on channel=9 note=36 velocity=94 time=0
note_off channel=9 note=40 velocity=64 time=64
note_off channel=9 note=36 velocity=64 time=0
note_off channel=9 note=51 velocity=64 time=36
note_on channel=9 note=38 velocity=94 time=220
note_on channel=9 note=36 velocity=94 time=0
note_off channel=9 note=38 velocity=64 time=64
note_off channel=9 note=36 velocity=64 time=0
note_on channel=9 note=51 velocity=90 time=96
note_on channel=9 note=38 velocity=40 time=0
note_off channel=9 note=51 velocity=64 time=100
note_off channel=9 note=38 velocity=64 time=0
note_on channel=9 note=38 velocity=30 time=60
note_off channel=9 note=38 velocity=64 time=100
note_on channel=9 note=48 velocity=90 time=60
note_on channel=9 note=51 velocity=60 time=36
note_off channel=9 note=48 velocity=64 time=64
note_off channel=9 note=51 velocity=64 time=36
note_on channel=9 note=51 velocity=80 time=24
note_on channel=9 note=38 velocity=60 time=0
note_off channel=9 note=51 velocity=64 time=100
note_off channel=9 note=38 velocity=64 time=0
note_on channel=9 note=38 velocity=40 time=60
note_off channel=9 note=38 velocity=64 time=100
note_on channel=9 note=45 velocity=90 time=60
note_on channel=9 note=38 velocity=60 time=36
note_off channel=9 note=45 velocity=64 time=64
note_off channel=9 note=38 velocity=64 time=36
note_on channel=9 note=51 velocity=90 time=24
note_on channel=9 note=38 velocity=60 time=0
note_off channel=9 note=51 velocity=64 time=100
note_off channel=9 note=38 velocity=64 time=0
note_on channel=9 note=38 velocity=40 time=84
note_off channel=9 note=38 velocity=64 time=100
note_on channel=9 note=41 velocity=90 time=36
note_on channel=9 note=51 velocity=60 time=36
note_on channel=9 note=38 velocity=81 time=44
note_off channel=9 note=41 velocity=64 time=20
note_off channel=9 note=38 velocity=64 time=20
note_on channel=9 note=38 velocity=81 time=0
note_off channel=9 note=51 velocity=64 time=16
note_off channel=9 note=38 velocity=64 time=24
note_on channel=9 note=51 velocity=80 time=0
note_on channel=9 note=35 velocity=90 time=0
note_on channel=9 note=38 velocity=90 time=0
note_on channel=9 note=57 velocity=90 time=0
note_off channel=9 note=51 velocity=64 time=100
note_off channel=9 note=35 velocity=64 time=0
note_off channel=9 note=38 velocity=64 time=0
note_on channel=9 note=51 velocity=100 time=380
note_on channel=9 note=42 velocity=70 time=0
note_on channel=9 note=40 velocity=94 time=0
note_on channel=9 note=35 velocity=94 time=0
note_off channel=9 note=40 velocity=64 time=72
note_off channel=9 note=35 velocity=64 time=0
note_off channel=9 note=51 velocity=64 time=28
note_off channel=9 note=42 velocity=64 time=0
note_on channel=9 note=51 velocity=80 time=380
note_on channel=9 note=40 velocity=94 time=0
note_on channel=9 note=35 velocity=94 time=0
note_off channel=9 note=40 velocity=64 time=80
note_off channel=9 note=35 velocity=64 time=0
note_off channel=9 note=51 velocity=64 time=20
note_on channel=9 note=40 velocity=94 time=220
note_on channel=9 note=35 velocity=94 time=0
note_off channel=9 note=40 velocity=64 time=132
note_off channel=9 note=35 velocity=64 time=0
note_on channel=9 note=51 velocity=88 time=28
note_on channel=9 note=37 velocity=88 time=0
note_on channel=9 note=42 velocity=88 time=0
note_on channel=9 note=40 velocity=88 time=0
note_off channel=9 note=40 velocity=64 time=64
note_off channel=9 note=57 velocity=64 time=12
note_off channel=9 note=42 velocity=64 time=24
note_off channel=9 note=37 velocity=64 time=0
note_off channel=9 note=51 velocity=64 time=0
note_on channel=9 note=38 velocity=74 time=60
note_off channel=9 note=38 velocity=64 time=64
note_on channel=9 note=49 velocity=106 time=96
note_on channel=9 note=35 velocity=94 time=0
note_on channel=9 note=38 velocity=106 time=0
note_off channel=9 note=35 velocity=64 time=64
note_off channel=9 note=38 velocity=64 time=24
note_on channel=9 note=51 velocity=80 time=72
note_off channel=9 note=51 velocity=64 time=100
note_on channel=9 note=51 velocity=90 time=380
note_on channel=9 note=42 velocity=70 time=0
note_off channel=9 note=51 velocity=64 time=100
note_off channel=9 note=42 velocity=64 time=0
note_on channel=9 note=51 velocity=80 time=380
note_off channel=9 note=51 velocity=64 time=100
note_on channel=9 note=51 velocity=90 time=380
note_on channel=9 note=37 velocity=70 time=0
note_on channel=9 note=42 velocity=70 time=0
note_on channel=9 note=35 velocity=94 time=0
note_on channel=9 note=38 velocity=94 time=0
note_off channel=9 note=35 velocity=64 time=92
note_off channel=9 note=38 velocity=64 time=0
note_off channel=9 note=42 velocity=64 time=8
note_off channel=9 note=51 velocity=64 time=0
note_off channel=9 note=37 velocity=64 time=0
note_on channel=9 note=35 velocity=94 time=220
note_on channel=9 note=38 velocity=94 time=0
note_on channel=9 note=51 velocity=100 time=0
note_off channel=9 note=49 velocity=64 time=16
note_off channel=9 note=51 velocity=64 time=96
note_off channel=9 note=38 velocity=64 time=0
note_off channel=9 note=35 velocity=64 time=0
note_on channel=9 note=51 velocity=80 time=48
note_off channel=9 note=51 velocity=64 time=100
note_on channel=9 note=36 velocity=94 time=220
note_on channel=9 note=40 velocity=94 time=0
note_off channel=9 note=36 velocity=64 time=112
note_off channel=9 note=40 velocity=64 time=0
note_on channel=9 note=47 velocity=103 time=48
note_on channel=9 note=44 velocity=55 time=0
note_on channel=9 note=51 velocity=90 time=0
note_off channel=9 note=44 velocity=64 time=18
note_off channel=9 note=47 velocity=64 time=40
note_off channel=9 note=51 velocity=64 time=42
note_on channel=9 note=40 velocity=8 time=60
note_on channel=9 note=40 velocity=8 time=0
note_off channel=9 note=40 velocity=64 time=44
note_off channel=9 note=40 velocity=64 time=0
note_on channel=9 note=40 velocity=94 time=116
note_on channel=9 note=51 velocity=60 time=36
note_off channel=9 note=40 velocity=64 time=20
note_off channel=9 note=51 velocity=64 time=80
note_on channel=9 note=44 velocity=55 time=24
note_on channel=9 note=51 velocity=80 time=0
note_off channel=9 note=44 velocity=64 time=20
note_off channel=9 note=51 velocity=64 time=80
note_on channel=9 note=43 velocity=109 time=60
note_off channel=9 note=43 velocity=64 time=57
note_on channel=9 note=44 velocity=55 time=263
note_on channel=9 note=40 velocity=111 time=0
note_on channel=9 note=37 velocity=70 time=0
note_on channel=9 note=51 velocity=90 time=0
note_off channel=9 note=44 velocity=64 time=19
note_off channel=9 note=40 velocity=64 time=37
note_off channel=9 note=37 velocity=64 time=44
note_off channel=9 note=51 velocity=64 time=0
note_on channel=9 note=40 velocity=8 time=92
note_off channel=9 note=40 velocity=64 time=57
note_on channel=9 note=40 velocity=66 time=71
note_on channel=9 note=51 velocity=60 time=36
note_off channel=9 note=40 velocity=64 time=23
note_on channel=9 note=40 velocity=70 time=67
note_off channel=9 note=51 velocity=64 time=10
note_on channel=9 note=40 velocity=126 time=24
note_on channel=9 note=51 velocity=80 time=0
note_off channel=9 note=40 velocity=64 time=1
note_off channel=9 note=40 velocity=64 time=0
note_on channel=9 note=36 velocity=86 time=59
note_on channel=9 note=40 velocity=86 time=0
note_off channel=9 note=51 velocity=64 time=40
note_off channel=9 note=40 velocity=64 time=19
note_off channel=9 note=36 velocity=64 time=0
note_on channel=9 note=38 velocity=94 time=201
note_on channel=9 note=36 velocity=94 time=0
note_on channel=9 note=49 velocity=106 time=0
note_off channel=9 note=38 velocity=64 time=100
note_off channel=9 note=36 velocity=64 time=0
note_on channel=9 note=51 velocity=100 time=60
note_off channel=9 note=51 velocity=64 time=100
note_on channel=9 note=40 velocity=74 time=220
note_on channel=9 note=36 velocity=102 time=0
note_off channel=9 note=36 velocity=64 time=57
note_off channel=9 note=40 velocity=64 time=1
note_on channel=9 note=51 velocity=80 time=102
note_on channel=9 note=38 velocity=94 time=0
note_off channel=9 note=38 velocity=64 time=84
note_off channel=9 note=51 velocity=64 time=16
note_on channel=9 note=40 velocity=81 time=220
note_off channel=9 note=40 velocity=64 time=64
note_on channel=9 note=36 velocity=70 time=96
note_on channel=9 note=51 velocity=100 time=0
note_on channel=9 note=38 velocity=94 time=0
note_off channel=9 note=38 velocity=64 time=80
note_off channel=9 note=36 velocity=64 time=20
note_off channel=9 note=51 velocity=64 time=0
note_on channel=9 note=38 velocity=94 time=220
note_on channel=9 note=36 velocity=94 time=0
note_off channel=9 note=38 velocity=64 time=88
note_off channel=9 note=36 velocity=64 time=0
note_off channel=9 note=49 velocity=64 time=36
note_on channel=9 note=51 velocity=80 time=36
note_off channel=9 note=51 velocity=64 time=100
note_on channel=9 note=38 velocity=94 time=220
note_off channel=9 note=38 velocity=64 time=88
note_on channel=9 note=51 velocity=90 time=72
note_on channel=9 note=42 velocity=70 time=0
note_off channel=9 note=51 velocity=64 time=100
note_off channel=9 note=42 velocity=64 time=0
note_on channel=9 note=36 velocity=75 time=220
note_on channel=9 note=51 velocity=75 time=36
note_off channel=9 note=36 velocity=64 time=88
note_off channel=9 note=51 velocity=64 time=12
note_on channel=9 note=51 velocity=79 time=24
note_on channel=9 note=38 velocity=79 time=0
note_off channel=9 note=38 velocity=64 time=88
note_off channel=9 note=51 velocity=64 time=12
note_on channel=9 note=51 velocity=90 time=380
note_on channel=9 note=36 velocity=70 time=0
note_on channel=9 note=42 velocity=70 time=0
note_on channel=9 note=38 velocity=94 time=0
note_off channel=9 note=38 velocity=64 time=88
note_off channel=9 note=36 velocity=64 time=12
note_off channel=9 note=42 velocity=64 time=0
note_off channel=9 note=51 velocity=64 time=0
note_on channel=9 note=51 velocity=60 time=256
note_on channel=9 note=40 velocity=81 time=44
note_off channel=9 note=40 velocity=64 time=40
note_on channel=9 note=40 velocity=81 time=0
note_off channel=9 note=51 velocity=64 time=16
note_off channel=9 note=40 velocity=64 time=24
note_on channel=9 note=51 velocity=80 time=0
note_on channel=9 note=36 velocity=90 time=0
note_on channel=9 note=40 velocity=98 time=0
note_off channel=9 note=51 velocity=64 time=100
note_off channel=9 note=40 velocity=64 time=0
note_off channel=9 note=36 velocity=64 time=0
note_on channel=9 note=51 velocity=100 time=380
note_on channel=9 note=42 velocity=70 time=0
note_on channel=9 note=49 velocity=109 time=0
note_on channel=9 note=36 velocity=109 time=0
note_on channel=9 note=40 velocity=109 time=0
note_off channel=9 note=36 velocity=64 time=96
note_off channel=9 note=40 velocity=64 time=0
note_off channel=9 note=42 velocity=64 time=4
note_off channel=9 note=51 velocity=64 time=0
note_on channel=9 note=51 velocity=80 time=380
note_off channel=9 note=51 velocity=64 time=100
note_off channel=9 note=49 velocity=64 time=332
note_on channel=9 note=51 velocity=100 time=48
note_on channel=9 note=36 velocity=70 time=0
note_on channel=9 note=42 velocity=70 time=0
note_on channel=9 note=40 velocity=94 time=0
note_off channel=9 note=40 velocity=64 time=84
note_off channel=9 note=36 velocity=64 time=16
note_off channel=9 note=42 velocity=64 time=0
note_off channel=9 note=51 velocity=64 time=0
note_on channel=9 note=38 velocity=81 time=300
note_off channel=9 note=38 velocity=64 time=40
note_on channel=9 note=38 velocity=81 time=0
note_off channel=9 note=38 velocity=64 time=40
note_on channel=9 note=51 velocity=80 time=0
note_on channel=9 note=38 velocity=100 time=0
note_on channel=9 note=36 velocity=89 time=0
note_off channel=9 note=38 velocity=64 time=92
note_off channel=9 note=36 velocity=64 time=0
note_off channel=9 note=51 velocity=64 time=8
note_on channel=9 note=57 velocity=103 time=220
note_on channel=9 note=51 velocity=90 time=160
note_on channel=9 note=42 velocity=70 time=0
note_off channel=9 note=51 velocity=64 time=100
note_off channel=9 note=42 velocity=64 time=0
note_on channel=9 note=51 velocity=60 time=256
note_on channel=9 note=38 velocity=81 time=44
note_off channel=9 note=38 velocity=64 time=40
note_on channel=9 note=38 velocity=81 time=0
note_off channel=9 note=51 velocity=64 time=16
note_off channel=9 note=38 velocity=64 time=24
control_change channel=9 control=11 value=109 time=0
note_on channel=9 note=51 velocity=80 time=0
note_on channel=9 note=48 velocity=61 time=0
note_on channel=9 note=38 velocity=100 time=0
note_on channel=9 note=36 velocity=92 time=0
note_off channel=9 note=48 velocity=64 time=58
note_off channel=9 note=36 velocity=64 time=34
note_off channel=9 note=38 velocity=64 time=0
note_off channel=9 note=51 velocity=64 time=8
control_change channel=9 control=11 value=106 time=20
note_on channel=9 note=48 velocity=53 time=0
note_off channel=9 note=48 velocity=64 time=57
control_change channel=9 control=11 value=104 time=63
note_on channel=9 note=49 velocity=94 time=80
note_on channel=9 note=38 velocity=60 time=36
control_change channel=9 control=11 value=101 time=4
note_off channel=9 note=57 velocity=64 time=12
note_off channel=9 note=38 velocity=64 time=84
control_change channel=9 control=11 value=99 time=24
note_on channel=9 note=51 velocity=90 time=0
note_on channel=9 note=42 velocity=70 time=0
note_on channel=9 note=47 velocity=103 time=0
note_off channel=9 note=47 velocity=64 time=56
note_off channel=9 note=51 velocity=64 time=44
note_off channel=9 note=42 velocity=64 time=0
control_change channel=9 control=11 value=96 time=20
note_on channel=9 note=47 velocity=68 time=0
note_off channel=9 note=47 velocity=64 time=57
control_change channel=9 control=11 value=94 time=63
note_on channel=9 note=51 velocity=60 time=116
note_on channel=9 note=38 velocity=30 time=0
control_change channel=9 control=11 value=91 time=4
note_off channel=9 note=51 velocity=64 time=96
note_off channel=9 note=38 velocity=64 time=0
control_change channel=9 control=11 value=89 time=24
note_on channel=9 note=51 velocity=80 time=0
note_off channel=9 note=51 velocity=64 time=100
note_on channel=9 note=51 velocity=100 time=380
note_on channel=9 note=42 velocity=70 time=0
note_off channel=9 note=51 velocity=64 time=100
note_off channel=9 note=42 velocity=64 time=0
note_off channel=9 note=49 velocity=64 time=332
note_on channel=9 note=51 velocity=80 time=48
note_off channel=9 note=51 velocity=64 time=100
note_on channel=9 note=51 velocity=100 time=380
note_on channel=9 note=37 velocity=70 time=0
note_on channel=9 note=42 velocity=70 time=0
note_off channel=9 note=51 velocity=64 time=100
note_off channel=9 note=42 velocity=64 time=0
note_off channel=9 note=37 velocity=64 time=0
note_on channel=9 note=51 velocity=80 time=380
note_off channel=9 note=51 velocity=64 time=100
note_on channel=9 note=51 velocity=100 time=380
note_on channel=9 note=42 velocity=70 time=0
note_off channel=9 note=51 velocity=64 time=100
note_off channel=9 note=42 velocity=64 time=0
note_on channel=9 note=51 velocity=80 time=380
note_off channel=9 note=51 velocity=64 time=100
note_on channel=9 note=51 velocity=100 time=380
note_on channel=9 note=37 velocity=70 time=0
note_on channel=9 note=42 velocity=70 time=0
note_off channel=9 note=51 velocity=64 time=100
note_off channel=9 note=42 velocity=64 time=0
note_off channel=9 note=37 velocity=64 time=0
note_on channel=9 note=51 velocity=80 time=380
note_off channel=9 note=51 velocity=64 time=100
note_on channel=9 note=51 velocity=100 time=380
note_on channel=9 note=42 velocity=70 time=0
note_off channel=9 note=51 velocity=64 time=100
note_off channel=9 note=42 velocity=64 time=0
note_on channel=9 note=51 velocity=80 time=380
note_off channel=9 note=51 velocity=64 time=100
note_on channel=9 note=51 velocity=100 time=380
note_on channel=9 note=37 velocity=70 time=0
note_on channel=9 note=42 velocity=70 time=0
note_off channel=9 note=51 velocity=64 time=100
note_off channel=9 note=42 velocity=64 time=0
note_off channel=9 note=37 velocity=64 time=0
note_on channel=9 note=51 velocity=80 time=380
note_off channel=9 note=51 velocity=64 time=100
note_on channel=9 note=51 velocity=100 time=380
note_on channel=9 note=42 velocity=70 time=0
note_off channel=9 note=51 velocity=64 time=100
note_off channel=9 note=42 velocity=64 time=0
note_on channel=9 note=51 velocity=80 time=380
note_off channel=9 note=51 velocity=64 time=100
note_on channel=9 note=51 velocity=100 time=380
note_on channel=9 note=37 velocity=70 time=0
note_on channel=9 note=42 velocity=70 time=0
note_off channel=9 note=51 velocity=64 time=100
note_off channel=9 note=42 velocity=64 time=0
note_off channel=9 note=37 velocity=64 time=0
note_on channel=9 note=51 velocity=80 time=380
note_off channel=9 note=51 velocity=64 time=100
note_on channel=9 note=51 velocity=100 time=380
note_on channel=9 note=42 velocity=70 time=0
note_off channel=9 note=51 velocity=64 time=100
note_off channel=9 note=42 velocity=64 time=0
note_on channel=9 note=51 velocity=80 time=380
note_off channel=9 note=51 velocity=64 time=100
note_on channel=9 note=51 velocity=100 time=380
note_on channel=9 note=37 velocity=70 time=0
note_on channel=9 note=42 velocity=70 time=0
note_off channel=9 note=51 velocity=64 time=100
note_off channel=9 note=42 velocity=64 time=0
note_off channel=9 note=37 velocity=64 time=0
note_on channel=9 note=51 velocity=80 time=380
note_off channel=9 note=51 velocity=64 time=100
note_on channel=9 note=51 velocity=90 time=380
note_on channel=9 note=42 velocity=70 time=0
note_off channel=9 note=51 velocity=64 time=100
note_off channel=9 note=42 velocity=64 time=0
note_on channel=9 note=51 velocity=60 time=256
note_off channel=9 note=51 velocity=64 time=100
note_on channel=9 note=51 velocity=80 time=24
note_off channel=9 note=51 velocity=64 time=100
note_on channel=9 note=51 velocity=90 time=380
note_on channel=9 note=37 velocity=70 time=0
note_on channel=9 note=42 velocity=70 time=0
note_off channel=9 note=51 velocity=64 time=100
note_off channel=9 note=42 velocity=64 time=0
note_off channel=9 note=37 velocity=64 time=0
note_on channel=9 note=51 velocity=60 time=256
note_off channel=9 note=51 velocity=64 time=100
control_change channel=9 control=11 value=89 time=24
note_on channel=9 note=51 velocity=80 time=0
note_off channel=9 note=51 velocity=64 time=100
control_change channel=9 control=11 value=90 time=140
control_change channel=9 control=11 value=91 time=240
note_on channel=9 note=51 velocity=100 time=0
note_on channel=9 note=42 velocity=70 time=0
note_off channel=9 note=51 velocity=64 time=100
note_off channel=9 note=42 velocity=64 time=0
control_change channel=9 control=11 value=93 time=140
control_change channel=9 control=11 value=94 time=240
note_on channel=9 note=51 velocity=80 time=0
note_off channel=9 note=51 velocity=64 time=100
control_change channel=9 control=11 value=95 time=140
control_change channel=9 control=11 value=96 time=240
note_on channel=9 note=51 velocity=100 time=0
note_on channel=9 note=37 velocity=70 time=0
note_on channel=9 note=42 velocity=70 time=0
note_off channel=9 note=51 velocity=64 time=100
note_off channel=9 note=42 velocity=64 time=0
note_off channel=9 note=37 velocity=64 time=0
control_change channel=9 control=11 value=98 time=140
control_change channel=9 control=11 value=99 time=240
note_on channel=9 note=51 velocity=80 time=0
note_on channel=9 note=38 velocity=100 time=0
note_on channel=9 note=35 velocity=100 time=0
note_off channel=9 note=51 velocity=64 time=100
note_off channel=9 note=35 velocity=64 time=0
note_off channel=9 note=38 velocity=64 time=0
note_on channel=9 note=38 velocity=60 time=60
control_change channel=9 control=11 value=100 time=80
note_off channel=9 note=38 velocity=64 time=20
note_on channel=9 note=38 velocity=50 time=60
note_off channel=9 note=38 velocity=64 time=100
control_change channel=9 control=11 value=101 time=60
note_on channel=9 note=51 velocity=90 time=0
note_on channel=9 note=42 velocity=70 time=0
note_on channel=9 note=42 velocity=100 time=0
note_on channel=9 note=38 velocity=40 time=0
note_off channel=9 note=51 velocity=64 time=100
note_off channel=9 note=38 velocity=64 time=0
note_off channel=9 note=42 velocity=64 time=0
note_off channel=9 note=42 velocity=64 time=0
note_on channel=9 note=38 velocity=30 time=60
control_change channel=9 control=11 value=103 time=80
note_off channel=9 note=38 velocity=64 time=20
note_on channel=9 note=48 velocity=90 time=60
note_on channel=9 note=51 velocity=60 time=36
note_off channel=9 note=48 velocity=64 time=64
note_off channel=9 note=51 velocity=64 time=36
control_change channel=9 control=11 value=104 time=24
note_on channel=9 note=51 velocity=80 time=0
note_on channel=9 note=38 velocity=60 time=0
note_off channel=9 note=51 velocity=64 time=100
note_off channel=9 note=38 velocity=64 time=0
note_on channel=9 note=38 velocity=40 time=60
control_change channel=9 control=11 value=105 time=80
note_off channel=9 note=38 velocity=64 time=20
note_on channel=9 note=45 velocity=90 time=60
note_on channel=9 note=38 velocity=60 time=36
note_off channel=9 note=45 velocity=64 time=64
note_off channel=9 note=38 velocity=64 time=36
control_change channel=9 control=11 value=106 time=24
note_on channel=9 note=51 velocity=90 time=0
note_on channel=9 note=42 velocity=70 time=0
note_on channel=9 note=42 velocity=100 time=0
note_on channel=9 note=38 velocity=60 time=0
note_off channel=9 note=51 velocity=64 time=100
note_off channel=9 note=38 velocity=64 time=0
note_off channel=9 note=42 velocity=64 time=0
note_off channel=9 note=42 velocity=64 time=0
note_on channel=9 note=38 velocity=40 time=60
control_change channel=9 control=11 value=108 time=80
note_off channel=9 note=38 velocity=64 time=20
note_on channel=9 note=41 velocity=90 time=60
note_on channel=9 note=51 velocity=60 time=36
note_on channel=9 note=38 velocity=30 time=0
note_on channel=9 note=40 velocity=81 time=44
note_off channel=9 note=41 velocity=64 time=20
note_off channel=9 note=40 velocity=64 time=20
note_on channel=9 note=40 velocity=81 time=0
note_off channel=9 note=38 velocity=64 time=16
note_off channel=9 note=51 velocity=64 time=0
note_off channel=9 note=40 velocity=64 time=24
control_change channel=9 control=11 value=109 time=0
note_on channel=9 note=51 velocity=80 time=0
note_on channel=9 note=38 velocity=90 time=0
note_on channel=9 note=35 velocity=90 time=0
note_on channel=9 note=40 velocity=90 time=0
note_off channel=9 note=51 velocity=64 time=100
note_off channel=9 note=40 velocity=64 time=0
note_off channel=9 note=35 velocity=64 time=0
note_off channel=9 note=38 velocity=64 time=0
note_on channel=9 note=38 velocity=95 time=220
note_on channel=9 note=49 velocity=100 time=0
note_on channel=9 note=35 velocity=95 time=0
note_off channel=9 note=38 velocity=64 time=72
note_off channel=9 note=35 velocity=64 time=0
note_on channel=9 note=51 velocity=90 time=88
note_on channel=9 note=42 velocity=70 time=0
note_off channel=9 note=51 velocity=64 time=100
note_off channel=9 note=42 velocity=64 time=0
note_on channel=9 note=38 velocity=95 time=220
note_on channel=9 note=35 velocity=95 time=0
note_on channel=9 note=51 velocity=60 time=36
note_off channel=9 note=38 velocity=64 time=28
note_off channel=9 note=35 velocity=64 time=0
note_off channel=9 note=51 velocity=64 time=72
note_on channel=9 note=51 velocity=80 time=24
note_on channel=9 note=38 velocity=95 time=0
note_on channel=9 note=35 velocity=95 time=0
note_off channel=9 note=38 velocity=64 time=64
note_off channel=9 note=35 velocity=64 time=0
note_off channel=9 note=51 velocity=64 time=36
note_on channel=9 note=51 velocity=90 time=380
note_on channel=9 note=35 velocity=70 time=0
note_on channel=9 note=42 velocity=70 time=0
note_on channel=9 note=38 velocity=95 time=0
note_off channel=9 note=35 velocity=64 time=64
note_off channel=9 note=38 velocity=64 time=0
note_off channel=9 note=42 velocity=64 time=36
note_off channel=9 note=51 velocity=64 time=0
note_on channel=9 note=51 velocity=60 time=256
note_off channel=9 note=49 velocity=64 time=12
note_off channel=9 note=51 velocity=64 time=88
control_change channel=9 control=93 value=30 time=24
control_change channel=9 control=93 value=30 time=0
control_change channel=9 control=93 value=30 time=0
control_change channel=9 control=93 value=30 time=0
note_on channel=9 note=51 velocity=80 time=0
note_on channel=9 note=38 velocity=94 time=0
note_on channel=9 note=57 velocity=94 time=0
note_on channel=9 note=35 velocity=94 time=0
note_off channel=9 note=38 velocity=64 time=64
note_off channel=9 note=35 velocity=64 time=0
note_off channel=9 note=51 velocity=64 time=36
note_on channel=9 note=51 velocity=90 time=380
note_on channel=9 note=42 velocity=70 time=0
note_on channel=9 note=38 velocity=94 time=0
note_off channel=9 note=38 velocity=64 time=64
note_off channel=9 note=51 velocity=64 time=36
note_off channel=9 note=42 velocity=64 time=0
note_on channel=9 note=38 velocity=94 time=220
note_on channel=9 note=35 velocity=94 time=0
note_on channel=9 note=51 velocity=60 time=36
note_off channel=9 note=38 velocity=64 time=28
note_off channel=9 note=35 velocity=64 time=0
note_off channel=9 note=51 velocity=64 time=72
note_on channel=9 note=51 velocity=80 time=24
note_off channel=9 note=51 velocity=64 time=100
note_on channel=9 note=40 velocity=86 time=300
note_off channel=9 note=40 velocity=64 time=40
note_on channel=9 note=40 velocity=81 time=0
note_off channel=9 note=40 velocity=64 time=40
note_on channel=9 note=51 velocity=90 time=0
note_on channel=9 note=35 velocity=70 time=0
note_on channel=9 note=42 velocity=70 time=0
note_on channel=9 note=40 velocity=94 time=0
note_off channel=9 note=35 velocity=64 time=88
note_off channel=9 note=40 velocity=64 time=0
note_off channel=9 note=42 velocity=64 time=12
note_off channel=9 note=51 velocity=64 time=0
note_on channel=9 note=49 velocity=100 time=220
note_on channel=9 note=35 velocity=81 time=0
note_on channel=9 note=38 velocity=94 time=0
note_on channel=9 note=51 velocity=60 time=36
note_off channel=9 note=57 velocity=64 time=44
note_off channel=9 note=38 velocity=64 time=8
note_off channel=9 note=35 velocity=64 time=0
note_off channel=9 note=51 velocity=64 time=48
note_on channel=9 note=51 velocity=80 time=24
note_off channel=9 note=51 velocity=64 time=100
note_on channel=9 note=51 velocity=90 time=380
note_on channel=9 note=42 velocity=70 time=0
note_on channel=9 note=38 velocity=94 time=0
note_on channel=9 note=35 velocity=94 time=0
note_off channel=9 note=51 velocity=64 time=100
note_off channel=9 note=42 velocity=64 time=0
note_off channel=9 note=38 velocity=64 time=12
note_off channel=9 note=35 velocity=64 time=0
note_on channel=9 note=51 velocity=60 time=244
note_off channel=9 note=51 velocity=64 time=100
note_on channel=9 note=51 velocity=80 time=24
note_on channel=9 note=38 velocity=94 time=0
note_off channel=9 note=51 velocity=64 time=100
note_off channel=9 note=38 velocity=64 time=12
note_on channel=9 note=38 velocity=94 time=208
note_on channel=9 note=35 velocity=94 time=0
note_off channel=9 note=38 velocity=64 time=112
note_off channel=9 note=35 velocity=64 time=0
note_on channel=9 note=51 velocity=90 time=48
note_on channel=9 note=35 velocity=70 time=0
note_on channel=9 note=42 velocity=70 time=0
note_on channel=9 note=40 velocity=90 time=0
note_off channel=9 note=49 velocity=64 time=48
note_off channel=9 note=40 velocity=64 time=52
note_off channel=9 note=42 velocity=64 time=0
note_off channel=9 note=35 velocity=64 time=0
note_off channel=9 note=51 velocity=64 time=0
note_on channel=9 note=38 velocity=94 time=220
note_on channel=9 note=57 velocity=101 time=0
note_on channel=9 note=35 velocity=94 time=0
note_on channel=9 note=51 velocity=60 time=36
note_off channel=9 note=38 velocity=64 time=76
note_off channel=9 note=35 velocity=64 time=0
note_off channel=9 note=51 velocity=64 time=24
note_on channel=9 note=51 velocity=80 time=24
note_off channel=9 note=51 velocity=64 time=100
note_on channel=9 note=51 velocity=90 time=380
note_on channel=9 note=42 velocity=70 time=0
note_on channel=9 note=38 velocity=94 time=0
note_on channel=9 note=35 velocity=94 time=0
note_off channel=9 note=51 velocity=64 time=100
note_off channel=9 note=42 velocity=64 time=0
note_off channel=9 note=38 velocity=64 time=12
note_off channel=9 note=35 velocity=64 time=0
note_on channel=9 note=38 velocity=94 time=208
note_on channel=9 note=35 velocity=94 time=0
note_on channel=9 note=51 velocity=60 time=36
note_off channel=9 note=38 velocity=64 time=76
note_off channel=9 note=35 velocity=64 time=0
note_off channel=9 note=51 velocity=64 time=24
note_on channel=9 note=51 velocity=80 time=24
note_on channel=9 note=40 velocity=10 time=0
note_off channel=9 note=40 velocity=64 time=57
note_off channel=9 note=51 velocity=64 time=43
note_on channel=9 note=40 velocity=8 time=140
note_off channel=9 note=40 velocity=64 time=57
note_on channel=9 note=38 velocity=20 time=59
note_on channel=9 note=40 velocity=103 time=4
note_off channel=9 note=40 velocity=64 time=58
note_off channel=9 note=38 velocity=64 time=38
note_on channel=9 note=51 velocity=90 time=24
note_on channel=9 note=35 velocity=70 time=0
note_on channel=9 note=38 velocity=40 time=0
note_off channel=9 note=51 velocity=64 time=100
note_off channel=9 note=38 velocity=64 time=0
note_off channel=9 note=35 velocity=64 time=0
note_on channel=9 note=47 velocity=111 time=20
note_off channel=9 note=47 velocity=64 time=57
note_on channel=9 note=40 velocity=8 time=63
note_off channel=9 note=40 velocity=64 time=57
note_on channel=9 note=51 velocity=60 time=59
note_off channel=9 note=57 velocity=64 time=4
note_on channel=9 note=40 velocity=64 time=0
note_off channel=9 note=40 velocity=64 time=57
note_off channel=9 note=51 velocity=64 time=39
note_on channel=9 note=40 velocity=62 time=2
note_on channel=9 note=51 velocity=80 time=22
note_on channel=9 note=40 velocity=126 time=1
note_off channel=9 note=40 velocity=64 time=7
note_off channel=9 note=40 velocity=64 time=0
note_off channel=9 note=51 velocity=64 time=92
note_on channel=9 note=49 velocity=101 time=220
note_on channel=9 note=35 velocity=101 time=0
note_on channel=9 note=40 velocity=101 time=0
note_off channel=9 note=35 velocity=64 time=88
note_off channel=9 note=40 velocity=64 time=0
note_on channel=9 note=51 velocity=90 time=72
note_on channel=9 note=42 velocity=70 time=0
note_off channel=9 note=51 velocity=64 time=100
note_off channel=9 note=42 velocity=64 time=0
note_on channel=9 note=51 velocity=60 time=252
note_off channel=9 note=51 velocity=64 time=100
note_on channel=9 note=51 velocity=80 time=28
note_on channel=9 note=38 velocity=94 time=0
note_on channel=9 note=35 velocity=94 time=0
note_off channel=9 note=38 velocity=64 time=60
note_off channel=9 note=35 velocity=64 time=0
note_off channel=9 note=51 velocity=64 time=40
note_on channel=9 note=51 velocity=90 time=380
note_on channel=9 note=42 velocity=70 time=0
note_on channel=9 note=38 velocity=94 time=0
note_on channel=9 note=35 velocity=94 time=0
note_off channel=9 note=38 velocity=64 time=60
note_off channel=9 note=35 velocity=64 time=0
note_off channel=9 note=51 velocity=64 time=40
note_off channel=9 note=42 velocity=64 time=0
note_off channel=9 note=49 velocity=64 time=236
note_on channel=9 note=51 velocity=60 time=16
note_off channel=9 note=51 velocity=64 time=100
note_on channel=9 note=51 velocity=80 time=28
note_on channel=9 note=38 velocity=94 time=0
note_off channel=9 note=38 velocity=64 time=86
note_off channel=9 note=51 velocity=64 time=14
note_on channel=9 note=40 velocity=81 time=220
note_off channel=9 note=40 velocity=64 time=88
note_on channel=9 note=51 velocity=90 time=72
note_on channel=9 note=42 velocity=70 time=0
note_on channel=9 note=38 velocity=81 time=0
note_off channel=9 note=38 velocity=64 time=88
note_off channel=9 note=51 velocity=64 time=12
note_off channel=9 note=42 velocity=64 time=0
note_on channel=9 note=38 velocity=94 time=220
note_on channel=9 note=57 velocity=94 time=0
note_on channel=9 note=35 velocity=94 time=0
note_on channel=9 note=51 velocity=60 time=36
note_off channel=9 note=38 velocity=64 time=88
note_off channel=9 note=35 velocity=64 time=0
note_off channel=9 note=51 velocity=64 time=12
note_on channel=9 note=51 velocity=80 time=24
note_off channel=9 note=51 velocity=64 time=100
note_on channel=9 note=38 velocity=20 time=256
note_on channel=9 note=40 velocity=103 time=4
note_off channel=9 note=40 velocity=64 time=58
note_off channel=9 note=38 velocity=64 time=38
note_on channel=9 note=51 velocity=90 time=24
note_on channel=9 note=37 velocity=70 time=0
note_on channel=9 note=42 velocity=70 time=0
note_on channel=9 note=38 velocity=40 time=0
note_on channel=9 note=35 velocity=70 time=0
note_off channel=9 note=51 velocity=64 time=100
note_off channel=9 note=35 velocity=64 time=0
note_off channel=9 note=38 velocity=64 time=0
note_off channel=9 note=42 velocity=64 time=0
note_off channel=9 note=37 velocity=64 time=0
note_on channel=9 note=47 velocity=111 time=20
note_off channel=9 note=47 velocity=64 time=57
note_on channel=9 note=40 velocity=8 time=63
note_off channel=9 note=40 velocity=64 time=57
note_on channel=9 note=51 velocity=60 time=59
note_on channel=9 note=40 velocity=64 time=4
note_off channel=9 note=40 velocity=64 time=57
note_off channel=9 note=51 velocity=64 time=39
note_on channel=9 note=40 velocity=62 time=2
note_on channel=9 note=51 velocity=80 time=22
note_on channel=9 note=40 velocity=126 time=1
note_off channel=9 note=40 velocity=64 time=7
note_off channel=9 note=40 velocity=64 time=0
note_off channel=9 note=51 velocity=64 time=92
note_on channel=9 note=40 velocity=101 time=220
note_on channel=9 note=35 velocity=101 time=0
note_on channel=9 note=49 velocity=101 time=0
note_off channel=9 note=40 velocity=64 time=88
note_off channel=9 note=35 velocity=64 time=0
note_off channel=9 note=57 velocity=64 time=36
note_on channel=9 note=51 velocity=100 time=36
note_on channel=9 note=42 velocity=70 time=0
note_off channel=9 note=51 velocity=64 time=100
note_off channel=9 note=42 velocity=64 time=0
note_on channel=9 note=51 velocity=80 time=380
note_off channel=9 note=51 velocity=64 time=100
note_on channel=9 note=51 velocity=100 time=380
note_on channel=9 note=35 velocity=70 time=0
note_on channel=9 note=42 velocity=70 time=0
note_off channel=9 note=51 velocity=64 time=100
note_off channel=9 note=42 velocity=64 time=0
note_off channel=9 note=35 velocity=64 time=0
note_off channel=9 note=49 velocity=64 time=236
note_on channel=9 note=51 velocity=80 time=144
note_off channel=9 note=51 velocity=64 time=100
note_on channel=9 note=51 velocity=90 time=380
note_on channel=9 note=42 velocity=70 time=0
note_off channel=9 note=51 velocity=64 time=100
note_off channel=9 note=42 velocity=64 time=0
note_on channel=9 note=51 velocity=60 time=256
note_off channel=9 note=51 velocity=64 time=100
control_change channel=9 control=11 value=109 time=24
note_on channel=9 note=51 velocity=80 time=0
note_on channel=9 note=45 velocity=81 time=0
note_off channel=9 note=45 velocity=64 time=80
note_off channel=9 note=51 velocity=64 time=20
control_change channel=9 control=11 value=108 time=20
control_change channel=9 control=11 value=106 time=120
note_on channel=9 note=45 velocity=81 time=80
control_change channel=9 control=11 value=105 time=40
note_off channel=9 note=45 velocity=64 time=48
control_change channel=9 control=11 value=103 time=72
note_on channel=9 note=51 velocity=90 time=0
note_on channel=9 note=35 velocity=70 time=0
note_on channel=9 note=40 velocity=70 time=0
note_on channel=9 note=43 velocity=81 time=0
note_off channel=9 note=43 velocity=64 time=88
note_off channel=9 note=35 velocity=64 time=12
note_off channel=9 note=40 velocity=64 time=0
note_off channel=9 note=51 velocity=64 time=0
control_change channel=9 control=11 value=101 time=20
note_on channel=9 note=41 velocity=81 time=40
control_change channel=9 control=11 value=100 time=80
note_off channel=9 note=41 velocity=64 time=8
note_on channel=9 note=40 velocity=84 time=72
note_on channel=9 note=51 velocity=84 time=36
control_change channel=9 control=11 value=99 time=4
note_off channel=9 note=40 velocity=64 time=48
note_off channel=9 note=51 velocity=64 time=48
note_on channel=9 note=40 velocity=62 time=2
control_change channel=9 control=11 value=96 time=22
note_on channel=9 note=51 velocity=80 time=0
note_on channel=9 note=40 velocity=126 time=1
note_off channel=9 note=40 velocity=64 time=7
note_off channel=9 note=40 velocity=64 time=0
note_off channel=9 note=51 velocity=64 time=92
note_on channel=9 note=49 velocity=94 time=220
note_on channel=9 note=40 velocity=81 time=0
note_on channel=9 note=35 velocity=81 time=0
note_off channel=9 note=40 velocity=64 time=88
note_off channel=9 note=35 velocity=64 time=0
note_on channel=9 note=51 velocity=90 time=72
note_on channel=9 note=42 velocity=70 time=0
note_off channel=9 note=51 velocity=64 time=100
note_off channel=9 note=42 velocity=64 time=0
note_on channel=9 note=51 velocity=60 time=256
note_off channel=9 note=51 velocity=64 time=100
note_on channel=9 note=51 velocity=80 time=24
note_off channel=9 note=51 velocity=64 time=100
note_on channel=9 note=51 velocity=90 time=380
note_on channel=9 note=37 velocity=70 time=0
note_on channel=9 note=42 velocity=70 time=0
note_off channel=9 note=51 velocity=64 time=100
note_off channel=9 note=42 velocity=64 time=0
note_off channel=9 note=37 velocity=64 time=0
note_off channel=9 note=49 velocity=64 time=236
note_on channel=9 note=51 velocity=60 time=20
note_off channel=9 note=51 velocity=64 time=100
note_on channel=9 note=51 velocity=80 time=24
note_off channel=9 note=51 velocity=64 time=100
note_on channel=9 note=51 velocity=100 time=380
note_on channel=9 note=42 velocity=70 time=0
note_off channel=9 note=51 velocity=64 time=100
note_off channel=9 note=42 velocity=64 time=0
note_on channel=9 note=51 velocity=80 time=380
note_off channel=9 note=51 velocity=64 time=100
note_on channel=9 note=38 velocity=60 time=300
note_off channel=9 note=38 velocity=64 time=40
note_on channel=9 note=38 velocity=65 time=0
note_off channel=9 note=38 velocity=64 time=40
note_on channel=9 note=51 velocity=66 time=0
note_on channel=9 note=35 velocity=66 time=0
note_on channel=9 note=42 velocity=66 time=0
note_on channel=9 note=38 velocity=66 time=0
note_off channel=9 note=51 velocity=64 time=100
note_off channel=9 note=38 velocity=64 time=0
note_off channel=9 note=42 velocity=64 time=0
note_off channel=9 note=35 velocity=64 time=0
note_on channel=9 note=38 velocity=67 time=238
note_on channel=9 note=35 velocity=67 time=0
note_off channel=9 note=38 velocity=61 time=108
note_off channel=9 note=35 velocity=61 time=0
control_change channel=9 control=0 value=62 time=34
control_change channel=9 control=32 value=0 time=0
program_change channel=9 program=40 time=0
note_on channel=9 note=38 velocity=54 time=1920
note_off channel=9 note=38 velocity=64 time=80
note_on channel=9 note=38 velocity=56 time=0
note_off channel=9 note=38 velocity=64 time=80
note_on channel=9 note=38 velocity=51 time=320
note_on channel=9 note=35 velocity=51 time=0
note_off channel=9 note=38 velocity=64 time=96
note_off channel=9 note=35 velocity=64 time=0
note_on channel=9 note=35 velocity=75 time=224
note_on channel=9 note=57 velocity=75 time=0
note_off channel=9 note=35 velocity=64 time=88
note_off channel=9 note=57 velocity=64 time=0
note_on channel=9 note=57 velocity=72 time=12
note_off channel=9 note=57 velocity=64 time=60
note_on channel=9 note=57 velocity=25 time=0
note_off channel=9 note=57 velocity=64 time=60
note_on channel=9 note=57 velocity=25 time=0
note_off channel=9 note=57 velocity=64 time=60
note_on channel=9 note=57 velocity=26 time=0
note_off channel=9 note=57 velocity=64 time=60
note_on channel=9 note=57 velocity=26 time=0
note_off channel=9 note=57 velocity=64 time=60
note_on channel=9 note=57 velocity=27 time=0
note_off channel=9 note=57 velocity=64 time=60
note_on channel=9 note=57 velocity=27 time=0
note_off channel=9 note=57 velocity=64 time=60
note_on channel=9 note=57 velocity=28 time=0
note_off channel=9 note=57 velocity=64 time=60
note_on channel=9 note=57 velocity=28 time=0
note_off channel=9 note=57 velocity=64 time=60
note_on channel=9 note=57 velocity=28 time=0
note_off channel=9 note=57 velocity=64 time=60
note_on channel=9 note=57 velocity=30 time=0
note_off channel=9 note=57 velocity=64 time=60
note_on channel=9 note=57 velocity=30 time=0
note_off channel=9 note=57 velocity=64 time=60
note_on channel=9 note=57 velocity=31 time=0
note_off channel=9 note=57 velocity=64 time=60
note_on channel=9 note=57 velocity=31 time=0
note_off channel=9 note=57 velocity=64 time=60
note_on channel=9 note=57 velocity=32 time=0
note_off channel=9 note=57 velocity=64 time=60
note_on channel=9 note=57 velocity=32 time=0
note_off channel=9 note=57 velocity=64 time=60
note_on channel=9 note=57 velocity=33 time=0
note_off channel=9 note=57 velocity=64 time=60
note_on channel=9 note=57 velocity=33 time=0
note_off channel=9 note=57 velocity=64 time=60
note_on channel=9 note=57 velocity=35 time=0
note_off channel=9 note=57 velocity=64 time=60
note_on channel=9 note=57 velocity=35 time=0
note_off channel=9 note=57 velocity=64 time=60
note_on channel=9 note=57 velocity=36 time=0
note_off channel=9 note=57 velocity=64 time=60
note_on channel=9 note=57 velocity=36 time=0
note_off channel=9 note=57 velocity=64 time=60
note_on channel=9 note=57 velocity=36 time=0
note_off channel=9 note=57 velocity=64 time=60
note_on channel=9 note=57 velocity=37 time=0
note_off channel=9 note=57 velocity=64 time=60
note_on channel=9 note=57 velocity=37 time=0
note_off channel=9 note=57 velocity=64 time=60
note_on channel=9 note=57 velocity=38 time=0
note_off channel=9 note=57 velocity=64 time=60
note_on channel=9 note=57 velocity=38 time=0
note_off channel=9 note=57 velocity=64 time=60
note_on channel=9 note=57 velocity=40 time=0
note_off channel=9 note=57 velocity=64 time=60
note_on channel=9 note=57 velocity=40 time=0
note_off channel=9 note=57 velocity=64 time=60
note_on channel=9 note=57 velocity=41 time=0
note_off channel=9 note=57 velocity=64 time=60
note_on channel=9 note=57 velocity=41 time=0
note_off channel=9 note=57 velocity=64 time=60
note_on channel=9 note=57 velocity=41 time=0
note_off channel=9 note=57 velocity=64 time=60
note_on channel=9 note=57 velocity=42 time=0
note_off channel=9 note=57 velocity=64 time=60
note_on channel=9 note=57 velocity=42 time=0
note_off channel=9 note=57 velocity=64 time=60
note_on channel=9 note=57 velocity=44 time=0
note_off channel=9 note=57 velocity=64 time=60
note_on channel=9 note=57 velocity=44 time=0
note_off channel=9 note=57 velocity=64 time=60
note_on channel=9 note=57 velocity=42 time=0
note_off channel=9 note=57 velocity=64 time=60
note_on channel=9 note=57 velocity=42 time=0
note_off channel=9 note=57 velocity=64 time=60
note_on channel=9 note=57 velocity=41 time=0
note_off channel=9 note=57 velocity=64 time=60
note_on channel=9 note=57 velocity=41 time=0
note_off channel=9 note=57 velocity=64 time=60
note_on channel=9 note=57 velocity=40 time=0
note_off channel=9 note=57 velocity=64 time=60
note_on channel=9 note=57 velocity=40 time=0
note_off channel=9 note=57 velocity=64 time=60
note_on channel=9 note=57 velocity=38 time=0
note_off channel=9 note=57 velocity=64 time=60
note_on channel=9 note=57 velocity=38 time=0
note_off channel=9 note=57 velocity=64 time=60
note_on channel=9 note=57 velocity=37 time=0
note_off channel=9 note=57 velocity=64 time=60
note_on channel=9 note=57 velocity=37 time=0
note_off channel=9 note=57 velocity=64 time=60
note_on channel=9 note=57 velocity=36 time=0
note_off channel=9 note=57 velocity=64 time=60
note_on channel=9 note=57 velocity=36 time=0
note_off channel=9 note=57 velocity=64 time=60
note_on channel=9 note=57 velocity=36 time=0
note_off channel=9 note=57 velocity=64 time=60
note_on channel=9 note=57 velocity=35 time=0
note_off channel=9 note=57 velocity=64 time=60
note_on channel=9 note=57 velocity=35 time=0
note_off channel=9 note=57 velocity=64 time=60
note_on channel=9 note=57 velocity=33 time=0
note_off channel=9 note=57 velocity=64 time=60
note_on channel=9 note=57 velocity=33 time=0
note_off channel=9 note=57 velocity=64 time=60
note_on channel=9 note=57 velocity=32 time=0
note_off channel=9 note=57 velocity=64 time=60
note_on channel=9 note=57 velocity=32 time=0
note_off channel=9 note=57 velocity=64 time=60
note_on channel=9 note=57 velocity=31 time=0
note_off channel=9 note=57 velocity=64 time=60
note_on channel=9 note=57 velocity=31 time=0
note_off channel=9 note=57 velocity=64 time=60
note_on channel=9 note=57 velocity=30 time=0
note_off channel=9 note=57 velocity=64 time=60
note_on channel=9 note=57 velocity=30 time=0
note_off channel=9 note=57 velocity=64 time=60
note_on channel=9 note=57 velocity=28 time=0
note_off channel=9 note=57 velocity=64 time=60
note_on channel=9 note=57 velocity=28 time=0
note_off channel=9 note=57 velocity=64 time=60
note_on channel=9 note=57 velocity=28 time=0
note_off channel=9 note=57 velocity=64 time=60
note_on channel=9 note=57 velocity=27 time=0
note_off channel=9 note=57 velocity=64 time=60
note_on channel=9 note=57 velocity=27 time=0
note_off channel=9 note=57 velocity=64 time=60
note_on channel=9 note=57 velocity=26 time=0
note_off channel=9 note=57 velocity=64 time=60
<meta message end_of_track time=0>
<meta message text text='Jazz Bass' time=0>
control_change channel=0 control=11 value=89 time=0
control_change channel=0 control=7 value=94 time=0
control_change channel=0 control=10 value=44 time=0
control_change channel=0 control=91 value=81 time=0
control_change channel=0 control=93 value=5 time=0
control_change channel=0 control=0 value=56 time=0
control_change channel=0 control=32 value=0 time=0
program_change channel=0 program=32 time=0
note_on channel=0 note=43 velocity=98 time=5760
note_on channel=0 note=31 velocity=91 time=356
note_off channel=0 note=43 velocity=64 time=8
note_off channel=0 note=31 velocity=64 time=116
note_on channel=0 note=43 velocity=100 time=0
note_off channel=0 note=43 velocity=64 time=476
note_on channel=0 note=43 velocity=72 time=4
note_off channel=0 note=43 velocity=64 time=360
note_on channel=0 note=31 velocity=69 time=0
note_off channel=0 note=31 velocity=64 time=32
note_on channel=0 note=43 velocity=72 time=88
note_off channel=0 note=43 velocity=64 time=360
note_on channel=0 note=31 velocity=69 time=0
note_off channel=0 note=31 velocity=64 time=32
note_on channel=0 note=36 velocity=82 time=88
note_off channel=0 note=36 velocity=64 time=268
note_on channel=0 note=36 velocity=94 time=88
note_off channel=0 note=36 velocity=64 time=116
note_on channel=0 note=35 velocity=75 time=8
note_off channel=0 note=35 velocity=64 time=480
note_on channel=0 note=36 velocity=87 time=0
note_on channel=0 note=24 velocity=64 time=356
note_off channel=0 note=36 velocity=64 time=76
note_off channel=0 note=24 velocity=64 time=52
note_on channel=0 note=42 velocity=87 time=0
note_off channel=0 note=42 velocity=64 time=476
control_change channel=0 control=11 value=96 time=0
note_on channel=0 note=41 velocity=98 time=0
note_on channel=0 note=29 velocity=91 time=356
note_off channel=0 note=41 velocity=64 time=8
note_off channel=0 note=29 velocity=64 time=116
note_on channel=0 note=41 velocity=100 time=0
control_change channel=0 control=11 value=98 time=288
note_off channel=0 note=41 velocity=64 time=188
note_on channel=0 note=41 velocity=72 time=4
note_off channel=0 note=41 velocity=64 time=360
note_on channel=0 note=29 velocity=69 time=0
note_off channel=0 note=29 velocity=64 time=32
note_on channel=0 note=41 velocity=72 time=88
control_change channel=0 control=11 value=99 time=96
note_off channel=0 note=41 velocity=64 time=264
note_on channel=0 note=29 velocity=69 time=0
note_off channel=0 note=29 velocity=64 time=32
note_on channel=0 note=38 velocity=86 time=88
note_on channel=0 note=33 velocity=62 time=356
control_change channel=0 control=11 value=100 time=28
note_off channel=0 note=33 velocity=64 time=52
note_off channel=0 note=38 velocity=64 time=24
note_on channel=0 note=45 velocity=79 time=20
note_off channel=0 note=45 velocity=64 time=356
note_on channel=0 note=33 velocity=64 time=0
note_off channel=0 note=33 velocity=64 time=68
note_on channel=0 note=38 velocity=91 time=56
control_change channel=0 control=11 value=101 time=192
note_on channel=0 note=42 velocity=88 time=288
note_off channel=0 note=38 velocity=64 time=60
note_off channel=0 note=42 velocity=64 time=376
control_change channel=0 control=11 value=103 time=44
note_on channel=0 note=43 velocity=93 time=0
note_off channel=0 note=43 velocity=64 time=480
note_on channel=0 note=43 velocity=100 time=0
control_change channel=0 control=11 value=104 time=288
note_off channel=0 note=43 velocity=64 time=192
note_on channel=0 note=43 velocity=70 time=0
note_off channel=0 note=43 velocity=64 time=480
note_on channel=0 note=43 velocity=72 time=0
control_change channel=0 control=11 value=105 time=96
note_off channel=0 note=43 velocity=64 time=264
note_on channel=0 note=31 velocity=69 time=0
note_off channel=0 note=31 velocity=64 time=32
note_on channel=0 note=36 velocity=87 time=88
note_off channel=0 note=36 velocity=64 time=256
note_on channel=0 note=36 velocity=80 time=100
control_change channel=0 control=11 value=106 time=28
note_on channel=0 note=43 velocity=75 time=96
note_off channel=0 note=36 velocity=64 time=16
note_off channel=0 note=43 velocity=64 time=464
note_on channel=0 note=36 velocity=79 time=0
control_change channel=0 control=11 value=108 time=192
note_off channel=0 note=36 velocity=64 time=228
note_on channel=0 note=40 velocity=82 time=60
note_off channel=0 note=40 velocity=64 time=272
note_on channel=0 note=41 velocity=85 time=48
note_off channel=0 note=41 velocity=64 time=124
control_change channel=0 control=11 value=109 time=36
control_change channel=0 control=11 value=108 time=240
note_on channel=0 note=41 velocity=98 time=108
note_off channel=0 note=41 velocity=73 time=91
note_on channel=0 note=45 velocity=83 time=36
control_change channel=0 control=11 value=106 time=5
control_change channel=0 control=11 value=105 time=240
control_change channel=0 control=11 value=104 time=240
note_off channel=0 note=45 velocity=55 time=2
note_on channel=0 note=46 velocity=58 time=3
control_change channel=0 control=11 value=103 time=235
note_off channel=0 note=46 velocity=37 time=211
control_change channel=0 control=11 value=101 time=29
note_on channel=0 note=47 velocity=58 time=9
control_change channel=0 control=11 value=100 time=231
control_change channel=0 control=11 value=99 time=240
note_off channel=0 note=47 velocity=57 time=5
note_on channel=0 note=48 velocity=75 time=14
control_change channel=0 control=11 value=98 time=221
control_change channel=0 control=11 value=96 time=240
note_off channel=0 note=48 velocity=52 time=36
note_on channel=0 note=51 velocity=62 time=7
control_change channel=0 control=11 value=95 time=197
note_off channel=0 note=51 velocity=49 time=218
control_change channel=0 control=11 value=94 time=22
note_on channel=0 note=50 velocity=77 time=2
control_change channel=0 control=11 value=93 time=238
note_off channel=0 note=50 velocity=56 time=115
note_on channel=0 note=38 velocity=58 time=10
control_change channel=0 control=11 value=91 time=115
note_on channel=0 note=44 velocity=83 time=29
note_off channel=0 note=38 velocity=43 time=12
control_change channel=0 control=11 value=90 time=199
note_off channel=0 note=44 velocity=46 time=209
control_change channel=0 control=11 value=89 time=31
note_on channel=0 note=43 velocity=81 time=0
note_off channel=0 note=43 velocity=64 time=360
note_on channel=0 note=31 velocity=69 time=0
note_off channel=0 note=31 velocity=64 time=32
note_on channel=0 note=43 velocity=70 time=88
note_off channel=0 note=43 velocity=64 time=480
note_on channel=0 note=43 velocity=82 time=0
note_off channel=0 note=43 velocity=64 time=268
note_on channel=0 note=43 velocity=94 time=88
note_off channel=0 note=43 velocity=64 time=116
note_on channel=0 note=35 velocity=75 time=8
note_off channel=0 note=35 velocity=64 time=480
note_on channel=0 note=36 velocity=86 time=0
note_on channel=0 note=31 velocity=62 time=356
note_off channel=0 note=31 velocity=64 time=80
note_off channel=0 note=36 velocity=64 time=24
note_on channel=0 note=43 velocity=79 time=20
note_off channel=0 note=43 velocity=64 time=356
note_on channel=0 note=31 velocity=64 time=0
note_off channel=0 note=31 velocity=64 time=68
note_on channel=0 note=36 velocity=82 time=56
note_off channel=0 note=36 velocity=64 time=268
note_on channel=0 note=36 velocity=94 time=88
note_off channel=0 note=36 velocity=64 time=116
note_on channel=0 note=40 velocity=75 time=8
note_off channel=0 note=40 velocity=64 time=480
note_on channel=0 note=41 velocity=70 time=0
note_off channel=0 note=41 velocity=64 time=480
note_on channel=0 note=41 velocity=72 time=0
note_off channel=0 note=41 velocity=64 time=360
note_on channel=0 note=29 velocity=69 time=0
note_off channel=0 note=29 velocity=64 time=32
note_on channel=0 note=41 velocity=86 time=88
note_on channel=0 note=36 velocity=62 time=356
note_off channel=0 note=36 velocity=64 time=80
note_off channel=0 note=41 velocity=64 time=24
note_on channel=0 note=48 velocity=79 time=20
note_off channel=0 note=48 velocity=64 time=356
note_on channel=0 note=36 velocity=64 time=0
note_off channel=0 note=36 velocity=64 time=68
note_on channel=0 note=50 velocity=78 time=56
note_on channel=0 note=45 velocity=77 time=480
note_off channel=0 note=50 velocity=64 time=60
note_off channel=0 note=45 velocity=64 time=420
note_on channel=0 note=38 velocity=87 time=0
note_off channel=0 note=38 velocity=64 time=256
note_on channel=0 note=38 velocity=80 time=100
note_on channel=0 note=45 velocity=73 time=124
note_off channel=0 note=38 velocity=64 time=16
note_off channel=0 note=45 velocity=64 time=464
note_on channel=0 note=43 velocity=70 time=0
note_off channel=0 note=43 velocity=64 time=480
note_on channel=0 note=43 velocity=72 time=0
note_off channel=0 note=43 velocity=64 time=360
note_on channel=0 note=31 velocity=69 time=0
note_off channel=0 note=31 velocity=64 time=32
note_on channel=0 note=43 velocity=93 time=88
note_off channel=0 note=43 velocity=64 time=480
note_on channel=0 note=43 velocity=100 time=0
note_off channel=0 note=43 velocity=64 time=480
note_on channel=0 note=36 velocity=98 time=0
note_on channel=0 note=24 velocity=91 time=356
note_off channel=0 note=36 velocity=64 time=8
note_off channel=0 note=24 velocity=64 time=116
note_on channel=0 note=36 velocity=100 time=0
note_off channel=0 note=36 velocity=64 time=476
note_on channel=0 note=36 velocity=93 time=4
note_off channel=0 note=36 velocity=64 time=480
note_on channel=0 note=36 velocity=100 time=0
note_off channel=0 note=36 velocity=64 time=480
note_on channel=0 note=36 velocity=102 time=0
note_off channel=0 note=36 velocity=64 time=276
note_on channel=0 note=24 velocity=110 time=80
note_off channel=0 note=24 velocity=64 time=92
note_on channel=0 note=38 velocity=102 time=32
note_off channel=0 note=38 velocity=64 time=436
note_on channel=0 note=39 velocity=82 time=44
note_off channel=0 note=39 velocity=64 time=448
note_on channel=0 note=43 velocity=95 time=32
note_off channel=0 note=43 velocity=64 time=332
note_on channel=0 note=36 velocity=100 time=24
note_off channel=0 note=36 velocity=64 time=124
note_on channel=0 note=41 velocity=78 time=0
note_on channel=0 note=43 velocity=80 time=480
note_off channel=0 note=41 velocity=64 time=80
note_on channel=0 note=45 velocity=75 time=400
note_off channel=0 note=43 velocity=64 time=44
note_on channel=0 note=48 velocity=76 time=436
note_off channel=0 note=45 velocity=64 time=80
note_off channel=0 note=48 velocity=64 time=400
note_on channel=0 note=34 velocity=70 time=0
note_off channel=0 note=34 velocity=64 time=480
note_on channel=0 note=33 velocity=72 time=0
note_off channel=0 note=33 velocity=64 time=360
note_on channel=0 note=21 velocity=69 time=0
note_off channel=0 note=21 velocity=64 time=32
note_on channel=0 note=34 velocity=82 time=88
note_off channel=0 note=34 velocity=64 time=268
note_on channel=0 note=34 velocity=94 time=88
note_off channel=0 note=34 velocity=64 time=116
note_on channel=0 note=34 velocity=75 time=8
note_off channel=0 note=34 velocity=64 time=480
note_on channel=0 note=35 velocity=98 time=0
note_on channel=0 note=23 velocity=91 time=356
note_off channel=0 note=35 velocity=64 time=8
note_off channel=0 note=23 velocity=64 time=116
note_on channel=0 note=35 velocity=100 time=0
note_off channel=0 note=35 velocity=64 time=476
note_on channel=0 note=40 velocity=82 time=4
note_off channel=0 note=40 velocity=64 time=268
note_on channel=0 note=40 velocity=94 time=88
note_off channel=0 note=40 velocity=64 time=116
note_on channel=0 note=32 velocity=75 time=8
note_off channel=0 note=32 velocity=64 time=480
note_on channel=0 note=33 velocity=87 time=0
note_off channel=0 note=33 velocity=64 time=256
note_on channel=0 note=33 velocity=80 time=100
note_on channel=0 note=40 velocity=73 time=124
note_off channel=0 note=33 velocity=64 time=16
note_off channel=0 note=40 velocity=64 time=464
note_on channel=0 note=44 velocity=72 time=0
note_off channel=0 note=44 velocity=64 time=360
note_on channel=0 note=32 velocity=69 time=0
note_off channel=0 note=32 velocity=64 time=32
note_on channel=0 note=33 velocity=70 time=88
note_off channel=0 note=33 velocity=64 time=480
note_on channel=0 note=38 velocity=85 time=0
note_on channel=0 note=33 velocity=64 time=356
note_off channel=0 note=38 velocity=64 time=12
note_off channel=0 note=33 velocity=64 time=64
note_on channel=0 note=40 velocity=83 time=48
note_off channel=0 note=40 velocity=64 time=476
note_on channel=0 note=42 velocity=90 time=4
note_off channel=0 note=42 velocity=64 time=312
note_on channel=0 note=33 velocity=68 time=44
note_off channel=0 note=33 velocity=64 time=72
note_on channel=0 note=45 velocity=92 time=52
note_on channel=0 note=33 velocity=61 time=356
note_off channel=0 note=33 velocity=64 time=40
note_off channel=0 note=45 velocity=64 time=44
note_on channel=0 note=43 velocity=82 time=40
note_off channel=0 note=43 velocity=64 time=268
note_on channel=0 note=43 velocity=94 time=88
note_off channel=0 note=43 velocity=64 time=116
note_on channel=0 note=42 velocity=75 time=8
note_off channel=0 note=42 velocity=64 time=480
note_on channel=0 note=42 velocity=82 time=0
note_off channel=0 note=42 velocity=64 time=268
note_on channel=0 note=42 velocity=94 time=88
note_off channel=0 note=42 velocity=64 time=116
note_on channel=0 note=42 velocity=75 time=8
note_off channel=0 note=42 velocity=64 time=480
note_on channel=0 note=36 velocity=98 time=0
note_on channel=0 note=24 velocity=91 time=356
note_off channel=0 note=36 velocity=64 time=8
note_off channel=0 note=24 velocity=64 time=116
note_on channel=0 note=36 velocity=100 time=0
note_off channel=0 note=36 velocity=64 time=476
note_on channel=0 note=34 velocity=86 time=4
note_on channel=0 note=31 velocity=62 time=356
note_off channel=0 note=31 velocity=64 time=80
note_off channel=0 note=34 velocity=64 time=24
note_on channel=0 note=43 velocity=79 time=20
note_off channel=0 note=43 velocity=64 time=356
note_on channel=0 note=31 velocity=64 time=0
note_off channel=0 note=31 velocity=64 time=68
note_on channel=0 note=33 velocity=86 time=56
note_off channel=0 note=33 velocity=64 time=456
note_on channel=0 note=32 velocity=80 time=24
note_off channel=0 note=32 velocity=64 time=480
note_on channel=0 note=33 velocity=87 time=0
note_on channel=0 note=21 velocity=64 time=356
note_off channel=0 note=33 velocity=64 time=76
note_off channel=0 note=21 velocity=64 time=52
note_on channel=0 note=39 velocity=87 time=0
note_off channel=0 note=39 velocity=64 time=476
note_on channel=0 note=50 velocity=78 time=0
note_on channel=0 note=45 velocity=77 time=480
note_off channel=0 note=50 velocity=64 time=60
note_off channel=0 note=45 velocity=64 time=420
note_on channel=0 note=38 velocity=72 time=0
note_off channel=0 note=38 velocity=64 time=360
note_on channel=0 note=26 velocity=69 time=0
note_off channel=0 note=26 velocity=64 time=32
note_on channel=0 note=38 velocity=72 time=88
note_off channel=0 note=38 velocity=64 time=360
note_on channel=0 note=26 velocity=69 time=0
note_off channel=0 note=26 velocity=64 time=32
note_on channel=0 note=43 velocity=87 time=88
note_on channel=0 note=31 velocity=64 time=356
note_off channel=0 note=43 velocity=64 time=76
note_off channel=0 note=31 velocity=64 time=52
note_on channel=0 note=44 velocity=87 time=0
note_off channel=0 note=44 velocity=64 time=476
note_on channel=0 note=43 velocity=98 time=0
note_on channel=0 note=31 velocity=91 time=356
note_off channel=0 note=43 velocity=64 time=8
note_off channel=0 note=31 velocity=64 time=116
note_on channel=0 note=43 velocity=100 time=0
note_off channel=0 note=43 velocity=64 time=476
note_on channel=0 note=36 velocity=86 time=4
note_on channel=0 note=31 velocity=62 time=356
note_off channel=0 note=31 velocity=64 time=80
note_off channel=0 note=36 velocity=64 time=24
note_on channel=0 note=43 velocity=79 time=20
note_off channel=0 note=43 velocity=64 time=356
note_on channel=0 note=31 velocity=64 time=0
note_off channel=0 note=31 velocity=64 time=68
note_on channel=0 note=36 velocity=93 time=56
note_off channel=0 note=36 velocity=64 time=480
note_on channel=0 note=36 velocity=100 time=0
note_off channel=0 note=36 velocity=64 time=480
note_on channel=0 note=41 velocity=85 time=0
note_on channel=0 note=36 velocity=64 time=356
note_off channel=0 note=41 velocity=64 time=12
note_off channel=0 note=36 velocity=64 time=64
note_on channel=0 note=43 velocity=83 time=48
note_off channel=0 note=43 velocity=64 time=476
note_on channel=0 note=45 velocity=90 time=4
note_off channel=0 note=45 velocity=64 time=312
note_on channel=0 note=36 velocity=68 time=44
note_off channel=0 note=36 velocity=64 time=72
note_on channel=0 note=48 velocity=92 time=52
note_on channel=0 note=36 velocity=61 time=356
note_off channel=0 note=36 velocity=64 time=40
note_off channel=0 note=48 velocity=64 time=44
note_on channel=0 note=38 velocity=93 time=40
note_off channel=0 note=38 velocity=64 time=480
note_on channel=0 note=38 velocity=100 time=0
note_off channel=0 note=38 velocity=64 time=480
note_on channel=0 note=38 velocity=81 time=0
note_on channel=0 note=45 velocity=80 time=480
note_off channel=0 note=38 velocity=64 time=88
note_off channel=0 note=45 velocity=64 time=392
note_on channel=0 note=43 velocity=82 time=0
note_off channel=0 note=43 velocity=64 time=268
note_on channel=0 note=43 velocity=94 time=88
note_off channel=0 note=43 velocity=64 time=116
note_on channel=0 note=42 velocity=75 time=8
note_off channel=0 note=42 velocity=64 time=480
note_on channel=0 note=43 velocity=93 time=0
note_off channel=0 note=43 velocity=64 time=480
note_on channel=0 note=43 velocity=100 time=0
note_off channel=0 note=43 velocity=64 time=480
note_on channel=0 note=36 velocity=87 time=0
note_off channel=0 note=36 velocity=64 time=256
note_on channel=0 note=36 velocity=80 time=100
note_on channel=0 note=43 velocity=73 time=124
note_off channel=0 note=36 velocity=64 time=16
note_off channel=0 note=43 velocity=64 time=464
note_on channel=0 note=36 velocity=82 time=0
note_off channel=0 note=36 velocity=64 time=268
note_on channel=0 note=36 velocity=94 time=88
note_off channel=0 note=36 velocity=64 time=116
note_on channel=0 note=35 velocity=75 time=8
note_off channel=0 note=35 velocity=64 time=480
note_on channel=0 note=36 velocity=102 time=0
note_off channel=0 note=36 velocity=64 time=316
note_on channel=0 note=24 velocity=110 time=40
note_off channel=0 note=24 velocity=64 time=92
note_on channel=0 note=38 velocity=102 time=32
note_off channel=0 note=38 velocity=64 time=476
note_on channel=0 note=39 velocity=82 time=4
note_off channel=0 note=39 velocity=64 time=480
note_on channel=0 note=43 velocity=95 time=0
note_off channel=0 note=43 velocity=64 time=336
note_on channel=0 note=36 velocity=100 time=20
note_off channel=0 note=36 velocity=64 time=124
note_on channel=0 note=41 velocity=85 time=0
note_off channel=0 note=41 velocity=64 time=480
note_on channel=0 note=48 velocity=84 time=0
note_off channel=0 note=48 velocity=64 time=484
note_on channel=0 note=45 velocity=79 time=0
note_off channel=0 note=45 velocity=64 time=484
note_on channel=0 note=41 velocity=97 time=0
note_off channel=0 note=41 velocity=64 time=472
note_on channel=0 note=34 velocity=72 time=0
note_off channel=0 note=34 velocity=64 time=360
note_on channel=0 note=22 velocity=69 time=0
note_off channel=0 note=22 velocity=64 time=32
note_on channel=0 note=33 velocity=70 time=88
note_off channel=0 note=33 velocity=64 time=480
note_on channel=0 note=34 velocity=98 time=0
note_on channel=0 note=22 velocity=91 time=356
note_off channel=0 note=34 velocity=64 time=8
note_off channel=0 note=22 velocity=64 time=116
note_on channel=0 note=34 velocity=100 time=0
note_off channel=0 note=34 velocity=64 time=476
note_on channel=0 note=34 velocity=72 time=4
note_off channel=0 note=34 velocity=64 time=360
note_on channel=0 note=22 velocity=69 time=0
note_off channel=0 note=22 velocity=64 time=32
note_on channel=0 note=34 velocity=70 time=88
note_off channel=0 note=34 velocity=64 time=480
note_on channel=0 note=39 velocity=87 time=0
note_off channel=0 note=39 velocity=64 time=256
note_on channel=0 note=39 velocity=80 time=100
note_on channel=0 note=46 velocity=73 time=124
note_off channel=0 note=39 velocity=64 time=16
note_off channel=0 note=46 velocity=64 time=464
note_on channel=0 note=41 velocity=72 time=0
note_off channel=0 note=41 velocity=64 time=360
note_on channel=0 note=29 velocity=69 time=0
note_off channel=0 note=29 velocity=64 time=32
note_on channel=0 note=40 velocity=70 time=88
note_off channel=0 note=40 velocity=64 time=480
note_on channel=0 note=39 velocity=72 time=0
note_off channel=0 note=39 velocity=64 time=360
note_on channel=0 note=27 velocity=69 time=0
note_off channel=0 note=27 velocity=64 time=32
note_on channel=0 note=38 velocity=72 time=88
note_off channel=0 note=38 velocity=64 time=360
note_on channel=0 note=26 velocity=69 time=0
note_off channel=0 note=26 velocity=64 time=32
note_on channel=0 note=33 velocity=87 time=88
note_off channel=0 note=33 velocity=64 time=256
note_on channel=0 note=33 velocity=80 time=100
note_on channel=0 note=40 velocity=73 time=124
note_off channel=0 note=33 velocity=64 time=16
note_off channel=0 note=40 velocity=64 time=464
note_on channel=0 note=38 velocity=82 time=0
note_off channel=0 note=38 velocity=64 time=268
note_on channel=0 note=38 velocity=94 time=88
note_off channel=0 note=38 velocity=64 time=116
note_on channel=0 note=42 velocity=75 time=8
note_off channel=0 note=42 velocity=64 time=480
note_on channel=0 note=43 velocity=70 time=0
note_off channel=0 note=43 velocity=64 time=480
note_on channel=0 note=43 velocity=72 time=0
note_off channel=0 note=43 velocity=64 time=360
note_on channel=0 note=31 velocity=69 time=0
note_off channel=0 note=31 velocity=64 time=32
note_on channel=0 note=43 velocity=87 time=88
note_off channel=0 note=43 velocity=64 time=256
note_on channel=0 note=43 velocity=80 time=100
note_on channel=0 note=50 velocity=73 time=124
note_off channel=0 note=43 velocity=64 time=16
note_off channel=0 note=50 velocity=64 time=464
note_on channel=0 note=36 velocity=86 time=0
note_on channel=0 note=31 velocity=62 time=356
note_off channel=0 note=31 velocity=64 time=80
note_off channel=0 note=36 velocity=64 time=24
note_on channel=0 note=43 velocity=79 time=20
note_off channel=0 note=43 velocity=64 time=356
note_on channel=0 note=31 velocity=64 time=0
note_off channel=0 note=31 velocity=64 time=68
note_on channel=0 note=36 velocity=72 time=56
note_off channel=0 note=36 velocity=64 time=300
note_on channel=0 note=41 velocity=85 time=40
note_off channel=0 note=41 velocity=64 time=612
control_change channel=0 control=11 value=89 time=3824
note_on channel=0 note=43 velocity=81 time=24
control_change channel=0 control=11 value=90 time=312
note_on channel=0 note=50 velocity=80 time=168
note_off channel=0 note=43 velocity=64 time=88
control_change channel=0 control=11 value=91 time=56
note_off channel=0 note=50 velocity=64 time=336
control_change channel=0 control=11 value=93 time=0
note_on channel=0 note=43 velocity=70 time=0
control_change channel=0 control=11 value=94 time=312
note_off channel=0 note=43 velocity=64 time=168
note_on channel=0 note=37 velocity=70 time=0
control_change channel=0 control=11 value=95 time=168
note_off channel=0 note=37 velocity=64 time=312
control_change channel=0 control=11 value=96 time=0
note_on channel=0 note=36 velocity=93 time=0
note_off channel=0 note=36 velocity=64 time=480
note_on channel=0 note=36 velocity=100 time=0
note_off channel=0 note=36 velocity=64 time=480
note_on channel=0 note=36 velocity=72 time=0
note_off channel=0 note=36 velocity=64 time=360
note_on channel=0 note=24 velocity=69 time=0
note_off channel=0 note=24 velocity=64 time=32
note_on channel=0 note=42 velocity=72 time=88
note_off channel=0 note=42 velocity=64 time=360
note_on channel=0 note=30 velocity=69 time=0
note_off channel=0 note=30 velocity=64 time=32
note_on channel=0 note=41 velocity=87 time=88
note_off channel=0 note=41 velocity=64 time=256
note_on channel=0 note=41 velocity=80 time=100
note_on channel=0 note=48 velocity=73 time=124
note_off channel=0 note=41 velocity=64 time=16
note_off channel=0 note=48 velocity=64 time=464
note_on channel=0 note=33 velocity=70 time=0
note_off channel=0 note=33 velocity=64 time=480
note_on channel=0 note=39 velocity=70 time=0
note_off channel=0 note=39 velocity=64 time=480
note_on channel=0 note=38 velocity=87 time=0
note_on channel=0 note=50 velocity=70 time=480
note_off channel=0 note=38 velocity=64 time=36
note_on channel=0 note=45 velocity=82 time=444
note_off channel=0 note=50 velocity=64 time=56
note_on channel=0 note=42 velocity=88 time=424
note_off channel=0 note=45 velocity=64 time=12
note_off channel=0 note=42 velocity=64 time=468
note_on channel=0 note=43 velocity=93 time=0
note_off channel=0 note=43 velocity=64 time=480
note_on channel=0 note=43 velocity=100 time=0
note_off channel=0 note=43 velocity=64 time=480
note_on channel=0 note=43 velocity=70 time=0
note_off channel=0 note=43 velocity=64 time=480
note_on channel=0 note=43 velocity=72 time=0
note_off channel=0 note=43 velocity=64 time=360
note_on channel=0 note=31 velocity=69 time=0
note_off channel=0 note=31 velocity=64 time=32
note_on channel=0 note=36 velocity=86 time=88
note_on channel=0 note=31 velocity=62 time=356
note_off channel=0 note=31 velocity=64 time=80
note_off channel=0 note=36 velocity=64 time=24
note_on channel=0 note=43 velocity=79 time=20
note_off channel=0 note=43 velocity=64 time=356
note_on channel=0 note=31 velocity=64 time=0
note_off channel=0 note=31 velocity=64 time=68
note_on channel=0 note=36 velocity=72 time=56
note_off channel=0 note=36 velocity=64 time=360
note_on channel=0 note=24 velocity=69 time=0
note_off channel=0 note=24 velocity=64 time=32
note_on channel=0 note=36 velocity=72 time=88
note_off channel=0 note=36 velocity=64 time=360
note_on channel=0 note=24 velocity=69 time=0
note_off channel=0 note=24 velocity=64 time=32
note_on channel=0 note=36 velocity=85 time=88
note_off channel=0 note=36 velocity=64 time=480
note_on channel=0 note=43 velocity=84 time=0
note_off channel=0 note=43 velocity=64 time=484
note_on channel=0 note=39 velocity=79 time=0
note_off channel=0 note=39 velocity=64 time=484
note_on channel=0 note=36 velocity=97 time=0
note_off channel=0 note=36 velocity=64 time=472
control_change channel=0 control=11 value=96 time=0
note_on channel=0 note=41 velocity=98 time=0
control_change channel=0 control=11 value=95 time=192
note_on channel=0 note=29 velocity=91 time=164
note_off channel=0 note=41 velocity=64 time=8
control_change channel=0 control=11 value=94 time=20
note_off channel=0 note=29 velocity=64 time=96
note_on channel=0 note=41 velocity=100 time=0
control_change channel=0 control=11 value=93 time=96
control_change channel=0 control=11 value=91 time=192
note_off channel=0 note=41 velocity=64 time=188
control_change channel=0 control=11 value=90 time=4
note_on channel=0 note=41 velocity=87 time=0
control_change channel=0 control=11 value=89 time=192
note_on channel=0 note=29 velocity=64 time=164
control_change channel=0 control=11 value=88 time=28
note_off channel=0 note=41 velocity=64 time=48
note_off channel=0 note=29 velocity=64 time=52
note_on channel=0 note=35 velocity=87 time=0
control_change channel=0 control=11 value=86 time=92
control_change channel=0 control=11 value=85 time=192
note_off channel=0 note=35 velocity=64 time=192
control_change channel=0 control=11 value=84 time=0
note_on channel=0 note=34 velocity=94 time=0
note_on channel=0 note=29 velocity=45 time=332
note_off channel=0 note=34 velocity=64 time=40
note_off channel=0 note=29 velocity=64 time=84
note_on channel=0 note=41 velocity=77 time=24
note_off channel=0 note=41 velocity=64 time=420
note_on channel=0 note=38 velocity=85 time=60
note_off channel=0 note=38 velocity=64 time=480
note_on channel=0 note=34 velocity=87 time=0
note_on channel=0 note=29 velocity=65 time=360
note_off channel=0 note=34 velocity=64 time=4
note_off channel=0 note=29 velocity=64 time=68
note_on channel=0 note=34 velocity=87 time=48
note_off channel=0 note=34 velocity=64 time=256
note_on channel=0 note=34 velocity=80 time=100
note_on channel=0 note=41 velocity=73 time=124
note_off channel=0 note=34 velocity=64 time=16
note_off channel=0 note=41 velocity=64 time=464
note_on channel=0 note=39 velocity=86 time=0
note_on channel=0 note=34 velocity=62 time=356
note_off channel=0 note=34 velocity=64 time=80
note_off channel=0 note=39 velocity=64 time=24
note_on channel=0 note=46 velocity=79 time=20
note_off channel=0 note=46 velocity=64 time=356
note_on channel=0 note=34 velocity=64 time=0
note_off channel=0 note=34 velocity=64 time=68
note_on channel=0 note=41 velocity=94 time=56
note_on channel=0 note=36 velocity=45 time=332
note_off channel=0 note=41 velocity=64 time=40
note_off channel=0 note=36 velocity=64 time=84
note_on channel=0 note=48 velocity=77 time=24
note_off channel=0 note=48 velocity=64 time=420
note_on channel=0 note=45 velocity=85 time=60
note_off channel=0 note=45 velocity=64 time=480
note_on channel=0 note=41 velocity=87 time=0
note_on channel=0 note=36 velocity=65 time=360
note_off channel=0 note=41 velocity=64 time=4
note_off channel=0 note=36 velocity=64 time=68
note_on channel=0 note=38 velocity=88 time=48
note_on channel=0 note=40 velocity=85 time=480
note_off channel=0 note=38 velocity=64 time=80
note_on channel=0 note=41 velocity=92 time=400
note_off channel=0 note=40 velocity=64 time=36
note_on channel=0 note=42 velocity=85 time=444
note_off channel=0 note=41 velocity=64 time=24
note_off channel=0 note=42 velocity=64 time=448
note_on channel=0 note=43 velocity=92 time=8
note_off channel=0 note=43 velocity=64 time=328
note_on channel=0 note=35 velocity=59 time=28
note_off channel=0 note=35 velocity=64 time=108
note_on channel=0 note=41 velocity=86 time=16
note_off channel=0 note=41 velocity=64 time=392
note_on channel=0 note=40 velocity=77 time=88
note_off channel=0 note=40 velocity=64 time=516
note_on channel=0 note=38 velocity=86 time=0
note_off channel=0 note=38 velocity=64 time=444
note_on channel=0 note=36 velocity=78 time=0
note_on channel=0 note=38 velocity=80 time=480
note_off channel=0 note=36 velocity=64 time=80
note_on channel=0 note=40 velocity=75 time=400
note_off channel=0 note=38 velocity=64 time=44
note_on channel=0 note=43 velocity=76 time=436
note_off channel=0 note=40 velocity=64 time=80
note_off channel=0 note=43 velocity=64 time=400
control_change channel=0 control=11 value=84 time=0
note_on channel=0 note=41 velocity=78 time=0
control_change channel=0 control=11 value=85 time=192
control_change channel=0 control=11 value=86 time=192
note_on channel=0 note=43 velocity=80 time=96
note_off channel=0 note=41 velocity=64 time=80
control_change channel=0 control=11 value=88 time=16
control_change channel=0 control=11 value=89 time=192
control_change channel=0 control=11 value=90 time=192
note_on channel=0 note=45 velocity=75 time=0
note_off channel=0 note=43 velocity=64 time=44
control_change channel=0 control=11 value=91 time=148
control_change channel=0 control=11 value=93 time=192
note_on channel=0 note=48 velocity=76 time=96
note_off channel=0 note=45 velocity=64 time=80
control_change channel=0 control=11 value=94 time=16
control_change channel=0 control=11 value=95 time=192
note_off channel=0 note=48 velocity=64 time=192
control_change channel=0 control=11 value=96 time=0
note_on channel=0 note=39 velocity=72 time=0
control_change channel=0 control=11 value=98 time=192
note_off channel=0 note=39 velocity=64 time=168
note_on channel=0 note=27 velocity=69 time=0
control_change channel=0 control=11 value=99 time=24
note_off channel=0 note=27 velocity=64 time=8
note_on channel=0 note=38 velocity=72 time=88
control_change channel=0 control=11 value=100 time=96
control_change channel=0 control=11 value=101 time=192
note_off channel=0 note=38 velocity=64 time=72
note_on channel=0 note=26 velocity=69 time=0
note_off channel=0 note=26 velocity=64 time=32
control_change channel=0 control=11 value=103 time=88
note_on channel=0 note=38 velocity=82 time=0
control_change channel=0 control=11 value=104 time=192
note_off channel=0 note=38 velocity=64 time=76
note_on channel=0 note=38 velocity=94 time=88
control_change channel=0 control=11 value=105 time=28
note_off channel=0 note=38 velocity=64 time=88
note_on channel=0 note=42 velocity=75 time=8
control_change channel=0 control=11 value=106 time=96
control_change channel=0 control=11 value=108 time=192
note_off channel=0 note=42 velocity=64 time=192
control_change channel=0 control=11 value=109 time=0
note_on channel=0 note=43 velocity=86 time=0
note_on channel=0 note=38 velocity=62 time=356
note_off channel=0 note=38 velocity=64 time=80
note_off channel=0 note=43 velocity=64 time=24
note_on channel=0 note=50 velocity=79 time=20
note_off channel=0 note=50 velocity=64 time=356
note_on channel=0 note=38 velocity=64 time=0
note_off channel=0 note=38 velocity=64 time=68
note_on channel=0 note=43 velocity=70 time=56
note_off channel=0 note=43 velocity=64 time=480
note_on channel=0 note=43 velocity=72 time=0
note_off channel=0 note=43 velocity=64 time=360
note_on channel=0 note=31 velocity=69 time=0
note_off channel=0 note=31 velocity=64 time=32
note_on channel=0 note=36 velocity=93 time=88
note_off channel=0 note=36 velocity=64 time=480
note_on channel=0 note=36 velocity=100 time=0
note_off channel=0 note=36 velocity=64 time=480
note_on channel=0 note=36 velocity=70 time=0
note_off channel=0 note=36 velocity=64 time=480
note_on channel=0 note=36 velocity=72 time=0
note_off channel=0 note=36 velocity=64 time=360
note_on channel=0 note=24 velocity=69 time=0
note_off channel=0 note=24 velocity=64 time=32
note_on channel=0 note=41 velocity=98 time=88
note_on channel=0 note=29 velocity=91 time=356
note_off channel=0 note=41 velocity=64 time=8
note_off channel=0 note=29 velocity=64 time=116
note_on channel=0 note=41 velocity=100 time=0
note_off channel=0 note=41 velocity=64 time=476
note_on channel=0 note=41 velocity=70 time=4
note_off channel=0 note=41 velocity=64 time=480
note_on channel=0 note=41 velocity=72 time=0
note_off channel=0 note=41 velocity=64 time=360
note_on channel=0 note=29 velocity=69 time=0
note_off channel=0 note=29 velocity=64 time=32
note_on channel=0 note=38 velocity=98 time=88
note_on channel=0 note=26 velocity=91 time=356
note_off channel=0 note=38 velocity=64 time=8
note_off channel=0 note=26 velocity=64 time=116
note_on channel=0 note=38 velocity=100 time=0
note_off channel=0 note=38 velocity=64 time=476
note_on channel=0 note=38 velocity=72 time=4
note_off channel=0 note=38 velocity=64 time=360
note_on channel=0 note=26 velocity=69 time=0
note_off channel=0 note=26 velocity=64 time=32
note_on channel=0 note=38 velocity=72 time=88
note_off channel=0 note=38 velocity=64 time=360
note_on channel=0 note=26 velocity=69 time=0
note_off channel=0 note=26 velocity=64 time=32
note_on channel=0 note=43 velocity=87 time=88
note_off channel=0 note=43 velocity=64 time=256
note_on channel=0 note=43 velocity=80 time=100
note_on channel=0 note=50 velocity=73 time=124
note_off channel=0 note=43 velocity=64 time=16
note_off channel=0 note=50 velocity=64 time=464
note_on channel=0 note=43 velocity=72 time=0
note_off channel=0 note=43 velocity=64 time=360
note_on channel=0 note=31 velocity=69 time=0
note_off channel=0 note=31 velocity=64 time=32
note_on channel=0 note=43 velocity=70 time=88
note_off channel=0 note=43 velocity=64 time=480
note_on channel=0 note=43 velocity=98 time=0
note_on channel=0 note=31 velocity=91 time=356
note_off channel=0 note=43 velocity=64 time=8
note_off channel=0 note=31 velocity=64 time=116
note_on channel=0 note=43 velocity=100 time=0
note_off channel=0 note=43 velocity=64 time=476
note_on channel=0 note=36 velocity=82 time=4
note_off channel=0 note=36 velocity=64 time=268
note_on channel=0 note=36 velocity=94 time=88
note_off channel=0 note=36 velocity=64 time=116
note_on channel=0 note=35 velocity=75 time=8
note_off channel=0 note=35 velocity=64 time=480
note_on channel=0 note=36 velocity=102 time=0
note_off channel=0 note=36 velocity=64 time=276
note_on channel=0 note=24 velocity=110 time=80
note_off channel=0 note=24 velocity=64 time=92
note_on channel=0 note=38 velocity=102 time=32
note_off channel=0 note=38 velocity=64 time=436
note_on channel=0 note=39 velocity=82 time=44
note_off channel=0 note=39 velocity=64 time=448
note_on channel=0 note=43 velocity=95 time=32
note_off channel=0 note=43 velocity=64 time=332
note_on channel=0 note=36 velocity=100 time=24
note_off channel=0 note=36 velocity=64 time=124
note_on channel=0 note=41 velocity=93 time=0
note_off channel=0 note=41 velocity=64 time=268
note_on channel=0 note=29 velocity=40 time=88
note_off channel=0 note=29 velocity=64 time=104
note_on channel=0 note=39 velocity=85 time=20
note_off channel=0 note=39 velocity=64 time=472
note_on channel=0 note=38 velocity=91 time=8
note_on channel=0 note=36 velocity=87 time=480
note_off channel=0 note=38 velocity=64 time=32
note_on channel=0 note=35 velocity=82 time=324
note_off channel=0 note=36 velocity=64 time=72
note_off channel=0 note=35 velocity=64 time=52
note_on channel=0 note=34 velocity=93 time=0
note_off channel=0 note=34 velocity=64 time=480
note_on channel=0 note=34 velocity=100 time=0
note_off channel=0 note=34 velocity=64 time=480
note_on channel=0 note=34 velocity=98 time=0
note_on channel=0 note=22 velocity=91 time=356
note_off channel=0 note=34 velocity=64 time=8
note_off channel=0 note=22 velocity=64 time=116
note_on channel=0 note=34 velocity=100 time=0
note_off channel=0 note=34 velocity=64 time=476
note_on channel=0 note=47 velocity=78 time=4
note_on channel=0 note=42 velocity=77 time=480
note_off channel=0 note=47 velocity=64 time=60
note_off channel=0 note=42 velocity=64 time=420
note_on channel=0 note=40 velocity=82 time=0
note_off channel=0 note=40 velocity=64 time=268
note_on channel=0 note=40 velocity=94 time=88
note_off channel=0 note=40 velocity=64 time=116
note_on channel=0 note=32 velocity=75 time=8
note_off channel=0 note=32 velocity=64 time=480
note_on channel=0 note=33 velocity=85 time=0
note_on channel=0 note=28 velocity=64 time=356
note_off channel=0 note=33 velocity=64 time=12
note_off channel=0 note=28 velocity=64 time=64
note_on channel=0 note=35 velocity=83 time=48
note_off channel=0 note=35 velocity=64 time=476
note_on channel=0 note=36 velocity=90 time=4
note_off channel=0 note=36 velocity=64 time=312
note_on channel=0 note=28 velocity=68 time=44
note_off channel=0 note=28 velocity=64 time=72
note_on channel=0 note=40 velocity=92 time=52
note_on channel=0 note=28 velocity=61 time=356
note_off channel=0 note=28 velocity=64 time=40
note_off channel=0 note=40 velocity=64 time=44
note_on channel=0 note=38 velocity=85 time=40
note_on channel=0 note=33 velocity=64 time=356
note_off channel=0 note=38 velocity=64 time=12
note_off channel=0 note=33 velocity=64 time=64
note_on channel=0 note=40 velocity=83 time=48
note_off channel=0 note=40 velocity=64 time=476
note_on channel=0 note=42 velocity=90 time=4
note_off channel=0 note=42 velocity=64 time=312
note_on channel=0 note=33 velocity=68 time=44
note_off channel=0 note=33 velocity=64 time=72
note_on channel=0 note=45 velocity=92 time=52
note_on channel=0 note=33 velocity=61 time=356
note_off channel=0 note=33 velocity=64 time=40
note_off channel=0 note=45 velocity=64 time=44
note_on channel=0 note=43 velocity=93 time=40
note_off channel=0 note=43 velocity=64 time=480
note_on channel=0 note=43 velocity=100 time=0
note_off channel=0 note=43 velocity=64 time=480
note_on channel=0 note=42 velocity=86 time=0
note_off channel=0 note=42 velocity=64 time=456
note_on channel=0 note=42 velocity=80 time=24
note_off channel=0 note=42 velocity=64 time=480
note_on channel=0 note=36 velocity=81 time=0
note_on channel=0 note=50 velocity=80 time=480
note_off channel=0 note=36 velocity=64 time=88
note_off channel=0 note=50 velocity=64 time=392
note_on channel=0 note=36 velocity=72 time=0
note_off channel=0 note=36 velocity=64 time=360
note_on channel=0 note=24 velocity=69 time=0
note_off channel=0 note=24 velocity=64 time=32
note_on channel=0 note=34 velocity=70 time=88
note_off channel=0 note=34 velocity=64 time=480
note_on channel=0 note=33 velocity=87 time=0
note_on channel=0 note=45 velocity=70 time=480
note_off channel=0 note=33 velocity=64 time=36
note_on channel=0 note=40 velocity=82 time=444
note_off channel=0 note=45 velocity=64 time=56
note_on channel=0 note=36 velocity=88 time=424
note_off channel=0 note=40 velocity=64 time=12
note_off channel=0 note=36 velocity=64 time=468
note_on channel=0 note=39 velocity=86 time=0
note_on channel=0 note=34 velocity=62 time=356
note_off channel=0 note=34 velocity=64 time=80
note_off channel=0 note=39 velocity=64 time=24
note_on channel=0 note=46 velocity=79 time=20
note_off channel=0 note=46 velocity=64 time=356
note_on channel=0 note=34 velocity=64 time=0
note_off channel=0 note=34 velocity=64 time=68
control_change channel=0 control=11 value=109 time=56
note_on channel=0 note=38 velocity=70 time=0
control_change channel=0 control=11 value=106 time=120
control_change channel=0 control=11 value=104 time=120
control_change channel=0 control=11 value=101 time=120
note_off channel=0 note=38 velocity=64 time=120
control_change channel=0 control=11 value=99 time=0
note_on channel=0 note=44 velocity=72 time=0
control_change channel=0 control=11 value=96 time=120
control_change channel=0 control=11 value=94 time=120
note_off channel=0 note=44 velocity=64 time=120
control_change channel=0 control=11 value=91 time=0
note_on channel=0 note=32 velocity=69 time=0
note_off channel=0 note=32 velocity=64 time=32
control_change channel=0 control=11 value=89 time=88
note_on channel=0 note=43 velocity=86 time=0
note_on channel=0 note=38 velocity=62 time=356
note_off channel=0 note=38 velocity=64 time=80
note_off channel=0 note=43 velocity=64 time=24
note_on channel=0 note=50 velocity=79 time=20
note_off channel=0 note=50 velocity=64 time=356
note_on channel=0 note=38 velocity=64 time=0
note_off channel=0 note=38 velocity=64 time=68
note_on channel=0 note=43 velocity=87 time=56
note_on channel=0 note=31 velocity=64 time=356
note_off channel=0 note=43 velocity=64 time=76
note_off channel=0 note=31 velocity=64 time=52
note_on channel=0 note=37 velocity=87 time=0
note_off channel=0 note=37 velocity=64 time=476
note_on channel=0 note=36 velocity=81 time=0
note_on channel=0 note=43 velocity=80 time=480
note_off channel=0 note=36 velocity=64 time=88
note_off channel=0 note=43 velocity=64 time=392
note_on channel=0 note=36 velocity=93 time=0
note_off channel=0 note=36 velocity=64 time=480
note_on channel=0 note=36 velocity=100 time=0
note_off channel=0 note=36 velocity=64 time=480
note_on channel=0 note=41 velocity=85 time=0
note_on channel=0 note=36 velocity=64 time=356
note_off channel=0 note=41 velocity=64 time=12
note_off channel=0 note=36 velocity=64 time=64
note_on channel=0 note=43 velocity=83 time=48
note_off channel=0 note=43 velocity=64 time=476
note_on channel=0 note=45 velocity=90 time=4
note_off channel=0 note=45 velocity=64 time=312
note_on channel=0 note=36 velocity=68 time=44
note_off channel=0 note=36 velocity=64 time=72
note_on channel=0 note=48 velocity=92 time=52
note_on channel=0 note=36 velocity=61 time=356
note_off channel=0 note=36 velocity=64 time=40
note_off channel=0 note=48 velocity=64 time=44
note_on channel=0 note=38 velocity=86 time=40
note_off channel=0 note=38 velocity=64 time=456
note_on channel=0 note=37 velocity=80 time=24
note_off channel=0 note=37 velocity=64 time=480
note_on channel=0 note=38 velocity=91 time=0
note_on channel=0 note=42 velocity=88 time=480
note_off channel=0 note=38 velocity=64 time=60
note_off channel=0 note=42 velocity=64 time=376
note_on channel=0 note=43 velocity=98 time=44
note_off channel=0 note=43 velocity=64 time=480
note_on channel=0 note=44 velocity=105 time=0
note_off channel=0 note=44 velocity=64 time=480
note_on channel=0 note=43 velocity=86 time=0
note_on channel=0 note=38 velocity=62 time=356
note_off channel=0 note=38 velocity=64 time=80
note_off channel=0 note=43 velocity=64 time=24
note_on channel=0 note=50 velocity=79 time=20
note_off channel=0 note=50 velocity=64 time=356
note_on channel=0 note=38 velocity=64 time=0
note_off channel=0 note=38 velocity=64 time=68
note_on channel=0 note=36 velocity=98 time=56
note_on channel=0 note=24 velocity=91 time=356
note_off channel=0 note=36 velocity=64 time=8
note_off channel=0 note=24 velocity=64 time=116
note_on channel=0 note=36 velocity=100 time=0
note_off channel=0 note=36 velocity=64 time=476
note_on channel=0 note=36 velocity=87 time=4
note_on channel=0 note=24 velocity=64 time=356
note_off channel=0 note=36 velocity=64 time=76
note_off channel=0 note=24 velocity=64 time=52
note_on channel=0 note=37 velocity=87 time=0
note_off channel=0 note=37 velocity=64 time=476
control_change channel=0 control=11 value=89 time=0
note_on channel=0 note=36 velocity=88 time=0
control_change channel=0 control=11 value=90 time=240
control_change channel=0 control=11 value=91 time=240
note_on channel=0 note=38 velocity=85 time=0
note_off channel=0 note=36 velocity=64 time=80
control_change channel=0 control=11 value=93 time=160
control_change channel=0 control=11 value=94 time=240
note_on channel=0 note=39 velocity=92 time=0
note_off channel=0 note=38 velocity=64 time=36
control_change channel=0 control=11 value=95 time=204
control_change channel=0 control=11 value=96 time=240
note_on channel=0 note=39 velocity=85 time=0
note_off channel=0 note=39 velocity=64 time=24
control_change channel=0 control=11 value=98 time=216
note_off channel=0 note=39 velocity=64 time=232
control_change channel=0 control=11 value=99 time=8
note_on channel=0 note=41 velocity=72 time=0
control_change channel=0 control=11 value=100 time=240
note_off channel=0 note=41 velocity=64 time=120
note_on channel=0 note=29 velocity=69 time=0
note_off channel=0 note=29 velocity=64 time=32
control_change channel=0 control=11 value=101 time=88
note_on channel=0 note=36 velocity=70 time=0
control_change channel=0 control=11 value=103 time=240
note_off channel=0 note=36 velocity=64 time=240
control_change channel=0 control=11 value=104 time=0
note_on channel=0 note=41 velocity=98 time=0
control_change channel=0 control=11 value=105 time=240
note_off channel=0 note=41 velocity=64 time=240
control_change channel=0 control=11 value=106 time=0
note_on channel=0 note=35 velocity=105 time=0
control_change channel=0 control=11 value=108 time=240
note_off channel=0 note=35 velocity=64 time=240
control_change channel=0 control=11 value=109 time=0
note_on channel=0 note=34 velocity=78 time=0
note_on channel=0 note=36 velocity=80 time=480
note_off channel=0 note=34 velocity=64 time=80
note_on channel=0 note=38 velocity=75 time=400
note_off channel=0 note=36 velocity=64 time=44
note_on channel=0 note=41 velocity=76 time=436
note_off channel=0 note=38 velocity=64 time=80
note_off channel=0 note=41 velocity=64 time=400
note_on channel=0 note=34 velocity=93 time=0
note_off channel=0 note=34 velocity=64 time=480
note_on channel=0 note=34 velocity=100 time=0
note_off channel=0 note=34 velocity=64 time=480
note_on channel=0 note=39 velocity=98 time=0
note_on channel=0 note=27 velocity=91 time=356
note_off channel=0 note=39 velocity=64 time=8
note_off channel=0 note=27 velocity=64 time=116
note_on channel=0 note=39 velocity=100 time=0
note_off channel=0 note=39 velocity=64 time=476
note_on channel=0 note=41 velocity=86 time=4
note_off channel=0 note=41 velocity=64 time=456
note_on channel=0 note=40 velocity=80 time=24
note_off channel=0 note=40 velocity=64 time=480
note_on channel=0 note=41 velocity=70 time=0
note_off channel=0 note=41 velocity=64 time=480
note_on channel=0 note=41 velocity=70 time=0
note_off channel=0 note=41 velocity=64 time=480
note_on channel=0 note=33 velocity=87 time=0
note_on channel=0 note=21 velocity=64 time=356
note_off channel=0 note=33 velocity=64 time=76
note_off channel=0 note=21 velocity=64 time=52
note_on channel=0 note=39 velocity=87 time=0
note_off channel=0 note=39 velocity=64 time=476
note_on channel=0 note=38 velocity=87 time=0
note_on channel=0 note=26 velocity=64 time=356
note_off channel=0 note=38 velocity=64 time=76
note_off channel=0 note=26 velocity=64 time=52
note_on channel=0 note=44 velocity=87 time=0
note_off channel=0 note=44 velocity=64 time=476
note_on channel=0 note=43 velocity=87 time=0
note_off channel=0 note=43 velocity=64 time=256
note_on channel=0 note=43 velocity=80 time=100
note_on channel=0 note=50 velocity=73 time=124
note_off channel=0 note=43 velocity=64 time=16
note_off channel=0 note=50 velocity=64 time=464
note_on channel=0 note=43 velocity=87 time=0
note_off channel=0 note=43 velocity=64 time=256
note_on channel=0 note=43 velocity=80 time=100
note_on channel=0 note=50 velocity=73 time=124
note_off channel=0 note=43 velocity=64 time=16
note_off channel=0 note=50 velocity=64 time=464
note_on channel=0 note=36 velocity=86 time=0
note_off channel=0 note=36 velocity=64 time=456
note_on channel=0 note=35 velocity=80 time=24
note_off channel=0 note=35 velocity=64 time=480
note_on channel=0 note=36 velocity=98 time=0
note_on channel=0 note=24 velocity=91 time=356
note_off channel=0 note=36 velocity=64 time=8
note_off channel=0 note=24 velocity=64 time=116
note_on channel=0 note=36 velocity=100 time=0
note_off channel=0 note=36 velocity=64 time=476
note_on channel=0 note=41 velocity=87 time=4
note_on channel=0 note=29 velocity=64 time=356
note_off channel=0 note=41 velocity=64 time=76
note_off channel=0 note=29 velocity=64 time=52
note_on channel=0 note=42 velocity=87 time=0
note_off channel=0 note=42 velocity=64 time=476
note_on channel=0 note=41 velocity=70 time=0
note_off channel=0 note=41 velocity=64 time=480
note_on channel=0 note=41 velocity=72 time=0
note_off channel=0 note=41 velocity=64 time=360
note_on channel=0 note=29 velocity=69 time=0
note_off channel=0 note=29 velocity=64 time=32
note_on channel=0 note=38 velocity=87 time=88
note_off channel=0 note=38 velocity=64 time=256
note_on channel=0 note=38 velocity=80 time=100
note_on channel=0 note=45 velocity=73 time=124
note_off channel=0 note=38 velocity=64 time=16
note_off channel=0 note=45 velocity=64 time=464
control_change channel=0 control=11 value=109 time=0
note_on channel=0 note=38 velocity=82 time=0
control_change channel=0 control=11 value=108 time=120
control_change channel=0 control=11 value=106 time=120
note_off channel=0 note=38 velocity=64 time=28
note_on channel=0 note=38 velocity=94 time=88
control_change channel=0 control=11 value=105 time=4
note_off channel=0 note=38 velocity=64 time=112
control_change channel=0 control=11 value=103 time=8
note_on channel=0 note=42 velocity=75 time=0
control_change channel=0 control=11 value=101 time=120
control_change channel=0 control=11 value=100 time=120
control_change channel=0 control=11 value=99 time=120
note_off channel=0 note=42 velocity=64 time=120
control_change channel=0 control=11 value=96 time=0
note_on channel=0 note=43 velocity=93 time=0
note_off channel=0 note=43 velocity=64 time=480
note_on channel=0 note=43 velocity=100 time=0
note_off channel=0 note=43 velocity=64 time=480
note_on channel=0 note=43 velocity=86 time=0
note_off channel=0 note=43 velocity=64 time=456
note_on channel=0 note=35 velocity=80 time=24
note_off channel=0 note=35 velocity=64 time=480
note_on channel=0 note=36 velocity=87 time=0
note_off channel=0 note=36 velocity=64 time=256
note_on channel=0 note=36 velocity=80 time=100
note_on channel=0 note=43 velocity=73 time=124
note_off channel=0 note=36 velocity=64 time=16
note_off channel=0 note=43 velocity=64 time=464
note_on channel=0 note=36 velocity=77 time=0
note_off channel=0 note=36 velocity=64 time=516
note_on channel=0 note=40 velocity=85 time=9
note_off channel=0 note=40 velocity=65 time=260
note_on channel=0 note=41 velocity=89 time=33
note_off channel=0 note=41 velocity=61 time=108
note_on channel=0 note=33 velocity=75 time=354
note_off channel=0 note=33 velocity=64 time=640
note_on channel=0 note=34 velocity=79 time=0
note_off channel=0 note=34 velocity=64 time=480
note_on channel=0 note=35 velocity=80 time=0
note_off channel=0 note=35 velocity=64 time=480
note_on channel=0 note=36 velocity=82 time=0
note_off channel=0 note=36 velocity=64 time=192
note_on channel=0 note=41 velocity=75 time=608
note_off channel=0 note=41 velocity=64 time=3976
<meta message end_of_track time=0>
<meta message text text='Piano' time=0>
control_change channel=1 control=11 value=96 time=0
control_change channel=1 control=7 value=94 time=0
control_change channel=1 control=10 value=35 time=0
control_change channel=1 control=91 value=81 time=0
control_change channel=1 control=93 value=5 time=0
control_change channel=1 control=0 value=56 time=0
control_change channel=1 control=32 value=0 time=0
program_change channel=1 program=0 time=0
note_on channel=1 note=75 velocity=81 time=6080
note_on channel=1 note=80 velocity=81 time=0
control_change channel=1 control=64 value=0 time=540
note_off channel=1 note=75 velocity=64 time=28
note_off channel=1 note=80 velocity=64 time=0
note_on channel=1 note=76 velocity=80 time=72
note_on channel=1 note=81 velocity=80 time=0
note_off channel=1 note=76 velocity=64 time=120
note_off channel=1 note=81 velocity=64 time=0
control_change channel=1 control=64 value=0 time=260
note_on channel=1 note=74 velocity=81 time=100
note_off channel=1 note=74 velocity=64 time=120
control_change channel=1 control=64 value=0 time=360
note_on channel=1 note=75 velocity=81 time=0
note_on channel=1 note=80 velocity=81 time=0
note_off channel=1 note=75 velocity=64 time=752
note_off channel=1 note=80 velocity=64 time=0
note_on channel=1 note=76 velocity=81 time=48
note_on channel=1 note=81 velocity=81 time=0
control_change channel=1 control=64 value=0 time=160
control_change channel=1 control=64 value=0 time=860
note_off channel=1 note=76 velocity=64 time=52
note_off channel=1 note=81 velocity=64 time=0
control_change channel=1 control=11 value=96 time=48
note_on channel=1 note=72 velocity=74 time=340
note_on channel=1 note=63 velocity=54 time=24
note_on channel=1 note=57 velocity=57 time=0
note_on channel=1 note=69 velocity=59 time=20
note_on channel=1 note=68 velocity=57 time=32
control_change channel=1 control=11 value=98 time=352
note_off channel=1 note=72 velocity=64 time=192
note_off channel=1 note=68 velocity=64 time=0
note_off channel=1 note=69 velocity=64 time=0
note_off channel=1 note=57 velocity=64 time=0
note_off channel=1 note=63 velocity=64 time=0
control_change channel=1 control=64 value=0 time=0
note_on channel=1 note=60 velocity=58 time=20
note_on channel=1 note=52 velocity=50 time=4
note_on channel=1 note=57 velocity=56 time=4
note_on channel=1 note=67 velocity=61 time=4
note_off channel=1 note=60 velocity=64 time=124
note_off channel=1 note=52 velocity=64 time=16
note_off channel=1 note=57 velocity=64 time=0
note_off channel=1 note=67 velocity=64 time=20
control_change channel=1 control=64 value=0 time=288
note_on channel=1 note=60 velocity=58 time=20
note_on channel=1 note=50 velocity=50 time=4
note_on channel=1 note=57 velocity=56 time=4
note_on channel=1 note=65 velocity=61 time=4
control_change channel=1 control=11 value=99 time=64
note_off channel=1 note=60 velocity=64 time=60
note_off channel=1 note=50 velocity=64 time=16
note_off channel=1 note=57 velocity=64 time=0
note_off channel=1 note=65 velocity=64 time=20
control_change channel=1 control=64 value=0 time=288
note_on channel=1 note=62 velocity=68 time=20
note_on channel=1 note=69 velocity=70 time=16
note_off channel=1 note=62 velocity=64 time=80
note_off channel=1 note=69 velocity=64 time=4
control_change channel=1 control=11 value=100 time=264
control_change channel=1 control=64 value=0 time=576
control_change channel=1 control=11 value=101 time=192
note_on channel=1 note=50 velocity=77 time=204
note_off channel=1 note=50 velocity=64 time=44
note_on channel=1 note=66 velocity=95 time=72
note_on channel=1 note=64 velocity=93 time=4
note_off channel=1 note=64 velocity=64 time=216
note_off channel=1 note=66 velocity=64 time=16
control_change channel=1 control=64 value=0 time=112
note_on channel=1 note=63 velocity=58 time=20
note_on channel=1 note=53 velocity=50 time=4
note_on channel=1 note=59 velocity=56 time=4
note_on channel=1 note=67 velocity=61 time=4
control_change channel=1 control=11 value=103 time=68
note_off channel=1 note=63 velocity=64 time=148
note_off channel=1 note=53 velocity=64 time=16
note_off channel=1 note=59 velocity=64 time=0
note_off channel=1 note=67 velocity=64 time=20
control_change channel=1 control=11 value=104 time=584
control_change channel=1 control=64 value=0 time=192
note_on channel=1 note=69 velocity=77 time=364
note_on channel=1 note=62 velocity=68 time=4
note_on channel=1 note=53 velocity=67 time=4
note_on channel=1 note=59 velocity=42 time=12
note_off channel=1 note=62 velocity=64 time=52
note_off channel=1 note=59 velocity=64 time=0
note_off channel=1 note=53 velocity=64 time=12
note_off channel=1 note=69 velocity=64 time=4
control_change channel=1 control=64 value=0 time=28
note_on channel=1 note=62 velocity=60 time=60
note_on channel=1 note=65 velocity=46 time=0
note_on channel=1 note=59 velocity=52 time=4
note_on channel=1 note=69 velocity=47 time=12
control_change channel=1 control=11 value=105 time=20
note_off channel=1 note=62 velocity=64 time=80
note_off channel=1 note=69 velocity=64 time=16
note_off channel=1 note=59 velocity=64 time=0
note_off channel=1 note=65 velocity=64 time=0
control_change channel=1 control=64 value=0 time=288
note_on channel=1 note=56 velocity=54 time=12
note_on channel=1 note=58 velocity=52 time=0
note_on channel=1 note=52 velocity=47 time=4
note_on channel=1 note=36 velocity=46 time=4
control_change channel=1 control=11 value=106 time=364
note_off channel=1 note=58 velocity=64 time=216
note_off channel=1 note=52 velocity=64 time=32
note_off channel=1 note=56 velocity=64 time=52
note_off channel=1 note=36 velocity=64 time=64
note_on channel=1 note=47 velocity=66 time=140
note_off channel=1 note=47 velocity=64 time=72
control_change channel=1 control=64 value=0 time=0
note_on channel=1 note=62 velocity=69 time=20
note_on channel=1 note=52 velocity=69 time=4
note_on channel=1 note=58 velocity=69 time=4
note_on channel=1 note=67 velocity=69 time=4
note_off channel=1 note=62 velocity=64 time=124
note_off channel=1 note=52 velocity=64 time=16
note_off channel=1 note=58 velocity=64 time=0
note_off channel=1 note=67 velocity=64 time=20
control_change channel=1 control=11 value=108 time=0
control_change channel=1 control=64 value=0 time=148
note_on channel=1 note=62 velocity=77 time=140
note_on channel=1 note=58 velocity=77 time=0
note_on channel=1 note=52 velocity=77 time=0
note_on channel=1 note=48 velocity=77 time=0
note_on channel=1 note=74 velocity=77 time=0
note_on channel=1 note=70 velocity=77 time=0
note_on channel=1 note=67 velocity=77 time=0
note_on channel=1 note=64 velocity=77 time=0
note_off channel=1 note=62 velocity=64 time=272
note_off channel=1 note=64 velocity=64 time=0
note_off channel=1 note=67 velocity=64 time=0
note_off channel=1 note=70 velocity=64 time=0
note_off channel=1 note=74 velocity=64 time=0
note_off channel=1 note=48 velocity=64 time=0
note_off channel=1 note=52 velocity=64 time=0
note_off channel=1 note=58 velocity=64 time=0
note_on channel=1 note=62 velocity=81 time=48
note_on channel=1 note=60 velocity=81 time=0
note_on channel=1 note=57 velocity=81 time=0
note_on channel=1 note=53 velocity=81 time=0
note_on channel=1 note=77 velocity=81 time=0
note_on channel=1 note=74 velocity=81 time=0
note_on channel=1 note=72 velocity=81 time=0
note_on channel=1 note=67 velocity=81 time=0
note_off channel=1 note=62 velocity=64 time=124
note_off channel=1 note=67 velocity=64 time=0
note_off channel=1 note=72 velocity=64 time=0
note_off channel=1 note=74 velocity=64 time=0
note_off channel=1 note=77 velocity=64 time=0
note_off channel=1 note=53 velocity=64 time=0
note_off channel=1 note=57 velocity=64 time=0
note_off channel=1 note=60 velocity=64 time=0
control_change channel=1 control=64 value=0 time=36
control_change channel=1 control=11 value=109 time=0
control_change channel=1 control=11 value=108 time=240
control_change channel=1 control=11 value=106 time=240
control_change channel=1 control=11 value=105 time=240
control_change channel=1 control=11 value=104 time=240
control_change channel=1 control=11 value=103 time=240
control_change channel=1 control=11 value=101 time=240
control_change channel=1 control=11 value=100 time=240
control_change channel=1 control=11 value=99 time=240
control_change channel=1 control=11 value=98 time=240
control_change channel=1 control=11 value=96 time=240
control_change channel=1 control=11 value=95 time=240
control_change channel=1 control=11 value=94 time=240
control_change channel=1 control=11 value=93 time=240
control_change channel=1 control=11 value=91 time=240
control_change channel=1 control=11 value=90 time=240
control_change channel=1 control=11 value=89 time=240
note_on channel=1 note=62 velocity=56 time=60
note_on channel=1 note=65 velocity=56 time=0
note_on channel=1 note=59 velocity=56 time=4
note_on channel=1 note=67 velocity=56 time=12
note_off channel=1 note=62 velocity=64 time=100
note_off channel=1 note=67 velocity=64 time=16
note_off channel=1 note=59 velocity=64 time=0
note_off channel=1 note=65 velocity=64 time=0
note_on channel=1 note=74 velocity=100 time=206
control_change channel=1 control=64 value=0 time=82
note_off channel=1 note=74 velocity=65 time=53
note_on channel=1 note=80 velocity=92 time=9
note_on channel=1 note=75 velocity=92 time=0
note_off channel=1 note=80 velocity=33 time=123
note_off channel=1 note=75 velocity=33 time=0
note_on channel=1 note=75 velocity=56 time=155
note_on channel=1 note=65 velocity=56 time=24
note_on channel=1 note=59 velocity=56 time=0
note_on channel=1 note=71 velocity=56 time=20
note_on channel=1 note=67 velocity=56 time=32
note_off channel=1 note=75 velocity=64 time=64
note_off channel=1 note=67 velocity=64 time=0
note_off channel=1 note=71 velocity=64 time=0
note_off channel=1 note=59 velocity=64 time=0
note_off channel=1 note=65 velocity=64 time=0
control_change channel=1 control=64 value=0 time=0
note_on channel=1 note=81 velocity=86 time=21
note_on channel=1 note=76 velocity=86 time=0
note_on channel=1 note=81 velocity=83 time=1
note_on channel=1 note=76 velocity=83 time=0
note_off channel=1 note=81 velocity=53 time=276
note_off channel=1 note=76 velocity=53 time=0
note_off channel=1 note=81 velocity=59 time=14
note_off channel=1 note=76 velocity=59 time=0
note_on channel=1 note=74 velocity=86 time=53
note_on channel=1 note=62 velocity=56 time=3
note_on channel=1 note=57 velocity=56 time=8
note_on channel=1 note=69 velocity=56 time=4
note_on channel=1 note=43 velocity=56 time=24
note_off channel=1 note=74 velocity=58 time=52
note_off channel=1 note=62 velocity=64 time=20
note_off channel=1 note=69 velocity=64 time=0
note_off channel=1 note=43 velocity=64 time=12
note_off channel=1 note=57 velocity=64 time=20
note_on channel=1 note=64 velocity=56 time=20
note_off channel=1 note=64 velocity=64 time=260
note_on channel=1 note=80 velocity=92 time=47
note_on channel=1 note=57 velocity=56 time=49
note_off channel=1 note=57 velocity=64 time=76
control_change channel=1 control=64 value=0 time=0
note_on channel=1 note=60 velocity=56 time=60
note_on channel=1 note=64 velocity=56 time=0
note_on channel=1 note=58 velocity=56 time=4
note_on channel=1 note=68 velocity=56 time=12
note_off channel=1 note=60 velocity=64 time=100
note_off channel=1 note=68 velocity=64 time=16
note_off channel=1 note=58 velocity=64 time=0
note_off channel=1 note=64 velocity=64 time=0
note_off channel=1 note=80 velocity=41 time=175
note_on channel=1 note=81 velocity=64 time=2
note_on channel=1 note=48 velocity=56 time=155
note_on channel=1 note=80 velocity=56 time=9
note_off channel=1 note=81 velocity=45 time=7
note_off channel=1 note=80 velocity=40 time=137
note_on channel=1 note=81 velocity=60 time=19
note_off channel=1 note=48 velocity=64 time=28
note_on channel=1 note=80 velocity=59 time=92
note_off channel=1 note=81 velocity=52 time=45
note_off channel=1 note=80 velocity=49 time=72
control_change channel=1 control=64 value=0 time=27
note_on channel=1 note=81 velocity=65 time=5
note_off channel=1 note=81 velocity=69 time=295
note_on channel=1 note=74 velocity=67 time=53
note_on channel=1 note=64 velocity=56 time=11
note_on channel=1 note=58 velocity=56 time=0
note_on channel=1 note=70 velocity=56 time=20
note_on channel=1 note=67 velocity=56 time=32
note_off channel=1 note=74 velocity=57 time=11
note_off channel=1 note=67 velocity=64 time=393
note_off channel=1 note=70 velocity=64 time=0
note_off channel=1 note=58 velocity=64 time=0
note_off channel=1 note=64 velocity=64 time=0
control_change channel=1 control=64 value=0 time=40
note_on channel=1 note=65 velocity=56 time=140
note_on channel=1 note=41 velocity=56 time=4
note_on channel=1 note=60 velocity=56 time=4
note_off channel=1 note=65 velocity=64 time=80
note_off channel=1 note=60 velocity=64 time=36
note_off channel=1 note=41 velocity=64 time=4
note_on channel=1 note=74 velocity=100 time=185
control_change channel=1 control=64 value=0 time=127
note_off channel=1 note=74 velocity=62 time=2
note_on channel=1 note=80 velocity=100 time=22
note_on channel=1 note=75 velocity=100 time=0
note_on channel=1 note=63 velocity=56 time=16
note_on channel=1 note=60 velocity=56 time=4
note_on channel=1 note=41 velocity=56 time=0
note_on channel=1 note=57 velocity=56 time=4
note_off channel=1 note=60 velocity=64 time=80
note_off channel=1 note=63 velocity=64 time=20
note_off channel=1 note=57 velocity=64 time=16
note_off channel=1 note=75 velocity=39 time=4
note_off channel=1 note=41 velocity=64 time=0
note_off channel=1 note=80 velocity=39 time=0
control_change channel=1 control=64 value=0 time=312
note_on channel=1 note=60 velocity=56 time=20
note_on channel=1 note=81 velocity=86 time=9
note_on channel=1 note=76 velocity=86 time=0
note_on channel=1 note=67 velocity=56 time=7
note_off channel=1 note=60 velocity=64 time=80
note_off channel=1 note=67 velocity=64 time=4
note_off channel=1 note=76 velocity=61 time=209
note_off channel=1 note=81 velocity=61 time=0
note_on channel=1 note=74 velocity=86 time=31
note_off channel=1 note=74 velocity=58 time=93
note_on channel=1 note=80 velocity=92 time=382
control_change channel=1 control=64 value=0 time=125
note_off channel=1 note=80 velocity=41 time=367
note_on channel=1 note=62 velocity=64 time=1
note_on channel=1 note=81 velocity=64 time=1
note_on channel=1 note=57 velocity=64 time=7
note_on channel=1 note=69 velocity=64 time=4
note_on channel=1 note=50 velocity=56 time=24
note_off channel=1 note=62 velocity=64 time=72
note_off channel=1 note=69 velocity=64 time=0
note_off channel=1 note=50 velocity=64 time=12
note_off channel=1 note=57 velocity=64 time=20
note_on channel=1 note=65 velocity=56 time=20
note_on channel=1 note=80 velocity=56 time=5
note_off channel=1 note=81 velocity=45 time=7
note_off channel=1 note=80 velocity=40 time=137
note_on channel=1 note=81 velocity=60 time=19
note_off channel=1 note=65 velocity=64 time=92
note_on channel=1 note=80 velocity=59 time=28
note_off channel=1 note=81 velocity=52 time=45
note_on channel=1 note=57 velocity=56 time=23
note_off channel=1 note=80 velocity=49 time=49
note_off channel=1 note=57 velocity=64 time=27
control_change channel=1 control=64 value=0 time=0
note_on channel=1 note=81 velocity=65 time=5
note_off channel=1 note=81 velocity=69 time=295
note_on channel=1 note=74 velocity=89 time=31
note_on channel=1 note=50 velocity=56 time=65
note_off channel=1 note=74 velocity=64 time=41
note_off channel=1 note=50 velocity=64 time=3
note_on channel=1 note=66 velocity=56 time=72
note_on channel=1 note=64 velocity=56 time=4
note_off channel=1 note=64 velocity=64 time=216
note_off channel=1 note=66 velocity=64 time=16
control_change channel=1 control=64 value=0 time=212
note_on channel=1 note=65 velocity=56 time=40
note_on channel=1 note=62 velocity=56 time=4
note_on channel=1 note=43 velocity=56 time=0
note_on channel=1 note=59 velocity=56 time=4
note_off channel=1 note=62 velocity=64 time=80
note_off channel=1 note=65 velocity=64 time=20
note_off channel=1 note=59 velocity=64 time=16
note_off channel=1 note=43 velocity=64 time=4
note_on channel=1 note=74 velocity=105 time=163
note_off channel=1 note=74 velocity=57 time=142
control_change channel=1 control=64 value=0 time=7
note_on channel=1 note=80 velocity=115 time=12
note_on channel=1 note=75 velocity=115 time=0
note_off channel=1 note=80 velocity=43 time=120
note_off channel=1 note=75 velocity=43 time=0
control_change channel=1 control=64 value=0 time=248
control_change channel=1 control=64 value=0 time=0
note_on channel=1 note=81 velocity=86 time=131
note_on channel=1 note=76 velocity=86 time=0
note_off channel=1 note=81 velocity=59 time=307
note_off channel=1 note=76 velocity=59 time=0
note_on channel=1 note=65 velocity=56 time=26
note_on channel=1 note=59 velocity=56 time=0
note_on channel=1 note=74 velocity=75 time=5
note_on channel=1 note=71 velocity=56 time=15
note_on channel=1 note=69 velocity=56 time=32
note_off channel=1 note=74 velocity=54 time=49
note_on channel=1 note=80 velocity=92 time=370
note_off channel=1 note=69 velocity=64 time=125
note_off channel=1 note=59 velocity=64 time=0
note_off channel=1 note=71 velocity=64 time=0
note_off channel=1 note=65 velocity=64 time=0
control_change channel=1 control=64 value=0 time=0
note_on channel=1 note=72 velocity=56 time=340
note_on channel=1 note=64 velocity=56 time=24
note_on channel=1 note=58 velocity=56 time=0
note_off channel=1 note=80 velocity=41 time=3
note_on channel=1 note=81 velocity=64 time=2
note_on channel=1 note=70 velocity=56 time=15
note_on channel=1 note=68 velocity=56 time=32
note_on channel=1 note=80 velocity=56 time=117
note_off channel=1 note=81 velocity=45 time=7
note_off channel=1 note=80 velocity=40 time=137
note_on channel=1 note=81 velocity=60 time=19
note_on channel=1 note=80 velocity=59 time=120
note_off channel=1 note=81 velocity=52 time=45
note_off channel=1 note=80 velocity=49 time=72
note_off channel=1 note=64 velocity=64 time=27
note_off channel=1 note=70 velocity=64 time=0
note_off channel=1 note=72 velocity=64 time=0
note_off channel=1 note=68 velocity=64 time=0
note_off channel=1 note=58 velocity=64 time=0
control_change channel=1 control=64 value=0 time=0
note_on channel=1 note=81 velocity=65 time=5
note_on channel=1 note=62 velocity=56 time=15
note_on channel=1 note=67 velocity=56 time=16
note_off channel=1 note=62 velocity=64 time=80
note_off channel=1 note=67 velocity=64 time=4
note_off channel=1 note=81 velocity=69 time=180
note_on channel=1 note=72 velocity=67 time=33
note_off channel=1 note=72 velocity=52 time=166
note_on channel=1 note=74 velocity=77 time=14
note_off channel=1 note=74 velocity=57 time=272
note_on channel=1 note=79 velocity=67 time=31
note_on channel=1 note=75 velocity=67 time=0
note_on channel=1 note=67 velocity=56 time=508
note_on channel=1 note=60 velocity=56 time=4
note_on channel=1 note=51 velocity=56 time=4
note_on channel=1 note=58 velocity=56 time=12
note_off channel=1 note=60 velocity=64 time=52
note_off channel=1 note=58 velocity=64 time=0
note_off channel=1 note=51 velocity=64 time=12
note_off channel=1 note=67 velocity=64 time=4
note_on channel=1 note=60 velocity=56 time=524
note_on channel=1 note=58 velocity=56 time=12
note_on channel=1 note=67 velocity=56 time=0
note_on channel=1 note=51 velocity=56 time=4
note_off channel=1 note=51 velocity=64 time=60
note_off channel=1 note=60 velocity=64 time=20
note_off channel=1 note=58 velocity=64 time=4
note_off channel=1 note=67 velocity=64 time=8
note_on channel=1 note=51 velocity=56 time=724
note_off channel=1 note=79 velocity=54 time=57
note_off channel=1 note=75 velocity=54 time=0
note_off channel=1 note=51 velocity=64 time=15
control_change channel=1 control=64 value=0 time=40
note_on channel=1 note=72 velocity=56 time=340
note_on channel=1 note=85 velocity=81 time=4
note_on channel=1 note=86 velocity=110 time=4
note_on channel=1 note=63 velocity=56 time=16
note_on channel=1 note=57 velocity=56 time=0
note_off channel=1 note=85 velocity=64 time=20
note_on channel=1 note=69 velocity=56 time=0
note_on channel=1 note=67 velocity=56 time=32
note_off channel=1 note=86 velocity=60 time=49
note_on channel=1 note=86 velocity=96 time=367
note_on channel=1 note=85 velocity=81 time=8
note_off channel=1 note=85 velocity=64 time=40
note_off channel=1 note=86 velocity=55 time=423
note_on channel=1 note=84 velocity=64 time=12
note_on channel=1 note=80 velocity=62 time=165
note_off channel=1 note=84 velocity=60 time=34
note_off channel=1 note=63 velocity=64 time=266
note_off channel=1 note=67 velocity=64 time=0
note_off channel=1 note=69 velocity=64 time=0
note_off channel=1 note=57 velocity=64 time=0
note_off channel=1 note=80 velocity=49 time=8
note_off channel=1 note=72 velocity=64 time=20
note_on channel=1 note=77 velocity=64 time=8
control_change channel=1 control=64 value=0 time=4
note_on channel=1 note=53 velocity=54 time=12
note_on channel=1 note=55 velocity=52 time=0
note_on channel=1 note=50 velocity=47 time=4
note_on channel=1 note=34 velocity=46 time=4
note_off channel=1 note=53 velocity=64 time=420
note_off channel=1 note=34 velocity=64 time=0
note_off channel=1 note=50 velocity=64 time=0
note_off channel=1 note=55 velocity=64 time=0
control_change channel=1 control=64 value=0 time=40
note_on channel=1 note=64 velocity=77 time=464
note_on channel=1 note=57 velocity=68 time=4
note_on channel=1 note=49 velocity=67 time=4
note_on channel=1 note=54 velocity=42 time=12
note_off channel=1 note=57 velocity=64 time=52
note_off channel=1 note=54 velocity=64 time=0
note_off channel=1 note=49 velocity=64 time=12
note_off channel=1 note=64 velocity=64 time=4
note_off channel=1 note=77 velocity=38 time=8
control_change channel=1 control=64 value=0 time=20
note_on channel=1 note=53 velocity=54 time=12
note_on channel=1 note=55 velocity=52 time=0
note_on channel=1 note=50 velocity=47 time=4
note_on channel=1 note=34 velocity=46 time=4
note_off channel=1 note=55 velocity=64 time=580
note_off channel=1 note=50 velocity=64 time=32
note_off channel=1 note=53 velocity=64 time=52
note_off channel=1 note=34 velocity=64 time=64
note_on channel=1 note=45 velocity=62 time=140
note_off channel=1 note=45 velocity=64 time=72
control_change channel=1 control=64 value=0 time=0
note_on channel=1 note=59 velocity=68 time=20
note_on channel=1 note=66 velocity=70 time=16
note_off channel=1 note=59 velocity=64 time=80
note_off channel=1 note=66 velocity=64 time=4
control_change channel=1 control=64 value=0 time=840
note_on channel=1 note=40 velocity=77 time=396
note_off channel=1 note=40 velocity=64 time=44
note_on channel=1 note=62 velocity=95 time=72
note_on channel=1 note=59 velocity=93 time=4
note_off channel=1 note=59 velocity=64 time=216
note_off channel=1 note=62 velocity=64 time=16
control_change channel=1 control=64 value=0 time=212
note_on channel=1 note=72 velocity=74 time=340
note_on channel=1 note=60 velocity=54 time=24
note_on channel=1 note=57 velocity=57 time=0
note_on channel=1 note=69 velocity=59 time=20
note_on channel=1 note=64 velocity=57 time=32
note_off channel=1 note=72 velocity=64 time=404
note_off channel=1 note=64 velocity=64 time=0
note_off channel=1 note=69 velocity=64 time=0
note_off channel=1 note=57 velocity=64 time=0
note_off channel=1 note=60 velocity=64 time=0
control_change channel=1 control=64 value=0 time=40
note_on channel=1 note=60 velocity=68 time=468
note_on channel=1 note=52 velocity=51 time=8
note_on channel=1 note=64 velocity=66 time=4
note_on channel=1 note=44 velocity=52 time=24
note_off channel=1 note=60 velocity=64 time=72
note_off channel=1 note=64 velocity=64 time=0
note_off channel=1 note=44 velocity=64 time=4
note_off channel=1 note=52 velocity=64 time=0
control_change channel=1 control=64 value=0 time=0
control_change channel=1 control=64 value=0 time=380
note_on channel=1 note=64 velocity=60 time=160
note_on channel=1 note=66 velocity=46 time=0
note_on channel=1 note=60 velocity=52 time=4
note_on channel=1 note=70 velocity=47 time=12
note_off channel=1 note=64 velocity=64 time=100
note_off channel=1 note=70 velocity=64 time=16
note_off channel=1 note=60 velocity=64 time=0
note_off channel=1 note=66 velocity=64 time=0
note_on channel=1 note=50 velocity=76 time=332
note_off channel=1 note=50 velocity=64 time=200
note_on channel=1 note=70 velocity=82 time=288
note_on channel=1 note=65 velocity=61 time=0
note_off channel=1 note=65 velocity=64 time=120
note_on channel=1 note=66 velocity=57 time=24
note_off channel=1 note=70 velocity=64 time=136
note_off channel=1 note=66 velocity=64 time=76
control_change channel=1 control=64 value=0 time=552
note_on channel=1 note=67 velocity=68 time=368
note_on channel=1 note=58 velocity=51 time=8
note_on channel=1 note=70 velocity=66 time=4
note_on channel=1 note=43 velocity=52 time=24
note_off channel=1 note=67 velocity=64 time=72
note_off channel=1 note=70 velocity=64 time=0
note_off channel=1 note=43 velocity=64 time=12
note_off channel=1 note=58 velocity=64 time=20
note_on channel=1 note=66 velocity=63 time=20
note_off channel=1 note=66 velocity=64 time=260
control_change channel=1 control=64 value=0 time=72
note_on channel=1 note=79 velocity=74 time=440
note_on channel=1 note=67 velocity=54 time=24
note_on channel=1 note=62 velocity=57 time=0
note_on channel=1 note=74 velocity=59 time=20
note_on channel=1 note=70 velocity=57 time=32
note_off channel=1 note=79 velocity=64 time=404
note_off channel=1 note=70 velocity=64 time=0
note_off channel=1 note=74 velocity=64 time=0
note_off channel=1 note=62 velocity=64 time=0
note_off channel=1 note=67 velocity=64 time=0
control_change channel=1 control=64 value=0 time=40
note_on channel=1 note=62 velocity=60 time=160
note_on channel=1 note=65 velocity=46 time=0
note_on channel=1 note=58 velocity=52 time=4
note_on channel=1 note=67 velocity=47 time=12
note_off channel=1 note=62 velocity=64 time=100
note_off channel=1 note=67 velocity=64 time=16
note_off channel=1 note=58 velocity=64 time=0
note_off channel=1 note=65 velocity=64 time=0
note_on channel=1 note=36 velocity=76 time=332
note_off channel=1 note=36 velocity=64 time=200
control_change channel=1 control=64 value=0 time=236
note_on channel=1 note=67 velocity=77 time=364
note_on channel=1 note=60 velocity=68 time=4
note_on channel=1 note=52 velocity=67 time=4
note_on channel=1 note=58 velocity=42 time=12
note_off channel=1 note=60 velocity=64 time=52
note_off channel=1 note=58 velocity=64 time=0
note_off channel=1 note=52 velocity=64 time=12
note_off channel=1 note=67 velocity=64 time=4
control_change channel=1 control=64 value=0 time=408
note_on channel=1 note=59 velocity=60 time=160
note_on channel=1 note=61 velocity=46 time=0
note_on channel=1 note=55 velocity=52 time=4
note_on channel=1 note=64 velocity=47 time=12
note_off channel=1 note=59 velocity=64 time=100
note_off channel=1 note=64 velocity=64 time=16
note_off channel=1 note=55 velocity=64 time=0
note_off channel=1 note=61 velocity=64 time=0
note_on channel=1 note=45 velocity=76 time=332
note_off channel=1 note=45 velocity=64 time=200
control_change channel=1 control=64 value=0 time=236
note_on channel=1 note=57 velocity=68 time=368
note_on channel=1 note=53 velocity=51 time=8
note_on channel=1 note=65 velocity=66 time=4
note_on channel=1 note=45 velocity=52 time=24
note_off channel=1 note=57 velocity=64 time=72
note_off channel=1 note=65 velocity=64 time=0
note_off channel=1 note=45 velocity=64 time=12
note_off channel=1 note=53 velocity=64 time=20
note_on channel=1 note=60 velocity=63 time=20
note_off channel=1 note=60 velocity=64 time=260
control_change channel=1 control=64 value=0 time=72
note_on channel=1 note=66 velocity=47 time=140
note_on channel=1 note=64 velocity=49 time=4
note_on channel=1 note=50 velocity=41 time=0
note_on channel=1 note=60 velocity=43 time=4
note_off channel=1 note=64 velocity=64 time=80
note_off channel=1 note=66 velocity=64 time=20
note_off channel=1 note=60 velocity=64 time=16
note_off channel=1 note=50 velocity=64 time=4
control_change channel=1 control=64 value=0 time=792
note_on channel=1 note=50 velocity=77 time=396
note_off channel=1 note=50 velocity=64 time=44
control_change channel=1 control=64 value=0 time=40
control_change channel=1 control=64 value=0 time=380
note_on channel=1 note=43 velocity=77 time=496
note_off channel=1 note=43 velocity=64 time=44
note_on channel=1 note=65 velocity=95 time=72
note_on channel=1 note=62 velocity=93 time=4
note_off channel=1 note=62 velocity=64 time=216
note_off channel=1 note=65 velocity=64 time=16
control_change channel=1 control=64 value=0 time=212
note_on channel=1 note=74 velocity=74 time=340
note_on channel=1 note=65 velocity=54 time=24
note_on channel=1 note=59 velocity=57 time=0
note_on channel=1 note=71 velocity=59 time=20
note_on channel=1 note=69 velocity=57 time=32
note_off channel=1 note=74 velocity=64 time=544
note_off channel=1 note=69 velocity=64 time=0
note_off channel=1 note=71 velocity=64 time=0
note_off channel=1 note=59 velocity=64 time=0
note_off channel=1 note=65 velocity=64 time=0
control_change channel=1 control=64 value=0 time=0
note_on channel=1 note=64 velocity=47 time=40
note_on channel=1 note=60 velocity=49 time=4
note_on channel=1 note=48 velocity=41 time=0
note_on channel=1 note=58 velocity=43 time=4
note_off channel=1 note=60 velocity=64 time=80
note_off channel=1 note=64 velocity=64 time=20
note_off channel=1 note=58 velocity=64 time=16
note_off channel=1 note=48 velocity=64 time=4
control_change channel=1 control=64 value=0 time=792
note_on channel=1 note=62 velocity=68 time=368
note_on channel=1 note=55 velocity=51 time=8
note_on channel=1 note=67 velocity=66 time=4
note_on channel=1 note=48 velocity=52 time=24
note_off channel=1 note=62 velocity=64 time=72
note_off channel=1 note=67 velocity=64 time=0
note_off channel=1 note=48 velocity=64 time=12
note_off channel=1 note=55 velocity=64 time=20
note_on channel=1 note=63 velocity=63 time=20
note_off channel=1 note=63 velocity=64 time=260
note_on channel=1 note=55 velocity=55 time=96
note_off channel=1 note=55 velocity=64 time=76
control_change channel=1 control=64 value=0 time=0
note_on channel=1 note=41 velocity=77 time=396
note_off channel=1 note=41 velocity=64 time=44
note_on channel=1 note=64 velocity=95 time=72
note_on channel=1 note=60 velocity=93 time=4
note_off channel=1 note=60 velocity=64 time=216
note_off channel=1 note=64 velocity=64 time=16
note_on channel=1 note=67 velocity=69 time=256
note_on channel=1 note=57 velocity=60 time=4
note_off channel=1 note=67 velocity=64 time=272
note_off channel=1 note=57 velocity=64 time=0
note_on channel=1 note=36 velocity=78 time=72
note_off channel=1 note=36 velocity=64 time=92
note_on channel=1 note=57 velocity=56 time=32
note_on channel=1 note=64 velocity=71 time=0
note_off channel=1 note=57 velocity=64 time=184
note_off channel=1 note=64 velocity=64 time=4
control_change channel=1 control=64 value=0 time=256
note_on channel=1 note=62 velocity=60 time=60
note_on channel=1 note=66 velocity=46 time=0
note_on channel=1 note=60 velocity=52 time=4
note_on channel=1 note=69 velocity=47 time=12
note_off channel=1 note=62 velocity=64 time=100
note_off channel=1 note=69 velocity=64 time=16
note_off channel=1 note=60 velocity=64 time=0
note_off channel=1 note=66 velocity=64 time=0
note_on channel=1 note=50 velocity=76 time=332
note_off channel=1 note=50 velocity=64 time=200
control_change channel=1 control=64 value=0 time=136
note_on channel=1 note=66 velocity=47 time=140
note_on channel=1 note=64 velocity=49 time=4
note_on channel=1 note=50 velocity=41 time=0
note_on channel=1 note=60 velocity=43 time=4
note_off channel=1 note=64 velocity=64 time=80
note_off channel=1 note=66 velocity=64 time=20
note_off channel=1 note=60 velocity=64 time=16
note_off channel=1 note=50 velocity=64 time=4
control_change channel=1 control=64 value=0 time=792
note_on channel=1 note=43 velocity=77 time=396
note_off channel=1 note=43 velocity=64 time=44
note_on channel=1 note=65 velocity=95 time=72
note_on channel=1 note=62 velocity=93 time=4
note_off channel=1 note=62 velocity=64 time=216
note_off channel=1 note=65 velocity=64 time=16
control_change channel=1 control=64 value=0 time=212
note_on channel=1 note=62 velocity=60 time=60
note_on channel=1 note=65 velocity=46 time=0
note_on channel=1 note=59 velocity=52 time=4
note_on channel=1 note=69 velocity=47 time=12
note_off channel=1 note=62 velocity=64 time=100
note_off channel=1 note=69 velocity=64 time=16
note_off channel=1 note=59 velocity=64 time=0
note_off channel=1 note=65 velocity=64 time=0
note_on channel=1 note=43 velocity=76 time=332
note_off channel=1 note=43 velocity=64 time=200
control_change channel=1 control=64 value=0 time=136
note_on channel=1 note=60 velocity=68 time=468
note_on channel=1 note=56 velocity=51 time=8
note_on channel=1 note=68 velocity=66 time=4
note_on channel=1 note=48 velocity=52 time=24
note_off channel=1 note=60 velocity=64 time=72
note_off channel=1 note=68 velocity=64 time=0
note_off channel=1 note=48 velocity=64 time=12
note_off channel=1 note=56 velocity=64 time=20
note_on channel=1 note=63 velocity=63 time=20
note_off channel=1 note=63 velocity=64 time=260
note_on channel=1 note=56 velocity=55 time=96
note_off channel=1 note=56 velocity=64 time=76
control_change channel=1 control=64 value=0 time=0
note_on channel=1 note=62 velocity=58 time=20
note_on channel=1 note=52 velocity=50 time=4
note_on channel=1 note=58 velocity=56 time=4
note_on channel=1 note=67 velocity=61 time=4
note_off channel=1 note=62 velocity=64 time=124
note_off channel=1 note=52 velocity=64 time=16
note_off channel=1 note=58 velocity=64 time=0
note_off channel=1 note=67 velocity=64 time=20
control_change channel=1 control=64 value=0 time=668
note_on channel=1 note=55 velocity=54 time=12
note_on channel=1 note=58 velocity=52 time=0
note_on channel=1 note=51 velocity=47 time=4
note_on channel=1 note=36 velocity=46 time=4
note_off channel=1 note=58 velocity=64 time=672
note_off channel=1 note=51 velocity=64 time=32
note_off channel=1 note=55 velocity=64 time=52
note_off channel=1 note=36 velocity=64 time=64
note_on channel=1 note=47 velocity=62 time=148
note_off channel=1 note=47 velocity=64 time=96
note_on channel=1 note=67 velocity=67 time=12
note_on channel=1 note=48 velocity=48 time=4
note_on channel=1 note=55 velocity=48 time=4
note_on channel=1 note=63 velocity=62 time=0
note_off channel=1 note=55 velocity=64 time=552
note_off channel=1 note=63 velocity=64 time=12
note_off channel=1 note=48 velocity=64 time=16
note_off channel=1 note=67 velocity=64 time=8
control_change channel=1 control=64 value=0 time=328
note_on channel=1 note=67 velocity=46 time=28
note_on channel=1 note=72 velocity=56 time=0
note_on channel=1 note=63 velocity=47 time=12
note_on channel=1 note=57 velocity=58 time=8
note_off channel=1 note=67 velocity=64 time=184
note_off channel=1 note=57 velocity=64 time=0
note_off channel=1 note=72 velocity=64 time=0
note_off channel=1 note=63 velocity=64 time=16
note_on channel=1 note=52 velocity=48 time=700
note_on channel=1 note=69 velocity=74 time=28
note_on channel=1 note=53 velocity=53 time=4
note_on channel=1 note=60 velocity=57 time=24
note_on channel=1 note=63 velocity=61 time=8
note_off channel=1 note=52 velocity=64 time=64
note_off channel=1 note=69 velocity=64 time=76
note_off channel=1 note=63 velocity=64 time=32
note_off channel=1 note=60 velocity=64 time=32
note_off channel=1 note=53 velocity=64 time=80
note_on channel=1 note=67 velocity=59 time=168
note_on channel=1 note=57 velocity=72 time=32
note_on channel=1 note=60 velocity=61 time=4
note_on channel=1 note=51 velocity=67 time=8
note_off channel=1 note=67 velocity=64 time=132
note_off channel=1 note=57 velocity=64 time=4
note_off channel=1 note=60 velocity=64 time=8
note_off channel=1 note=51 velocity=64 time=32
control_change channel=1 control=64 value=0 time=236
note_on channel=1 note=58 velocity=68 time=20
note_on channel=1 note=65 velocity=70 time=16
note_off channel=1 note=58 velocity=64 time=80
note_off channel=1 note=65 velocity=64 time=4
control_change channel=1 control=64 value=0 time=360
note_on channel=1 note=57 velocity=68 time=368
note_on channel=1 note=52 velocity=51 time=8
note_on channel=1 note=64 velocity=66 time=4
note_on channel=1 note=45 velocity=52 time=24
note_off channel=1 note=57 velocity=64 time=72
note_off channel=1 note=64 velocity=64 time=0
note_off channel=1 note=45 velocity=64 time=4
note_off channel=1 note=52 velocity=64 time=0
control_change channel=1 control=64 value=0 time=0
note_on channel=1 note=46 velocity=77 time=396
note_off channel=1 note=46 velocity=64 time=44
note_on channel=1 note=62 velocity=95 time=72
note_on channel=1 note=58 velocity=93 time=4
note_off channel=1 note=58 velocity=64 time=216
note_off channel=1 note=62 velocity=64 time=16
control_change channel=1 control=64 value=0 time=212
note_on channel=1 note=53 velocity=54 time=12
note_on channel=1 note=56 velocity=52 time=0
note_on channel=1 note=49 velocity=47 time=4
note_on channel=1 note=34 velocity=46 time=4
note_off channel=1 note=53 velocity=64 time=460
note_off channel=1 note=34 velocity=64 time=0
note_off channel=1 note=49 velocity=64 time=0
note_off channel=1 note=56 velocity=64 time=0
control_change channel=1 control=64 value=0 time=0
note_on channel=1 note=58 velocity=68 time=20
note_on channel=1 note=65 velocity=70 time=16
note_off channel=1 note=58 velocity=64 time=80
note_off channel=1 note=65 velocity=64 time=4
control_change channel=1 control=64 value=0 time=260
note_on channel=1 note=58 velocity=68 time=20
note_on channel=1 note=65 velocity=70 time=16
note_off channel=1 note=58 velocity=64 time=172
note_off channel=1 note=65 velocity=64 time=4
control_change channel=1 control=64 value=0 time=748
note_on channel=1 note=60 velocity=60 time=160
note_on channel=1 note=62 velocity=46 time=0
note_on channel=1 note=57 velocity=52 time=4
note_on channel=1 note=65 velocity=47 time=12
note_off channel=1 note=60 velocity=64 time=100
note_off channel=1 note=65 velocity=64 time=16
note_off channel=1 note=57 velocity=64 time=0
note_off channel=1 note=62 velocity=64 time=0
control_change channel=1 control=64 value=0 time=288
note_on channel=1 note=59 velocity=68 time=20
note_on channel=1 note=64 velocity=70 time=16
note_off channel=1 note=59 velocity=64 time=80
note_off channel=1 note=64 velocity=64 time=4
control_change channel=1 control=64 value=0 time=360
note_on channel=1 note=58 velocity=68 time=20
note_on channel=1 note=65 velocity=70 time=16
note_off channel=1 note=58 velocity=64 time=80
note_off channel=1 note=65 velocity=64 time=4
control_change channel=1 control=64 value=0 time=360
note_on channel=1 note=64 velocity=68 time=20
note_on channel=1 note=69 velocity=70 time=16
note_off channel=1 note=64 velocity=64 time=80
note_off channel=1 note=69 velocity=64 time=4
control_change channel=1 control=64 value=0 time=360
note_on channel=1 note=69 velocity=74 time=340
note_on channel=1 note=60 velocity=54 time=24
note_on channel=1 note=55 velocity=57 time=0
note_on channel=1 note=67 velocity=59 time=20
note_on channel=1 note=64 velocity=57 time=32
note_off channel=1 note=69 velocity=64 time=544
note_off channel=1 note=64 velocity=64 time=0
note_off channel=1 note=67 velocity=64 time=0
note_off channel=1 note=55 velocity=64 time=0
note_off channel=1 note=60 velocity=64 time=0
control_change channel=1 control=64 value=0 time=0
note_on channel=1 note=62 velocity=68 time=20
note_on channel=1 note=69 velocity=70 time=16
note_off channel=1 note=62 velocity=64 time=80
note_off channel=1 note=69 velocity=64 time=4
control_change channel=1 control=64 value=0 time=840
note_on channel=1 note=62 velocity=60 time=60
note_on channel=1 note=65 velocity=46 time=0
note_on channel=1 note=59 velocity=52 time=4
note_on channel=1 note=69 velocity=47 time=12
note_off channel=1 note=62 velocity=64 time=100
note_off channel=1 note=69 velocity=64 time=16
note_off channel=1 note=59 velocity=64 time=0
note_off channel=1 note=65 velocity=64 time=0
control_change channel=1 control=64 value=0 time=188
note_on channel=1 note=63 velocity=60 time=160
note_on channel=1 note=65 velocity=46 time=0
note_on channel=1 note=59 velocity=52 time=4
note_on channel=1 note=67 velocity=47 time=12
note_off channel=1 note=63 velocity=64 time=100
note_off channel=1 note=67 velocity=64 time=16
note_off channel=1 note=59 velocity=64 time=0
note_off channel=1 note=65 velocity=64 time=0
control_change channel=1 control=64 value=0 time=288
note_on channel=1 note=62 velocity=68 time=368
note_on channel=1 note=57 velocity=51 time=8
note_on channel=1 note=69 velocity=66 time=4
note_on channel=1 note=43 velocity=52 time=24
note_off channel=1 note=62 velocity=64 time=72
note_off channel=1 note=69 velocity=64 time=0
note_off channel=1 note=43 velocity=64 time=12
note_off channel=1 note=57 velocity=64 time=20
note_on channel=1 note=64 velocity=63 time=20
note_off channel=1 note=64 velocity=64 time=260
note_on channel=1 note=57 velocity=55 time=96
note_off channel=1 note=57 velocity=64 time=76
control_change channel=1 control=64 value=0 time=0
note_on channel=1 note=63 velocity=68 time=20
note_on channel=1 note=67 velocity=70 time=16
note_off channel=1 note=63 velocity=64 time=80
note_off channel=1 note=67 velocity=64 time=4
control_change channel=1 control=64 value=0 time=840
note_on channel=1 note=64 velocity=47 time=40
note_on channel=1 note=63 velocity=49 time=4
note_on channel=1 note=48 velocity=41 time=0
note_on channel=1 note=58 velocity=43 time=4
note_off channel=1 note=63 velocity=64 time=80
note_off channel=1 note=64 velocity=64 time=20
note_off channel=1 note=58 velocity=64 time=16
note_off channel=1 note=48 velocity=64 time=4
control_change channel=1 control=64 value=0 time=172
control_change channel=1 control=64 value=0 time=620
control_change channel=1 control=91 value=100 time=0
control_change channel=1 control=11 value=109 time=0
control_change channel=1 control=64 value=127 time=24
note_on channel=1 note=48 velocity=106 time=296
note_on channel=1 note=36 velocity=106 time=0
note_off channel=1 note=48 velocity=64 time=184
note_off channel=1 note=36 velocity=64 time=0
control_change channel=1 control=11 value=109 time=1416
control_change channel=1 control=11 value=108 time=120
control_change channel=1 control=11 value=106 time=120
control_change channel=1 control=11 value=105 time=120
control_change channel=1 control=11 value=104 time=120
control_change channel=1 control=11 value=103 time=120
control_change channel=1 control=11 value=101 time=120
control_change channel=1 control=11 value=100 time=120
control_change channel=1 control=11 value=99 time=120
control_change channel=1 control=11 value=98 time=120
control_change channel=1 control=11 value=96 time=120
control_change channel=1 control=11 value=95 time=120
control_change channel=1 control=11 value=94 time=120
control_change channel=1 control=11 value=93 time=120
control_change channel=1 control=11 value=91 time=120
control_change channel=1 control=11 value=90 time=120
control_change channel=1 control=11 value=89 time=96
control_change channel=1 control=64 value=0 time=24
control_change channel=1 control=91 value=81 time=0
control_change channel=1 control=11 value=90 time=312
note_on channel=1 note=43 velocity=77 time=84
note_off channel=1 note=43 velocity=64 time=44
note_on channel=1 note=65 velocity=95 time=72
note_on channel=1 note=62 velocity=93 time=4
control_change channel=1 control=11 value=91 time=108
note_off channel=1 note=62 velocity=64 time=108
note_off channel=1 note=65 velocity=64 time=16
control_change channel=1 control=64 value=0 time=212
control_change channel=1 control=11 value=93 time=0
note_on channel=1 note=62 velocity=68 time=20
note_on channel=1 note=69 velocity=70 time=16
note_off channel=1 note=62 velocity=64 time=80
note_off channel=1 note=69 velocity=64 time=4
control_change channel=1 control=11 value=94 time=192
control_change channel=1 control=64 value=0 time=168
note_on channel=1 note=63 velocity=68 time=20
note_on channel=1 note=69 velocity=70 time=16
note_off channel=1 note=63 velocity=64 time=80
note_off channel=1 note=69 velocity=64 time=4
control_change channel=1 control=11 value=95 time=48
control_change channel=1 control=11 value=96 time=312
control_change channel=1 control=64 value=0 time=0
note_on channel=1 note=62 velocity=68 time=368
note_on channel=1 note=55 velocity=51 time=8
note_on channel=1 note=67 velocity=66 time=4
note_on channel=1 note=48 velocity=52 time=24
note_off channel=1 note=62 velocity=64 time=72
note_off channel=1 note=67 velocity=64 time=0
note_off channel=1 note=48 velocity=64 time=12
note_off channel=1 note=55 velocity=64 time=20
note_on channel=1 note=63 velocity=63 time=20
note_off channel=1 note=63 velocity=64 time=260
note_on channel=1 note=55 velocity=55 time=96
note_off channel=1 note=55 velocity=64 time=76
control_change channel=1 control=64 value=0 time=0
note_on channel=1 note=64 velocity=47 time=40
note_on channel=1 note=62 velocity=49 time=4
note_on channel=1 note=48 velocity=41 time=0
note_on channel=1 note=58 velocity=43 time=4
note_off channel=1 note=62 velocity=64 time=80
note_off channel=1 note=64 velocity=64 time=20
note_off channel=1 note=58 velocity=64 time=16
note_off channel=1 note=48 velocity=64 time=4
control_change channel=1 control=64 value=0 time=312
control_change channel=1 control=64 value=0 time=380
note_on channel=1 note=60 velocity=60 time=160
note_on channel=1 note=62 velocity=46 time=0
note_on channel=1 note=57 velocity=52 time=4
note_on channel=1 note=65 velocity=47 time=12
note_off channel=1 note=60 velocity=64 time=100
note_off channel=1 note=65 velocity=64 time=16
note_off channel=1 note=57 velocity=64 time=0
note_off channel=1 note=62 velocity=64 time=0
note_on channel=1 note=41 velocity=76 time=332
note_off channel=1 note=41 velocity=64 time=200
control_change channel=1 control=64 value=0 time=236
note_on channel=1 note=60 velocity=47 time=40
note_on channel=1 note=57 velocity=49 time=4
note_on channel=1 note=45 velocity=41 time=0
note_on channel=1 note=55 velocity=43 time=4
note_off channel=1 note=57 velocity=64 time=80
note_off channel=1 note=60 velocity=64 time=20
note_off channel=1 note=55 velocity=64 time=16
note_off channel=1 note=45 velocity=64 time=4
control_change channel=1 control=64 value=0 time=312
note_on channel=1 note=65 velocity=77 time=364
note_on channel=1 note=58 velocity=68 time=4
note_on channel=1 note=49 velocity=67 time=4
note_on channel=1 note=55 velocity=42 time=12
note_off channel=1 note=58 velocity=64 time=52
note_off channel=1 note=55 velocity=64 time=0
note_off channel=1 note=49 velocity=64 time=12
note_off channel=1 note=65 velocity=64 time=4
control_change channel=1 control=64 value=0 time=28
note_on channel=1 note=70 velocity=77 time=364
note_on channel=1 note=64 velocity=68 time=4
note_on channel=1 note=54 velocity=67 time=4
note_on channel=1 note=60 velocity=42 time=12
note_off channel=1 note=64 velocity=64 time=52
note_off channel=1 note=60 velocity=64 time=0
note_off channel=1 note=54 velocity=64 time=12
note_off channel=1 note=70 velocity=64 time=4
note_on channel=1 note=64 velocity=61 time=524
note_on channel=1 note=60 velocity=61 time=12
note_on channel=1 note=70 velocity=59 time=0
note_on channel=1 note=54 velocity=59 time=4
note_off channel=1 note=54 velocity=64 time=60
note_off channel=1 note=64 velocity=64 time=20
note_off channel=1 note=60 velocity=64 time=4
note_off channel=1 note=70 velocity=64 time=8
note_on channel=1 note=53 velocity=55 time=724
note_off channel=1 note=53 velocity=64 time=72
control_change channel=1 control=64 value=0 time=40
note_on channel=1 note=63 velocity=68 time=20
note_on channel=1 note=69 velocity=70 time=16
note_off channel=1 note=63 velocity=64 time=80
note_off channel=1 note=69 velocity=64 time=4
control_change channel=1 control=64 value=0 time=740
note_on channel=1 note=63 velocity=60 time=160
note_on channel=1 note=65 velocity=46 time=0
note_on channel=1 note=59 velocity=52 time=4
note_on channel=1 note=69 velocity=47 time=12
note_off channel=1 note=63 velocity=64 time=100
note_off channel=1 note=69 velocity=64 time=16
note_off channel=1 note=59 velocity=64 time=0
note_off channel=1 note=65 velocity=64 time=0
control_change channel=1 control=64 value=0 time=288
note_on channel=1 note=62 velocity=68 time=20
note_on channel=1 note=69 velocity=70 time=16
note_off channel=1 note=62 velocity=64 time=80
note_off channel=1 note=69 velocity=64 time=4
control_change channel=1 control=64 value=0 time=260
note_on channel=1 note=60 velocity=68 time=468
note_on channel=1 note=55 velocity=51 time=8
note_on channel=1 note=67 velocity=66 time=4
note_on channel=1 note=48 velocity=52 time=24
note_off channel=1 note=60 velocity=64 time=72
note_off channel=1 note=67 velocity=64 time=0
note_off channel=1 note=48 velocity=64 time=12
note_off channel=1 note=55 velocity=64 time=20
note_on channel=1 note=63 velocity=63 time=20
note_off channel=1 note=63 velocity=64 time=260
note_on channel=1 note=55 velocity=55 time=96
note_off channel=1 note=55 velocity=64 time=76
control_change channel=1 control=64 value=0 time=0
control_change channel=1 control=64 value=0 time=380
note_on channel=1 note=62 velocity=58 time=20
note_on channel=1 note=52 velocity=50 time=4
note_on channel=1 note=58 velocity=56 time=4
note_on channel=1 note=67 velocity=61 time=4
note_off channel=1 note=62 velocity=64 time=216
note_off channel=1 note=52 velocity=64 time=16
note_off channel=1 note=58 velocity=64 time=0
note_off channel=1 note=67 velocity=64 time=20
control_change channel=1 control=64 value=0 time=196
note_on channel=1 note=67 velocity=77 time=464
note_on channel=1 note=60 velocity=68 time=4
note_on channel=1 note=51 velocity=67 time=4
note_on channel=1 note=58 velocity=42 time=12
note_off channel=1 note=60 velocity=64 time=52
note_off channel=1 note=58 velocity=64 time=0
note_off channel=1 note=51 velocity=64 time=12
note_off channel=1 note=67 velocity=64 time=4
note_on channel=1 note=60 velocity=61 time=524
note_on channel=1 note=58 velocity=61 time=12
note_on channel=1 note=67 velocity=59 time=0
note_on channel=1 note=51 velocity=59 time=4
note_off channel=1 note=51 velocity=64 time=60
note_off channel=1 note=60 velocity=64 time=20
note_off channel=1 note=58 velocity=64 time=4
note_off channel=1 note=67 velocity=64 time=8
control_change channel=1 control=64 value=0 time=836
note_on channel=1 note=67 velocity=77 time=364
note_on channel=1 note=60 velocity=68 time=4
note_on channel=1 note=51 velocity=67 time=4
note_on channel=1 note=58 velocity=42 time=12
note_off channel=1 note=60 velocity=64 time=52
note_off channel=1 note=58 velocity=64 time=0
note_off channel=1 note=51 velocity=64 time=12
note_off channel=1 note=67 velocity=64 time=4
control_change channel=1 control=64 value=0 time=508
note_on channel=1 note=73 velocity=74 time=340
note_on channel=1 note=63 velocity=54 time=24
note_on channel=1 note=57 velocity=57 time=0
note_on channel=1 note=69 velocity=59 time=20
note_on channel=1 note=65 velocity=57 time=32
note_off channel=1 note=73 velocity=64 time=544
note_off channel=1 note=65 velocity=64 time=0
note_off channel=1 note=69 velocity=64 time=0
note_off channel=1 note=57 velocity=64 time=0
note_off channel=1 note=63 velocity=64 time=0
control_change channel=1 control=64 value=0 time=0
control_change channel=1 control=11 value=109 time=0
note_on channel=1 note=58 velocity=44 time=20
note_on channel=1 note=50 velocity=44 time=4
note_on channel=1 note=55 velocity=44 time=4
note_on channel=1 note=65 velocity=44 time=4
note_off channel=1 note=58 velocity=64 time=124
note_off channel=1 note=50 velocity=64 time=16
note_off channel=1 note=55 velocity=64 time=0
note_off channel=1 note=65 velocity=64 time=20
note_on channel=1 note=73 velocity=83 time=670
note_off channel=1 note=73 velocity=46 time=93
note_on channel=1 note=74 velocity=55 time=70
note_off channel=1 note=74 velocity=58 time=261
note_on channel=1 note=77 velocity=67 time=29
note_on channel=1 note=55 velocity=44 time=69
note_off channel=1 note=55 velocity=64 time=40
note_on channel=1 note=79 velocity=86 time=14
note_off channel=1 note=77 velocity=60 time=14
note_on channel=1 note=70 velocity=44 time=8
note_on channel=1 note=55 velocity=44 time=4
note_on channel=1 note=62 velocity=44 time=8
note_on channel=1 note=65 velocity=44 time=0
note_off channel=1 note=79 velocity=55 time=64
note_off channel=1 note=62 velocity=64 time=120
note_off channel=1 note=70 velocity=64 time=124
note_off channel=1 note=55 velocity=64 time=0
note_off channel=1 note=65 velocity=64 time=0
control_change channel=1 control=64 value=0 time=40
note_on channel=1 note=80 velocity=83 time=107
note_on channel=1 note=65 velocity=44 time=357
note_on channel=1 note=58 velocity=44 time=4
note_on channel=1 note=49 velocity=44 time=4
note_on channel=1 note=56 velocity=44 time=12
note_off channel=1 note=58 velocity=64 time=52
note_off channel=1 note=56 velocity=64 time=0
note_off channel=1 note=49 velocity=64 time=12
note_off channel=1 note=65 velocity=64 time=4
note_off channel=1 note=80 velocity=37 time=381
note_on channel=1 note=77 velocity=67 time=29
control_change channel=1 control=64 value=0 time=98
note_on channel=1 note=70 velocity=44 time=340
note_on channel=1 note=61 velocity=44 time=24
note_on channel=1 note=55 velocity=44 time=0
note_on channel=1 note=67 velocity=44 time=20
note_on channel=1 note=65 velocity=44 time=32
note_off channel=1 note=70 velocity=64 time=544
note_off channel=1 note=65 velocity=64 time=0
note_off channel=1 note=67 velocity=64 time=0
note_off channel=1 note=55 velocity=64 time=0
note_off channel=1 note=61 velocity=64 time=0
control_change channel=1 control=64 value=0 time=0
note_off channel=1 note=77 velocity=33 time=34
note_on channel=1 note=60 velocity=44 time=334
note_on channel=1 note=53 velocity=44 time=8
note_on channel=1 note=65 velocity=44 time=4
note_on channel=1 note=41 velocity=44 time=24
note_off channel=1 note=60 velocity=64 time=72
note_off channel=1 note=65 velocity=64 time=0
note_off channel=1 note=41 velocity=64 time=12
note_off channel=1 note=53 velocity=64 time=20
note_on channel=1 note=62 velocity=44 time=20
note_off channel=1 note=62 velocity=64 time=260
note_on channel=1 note=73 velocity=75 time=62
note_on channel=1 note=53 velocity=44 time=34
note_off channel=1 note=53 velocity=64 time=88
note_off channel=1 note=73 velocity=42 time=12
note_on channel=1 note=57 velocity=44 time=16
note_on channel=1 note=62 velocity=44 time=0
note_on channel=1 note=74 velocity=55 time=34
note_off channel=1 note=57 velocity=64 time=154
note_off channel=1 note=62 velocity=64 time=8
note_off channel=1 note=74 velocity=58 time=107
note_on channel=1 note=77 velocity=86 time=15
note_off channel=1 note=77 velocity=57 time=144
note_on channel=1 note=79 velocity=89 time=16
note_off channel=1 note=79 velocity=33 time=178
note_on channel=1 note=50 velocity=44 time=156
note_off channel=1 note=50 velocity=64 time=72
control_change channel=1 control=64 value=0 time=36
note_on channel=1 note=66 velocity=44 time=0
note_on channel=1 note=69 velocity=44 time=16
note_on channel=1 note=54 velocity=44 time=0
note_on channel=1 note=60 velocity=44 time=0
note_on channel=1 note=80 velocity=96 time=10
note_off channel=1 note=69 velocity=64 time=174
note_off channel=1 note=66 velocity=64 time=568
note_off channel=1 note=60 velocity=64 time=4
note_off channel=1 note=54 velocity=64 time=0
note_off channel=1 note=80 velocity=42 time=46
note_on channel=1 note=77 velocity=83 time=27
note_on channel=1 note=69 velocity=44 time=115
note_on channel=1 note=65 velocity=44 time=0
note_on channel=1 note=60 velocity=44 time=0
note_on channel=1 note=50 velocity=44 time=0
note_off channel=1 note=65 velocity=64 time=128
note_on channel=1 note=66 velocity=44 time=32
note_off channel=1 note=50 velocity=64 time=448
note_off channel=1 note=60 velocity=64 time=0
note_off channel=1 note=69 velocity=64 time=0
note_off channel=1 note=66 velocity=64 time=288
control_change channel=1 control=64 value=0 time=64
note_off channel=1 note=77 velocity=44 time=34
note_on channel=1 note=67 velocity=44 time=330
note_on channel=1 note=62 velocity=44 time=4
note_on channel=1 note=53 velocity=44 time=4
note_on channel=1 note=59 velocity=44 time=12
note_off channel=1 note=62 velocity=64 time=52
note_off channel=1 note=59 velocity=64 time=0
note_off channel=1 note=53 velocity=64 time=12
note_off channel=1 note=67 velocity=64 time=4
note_on channel=1 note=73 velocity=92 time=388
note_off channel=1 note=73 velocity=53 time=127
note_on channel=1 note=62 velocity=44 time=9
note_on channel=1 note=59 velocity=44 time=12
note_on channel=1 note=67 velocity=44 time=0
note_on channel=1 note=53 velocity=44 time=4
note_on channel=1 note=74 velocity=73 time=6
note_off channel=1 note=53 velocity=64 time=54
note_off channel=1 note=62 velocity=64 time=20
note_off channel=1 note=59 velocity=64 time=4
note_off channel=1 note=67 velocity=64 time=8
note_off channel=1 note=74 velocity=58 time=195
note_on channel=1 note=77 velocity=86 time=17
note_off channel=1 note=77 velocity=62 time=134
note_on channel=1 note=79 velocity=96 time=29
note_off channel=1 note=79 velocity=58 time=108
control_change channel=1 control=64 value=0 time=253
note_on channel=1 note=80 velocity=90 time=129
note_off channel=1 note=80 velocity=50 time=290
note_on channel=1 note=67 velocity=44 time=45
note_on channel=1 note=60 velocity=44 time=4
note_on channel=1 note=83 velocity=89 time=2
note_on channel=1 note=52 velocity=44 time=2
note_on channel=1 note=58 velocity=44 time=12
note_off channel=1 note=60 velocity=64 time=52
note_off channel=1 note=58 velocity=64 time=0
note_off channel=1 note=52 velocity=64 time=12
note_off channel=1 note=67 velocity=64 time=4
note_on channel=1 note=60 velocity=44 time=524
note_on channel=1 note=58 velocity=44 time=12
note_on channel=1 note=67 velocity=44 time=0
note_on channel=1 note=52 velocity=44 time=4
note_off channel=1 note=52 velocity=64 time=60
note_off channel=1 note=60 velocity=64 time=20
note_off channel=1 note=58 velocity=64 time=4
note_off channel=1 note=67 velocity=64 time=8
note_off channel=1 note=83 velocity=59 time=190
note_on channel=1 note=82 velocity=63 time=53
note_off channel=1 note=82 velocity=40 time=166
note_on channel=1 note=80 velocity=69 time=12
note_off channel=1 note=80 velocity=55 time=278
note_on channel=1 note=51 velocity=44 time=25
note_on channel=1 note=77 velocity=83 time=11
note_off channel=1 note=51 velocity=64 time=61
control_change channel=1 control=64 value=0 time=40
control_change channel=1 control=11 value=109 time=0
note_on channel=1 note=65 velocity=44 time=368
note_on channel=1 note=57 velocity=44 time=8
note_on channel=1 note=69 velocity=44 time=4
note_on channel=1 note=41 velocity=44 time=24
note_off channel=1 note=65 velocity=64 time=72
note_off channel=1 note=69 velocity=64 time=0
control_change channel=1 control=11 value=108 time=4
note_off channel=1 note=41 velocity=64 time=8
note_off channel=1 note=57 velocity=64 time=20
note_on channel=1 note=64 velocity=44 time=20
note_off channel=1 note=64 velocity=64 time=260
note_on channel=1 note=57 velocity=44 time=96
control_change channel=1 control=11 value=106 time=76
note_off channel=1 note=57 velocity=64 time=12
note_on channel=1 note=60 velocity=44 time=28
note_on channel=1 note=65 velocity=44 time=0
note_off channel=1 note=60 velocity=64 time=188
note_off channel=1 note=65 velocity=64 time=8
control_change channel=1 control=11 value=105 time=244
control_change channel=1 control=64 value=0 time=380
note_on channel=1 note=58 velocity=58 time=20
note_on channel=1 note=49 velocity=50 time=4
note_on channel=1 note=55 velocity=56 time=4
note_on channel=1 note=63 velocity=61 time=4
control_change channel=1 control=11 value=104 time=44
note_off channel=1 note=77 velocity=47 time=22
note_off channel=1 note=58 velocity=64 time=150
note_off channel=1 note=55 velocity=64 time=16
note_off channel=1 note=49 velocity=64 time=0
note_off channel=1 note=63 velocity=64 time=20
control_change channel=1 control=64 value=0 time=296
note_on channel=1 note=65 velocity=60 time=60
note_on channel=1 note=66 velocity=46 time=0
note_on channel=1 note=60 velocity=52 time=4
note_on channel=1 note=69 velocity=47 time=12
note_off channel=1 note=65 velocity=64 time=100
note_off channel=1 note=69 velocity=64 time=16
note_off channel=1 note=60 velocity=64 time=0
note_off channel=1 note=66 velocity=64 time=0
control_change channel=1 control=64 value=0 time=188
note_on channel=1 note=65 velocity=58 time=20
note_on channel=1 note=54 velocity=50 time=4
note_on channel=1 note=60 velocity=56 time=4
note_on channel=1 note=69 velocity=61 time=4
note_off channel=1 note=65 velocity=64 time=216
note_off channel=1 note=54 velocity=64 time=16
note_off channel=1 note=60 velocity=64 time=0
note_off channel=1 note=69 velocity=64 time=20
control_change channel=1 control=64 value=0 time=676
note_on channel=1 note=62 velocity=68 time=20
note_on channel=1 note=69 velocity=70 time=16
note_off channel=1 note=62 velocity=64 time=172
note_off channel=1 note=69 velocity=64 time=4
control_change channel=1 control=64 value=0 time=848
note_on channel=1 note=55 velocity=54 time=12
note_on channel=1 note=59 velocity=52 time=0
note_on channel=1 note=53 velocity=47 time=4
note_on channel=1 note=43 velocity=46 time=4
note_off channel=1 note=55 velocity=64 time=320
note_off channel=1 note=43 velocity=64 time=0
note_off channel=1 note=53 velocity=64 time=0
note_off channel=1 note=59 velocity=64 time=0
control_change channel=1 control=64 value=0 time=40
note_on channel=1 note=65 velocity=47 time=140
note_on channel=1 note=62 velocity=49 time=4
note_on channel=1 note=43 velocity=41 time=0
note_on channel=1 note=59 velocity=43 time=4
note_off channel=1 note=62 velocity=64 time=80
note_off channel=1 note=65 velocity=64 time=20
note_off channel=1 note=59 velocity=64 time=16
note_off channel=1 note=43 velocity=64 time=4
control_change channel=1 control=64 value=0 time=212
note_on channel=1 note=67 velocity=77 time=464
note_on channel=1 note=62 velocity=68 time=4
note_on channel=1 note=52 velocity=67 time=4
note_on channel=1 note=58 velocity=42 time=12
note_off channel=1 note=62 velocity=64 time=52
note_off channel=1 note=58 velocity=64 time=0
note_off channel=1 note=52 velocity=64 time=12
note_off channel=1 note=67 velocity=64 time=4
control_change channel=1 control=64 value=0 time=408
note_on channel=1 note=63 velocity=68 time=468
note_on channel=1 note=55 velocity=51 time=8
note_on channel=1 note=67 velocity=66 time=4
note_on channel=1 note=48 velocity=52 time=24
note_off channel=1 note=63 velocity=64 time=72
note_off channel=1 note=67 velocity=64 time=0
note_off channel=1 note=48 velocity=64 time=4
note_off channel=1 note=55 velocity=64 time=0
control_change channel=1 control=64 value=0 time=0
control_change channel=1 control=64 value=0 time=380
note_on channel=1 note=62 velocity=47 time=140
note_on channel=1 note=60 velocity=49 time=4
note_on channel=1 note=41 velocity=41 time=0
note_on channel=1 note=57 velocity=43 time=4
note_off channel=1 note=60 velocity=64 time=80
note_off channel=1 note=62 velocity=64 time=20
note_off channel=1 note=57 velocity=64 time=16
note_off channel=1 note=41 velocity=64 time=4
control_change channel=1 control=64 value=0 time=792
note_on channel=1 note=53 velocity=54 time=12
note_on channel=1 note=56 velocity=52 time=0
note_on channel=1 note=50 velocity=47 time=4
note_on channel=1 note=41 velocity=46 time=4
note_off channel=1 note=53 velocity=64 time=320
note_off channel=1 note=41 velocity=64 time=0
note_off channel=1 note=50 velocity=64 time=0
note_off channel=1 note=56 velocity=64 time=0
control_change channel=1 control=64 value=0 time=40
note_on channel=1 note=60 velocity=68 time=468
note_on channel=1 note=53 velocity=51 time=8
note_on channel=1 note=65 velocity=66 time=4
note_on channel=1 note=41 velocity=52 time=24
note_off channel=1 note=60 velocity=64 time=72
note_off channel=1 note=65 velocity=64 time=0
note_off channel=1 note=41 velocity=64 time=4
note_off channel=1 note=53 velocity=64 time=0
control_change channel=1 control=64 value=0 time=0
note_on channel=1 note=57 velocity=54 time=12
note_on channel=1 note=60 velocity=52 time=0
note_on channel=1 note=54 velocity=47 time=4
note_on channel=1 note=38 velocity=46 time=4
note_off channel=1 note=60 velocity=64 time=580
note_off channel=1 note=54 velocity=64 time=32
note_off channel=1 note=57 velocity=64 time=52
note_off channel=1 note=38 velocity=64 time=64
note_on channel=1 note=49 velocity=62 time=140
note_off channel=1 note=49 velocity=64 time=72
control_change channel=1 control=64 value=0 time=0
note_on channel=1 note=62 velocity=60 time=60
note_on channel=1 note=66 velocity=46 time=0
note_on channel=1 note=60 velocity=52 time=4
note_on channel=1 note=69 velocity=47 time=12
note_off channel=1 note=62 velocity=64 time=100
note_off channel=1 note=69 velocity=64 time=16
note_off channel=1 note=60 velocity=64 time=0
note_off channel=1 note=66 velocity=64 time=0
control_change channel=1 control=64 value=0 time=288
note_on channel=1 note=64 velocity=68 time=368
note_on channel=1 note=57 velocity=51 time=8
note_on channel=1 note=69 velocity=66 time=4
note_on channel=1 note=50 velocity=52 time=24
note_off channel=1 note=64 velocity=64 time=72
note_off channel=1 note=69 velocity=64 time=0
note_off channel=1 note=50 velocity=64 time=4
note_off channel=1 note=57 velocity=64 time=0
control_change channel=1 control=64 value=0 time=0
note_on channel=1 note=69 velocity=77 time=364
note_on channel=1 note=62 velocity=68 time=4
note_on channel=1 note=53 velocity=67 time=4
note_on channel=1 note=59 velocity=42 time=12
note_off channel=1 note=62 velocity=64 time=52
note_off channel=1 note=59 velocity=64 time=0
note_off channel=1 note=53 velocity=64 time=12
note_off channel=1 note=69 velocity=64 time=4
control_change channel=1 control=64 value=0 time=508
note_on channel=1 note=62 velocity=68 time=20
note_on channel=1 note=69 velocity=70 time=16
note_off channel=1 note=62 velocity=64 time=80
note_off channel=1 note=69 velocity=64 time=4
control_change channel=1 control=64 value=0 time=260
note_on channel=1 note=65 velocity=47 time=140
note_on channel=1 note=62 velocity=49 time=4
note_on channel=1 note=43 velocity=41 time=0
note_on channel=1 note=59 velocity=43 time=4
note_off channel=1 note=62 velocity=64 time=80
note_off channel=1 note=65 velocity=64 time=20
note_off channel=1 note=59 velocity=64 time=16
note_off channel=1 note=43 velocity=64 time=4
control_change channel=1 control=64 value=0 time=312
note_on channel=1 note=65 velocity=47 time=40
note_on channel=1 note=62 velocity=49 time=4
note_on channel=1 note=43 velocity=41 time=0
note_on channel=1 note=58 velocity=43 time=4
note_off channel=1 note=62 velocity=64 time=80
note_off channel=1 note=65 velocity=64 time=20
note_off channel=1 note=58 velocity=64 time=16
note_off channel=1 note=43 velocity=64 time=4
control_change channel=1 control=64 value=0 time=792
note_on channel=1 note=62 velocity=68 time=368
note_on channel=1 note=55 velocity=51 time=8
note_on channel=1 note=67 velocity=66 time=4
note_on channel=1 note=48 velocity=52 time=24
note_off channel=1 note=62 velocity=64 time=72
note_off channel=1 note=67 velocity=64 time=0
note_off channel=1 note=48 velocity=64 time=12
note_off channel=1 note=55 velocity=64 time=20
note_on channel=1 note=63 velocity=63 time=20
note_off channel=1 note=63 velocity=64 time=260
control_change channel=1 control=64 value=0 time=72
note_on channel=1 note=72 velocity=74 time=440
note_on channel=1 note=63 velocity=54 time=24
note_on channel=1 note=58 velocity=57 time=0
note_on channel=1 note=70 velocity=59 time=20
note_on channel=1 note=67 velocity=57 time=32
note_off channel=1 note=72 velocity=64 time=1392
note_off channel=1 note=63 velocity=64 time=40
note_off channel=1 note=70 velocity=64 time=20
note_off channel=1 note=58 velocity=64 time=52
note_off channel=1 note=67 velocity=64 time=0
control_change channel=1 control=64 value=0 time=0
note_on channel=1 note=51 velocity=46 time=16
note_on channel=1 note=60 velocity=56 time=4
note_on channel=1 note=57 velocity=46 time=4
note_on channel=1 note=36 velocity=75 time=1276
note_off channel=1 note=51 velocity=64 time=12
note_off channel=1 note=36 velocity=64 time=40
note_off channel=1 note=57 velocity=64 time=332
note_off channel=1 note=60 velocity=64 time=0
control_change channel=1 control=64 value=0 time=136
note_on channel=1 note=62 velocity=47 time=140
note_on channel=1 note=58 velocity=49 time=4
note_on channel=1 note=46 velocity=41 time=0
note_on channel=1 note=57 velocity=43 time=4
note_off channel=1 note=58 velocity=64 time=80
note_off channel=1 note=62 velocity=64 time=20
note_off channel=1 note=57 velocity=64 time=16
note_off channel=1 note=46 velocity=64 time=4
control_change channel=1 control=64 value=0 time=792
note_on channel=1 note=58 velocity=60 time=60
note_on channel=1 note=62 velocity=46 time=0
note_on channel=1 note=55 velocity=52 time=4
note_on channel=1 note=65 velocity=47 time=12
note_off channel=1 note=58 velocity=64 time=100
note_off channel=1 note=65 velocity=64 time=16
note_off channel=1 note=55 velocity=64 time=0
note_off channel=1 note=62 velocity=64 time=0
note_on channel=1 note=46 velocity=76 time=332
note_off channel=1 note=46 velocity=64 time=200
control_change channel=1 control=64 value=0 time=136
note_on channel=1 note=47 velocity=77 time=496
note_off channel=1 note=47 velocity=64 time=44
note_on channel=1 note=62 velocity=95 time=72
note_on channel=1 note=59 velocity=93 time=4
note_off channel=1 note=59 velocity=64 time=216
note_off channel=1 note=62 velocity=64 time=16
control_change channel=1 control=64 value=0 time=212
note_on channel=1 note=71 velocity=74 time=340
note_on channel=1 note=62 velocity=54 time=24
note_on channel=1 note=56 velocity=57 time=0
note_on channel=1 note=68 velocity=59 time=20
note_on channel=1 note=64 velocity=57 time=32
note_off channel=1 note=71 velocity=64 time=544
note_off channel=1 note=64 velocity=64 time=0
note_off channel=1 note=68 velocity=64 time=0
note_off channel=1 note=56 velocity=64 time=0
note_off channel=1 note=62 velocity=64 time=0
control_change channel=1 control=64 value=0 time=0
note_on channel=1 note=48 velocity=46 time=16
note_on channel=1 note=57 velocity=56 time=4
note_on channel=1 note=55 velocity=46 time=4
note_on channel=1 note=40 velocity=75 time=1276
note_off channel=1 note=48 velocity=64 time=12
note_off channel=1 note=40 velocity=64 time=40
note_off channel=1 note=55 velocity=64 time=332
note_off channel=1 note=57 velocity=64 time=0
control_change channel=1 control=64 value=0 time=236
note_on channel=1 note=76 velocity=74 time=340
note_on channel=1 note=66 velocity=54 time=24
note_on channel=1 note=60 velocity=57 time=0
note_on channel=1 note=72 velocity=59 time=20
note_on channel=1 note=70 velocity=57 time=32
note_off channel=1 note=66 velocity=64 time=1364
note_off channel=1 note=70 velocity=64 time=0
note_off channel=1 note=72 velocity=64 time=0
note_off channel=1 note=60 velocity=64 time=0
note_off channel=1 note=76 velocity=64 time=28
control_change channel=1 control=64 value=0 time=12
note_on channel=1 note=67 velocity=46 time=160
note_on channel=1 note=62 velocity=52 time=4
note_on channel=1 note=70 velocity=47 time=12
note_off channel=1 note=67 velocity=64 time=100
note_off channel=1 note=70 velocity=64 time=16
note_off channel=1 note=62 velocity=64 time=0
note_on channel=1 note=43 velocity=76 time=332
note_off channel=1 note=43 velocity=64 time=200
control_change channel=1 control=64 value=0 time=236
note_on channel=1 note=70 velocity=77 time=364
note_on channel=1 note=67 velocity=68 time=4
note_on channel=1 note=55 velocity=67 time=4
note_on channel=1 note=62 velocity=42 time=12
note_off channel=1 note=67 velocity=64 time=52
note_off channel=1 note=62 velocity=64 time=0
note_off channel=1 note=55 velocity=64 time=12
note_off channel=1 note=70 velocity=64 time=4
control_change channel=1 control=64 value=0 time=508
note_on channel=1 note=74 velocity=74 time=340
note_on channel=1 note=65 velocity=54 time=24
note_on channel=1 note=58 velocity=57 time=0
note_on channel=1 note=70 velocity=59 time=20
note_on channel=1 note=67 velocity=57 time=32
note_off channel=1 note=74 velocity=64 time=544
note_off channel=1 note=67 velocity=64 time=0
note_off channel=1 note=70 velocity=64 time=0
note_off channel=1 note=58 velocity=64 time=0
note_off channel=1 note=65 velocity=64 time=0
control_change channel=1 control=64 value=0 time=0
note_on channel=1 note=62 velocity=58 time=20
note_on channel=1 note=53 velocity=50 time=4
note_on channel=1 note=58 velocity=56 time=4
note_on channel=1 note=67 velocity=61 time=4
note_off channel=1 note=62 velocity=64 time=124
note_off channel=1 note=53 velocity=64 time=16
note_off channel=1 note=58 velocity=64 time=0
note_off channel=1 note=67 velocity=64 time=20
control_change channel=1 control=64 value=0 time=288
control_change channel=1 control=64 value=0 time=380
note_on channel=1 note=57 velocity=58 time=20
note_on channel=1 note=48 velocity=50 time=4
note_on channel=1 note=55 velocity=56 time=4
note_on channel=1 note=64 velocity=61 time=4
note_off channel=1 note=57 velocity=64 time=216
note_off channel=1 note=48 velocity=64 time=16
note_off channel=1 note=55 velocity=64 time=0
note_off channel=1 note=64 velocity=64 time=20
note_on channel=1 note=53 velocity=42 time=1200
note_off channel=1 note=53 velocity=64 time=40
note_on channel=1 note=69 velocity=84 time=36
note_on channel=1 note=55 velocity=56 time=4
note_on channel=1 note=60 velocity=51 time=8
note_on channel=1 note=64 velocity=62 time=0
note_off channel=1 note=60 velocity=64 time=184
note_off channel=1 note=64 velocity=64 time=124
note_off channel=1 note=69 velocity=64 time=0
note_off channel=1 note=55 velocity=64 time=0
control_change channel=1 control=64 value=0 time=40
note_on channel=1 note=51 velocity=54 time=12
note_on channel=1 note=55 velocity=52 time=0
note_on channel=1 note=49 velocity=47 time=4
note_on channel=1 note=39 velocity=46 time=4
note_off channel=1 note=55 velocity=64 time=672
note_off channel=1 note=49 velocity=64 time=32
note_off channel=1 note=51 velocity=64 time=52
note_off channel=1 note=39 velocity=64 time=64
note_on channel=1 note=38 velocity=62 time=148
note_off channel=1 note=38 velocity=64 time=72
control_change channel=1 control=64 value=0 time=0
control_change channel=1 control=11 value=109 time=0
note_on channel=1 note=64 velocity=68 time=20
note_on channel=1 note=69 velocity=70 time=16
note_off channel=1 note=64 velocity=64 time=80
note_off channel=1 note=69 velocity=64 time=4
control_change channel=1 control=11 value=106 time=0
control_change channel=1 control=11 value=104 time=120
control_change channel=1 control=11 value=101 time=120
control_change channel=1 control=11 value=99 time=120
control_change channel=1 control=64 value=0 time=0
note_on channel=1 note=58 velocity=54 time=12
note_on channel=1 note=60 velocity=52 time=0
note_on channel=1 note=54 velocity=47 time=4
note_on channel=1 note=44 velocity=46 time=4
control_change channel=1 control=11 value=96 time=100
control_change channel=1 control=11 value=94 time=120
control_change channel=1 control=11 value=91 time=120
note_off channel=1 note=58 velocity=64 time=120
note_off channel=1 note=44 velocity=64 time=0
note_off channel=1 note=54 velocity=64 time=0
note_off channel=1 note=60 velocity=64 time=0
control_change channel=1 control=64 value=0 time=0
control_change channel=1 control=11 value=89 time=0
note_on channel=1 note=74 velocity=74 time=340
note_on channel=1 note=65 velocity=54 time=24
note_on channel=1 note=59 velocity=57 time=0
note_on channel=1 note=71 velocity=59 time=20
note_on channel=1 note=69 velocity=57 time=32
note_off channel=1 note=74 velocity=64 time=404
note_off channel=1 note=69 velocity=64 time=0
note_off channel=1 note=71 velocity=64 time=0
note_off channel=1 note=59 velocity=64 time=0
note_off channel=1 note=65 velocity=64 time=0
control_change channel=1 control=64 value=0 time=40
note_on channel=1 note=62 velocity=68 time=20
note_on channel=1 note=69 velocity=70 time=16
note_off channel=1 note=62 velocity=64 time=172
note_off channel=1 note=69 velocity=64 time=4
control_change channel=1 control=64 value=0 time=848
note_on channel=1 note=64 velocity=47 time=40
note_on channel=1 note=60 velocity=49 time=4
note_on channel=1 note=48 velocity=41 time=0
note_on channel=1 note=58 velocity=43 time=4
note_off channel=1 note=60 velocity=64 time=80
note_off channel=1 note=64 velocity=64 time=20
note_off channel=1 note=58 velocity=64 time=16
note_off channel=1 note=48 velocity=64 time=4
control_change channel=1 control=64 value=0 time=792
note_on channel=1 note=67 velocity=77 time=364
note_on channel=1 note=62 velocity=68 time=4
note_on channel=1 note=52 velocity=67 time=4
note_on channel=1 note=58 velocity=42 time=12
note_off channel=1 note=62 velocity=64 time=52
note_off channel=1 note=58 velocity=64 time=0
note_off channel=1 note=52 velocity=64 time=12
note_off channel=1 note=67 velocity=64 time=4
control_change channel=1 control=64 value=0 time=508
note_on channel=1 note=41 velocity=77 time=396
note_off channel=1 note=41 velocity=64 time=44
note_on channel=1 note=64 velocity=95 time=72
note_on channel=1 note=60 velocity=93 time=4
note_off channel=1 note=60 velocity=64 time=216
note_off channel=1 note=64 velocity=64 time=16
note_on channel=1 note=67 velocity=69 time=256
note_on channel=1 note=57 velocity=60 time=4
note_off channel=1 note=67 velocity=64 time=272
note_off channel=1 note=57 velocity=64 time=0
note_on channel=1 note=36 velocity=78 time=72
note_off channel=1 note=36 velocity=64 time=92
note_on channel=1 note=57 velocity=56 time=32
note_on channel=1 note=64 velocity=71 time=0
note_off channel=1 note=57 velocity=64 time=184
note_off channel=1 note=64 velocity=64 time=4
control_change channel=1 control=64 value=0 time=256
note_on channel=1 note=62 velocity=58 time=20
note_on channel=1 note=54 velocity=50 time=4
note_on channel=1 note=60 velocity=56 time=4
note_on channel=1 note=69 velocity=61 time=4
note_off channel=1 note=62 velocity=64 time=124
note_off channel=1 note=54 velocity=64 time=16
note_off channel=1 note=60 velocity=64 time=0
note_off channel=1 note=69 velocity=64 time=20
control_change channel=1 control=64 value=0 time=668
note_on channel=1 note=64 velocity=58 time=20
note_on channel=1 note=54 velocity=50 time=4
note_on channel=1 note=60 velocity=56 time=4
note_on channel=1 note=69 velocity=61 time=4
note_off channel=1 note=64 velocity=64 time=216
note_off channel=1 note=54 velocity=64 time=16
note_off channel=1 note=60 velocity=64 time=0
note_off channel=1 note=69 velocity=64 time=20
control_change channel=1 control=64 value=0 time=676
note_on channel=1 note=69 velocity=77 time=464
note_on channel=1 note=62 velocity=68 time=4
note_on channel=1 note=53 velocity=67 time=4
note_on channel=1 note=59 velocity=42 time=12
note_off channel=1 note=62 velocity=64 time=52
note_off channel=1 note=59 velocity=64 time=0
note_off channel=1 note=53 velocity=64 time=12
note_off channel=1 note=69 velocity=64 time=4
control_change channel=1 control=64 value=0 time=408
note_on channel=1 note=43 velocity=77 time=496
note_off channel=1 note=43 velocity=64 time=44
note_on channel=1 note=65 velocity=95 time=72
note_on channel=1 note=62 velocity=93 time=4
note_off channel=1 note=62 velocity=64 time=216
note_off channel=1 note=65 velocity=64 time=16
control_change channel=1 control=64 value=0 time=112
note_on channel=1 note=60 velocity=68 time=20
note_on channel=1 note=68 velocity=70 time=16
note_off channel=1 note=60 velocity=64 time=172
note_off channel=1 note=68 velocity=64 time=4
control_change channel=1 control=64 value=0 time=748
note_on channel=1 note=67 velocity=77 time=464
note_on channel=1 note=62 velocity=68 time=4
note_on channel=1 note=52 velocity=67 time=4
note_on channel=1 note=58 velocity=42 time=12
note_off channel=1 note=62 velocity=64 time=52
note_off channel=1 note=58 velocity=64 time=0
note_off channel=1 note=52 velocity=64 time=12
note_off channel=1 note=67 velocity=64 time=4
control_change channel=1 control=64 value=0 time=508
control_change channel=1 control=11 value=89 time=0
control_change channel=1 control=11 value=90 time=240
note_on channel=1 note=67 velocity=77 time=124
note_on channel=1 note=60 velocity=68 time=4
note_on channel=1 note=51 velocity=67 time=4
note_on channel=1 note=58 velocity=42 time=12
note_off channel=1 note=60 velocity=64 time=52
note_off channel=1 note=58 velocity=64 time=0
note_off channel=1 note=51 velocity=64 time=12
note_off channel=1 note=67 velocity=64 time=4
control_change channel=1 control=11 value=91 time=28
control_change channel=1 control=11 value=93 time=240
control_change channel=1 control=11 value=94 time=240
note_on channel=1 note=60 velocity=61 time=16
note_on channel=1 note=58 velocity=61 time=12
note_on channel=1 note=67 velocity=59 time=0
note_on channel=1 note=51 velocity=59 time=4
note_off channel=1 note=51 velocity=64 time=60
note_off channel=1 note=60 velocity=64 time=20
note_off channel=1 note=58 velocity=64 time=4
note_off channel=1 note=67 velocity=64 time=8
control_change channel=1 control=11 value=95 time=116
control_change channel=1 control=11 value=96 time=240
control_change channel=1 control=11 value=98 time=240
control_change channel=1 control=11 value=99 time=240
control_change channel=1 control=64 value=0 time=0
note_on channel=1 note=63 velocity=47 time=40
note_on channel=1 note=60 velocity=49 time=4
note_on channel=1 note=41 velocity=41 time=0
note_on channel=1 note=57 velocity=43 time=4
note_off channel=1 note=60 velocity=64 time=80
note_off channel=1 note=63 velocity=64 time=20
note_off channel=1 note=57 velocity=64 time=16
note_off channel=1 note=41 velocity=64 time=4
control_change channel=1 control=11 value=100 time=72
control_change channel=1 control=64 value=0 time=140
control_change channel=1 control=11 value=101 time=100
note_on channel=1 note=63 velocity=47 time=40
note_on channel=1 note=60 velocity=49 time=4
note_on channel=1 note=48 velocity=41 time=0
note_on channel=1 note=58 velocity=43 time=4
note_off channel=1 note=60 velocity=64 time=80
note_off channel=1 note=63 velocity=64 time=20
note_off channel=1 note=58 velocity=64 time=16
note_off channel=1 note=48 velocity=64 time=4
control_change channel=1 control=11 value=103 time=72
control_change channel=1 control=11 value=104 time=240
control_change channel=1 control=64 value=0 time=0
note_on channel=1 note=60 velocity=58 time=20
note_on channel=1 note=51 velocity=50 time=4
note_on channel=1 note=57 velocity=56 time=4
note_on channel=1 note=67 velocity=61 time=4
note_off channel=1 note=60 velocity=64 time=124
note_off channel=1 note=51 velocity=64 time=16
note_off channel=1 note=57 velocity=64 time=0
note_off channel=1 note=67 velocity=64 time=20
control_change channel=1 control=11 value=105 time=48
control_change channel=1 control=11 value=106 time=240
control_change channel=1 control=11 value=108 time=240
control_change channel=1 control=64 value=0 time=140
note_on channel=1 note=65 velocity=60 time=20
note_on channel=1 note=62 velocity=65 time=16
control_change channel=1 control=11 value=109 time=64
note_on channel=1 note=55 velocity=64 time=40
note_on channel=1 note=46 velocity=44 time=12
note_off channel=1 note=62 velocity=64 time=1708
note_off channel=1 note=46 velocity=64 time=8
note_off channel=1 note=55 velocity=64 time=0
note_off channel=1 note=65 velocity=64 time=8
control_change channel=1 control=64 value=0 time=44
note_on channel=1 note=58 velocity=58 time=20
note_on channel=1 note=49 velocity=50 time=4
note_on channel=1 note=56 velocity=56 time=4
note_on channel=1 note=65 velocity=61 time=4
note_off channel=1 note=58 velocity=64 time=216
note_off channel=1 note=49 velocity=64 time=16
note_off channel=1 note=56 velocity=64 time=0
note_off channel=1 note=65 velocity=64 time=20
control_change channel=1 control=64 value=0 time=776
note_on channel=1 note=51 velocity=54 time=12
note_on channel=1 note=55 velocity=52 time=0
note_on channel=1 note=49 velocity=47 time=4
note_on channel=1 note=39 velocity=46 time=4
note_off channel=1 note=55 velocity=64 time=580
note_off channel=1 note=49 velocity=64 time=32
note_off channel=1 note=51 velocity=64 time=52
note_off channel=1 note=39 velocity=64 time=64
note_on channel=1 note=38 velocity=62 time=140
note_off channel=1 note=38 velocity=64 time=72
control_change channel=1 control=64 value=0 time=0
note_on channel=1 note=72 velocity=74 time=340
note_on channel=1 note=62 velocity=54 time=24
note_on channel=1 note=57 velocity=57 time=0
note_on channel=1 note=69 velocity=59 time=20
note_on channel=1 note=65 velocity=57 time=32
note_off channel=1 note=72 velocity=64 time=404
note_off channel=1 note=65 velocity=64 time=0
note_off channel=1 note=69 velocity=64 time=0
note_off channel=1 note=57 velocity=64 time=0
note_off channel=1 note=62 velocity=64 time=0
control_change channel=1 control=64 value=0 time=40
note_on channel=1 note=60 velocity=58 time=20
note_on channel=1 note=50 velocity=50 time=4
note_on channel=1 note=57 velocity=56 time=4
note_on channel=1 note=65 velocity=61 time=4
note_off channel=1 note=60 velocity=64 time=216
note_off channel=1 note=50 velocity=64 time=16
note_off channel=1 note=57 velocity=64 time=0
note_off channel=1 note=65 velocity=64 time=20
control_change channel=1 control=64 value=0 time=296
note_on channel=1 note=60 velocity=58 time=20
note_on channel=1 note=52 velocity=50 time=4
note_on channel=1 note=57 velocity=56 time=4
note_on channel=1 note=67 velocity=61 time=4
note_off channel=1 note=60 velocity=64 time=124
note_off channel=1 note=52 velocity=64 time=16
note_off channel=1 note=57 velocity=64 time=0
note_off channel=1 note=67 velocity=64 time=20
control_change channel=1 control=64 value=0 time=288
note_on channel=1 note=57 velocity=68 time=368
note_on channel=1 note=52 velocity=51 time=8
note_on channel=1 note=64 velocity=66 time=4
note_on channel=1 note=45 velocity=52 time=24
note_off channel=1 note=57 velocity=64 time=72
note_off channel=1 note=64 velocity=64 time=0
note_off channel=1 note=45 velocity=64 time=12
note_off channel=1 note=52 velocity=64 time=20
note_on channel=1 note=60 velocity=63 time=20
note_off channel=1 note=60 velocity=64 time=260
control_change channel=1 control=64 value=0 time=72
note_on channel=1 note=62 velocity=68 time=468
note_on channel=1 note=58 velocity=51 time=8
note_on channel=1 note=70 velocity=66 time=4
note_on channel=1 note=50 velocity=52 time=24
note_off channel=1 note=62 velocity=64 time=72
note_off channel=1 note=70 velocity=64 time=0
note_off channel=1 note=50 velocity=64 time=12
note_off channel=1 note=58 velocity=64 time=20
note_on channel=1 note=65 velocity=63 time=20
note_off channel=1 note=65 velocity=64 time=260
note_on channel=1 note=58 velocity=55 time=96
note_off channel=1 note=58 velocity=64 time=76
control_change channel=1 control=64 value=0 time=0
note_on channel=1 note=75 velocity=74 time=340
note_on channel=1 note=65 velocity=54 time=24
note_on channel=1 note=59 velocity=57 time=0
note_on channel=1 note=71 velocity=59 time=20
note_on channel=1 note=67 velocity=57 time=32
note_off channel=1 note=75 velocity=64 time=544
note_off channel=1 note=67 velocity=64 time=0
note_off channel=1 note=71 velocity=64 time=0
note_off channel=1 note=59 velocity=64 time=0
note_off channel=1 note=65 velocity=64 time=0
control_change channel=1 control=64 value=0 time=0
note_on channel=1 note=43 velocity=77 time=396
note_off channel=1 note=43 velocity=64 time=44
note_on channel=1 note=65 velocity=95 time=72
note_on channel=1 note=62 velocity=93 time=4
note_off channel=1 note=62 velocity=64 time=216
note_off channel=1 note=65 velocity=64 time=16
control_change channel=1 control=64 value=0 time=212
note_on channel=1 note=72 velocity=74 time=340
note_on channel=1 note=64 velocity=54 time=24
note_on channel=1 note=58 velocity=57 time=0
note_on channel=1 note=70 velocity=59 time=20
note_on channel=1 note=68 velocity=57 time=32
note_off channel=1 note=72 velocity=64 time=544
note_off channel=1 note=68 velocity=64 time=0
note_off channel=1 note=70 velocity=64 time=0
note_off channel=1 note=58 velocity=64 time=0
note_off channel=1 note=64 velocity=64 time=0
control_change channel=1 control=64 value=0 time=0
note_on channel=1 note=72 velocity=74 time=340
note_on channel=1 note=64 velocity=54 time=24
note_on channel=1 note=58 velocity=57 time=0
note_on channel=1 note=70 velocity=59 time=20
note_on channel=1 note=67 velocity=57 time=32
note_off channel=1 note=72 velocity=64 time=544
note_off channel=1 note=67 velocity=64 time=0
note_off channel=1 note=70 velocity=64 time=0
note_off channel=1 note=58 velocity=64 time=0
note_off channel=1 note=64 velocity=64 time=0
control_change channel=1 control=64 value=0 time=0
note_on channel=1 note=53 velocity=54 time=12
note_on channel=1 note=57 velocity=52 time=0
note_on channel=1 note=51 velocity=47 time=4
note_on channel=1 note=41 velocity=46 time=4
note_off channel=1 note=57 velocity=64 time=580
note_off channel=1 note=51 velocity=64 time=32
note_off channel=1 note=53 velocity=64 time=52
note_off channel=1 note=41 velocity=64 time=64
note_on channel=1 note=40 velocity=62 time=140
note_off channel=1 note=40 velocity=64 time=72
control_change channel=1 control=64 value=0 time=0
note_on channel=1 note=60 velocity=58 time=20
note_on channel=1 note=52 velocity=50 time=4
note_on channel=1 note=57 velocity=56 time=4
note_on channel=1 note=67 velocity=61 time=4
note_off channel=1 note=60 velocity=64 time=124
note_off channel=1 note=52 velocity=64 time=16
note_off channel=1 note=57 velocity=64 time=0
note_off channel=1 note=67 velocity=64 time=20
control_change channel=1 control=64 value=0 time=288
note_on channel=1 note=60 velocity=60 time=60
note_on channel=1 note=62 velocity=46 time=0
note_on channel=1 note=57 velocity=52 time=4
note_on channel=1 note=65 velocity=47 time=12
note_off channel=1 note=60 velocity=64 time=100
note_off channel=1 note=65 velocity=64 time=16
note_off channel=1 note=57 velocity=64 time=0
note_off channel=1 note=62 velocity=64 time=0
control_change channel=1 control=64 value=0 time=188
note_on channel=1 note=62 velocity=60 time=160
note_on channel=1 note=66 velocity=46 time=0
note_on channel=1 note=60 velocity=52 time=4
note_on channel=1 note=69 velocity=47 time=12
note_off channel=1 note=62 velocity=64 time=100
note_off channel=1 note=69 velocity=64 time=16
note_off channel=1 note=60 velocity=64 time=0
note_off channel=1 note=66 velocity=64 time=0
note_on channel=1 note=50 velocity=76 time=332
note_off channel=1 note=50 velocity=64 time=200
control_change channel=1 control=64 value=0 time=236
note_on channel=1 note=64 velocity=60 time=60
note_on channel=1 note=66 velocity=46 time=0
note_on channel=1 note=60 velocity=52 time=4
note_on channel=1 note=69 velocity=47 time=12
note_off channel=1 note=64 velocity=64 time=100
note_off channel=1 note=69 velocity=64 time=16
note_off channel=1 note=60 velocity=64 time=0
note_off channel=1 note=66 velocity=64 time=0
note_on channel=1 note=50 velocity=76 time=332
note_off channel=1 note=50 velocity=64 time=200
control_change channel=1 control=64 value=0 time=136
note_on channel=1 note=63 velocity=68 time=20
note_on channel=1 note=67 velocity=70 time=16
control_change channel=1 control=64 value=0 time=64
note_off channel=1 note=63 velocity=64 time=108
note_off channel=1 note=67 velocity=64 time=4
note_on channel=1 note=80 velocity=81 time=243
note_on channel=1 note=75 velocity=81 time=0
note_off channel=1 note=80 velocity=50 time=588
note_off channel=1 note=75 velocity=50 time=0
control_change channel=1 control=64 value=0 time=17
note_on channel=1 note=57 velocity=50 time=12
note_on channel=1 note=59 velocity=50 time=0
note_on channel=1 note=53 velocity=50 time=4
note_on channel=1 note=43 velocity=50 time=4
note_on channel=1 note=81 velocity=81 time=6
note_on channel=1 note=76 velocity=81 time=0
note_off channel=1 note=81 velocity=53 time=142
note_off channel=1 note=76 velocity=53 time=0
note_on channel=1 note=74 velocity=81 time=314
note_off channel=1 note=59 velocity=64 time=118
note_off channel=1 note=53 velocity=64 time=32
note_off channel=1 note=74 velocity=52 time=16
note_off channel=1 note=57 velocity=64 time=36
note_off channel=1 note=43 velocity=64 time=64
control_change channel=1 control=64 value=0 time=112
note_on channel=1 note=80 velocity=81 time=109
note_on channel=1 note=75 velocity=81 time=0
note_on channel=1 note=72 velocity=50 time=331
note_on channel=1 note=64 velocity=50 time=24
note_on channel=1 note=58 velocity=50 time=0
note_on channel=1 note=70 velocity=50 time=20
note_on channel=1 note=68 velocity=50 time=32
note_off channel=1 note=80 velocity=44 time=409
note_off channel=1 note=75 velocity=44 time=0
note_on channel=1 note=81 velocity=81 time=29
note_on channel=1 note=76 velocity=81 time=0
note_off channel=1 note=70 velocity=64 time=106
note_off channel=1 note=68 velocity=64 time=0
note_off channel=1 note=64 velocity=64 time=0
note_off channel=1 note=58 velocity=64 time=0
note_off channel=1 note=72 velocity=64 time=0
control_change channel=1 control=64 value=0 time=0
control_change channel=1 control=64 value=0 time=340
note_off channel=1 note=76 velocity=75 time=159
note_off channel=1 note=81 velocity=75 time=0
note_on channel=1 note=74 velocity=81 time=26
note_off channel=1 note=74 velocity=65 time=260
note_on channel=1 note=77 velocity=81 time=33
note_off channel=1 note=77 velocity=61 time=108
control_change channel=1 control=64 value=0 time=34
control_change channel=1 control=11 value=96 time=0
note_on channel=1 note=68 velocity=75 time=2720
note_on channel=1 note=63 velocity=75 time=0
note_on channel=1 note=57 velocity=75 time=0
note_on channel=1 note=48 velocity=75 time=0
note_on channel=1 note=41 velocity=75 time=0
note_off channel=1 note=68 velocity=64 time=3976
note_off channel=1 note=41 velocity=64 time=0
note_off channel=1 note=48 velocity=64 time=0
note_off channel=1 note=57 velocity=64 time=0
note_off channel=1 note=63 velocity=64 time=0
<meta message end_of_track time=0>
<meta message text text='Alto Sax 1' time=0>
control_change channel=2 control=11 value=127 time=0
control_change channel=2 control=7 value=106 time=0
control_change channel=2 control=10 value=77 time=0
control_change channel=2 control=91 value=94 time=0
control_change channel=2 control=93 value=30 time=0
control_change channel=2 control=0 value=56 time=0
control_change channel=2 control=32 value=0 time=0
program_change channel=2 program=65 time=0
note_on channel=2 note=68 velocity=69 time=9920
note_off channel=2 note=68 velocity=64 time=604
note_on channel=2 note=69 velocity=70 time=36
note_off channel=2 note=69 velocity=64 time=192
note_on channel=2 note=62 velocity=72 time=288
note_off channel=2 note=62 velocity=64 time=192
note_on channel=2 note=68 velocity=74 time=288
note_off channel=2 note=68 velocity=64 time=788
note_on channel=2 note=69 velocity=76 time=12
note_off channel=2 note=69 velocity=64 time=1120
note_on channel=2 note=68 velocity=81 time=320
note_off channel=2 note=68 velocity=64 time=592
note_on channel=2 note=69 velocity=84 time=48
note_off channel=2 note=69 velocity=64 time=180
note_on channel=2 note=62 velocity=85 time=300
note_off channel=2 note=62 velocity=64 time=180
note_on channel=2 note=68 velocity=88 time=300
note_off channel=2 note=68 velocity=64 time=788
note_on channel=2 note=69 velocity=90 time=12
note_off channel=2 note=69 velocity=64 time=604
note_on channel=2 note=62 velocity=93 time=36
note_off channel=2 note=62 velocity=64 time=284
note_on channel=2 note=65 velocity=93 time=36
note_off channel=2 note=65 velocity=64 time=136
control_change channel=2 control=93 value=60 time=34584
note_on channel=2 note=62 velocity=62 time=320
note_off channel=2 note=62 velocity=64 time=148
note_on channel=2 note=68 velocity=75 time=12
note_off channel=2 note=68 velocity=64 time=156
note_on channel=2 note=69 velocity=69 time=324
note_off channel=2 note=69 velocity=64 time=308
note_on channel=2 note=62 velocity=69 time=12
note_off channel=2 note=62 velocity=64 time=112
note_on channel=2 note=68 velocity=76 time=368
note_off channel=2 note=68 velocity=64 time=468
note_on channel=2 note=69 velocity=69 time=12
note_off channel=2 note=69 velocity=64 time=160
note_on channel=2 note=68 velocity=56 time=0
note_on channel=2 note=69 velocity=44 time=160
note_off channel=2 note=68 velocity=64 time=24
note_on channel=2 note=68 velocity=62 time=136
note_off channel=2 note=69 velocity=64 time=24
note_on channel=2 note=69 velocity=69 time=136
note_off channel=2 note=68 velocity=64 time=24
note_off channel=2 note=69 velocity=64 time=284
note_on channel=2 note=62 velocity=69 time=12
note_off channel=2 note=62 velocity=64 time=148
note_on channel=2 note=62 velocity=62 time=812
note_off channel=2 note=62 velocity=64 time=148
note_on channel=2 note=68 velocity=75 time=12
note_off channel=2 note=68 velocity=64 time=156
note_on channel=2 note=69 velocity=69 time=324
note_off channel=2 note=69 velocity=64 time=308
note_on channel=2 note=62 velocity=69 time=12
note_off channel=2 note=62 velocity=64 time=112
note_on channel=2 note=68 velocity=76 time=368
note_off channel=2 note=68 velocity=64 time=468
note_on channel=2 note=69 velocity=69 time=12
note_off channel=2 note=69 velocity=64 time=160
note_on channel=2 note=68 velocity=56 time=0
note_on channel=2 note=69 velocity=44 time=160
note_off channel=2 note=68 velocity=64 time=24
note_on channel=2 note=68 velocity=62 time=136
note_off channel=2 note=69 velocity=64 time=24
note_on channel=2 note=69 velocity=69 time=136
note_off channel=2 note=68 velocity=64 time=24
note_off channel=2 note=69 velocity=64 time=284
note_on channel=2 note=62 velocity=69 time=12
note_off channel=2 note=62 velocity=64 time=148
note_on channel=2 note=62 velocity=62 time=812
note_off channel=2 note=62 velocity=64 time=148
note_on channel=2 note=68 velocity=75 time=12
note_off channel=2 note=68 velocity=64 time=156
note_on channel=2 note=69 velocity=69 time=324
note_off channel=2 note=69 velocity=64 time=308
note_on channel=2 note=62 velocity=69 time=12
note_off channel=2 note=62 velocity=64 time=112
note_on channel=2 note=68 velocity=75 time=368
note_off channel=2 note=68 velocity=64 time=468
note_on channel=2 note=69 velocity=69 time=12
note_off channel=2 note=69 velocity=64 time=160
note_on channel=2 note=68 velocity=56 time=0
note_on channel=2 note=69 velocity=44 time=160
note_off channel=2 note=68 velocity=64 time=24
note_on channel=2 note=68 velocity=62 time=136
note_off channel=2 note=69 velocity=64 time=24
note_on channel=2 note=69 velocity=69 time=136
note_off channel=2 note=68 velocity=64 time=24
note_off channel=2 note=69 velocity=64 time=284
note_on channel=2 note=60 velocity=56 time=12
note_off channel=2 note=60 velocity=64 time=160
note_on channel=2 note=62 velocity=65 time=0
note_off channel=2 note=62 velocity=64 time=320
note_on channel=2 note=67 velocity=69 time=0
control_change channel=2 control=11 value=127 time=232
control_change channel=2 control=11 value=121 time=24
control_change channel=2 control=11 value=115 time=24
control_change channel=2 control=11 value=109 time=24
control_change channel=2 control=11 value=103 time=24
control_change channel=2 control=11 value=96 time=24
control_change channel=2 control=11 value=90 time=24
control_change channel=2 control=11 value=84 time=24
control_change channel=2 control=11 value=84 time=0
control_change channel=2 control=11 value=85 time=120
control_change channel=2 control=11 value=86 time=120
control_change channel=2 control=11 value=88 time=120
control_change channel=2 control=11 value=89 time=120
control_change channel=2 control=11 value=91 time=120
control_change channel=2 control=11 value=93 time=120
control_change channel=2 control=11 value=94 time=120
control_change channel=2 control=11 value=95 time=120
control_change channel=2 control=11 value=96 time=120
control_change channel=2 control=11 value=99 time=120
control_change channel=2 control=11 value=100 time=120
control_change channel=2 control=11 value=101 time=120
control_change channel=2 control=11 value=103 time=120
control_change channel=2 control=11 value=105 time=120
control_change channel=2 control=11 value=104 time=288
control_change channel=2 control=11 value=103 time=264
control_change channel=2 control=11 value=101 time=264
control_change channel=2 control=11 value=100 time=288
control_change channel=2 control=11 value=99 time=264
control_change channel=2 control=11 value=98 time=264
note_off channel=2 note=67 velocity=64 time=216
control_change channel=2 control=11 value=96 time=48
control_change channel=2 control=11 value=127 time=24
control_change channel=2 control=93 value=30 time=0
note_on channel=2 note=58 velocity=69 time=3200
note_off channel=2 note=58 velocity=64 time=160
note_on channel=2 note=61 velocity=81 time=0
note_off channel=2 note=61 velocity=64 time=314
note_on channel=2 note=61 velocity=75 time=6
note_off channel=2 note=61 velocity=64 time=142
note_on channel=2 note=60 velocity=81 time=6
note_off channel=2 note=60 velocity=64 time=132
control_change channel=2 control=93 value=60 time=3720
note_on channel=2 note=62 velocity=62 time=320
note_off channel=2 note=62 velocity=64 time=136
note_on channel=2 note=68 velocity=75 time=24
note_off channel=2 note=68 velocity=64 time=156
note_on channel=2 note=69 velocity=69 time=324
note_off channel=2 note=69 velocity=64 time=308
note_on channel=2 note=62 velocity=69 time=12
note_off channel=2 note=62 velocity=64 time=136
note_on channel=2 note=63 velocity=75 time=344
control_change channel=2 control=11 value=127 time=160
pitchwheel channel=2 pitch=-1 time=9
control_change channel=2 control=11 value=123 time=3
control_change channel=2 control=11 value=119 time=12
pitchwheel channel=2 pitch=-130 time=0
control_change channel=2 control=11 value=114 time=12
control_change channel=2 control=11 value=110 time=12
pitchwheel channel=2 pitch=-323 time=7
control_change channel=2 control=11 value=105 time=5
control_change channel=2 control=11 value=101 time=12
pitchwheel channel=2 pitch=-517 time=0
control_change channel=2 control=11 value=98 time=12
control_change channel=2 control=11 value=93 time=12
control_change channel=2 control=11 value=89 time=12
control_change channel=2 control=11 value=84 time=12
control_change channel=2 control=11 value=84 time=0
pitchwheel channel=2 pitch=-646 time=60
control_change channel=2 control=11 value=88 time=36
pitchwheel channel=2 pitch=-839 time=24
control_change channel=2 control=11 value=91 time=60
control_change channel=2 control=11 value=94 time=60
pitchwheel channel=2 pitch=-646 time=81
control_change channel=2 control=11 value=98 time=15
pitchwheel channel=2 pitch=-517 time=16
pitchwheel channel=2 pitch=-323 time=60
control_change channel=2 control=11 value=101 time=8
pitchwheel channel=2 pitch=-130 time=57
control_change channel=2 control=11 value=104 time=3
pitchwheel channel=2 pitch=-1 time=43
control_change channel=2 control=11 value=108 time=41
pitchwheel channel=2 pitch=0 time=67
control_change channel=2 control=11 value=111 time=29
control_change channel=2 control=11 value=114 time=60
control_change channel=2 control=11 value=118 time=84
control_change channel=2 control=11 value=121 time=96
control_change channel=2 control=11 value=124 time=60
control_change channel=2 control=11 value=127 time=48
note_off channel=2 note=63 velocity=64 time=116
note_on channel=2 note=60 velocity=56 time=36
note_off channel=2 note=60 velocity=64 time=160
note_on channel=2 note=64 velocity=65 time=0
note_off channel=2 note=64 velocity=64 time=308
note_on channel=2 note=65 velocity=69 time=12
note_off channel=2 note=65 velocity=64 time=124
note_on channel=2 note=62 velocity=44 time=916
note_on channel=2 note=61 velocity=55 time=40
note_on channel=2 note=60 velocity=69 time=40
note_off channel=2 note=62 velocity=64 time=8
note_off channel=2 note=61 velocity=64 time=28
note_off channel=2 note=60 velocity=64 time=284
note_on channel=2 note=62 velocity=62 time=0
note_off channel=2 note=62 velocity=64 time=160
note_on channel=2 note=65 velocity=71 time=0
note_off channel=2 note=65 velocity=64 time=320
note_on channel=2 note=68 velocity=74 time=0
pitchwheel channel=2 pitch=-1 time=74
pitchwheel channel=2 pitch=-130 time=14
pitchwheel channel=2 pitch=-388 time=14
pitchwheel channel=2 pitch=-775 time=17
pitchwheel channel=2 pitch=-1033 time=15
pitchwheel channel=2 pitch=-1162 time=16
pitchwheel channel=2 pitch=-1355 time=15
pitchwheel channel=2 pitch=-1549 time=31
pitchwheel channel=2 pitch=-1355 time=108
pitchwheel channel=2 pitch=-1162 time=46
pitchwheel channel=2 pitch=-904 time=31
pitchwheel channel=2 pitch=-775 time=31
pitchwheel channel=2 pitch=-581 time=17
pitchwheel channel=2 pitch=-388 time=14
pitchwheel channel=2 pitch=-130 time=31
pitchwheel channel=2 pitch=-1 time=15
pitchwheel channel=2 pitch=0 time=31
note_off channel=2 note=68 velocity=64 time=108
note_on channel=2 note=65 velocity=75 time=12
note_off channel=2 note=65 velocity=64 time=320
note_on channel=2 note=63 velocity=81 time=0
control_change channel=2 control=11 value=127 time=160
control_change channel=2 control=11 value=124 time=120
control_change channel=2 control=11 value=121 time=96
control_change channel=2 control=11 value=119 time=120
control_change channel=2 control=11 value=116 time=96
control_change channel=2 control=11 value=114 time=120
control_change channel=2 control=11 value=111 time=72
control_change channel=2 control=11 value=109 time=120
control_change channel=2 control=11 value=106 time=96
note_off channel=2 note=63 velocity=64 time=72
control_change channel=2 control=11 value=104 time=24
control_change channel=2 control=11 value=127 time=24
control_change channel=2 control=93 value=30 time=0
note_on channel=2 note=64 velocity=69 time=0
note_off channel=2 note=64 velocity=64 time=156
note_on channel=2 note=64 velocity=69 time=324
note_off channel=2 note=64 velocity=64 time=308
note_on channel=2 note=62 velocity=69 time=12
note_off channel=2 note=62 velocity=64 time=148
note_on channel=2 note=64 velocity=62 time=12
note_off channel=2 note=64 velocity=64 time=68
note_on channel=2 note=64 velocity=69 time=12
note_off channel=2 note=64 velocity=64 time=80
note_on channel=2 note=63 velocity=69 time=320
note_off channel=2 note=63 velocity=64 time=320
control_change channel=2 control=11 value=104 time=0
note_on channel=2 note=62 velocity=75 time=0
control_change channel=2 control=11 value=105 time=100
control_change channel=2 control=11 value=108 time=80
control_change channel=2 control=11 value=109 time=100
control_change channel=2 control=11 value=111 time=100
control_change channel=2 control=11 value=114 time=90
control_change channel=2 control=11 value=115 time=100
control_change channel=2 control=11 value=118 time=70
control_change channel=2 control=11 value=119 time=100
control_change channel=2 control=11 value=121 time=100
control_change channel=2 control=11 value=124 time=90
control_change channel=2 control=11 value=125 time=100
control_change channel=2 control=11 value=127 time=10
note_off channel=2 note=62 velocity=64 time=92
note_on channel=2 note=68 velocity=76 time=308
note_on channel=2 note=67 velocity=40 time=112
note_on channel=2 note=66 velocity=28 time=40
note_off channel=2 note=68 velocity=64 time=4
note_off channel=2 note=67 velocity=64 time=8
note_on channel=2 note=65 velocity=17 time=28
note_off channel=2 note=66 velocity=64 time=12
note_off channel=2 note=65 velocity=64 time=40
note_on channel=2 note=67 velocity=75 time=236
note_off channel=2 note=67 velocity=64 time=604
note_on channel=2 note=67 velocity=69 time=36
note_off channel=2 note=67 velocity=64 time=308
note_on channel=2 note=67 velocity=57 time=12
note_off channel=2 note=67 velocity=64 time=148
note_on channel=2 note=67 velocity=69 time=12
note_off channel=2 note=67 velocity=64 time=296
note_on channel=2 note=65 velocity=69 time=24
note_off channel=2 note=65 velocity=64 time=168
note_on channel=2 note=64 velocity=69 time=312
control_change channel=2 control=11 value=127 time=160
control_change channel=2 control=11 value=124 time=96
control_change channel=2 control=11 value=121 time=72
control_change channel=2 control=11 value=118 time=120
control_change channel=2 control=11 value=115 time=72
control_change channel=2 control=11 value=111 time=120
control_change channel=2 control=11 value=108 time=120
control_change channel=2 control=11 value=105 time=72
control_change channel=2 control=11 value=101 time=120
note_off channel=2 note=64 velocity=64 time=108
control_change channel=2 control=11 value=98 time=12
control_change channel=2 control=11 value=96 time=24
control_change channel=2 control=11 value=127 time=24
control_change channel=2 control=93 value=60 time=0
note_on channel=2 note=64 velocity=81 time=320
note_off channel=2 note=64 velocity=64 time=148
note_on channel=2 note=62 velocity=69 time=12
note_off channel=2 note=62 velocity=64 time=296
note_on channel=2 note=57 velocity=75 time=24
control_change channel=2 control=11 value=127 time=160
control_change channel=2 control=11 value=119 time=24
control_change channel=2 control=11 value=111 time=24
control_change channel=2 control=11 value=104 time=24
control_change channel=2 control=11 value=96 time=24
control_change channel=2 control=11 value=89 time=24
control_change channel=2 control=11 value=89 time=0
control_change channel=2 control=11 value=93 time=120
control_change channel=2 control=11 value=96 time=96
control_change channel=2 control=11 value=99 time=72
control_change channel=2 control=11 value=103 time=96
control_change channel=2 control=11 value=106 time=120
control_change channel=2 control=11 value=109 time=48
control_change channel=2 control=11 value=113 time=120
control_change channel=2 control=11 value=116 time=96
control_change channel=2 control=11 value=119 time=72
control_change channel=2 control=11 value=123 time=96
control_change channel=2 control=11 value=127 time=96
note_off channel=2 note=57 velocity=64 time=104
note_on channel=2 note=64 velocity=81 time=24
note_off channel=2 note=64 velocity=64 time=148
note_on channel=2 note=62 velocity=69 time=12
note_off channel=2 note=62 velocity=64 time=296
note_on channel=2 note=57 velocity=75 time=24
control_change channel=2 control=11 value=127 time=160
control_change channel=2 control=11 value=119 time=24
control_change channel=2 control=11 value=111 time=24
control_change channel=2 control=11 value=104 time=24
control_change channel=2 control=11 value=96 time=24
control_change channel=2 control=11 value=89 time=24
control_change channel=2 control=11 value=89 time=0
control_change channel=2 control=11 value=93 time=120
control_change channel=2 control=11 value=96 time=96
control_change channel=2 control=11 value=99 time=72
control_change channel=2 control=11 value=103 time=96
control_change channel=2 control=11 value=106 time=120
control_change channel=2 control=11 value=109 time=48
control_change channel=2 control=11 value=113 time=120
control_change channel=2 control=11 value=116 time=96
control_change channel=2 control=11 value=119 time=72
control_change channel=2 control=11 value=123 time=96
control_change channel=2 control=11 value=127 time=96
note_off channel=2 note=57 velocity=64 time=104
note_on channel=2 note=62 velocity=81 time=24
note_off channel=2 note=62 velocity=64 time=148
note_on channel=2 note=60 velocity=69 time=12
note_off channel=2 note=60 velocity=64 time=296
note_on channel=2 note=55 velocity=75 time=24
control_change channel=2 control=11 value=127 time=232
control_change channel=2 control=11 value=121 time=24
control_change channel=2 control=11 value=115 time=24
control_change channel=2 control=11 value=109 time=24
control_change channel=2 control=11 value=103 time=24
control_change channel=2 control=11 value=96 time=24
control_change channel=2 control=11 value=90 time=24
control_change channel=2 control=11 value=85 time=24
control_change channel=2 control=11 value=84 time=0
control_change channel=2 control=11 value=84 time=0
control_change channel=2 control=11 value=85 time=120
control_change channel=2 control=11 value=88 time=120
control_change channel=2 control=11 value=89 time=120
control_change channel=2 control=11 value=91 time=120
control_change channel=2 control=11 value=94 time=120
control_change channel=2 control=11 value=95 time=120
control_change channel=2 control=11 value=98 time=120
control_change channel=2 control=11 value=99 time=120
control_change channel=2 control=11 value=101 time=120
control_change channel=2 control=11 value=104 time=120
control_change channel=2 control=11 value=105 time=120
control_change channel=2 control=11 value=108 time=120
control_change channel=2 control=11 value=109 time=120
control_change channel=2 control=11 value=111 time=120
control_change channel=2 control=11 value=114 time=120
control_change channel=2 control=11 value=115 time=120
control_change channel=2 control=11 value=118 time=120
control_change channel=2 control=11 value=119 time=120
control_change channel=2 control=11 value=121 time=120
control_change channel=2 control=11 value=124 time=120
control_change channel=2 control=11 value=125 time=120
control_change channel=2 control=11 value=127 time=24
note_off channel=2 note=55 velocity=64 time=368
control_change channel=2 control=93 value=30 time=40
note_on channel=2 note=65 velocity=75 time=8
note_off channel=2 note=65 velocity=64 time=616
note_on channel=2 note=60 velocity=69 time=24
note_off channel=2 note=60 velocity=64 time=296
note_on channel=2 note=60 velocity=70 time=24
note_off channel=2 note=60 velocity=64 time=136
control_change channel=2 control=93 value=60 time=12984
note_on channel=2 note=68 velocity=88 time=960
note_off channel=2 note=68 velocity=64 time=308
note_on channel=2 note=69 velocity=88 time=12
note_off channel=2 note=69 velocity=64 time=180
note_on channel=2 note=74 velocity=88 time=300
note_off channel=2 note=74 velocity=64 time=1072
note_on channel=2 note=68 velocity=88 time=48
note_off channel=2 note=68 velocity=64 time=308
note_on channel=2 note=69 velocity=88 time=12
note_off channel=2 note=69 velocity=64 time=180
note_on channel=2 note=62 velocity=88 time=300
note_off channel=2 note=62 velocity=64 time=1072
note_on channel=2 note=68 velocity=88 time=48
note_off channel=2 note=68 velocity=64 time=180
note_on channel=2 note=69 velocity=88 time=300
note_off channel=2 note=69 velocity=64 time=180
note_on channel=2 note=74 velocity=88 time=300
note_off channel=2 note=74 velocity=64 time=912
note_on channel=2 note=68 velocity=88 time=48
note_off channel=2 note=68 velocity=64 time=308
note_on channel=2 note=69 velocity=88 time=12
note_off channel=2 note=69 velocity=64 time=180
note_on channel=2 note=62 velocity=88 time=300
note_off channel=2 note=62 velocity=64 time=1072
note_on channel=2 note=68 velocity=88 time=48
note_off channel=2 note=68 velocity=64 time=180
note_on channel=2 note=69 velocity=88 time=300
note_off channel=2 note=69 velocity=64 time=180
note_on channel=2 note=74 velocity=88 time=300
note_off channel=2 note=74 velocity=64 time=912
note_on channel=2 note=76 velocity=88 time=48
note_off channel=2 note=76 velocity=64 time=308
note_on channel=2 note=74 velocity=88 time=12
note_off channel=2 note=74 velocity=64 time=180
note_on channel=2 note=62 velocity=88 time=300
note_off channel=2 note=62 velocity=64 time=1072
note_on channel=2 note=62 velocity=88 time=48
note_off channel=2 note=62 velocity=64 time=320
note_on channel=2 note=65 velocity=81 time=0
note_off channel=2 note=65 velocity=64 time=160
note_on channel=2 note=68 velocity=88 time=0
note_off channel=2 note=68 velocity=64 time=320
note_on channel=2 note=67 velocity=88 time=0
control_change channel=2 control=11 value=127 time=160
control_change channel=2 control=11 value=125 time=120
control_change channel=2 control=11 value=124 time=120
control_change channel=2 control=11 value=123 time=120
control_change channel=2 control=11 value=121 time=120
control_change channel=2 control=11 value=120 time=120
control_change channel=2 control=11 value=119 time=120
control_change channel=2 control=11 value=118 time=120
control_change channel=2 control=11 value=115 time=120
control_change channel=2 control=11 value=114 time=120
control_change channel=2 control=11 value=113 time=120
control_change channel=2 control=11 value=111 time=120
control_change channel=2 control=11 value=110 time=120
control_change channel=2 control=11 value=109 time=120
control_change channel=2 control=11 value=108 time=120
control_change channel=2 control=11 value=105 time=120
note_off channel=2 note=67 velocity=64 time=72
control_change channel=2 control=11 value=104 time=24
control_change channel=2 control=11 value=127 time=24
control_change channel=2 control=93 value=30 time=0
note_on channel=2 note=68 velocity=81 time=480
note_off channel=2 note=68 velocity=64 time=308
note_on channel=2 note=68 velocity=81 time=12
note_off channel=2 note=68 velocity=64 time=204
note_on channel=2 note=65 velocity=69 time=276
note_off channel=2 note=65 velocity=64 time=160
note_on channel=2 note=68 velocity=81 time=0
note_off channel=2 note=68 velocity=64 time=320
note_on channel=2 note=68 velocity=75 time=0
note_off channel=2 note=68 velocity=64 time=148
note_on channel=2 note=65 velocity=81 time=12
note_off channel=2 note=65 velocity=64 time=308
note_on channel=2 note=62 velocity=81 time=12
note_off channel=2 note=62 velocity=64 time=148
note_on channel=2 note=62 velocity=81 time=1932
note_off channel=2 note=62 velocity=64 time=180
note_on channel=2 note=64 velocity=81 time=300
note_off channel=2 note=64 velocity=64 time=308
note_on channel=2 note=65 velocity=81 time=12
note_off channel=2 note=65 velocity=64 time=192
note_on channel=2 note=72 velocity=81 time=288
note_on channel=2 note=74 velocity=59 time=1440
note_off channel=2 note=72 velocity=64 time=16
note_on channel=2 note=73 velocity=70 time=64
note_off channel=2 note=74 velocity=64 time=24
note_on channel=2 note=69 velocity=81 time=56
note_off channel=2 note=73 velocity=64 time=24
note_off channel=2 note=69 velocity=64 time=296
note_on channel=2 note=64 velocity=81 time=0
pitchwheel channel=2 pitch=0 time=160
control_change channel=2 control=11 value=127 time=0
pitchwheel channel=2 pitch=242 time=12
control_change channel=2 control=11 value=124 time=72
control_change channel=2 control=11 value=121 time=72
pitchwheel channel=2 pitch=0 time=48
control_change channel=2 control=11 value=119 time=60
control_change channel=2 control=11 value=116 time=48
pitchwheel channel=2 pitch=-82 time=36
control_change channel=2 control=11 value=114 time=72
pitchwheel channel=2 pitch=-244 time=24
control_change channel=2 control=11 value=111 time=24
pitchwheel channel=2 pitch=-407 time=48
pitchwheel channel=2 pitch=-569 time=60
control_change channel=2 control=11 value=109 time=0
control_change channel=2 control=11 value=106 time=48
pitchwheel channel=2 pitch=-731 time=12
pitchwheel channel=2 pitch=-893 time=36
pitchwheel channel=2 pitch=-1055 time=48
control_change channel=2 control=11 value=104 time=12
pitchwheel channel=2 pitch=-1218 time=24
pitchwheel channel=2 pitch=-1380 time=24
control_change channel=2 control=11 value=101 time=0
pitchwheel channel=2 pitch=-1542 time=36
pitchwheel channel=2 pitch=-1704 time=24
pitchwheel channel=2 pitch=-1866 time=12
pitchwheel channel=2 pitch=-2029 time=24
pitchwheel channel=2 pitch=-2191 time=12
control_change channel=2 control=11 value=99 time=0
pitchwheel channel=2 pitch=-2353 time=12
pitchwheel channel=2 pitch=-2515 time=12
note_off channel=2 note=64 velocity=64 time=12
pitchwheel channel=2 pitch=-2840 time=0
control_change channel=2 control=11 value=96 time=12
control_change channel=2 control=11 value=127 time=24
pitchwheel channel=2 pitch=0 time=0
note_on channel=2 note=67 velocity=81 time=1280
note_off channel=2 note=67 velocity=64 time=616
note_on channel=2 note=69 velocity=81 time=24
note_off channel=2 note=69 velocity=64 time=192
note_on channel=2 note=70 velocity=81 time=288
note_off channel=2 note=70 velocity=64 time=308
note_on channel=2 note=69 velocity=81 time=12
note_off channel=2 note=69 velocity=64 time=148
note_on channel=2 note=69 velocity=81 time=332
note_off channel=2 note=69 velocity=64 time=192
note_on channel=2 note=67 velocity=75 time=288
note_off channel=2 note=67 velocity=64 time=160
note_on channel=2 note=65 velocity=81 time=0
note_off channel=2 note=65 velocity=64 time=468
note_on channel=2 note=64 velocity=81 time=12
note_off channel=2 note=64 velocity=64 time=168
note_on channel=2 note=74 velocity=88 time=792
note_off channel=2 note=74 velocity=64 time=924
note_on channel=2 note=72 velocity=81 time=36
note_off channel=2 note=72 velocity=64 time=192
control_change channel=2 control=11 value=104 time=288
note_on channel=2 note=70 velocity=88 time=0
control_change channel=2 control=11 value=106 time=108
control_change channel=2 control=11 value=109 time=108
note_off channel=2 note=70 velocity=64 time=104
note_on channel=2 note=72 velocity=88 time=0
control_change channel=2 control=11 value=111 time=4
control_change channel=2 control=11 value=114 time=108
control_change channel=2 control=11 value=116 time=108
control_change channel=2 control=11 value=119 time=108
control_change channel=2 control=11 value=121 time=108
control_change channel=2 control=11 value=124 time=108
note_off channel=2 note=72 velocity=64 time=72
control_change channel=2 control=11 value=127 time=24
control_change channel=2 control=11 value=127 time=0
note_on channel=2 note=69 velocity=88 time=0
control_change channel=2 control=11 value=124 time=84
control_change channel=2 control=11 value=121 time=84
control_change channel=2 control=11 value=119 time=108
note_off channel=2 note=69 velocity=64 time=44
note_on channel=2 note=63 velocity=88 time=0
control_change channel=2 control=11 value=116 time=4
control_change channel=2 control=11 value=114 time=108
control_change channel=2 control=11 value=111 time=48
control_change channel=2 control=11 value=109 time=108
control_change channel=2 control=11 value=106 time=60
control_change channel=2 control=11 value=104 time=108
control_change channel=2 control=11 value=101 time=48
note_off channel=2 note=63 velocity=64 time=108
control_change channel=2 control=11 value=99 time=0
control_change channel=2 control=11 value=127 time=48
control_change channel=2 control=11 value=96 time=0
control_change channel=2 control=93 value=60 time=0
control_change channel=2 control=11 value=127 time=12
note_on channel=2 note=62 velocity=62 time=308
note_off channel=2 note=62 velocity=64 time=148
note_on channel=2 note=68 velocity=75 time=12
note_off channel=2 note=68 velocity=64 time=156
note_on channel=2 note=69 velocity=69 time=324
note_off channel=2 note=69 velocity=64 time=308
note_on channel=2 note=62 velocity=69 time=12
note_off channel=2 note=62 velocity=64 time=112
note_on channel=2 note=68 velocity=76 time=368
note_off channel=2 note=68 velocity=64 time=468
note_on channel=2 note=69 velocity=69 time=12
note_off channel=2 note=69 velocity=64 time=160
note_on channel=2 note=68 velocity=56 time=0
note_on channel=2 note=69 velocity=44 time=160
note_off channel=2 note=68 velocity=64 time=24
note_on channel=2 note=68 velocity=62 time=136
note_off channel=2 note=69 velocity=64 time=24
note_on channel=2 note=69 velocity=69 time=136
note_off channel=2 note=68 velocity=64 time=24
note_off channel=2 note=69 velocity=64 time=284
note_on channel=2 note=62 velocity=69 time=12
note_off channel=2 note=62 velocity=64 time=148
note_on channel=2 note=62 velocity=62 time=812
note_off channel=2 note=62 velocity=64 time=148
note_on channel=2 note=68 velocity=75 time=12
note_off channel=2 note=68 velocity=64 time=156
note_on channel=2 note=69 velocity=69 time=324
note_off channel=2 note=69 velocity=64 time=308
note_on channel=2 note=62 velocity=69 time=12
note_off channel=2 note=62 velocity=64 time=112
note_on channel=2 note=68 velocity=76 time=368
note_off channel=2 note=68 velocity=64 time=468
note_on channel=2 note=69 velocity=69 time=12
note_off channel=2 note=69 velocity=64 time=160
note_on channel=2 note=68 velocity=56 time=0
note_on channel=2 note=69 velocity=44 time=160
note_off channel=2 note=68 velocity=64 time=24
note_on channel=2 note=68 velocity=62 time=136
note_off channel=2 note=69 velocity=64 time=24
note_on channel=2 note=69 velocity=69 time=136
note_off channel=2 note=68 velocity=64 time=24
note_off channel=2 note=69 velocity=64 time=284
note_on channel=2 note=62 velocity=69 time=12
note_off channel=2 note=62 velocity=64 time=148
note_on channel=2 note=62 velocity=62 time=812
note_off channel=2 note=62 velocity=64 time=148
note_on channel=2 note=68 velocity=75 time=12
note_off channel=2 note=68 velocity=64 time=156
note_on channel=2 note=69 velocity=69 time=324
note_off channel=2 note=69 velocity=64 time=308
note_on channel=2 note=62 velocity=69 time=12
note_off channel=2 note=62 velocity=64 time=112
note_on channel=2 note=68 velocity=75 time=368
note_off channel=2 note=68 velocity=64 time=468
note_on channel=2 note=69 velocity=69 time=12
note_off channel=2 note=69 velocity=64 time=160
note_on channel=2 note=68 velocity=56 time=0
note_on channel=2 note=69 velocity=44 time=160
note_off channel=2 note=68 velocity=64 time=24
note_on channel=2 note=68 velocity=62 time=136
note_off channel=2 note=69 velocity=64 time=24
note_on channel=2 note=69 velocity=69 time=136
note_off channel=2 note=68 velocity=64 time=24
note_off channel=2 note=69 velocity=64 time=284
note_on channel=2 note=60 velocity=56 time=12
note_off channel=2 note=60 velocity=64 time=160
note_on channel=2 note=62 velocity=65 time=0
note_off channel=2 note=62 velocity=64 time=320
note_on channel=2 note=67 velocity=69 time=0
control_change channel=2 control=11 value=127 time=232
control_change channel=2 control=11 value=121 time=24
control_change channel=2 control=11 value=115 time=24
control_change channel=2 control=11 value=109 time=24
control_change channel=2 control=11 value=103 time=24
control_change channel=2 control=11 value=96 time=24
control_change channel=2 control=11 value=90 time=24
control_change channel=2 control=11 value=84 time=24
control_change channel=2 control=11 value=84 time=0
control_change channel=2 control=11 value=84 time=0
control_change channel=2 control=11 value=84 time=0
control_change channel=2 control=11 value=85 time=120
control_change channel=2 control=11 value=88 time=120
control_change channel=2 control=11 value=89 time=120
control_change channel=2 control=11 value=91 time=120
control_change channel=2 control=11 value=93 time=120
control_change channel=2 control=11 value=95 time=120
control_change channel=2 control=11 value=96 time=120
control_change channel=2 control=11 value=99 time=96
control_change channel=2 control=11 value=100 time=120
control_change channel=2 control=11 value=103 time=120
control_change channel=2 control=11 value=104 time=120
control_change channel=2 control=11 value=106 time=120
control_change channel=2 control=11 value=108 time=120
control_change channel=2 control=11 value=110 time=120
control_change channel=2 control=11 value=111 time=120
control_change channel=2 control=11 value=114 time=96
control_change channel=2 control=11 value=115 time=120
control_change channel=2 control=11 value=118 time=120
control_change channel=2 control=11 value=119 time=120
control_change channel=2 control=11 value=121 time=120
control_change channel=2 control=11 value=123 time=120
control_change channel=2 control=11 value=125 time=120
control_change channel=2 control=11 value=127 time=48
note_on channel=2 note=66 velocity=21 time=320
note_off channel=2 note=67 velocity=64 time=40
note_on channel=2 note=65 velocity=31 time=0
note_on channel=2 note=64 velocity=44 time=40
note_off channel=2 note=66 velocity=64 time=8
note_on channel=2 note=63 velocity=54 time=32
note_off channel=2 note=65 velocity=64 time=8
note_on channel=2 note=62 velocity=75 time=32
note_off channel=2 note=64 velocity=64 time=8
note_off channel=2 note=63 velocity=64 time=40
note_off channel=2 note=62 velocity=64 time=272
control_change channel=2 control=11 value=104 time=0
note_on channel=2 note=65 velocity=81 time=0
control_change channel=2 control=11 value=105 time=120
control_change channel=2 control=11 value=106 time=110
control_change channel=2 control=11 value=108 time=110
control_change channel=2 control=11 value=109 time=110
control_change channel=2 control=11 value=110 time=110
control_change channel=2 control=11 value=111 time=110
control_change channel=2 control=11 value=113 time=110
control_change channel=2 control=11 value=114 time=110
control_change channel=2 control=11 value=115 time=110
control_change channel=2 control=11 value=116 time=120
control_change channel=2 control=11 value=118 time=110
control_change channel=2 control=11 value=119 time=110
control_change channel=2 control=11 value=120 time=110
control_change channel=2 control=11 value=121 time=110
control_change channel=2 control=11 value=123 time=110
control_change channel=2 control=11 value=124 time=110
control_change channel=2 control=11 value=125 time=110
control_change channel=2 control=11 value=127 time=110
note_off channel=2 note=65 velocity=64 time=32
control_change channel=2 control=93 value=30 time=48
note_on channel=2 note=68 velocity=81 time=0
note_off channel=2 note=68 velocity=64 time=456
note_on channel=2 note=70 velocity=81 time=24
note_off channel=2 note=70 velocity=64 time=308
note_on channel=2 note=72 velocity=81 time=12
note_off channel=2 note=72 velocity=64 time=148
note_on channel=2 note=60 velocity=81 time=812
note_off channel=2 note=60 velocity=64 time=616
note_on channel=2 note=62 velocity=81 time=24
note_off channel=2 note=62 velocity=64 time=308
note_on channel=2 note=60 velocity=69 time=12
note_off channel=2 note=60 velocity=64 time=148
note_on channel=2 note=65 velocity=81 time=12
note_off channel=2 note=65 velocity=64 time=296
note_on channel=2 note=67 velocity=81 time=24
note_off channel=2 note=67 velocity=64 time=180
note_on channel=2 note=69 velocity=81 time=300
note_off channel=2 note=69 velocity=64 time=616
note_on channel=2 note=72 velocity=81 time=24
note_off channel=2 note=72 velocity=64 time=308
note_on channel=2 note=70 velocity=81 time=12
note_off channel=2 note=70 velocity=64 time=136
note_on channel=2 note=68 velocity=81 time=1304
note_off channel=2 note=68 velocity=64 time=580
note_on channel=2 note=69 velocity=81 time=60
note_off channel=2 note=69 velocity=64 time=168
note_on channel=2 note=62 velocity=81 time=312
note_off channel=2 note=62 velocity=64 time=168
note_on channel=2 note=68 velocity=81 time=312
note_off channel=2 note=68 velocity=64 time=794
note_on channel=2 note=69 velocity=81 time=6
note_off channel=2 note=69 velocity=64 time=1072
note_on channel=2 note=68 velocity=81 time=368
note_off channel=2 note=68 velocity=64 time=592
note_on channel=2 note=69 velocity=81 time=48
note_off channel=2 note=69 velocity=64 time=180
note_on channel=2 note=62 velocity=81 time=300
note_off channel=2 note=62 velocity=64 time=180
note_on channel=2 note=68 velocity=81 time=300
note_off channel=2 note=68 velocity=64 time=794
note_on channel=2 note=69 velocity=81 time=6
note_off channel=2 note=69 velocity=64 time=1072
<meta message end_of_track time=0>
<meta message text text='Alto Sax 2' time=0>
control_change channel=3 control=11 value=127 time=0
control_change channel=3 control=7 value=106 time=0
control_change channel=3 control=10 value=88 time=0
control_change channel=3 control=91 value=88 time=0
control_change channel=3 control=93 value=25 time=0
control_change channel=3 control=0 value=56 time=0
control_change channel=3 control=32 value=0 time=0
program_change channel=3 program=65 time=0
note_on channel=3 note=63 velocity=62 time=9920
note_off channel=3 note=63 velocity=64 time=604
note_on channel=3 note=64 velocity=64 time=36
note_off channel=3 note=64 velocity=64 time=192
note_on channel=3 note=63 velocity=67 time=768
note_off channel=3 note=63 velocity=64 time=788
note_on channel=3 note=64 velocity=70 time=12
note_off channel=3 note=64 velocity=64 time=1120
note_on channel=3 note=63 velocity=75 time=320
note_off channel=3 note=63 velocity=64 time=592
note_on channel=3 note=64 velocity=77 time=48
note_off channel=3 note=64 velocity=64 time=180
note_on channel=3 note=57 velocity=79 time=300
note_off channel=3 note=57 velocity=64 time=180
note_on channel=3 note=63 velocity=80 time=300
note_off channel=3 note=63 velocity=64 time=788
note_on channel=3 note=64 velocity=84 time=12
note_off channel=3 note=64 velocity=64 time=604
note_on channel=3 note=58 velocity=85 time=36
note_off channel=3 note=58 velocity=64 time=284
note_on channel=3 note=62 velocity=86 time=36
note_off channel=3 note=62 velocity=64 time=136
control_change channel=3 control=0 value=56 time=34584
control_change channel=3 control=32 value=0 time=0
program_change channel=3 program=73 time=0
note_on channel=3 note=86 velocity=56 time=3200
note_off channel=3 note=86 velocity=64 time=136
note_on channel=3 note=84 velocity=50 time=24
note_off channel=3 note=84 velocity=64 time=296
note_on channel=3 note=81 velocity=45 time=24
note_off channel=3 note=81 velocity=64 time=136
note_on channel=3 note=86 velocity=56 time=3224
note_off channel=3 note=86 velocity=64 time=136
note_on channel=3 note=84 velocity=50 time=24
note_off channel=3 note=84 velocity=64 time=296
note_on channel=3 note=81 velocity=45 time=24
note_off channel=3 note=81 velocity=64 time=136
control_change channel=3 control=0 value=56 time=24
control_change channel=3 control=32 value=0 time=0
program_change channel=3 program=65 time=0
note_on channel=3 note=55 velocity=62 time=10880
note_off channel=3 note=55 velocity=64 time=160
note_on channel=3 note=58 velocity=75 time=0
note_off channel=3 note=58 velocity=64 time=314
note_on channel=3 note=58 velocity=69 time=6
note_off channel=3 note=58 velocity=64 time=142
note_on channel=3 note=57 velocity=75 time=6
note_off channel=3 note=57 velocity=64 time=132
control_change channel=3 control=11 value=127 time=11400
note_on channel=3 note=59 velocity=62 time=0
note_off channel=3 note=59 velocity=64 time=156
note_on channel=3 note=59 velocity=62 time=324
note_off channel=3 note=59 velocity=64 time=308
note_on channel=3 note=59 velocity=62 time=12
note_off channel=3 note=59 velocity=64 time=148
note_on channel=3 note=59 velocity=56 time=12
note_off channel=3 note=59 velocity=64 time=68
note_on channel=3 note=59 velocity=62 time=12
note_off channel=3 note=59 velocity=64 time=80
note_on channel=3 note=59 velocity=65 time=320
note_off channel=3 note=59 velocity=64 time=320
control_change channel=3 control=11 value=104 time=0
note_on channel=3 note=58 velocity=67 time=0
control_change channel=3 control=11 value=105 time=100
control_change channel=3 control=11 value=108 time=80
control_change channel=3 control=11 value=109 time=100
control_change channel=3 control=11 value=111 time=100
control_change channel=3 control=11 value=114 time=90
control_change channel=3 control=11 value=115 time=100
control_change channel=3 control=11 value=118 time=70
control_change channel=3 control=11 value=119 time=100
control_change channel=3 control=11 value=121 time=100
control_change channel=3 control=11 value=124 time=90
control_change channel=3 control=11 value=125 time=100
control_change channel=3 control=11 value=127 time=10
note_off channel=3 note=58 velocity=64 time=92
note_on channel=3 note=64 velocity=69 time=308
note_on channel=3 note=63 velocity=40 time=112
note_on channel=3 note=62 velocity=28 time=40
note_off channel=3 note=64 velocity=64 time=4
note_off channel=3 note=63 velocity=64 time=8
note_on channel=3 note=61 velocity=17 time=28
note_off channel=3 note=62 velocity=64 time=12
note_off channel=3 note=61 velocity=64 time=40
note_on channel=3 note=62 velocity=70 time=236
note_off channel=3 note=62 velocity=64 time=604
note_on channel=3 note=62 velocity=62 time=36
note_off channel=3 note=62 velocity=64 time=308
note_on channel=3 note=60 velocity=50 time=12
note_off channel=3 note=60 velocity=64 time=148
note_on channel=3 note=62 velocity=62 time=12
note_off channel=3 note=62 velocity=64 time=296
note_on channel=3 note=61 velocity=62 time=24
note_off channel=3 note=61 velocity=64 time=168
note_on channel=3 note=60 velocity=62 time=312
control_change channel=3 control=11 value=127 time=160
control_change channel=3 control=11 value=124 time=96
control_change channel=3 control=11 value=121 time=72
control_change channel=3 control=11 value=118 time=120
control_change channel=3 control=11 value=115 time=72
control_change channel=3 control=11 value=111 time=120
control_change channel=3 control=11 value=108 time=120
control_change channel=3 control=11 value=105 time=72
control_change channel=3 control=11 value=101 time=120
note_off channel=3 note=60 velocity=64 time=108
control_change channel=3 control=11 value=98 time=12
control_change channel=3 control=11 value=96 time=24
control_change channel=3 control=11 value=127 time=24
note_on channel=3 note=63 velocity=69 time=8000
note_off channel=3 note=63 velocity=64 time=616
note_on channel=3 note=55 velocity=62 time=24
note_off channel=3 note=55 velocity=64 time=296
note_on channel=3 note=55 velocity=62 time=24
note_off channel=3 note=55 velocity=64 time=136
note_on channel=3 note=65 velocity=75 time=28824
note_off channel=3 note=65 velocity=64 time=308
note_on channel=3 note=65 velocity=75 time=12
note_off channel=3 note=65 velocity=64 time=204
note_on channel=3 note=63 velocity=62 time=276
note_off channel=3 note=63 velocity=64 time=160
note_on channel=3 note=65 velocity=75 time=0
note_off channel=3 note=65 velocity=64 time=320
note_on channel=3 note=65 velocity=69 time=0
note_off channel=3 note=65 velocity=64 time=148
note_on channel=3 note=62 velocity=75 time=12
note_off channel=3 note=62 velocity=64 time=308
note_on channel=3 note=58 velocity=75 time=12
note_off channel=3 note=58 velocity=64 time=148
note_on channel=3 note=59 velocity=75 time=1932
note_off channel=3 note=59 velocity=64 time=180
note_on channel=3 note=62 velocity=75 time=300
note_off channel=3 note=62 velocity=64 time=308
note_on channel=3 note=62 velocity=75 time=12
note_off channel=3 note=62 velocity=64 time=192
note_on channel=3 note=64 velocity=75 time=288
note_on channel=3 note=66 velocity=54 time=1440
note_off channel=3 note=64 velocity=64 time=16
note_on channel=3 note=65 velocity=62 time=64
note_off channel=3 note=66 velocity=64 time=24
note_on channel=3 note=64 velocity=74 time=56
note_off channel=3 note=65 velocity=64 time=24
note_off channel=3 note=64 velocity=64 time=284
note_on channel=3 note=60 velocity=75 time=12
pitchwheel channel=3 pitch=0 time=160
control_change channel=3 control=11 value=127 time=0
pitchwheel channel=3 pitch=242 time=12
control_change channel=3 control=11 value=124 time=72
control_change channel=3 control=11 value=121 time=72
pitchwheel channel=3 pitch=0 time=48
control_change channel=3 control=11 value=119 time=60
control_change channel=3 control=11 value=116 time=48
pitchwheel channel=3 pitch=-82 time=36
control_change channel=3 control=11 value=114 time=72
pitchwheel channel=3 pitch=-244 time=24
control_change channel=3 control=11 value=111 time=24
pitchwheel channel=3 pitch=-407 time=48
pitchwheel channel=3 pitch=-569 time=60
control_change channel=3 control=11 value=109 time=0
control_change channel=3 control=11 value=106 time=48
pitchwheel channel=3 pitch=-731 time=12
pitchwheel channel=3 pitch=-893 time=36
pitchwheel channel=3 pitch=-1055 time=48
control_change channel=3 control=11 value=104 time=12
pitchwheel channel=3 pitch=-1218 time=24
pitchwheel channel=3 pitch=-1380 time=24
control_change channel=3 control=11 value=101 time=0
pitchwheel channel=3 pitch=-1542 time=36
pitchwheel channel=3 pitch=-1704 time=24
pitchwheel channel=3 pitch=-1866 time=12
pitchwheel channel=3 pitch=-2029 time=24
pitchwheel channel=3 pitch=-2191 time=12
control_change channel=3 control=11 value=99 time=0
pitchwheel channel=3 pitch=-2353 time=12
note_off channel=3 note=60 velocity=64 time=12
pitchwheel channel=3 pitch=-2515 time=0
pitchwheel channel=3 pitch=-2840 time=12
control_change channel=3 control=11 value=96 time=12
control_change channel=3 control=11 value=127 time=24
pitchwheel channel=3 pitch=0 time=0
note_on channel=3 note=62 velocity=75 time=1280
note_off channel=3 note=62 velocity=64 time=616
note_on channel=3 note=66 velocity=75 time=24
note_off channel=3 note=66 velocity=64 time=192
note_on channel=3 note=66 velocity=75 time=288
note_off channel=3 note=66 velocity=64 time=308
note_on channel=3 note=65 velocity=75 time=12
note_off channel=3 note=65 velocity=64 time=148
note_on channel=3 note=65 velocity=75 time=332
note_off channel=3 note=65 velocity=64 time=192
note_on channel=3 note=65 velocity=69 time=288
note_off channel=3 note=65 velocity=64 time=160
note_on channel=3 note=62 velocity=75 time=0
note_off channel=3 note=62 velocity=64 time=468
note_on channel=3 note=60 velocity=75 time=12
note_off channel=3 note=60 velocity=64 time=168
note_on channel=3 note=67 velocity=81 time=792
note_off channel=3 note=67 velocity=64 time=924
note_on channel=3 note=67 velocity=75 time=36
note_off channel=3 note=67 velocity=64 time=192
control_change channel=3 control=11 value=104 time=288
note_on channel=3 note=65 velocity=81 time=0
control_change channel=3 control=11 value=106 time=108
control_change channel=3 control=11 value=109 time=108
note_off channel=3 note=65 velocity=64 time=104
note_on channel=3 note=65 velocity=81 time=0
control_change channel=3 control=11 value=111 time=4
control_change channel=3 control=11 value=114 time=108
control_change channel=3 control=11 value=116 time=108
control_change channel=3 control=11 value=119 time=108
control_change channel=3 control=11 value=121 time=108
control_change channel=3 control=11 value=124 time=108
note_off channel=3 note=65 velocity=64 time=72
control_change channel=3 control=11 value=127 time=24
control_change channel=3 control=11 value=127 time=0
note_on channel=3 note=64 velocity=81 time=0
control_change channel=3 control=11 value=124 time=84
control_change channel=3 control=11 value=121 time=84
control_change channel=3 control=11 value=119 time=108
note_off channel=3 note=64 velocity=64 time=44
note_on channel=3 note=60 velocity=81 time=0
control_change channel=3 control=11 value=116 time=4
control_change channel=3 control=11 value=114 time=108
control_change channel=3 control=11 value=111 time=48
control_change channel=3 control=11 value=109 time=108
control_change channel=3 control=11 value=106 time=60
control_change channel=3 control=11 value=104 time=108
control_change channel=3 control=11 value=101 time=48
note_off channel=3 note=60 velocity=64 time=108
control_change channel=3 control=11 value=127 time=48
control_change channel=3 control=0 value=56 time=1920
control_change channel=3 control=32 value=0 time=0
program_change channel=3 program=73 time=0
note_on channel=3 note=86 velocity=56 time=1280
note_off channel=3 note=86 velocity=64 time=136
note_on channel=3 note=84 velocity=50 time=24
note_off channel=3 note=84 velocity=64 time=296
note_on channel=3 note=81 velocity=45 time=24
note_off channel=3 note=81 velocity=64 time=136
note_on channel=3 note=86 velocity=56 time=3224
note_off channel=3 note=86 velocity=64 time=136
note_on channel=3 note=84 velocity=50 time=24
note_off channel=3 note=84 velocity=64 time=296
note_on channel=3 note=81 velocity=45 time=24
note_off channel=3 note=81 velocity=64 time=136
control_change channel=3 control=0 value=56 time=24
control_change channel=3 control=32 value=0 time=0
program_change channel=3 program=65 time=0
control_change channel=3 control=93 value=30 time=9600
note_on channel=3 note=65 velocity=75 time=0
note_off channel=3 note=65 velocity=64 time=456
note_on channel=3 note=65 velocity=75 time=24
note_off channel=3 note=65 velocity=64 time=308
note_on channel=3 note=65 velocity=75 time=12
note_off channel=3 note=65 velocity=64 time=148
note_on channel=3 note=57 velocity=75 time=812
note_off channel=3 note=57 velocity=64 time=616
note_on channel=3 note=60 velocity=75 time=24
note_off channel=3 note=60 velocity=64 time=308
note_on channel=3 note=57 velocity=62 time=12
note_off channel=3 note=57 velocity=64 time=148
note_on channel=3 note=62 velocity=75 time=12
note_off channel=3 note=62 velocity=64 time=296
note_on channel=3 note=64 velocity=75 time=24
note_off channel=3 note=64 velocity=64 time=180
note_on channel=3 note=63 velocity=75 time=300
note_off channel=3 note=63 velocity=64 time=616
note_on channel=3 note=63 velocity=75 time=24
note_off channel=3 note=63 velocity=64 time=308
note_on channel=3 note=63 velocity=75 time=12
note_off channel=3 note=63 velocity=64 time=136
note_on channel=3 note=63 velocity=75 time=1304
note_off channel=3 note=63 velocity=64 time=580
note_on channel=3 note=64 velocity=75 time=60
note_off channel=3 note=64 velocity=64 time=168
note_on channel=3 note=57 velocity=75 time=312
note_off channel=3 note=57 velocity=64 time=168
note_on channel=3 note=63 velocity=75 time=312
note_off channel=3 note=63 velocity=64 time=794
note_on channel=3 note=64 velocity=75 time=6
note_off channel=3 note=64 velocity=64 time=1072
note_on channel=3 note=63 velocity=75 time=368
note_off channel=3 note=63 velocity=64 time=592
note_on channel=3 note=64 velocity=75 time=48
note_off channel=3 note=64 velocity=64 time=180
note_on channel=3 note=57 velocity=75 time=300
note_off channel=3 note=57 velocity=64 time=180
note_on channel=3 note=63 velocity=75 time=300
note_off channel=3 note=63 velocity=64 time=794
note_on channel=3 note=64 velocity=75 time=6
note_off channel=3 note=64 velocity=64 time=1072
<meta message end_of_track time=0>
<meta message text text='Tenor Sax 1' time=0>
control_change channel=4 control=11 value=127 time=0
control_change channel=4 control=7 value=106 time=0
control_change channel=4 control=10 value=62 time=0
control_change channel=4 control=91 value=88 time=0
control_change channel=4 control=93 value=28 time=0
control_change channel=4 control=0 value=56 time=0
control_change channel=4 control=32 value=0 time=0
program_change channel=4 program=66 time=0
control_change channel=4 control=11 value=109 time=9920
note_on channel=4 note=57 velocity=62 time=0
control_change channel=4 control=11 value=110 time=250
control_change channel=4 control=11 value=111 time=250
control_change channel=4 control=11 value=113 time=250
control_change channel=4 control=11 value=114 time=250
control_change channel=4 control=11 value=115 time=240
control_change channel=4 control=11 value=116 time=250
note_off channel=4 note=57 velocity=64 time=86
note_on channel=4 note=54 velocity=67 time=24
control_change channel=4 control=11 value=118 time=140
control_change channel=4 control=11 value=119 time=250
control_change channel=4 control=11 value=120 time=250
control_change channel=4 control=11 value=121 time=240
control_change channel=4 control=11 value=123 time=250
control_change channel=4 control=11 value=124 time=250
control_change channel=4 control=11 value=125 time=250
control_change channel=4 control=11 value=127 time=240
note_off channel=4 note=54 velocity=64 time=26
note_on channel=4 note=53 velocity=75 time=344
note_off channel=4 note=53 velocity=64 time=592
note_on channel=4 note=53 velocity=77 time=48
note_off channel=4 note=53 velocity=64 time=180
note_on channel=4 note=55 velocity=79 time=300
note_off channel=4 note=55 velocity=64 time=180
note_on channel=4 note=52 velocity=80 time=300
note_off channel=4 note=52 velocity=64 time=788
note_on channel=4 note=52 velocity=84 time=12
note_off channel=4 note=52 velocity=64 time=604
note_on channel=4 note=52 velocity=85 time=36
note_off channel=4 note=52 velocity=64 time=284
note_on channel=4 note=48 velocity=86 time=36
note_off channel=4 note=48 velocity=64 time=136
control_change channel=4 control=93 value=60 time=34584
note_on channel=4 note=62 velocity=62 time=320
note_off channel=4 note=62 velocity=64 time=148
note_on channel=4 note=68 velocity=75 time=12
note_off channel=4 note=68 velocity=64 time=156
note_on channel=4 note=69 velocity=69 time=324
note_off channel=4 note=69 velocity=64 time=308
note_on channel=4 note=62 velocity=69 time=12
note_off channel=4 note=62 velocity=64 time=112
note_on channel=4 note=68 velocity=76 time=368
note_off channel=4 note=68 velocity=64 time=468
note_on channel=4 note=69 velocity=69 time=12
note_off channel=4 note=69 velocity=64 time=160
note_on channel=4 note=68 velocity=56 time=0
note_on channel=4 note=69 velocity=44 time=160
note_off channel=4 note=68 velocity=64 time=24
note_on channel=4 note=68 velocity=62 time=136
note_off channel=4 note=69 velocity=64 time=24
note_on channel=4 note=69 velocity=69 time=136
note_off channel=4 note=68 velocity=64 time=24
note_off channel=4 note=69 velocity=64 time=284
note_on channel=4 note=62 velocity=69 time=12
note_off channel=4 note=62 velocity=64 time=148
note_on channel=4 note=62 velocity=62 time=812
note_off channel=4 note=62 velocity=64 time=148
note_on channel=4 note=68 velocity=75 time=12
note_off channel=4 note=68 velocity=64 time=156
note_on channel=4 note=69 velocity=69 time=324
note_off channel=4 note=69 velocity=64 time=308
note_on channel=4 note=62 velocity=69 time=12
note_off channel=4 note=62 velocity=64 time=112
note_on channel=4 note=68 velocity=76 time=368
note_off channel=4 note=68 velocity=64 time=468
note_on channel=4 note=69 velocity=69 time=12
note_off channel=4 note=69 velocity=64 time=160
note_on channel=4 note=68 velocity=56 time=0
note_on channel=4 note=69 velocity=44 time=160
note_off channel=4 note=68 velocity=64 time=24
note_on channel=4 note=68 velocity=62 time=136
note_off channel=4 note=69 velocity=64 time=24
note_on channel=4 note=69 velocity=69 time=136
note_off channel=4 note=68 velocity=64 time=24
note_off channel=4 note=69 velocity=64 time=284
note_on channel=4 note=62 velocity=69 time=12
note_off channel=4 note=62 velocity=64 time=148
note_on channel=4 note=62 velocity=62 time=812
note_off channel=4 note=62 velocity=64 time=148
note_on channel=4 note=68 velocity=75 time=12
note_off channel=4 note=68 velocity=64 time=156
note_on channel=4 note=69 velocity=69 time=324
note_off channel=4 note=69 velocity=64 time=308
note_on channel=4 note=62 velocity=69 time=12
note_off channel=4 note=62 velocity=64 time=112
note_on channel=4 note=68 velocity=75 time=368
note_off channel=4 note=68 velocity=64 time=468
note_on channel=4 note=69 velocity=69 time=12
note_off channel=4 note=69 velocity=64 time=160
note_on channel=4 note=68 velocity=56 time=0
note_on channel=4 note=69 velocity=44 time=160
note_off channel=4 note=68 velocity=64 time=24
note_on channel=4 note=68 velocity=62 time=136
note_off channel=4 note=69 velocity=64 time=24
note_on channel=4 note=69 velocity=69 time=136
note_off channel=4 note=68 velocity=64 time=24
note_off channel=4 note=69 velocity=64 time=284
note_on channel=4 note=60 velocity=56 time=12
note_off channel=4 note=60 velocity=64 time=160
note_on channel=4 note=62 velocity=65 time=0
note_off channel=4 note=62 velocity=64 time=320
note_on channel=4 note=63 velocity=69 time=0
control_change channel=4 control=11 value=127 time=232
control_change channel=4 control=11 value=121 time=24
control_change channel=4 control=11 value=115 time=24
control_change channel=4 control=11 value=109 time=24
control_change channel=4 control=11 value=103 time=24
control_change channel=4 control=11 value=96 time=24
control_change channel=4 control=11 value=90 time=24
control_change channel=4 control=11 value=84 time=24
control_change channel=4 control=11 value=84 time=0
control_change channel=4 control=11 value=85 time=120
control_change channel=4 control=11 value=86 time=120
control_change channel=4 control=11 value=88 time=120
control_change channel=4 control=11 value=89 time=120
control_change channel=4 control=11 value=91 time=120
control_change channel=4 control=11 value=93 time=120
control_change channel=4 control=11 value=94 time=120
control_change channel=4 control=11 value=95 time=120
control_change channel=4 control=11 value=96 time=120
control_change channel=4 control=11 value=99 time=120
control_change channel=4 control=11 value=100 time=120
control_change channel=4 control=11 value=101 time=120
control_change channel=4 control=11 value=103 time=120
control_change channel=4 control=11 value=105 time=120
control_change channel=4 control=11 value=104 time=288
control_change channel=4 control=11 value=103 time=264
control_change channel=4 control=11 value=101 time=264
control_change channel=4 control=11 value=100 time=288
control_change channel=4 control=11 value=99 time=264
control_change channel=4 control=11 value=98 time=264
note_off channel=4 note=63 velocity=64 time=216
control_change channel=4 control=11 value=96 time=48
control_change channel=4 control=11 value=127 time=24
control_change channel=4 control=93 value=30 time=0
note_on channel=4 note=53 velocity=62 time=3200
note_off channel=4 note=53 velocity=64 time=160
note_on channel=4 note=55 velocity=75 time=0
note_off channel=4 note=55 velocity=64 time=314
note_on channel=4 note=55 velocity=69 time=6
note_off channel=4 note=55 velocity=64 time=142
note_on channel=4 note=53 velocity=75 time=6
note_off channel=4 note=53 velocity=64 time=132
control_change channel=4 control=93 value=60 time=3720
note_on channel=4 note=62 velocity=62 time=320
note_off channel=4 note=62 velocity=64 time=136
note_on channel=4 note=68 velocity=75 time=24
note_off channel=4 note=68 velocity=64 time=156
note_on channel=4 note=69 velocity=69 time=324
note_off channel=4 note=69 velocity=64 time=308
note_on channel=4 note=62 velocity=69 time=12
note_off channel=4 note=62 velocity=64 time=136
note_on channel=4 note=63 velocity=75 time=344
control_change channel=4 control=11 value=127 time=160
control_change channel=4 control=11 value=123 time=12
control_change channel=4 control=11 value=119 time=12
control_change channel=4 control=11 value=114 time=12
control_change channel=4 control=11 value=110 time=12
control_change channel=4 control=11 value=105 time=12
control_change channel=4 control=11 value=101 time=12
control_change channel=4 control=11 value=98 time=12
control_change channel=4 control=11 value=93 time=12
control_change channel=4 control=11 value=89 time=12
control_change channel=4 control=11 value=84 time=12
control_change channel=4 control=11 value=84 time=0
control_change channel=4 control=11 value=88 time=96
control_change channel=4 control=11 value=91 time=84
control_change channel=4 control=11 value=94 time=60
control_change channel=4 control=11 value=98 time=96
control_change channel=4 control=11 value=101 time=84
control_change channel=4 control=11 value=104 time=60
control_change channel=4 control=11 value=108 time=84
control_change channel=4 control=11 value=111 time=96
control_change channel=4 control=11 value=114 time=60
control_change channel=4 control=11 value=118 time=84
control_change channel=4 control=11 value=121 time=96
control_change channel=4 control=11 value=124 time=60
control_change channel=4 control=11 value=127 time=48
note_off channel=4 note=63 velocity=64 time=116
note_on channel=4 note=60 velocity=56 time=36
note_off channel=4 note=60 velocity=64 time=160
note_on channel=4 note=64 velocity=65 time=0
note_off channel=4 note=64 velocity=64 time=308
note_on channel=4 note=65 velocity=69 time=12
note_off channel=4 note=65 velocity=64 time=124
note_on channel=4 note=62 velocity=44 time=916
note_on channel=4 note=61 velocity=55 time=40
note_on channel=4 note=60 velocity=69 time=40
note_off channel=4 note=62 velocity=64 time=8
note_off channel=4 note=61 velocity=64 time=28
note_off channel=4 note=60 velocity=64 time=284
note_on channel=4 note=62 velocity=62 time=0
note_off channel=4 note=62 velocity=64 time=160
note_on channel=4 note=65 velocity=71 time=0
note_off channel=4 note=65 velocity=64 time=320
note_on channel=4 note=63 velocity=74 time=0
note_off channel=4 note=63 velocity=64 time=628
note_on channel=4 note=60 velocity=70 time=12
note_off channel=4 note=60 velocity=64 time=320
note_on channel=4 note=58 velocity=75 time=0
control_change channel=4 control=11 value=127 time=160
control_change channel=4 control=11 value=124 time=120
control_change channel=4 control=11 value=121 time=96
control_change channel=4 control=11 value=119 time=120
control_change channel=4 control=11 value=116 time=96
control_change channel=4 control=11 value=114 time=120
control_change channel=4 control=11 value=111 time=72
control_change channel=4 control=11 value=109 time=120
control_change channel=4 control=11 value=106 time=96
note_off channel=4 note=58 velocity=64 time=72
control_change channel=4 control=11 value=104 time=24
control_change channel=4 control=11 value=127 time=24
control_change channel=4 control=11 value=127 time=0
control_change channel=4 control=93 value=30 time=0
note_on channel=4 note=57 velocity=62 time=0
note_off channel=4 note=57 velocity=64 time=156
note_on channel=4 note=57 velocity=62 time=324
note_off channel=4 note=57 velocity=64 time=308
note_on channel=4 note=55 velocity=62 time=12
note_off channel=4 note=55 velocity=64 time=148
note_on channel=4 note=57 velocity=56 time=12
note_off channel=4 note=57 velocity=64 time=68
note_on channel=4 note=57 velocity=62 time=12
note_off channel=4 note=57 velocity=64 time=80
note_on channel=4 note=55 velocity=65 time=320
note_off channel=4 note=55 velocity=64 time=320
control_change channel=4 control=11 value=104 time=0
note_on channel=4 note=57 velocity=67 time=0
control_change channel=4 control=11 value=105 time=100
control_change channel=4 control=11 value=108 time=80
control_change channel=4 control=11 value=109 time=100
control_change channel=4 control=11 value=111 time=100
control_change channel=4 control=11 value=114 time=90
control_change channel=4 control=11 value=115 time=100
control_change channel=4 control=11 value=118 time=70
control_change channel=4 control=11 value=119 time=100
control_change channel=4 control=11 value=121 time=100
control_change channel=4 control=11 value=124 time=90
control_change channel=4 control=11 value=125 time=100
control_change channel=4 control=11 value=127 time=10
note_off channel=4 note=57 velocity=64 time=92
note_on channel=4 note=60 velocity=69 time=308
note_on channel=4 note=59 velocity=40 time=112
note_on channel=4 note=58 velocity=28 time=40
note_off channel=4 note=60 velocity=64 time=4
note_off channel=4 note=59 velocity=64 time=8
note_on channel=4 note=57 velocity=17 time=28
note_off channel=4 note=58 velocity=64 time=12
note_off channel=4 note=57 velocity=64 time=40
note_on channel=4 note=60 velocity=70 time=236
note_off channel=4 note=60 velocity=64 time=604
note_on channel=4 note=60 velocity=62 time=36
note_off channel=4 note=60 velocity=64 time=308
note_on channel=4 note=60 velocity=50 time=12
note_off channel=4 note=60 velocity=64 time=148
note_on channel=4 note=60 velocity=62 time=12
note_off channel=4 note=60 velocity=64 time=296
note_on channel=4 note=60 velocity=62 time=24
note_off channel=4 note=60 velocity=64 time=168
note_on channel=4 note=56 velocity=62 time=312
control_change channel=4 control=11 value=127 time=160
control_change channel=4 control=11 value=124 time=96
control_change channel=4 control=11 value=121 time=72
control_change channel=4 control=11 value=118 time=120
control_change channel=4 control=11 value=115 time=72
control_change channel=4 control=11 value=111 time=120
control_change channel=4 control=11 value=108 time=120
control_change channel=4 control=11 value=105 time=72
control_change channel=4 control=11 value=101 time=120
note_off channel=4 note=56 velocity=64 time=108
control_change channel=4 control=11 value=98 time=12
control_change channel=4 control=11 value=96 time=24
control_change channel=4 control=11 value=127 time=24
control_change channel=4 control=93 value=60 time=0
note_on channel=4 note=64 velocity=75 time=320
note_off channel=4 note=64 velocity=64 time=148
note_on channel=4 note=62 velocity=62 time=12
note_off channel=4 note=62 velocity=64 time=296
note_on channel=4 note=57 velocity=69 time=24
control_change channel=4 control=11 value=127 time=160
control_change channel=4 control=11 value=119 time=24
control_change channel=4 control=11 value=111 time=24
control_change channel=4 control=11 value=104 time=24
control_change channel=4 control=11 value=96 time=24
control_change channel=4 control=11 value=89 time=24
control_change channel=4 control=11 value=89 time=0
control_change channel=4 control=11 value=93 time=120
control_change channel=4 control=11 value=96 time=96
control_change channel=4 control=11 value=99 time=72
control_change channel=4 control=11 value=103 time=96
control_change channel=4 control=11 value=106 time=120
control_change channel=4 control=11 value=109 time=48
control_change channel=4 control=11 value=113 time=120
control_change channel=4 control=11 value=116 time=96
control_change channel=4 control=11 value=119 time=72
control_change channel=4 control=11 value=123 time=96
control_change channel=4 control=11 value=127 time=96
note_off channel=4 note=57 velocity=64 time=104
note_on channel=4 note=64 velocity=75 time=24
note_off channel=4 note=64 velocity=64 time=148
note_on channel=4 note=62 velocity=62 time=12
note_off channel=4 note=62 velocity=64 time=296
note_on channel=4 note=57 velocity=69 time=24
control_change channel=4 control=11 value=127 time=160
control_change channel=4 control=11 value=119 time=24
control_change channel=4 control=11 value=111 time=24
control_change channel=4 control=11 value=104 time=24
control_change channel=4 control=11 value=96 time=24
control_change channel=4 control=11 value=89 time=24
control_change channel=4 control=11 value=89 time=0
control_change channel=4 control=11 value=93 time=120
control_change channel=4 control=11 value=96 time=96
control_change channel=4 control=11 value=99 time=72
control_change channel=4 control=11 value=103 time=96
control_change channel=4 control=11 value=106 time=120
control_change channel=4 control=11 value=109 time=48
control_change channel=4 control=11 value=113 time=120
control_change channel=4 control=11 value=116 time=96
control_change channel=4 control=11 value=119 time=72
control_change channel=4 control=11 value=123 time=96
control_change channel=4 control=11 value=127 time=96
note_off channel=4 note=57 velocity=64 time=104
note_on channel=4 note=62 velocity=75 time=24
note_off channel=4 note=62 velocity=64 time=148
note_on channel=4 note=60 velocity=62 time=12
note_off channel=4 note=60 velocity=64 time=296
note_on channel=4 note=55 velocity=69 time=24
control_change channel=4 control=11 value=127 time=232
control_change channel=4 control=11 value=121 time=24
control_change channel=4 control=11 value=115 time=24
control_change channel=4 control=11 value=109 time=24
control_change channel=4 control=11 value=103 time=24
control_change channel=4 control=11 value=96 time=24
control_change channel=4 control=11 value=90 time=24
control_change channel=4 control=11 value=84 time=24
control_change channel=4 control=11 value=84 time=0
control_change channel=4 control=11 value=85 time=0
control_change channel=4 control=11 value=85 time=120
control_change channel=4 control=11 value=88 time=120
control_change channel=4 control=11 value=89 time=120
control_change channel=4 control=11 value=91 time=120
control_change channel=4 control=11 value=94 time=120
control_change channel=4 control=11 value=95 time=120
control_change channel=4 control=11 value=98 time=120
control_change channel=4 control=11 value=99 time=120
control_change channel=4 control=11 value=101 time=120
control_change channel=4 control=11 value=104 time=120
control_change channel=4 control=11 value=105 time=120
control_change channel=4 control=11 value=108 time=120
control_change channel=4 control=11 value=109 time=120
control_change channel=4 control=11 value=111 time=120
control_change channel=4 control=11 value=114 time=120
control_change channel=4 control=11 value=115 time=120
control_change channel=4 control=11 value=118 time=120
control_change channel=4 control=11 value=119 time=120
control_change channel=4 control=11 value=121 time=120
control_change channel=4 control=11 value=124 time=120
control_change channel=4 control=11 value=125 time=120
control_change channel=4 control=11 value=127 time=24
note_off channel=4 note=55 velocity=64 time=368
control_change channel=4 control=93 value=30 time=40
note_on channel=4 note=61 velocity=69 time=8
note_off channel=4 note=61 velocity=64 time=616
note_on channel=4 note=53 velocity=62 time=24
note_off channel=4 note=53 velocity=64 time=296
note_on channel=4 note=53 velocity=62 time=24
note_off channel=4 note=53 velocity=64 time=136
control_change channel=4 control=93 value=60 time=12984
note_on channel=4 note=56 velocity=88 time=960
note_off channel=4 note=56 velocity=64 time=308
note_on channel=4 note=57 velocity=88 time=12
note_off channel=4 note=57 velocity=64 time=180
note_on channel=4 note=62 velocity=88 time=300
note_off channel=4 note=62 velocity=64 time=1072
note_on channel=4 note=56 velocity=88 time=48
note_off channel=4 note=56 velocity=64 time=308
note_on channel=4 note=57 velocity=88 time=12
note_off channel=4 note=57 velocity=64 time=180
note_on channel=4 note=50 velocity=88 time=300
note_off channel=4 note=50 velocity=64 time=1072
note_on channel=4 note=56 velocity=88 time=48
note_off channel=4 note=56 velocity=64 time=180
note_on channel=4 note=57 velocity=88 time=300
note_off channel=4 note=57 velocity=64 time=180
note_on channel=4 note=62 velocity=88 time=300
note_off channel=4 note=62 velocity=64 time=912
note_on channel=4 note=56 velocity=88 time=48
note_off channel=4 note=56 velocity=64 time=308
note_on channel=4 note=57 velocity=88 time=12
note_off channel=4 note=57 velocity=64 time=180
note_on channel=4 note=50 velocity=88 time=300
note_off channel=4 note=50 velocity=64 time=1072
note_on channel=4 note=56 velocity=88 time=48
note_off channel=4 note=56 velocity=64 time=180
note_on channel=4 note=57 velocity=88 time=300
note_off channel=4 note=57 velocity=64 time=180
note_on channel=4 note=62 velocity=88 time=300
note_off channel=4 note=62 velocity=64 time=912
note_on channel=4 note=64 velocity=88 time=48
note_off channel=4 note=64 velocity=64 time=308
note_on channel=4 note=62 velocity=88 time=12
note_off channel=4 note=62 velocity=64 time=180
note_on channel=4 note=50 velocity=88 time=300
note_off channel=4 note=50 velocity=64 time=1072
note_on channel=4 note=50 velocity=88 time=48
note_off channel=4 note=50 velocity=64 time=320
note_on channel=4 note=53 velocity=81 time=0
note_off channel=4 note=53 velocity=64 time=160
note_on channel=4 note=56 velocity=88 time=0
note_off channel=4 note=56 velocity=64 time=320
note_on channel=4 note=55 velocity=88 time=0
control_change channel=4 control=11 value=127 time=160
control_change channel=4 control=11 value=125 time=120
control_change channel=4 control=11 value=124 time=120
control_change channel=4 control=11 value=123 time=120
control_change channel=4 control=11 value=121 time=120
control_change channel=4 control=11 value=120 time=120
control_change channel=4 control=11 value=119 time=120
control_change channel=4 control=11 value=118 time=120
control_change channel=4 control=11 value=115 time=120
control_change channel=4 control=11 value=114 time=120
control_change channel=4 control=11 value=113 time=120
control_change channel=4 control=11 value=111 time=120
control_change channel=4 control=11 value=110 time=120
control_change channel=4 control=11 value=109 time=120
control_change channel=4 control=11 value=108 time=120
control_change channel=4 control=11 value=105 time=120
note_off channel=4 note=55 velocity=64 time=72
control_change channel=4 control=93 value=30 time=48
control_change channel=4 control=11 value=127 time=0
note_on channel=4 note=63 velocity=75 time=480
note_off channel=4 note=63 velocity=64 time=308
note_on channel=4 note=63 velocity=75 time=12
note_off channel=4 note=63 velocity=64 time=204
note_on channel=4 note=60 velocity=62 time=276
note_off channel=4 note=60 velocity=64 time=160
note_on channel=4 note=63 velocity=75 time=0
note_off channel=4 note=63 velocity=64 time=320
note_on channel=4 note=63 velocity=69 time=0
note_off channel=4 note=63 velocity=64 time=148
note_on channel=4 note=60 velocity=75 time=12
note_off channel=4 note=60 velocity=64 time=308
note_on channel=4 note=55 velocity=75 time=12
note_off channel=4 note=55 velocity=64 time=148
note_on channel=4 note=57 velocity=75 time=1932
note_off channel=4 note=57 velocity=64 time=180
note_on channel=4 note=58 velocity=75 time=300
note_off channel=4 note=58 velocity=64 time=308
note_on channel=4 note=58 velocity=75 time=12
note_off channel=4 note=58 velocity=64 time=192
note_on channel=4 note=60 velocity=75 time=288
note_on channel=4 note=62 velocity=54 time=1440
note_off channel=4 note=60 velocity=64 time=16
note_on channel=4 note=61 velocity=62 time=64
note_off channel=4 note=62 velocity=64 time=24
note_on channel=4 note=60 velocity=74 time=56
note_off channel=4 note=61 velocity=64 time=24
note_off channel=4 note=60 velocity=64 time=284
note_on channel=4 note=56 velocity=75 time=12
pitchwheel channel=4 pitch=0 time=160
control_change channel=4 control=11 value=127 time=0
pitchwheel channel=4 pitch=242 time=12
control_change channel=4 control=11 value=124 time=72
control_change channel=4 control=11 value=121 time=72
pitchwheel channel=4 pitch=0 time=48
control_change channel=4 control=11 value=119 time=60
control_change channel=4 control=11 value=116 time=48
pitchwheel channel=4 pitch=-82 time=36
control_change channel=4 control=11 value=114 time=72
pitchwheel channel=4 pitch=-244 time=24
control_change channel=4 control=11 value=111 time=24
pitchwheel channel=4 pitch=-407 time=48
pitchwheel channel=4 pitch=-569 time=60
control_change channel=4 control=11 value=109 time=0
control_change channel=4 control=11 value=106 time=48
pitchwheel channel=4 pitch=-731 time=12
pitchwheel channel=4 pitch=-893 time=36
pitchwheel channel=4 pitch=-1055 time=48
control_change channel=4 control=11 value=104 time=12
pitchwheel channel=4 pitch=-1218 time=24
pitchwheel channel=4 pitch=-1380 time=24
control_change channel=4 control=11 value=101 time=0
pitchwheel channel=4 pitch=-1542 time=36
pitchwheel channel=4 pitch=-1704 time=24
pitchwheel channel=4 pitch=-1866 time=12
pitchwheel channel=4 pitch=-2029 time=24
pitchwheel channel=4 pitch=-2191 time=12
control_change channel=4 control=11 value=99 time=0
pitchwheel channel=4 pitch=-2353 time=12
note_off channel=4 note=56 velocity=64 time=12
pitchwheel channel=4 pitch=-2515 time=0
pitchwheel channel=4 pitch=-2840 time=12
control_change channel=4 control=11 value=96 time=12
control_change channel=4 control=11 value=127 time=24
pitchwheel channel=4 pitch=0 time=0
note_on channel=4 note=58 velocity=75 time=1280
note_off channel=4 note=58 velocity=64 time=616
note_on channel=4 note=58 velocity=75 time=24
note_off channel=4 note=58 velocity=64 time=192
note_on channel=4 note=58 velocity=75 time=288
note_off channel=4 note=58 velocity=64 time=308
note_on channel=4 note=62 velocity=75 time=12
note_off channel=4 note=62 velocity=64 time=148
note_on channel=4 note=62 velocity=75 time=332
note_off channel=4 note=62 velocity=64 time=192
note_on channel=4 note=62 velocity=69 time=288
note_off channel=4 note=62 velocity=64 time=160
note_on channel=4 note=58 velocity=75 time=0
note_off channel=4 note=58 velocity=64 time=468
note_on channel=4 note=55 velocity=75 time=12
note_off channel=4 note=55 velocity=64 time=168
note_on channel=4 note=63 velocity=81 time=792
note_off channel=4 note=63 velocity=64 time=924
note_on channel=4 note=63 velocity=75 time=36
note_off channel=4 note=63 velocity=64 time=192
control_change channel=4 control=11 value=104 time=288
note_on channel=4 note=61 velocity=81 time=0
control_change channel=4 control=11 value=106 time=108
control_change channel=4 control=11 value=109 time=108
note_off channel=4 note=61 velocity=64 time=104
note_on channel=4 note=61 velocity=81 time=0
control_change channel=4 control=11 value=111 time=4
control_change channel=4 control=11 value=114 time=108
control_change channel=4 control=11 value=116 time=108
control_change channel=4 control=11 value=119 time=108
control_change channel=4 control=11 value=121 time=108
control_change channel=4 control=11 value=124 time=108
note_off channel=4 note=61 velocity=64 time=72
control_change channel=4 control=11 value=127 time=24
control_change channel=4 control=11 value=127 time=0
note_on channel=4 note=60 velocity=81 time=0
control_change channel=4 control=11 value=124 time=84
control_change channel=4 control=11 value=121 time=84
control_change channel=4 control=11 value=119 time=108
note_off channel=4 note=60 velocity=64 time=44
note_on channel=4 note=58 velocity=81 time=0
control_change channel=4 control=11 value=116 time=4
control_change channel=4 control=11 value=114 time=108
control_change channel=4 control=11 value=111 time=48
control_change channel=4 control=11 value=109 time=108
control_change channel=4 control=11 value=106 time=60
control_change channel=4 control=11 value=104 time=108
control_change channel=4 control=11 value=101 time=48
note_off channel=4 note=58 velocity=64 time=108
control_change channel=4 control=93 value=60 time=24
control_change channel=4 control=11 value=127 time=24
note_on channel=4 note=62 velocity=62 time=320
note_off channel=4 note=62 velocity=64 time=148
note_on channel=4 note=68 velocity=75 time=12
note_off channel=4 note=68 velocity=64 time=156
note_on channel=4 note=69 velocity=69 time=324
note_off channel=4 note=69 velocity=64 time=308
note_on channel=4 note=62 velocity=69 time=12
note_off channel=4 note=62 velocity=64 time=112
note_on channel=4 note=68 velocity=76 time=368
note_off channel=4 note=68 velocity=64 time=468
note_on channel=4 note=69 velocity=69 time=12
note_off channel=4 note=69 velocity=64 time=160
note_on channel=4 note=68 velocity=56 time=0
note_on channel=4 note=69 velocity=44 time=160
note_off channel=4 note=68 velocity=64 time=24
note_on channel=4 note=68 velocity=62 time=136
note_off channel=4 note=69 velocity=64 time=24
note_on channel=4 note=69 velocity=69 time=136
note_off channel=4 note=68 velocity=64 time=24
note_off channel=4 note=69 velocity=64 time=284
note_on channel=4 note=62 velocity=69 time=12
note_off channel=4 note=62 velocity=64 time=148
note_on channel=4 note=62 velocity=62 time=812
note_off channel=4 note=62 velocity=64 time=148
note_on channel=4 note=68 velocity=75 time=12
note_off channel=4 note=68 velocity=64 time=156
note_on channel=4 note=69 velocity=69 time=324
note_off channel=4 note=69 velocity=64 time=308
note_on channel=4 note=62 velocity=69 time=12
note_off channel=4 note=62 velocity=64 time=112
note_on channel=4 note=68 velocity=76 time=368
note_off channel=4 note=68 velocity=64 time=468
note_on channel=4 note=69 velocity=69 time=12
note_off channel=4 note=69 velocity=64 time=160
note_on channel=4 note=68 velocity=56 time=0
note_on channel=4 note=69 velocity=44 time=160
note_off channel=4 note=68 velocity=64 time=24
note_on channel=4 note=68 velocity=62 time=136
note_off channel=4 note=69 velocity=64 time=24
note_on channel=4 note=69 velocity=69 time=136
note_off channel=4 note=68 velocity=64 time=24
note_off channel=4 note=69 velocity=64 time=284
note_on channel=4 note=62 velocity=69 time=12
note_off channel=4 note=62 velocity=64 time=148
note_on channel=4 note=62 velocity=62 time=812
note_off channel=4 note=62 velocity=64 time=148
note_on channel=4 note=68 velocity=75 time=12
note_off channel=4 note=68 velocity=64 time=156
note_on channel=4 note=69 velocity=69 time=324
note_off channel=4 note=69 velocity=64 time=308
note_on channel=4 note=62 velocity=69 time=12
note_off channel=4 note=62 velocity=64 time=112
note_on channel=4 note=68 velocity=75 time=368
note_off channel=4 note=68 velocity=64 time=468
note_on channel=4 note=69 velocity=69 time=12
note_off channel=4 note=69 velocity=64 time=160
note_on channel=4 note=68 velocity=56 time=0
note_on channel=4 note=69 velocity=44 time=160
note_off channel=4 note=68 velocity=64 time=24
note_on channel=4 note=68 velocity=62 time=136
note_off channel=4 note=69 velocity=64 time=24
note_on channel=4 note=69 velocity=69 time=136
note_off channel=4 note=68 velocity=64 time=24
note_off channel=4 note=69 velocity=64 time=284
note_on channel=4 note=60 velocity=56 time=12
note_off channel=4 note=60 velocity=64 time=160
note_on channel=4 note=62 velocity=65 time=0
note_off channel=4 note=62 velocity=64 time=320
note_on channel=4 note=63 velocity=69 time=0
control_change channel=4 control=11 value=127 time=232
control_change channel=4 control=11 value=121 time=24
control_change channel=4 control=11 value=115 time=24
control_change channel=4 control=11 value=109 time=24
control_change channel=4 control=11 value=103 time=24
control_change channel=4 control=11 value=96 time=24
control_change channel=4 control=11 value=90 time=24
control_change channel=4 control=11 value=84 time=24
control_change channel=4 control=11 value=84 time=0
control_change channel=4 control=11 value=84 time=0
control_change channel=4 control=11 value=84 time=0
control_change channel=4 control=11 value=85 time=120
control_change channel=4 control=11 value=88 time=120
control_change channel=4 control=11 value=89 time=120
control_change channel=4 control=11 value=91 time=120
control_change channel=4 control=11 value=93 time=120
control_change channel=4 control=11 value=95 time=120
control_change channel=4 control=11 value=96 time=120
control_change channel=4 control=11 value=99 time=96
control_change channel=4 control=11 value=100 time=120
control_change channel=4 control=11 value=103 time=120
control_change channel=4 control=11 value=104 time=120
control_change channel=4 control=11 value=106 time=120
control_change channel=4 control=11 value=108 time=120
control_change channel=4 control=11 value=110 time=120
control_change channel=4 control=11 value=111 time=120
control_change channel=4 control=11 value=114 time=96
control_change channel=4 control=11 value=115 time=120
control_change channel=4 control=11 value=118 time=120
control_change channel=4 control=11 value=119 time=120
control_change channel=4 control=11 value=121 time=120
control_change channel=4 control=11 value=123 time=120
control_change channel=4 control=11 value=125 time=120
control_change channel=4 control=11 value=127 time=48
note_on channel=4 note=61 velocity=21 time=320
note_off channel=4 note=63 velocity=64 time=40
note_on channel=4 note=58 velocity=31 time=0
note_on channel=4 note=55 velocity=44 time=40
note_off channel=4 note=61 velocity=64 time=8
note_on channel=4 note=52 velocity=54 time=32
note_off channel=4 note=58 velocity=64 time=8
note_on channel=4 note=50 velocity=75 time=32
note_off channel=4 note=55 velocity=64 time=8
note_off channel=4 note=52 velocity=64 time=40
note_off channel=4 note=50 velocity=64 time=272
control_change channel=4 control=11 value=104 time=0
note_on channel=4 note=53 velocity=81 time=0
control_change channel=4 control=11 value=105 time=120
control_change channel=4 control=11 value=106 time=110
control_change channel=4 control=11 value=108 time=110
control_change channel=4 control=11 value=109 time=110
control_change channel=4 control=11 value=110 time=110
control_change channel=4 control=11 value=111 time=110
control_change channel=4 control=11 value=113 time=110
control_change channel=4 control=11 value=114 time=110
control_change channel=4 control=11 value=115 time=110
control_change channel=4 control=11 value=116 time=120
control_change channel=4 control=11 value=118 time=110
control_change channel=4 control=11 value=119 time=110
control_change channel=4 control=11 value=120 time=110
control_change channel=4 control=11 value=121 time=110
control_change channel=4 control=11 value=123 time=110
control_change channel=4 control=11 value=124 time=110
control_change channel=4 control=11 value=125 time=110
control_change channel=4 control=11 value=127 time=110
note_off channel=4 note=53 velocity=64 time=32
control_change channel=4 control=93 value=30 time=48
control_change channel=4 control=93 value=30 time=0
note_on channel=4 note=61 velocity=75 time=0
note_off channel=4 note=61 velocity=64 time=456
note_on channel=4 note=61 velocity=75 time=24
note_off channel=4 note=61 velocity=64 time=308
note_on channel=4 note=61 velocity=75 time=12
note_off channel=4 note=61 velocity=64 time=148
note_on channel=4 note=53 velocity=75 time=812
note_off channel=4 note=53 velocity=64 time=616
note_on channel=4 note=57 velocity=75 time=24
note_off channel=4 note=57 velocity=64 time=308
note_on channel=4 note=53 velocity=62 time=12
note_off channel=4 note=53 velocity=64 time=148
note_on channel=4 note=60 velocity=75 time=12
note_off channel=4 note=60 velocity=64 time=296
note_on channel=4 note=60 velocity=75 time=24
note_off channel=4 note=60 velocity=64 time=180
note_on channel=4 note=60 velocity=75 time=300
note_off channel=4 note=60 velocity=64 time=616
note_on channel=4 note=60 velocity=75 time=24
note_off channel=4 note=60 velocity=64 time=308
note_on channel=4 note=60 velocity=75 time=12
note_off channel=4 note=60 velocity=64 time=136
note_on channel=4 note=59 velocity=75 time=1304
note_off channel=4 note=59 velocity=64 time=580
note_on channel=4 note=59 velocity=75 time=60
note_off channel=4 note=59 velocity=64 time=168
note_on channel=4 note=59 velocity=75 time=312
note_off channel=4 note=59 velocity=64 time=168
note_on channel=4 note=58 velocity=75 time=312
note_off channel=4 note=58 velocity=64 time=794
note_on channel=4 note=58 velocity=75 time=6
note_off channel=4 note=58 velocity=64 time=1072
note_on channel=4 note=60 velocity=69 time=368
note_off channel=4 note=60 velocity=64 time=1588
note_on channel=4 note=60 velocity=69 time=12
note_off channel=4 note=60 velocity=64 time=1850
<meta message end_of_track time=0>
<meta message text text='Tenor Sax 2' time=0>
control_change channel=5 control=11 value=127 time=0
control_change channel=5 control=7 value=106 time=0
control_change channel=5 control=10 value=51 time=0
control_change channel=5 control=91 value=81 time=0
control_change channel=5 control=93 value=25 time=0
control_change channel=5 control=0 value=56 time=0
control_change channel=5 control=32 value=0 time=0
program_change channel=5 program=66 time=0
control_change channel=5 control=11 value=109 time=9920
note_on channel=5 note=60 velocity=60 time=0
control_change channel=5 control=11 value=110 time=250
control_change channel=5 control=11 value=111 time=250
control_change channel=5 control=11 value=113 time=250
control_change channel=5 control=11 value=114 time=250
control_change channel=5 control=11 value=115 time=240
control_change channel=5 control=11 value=116 time=250
note_off channel=5 note=60 velocity=64 time=86
note_on channel=5 note=61 velocity=62 time=24
control_change channel=5 control=11 value=118 time=140
control_change channel=5 control=11 value=119 time=250
control_change channel=5 control=11 value=120 time=250
control_change channel=5 control=11 value=121 time=240
control_change channel=5 control=11 value=123 time=250
control_change channel=5 control=11 value=124 time=250
control_change channel=5 control=11 value=125 time=250
control_change channel=5 control=11 value=127 time=240
note_off channel=5 note=61 velocity=64 time=26
note_on channel=5 note=59 velocity=75 time=344
note_off channel=5 note=59 velocity=64 time=592
note_on channel=5 note=59 velocity=77 time=48
note_off channel=5 note=59 velocity=64 time=180
note_on channel=5 note=59 velocity=79 time=300
note_off channel=5 note=59 velocity=64 time=180
note_on channel=5 note=58 velocity=80 time=300
note_off channel=5 note=58 velocity=64 time=788
note_on channel=5 note=58 velocity=84 time=12
note_off channel=5 note=58 velocity=64 time=604
note_on channel=5 note=58 velocity=85 time=36
note_off channel=5 note=58 velocity=64 time=284
note_on channel=5 note=57 velocity=86 time=36
note_off channel=5 note=57 velocity=64 time=136
note_on channel=5 note=49 velocity=62 time=53144
note_off channel=5 note=49 velocity=64 time=160
note_on channel=5 note=53 velocity=75 time=0
note_off channel=5 note=53 velocity=64 time=314
note_on channel=5 note=53 velocity=69 time=6
note_off channel=5 note=53 velocity=64 time=142
note_on channel=5 note=50 velocity=75 time=6
note_off channel=5 note=50 velocity=64 time=132
note_on channel=5 note=54 velocity=62 time=10760
note_off channel=5 note=54 velocity=64 time=580
note_on channel=5 note=53 velocity=62 time=60
note_off channel=5 note=53 velocity=64 time=156
note_on channel=5 note=53 velocity=62 time=324
note_off channel=5 note=53 velocity=64 time=308
note_on channel=5 note=53 velocity=62 time=12
note_off channel=5 note=53 velocity=64 time=148
note_on channel=5 note=53 velocity=56 time=12
note_off channel=5 note=53 velocity=64 time=68
note_on channel=5 note=53 velocity=62 time=12
note_off channel=5 note=53 velocity=64 time=80
note_on channel=5 note=53 velocity=65 time=320
note_off channel=5 note=53 velocity=64 time=320
control_change channel=5 control=11 value=104 time=0
note_on channel=5 note=52 velocity=67 time=0
control_change channel=5 control=11 value=105 time=100
control_change channel=5 control=11 value=108 time=80
control_change channel=5 control=11 value=109 time=100
control_change channel=5 control=11 value=111 time=100
control_change channel=5 control=11 value=114 time=90
control_change channel=5 control=11 value=115 time=100
control_change channel=5 control=11 value=118 time=70
control_change channel=5 control=11 value=119 time=100
control_change channel=5 control=11 value=121 time=100
control_change channel=5 control=11 value=124 time=90
control_change channel=5 control=11 value=125 time=100
control_change channel=5 control=11 value=127 time=10
note_off channel=5 note=52 velocity=64 time=92
note_on channel=5 note=58 velocity=69 time=308
note_on channel=5 note=57 velocity=40 time=112
note_on channel=5 note=56 velocity=28 time=40
note_off channel=5 note=58 velocity=64 time=4
note_off channel=5 note=57 velocity=64 time=8
note_on channel=5 note=55 velocity=17 time=28
note_off channel=5 note=56 velocity=64 time=12
note_off channel=5 note=55 velocity=64 time=40
note_on channel=5 note=57 velocity=70 time=236
note_off channel=5 note=57 velocity=64 time=604
note_on channel=5 note=57 velocity=62 time=36
note_off channel=5 note=57 velocity=64 time=308
note_on channel=5 note=57 velocity=50 time=12
note_off channel=5 note=57 velocity=64 time=148
note_on channel=5 note=55 velocity=62 time=12
note_off channel=5 note=55 velocity=64 time=296
note_on channel=5 note=55 velocity=62 time=24
note_off channel=5 note=55 velocity=64 time=168
note_on channel=5 note=54 velocity=62 time=312
control_change channel=5 control=11 value=127 time=160
control_change channel=5 control=11 value=124 time=96
control_change channel=5 control=11 value=121 time=72
control_change channel=5 control=11 value=118 time=120
control_change channel=5 control=11 value=115 time=72
control_change channel=5 control=11 value=111 time=120
control_change channel=5 control=11 value=108 time=120
control_change channel=5 control=11 value=105 time=72
control_change channel=5 control=11 value=101 time=120
note_off channel=5 note=54 velocity=64 time=108
control_change channel=5 control=11 value=98 time=12
control_change channel=5 control=11 value=96 time=24
control_change channel=5 control=11 value=127 time=24
note_on channel=5 note=57 velocity=69 time=8000
note_off channel=5 note=57 velocity=64 time=616
note_on channel=5 note=50 velocity=62 time=24
note_off channel=5 note=50 velocity=64 time=296
note_on channel=5 note=50 velocity=62 time=24
note_off channel=5 note=50 velocity=64 time=136
note_on channel=5 note=57 velocity=75 time=28824
note_off channel=5 note=57 velocity=64 time=308
note_on channel=5 note=57 velocity=75 time=12
note_off channel=5 note=57 velocity=64 time=204
note_on channel=5 note=57 velocity=75 time=436
note_off channel=5 note=57 velocity=64 time=320
note_on channel=5 note=57 velocity=69 time=0
note_off channel=5 note=57 velocity=64 time=148
note_on channel=5 note=57 velocity=75 time=12
note_off channel=5 note=57 velocity=64 time=308
note_on channel=5 note=53 velocity=75 time=12
note_off channel=5 note=53 velocity=64 time=148
note_on channel=5 note=53 velocity=75 time=1932
note_off channel=5 note=53 velocity=64 time=180
note_on channel=5 note=56 velocity=75 time=300
note_off channel=5 note=56 velocity=64 time=308
note_on channel=5 note=56 velocity=75 time=12
note_off channel=5 note=56 velocity=64 time=192
note_on channel=5 note=55 velocity=75 time=288
note_on channel=5 note=57 velocity=54 time=1440
note_off channel=5 note=55 velocity=64 time=16
note_on channel=5 note=56 velocity=62 time=64
note_off channel=5 note=57 velocity=64 time=24
note_on channel=5 note=55 velocity=74 time=56
note_off channel=5 note=56 velocity=64 time=24
note_off channel=5 note=55 velocity=64 time=284
note_on channel=5 note=54 velocity=75 time=12
pitchwheel channel=5 pitch=0 time=160
control_change channel=5 control=11 value=127 time=0
pitchwheel channel=5 pitch=242 time=12
control_change channel=5 control=11 value=124 time=72
control_change channel=5 control=11 value=121 time=72
pitchwheel channel=5 pitch=0 time=48
control_change channel=5 control=11 value=119 time=60
control_change channel=5 control=11 value=116 time=48
pitchwheel channel=5 pitch=-82 time=36
control_change channel=5 control=11 value=114 time=72
pitchwheel channel=5 pitch=-244 time=24
control_change channel=5 control=11 value=111 time=24
pitchwheel channel=5 pitch=-407 time=48
pitchwheel channel=5 pitch=-569 time=60
control_change channel=5 control=11 value=109 time=0
control_change channel=5 control=11 value=106 time=48
pitchwheel channel=5 pitch=-731 time=12
pitchwheel channel=5 pitch=-893 time=36
pitchwheel channel=5 pitch=-1055 time=48
control_change channel=5 control=11 value=104 time=12
pitchwheel channel=5 pitch=-1218 time=24
pitchwheel channel=5 pitch=-1380 time=24
control_change channel=5 control=11 value=101 time=0
pitchwheel channel=5 pitch=-1542 time=36
pitchwheel channel=5 pitch=-1704 time=24
pitchwheel channel=5 pitch=-1866 time=12
pitchwheel channel=5 pitch=-2029 time=24
pitchwheel channel=5 pitch=-2191 time=12
control_change channel=5 control=11 value=99 time=0
pitchwheel channel=5 pitch=-2353 time=12
note_off channel=5 note=54 velocity=64 time=12
pitchwheel channel=5 pitch=-2515 time=0
pitchwheel channel=5 pitch=-2840 time=12
control_change channel=5 control=11 value=96 time=12
control_change channel=5 control=11 value=127 time=24
pitchwheel channel=5 pitch=0 time=0
note_on channel=5 note=50 velocity=75 time=1280
note_off channel=5 note=50 velocity=64 time=616
note_on channel=5 note=50 velocity=75 time=24
note_off channel=5 note=50 velocity=64 time=192
note_on channel=5 note=50 velocity=75 time=288
note_off channel=5 note=50 velocity=64 time=308
note_on channel=5 note=58 velocity=75 time=12
note_off channel=5 note=58 velocity=64 time=148
note_on channel=5 note=58 velocity=75 time=332
note_off channel=5 note=58 velocity=64 time=192
note_on channel=5 note=58 velocity=69 time=288
note_off channel=5 note=58 velocity=64 time=160
note_on channel=5 note=55 velocity=75 time=0
note_off channel=5 note=55 velocity=64 time=468
note_on channel=5 note=52 velocity=75 time=12
note_off channel=5 note=52 velocity=64 time=168
note_on channel=5 note=60 velocity=81 time=792
note_off channel=5 note=60 velocity=64 time=924
note_on channel=5 note=60 velocity=75 time=36
note_off channel=5 note=60 velocity=64 time=192
control_change channel=5 control=11 value=104 time=288
note_on channel=5 note=55 velocity=81 time=0
control_change channel=5 control=11 value=106 time=108
control_change channel=5 control=11 value=109 time=108
note_off channel=5 note=55 velocity=64 time=104
note_on channel=5 note=55 velocity=81 time=0
control_change channel=5 control=11 value=111 time=4
control_change channel=5 control=11 value=114 time=108
control_change channel=5 control=11 value=116 time=108
control_change channel=5 control=11 value=119 time=108
control_change channel=5 control=11 value=121 time=108
control_change channel=5 control=11 value=124 time=108
note_off channel=5 note=55 velocity=64 time=72
control_change channel=5 control=11 value=127 time=24
control_change channel=5 control=11 value=127 time=0
note_on channel=5 note=54 velocity=81 time=0
control_change channel=5 control=11 value=124 time=84
control_change channel=5 control=11 value=121 time=84
control_change channel=5 control=11 value=119 time=108
note_off channel=5 note=54 velocity=64 time=44
note_on channel=5 note=54 velocity=81 time=0
control_change channel=5 control=11 value=116 time=4
control_change channel=5 control=11 value=114 time=108
control_change channel=5 control=11 value=111 time=48
control_change channel=5 control=11 value=109 time=108
control_change channel=5 control=11 value=106 time=60
control_change channel=5 control=11 value=104 time=108
control_change channel=5 control=11 value=101 time=48
note_off channel=5 note=54 velocity=64 time=108
control_change channel=5 control=11 value=127 time=48
control_change channel=5 control=93 value=30 time=17280
note_on channel=5 note=56 velocity=75 time=0
note_off channel=5 note=56 velocity=64 time=456
note_on channel=5 note=56 velocity=75 time=24
note_off channel=5 note=56 velocity=64 time=308
note_on channel=5 note=55 velocity=75 time=12
note_off channel=5 note=55 velocity=64 time=148
note_on channel=5 note=50 velocity=75 time=812
note_off channel=5 note=50 velocity=64 time=616
note_on channel=5 note=53 velocity=75 time=24
note_off channel=5 note=53 velocity=64 time=308
note_on channel=5 note=50 velocity=62 time=12
note_off channel=5 note=50 velocity=64 time=148
note_on channel=5 note=57 velocity=75 time=12
note_off channel=5 note=57 velocity=64 time=296
note_on channel=5 note=57 velocity=75 time=24
note_off channel=5 note=57 velocity=64 time=180
note_on channel=5 note=55 velocity=75 time=300
note_off channel=5 note=55 velocity=64 time=616
note_on channel=5 note=55 velocity=75 time=24
note_off channel=5 note=55 velocity=64 time=308
note_on channel=5 note=54 velocity=75 time=12
note_off channel=5 note=54 velocity=64 time=136
note_on channel=5 note=53 velocity=75 time=1304
note_off channel=5 note=53 velocity=64 time=580
note_on channel=5 note=53 velocity=75 time=60
note_off channel=5 note=53 velocity=64 time=168
note_on channel=5 note=53 velocity=75 time=312
note_off channel=5 note=53 velocity=64 time=168
note_on channel=5 note=52 velocity=75 time=312
note_off channel=5 note=52 velocity=64 time=794
note_on channel=5 note=52 velocity=75 time=6
note_off channel=5 note=52 velocity=64 time=1072
note_on channel=5 note=57 velocity=69 time=368
note_off channel=5 note=57 velocity=64 time=1588
note_on channel=5 note=54 velocity=69 time=12
note_off channel=5 note=54 velocity=64 time=1850
<meta message end_of_track time=0>
<meta message text text='Bari Sax' time=0>
control_change channel=6 control=11 value=127 time=0
control_change channel=6 control=7 value=106 time=0
control_change channel=6 control=10 value=96 time=0
control_change channel=6 control=91 value=81 time=0
control_change channel=6 control=93 value=25 time=0
control_change channel=6 control=0 value=56 time=0
control_change channel=6 control=32 value=0 time=0
program_change channel=6 program=67 time=0
control_change channel=6 control=11 value=109 time=9944
note_on channel=6 note=53 velocity=60 time=0
control_change channel=6 control=11 value=110 time=250
control_change channel=6 control=11 value=111 time=250
control_change channel=6 control=11 value=113 time=250
control_change channel=6 control=11 value=114 time=250
control_change channel=6 control=11 value=115 time=240
control_change channel=6 control=11 value=116 time=250
note_off channel=6 note=53 velocity=64 time=86
note_on channel=6 note=50 velocity=62 time=24
control_change channel=6 control=11 value=118 time=140
control_change channel=6 control=11 value=119 time=250
control_change channel=6 control=11 value=120 time=250
control_change channel=6 control=11 value=121 time=240
control_change channel=6 control=11 value=123 time=250
control_change channel=6 control=11 value=124 time=250
control_change channel=6 control=11 value=125 time=250
control_change channel=6 control=11 value=127 time=240
note_off channel=6 note=50 velocity=64 time=26
note_on channel=6 note=55 velocity=75 time=344
note_off channel=6 note=55 velocity=64 time=592
note_on channel=6 note=55 velocity=77 time=48
note_off channel=6 note=55 velocity=64 time=180
note_on channel=6 note=55 velocity=79 time=300
note_off channel=6 note=55 velocity=64 time=180
note_on channel=6 note=60 velocity=81 time=300
note_off channel=6 note=60 velocity=64 time=788
note_on channel=6 note=60 velocity=84 time=12
note_off channel=6 note=60 velocity=64 time=604
note_on channel=6 note=60 velocity=86 time=36
note_off channel=6 note=60 velocity=64 time=284
note_on channel=6 note=53 velocity=86 time=36
note_off channel=6 note=53 velocity=64 time=136
note_on channel=6 note=46 velocity=62 time=53120
note_off channel=6 note=46 velocity=64 time=160
note_on channel=6 note=49 velocity=75 time=0
note_off channel=6 note=49 velocity=64 time=314
note_on channel=6 note=49 velocity=69 time=6
note_off channel=6 note=49 velocity=64 time=142
note_on channel=6 note=48 velocity=75 time=6
note_off channel=6 note=48 velocity=64 time=132
note_on channel=6 note=44 velocity=62 time=10760
note_off channel=6 note=44 velocity=64 time=580
note_on channel=6 note=43 velocity=62 time=60
note_off channel=6 note=43 velocity=64 time=156
note_on channel=6 note=43 velocity=62 time=324
note_off channel=6 note=43 velocity=64 time=308
note_on channel=6 note=43 velocity=62 time=12
note_off channel=6 note=43 velocity=64 time=148
note_on channel=6 note=43 velocity=56 time=12
note_off channel=6 note=43 velocity=64 time=68
note_on channel=6 note=43 velocity=62 time=12
note_off channel=6 note=43 velocity=64 time=80
note_on channel=6 note=49 velocity=65 time=320
note_off channel=6 note=49 velocity=64 time=320
control_change channel=6 control=11 value=104 time=0
note_on channel=6 note=48 velocity=67 time=0
control_change channel=6 control=11 value=105 time=100
control_change channel=6 control=11 value=108 time=80
control_change channel=6 control=11 value=109 time=100
control_change channel=6 control=11 value=111 time=100
control_change channel=6 control=11 value=114 time=90
control_change channel=6 control=11 value=115 time=100
control_change channel=6 control=11 value=118 time=70
control_change channel=6 control=11 value=119 time=100
control_change channel=6 control=11 value=121 time=100
control_change channel=6 control=11 value=124 time=90
control_change channel=6 control=11 value=125 time=100
control_change channel=6 control=11 value=127 time=10
note_off channel=6 note=48 velocity=64 time=92
note_on channel=6 note=42 velocity=69 time=308
note_on channel=6 note=41 velocity=40 time=112
note_on channel=6 note=40 velocity=28 time=40
note_off channel=6 note=42 velocity=64 time=4
note_off channel=6 note=41 velocity=64 time=8
note_on channel=6 note=39 velocity=17 time=28
note_off channel=6 note=40 velocity=64 time=12
note_off channel=6 note=39 velocity=64 time=40
note_on channel=6 note=41 velocity=70 time=236
note_off channel=6 note=41 velocity=64 time=604
note_on channel=6 note=41 velocity=62 time=36
note_off channel=6 note=41 velocity=64 time=308
note_on channel=6 note=41 velocity=50 time=12
note_off channel=6 note=41 velocity=64 time=148
note_on channel=6 note=45 velocity=62 time=12
note_off channel=6 note=45 velocity=64 time=296
note_on channel=6 note=39 velocity=62 time=24
note_off channel=6 note=39 velocity=64 time=168
note_on channel=6 note=38 velocity=62 time=312
control_change channel=6 control=11 value=127 time=160
control_change channel=6 control=11 value=124 time=96
control_change channel=6 control=11 value=121 time=72
control_change channel=6 control=11 value=118 time=120
control_change channel=6 control=11 value=115 time=72
control_change channel=6 control=11 value=111 time=120
control_change channel=6 control=11 value=108 time=120
control_change channel=6 control=11 value=105 time=72
control_change channel=6 control=11 value=101 time=120
note_off channel=6 note=38 velocity=64 time=108
control_change channel=6 control=11 value=98 time=12
control_change channel=6 control=11 value=96 time=24
control_change channel=6 control=11 value=127 time=24
note_on channel=6 note=64 velocity=75 time=320
note_off channel=6 note=64 velocity=64 time=148
note_on channel=6 note=62 velocity=62 time=12
note_off channel=6 note=62 velocity=64 time=296
note_on channel=6 note=57 velocity=69 time=24
control_change channel=6 control=11 value=127 time=160
control_change channel=6 control=11 value=119 time=24
control_change channel=6 control=11 value=111 time=24
control_change channel=6 control=11 value=104 time=24
control_change channel=6 control=11 value=96 time=24
control_change channel=6 control=11 value=89 time=24
control_change channel=6 control=11 value=89 time=0
control_change channel=6 control=11 value=93 time=120
control_change channel=6 control=11 value=96 time=96
control_change channel=6 control=11 value=99 time=72
control_change channel=6 control=11 value=103 time=96
control_change channel=6 control=11 value=106 time=120
control_change channel=6 control=11 value=109 time=48
control_change channel=6 control=11 value=113 time=120
control_change channel=6 control=11 value=116 time=96
control_change channel=6 control=11 value=119 time=72
control_change channel=6 control=11 value=123 time=96
control_change channel=6 control=11 value=127 time=96
note_off channel=6 note=57 velocity=64 time=104
note_on channel=6 note=64 velocity=75 time=24
note_off channel=6 note=64 velocity=64 time=148
note_on channel=6 note=62 velocity=62 time=12
note_off channel=6 note=62 velocity=64 time=296
note_on channel=6 note=57 velocity=69 time=24
control_change channel=6 control=11 value=127 time=160
control_change channel=6 control=11 value=119 time=24
control_change channel=6 control=11 value=111 time=24
control_change channel=6 control=11 value=104 time=24
control_change channel=6 control=11 value=96 time=24
control_change channel=6 control=11 value=89 time=24
control_change channel=6 control=11 value=89 time=0
control_change channel=6 control=11 value=93 time=120
control_change channel=6 control=11 value=96 time=96
control_change channel=6 control=11 value=99 time=72
control_change channel=6 control=11 value=103 time=96
control_change channel=6 control=11 value=106 time=120
control_change channel=6 control=11 value=109 time=48
control_change channel=6 control=11 value=113 time=120
control_change channel=6 control=11 value=116 time=96
control_change channel=6 control=11 value=119 time=72
control_change channel=6 control=11 value=123 time=96
control_change channel=6 control=11 value=127 time=96
note_off channel=6 note=57 velocity=64 time=104
note_on channel=6 note=62 velocity=75 time=24
note_off channel=6 note=62 velocity=64 time=148
note_on channel=6 note=60 velocity=62 time=12
note_off channel=6 note=60 velocity=64 time=296
note_on channel=6 note=55 velocity=69 time=24
control_change channel=6 control=11 value=127 time=232
control_change channel=6 control=11 value=121 time=24
control_change channel=6 control=11 value=115 time=24
control_change channel=6 control=11 value=109 time=24
control_change channel=6 control=11 value=103 time=24
control_change channel=6 control=11 value=96 time=24
control_change channel=6 control=11 value=90 time=24
control_change channel=6 control=11 value=85 time=24
control_change channel=6 control=11 value=84 time=0
control_change channel=6 control=11 value=84 time=0
control_change channel=6 control=11 value=85 time=120
control_change channel=6 control=11 value=88 time=120
control_change channel=6 control=11 value=89 time=120
control_change channel=6 control=11 value=91 time=120
control_change channel=6 control=11 value=94 time=120
control_change channel=6 control=11 value=95 time=120
control_change channel=6 control=11 value=98 time=120
control_change channel=6 control=11 value=99 time=120
control_change channel=6 control=11 value=101 time=120
control_change channel=6 control=11 value=104 time=120
control_change channel=6 control=11 value=105 time=120
control_change channel=6 control=11 value=108 time=120
control_change channel=6 control=11 value=109 time=120
control_change channel=6 control=11 value=111 time=120
control_change channel=6 control=11 value=114 time=120
control_change channel=6 control=11 value=115 time=120
control_change channel=6 control=11 value=118 time=120
control_change channel=6 control=11 value=119 time=120
control_change channel=6 control=11 value=121 time=120
control_change channel=6 control=11 value=124 time=120
control_change channel=6 control=11 value=125 time=120
control_change channel=6 control=11 value=127 time=24
note_off channel=6 note=55 velocity=64 time=368
note_on channel=6 note=41 velocity=69 time=48
note_off channel=6 note=41 velocity=64 time=616
note_on channel=6 note=46 velocity=62 time=24
note_off channel=6 note=46 velocity=64 time=296
note_on channel=6 note=46 velocity=62 time=24
note_off channel=6 note=46 velocity=64 time=136
note_on channel=6 note=56 velocity=81 time=13944
note_off channel=6 note=56 velocity=64 time=308
note_on channel=6 note=57 velocity=81 time=12
note_off channel=6 note=57 velocity=64 time=180
note_on channel=6 note=62 velocity=81 time=300
note_off channel=6 note=62 velocity=64 time=1072
note_on channel=6 note=56 velocity=81 time=48
note_off channel=6 note=56 velocity=64 time=308
note_on channel=6 note=57 velocity=81 time=12
note_off channel=6 note=57 velocity=64 time=180
note_on channel=6 note=50 velocity=81 time=300
note_off channel=6 note=50 velocity=64 time=1072
note_on channel=6 note=56 velocity=81 time=48
note_off channel=6 note=56 velocity=64 time=180
note_on channel=6 note=57 velocity=81 time=300
note_off channel=6 note=57 velocity=64 time=180
note_on channel=6 note=62 velocity=81 time=300
note_off channel=6 note=62 velocity=64 time=912
note_on channel=6 note=56 velocity=81 time=48
note_off channel=6 note=56 velocity=64 time=308
note_on channel=6 note=57 velocity=81 time=12
note_off channel=6 note=57 velocity=64 time=180
note_on channel=6 note=50 velocity=81 time=300
note_off channel=6 note=50 velocity=64 time=1072
note_on channel=6 note=56 velocity=81 time=48
note_off channel=6 note=56 velocity=64 time=180
note_on channel=6 note=57 velocity=81 time=300
note_off channel=6 note=57 velocity=64 time=180
note_on channel=6 note=62 velocity=81 time=300
note_off channel=6 note=62 velocity=64 time=912
note_on channel=6 note=64 velocity=81 time=48
note_off channel=6 note=64 velocity=64 time=308
note_on channel=6 note=62 velocity=81 time=12
note_off channel=6 note=62 velocity=64 time=180
note_on channel=6 note=50 velocity=81 time=300
note_off channel=6 note=50 velocity=64 time=1072
note_on channel=6 note=50 velocity=81 time=48
note_off channel=6 note=50 velocity=64 time=320
note_on channel=6 note=53 velocity=74 time=0
note_off channel=6 note=53 velocity=64 time=160
note_on channel=6 note=56 velocity=81 time=0
note_off channel=6 note=56 velocity=64 time=320
note_on channel=6 note=55 velocity=81 time=0
control_change channel=6 control=11 value=127 time=160
control_change channel=6 control=11 value=125 time=120
control_change channel=6 control=11 value=124 time=120
control_change channel=6 control=11 value=123 time=120
control_change channel=6 control=11 value=121 time=120
control_change channel=6 control=11 value=120 time=120
control_change channel=6 control=11 value=119 time=120
control_change channel=6 control=11 value=118 time=120
control_change channel=6 control=11 value=115 time=120
control_change channel=6 control=11 value=114 time=120
control_change channel=6 control=11 value=113 time=120
control_change channel=6 control=11 value=111 time=120
control_change channel=6 control=11 value=110 time=120
control_change channel=6 control=11 value=109 time=120
control_change channel=6 control=11 value=108 time=120
control_change channel=6 control=11 value=105 time=120
note_off channel=6 note=55 velocity=64 time=72
control_change channel=6 control=11 value=127 time=48
note_on channel=6 note=56 velocity=75 time=480
note_off channel=6 note=56 velocity=64 time=308
note_on channel=6 note=56 velocity=75 time=12
note_off channel=6 note=56 velocity=64 time=204
note_on channel=6 note=53 velocity=62 time=276
note_off channel=6 note=53 velocity=64 time=160
note_on channel=6 note=56 velocity=75 time=0
note_off channel=6 note=56 velocity=64 time=320
note_on channel=6 note=56 velocity=69 time=0
note_off channel=6 note=56 velocity=64 time=148
note_on channel=6 note=53 velocity=75 time=12
note_off channel=6 note=53 velocity=64 time=308
note_on channel=6 note=50 velocity=75 time=12
note_off channel=6 note=50 velocity=64 time=148
note_on channel=6 note=47 velocity=75 time=1932
note_off channel=6 note=47 velocity=64 time=180
note_on channel=6 note=40 velocity=75 time=300
note_off channel=6 note=40 velocity=64 time=308
note_on channel=6 note=40 velocity=75 time=12
note_off channel=6 note=40 velocity=64 time=192
note_on channel=6 note=45 velocity=75 time=288
note_on channel=6 note=47 velocity=54 time=1440
note_off channel=6 note=45 velocity=64 time=16
note_on channel=6 note=46 velocity=62 time=64
note_off channel=6 note=47 velocity=64 time=24
note_on channel=6 note=45 velocity=74 time=56
note_off channel=6 note=46 velocity=64 time=24
note_off channel=6 note=45 velocity=64 time=284
note_on channel=6 note=38 velocity=75 time=12
pitchwheel channel=6 pitch=0 time=160
control_change channel=6 control=11 value=127 time=0
pitchwheel channel=6 pitch=242 time=12
control_change channel=6 control=11 value=124 time=72
control_change channel=6 control=11 value=121 time=72
pitchwheel channel=6 pitch=0 time=48
control_change channel=6 control=11 value=119 time=60
control_change channel=6 control=11 value=116 time=48
pitchwheel channel=6 pitch=-82 time=36
control_change channel=6 control=11 value=114 time=72
pitchwheel channel=6 pitch=-244 time=24
control_change channel=6 control=11 value=111 time=24
pitchwheel channel=6 pitch=-407 time=48
pitchwheel channel=6 pitch=-569 time=60
control_change channel=6 control=11 value=109 time=0
control_change channel=6 control=11 value=106 time=48
pitchwheel channel=6 pitch=-731 time=12
pitchwheel channel=6 pitch=-893 time=36
pitchwheel channel=6 pitch=-1055 time=48
control_change channel=6 control=11 value=104 time=12
pitchwheel channel=6 pitch=-1218 time=24
pitchwheel channel=6 pitch=-1380 time=24
control_change channel=6 control=11 value=101 time=0
pitchwheel channel=6 pitch=-1542 time=36
pitchwheel channel=6 pitch=-1704 time=24
pitchwheel channel=6 pitch=-1866 time=12
pitchwheel channel=6 pitch=-2029 time=24
pitchwheel channel=6 pitch=-2191 time=12
control_change channel=6 control=11 value=99 time=0
pitchwheel channel=6 pitch=-2353 time=12
note_off channel=6 note=38 velocity=64 time=12
pitchwheel channel=6 pitch=-2515 time=0
pitchwheel channel=6 pitch=-2840 time=12
control_change channel=6 control=11 value=96 time=12
control_change channel=6 control=11 value=127 time=24
pitchwheel channel=6 pitch=0 time=0
note_on channel=6 note=43 velocity=75 time=1280
note_off channel=6 note=43 velocity=64 time=616
note_on channel=6 note=43 velocity=75 time=24
note_off channel=6 note=43 velocity=64 time=192
note_on channel=6 note=43 velocity=75 time=288
note_off channel=6 note=43 velocity=64 time=308
note_on channel=6 note=48 velocity=75 time=12
note_off channel=6 note=48 velocity=64 time=148
note_on channel=6 note=48 velocity=75 time=332
note_off channel=6 note=48 velocity=64 time=192
note_on channel=6 note=55 velocity=69 time=288
note_off channel=6 note=55 velocity=64 time=160
note_on channel=6 note=48 velocity=75 time=0
note_off channel=6 note=48 velocity=64 time=468
note_on channel=6 note=46 velocity=75 time=12
note_off channel=6 note=46 velocity=64 time=168
note_on channel=6 note=45 velocity=81 time=792
note_off channel=6 note=45 velocity=64 time=924
note_on channel=6 note=45 velocity=75 time=36
note_off channel=6 note=45 velocity=64 time=192
control_change channel=6 control=11 value=104 time=288
note_on channel=6 note=46 velocity=81 time=0
control_change channel=6 control=11 value=106 time=108
control_change channel=6 control=11 value=109 time=108
note_off channel=6 note=46 velocity=64 time=104
note_on channel=6 note=39 velocity=81 time=0
control_change channel=6 control=11 value=111 time=4
control_change channel=6 control=11 value=114 time=108
control_change channel=6 control=11 value=116 time=108
control_change channel=6 control=11 value=119 time=108
control_change channel=6 control=11 value=121 time=108
control_change channel=6 control=11 value=124 time=108
note_off channel=6 note=39 velocity=64 time=72
control_change channel=6 control=11 value=127 time=24
control_change channel=6 control=11 value=127 time=0
note_on channel=6 note=38 velocity=81 time=0
control_change channel=6 control=11 value=124 time=84
control_change channel=6 control=11 value=121 time=84
control_change channel=6 control=11 value=119 time=108
note_off channel=6 note=38 velocity=64 time=44
note_on channel=6 note=44 velocity=81 time=0
control_change channel=6 control=11 value=116 time=4
control_change channel=6 control=11 value=114 time=108
control_change channel=6 control=11 value=111 time=48
control_change channel=6 control=11 value=109 time=108
control_change channel=6 control=11 value=106 time=60
control_change channel=6 control=11 value=104 time=108
control_change channel=6 control=11 value=101 time=48
note_off channel=6 note=44 velocity=64 time=108
control_change channel=6 control=11 value=127 time=48
control_change channel=6 control=93 value=30 time=17280
note_on channel=6 note=46 velocity=75 time=0
note_off channel=6 note=46 velocity=64 time=456
note_on channel=6 note=46 velocity=75 time=24
note_off channel=6 note=46 velocity=64 time=308
note_on channel=6 note=39 velocity=75 time=12
note_off channel=6 note=39 velocity=64 time=148
note_on channel=6 note=48 velocity=75 time=812
note_off channel=6 note=48 velocity=64 time=616
note_on channel=6 note=50 velocity=75 time=24
note_off channel=6 note=50 velocity=64 time=308
note_on channel=6 note=48 velocity=62 time=12
note_off channel=6 note=48 velocity=64 time=148
note_on channel=6 note=53 velocity=75 time=12
note_off channel=6 note=53 velocity=64 time=296
note_on channel=6 note=48 velocity=75 time=24
note_off channel=6 note=48 velocity=64 time=180
note_on channel=6 note=45 velocity=75 time=300
note_off channel=6 note=45 velocity=64 time=616
note_on channel=6 note=45 velocity=75 time=24
note_off channel=6 note=45 velocity=64 time=308
note_on channel=6 note=38 velocity=75 time=12
note_off channel=6 note=38 velocity=64 time=136
note_on channel=6 note=43 velocity=75 time=1304
note_off channel=6 note=43 velocity=64 time=580
note_on channel=6 note=43 velocity=75 time=60
note_off channel=6 note=43 velocity=64 time=168
note_on channel=6 note=43 velocity=75 time=312
note_off channel=6 note=43 velocity=64 time=168
note_on channel=6 note=48 velocity=75 time=312
note_off channel=6 note=48 velocity=64 time=794
note_on channel=6 note=48 velocity=75 time=6
note_off channel=6 note=48 velocity=64 time=1072
note_on channel=6 note=41 velocity=75 time=368
note_off channel=6 note=41 velocity=64 time=1588
note_on channel=6 note=38 velocity=75 time=12
note_off channel=6 note=38 velocity=64 time=1850
<meta message end_of_track time=0>
<meta message text text='Trumpet 1' time=0>
control_change channel=7 control=11 value=127 time=0
control_change channel=7 control=7 value=106 time=0
control_change channel=7 control=10 value=74 time=0
control_change channel=7 control=91 value=94 time=0
control_change channel=7 control=93 value=30 time=0
control_change channel=7 control=0 value=56 time=0
control_change channel=7 control=32 value=0 time=0
program_change channel=7 program=56 time=0
note_on channel=7 note=80 velocity=121 time=13760
note_off channel=7 note=80 velocity=64 time=580
note_on channel=7 note=81 velocity=121 time=60
note_off channel=7 note=81 velocity=64 time=168
note_on channel=7 note=74 velocity=121 time=312
note_off channel=7 note=74 velocity=64 time=168
note_on channel=7 note=80 velocity=121 time=312
note_off channel=7 note=80 velocity=64 time=764
note_on channel=7 note=81 velocity=121 time=36
note_off channel=7 note=81 velocity=64 time=592
note_on channel=7 note=74 velocity=121 time=48
note_off channel=7 note=74 velocity=64 time=272
note_on channel=7 note=77 velocity=121 time=48
note_off channel=7 note=77 velocity=64 time=124
note_on channel=7 note=65 velocity=75 time=19556
note_off channel=7 note=65 velocity=64 time=124
note_on channel=7 note=73 velocity=80 time=36
note_off channel=7 note=73 velocity=64 time=132
note_on channel=7 note=74 velocity=75 time=348
note_off channel=7 note=74 velocity=64 time=294
control_change channel=7 control=11 value=109 time=26
note_on channel=7 note=77 velocity=82 time=0
control_change channel=7 control=11 value=110 time=100
control_change channel=7 control=11 value=111 time=100
control_change channel=7 control=11 value=113 time=100
control_change channel=7 control=11 value=114 time=100
control_change channel=7 control=11 value=115 time=100
control_change channel=7 control=11 value=116 time=100
control_change channel=7 control=11 value=118 time=100
control_change channel=7 control=11 value=119 time=100
control_change channel=7 control=11 value=120 time=100
control_change channel=7 control=11 value=121 time=100
control_change channel=7 control=11 value=123 time=100
control_change channel=7 control=11 value=124 time=100
control_change channel=7 control=11 value=125 time=100
control_change channel=7 control=11 value=127 time=60
note_off channel=7 note=77 velocity=64 time=44
note_on channel=7 note=76 velocity=85 time=36
note_off channel=7 note=76 velocity=64 time=112
note_on channel=7 note=74 velocity=81 time=368
note_off channel=7 note=74 velocity=64 time=144
note_on channel=7 note=76 velocity=75 time=336
note_off channel=7 note=76 velocity=64 time=136
note_on channel=7 note=64 velocity=80 time=24
note_off channel=7 note=64 velocity=64 time=284
note_on channel=7 note=64 velocity=75 time=36
note_off channel=7 note=64 velocity=64 time=136
note_on channel=7 note=69 velocity=80 time=24
note_off channel=7 note=69 velocity=64 time=120
note_on channel=7 note=72 velocity=80 time=360
note_off channel=7 note=72 velocity=64 time=284
note_on channel=7 note=76 velocity=80 time=36
note_off channel=7 note=76 velocity=64 time=120
note_on channel=7 note=71 velocity=80 time=360
control_change channel=7 control=11 value=127 time=232
control_change channel=7 control=11 value=120 time=24
control_change channel=7 control=11 value=114 time=24
control_change channel=7 control=11 value=108 time=24
control_change channel=7 control=11 value=101 time=24
control_change channel=7 control=11 value=94 time=24
control_change channel=7 control=11 value=96 time=120
control_change channel=7 control=11 value=99 time=120
control_change channel=7 control=11 value=101 time=120
control_change channel=7 control=11 value=104 time=120
control_change channel=7 control=11 value=106 time=120
control_change channel=7 control=11 value=109 time=120
control_change channel=7 control=11 value=111 time=120
control_change channel=7 control=11 value=114 time=120
control_change channel=7 control=11 value=116 time=120
control_change channel=7 control=11 value=119 time=120
control_change channel=7 control=11 value=121 time=120
control_change channel=7 control=11 value=124 time=120
control_change channel=7 control=11 value=127 time=120
note_off channel=7 note=71 velocity=64 time=120
note_on channel=7 note=62 velocity=75 time=368
note_off channel=7 note=62 velocity=64 time=124
note_on channel=7 note=67 velocity=80 time=36
note_off channel=7 note=67 velocity=64 time=120
note_on channel=7 note=70 velocity=79 time=360
note_off channel=7 note=70 velocity=64 time=284
note_on channel=7 note=74 velocity=83 time=36
note_off channel=7 note=74 velocity=64 time=108
note_on channel=7 note=77 velocity=89 time=372
note_off channel=7 note=77 velocity=64 time=592
note_on channel=7 note=76 velocity=85 time=48
note_off channel=7 note=76 velocity=64 time=296
note_on channel=7 note=74 velocity=75 time=24
note_off channel=7 note=74 velocity=64 time=134
note_on channel=7 note=72 velocity=82 time=26
note_off channel=7 note=72 velocity=64 time=284
note_on channel=7 note=74 velocity=78 time=36
note_off channel=7 note=74 velocity=64 time=120
note_on channel=7 note=69 velocity=85 time=360
control_change channel=7 control=11 value=127 time=232
control_change channel=7 control=11 value=120 time=24
control_change channel=7 control=11 value=114 time=24
control_change channel=7 control=11 value=108 time=24
control_change channel=7 control=11 value=101 time=24
control_change channel=7 control=11 value=95 time=24
control_change channel=7 control=11 value=95 time=0
control_change channel=7 control=11 value=96 time=120
control_change channel=7 control=11 value=98 time=120
control_change channel=7 control=11 value=99 time=120
control_change channel=7 control=11 value=100 time=120
control_change channel=7 control=11 value=101 time=120
control_change channel=7 control=11 value=103 time=120
control_change channel=7 control=11 value=104 time=120
control_change channel=7 control=11 value=105 time=120
control_change channel=7 control=11 value=106 time=120
control_change channel=7 control=11 value=108 time=120
control_change channel=7 control=11 value=109 time=120
control_change channel=7 control=11 value=110 time=120
control_change channel=7 control=11 value=111 time=120
control_change channel=7 control=11 value=113 time=120
control_change channel=7 control=11 value=114 time=120
control_change channel=7 control=11 value=115 time=120
control_change channel=7 control=11 value=116 time=120
control_change channel=7 control=11 value=118 time=120
control_change channel=7 control=11 value=119 time=120
control_change channel=7 control=11 value=120 time=120
control_change channel=7 control=11 value=121 time=120
control_change channel=7 control=11 value=123 time=120
control_change channel=7 control=11 value=124 time=120
control_change channel=7 control=11 value=125 time=120
control_change channel=7 control=11 value=127 time=48
note_off channel=7 note=69 velocity=64 time=192
note_on channel=7 note=70 velocity=85 time=48
note_off channel=7 note=70 velocity=64 time=284
note_on channel=7 note=69 velocity=85 time=36
note_off channel=7 note=69 velocity=64 time=112
note_on channel=7 note=65 velocity=90 time=15728
note_off channel=7 note=65 velocity=64 time=136
note_on channel=7 note=73 velocity=96 time=24
note_off channel=7 note=73 velocity=64 time=144
note_on channel=7 note=74 velocity=101 time=336
note_off channel=7 note=74 velocity=64 time=296
note_on channel=7 note=77 velocity=90 time=24
note_off channel=7 note=77 velocity=64 time=136
note_on channel=7 note=79 velocity=103 time=24
note_off channel=7 note=79 velocity=64 time=296
note_on channel=7 note=80 velocity=109 time=24
note_off channel=7 note=80 velocity=64 time=604
note_on channel=7 note=79 velocity=103 time=36
note_off channel=7 note=79 velocity=64 time=308
note_on channel=7 note=77 velocity=106 time=12
control_change channel=7 control=11 value=127 time=16
control_change channel=7 control=11 value=125 time=120
control_change channel=7 control=11 value=123 time=120
control_change channel=7 control=11 value=121 time=120
control_change channel=7 control=11 value=119 time=120
control_change channel=7 control=11 value=118 time=120
control_change channel=7 control=11 value=115 time=96
control_change channel=7 control=11 value=114 time=120
control_change channel=7 control=11 value=111 time=120
note_off channel=7 note=77 velocity=64 time=120
control_change channel=7 control=11 value=110 time=0
control_change channel=7 control=11 value=109 time=24
control_change channel=7 control=11 value=127 time=24
note_on channel=7 note=65 velocity=90 time=320
note_off channel=7 note=65 velocity=64 time=136
note_on channel=7 note=68 velocity=96 time=24
note_off channel=7 note=68 velocity=64 time=144
note_on channel=7 note=69 velocity=101 time=336
note_off channel=7 note=69 velocity=64 time=296
note_on channel=7 note=72 velocity=90 time=24
note_off channel=7 note=72 velocity=64 time=136
note_on channel=7 note=74 velocity=103 time=24
note_off channel=7 note=74 velocity=64 time=296
note_on channel=7 note=75 velocity=109 time=24
note_off channel=7 note=75 velocity=64 time=604
note_on channel=7 note=74 velocity=103 time=36
note_off channel=7 note=74 velocity=64 time=308
note_on channel=7 note=72 velocity=106 time=12
control_change channel=7 control=11 value=127 time=16
control_change channel=7 control=11 value=125 time=120
control_change channel=7 control=11 value=123 time=120
control_change channel=7 control=11 value=121 time=120
control_change channel=7 control=11 value=119 time=120
control_change channel=7 control=11 value=118 time=120
control_change channel=7 control=11 value=115 time=96
control_change channel=7 control=11 value=114 time=120
control_change channel=7 control=11 value=111 time=120
note_off channel=7 note=72 velocity=64 time=120
control_change channel=7 control=11 value=110 time=0
control_change channel=7 control=11 value=109 time=24
control_change channel=7 control=11 value=127 time=24
note_on channel=7 note=70 velocity=96 time=7040
note_off channel=7 note=70 velocity=64 time=580
note_on channel=7 note=69 velocity=96 time=60
note_off channel=7 note=69 velocity=64 time=144
note_on channel=7 note=69 velocity=96 time=336
note_off channel=7 note=69 velocity=64 time=296
note_on channel=7 note=67 velocity=96 time=24
note_off channel=7 note=67 velocity=64 time=136
note_on channel=7 note=69 velocity=90 time=24
note_off channel=7 note=69 velocity=64 time=56
note_on channel=7 note=69 velocity=96 time=24
note_off channel=7 note=69 velocity=64 time=68
note_on channel=7 note=67 velocity=96 time=332
note_off channel=7 note=67 velocity=64 time=308
control_change channel=7 control=11 value=104 time=12
note_on channel=7 note=69 velocity=103 time=0
control_change channel=7 control=11 value=105 time=100
control_change channel=7 control=11 value=108 time=80
control_change channel=7 control=11 value=109 time=100
control_change channel=7 control=11 value=111 time=100
control_change channel=7 control=11 value=114 time=90
control_change channel=7 control=11 value=115 time=100
control_change channel=7 control=11 value=118 time=70
control_change channel=7 control=11 value=119 time=100
control_change channel=7 control=11 value=121 time=100
control_change channel=7 control=11 value=124 time=90
control_change channel=7 control=11 value=125 time=100
control_change channel=7 control=11 value=127 time=10
note_off channel=7 note=69 velocity=64 time=80
note_on channel=7 note=72 velocity=103 time=320
note_on channel=7 note=71 velocity=66 time=112
note_on channel=7 note=70 velocity=47 time=40
note_off channel=7 note=72 velocity=64 time=4
note_off channel=7 note=71 velocity=64 time=8
note_on channel=7 note=69 velocity=33 time=28
note_off channel=7 note=70 velocity=64 time=12
note_off channel=7 note=69 velocity=64 time=40
note_on channel=7 note=74 velocity=103 time=236
note_off channel=7 note=74 velocity=64 time=592
note_on channel=7 note=74 velocity=96 time=48
note_off channel=7 note=74 velocity=64 time=296
note_on channel=7 note=72 velocity=85 time=24
note_off channel=7 note=72 velocity=64 time=136
note_on channel=7 note=74 velocity=96 time=24
note_off channel=7 note=74 velocity=64 time=284
note_on channel=7 note=72 velocity=96 time=36
note_off channel=7 note=72 velocity=64 time=156
note_on channel=7 note=74 velocity=96 time=324
control_change channel=7 control=11 value=127 time=160
control_change channel=7 control=11 value=125 time=120
control_change channel=7 control=11 value=123 time=120
control_change channel=7 control=11 value=121 time=120
control_change channel=7 control=11 value=119 time=120
control_change channel=7 control=11 value=118 time=120
control_change channel=7 control=11 value=115 time=120
control_change channel=7 control=11 value=114 time=120
control_change channel=7 control=11 value=111 time=120
control_change channel=7 control=11 value=110 time=120
control_change channel=7 control=11 value=108 time=120
control_change channel=7 control=11 value=106 time=120
control_change channel=7 control=11 value=104 time=120
control_change channel=7 control=11 value=103 time=120
control_change channel=7 control=11 value=100 time=120
control_change channel=7 control=11 value=99 time=120
note_off channel=7 note=74 velocity=64 time=60
control_change channel=7 control=11 value=96 time=36
control_change channel=7 control=11 value=127 time=24
note_on channel=7 note=73 velocity=103 time=320
note_on channel=7 note=72 velocity=51 time=112
note_on channel=7 note=71 velocity=27 time=40
note_off channel=7 note=73 velocity=64 time=4
note_off channel=7 note=72 velocity=64 time=8
note_off channel=7 note=71 velocity=64 time=40
note_on channel=7 note=76 velocity=103 time=276
note_off channel=7 note=76 velocity=64 time=580
note_on channel=7 note=74 velocity=103 time=60
note_off channel=7 note=74 velocity=64 time=168
note_on channel=7 note=73 velocity=103 time=632
note_on channel=7 note=72 velocity=51 time=112
note_on channel=7 note=71 velocity=27 time=40
note_off channel=7 note=73 velocity=64 time=4
note_off channel=7 note=72 velocity=64 time=8
note_off channel=7 note=71 velocity=64 time=40
note_on channel=7 note=74 velocity=103 time=276
note_off channel=7 note=74 velocity=64 time=580
note_on channel=7 note=72 velocity=103 time=60
note_off channel=7 note=72 velocity=64 time=168
note_on channel=7 note=67 velocity=96 time=632
note_off channel=7 note=67 velocity=64 time=444
note_on channel=7 note=70 velocity=99 time=36
note_off channel=7 note=70 velocity=64 time=444
note_on channel=7 note=72 velocity=103 time=36
note_off channel=7 note=72 velocity=64 time=444
note_on channel=7 note=70 velocity=100 time=36
note_off channel=7 note=70 velocity=64 time=136
note_on channel=7 note=74 velocity=106 time=24
note_off channel=7 note=74 velocity=64 time=148
note_on channel=7 note=70 velocity=90 time=12
note_off channel=7 note=70 velocity=64 time=148
note_on channel=7 note=77 velocity=109 time=12
note_off channel=7 note=77 velocity=64 time=924
note_on channel=7 note=68 velocity=103 time=36
note_off channel=7 note=68 velocity=64 time=604
note_on channel=7 note=65 velocity=99 time=36
note_off channel=7 note=65 velocity=64 time=284
note_on channel=7 note=65 velocity=97 time=36
note_off channel=7 note=65 velocity=64 time=124
note_on channel=7 note=81 velocity=109 time=15236
note_off channel=7 note=81 velocity=64 time=604
note_on channel=7 note=76 velocity=109 time=36
note_off channel=7 note=76 velocity=64 time=296
note_on channel=7 note=74 velocity=109 time=24
note_off channel=7 note=74 velocity=64 time=136
note_on channel=7 note=81 velocity=109 time=824
note_off channel=7 note=81 velocity=64 time=604
note_on channel=7 note=75 velocity=109 time=36
note_off channel=7 note=75 velocity=64 time=296
note_on channel=7 note=72 velocity=109 time=24
note_off channel=7 note=72 velocity=64 time=136
note_on channel=7 note=81 velocity=109 time=824
note_off channel=7 note=81 velocity=64 time=604
note_on channel=7 note=76 velocity=109 time=36
note_off channel=7 note=76 velocity=64 time=296
note_on channel=7 note=74 velocity=109 time=24
note_off channel=7 note=74 velocity=64 time=136
note_on channel=7 note=81 velocity=109 time=824
note_off channel=7 note=81 velocity=64 time=604
note_on channel=7 note=75 velocity=109 time=36
note_off channel=7 note=75 velocity=64 time=296
note_on channel=7 note=72 velocity=109 time=24
note_off channel=7 note=72 velocity=64 time=136
note_on channel=7 note=81 velocity=109 time=824
note_off channel=7 note=81 velocity=64 time=580
note_on channel=7 note=81 velocity=109 time=60
note_off channel=7 note=81 velocity=64 time=168
note_on channel=7 note=81 velocity=109 time=312
note_off channel=7 note=81 velocity=64 time=168
note_on channel=7 note=81 velocity=109 time=312
note_off channel=7 note=81 velocity=64 time=296
note_on channel=7 note=84 velocity=96 time=24
note_off channel=7 note=84 velocity=64 time=148
note_on channel=7 note=81 velocity=109 time=12
note_off channel=7 note=81 velocity=64 time=311
note_on channel=7 note=81 velocity=109 time=9
pitchwheel channel=7 pitch=0 time=16
control_change channel=7 control=11 value=127 time=0
pitchwheel channel=7 pitch=242 time=24
control_change channel=7 control=11 value=124 time=72
control_change channel=7 control=11 value=121 time=96
pitchwheel channel=7 pitch=0 time=72
control_change channel=7 control=11 value=119 time=48
control_change channel=7 control=11 value=116 time=48
pitchwheel channel=7 pitch=-82 time=96
control_change channel=7 control=11 value=114 time=24
control_change channel=7 control=11 value=111 time=72
pitchwheel channel=7 pitch=-244 time=24
pitchwheel channel=7 pitch=-407 time=96
control_change channel=7 control=11 value=109 time=0
control_change channel=7 control=11 value=106 time=48
pitchwheel channel=7 pitch=-569 time=24
pitchwheel channel=7 pitch=-731 time=72
control_change channel=7 control=11 value=104 time=24
pitchwheel channel=7 pitch=-893 time=24
pitchwheel channel=7 pitch=-1055 time=48
control_change channel=7 control=11 value=101 time=0
pitchwheel channel=7 pitch=-1218 time=48
pitchwheel channel=7 pitch=-1380 time=24
pitchwheel channel=7 pitch=-1542 time=24
pitchwheel channel=7 pitch=-1704 time=24
control_change channel=7 control=11 value=99 time=0
note_off channel=7 note=81 velocity=64 time=24
pitchwheel channel=7 pitch=-2029 time=0
control_change channel=7 control=11 value=96 time=24
control_change channel=7 control=11 value=127 time=0
control_change channel=7 control=11 value=127 time=24
pitchwheel channel=7 pitch=0 time=0
note_on channel=7 note=79 velocity=109 time=320
note_on channel=7 note=78 velocity=45 time=112
note_on channel=7 note=77 velocity=35 time=40
note_off channel=7 note=79 velocity=64 time=8
note_off channel=7 note=78 velocity=64 time=4
note_off channel=7 note=77 velocity=64 time=40
note_on channel=7 note=79 velocity=109 time=436
note_off channel=7 note=79 velocity=64 time=168
note_on channel=7 note=79 velocity=109 time=312
note_off channel=7 note=79 velocity=64 time=168
note_on channel=7 note=80 velocity=109 time=792
note_off channel=7 note=80 velocity=64 time=296
note_on channel=7 note=80 velocity=109 time=24
note_off channel=7 note=80 velocity=64 time=192
note_on channel=7 note=77 velocity=96 time=288
note_off channel=7 note=77 velocity=64 time=148
note_on channel=7 note=80 velocity=109 time=12
note_off channel=7 note=80 velocity=64 time=308
note_on channel=7 note=80 velocity=103 time=12
note_off channel=7 note=80 velocity=64 time=136
note_on channel=7 note=77 velocity=109 time=24
note_off channel=7 note=77 velocity=64 time=296
note_on channel=7 note=74 velocity=109 time=24
note_off channel=7 note=74 velocity=64 time=136
note_on channel=7 note=74 velocity=109 time=1944
note_off channel=7 note=74 velocity=64 time=168
note_on channel=7 note=76 velocity=109 time=312
note_off channel=7 note=76 velocity=64 time=296
note_on channel=7 note=77 velocity=109 time=24
note_off channel=7 note=77 velocity=64 time=180
note_on channel=7 note=84 velocity=109 time=300
note_on channel=7 note=86 velocity=90 time=1440
note_off channel=7 note=84 velocity=64 time=16
note_on channel=7 note=85 velocity=99 time=64
note_off channel=7 note=86 velocity=64 time=24
note_on channel=7 note=81 velocity=109 time=56
note_off channel=7 note=85 velocity=64 time=24
note_off channel=7 note=81 velocity=64 time=284
note_on channel=7 note=76 velocity=109 time=12
pitchwheel channel=7 pitch=0 time=160
control_change channel=7 control=11 value=127 time=0
pitchwheel channel=7 pitch=242 time=12
control_change channel=7 control=11 value=124 time=72
control_change channel=7 control=11 value=121 time=72
pitchwheel channel=7 pitch=0 time=48
control_change channel=7 control=11 value=119 time=60
control_change channel=7 control=11 value=116 time=48
pitchwheel channel=7 pitch=-82 time=36
control_change channel=7 control=11 value=114 time=72
pitchwheel channel=7 pitch=-244 time=24
control_change channel=7 control=11 value=111 time=24
pitchwheel channel=7 pitch=-407 time=48
pitchwheel channel=7 pitch=-569 time=60
control_change channel=7 control=11 value=109 time=0
control_change channel=7 control=11 value=106 time=48
pitchwheel channel=7 pitch=-731 time=12
pitchwheel channel=7 pitch=-893 time=36
pitchwheel channel=7 pitch=-1055 time=48
control_change channel=7 control=11 value=104 time=12
pitchwheel channel=7 pitch=-1218 time=24
pitchwheel channel=7 pitch=-1380 time=24
control_change channel=7 control=11 value=101 time=0
pitchwheel channel=7 pitch=-1542 time=36
pitchwheel channel=7 pitch=-1704 time=24
pitchwheel channel=7 pitch=-1866 time=12
pitchwheel channel=7 pitch=-2029 time=24
pitchwheel channel=7 pitch=-2191 time=12
control_change channel=7 control=11 value=99 time=0
pitchwheel channel=7 pitch=-2353 time=12
note_off channel=7 note=76 velocity=64 time=12
pitchwheel channel=7 pitch=-2515 time=0
pitchwheel channel=7 pitch=-2840 time=12
control_change channel=7 control=11 value=96 time=12
control_change channel=7 control=11 value=127 time=24
pitchwheel channel=7 pitch=0 time=0
note_on channel=7 note=79 velocity=109 time=1280
note_off channel=7 note=79 velocity=64 time=604
note_on channel=7 note=81 velocity=109 time=36
note_off channel=7 note=81 velocity=64 time=180
note_on channel=7 note=82 velocity=109 time=300
note_off channel=7 note=82 velocity=64 time=296
note_on channel=7 note=81 velocity=109 time=24
note_off channel=7 note=81 velocity=64 time=136
note_on channel=7 note=81 velocity=109 time=344
note_off channel=7 note=81 velocity=64 time=180
note_on channel=7 note=79 velocity=103 time=300
note_off channel=7 note=79 velocity=64 time=148
note_on channel=7 note=77 velocity=109 time=12
note_off channel=7 note=77 velocity=64 time=456
note_on channel=7 note=76 velocity=109 time=24
note_off channel=7 note=76 velocity=64 time=156
note_on channel=7 note=86 velocity=116 time=804
note_off channel=7 note=86 velocity=64 time=912
note_on channel=7 note=84 velocity=109 time=48
note_off channel=7 note=84 velocity=64 time=180
control_change channel=7 control=11 value=104 time=300
note_on channel=7 note=82 velocity=115 time=0
control_change channel=7 control=11 value=106 time=108
control_change channel=7 control=11 value=109 time=108
note_off channel=7 note=82 velocity=64 time=92
note_on channel=7 note=84 velocity=115 time=12
control_change channel=7 control=11 value=111 time=4
control_change channel=7 control=11 value=114 time=108
control_change channel=7 control=11 value=116 time=108
control_change channel=7 control=11 value=119 time=108
control_change channel=7 control=11 value=121 time=108
control_change channel=7 control=11 value=124 time=108
note_off channel=7 note=84 velocity=64 time=60
control_change channel=7 control=11 value=127 time=36
control_change channel=7 control=11 value=127 time=0
note_on channel=7 note=81 velocity=115 time=0
control_change channel=7 control=11 value=124 time=84
control_change channel=7 control=11 value=121 time=84
control_change channel=7 control=11 value=119 time=108
note_off channel=7 note=81 velocity=64 time=32
note_on channel=7 note=75 velocity=115 time=12
control_change channel=7 control=11 value=116 time=4
control_change channel=7 control=11 value=114 time=108
control_change channel=7 control=11 value=111 time=48
control_change channel=7 control=11 value=109 time=108
control_change channel=7 control=11 value=106 time=60
control_change channel=7 control=11 value=104 time=108
control_change channel=7 control=11 value=101 time=48
note_off channel=7 note=75 velocity=64 time=108
control_change channel=7 control=11 value=99 time=0
control_change channel=7 control=11 value=96 time=48
control_change channel=7 control=11 value=127 time=0
control_change channel=7 control=11 value=127 time=12
note_on channel=7 note=74 velocity=110 time=15668
note_off channel=7 note=74 velocity=64 time=168
note_on channel=7 note=76 velocity=110 time=312
note_off channel=7 note=76 velocity=64 time=136
note_on channel=7 note=77 velocity=110 time=24
note_off channel=7 note=77 velocity=64 time=168
note_on channel=7 note=79 velocity=110 time=312
note_off channel=7 note=79 velocity=64 time=168
control_change channel=7 control=93 value=30 time=312
note_on channel=7 note=80 velocity=109 time=0
note_off channel=7 note=80 velocity=64 time=444
note_on channel=7 note=82 velocity=109 time=36
note_off channel=7 note=82 velocity=64 time=296
note_on channel=7 note=84 velocity=109 time=24
note_off channel=7 note=84 velocity=64 time=136
note_on channel=7 note=72 velocity=109 time=824
note_off channel=7 note=72 velocity=64 time=604
note_on channel=7 note=74 velocity=109 time=36
note_off channel=7 note=74 velocity=64 time=296
note_on channel=7 note=72 velocity=96 time=24
note_off channel=7 note=72 velocity=64 time=136
note_on channel=7 note=77 velocity=109 time=24
note_off channel=7 note=77 velocity=64 time=284
note_on channel=7 note=79 velocity=109 time=36
note_off channel=7 note=79 velocity=64 time=168
note_on channel=7 note=81 velocity=109 time=312
note_off channel=7 note=81 velocity=64 time=604
note_on channel=7 note=84 velocity=109 time=36
note_off channel=7 note=84 velocity=64 time=296
note_on channel=7 note=82 velocity=109 time=24
note_off channel=7 note=82 velocity=64 time=124
note_on channel=7 note=80 velocity=109 time=1316
note_off channel=7 note=80 velocity=64 time=568
note_on channel=7 note=81 velocity=109 time=72
note_off channel=7 note=81 velocity=64 time=156
note_on channel=7 note=74 velocity=109 time=324
note_off channel=7 note=74 velocity=64 time=156
note_on channel=7 note=80 velocity=109 time=324
note_off channel=7 note=80 velocity=64 time=782
note_on channel=7 note=81 velocity=109 time=18
note_off channel=7 note=81 velocity=64 time=1060
control_change channel=7 control=0 value=56 time=7740
control_change channel=7 control=32 value=0 time=0
program_change channel=7 program=59 time=0
note_on channel=7 note=74 velocity=75 time=2720
control_change channel=7 control=11 value=127 time=1120
control_change channel=7 control=11 value=125 time=120
control_change channel=7 control=11 value=124 time=120
control_change channel=7 control=11 value=123 time=120
control_change channel=7 control=11 value=121 time=120
control_change channel=7 control=11 value=120 time=120
control_change channel=7 control=11 value=119 time=120
control_change channel=7 control=11 value=118 time=120
control_change channel=7 control=11 value=116 time=120
control_change channel=7 control=11 value=115 time=120
control_change channel=7 control=11 value=114 time=120
control_change channel=7 control=11 value=113 time=120
control_change channel=7 control=11 value=111 time=120
control_change channel=7 control=11 value=110 time=120
control_change channel=7 control=11 value=109 time=120
control_change channel=7 control=11 value=108 time=120
control_change channel=7 control=11 value=106 time=120
control_change channel=7 control=11 value=105 time=120
control_change channel=7 control=11 value=104 time=120
control_change channel=7 control=11 value=103 time=120
control_change channel=7 control=11 value=101 time=120
control_change channel=7 control=11 value=100 time=120
control_change channel=7 control=11 value=99 time=120
control_change channel=7 control=11 value=98 time=120
note_off channel=7 note=74 velocity=64 time=96
control_change channel=7 control=11 value=96 time=0
<meta message end_of_track time=0>
<meta message text text='Trumpet 2' time=0>
control_change channel=8 control=11 value=127 time=0
control_change channel=8 control=7 value=106 time=0
control_change channel=8 control=91 value=89 time=0
control_change channel=8 control=93 value=25 time=0
control_change channel=8 control=0 value=56 time=0
control_change channel=8 control=32 value=0 time=0
program_change channel=8 program=56 time=0
note_on channel=8 note=75 velocity=94 time=13760
note_off channel=8 note=75 velocity=64 time=580
note_on channel=8 note=76 velocity=94 time=60
note_off channel=8 note=76 velocity=64 time=168
note_on channel=8 note=69 velocity=94 time=312
note_off channel=8 note=69 velocity=64 time=168
note_on channel=8 note=75 velocity=94 time=312
note_off channel=8 note=75 velocity=64 time=764
note_on channel=8 note=76 velocity=94 time=36
note_off channel=8 note=76 velocity=64 time=592
note_on channel=8 note=70 velocity=94 time=48
note_off channel=8 note=70 velocity=64 time=272
note_on channel=8 note=74 velocity=94 time=48
note_off channel=8 note=74 velocity=64 time=124
note_on channel=8 note=62 velocity=50 time=19556
note_off channel=8 note=62 velocity=64 time=124
note_on channel=8 note=69 velocity=55 time=36
note_off channel=8 note=69 velocity=64 time=132
note_on channel=8 note=70 velocity=50 time=348
note_off channel=8 note=70 velocity=64 time=294
control_change channel=8 control=11 value=109 time=26
note_on channel=8 note=74 velocity=58 time=0
control_change channel=8 control=11 value=110 time=100
control_change channel=8 control=11 value=111 time=100
control_change channel=8 control=11 value=113 time=100
control_change channel=8 control=11 value=114 time=100
control_change channel=8 control=11 value=115 time=100
control_change channel=8 control=11 value=116 time=100
control_change channel=8 control=11 value=118 time=100
control_change channel=8 control=11 value=119 time=100
control_change channel=8 control=11 value=120 time=100
control_change channel=8 control=11 value=121 time=100
control_change channel=8 control=11 value=123 time=100
control_change channel=8 control=11 value=124 time=100
control_change channel=8 control=11 value=125 time=100
control_change channel=8 control=11 value=127 time=60
note_off channel=8 note=74 velocity=64 time=44
note_on channel=8 note=70 velocity=70 time=36
note_off channel=8 note=70 velocity=64 time=112
note_on channel=8 note=70 velocity=55 time=368
note_off channel=8 note=70 velocity=64 time=144
note_on channel=8 note=70 velocity=50 time=336
note_off channel=8 note=70 velocity=64 time=136
note_on channel=8 note=60 velocity=55 time=24
note_off channel=8 note=60 velocity=64 time=284
note_on channel=8 note=60 velocity=50 time=36
note_off channel=8 note=60 velocity=64 time=136
note_on channel=8 note=64 velocity=55 time=24
note_off channel=8 note=64 velocity=64 time=120
note_on channel=8 note=68 velocity=55 time=360
note_off channel=8 note=68 velocity=64 time=284
note_on channel=8 note=72 velocity=55 time=36
note_off channel=8 note=72 velocity=64 time=120
note_on channel=8 note=67 velocity=55 time=360
control_change channel=8 control=11 value=127 time=232
control_change channel=8 control=11 value=120 time=24
control_change channel=8 control=11 value=114 time=24
control_change channel=8 control=11 value=108 time=24
control_change channel=8 control=11 value=101 time=24
control_change channel=8 control=11 value=94 time=24
control_change channel=8 control=11 value=96 time=120
control_change channel=8 control=11 value=99 time=120
control_change channel=8 control=11 value=101 time=120
control_change channel=8 control=11 value=104 time=120
control_change channel=8 control=11 value=106 time=120
control_change channel=8 control=11 value=109 time=120
control_change channel=8 control=11 value=111 time=120
control_change channel=8 control=11 value=114 time=120
control_change channel=8 control=11 value=116 time=120
control_change channel=8 control=11 value=119 time=120
control_change channel=8 control=11 value=121 time=120
control_change channel=8 control=11 value=124 time=120
control_change channel=8 control=11 value=127 time=120
note_off channel=8 note=67 velocity=64 time=120
note_on channel=8 note=62 velocity=54 time=528
note_off channel=8 note=62 velocity=64 time=120
note_on channel=8 note=66 velocity=56 time=360
note_off channel=8 note=66 velocity=64 time=284
note_on channel=8 note=70 velocity=59 time=36
note_off channel=8 note=70 velocity=64 time=108
note_on channel=8 note=74 velocity=65 time=372
note_off channel=8 note=74 velocity=64 time=592
note_on channel=8 note=72 velocity=60 time=48
note_off channel=8 note=72 velocity=64 time=296
note_on channel=8 note=70 velocity=50 time=24
note_off channel=8 note=70 velocity=64 time=134
note_on channel=8 note=67 velocity=55 time=26
note_off channel=8 note=67 velocity=64 time=284
note_on channel=8 note=67 velocity=55 time=36
note_off channel=8 note=67 velocity=64 time=120
control_change channel=8 control=93 value=50 time=40
note_on channel=8 note=66 velocity=70 time=320
note_off channel=8 note=66 velocity=64 time=468
note_on channel=8 note=65 velocity=63 time=12
note_off channel=8 note=65 velocity=64 time=160
note_on channel=8 note=66 velocity=69 time=0
note_off channel=8 note=66 velocity=64 time=192
note_on channel=8 note=65 velocity=67 time=288
note_off channel=8 note=65 velocity=64 time=308
note_on channel=8 note=66 velocity=59 time=12
note_off channel=8 note=66 velocity=64 time=160
note_on channel=8 note=65 velocity=66 time=0
note_off channel=8 note=65 velocity=64 time=192
note_on channel=8 note=64 velocity=65 time=288
note_off channel=8 note=64 velocity=64 time=308
note_on channel=8 note=65 velocity=58 time=12
note_off channel=8 note=65 velocity=64 time=160
note_on channel=8 note=64 velocity=63 time=0
note_off channel=8 note=64 velocity=64 time=308
note_on channel=8 note=63 velocity=62 time=12
note_off channel=8 note=63 velocity=64 time=592
control_change channel=8 control=93 value=25 time=48
note_on channel=8 note=66 velocity=61 time=0
note_off channel=8 note=66 velocity=64 time=284
note_on channel=8 note=65 velocity=60 time=36
note_off channel=8 note=65 velocity=64 time=112
note_on channel=8 note=74 velocity=75 time=3248
note_off channel=8 note=74 velocity=64 time=136
note_on channel=8 note=72 velocity=72 time=24
note_off channel=8 note=72 velocity=64 time=296
note_on channel=8 note=69 velocity=63 time=24
note_off channel=8 note=69 velocity=64 time=136
note_on channel=8 note=74 velocity=75 time=3224
note_off channel=8 note=74 velocity=64 time=136
note_on channel=8 note=72 velocity=72 time=24
note_off channel=8 note=72 velocity=64 time=296
note_on channel=8 note=69 velocity=63 time=24
note_off channel=8 note=69 velocity=64 time=136
note_on channel=8 note=62 velocity=62 time=8024
note_off channel=8 note=62 velocity=64 time=136
note_on channel=8 note=69 velocity=69 time=24
note_off channel=8 note=69 velocity=64 time=144
note_on channel=8 note=70 velocity=75 time=336
note_off channel=8 note=70 velocity=64 time=296
note_on channel=8 note=74 velocity=62 time=24
note_off channel=8 note=74 velocity=64 time=136
note_on channel=8 note=77 velocity=72 time=24
note_off channel=8 note=77 velocity=64 time=296
note_on channel=8 note=77 velocity=81 time=24
note_off channel=8 note=77 velocity=64 time=604
note_on channel=8 note=73 velocity=71 time=36
note_off channel=8 note=73 velocity=64 time=308
note_on channel=8 note=73 velocity=77 time=12
control_change channel=8 control=11 value=127 time=16
control_change channel=8 control=11 value=125 time=120
control_change channel=8 control=11 value=123 time=120
control_change channel=8 control=11 value=121 time=120
control_change channel=8 control=11 value=119 time=120
control_change channel=8 control=11 value=118 time=120
control_change channel=8 control=11 value=115 time=96
control_change channel=8 control=11 value=114 time=120
control_change channel=8 control=11 value=111 time=120
note_off channel=8 note=73 velocity=64 time=120
control_change channel=8 control=11 value=110 time=0
control_change channel=8 control=11 value=109 time=24
control_change channel=8 control=11 value=127 time=24
note_on channel=8 note=62 velocity=62 time=320
note_off channel=8 note=62 velocity=64 time=136
note_on channel=8 note=64 velocity=69 time=24
note_off channel=8 note=64 velocity=64 time=144
note_on channel=8 note=65 velocity=76 time=336
note_off channel=8 note=65 velocity=64 time=296
note_on channel=8 note=69 velocity=62 time=24
note_off channel=8 note=69 velocity=64 time=136
note_on channel=8 note=69 velocity=72 time=24
note_off channel=8 note=69 velocity=64 time=296
note_on channel=8 note=72 velocity=81 time=24
note_off channel=8 note=72 velocity=64 time=604
note_on channel=8 note=69 velocity=72 time=36
note_off channel=8 note=69 velocity=64 time=308
note_on channel=8 note=68 velocity=77 time=12
control_change channel=8 control=11 value=127 time=16
control_change channel=8 control=11 value=125 time=120
control_change channel=8 control=11 value=123 time=120
control_change channel=8 control=11 value=121 time=120
control_change channel=8 control=11 value=119 time=120
control_change channel=8 control=11 value=118 time=120
control_change channel=8 control=11 value=115 time=96
control_change channel=8 control=11 value=114 time=120
control_change channel=8 control=11 value=111 time=120
note_off channel=8 note=68 velocity=64 time=120
control_change channel=8 control=11 value=110 time=0
control_change channel=8 control=11 value=109 time=24
control_change channel=8 control=11 value=127 time=24
note_on channel=8 note=63 velocity=69 time=7040
note_off channel=8 note=63 velocity=64 time=580
note_on channel=8 note=64 velocity=69 time=60
note_off channel=8 note=64 velocity=64 time=144
note_on channel=8 note=64 velocity=69 time=336
note_off channel=8 note=64 velocity=64 time=296
note_on channel=8 note=62 velocity=69 time=24
note_off channel=8 note=62 velocity=64 time=136
note_on channel=8 note=64 velocity=62 time=24
note_off channel=8 note=64 velocity=64 time=56
note_on channel=8 note=64 velocity=69 time=24
note_off channel=8 note=64 velocity=64 time=68
note_on channel=8 note=63 velocity=69 time=332
note_off channel=8 note=63 velocity=64 time=308
control_change channel=8 control=11 value=104 time=12
note_on channel=8 note=64 velocity=75 time=0
control_change channel=8 control=11 value=105 time=100
control_change channel=8 control=11 value=108 time=80
control_change channel=8 control=11 value=109 time=100
control_change channel=8 control=11 value=111 time=100
control_change channel=8 control=11 value=114 time=90
control_change channel=8 control=11 value=115 time=100
control_change channel=8 control=11 value=118 time=70
control_change channel=8 control=11 value=119 time=100
control_change channel=8 control=11 value=121 time=100
control_change channel=8 control=11 value=124 time=90
control_change channel=8 control=11 value=125 time=100
control_change channel=8 control=11 value=127 time=10
note_off channel=8 note=64 velocity=64 time=80
note_on channel=8 note=68 velocity=76 time=320
note_on channel=8 note=67 velocity=40 time=112
note_on channel=8 note=66 velocity=28 time=40
note_off channel=8 note=68 velocity=64 time=4
note_off channel=8 note=67 velocity=64 time=8
note_on channel=8 note=65 velocity=17 time=28
note_off channel=8 note=66 velocity=64 time=12
note_off channel=8 note=65 velocity=64 time=40
note_on channel=8 note=69 velocity=75 time=236
note_off channel=8 note=69 velocity=64 time=592
note_on channel=8 note=69 velocity=69 time=48
note_off channel=8 note=69 velocity=64 time=296
note_on channel=8 note=69 velocity=57 time=24
note_off channel=8 note=69 velocity=64 time=136
note_on channel=8 note=69 velocity=69 time=24
note_off channel=8 note=69 velocity=64 time=284
note_on channel=8 note=67 velocity=69 time=36
note_off channel=8 note=67 velocity=64 time=156
note_on channel=8 note=71 velocity=69 time=324
control_change channel=8 control=11 value=127 time=160
control_change channel=8 control=11 value=125 time=120
control_change channel=8 control=11 value=123 time=120
control_change channel=8 control=11 value=121 time=120
control_change channel=8 control=11 value=119 time=120
control_change channel=8 control=11 value=118 time=120
control_change channel=8 control=11 value=115 time=120
control_change channel=8 control=11 value=114 time=120
control_change channel=8 control=11 value=111 time=120
control_change channel=8 control=11 value=110 time=120
control_change channel=8 control=11 value=108 time=120
control_change channel=8 control=11 value=106 time=120
control_change channel=8 control=11 value=104 time=120
control_change channel=8 control=11 value=103 time=120
control_change channel=8 control=11 value=100 time=120
control_change channel=8 control=11 value=99 time=120
note_off channel=8 note=71 velocity=64 time=60
control_change channel=8 control=11 value=96 time=36
control_change channel=8 control=11 value=127 time=24
note_on channel=8 note=69 velocity=75 time=320
note_on channel=8 note=68 velocity=30 time=112
note_on channel=8 note=67 velocity=20 time=40
note_off channel=8 note=69 velocity=64 time=4
note_off channel=8 note=68 velocity=64 time=8
note_off channel=8 note=67 velocity=64 time=40
note_on channel=8 note=73 velocity=75 time=276
note_off channel=8 note=73 velocity=64 time=580
note_on channel=8 note=71 velocity=75 time=60
note_off channel=8 note=71 velocity=64 time=168
note_on channel=8 note=69 velocity=74 time=632
note_on channel=8 note=68 velocity=32 time=112
note_on channel=8 note=67 velocity=23 time=40
note_off channel=8 note=69 velocity=64 time=4
note_off channel=8 note=68 velocity=64 time=8
note_off channel=8 note=67 velocity=64 time=40
note_on channel=8 note=69 velocity=75 time=276
note_off channel=8 note=69 velocity=64 time=580
note_on channel=8 note=69 velocity=75 time=60
note_off channel=8 note=69 velocity=64 time=168
note_on channel=8 note=63 velocity=69 time=632
note_off channel=8 note=63 velocity=64 time=444
note_on channel=8 note=67 velocity=71 time=36
note_off channel=8 note=67 velocity=64 time=444
note_on channel=8 note=70 velocity=74 time=36
note_off channel=8 note=70 velocity=64 time=444
note_on channel=8 note=67 velocity=66 time=36
note_off channel=8 note=67 velocity=64 time=136
note_on channel=8 note=70 velocity=79 time=24
note_off channel=8 note=70 velocity=64 time=148
note_on channel=8 note=67 velocity=65 time=12
note_off channel=8 note=67 velocity=64 time=148
note_on channel=8 note=72 velocity=80 time=12
note_off channel=8 note=72 velocity=64 time=924
note_on channel=8 note=65 velocity=75 time=36
note_off channel=8 note=65 velocity=64 time=604
note_on channel=8 note=62 velocity=69 time=36
note_off channel=8 note=62 velocity=64 time=284
note_on channel=8 note=62 velocity=70 time=36
note_off channel=8 note=62 velocity=64 time=124
note_on channel=8 note=77 velocity=81 time=15236
note_off channel=8 note=77 velocity=64 time=604
note_on channel=8 note=71 velocity=81 time=36
note_off channel=8 note=71 velocity=64 time=296
note_on channel=8 note=71 velocity=81 time=24
note_off channel=8 note=71 velocity=64 time=136
note_on channel=8 note=76 velocity=81 time=824
note_off channel=8 note=76 velocity=64 time=604
note_on channel=8 note=72 velocity=81 time=36
note_off channel=8 note=72 velocity=64 time=296
note_on channel=8 note=69 velocity=81 time=24
note_off channel=8 note=69 velocity=64 time=136
note_on channel=8 note=77 velocity=81 time=824
note_off channel=8 note=77 velocity=64 time=604
note_on channel=8 note=71 velocity=81 time=36
note_off channel=8 note=71 velocity=64 time=296
note_on channel=8 note=72 velocity=81 time=24
note_off channel=8 note=72 velocity=64 time=136
note_on channel=8 note=78 velocity=81 time=824
note_off channel=8 note=78 velocity=64 time=604
note_on channel=8 note=72 velocity=81 time=36
note_off channel=8 note=72 velocity=64 time=296
note_on channel=8 note=69 velocity=81 time=24
note_off channel=8 note=69 velocity=64 time=136
note_on channel=8 note=77 velocity=81 time=824
note_off channel=8 note=77 velocity=64 time=580
note_on channel=8 note=77 velocity=81 time=60
note_off channel=8 note=77 velocity=64 time=168
note_on channel=8 note=77 velocity=81 time=312
note_off channel=8 note=77 velocity=64 time=168
note_on channel=8 note=77 velocity=81 time=312
note_off channel=8 note=77 velocity=64 time=296
note_on channel=8 note=81 velocity=69 time=24
note_off channel=8 note=81 velocity=64 time=148
note_on channel=8 note=77 velocity=81 time=12
note_off channel=8 note=77 velocity=64 time=311
note_on channel=8 note=76 velocity=81 time=9
pitchwheel channel=8 pitch=0 time=16
control_change channel=8 control=11 value=127 time=0
pitchwheel channel=8 pitch=242 time=24
control_change channel=8 control=11 value=124 time=72
control_change channel=8 control=11 value=121 time=96
pitchwheel channel=8 pitch=0 time=72
control_change channel=8 control=11 value=119 time=48
control_change channel=8 control=11 value=116 time=48
pitchwheel channel=8 pitch=-82 time=96
control_change channel=8 control=11 value=114 time=24
control_change channel=8 control=11 value=111 time=72
pitchwheel channel=8 pitch=-244 time=24
pitchwheel channel=8 pitch=-407 time=96
control_change channel=8 control=11 value=109 time=0
control_change channel=8 control=11 value=106 time=48
pitchwheel channel=8 pitch=-569 time=24
pitchwheel channel=8 pitch=-731 time=72
control_change channel=8 control=11 value=104 time=24
pitchwheel channel=8 pitch=-893 time=24
pitchwheel channel=8 pitch=-1055 time=48
control_change channel=8 control=11 value=101 time=0
pitchwheel channel=8 pitch=-1218 time=48
pitchwheel channel=8 pitch=-1380 time=24
pitchwheel channel=8 pitch=-1542 time=24
pitchwheel channel=8 pitch=-1704 time=24
control_change channel=8 control=11 value=99 time=0
note_off channel=8 note=76 velocity=64 time=24
pitchwheel channel=8 pitch=-2029 time=0
control_change channel=8 control=11 value=96 time=24
control_change channel=8 control=11 value=127 time=0
control_change channel=8 control=11 value=127 time=24
pitchwheel channel=8 pitch=0 time=0
note_on channel=8 note=74 velocity=81 time=320
note_on channel=8 note=73 velocity=30 time=112
note_on channel=8 note=72 velocity=20 time=40
note_off channel=8 note=74 velocity=64 time=8
note_off channel=8 note=73 velocity=64 time=4
note_off channel=8 note=72 velocity=64 time=40
note_on channel=8 note=74 velocity=81 time=436
note_off channel=8 note=74 velocity=64 time=168
note_on channel=8 note=74 velocity=81 time=312
note_off channel=8 note=74 velocity=64 time=168
note_on channel=8 note=77 velocity=81 time=792
note_off channel=8 note=77 velocity=64 time=296
note_on channel=8 note=77 velocity=81 time=24
note_off channel=8 note=77 velocity=64 time=192
note_on channel=8 note=72 velocity=69 time=288
note_off channel=8 note=72 velocity=64 time=148
note_on channel=8 note=77 velocity=81 time=12
note_off channel=8 note=77 velocity=64 time=308
note_on channel=8 note=77 velocity=75 time=12
note_off channel=8 note=77 velocity=64 time=136
note_on channel=8 note=74 velocity=81 time=24
note_off channel=8 note=74 velocity=64 time=296
note_on channel=8 note=70 velocity=81 time=24
note_off channel=8 note=70 velocity=64 time=136
note_on channel=8 note=71 velocity=81 time=1944
note_off channel=8 note=71 velocity=64 time=168
note_on channel=8 note=70 velocity=81 time=312
note_off channel=8 note=70 velocity=64 time=296
note_on channel=8 note=70 velocity=81 time=24
note_off channel=8 note=70 velocity=64 time=180
note_on channel=8 note=79 velocity=81 time=300
note_on channel=8 note=81 velocity=59 time=1440
note_off channel=8 note=79 velocity=64 time=16
note_on channel=8 note=80 velocity=70 time=64
note_off channel=8 note=81 velocity=64 time=24
note_on channel=8 note=76 velocity=81 time=56
note_off channel=8 note=80 velocity=64 time=24
note_off channel=8 note=76 velocity=64 time=284
note_on channel=8 note=71 velocity=81 time=12
pitchwheel channel=8 pitch=0 time=160
control_change channel=8 control=11 value=127 time=0
pitchwheel channel=8 pitch=242 time=12
control_change channel=8 control=11 value=124 time=72
control_change channel=8 control=11 value=121 time=72
pitchwheel channel=8 pitch=0 time=48
control_change channel=8 control=11 value=119 time=60
control_change channel=8 control=11 value=116 time=48
pitchwheel channel=8 pitch=-82 time=36
control_change channel=8 control=11 value=114 time=72
pitchwheel channel=8 pitch=-244 time=24
control_change channel=8 control=11 value=111 time=24
pitchwheel channel=8 pitch=-407 time=48
pitchwheel channel=8 pitch=-569 time=60
control_change channel=8 control=11 value=109 time=0
control_change channel=8 control=11 value=106 time=48
pitchwheel channel=8 pitch=-731 time=12
pitchwheel channel=8 pitch=-893 time=36
pitchwheel channel=8 pitch=-1055 time=48
control_change channel=8 control=11 value=104 time=12
pitchwheel channel=8 pitch=-1218 time=24
pitchwheel channel=8 pitch=-1380 time=24
control_change channel=8 control=11 value=101 time=0
pitchwheel channel=8 pitch=-1542 time=36
pitchwheel channel=8 pitch=-1704 time=24
pitchwheel channel=8 pitch=-1866 time=12
pitchwheel channel=8 pitch=-2029 time=24
pitchwheel channel=8 pitch=-2191 time=12
control_change channel=8 control=11 value=99 time=0
pitchwheel channel=8 pitch=-2353 time=12
note_off channel=8 note=71 velocity=64 time=12
pitchwheel channel=8 pitch=-2515 time=0
pitchwheel channel=8 pitch=-2840 time=12
control_change channel=8 control=11 value=96 time=12
control_change channel=8 control=11 value=127 time=24
pitchwheel channel=8 pitch=0 time=0
note_on channel=8 note=74 velocity=81 time=1280
note_off channel=8 note=74 velocity=64 time=604
note_on channel=8 note=78 velocity=81 time=36
note_off channel=8 note=78 velocity=64 time=180
note_on channel=8 note=78 velocity=81 time=300
note_off channel=8 note=78 velocity=64 time=296
note_on channel=8 note=77 velocity=81 time=24
note_off channel=8 note=77 velocity=64 time=136
note_on channel=8 note=77 velocity=81 time=344
note_off channel=8 note=77 velocity=64 time=180
note_on channel=8 note=74 velocity=75 time=300
note_off channel=8 note=74 velocity=64 time=148
note_on channel=8 note=74 velocity=81 time=12
note_off channel=8 note=74 velocity=64 time=456
note_on channel=8 note=72 velocity=81 time=24
note_off channel=8 note=72 velocity=64 time=156
note_on channel=8 note=81 velocity=88 time=804
note_off channel=8 note=81 velocity=64 time=912
note_on channel=8 note=79 velocity=81 time=48
note_off channel=8 note=79 velocity=64 time=180
control_change channel=8 control=11 value=104 time=300
note_on channel=8 note=79 velocity=88 time=0
control_change channel=8 control=11 value=106 time=108
control_change channel=8 control=11 value=109 time=108
note_off channel=8 note=79 velocity=64 time=92
note_on channel=8 note=81 velocity=88 time=12
control_change channel=8 control=11 value=111 time=4
control_change channel=8 control=11 value=114 time=108
control_change channel=8 control=11 value=116 time=108
control_change channel=8 control=11 value=119 time=108
control_change channel=8 control=11 value=121 time=108
control_change channel=8 control=11 value=124 time=108
note_off channel=8 note=81 velocity=64 time=60
control_change channel=8 control=11 value=127 time=36
control_change channel=8 control=11 value=127 time=0
note_on channel=8 note=78 velocity=88 time=0
control_change channel=8 control=11 value=124 time=84
control_change channel=8 control=11 value=121 time=84
control_change channel=8 control=11 value=119 time=108
note_off channel=8 note=78 velocity=64 time=32
note_on channel=8 note=72 velocity=88 time=12
control_change channel=8 control=11 value=116 time=4
control_change channel=8 control=11 value=114 time=108
control_change channel=8 control=11 value=111 time=48
control_change channel=8 control=11 value=109 time=108
control_change channel=8 control=11 value=106 time=60
control_change channel=8 control=11 value=104 time=108
control_change channel=8 control=11 value=101 time=48
note_off channel=8 note=72 velocity=64 time=108
control_change channel=8 control=11 value=99 time=0
control_change channel=8 control=11 value=96 time=48
control_change channel=8 control=11 value=127 time=0
control_change channel=8 control=11 value=127 time=12
note_on channel=8 note=74 velocity=75 time=3188
note_off channel=8 note=74 velocity=64 time=136
note_on channel=8 note=72 velocity=72 time=24
note_off channel=8 note=72 velocity=64 time=296
note_on channel=8 note=69 velocity=63 time=24
note_off channel=8 note=69 velocity=64 time=136
note_on channel=8 note=74 velocity=75 time=3224
note_off channel=8 note=74 velocity=64 time=136
note_on channel=8 note=72 velocity=72 time=24
note_off channel=8 note=72 velocity=64 time=296
note_on channel=8 note=69 velocity=63 time=24
note_off channel=8 note=69 velocity=64 time=136
note_on channel=8 note=70 velocity=81 time=8024
note_off channel=8 note=70 velocity=64 time=168
note_on channel=8 note=72 velocity=81 time=312
note_off channel=8 note=72 velocity=64 time=136
note_on channel=8 note=74 velocity=81 time=24
note_off channel=8 note=74 velocity=64 time=168
note_on channel=8 note=74 velocity=81 time=312
note_off channel=8 note=74 velocity=64 time=168
control_change channel=8 control=93 value=30 time=312
note_on channel=8 note=77 velocity=81 time=0
note_off channel=8 note=77 velocity=64 time=444
note_on channel=8 note=77 velocity=81 time=36
note_off channel=8 note=77 velocity=64 time=296
note_on channel=8 note=79 velocity=81 time=24
note_off channel=8 note=79 velocity=64 time=136
note_on channel=8 note=69 velocity=81 time=824
note_off channel=8 note=69 velocity=64 time=604
note_on channel=8 note=72 velocity=81 time=36
note_off channel=8 note=72 velocity=64 time=296
note_on channel=8 note=69 velocity=69 time=24
note_off channel=8 note=69 velocity=64 time=136
note_on channel=8 note=74 velocity=81 time=24
note_off channel=8 note=74 velocity=64 time=284
note_on channel=8 note=76 velocity=81 time=36
note_off channel=8 note=76 velocity=64 time=168
note_on channel=8 note=75 velocity=81 time=312
note_off channel=8 note=75 velocity=64 time=604
note_on channel=8 note=79 velocity=81 time=36
note_off channel=8 note=79 velocity=64 time=296
note_on channel=8 note=78 velocity=81 time=24
note_off channel=8 note=78 velocity=64 time=124
note_on channel=8 note=75 velocity=81 time=1316
note_off channel=8 note=75 velocity=64 time=568
note_on channel=8 note=76 velocity=81 time=72
note_off channel=8 note=76 velocity=64 time=156
note_on channel=8 note=69 velocity=81 time=324
note_off channel=8 note=69 velocity=64 time=156
note_on channel=8 note=75 velocity=81 time=324
note_off channel=8 note=75 velocity=64 time=782
note_on channel=8 note=76 velocity=81 time=18
note_off channel=8 note=76 velocity=64 time=1060
control_change channel=8 control=0 value=56 time=7740
control_change channel=8 control=32 value=0 time=0
program_change channel=8 program=59 time=0
note_on channel=8 note=71 velocity=45 time=2720
control_change channel=8 control=11 value=127 time=1120
control_change channel=8 control=11 value=125 time=120
control_change channel=8 control=11 value=124 time=120
control_change channel=8 control=11 value=123 time=120
control_change channel=8 control=11 value=121 time=120
control_change channel=8 control=11 value=120 time=120
control_change channel=8 control=11 value=119 time=120
control_change channel=8 control=11 value=118 time=120
control_change channel=8 control=11 value=116 time=120
control_change channel=8 control=11 value=115 time=120
control_change channel=8 control=11 value=114 time=120
control_change channel=8 control=11 value=113 time=120
control_change channel=8 control=11 value=111 time=120
control_change channel=8 control=11 value=110 time=120
control_change channel=8 control=11 value=109 time=120
control_change channel=8 control=11 value=108 time=120
control_change channel=8 control=11 value=106 time=120
control_change channel=8 control=11 value=105 time=120
control_change channel=8 control=11 value=104 time=120
control_change channel=8 control=11 value=103 time=120
control_change channel=8 control=11 value=101 time=120
control_change channel=8 control=11 value=100 time=120
control_change channel=8 control=11 value=99 time=120
control_change channel=8 control=11 value=98 time=120
note_off channel=8 note=71 velocity=64 time=96
<meta message end_of_track time=0>
<meta message text text='Trumpet 3' time=0>
control_change channel=10 control=11 value=127 time=0
control_change channel=10 control=7 value=106 time=0
control_change channel=10 control=10 value=54 time=0
control_change channel=10 control=91 value=84 time=0
control_change channel=10 control=93 value=25 time=0
control_change channel=10 control=0 value=56 time=0
control_change channel=10 control=32 value=0 time=0
program_change channel=10 program=56 time=0
note_on channel=10 note=71 velocity=94 time=13760
note_off channel=10 note=71 velocity=64 time=580
note_on channel=10 note=71 velocity=94 time=60
note_off channel=10 note=71 velocity=64 time=168
note_on channel=10 note=65 velocity=94 time=312
note_off channel=10 note=65 velocity=64 time=168
note_on channel=10 note=72 velocity=94 time=312
note_off channel=10 note=72 velocity=64 time=764
note_on channel=10 note=72 velocity=94 time=36
note_off channel=10 note=72 velocity=64 time=592
note_on channel=10 note=67 velocity=94 time=48
note_off channel=10 note=67 velocity=64 time=272
note_on channel=10 note=72 velocity=94 time=48
note_off channel=10 note=72 velocity=64 time=124
note_on channel=10 note=58 velocity=50 time=19556
note_off channel=10 note=58 velocity=64 time=124
note_on channel=10 note=66 velocity=55 time=36
note_off channel=10 note=66 velocity=64 time=132
note_on channel=10 note=67 velocity=50 time=348
note_off channel=10 note=67 velocity=64 time=294
control_change channel=10 control=11 value=109 time=26
note_on channel=10 note=70 velocity=58 time=0
control_change channel=10 control=11 value=110 time=100
control_change channel=10 control=11 value=111 time=100
control_change channel=10 control=11 value=113 time=100
control_change channel=10 control=11 value=114 time=100
control_change channel=10 control=11 value=115 time=100
control_change channel=10 control=11 value=116 time=100
note_off channel=10 note=70 velocity=64 time=12
note_on channel=10 note=71 velocity=58 time=28
control_change channel=10 control=11 value=118 time=60
control_change channel=10 control=11 value=119 time=100
control_change channel=10 control=11 value=120 time=100
control_change channel=10 control=11 value=121 time=100
control_change channel=10 control=11 value=123 time=100
control_change channel=10 control=11 value=124 time=100
control_change channel=10 control=11 value=125 time=100
control_change channel=10 control=11 value=127 time=60
note_off channel=10 note=71 velocity=64 time=32
note_on channel=10 note=68 velocity=60 time=48
note_off channel=10 note=68 velocity=64 time=112
note_on channel=10 note=68 velocity=55 time=368
note_off channel=10 note=68 velocity=64 time=144
note_on channel=10 note=68 velocity=50 time=336
note_off channel=10 note=68 velocity=64 time=136
note_on channel=10 note=60 velocity=55 time=24
note_off channel=10 note=60 velocity=64 time=284
note_on channel=10 note=60 velocity=50 time=36
note_off channel=10 note=60 velocity=64 time=136
note_on channel=10 note=60 velocity=55 time=24
note_off channel=10 note=60 velocity=64 time=120
note_on channel=10 note=64 velocity=55 time=360
note_off channel=10 note=64 velocity=64 time=284
note_on channel=10 note=69 velocity=55 time=36
note_off channel=10 note=69 velocity=64 time=120
note_on channel=10 note=64 velocity=55 time=360
control_change channel=10 control=11 value=127 time=232
control_change channel=10 control=11 value=120 time=24
control_change channel=10 control=11 value=114 time=24
control_change channel=10 control=11 value=108 time=24
control_change channel=10 control=11 value=101 time=24
control_change channel=10 control=11 value=94 time=24
control_change channel=10 control=11 value=96 time=120
control_change channel=10 control=11 value=99 time=120
control_change channel=10 control=11 value=101 time=120
control_change channel=10 control=11 value=104 time=120
control_change channel=10 control=11 value=106 time=120
control_change channel=10 control=11 value=109 time=120
control_change channel=10 control=11 value=111 time=120
control_change channel=10 control=11 value=114 time=120
control_change channel=10 control=11 value=116 time=120
control_change channel=10 control=11 value=119 time=120
control_change channel=10 control=11 value=121 time=120
control_change channel=10 control=11 value=124 time=120
control_change channel=10 control=11 value=127 time=120
note_off channel=10 note=64 velocity=64 time=120
note_on channel=10 note=58 velocity=60 time=368
note_off channel=10 note=58 velocity=64 time=124
note_on channel=10 note=58 velocity=54 time=36
note_off channel=10 note=58 velocity=64 time=120
note_on channel=10 note=62 velocity=56 time=360
note_off channel=10 note=62 velocity=64 time=284
note_on channel=10 note=66 velocity=59 time=36
note_off channel=10 note=66 velocity=64 time=108
note_on channel=10 note=70 velocity=65 time=372
note_off channel=10 note=70 velocity=64 time=592
note_on channel=10 note=69 velocity=60 time=48
note_off channel=10 note=69 velocity=64 time=296
note_on channel=10 note=67 velocity=50 time=24
note_off channel=10 note=67 velocity=64 time=134
note_on channel=10 note=64 velocity=55 time=26
note_off channel=10 note=64 velocity=64 time=284
note_on channel=10 note=64 velocity=55 time=36
note_off channel=10 note=64 velocity=64 time=120
note_on channel=10 note=64 velocity=59 time=3880
note_off channel=10 note=64 velocity=64 time=284
note_on channel=10 note=62 velocity=60 time=36
note_off channel=10 note=62 velocity=64 time=112
note_on channel=10 note=58 velocity=62 time=15728
note_off channel=10 note=58 velocity=64 time=136
note_on channel=10 note=66 velocity=69 time=24
note_off channel=10 note=66 velocity=64 time=144
note_on channel=10 note=67 velocity=75 time=336
note_off channel=10 note=67 velocity=64 time=296
note_on channel=10 note=70 velocity=62 time=24
note_off channel=10 note=70 velocity=64 time=136
note_on channel=10 note=74 velocity=72 time=24
note_off channel=10 note=74 velocity=64 time=296
note_on channel=10 note=73 velocity=81 time=24
note_off channel=10 note=73 velocity=64 time=604
note_on channel=10 note=70 velocity=71 time=36
note_off channel=10 note=70 velocity=64 time=308
note_on channel=10 note=70 velocity=77 time=12
control_change channel=10 control=11 value=127 time=16
control_change channel=10 control=11 value=125 time=120
control_change channel=10 control=11 value=123 time=120
control_change channel=10 control=11 value=121 time=120
control_change channel=10 control=11 value=119 time=120
control_change channel=10 control=11 value=118 time=120
control_change channel=10 control=11 value=115 time=96
control_change channel=10 control=11 value=114 time=120
control_change channel=10 control=11 value=111 time=120
note_off channel=10 note=70 velocity=64 time=120
control_change channel=10 control=11 value=110 time=0
control_change channel=10 control=11 value=109 time=24
control_change channel=10 control=11 value=127 time=24
note_on channel=10 note=60 velocity=62 time=320
note_off channel=10 note=60 velocity=64 time=136
note_on channel=10 note=62 velocity=69 time=24
note_off channel=10 note=62 velocity=64 time=144
note_on channel=10 note=61 velocity=76 time=336
note_off channel=10 note=61 velocity=64 time=296
note_on channel=10 note=65 velocity=62 time=24
note_off channel=10 note=65 velocity=64 time=136
note_on channel=10 note=66 velocity=72 time=24
note_off channel=10 note=66 velocity=64 time=296
note_on channel=10 note=69 velocity=81 time=24
note_off channel=10 note=69 velocity=64 time=604
note_on channel=10 note=67 velocity=72 time=36
note_off channel=10 note=67 velocity=64 time=308
note_on channel=10 note=66 velocity=77 time=12
control_change channel=10 control=11 value=127 time=16
control_change channel=10 control=11 value=125 time=120
control_change channel=10 control=11 value=123 time=120
control_change channel=10 control=11 value=121 time=120
control_change channel=10 control=11 value=119 time=120
control_change channel=10 control=11 value=118 time=120
control_change channel=10 control=11 value=115 time=96
control_change channel=10 control=11 value=114 time=120
control_change channel=10 control=11 value=111 time=120
note_off channel=10 note=66 velocity=64 time=120
control_change channel=10 control=11 value=110 time=0
control_change channel=10 control=11 value=109 time=24
control_change channel=10 control=11 value=127 time=24
control_change channel=10 control=11 value=104 time=9440
note_on channel=10 note=62 velocity=75 time=0
control_change channel=10 control=11 value=105 time=100
control_change channel=10 control=11 value=108 time=80
control_change channel=10 control=11 value=109 time=100
control_change channel=10 control=11 value=111 time=100
control_change channel=10 control=11 value=114 time=90
control_change channel=10 control=11 value=115 time=100
control_change channel=10 control=11 value=118 time=70
control_change channel=10 control=11 value=119 time=100
control_change channel=10 control=11 value=121 time=100
control_change channel=10 control=11 value=124 time=90
control_change channel=10 control=11 value=125 time=100
control_change channel=10 control=11 value=127 time=10
note_off channel=10 note=62 velocity=64 time=80
note_on channel=10 note=64 velocity=76 time=320
note_on channel=10 note=63 velocity=40 time=112
note_on channel=10 note=62 velocity=28 time=40
note_off channel=10 note=64 velocity=64 time=4
note_off channel=10 note=63 velocity=64 time=8
note_on channel=10 note=61 velocity=17 time=28
note_off channel=10 note=62 velocity=64 time=12
note_off channel=10 note=61 velocity=64 time=40
note_on channel=10 note=67 velocity=75 time=236
note_off channel=10 note=67 velocity=64 time=592
note_on channel=10 note=67 velocity=69 time=48
note_off channel=10 note=67 velocity=64 time=296
note_on channel=10 note=65 velocity=57 time=24
note_off channel=10 note=65 velocity=64 time=136
note_on channel=10 note=67 velocity=69 time=24
note_off channel=10 note=67 velocity=64 time=284
note_on channel=10 note=65 velocity=69 time=36
note_off channel=10 note=65 velocity=64 time=156
note_on channel=10 note=68 velocity=69 time=324
control_change channel=10 control=11 value=127 time=160
control_change channel=10 control=11 value=125 time=120
control_change channel=10 control=11 value=123 time=120
control_change channel=10 control=11 value=121 time=120
control_change channel=10 control=11 value=119 time=120
control_change channel=10 control=11 value=118 time=120
control_change channel=10 control=11 value=115 time=120
control_change channel=10 control=11 value=114 time=120
control_change channel=10 control=11 value=111 time=120
control_change channel=10 control=11 value=110 time=120
control_change channel=10 control=11 value=108 time=120
control_change channel=10 control=11 value=106 time=120
control_change channel=10 control=11 value=104 time=120
control_change channel=10 control=11 value=103 time=120
control_change channel=10 control=11 value=100 time=120
control_change channel=10 control=11 value=99 time=120
note_off channel=10 note=68 velocity=64 time=60
control_change channel=10 control=11 value=96 time=36
control_change channel=10 control=11 value=127 time=24
note_on channel=10 note=64 velocity=75 time=320
note_on channel=10 note=63 velocity=30 time=112
note_on channel=10 note=62 velocity=20 time=40
note_off channel=10 note=64 velocity=64 time=4
note_off channel=10 note=63 velocity=64 time=8
note_off channel=10 note=62 velocity=64 time=40
note_on channel=10 note=69 velocity=75 time=276
note_off channel=10 note=69 velocity=64 time=580
note_on channel=10 note=67 velocity=75 time=60
note_off channel=10 note=67 velocity=64 time=168
note_on channel=10 note=64 velocity=74 time=632
note_on channel=10 note=63 velocity=32 time=112
note_on channel=10 note=62 velocity=23 time=40
note_off channel=10 note=64 velocity=64 time=4
note_off channel=10 note=63 velocity=64 time=8
note_off channel=10 note=62 velocity=64 time=40
note_on channel=10 note=64 velocity=75 time=276
note_off channel=10 note=64 velocity=64 time=580
note_on channel=10 note=64 velocity=75 time=60
note_off channel=10 note=64 velocity=64 time=168
note_on channel=10 note=60 velocity=69 time=632
note_off channel=10 note=60 velocity=64 time=444
note_on channel=10 note=63 velocity=71 time=36
note_off channel=10 note=63 velocity=64 time=444
note_on channel=10 note=67 velocity=74 time=36
note_off channel=10 note=67 velocity=64 time=444
note_on channel=10 note=63 velocity=66 time=36
note_off channel=10 note=63 velocity=64 time=136
note_on channel=10 note=67 velocity=79 time=24
note_off channel=10 note=67 velocity=64 time=148
note_on channel=10 note=63 velocity=65 time=12
note_off channel=10 note=63 velocity=64 time=148
note_on channel=10 note=70 velocity=80 time=12
note_off channel=10 note=70 velocity=64 time=924
note_on channel=10 note=63 velocity=75 time=36
note_off channel=10 note=63 velocity=64 time=604
note_on channel=10 note=60 velocity=69 time=36
note_off channel=10 note=60 velocity=64 time=284
note_on channel=10 note=60 velocity=70 time=36
note_off channel=10 note=60 velocity=64 time=124
note_on channel=10 note=74 velocity=81 time=15236
note_off channel=10 note=74 velocity=64 time=604
note_on channel=10 note=68 velocity=81 time=36
note_off channel=10 note=68 velocity=64 time=296
note_on channel=10 note=69 velocity=81 time=24
note_off channel=10 note=69 velocity=64 time=136
note_on channel=10 note=72 velocity=81 time=824
note_off channel=10 note=72 velocity=64 time=604
note_on channel=10 note=68 velocity=81 time=36
note_off channel=10 note=68 velocity=64 time=296
note_on channel=10 note=64 velocity=81 time=24
note_off channel=10 note=64 velocity=64 time=136
note_on channel=10 note=72 velocity=81 time=824
note_off channel=10 note=72 velocity=64 time=604
note_on channel=10 note=68 velocity=81 time=36
note_off channel=10 note=68 velocity=64 time=296
note_on channel=10 note=69 velocity=81 time=24
note_off channel=10 note=69 velocity=64 time=136
note_on channel=10 note=74 velocity=81 time=824
note_off channel=10 note=74 velocity=64 time=604
note_on channel=10 note=68 velocity=81 time=36
note_off channel=10 note=68 velocity=64 time=296
note_on channel=10 note=66 velocity=81 time=24
note_off channel=10 note=66 velocity=64 time=136
note_on channel=10 note=74 velocity=81 time=824
note_off channel=10 note=74 velocity=64 time=580
note_on channel=10 note=76 velocity=81 time=60
note_off channel=10 note=76 velocity=64 time=168
note_on channel=10 note=74 velocity=81 time=312
note_off channel=10 note=74 velocity=64 time=168
note_on channel=10 note=72 velocity=81 time=312
note_off channel=10 note=72 velocity=64 time=296
note_on channel=10 note=77 velocity=69 time=24
note_off channel=10 note=77 velocity=64 time=148
note_on channel=10 note=72 velocity=81 time=12
note_off channel=10 note=72 velocity=64 time=311
note_on channel=10 note=72 velocity=81 time=9
pitchwheel channel=10 pitch=0 time=16
control_change channel=10 control=11 value=127 time=0
pitchwheel channel=10 pitch=242 time=24
control_change channel=10 control=11 value=124 time=72
control_change channel=10 control=11 value=121 time=96
pitchwheel channel=10 pitch=0 time=72
control_change channel=10 control=11 value=119 time=48
control_change channel=10 control=11 value=116 time=48
pitchwheel channel=10 pitch=-82 time=96
control_change channel=10 control=11 value=114 time=24
control_change channel=10 control=11 value=111 time=72
pitchwheel channel=10 pitch=-244 time=24
pitchwheel channel=10 pitch=-407 time=96
control_change channel=10 control=11 value=109 time=0
control_change channel=10 control=11 value=106 time=48
pitchwheel channel=10 pitch=-569 time=24
pitchwheel channel=10 pitch=-731 time=72
control_change channel=10 control=11 value=104 time=24
pitchwheel channel=10 pitch=-893 time=24
pitchwheel channel=10 pitch=-1055 time=48
control_change channel=10 control=11 value=101 time=0
pitchwheel channel=10 pitch=-1218 time=48
pitchwheel channel=10 pitch=-1380 time=24
pitchwheel channel=10 pitch=-1542 time=24
pitchwheel channel=10 pitch=-1704 time=24
control_change channel=10 control=11 value=99 time=0
note_off channel=10 note=72 velocity=64 time=24
pitchwheel channel=10 pitch=-2029 time=0
control_change channel=10 control=11 value=96 time=24
control_change channel=10 control=11 value=127 time=0
control_change channel=10 control=11 value=127 time=24
pitchwheel channel=10 pitch=0 time=0
note_on channel=10 note=70 velocity=81 time=320
note_on channel=10 note=69 velocity=30 time=112
note_on channel=10 note=68 velocity=20 time=40
note_off channel=10 note=70 velocity=64 time=8
note_off channel=10 note=69 velocity=64 time=4
note_off channel=10 note=68 velocity=64 time=40
note_on channel=10 note=70 velocity=81 time=436
note_off channel=10 note=70 velocity=64 time=168
note_on channel=10 note=70 velocity=81 time=312
note_off channel=10 note=70 velocity=64 time=168
note_on channel=10 note=72 velocity=81 time=792
note_off channel=10 note=72 velocity=64 time=296
note_on channel=10 note=72 velocity=81 time=24
note_off channel=10 note=72 velocity=64 time=192
note_on channel=10 note=68 velocity=69 time=288
note_off channel=10 note=68 velocity=64 time=148
note_on channel=10 note=72 velocity=81 time=12
note_off channel=10 note=72 velocity=64 time=308
note_on channel=10 note=72 velocity=75 time=12
note_off channel=10 note=72 velocity=64 time=136
note_on channel=10 note=72 velocity=81 time=24
note_off channel=10 note=72 velocity=64 time=296
note_on channel=10 note=67 velocity=81 time=24
note_off channel=10 note=67 velocity=64 time=136
note_on channel=10 note=69 velocity=81 time=1944
note_off channel=10 note=69 velocity=64 time=168
note_on channel=10 note=68 velocity=81 time=312
note_off channel=10 note=68 velocity=64 time=296
note_on channel=10 note=68 velocity=81 time=24
note_off channel=10 note=68 velocity=64 time=180
note_on channel=10 note=76 velocity=81 time=300
note_on channel=10 note=78 velocity=59 time=1440
note_off channel=10 note=76 velocity=64 time=16
note_on channel=10 note=77 velocity=70 time=64
note_off channel=10 note=78 velocity=64 time=24
note_on channel=10 note=72 velocity=81 time=56
note_off channel=10 note=77 velocity=64 time=24
note_off channel=10 note=72 velocity=64 time=284
note_on channel=10 note=68 velocity=81 time=12
pitchwheel channel=10 pitch=0 time=160
control_change channel=10 control=11 value=127 time=0
pitchwheel channel=10 pitch=242 time=12
control_change channel=10 control=11 value=124 time=72
control_change channel=10 control=11 value=121 time=72
pitchwheel channel=10 pitch=0 time=48
control_change channel=10 control=11 value=119 time=60
control_change channel=10 control=11 value=116 time=48
pitchwheel channel=10 pitch=-82 time=36
control_change channel=10 control=11 value=114 time=72
pitchwheel channel=10 pitch=-244 time=24
control_change channel=10 control=11 value=111 time=24
pitchwheel channel=10 pitch=-407 time=48
pitchwheel channel=10 pitch=-569 time=60
control_change channel=10 control=11 value=109 time=0
control_change channel=10 control=11 value=106 time=48
pitchwheel channel=10 pitch=-731 time=12
pitchwheel channel=10 pitch=-893 time=36
pitchwheel channel=10 pitch=-1055 time=48
control_change channel=10 control=11 value=104 time=12
pitchwheel channel=10 pitch=-1218 time=24
pitchwheel channel=10 pitch=-1380 time=24
control_change channel=10 control=11 value=101 time=0
pitchwheel channel=10 pitch=-1542 time=36
pitchwheel channel=10 pitch=-1704 time=24
pitchwheel channel=10 pitch=-1866 time=12
pitchwheel channel=10 pitch=-2029 time=24
pitchwheel channel=10 pitch=-2191 time=12
control_change channel=10 control=11 value=99 time=0
pitchwheel channel=10 pitch=-2353 time=12
note_off channel=10 note=68 velocity=64 time=12
pitchwheel channel=10 pitch=-2515 time=0
pitchwheel channel=10 pitch=-2840 time=12
control_change channel=10 control=11 value=96 time=12
control_change channel=10 control=11 value=127 time=24
pitchwheel channel=10 pitch=0 time=0
note_on channel=10 note=70 velocity=81 time=1280
note_off channel=10 note=70 velocity=64 time=604
note_on channel=10 note=74 velocity=81 time=36
note_off channel=10 note=74 velocity=64 time=180
note_on channel=10 note=74 velocity=81 time=300
note_off channel=10 note=74 velocity=64 time=296
note_on channel=10 note=74 velocity=81 time=24
note_off channel=10 note=74 velocity=64 time=136
note_on channel=10 note=74 velocity=81 time=344
note_off channel=10 note=74 velocity=64 time=180
note_on channel=10 note=70 velocity=75 time=300
note_off channel=10 note=70 velocity=64 time=148
note_on channel=10 note=70 velocity=81 time=12
note_off channel=10 note=70 velocity=64 time=456
note_on channel=10 note=67 velocity=81 time=24
note_off channel=10 note=67 velocity=64 time=156
note_on channel=10 note=79 velocity=88 time=804
note_off channel=10 note=79 velocity=64 time=912
note_on channel=10 note=75 velocity=81 time=48
note_off channel=10 note=75 velocity=64 time=180
control_change channel=10 control=11 value=104 time=300
note_on channel=10 note=75 velocity=88 time=0
control_change channel=10 control=11 value=106 time=108
control_change channel=10 control=11 value=109 time=108
note_off channel=10 note=75 velocity=64 time=92
note_on channel=10 note=77 velocity=88 time=12
control_change channel=10 control=11 value=111 time=4
control_change channel=10 control=11 value=114 time=108
control_change channel=10 control=11 value=116 time=108
control_change channel=10 control=11 value=119 time=108
control_change channel=10 control=11 value=121 time=108
control_change channel=10 control=11 value=124 time=108
note_off channel=10 note=77 velocity=64 time=60
control_change channel=10 control=11 value=127 time=36
control_change channel=10 control=11 value=127 time=0
note_on channel=10 note=74 velocity=88 time=0
control_change channel=10 control=11 value=124 time=84
control_change channel=10 control=11 value=121 time=84
control_change channel=10 control=11 value=119 time=108
note_off channel=10 note=74 velocity=64 time=32
note_on channel=10 note=68 velocity=88 time=12
control_change channel=10 control=11 value=116 time=4
control_change channel=10 control=11 value=114 time=108
control_change channel=10 control=11 value=111 time=48
control_change channel=10 control=11 value=109 time=108
control_change channel=10 control=11 value=106 time=60
control_change channel=10 control=11 value=104 time=108
control_change channel=10 control=11 value=101 time=48
note_off channel=10 note=68 velocity=64 time=108
control_change channel=10 control=11 value=99 time=0
control_change channel=10 control=11 value=96 time=48
control_change channel=10 control=11 value=127 time=0
control_change channel=10 control=11 value=127 time=12
note_on channel=10 note=67 velocity=81 time=15668
note_off channel=10 note=67 velocity=64 time=168
note_on channel=10 note=69 velocity=81 time=312
note_off channel=10 note=69 velocity=64 time=136
note_on channel=10 note=70 velocity=81 time=24
note_off channel=10 note=70 velocity=64 time=168
note_on channel=10 note=70 velocity=81 time=312
note_off channel=10 note=70 velocity=64 time=168
control_change channel=10 control=93 value=30 time=312
note_on channel=10 note=73 velocity=81 time=0
note_off channel=10 note=73 velocity=64 time=444
note_on channel=10 note=73 velocity=81 time=36
note_off channel=10 note=73 velocity=64 time=296
note_on channel=10 note=75 velocity=81 time=24
note_off channel=10 note=75 velocity=64 time=136
note_on channel=10 note=65 velocity=81 time=824
note_off channel=10 note=65 velocity=64 time=604
note_on channel=10 note=69 velocity=81 time=36
note_off channel=10 note=69 velocity=64 time=296
note_on channel=10 note=65 velocity=69 time=24
note_off channel=10 note=65 velocity=64 time=136
note_on channel=10 note=72 velocity=81 time=24
note_off channel=10 note=72 velocity=64 time=284
note_on channel=10 note=72 velocity=81 time=36
note_off channel=10 note=72 velocity=64 time=168
note_on channel=10 note=72 velocity=81 time=312
note_off channel=10 note=72 velocity=64 time=604
note_on channel=10 note=75 velocity=81 time=36
note_off channel=10 note=75 velocity=64 time=296
note_on channel=10 note=75 velocity=81 time=24
note_off channel=10 note=75 velocity=64 time=124
note_on channel=10 note=71 velocity=81 time=1316
note_off channel=10 note=71 velocity=64 time=568
note_on channel=10 note=71 velocity=81 time=72
note_off channel=10 note=71 velocity=64 time=156
note_on channel=10 note=65 velocity=81 time=324
note_off channel=10 note=65 velocity=64 time=156
note_on channel=10 note=72 velocity=81 time=324
note_off channel=10 note=72 velocity=64 time=782
note_on channel=10 note=73 velocity=81 time=18
note_off channel=10 note=73 velocity=64 time=1060
control_change channel=10 control=0 value=56 time=7740
control_change channel=10 control=32 value=0 time=0
program_change channel=10 program=59 time=0
note_on channel=10 note=68 velocity=45 time=2720
control_change channel=10 control=11 value=127 time=1120
control_change channel=10 control=11 value=125 time=120
control_change channel=10 control=11 value=124 time=120
control_change channel=10 control=11 value=123 time=120
control_change channel=10 control=11 value=121 time=120
control_change channel=10 control=11 value=120 time=120
control_change channel=10 control=11 value=119 time=120
control_change channel=10 control=11 value=118 time=120
control_change channel=10 control=11 value=116 time=120
control_change channel=10 control=11 value=115 time=120
control_change channel=10 control=11 value=114 time=120
control_change channel=10 control=11 value=113 time=120
control_change channel=10 control=11 value=111 time=120
control_change channel=10 control=11 value=110 time=120
control_change channel=10 control=11 value=109 time=120
control_change channel=10 control=11 value=108 time=120
control_change channel=10 control=11 value=106 time=120
control_change channel=10 control=11 value=105 time=120
control_change channel=10 control=11 value=104 time=120
control_change channel=10 control=11 value=103 time=120
control_change channel=10 control=11 value=101 time=120
control_change channel=10 control=11 value=100 time=120
control_change channel=10 control=11 value=99 time=120
control_change channel=10 control=11 value=98 time=120
note_off channel=10 note=68 velocity=64 time=96
<meta message end_of_track time=0>
<meta message text text='Trumpet 4' time=0>
control_change channel=11 control=11 value=127 time=0
control_change channel=11 control=7 value=106 time=0
control_change channel=11 control=10 value=44 time=0
control_change channel=11 control=91 value=81 time=0
control_change channel=11 control=93 value=25 time=0
control_change channel=11 control=0 value=56 time=0
control_change channel=11 control=32 value=0 time=0
program_change channel=11 program=56 time=0
note_on channel=11 note=68 velocity=94 time=13760
note_off channel=11 note=68 velocity=64 time=580
note_on channel=11 note=69 velocity=94 time=60
note_off channel=11 note=69 velocity=64 time=168
note_on channel=11 note=62 velocity=94 time=312
note_off channel=11 note=62 velocity=64 time=168
note_on channel=11 note=68 velocity=94 time=312
note_off channel=11 note=68 velocity=64 time=764
note_on channel=11 note=69 velocity=94 time=36
note_off channel=11 note=69 velocity=64 time=592
note_on channel=11 note=64 velocity=94 time=48
note_off channel=11 note=64 velocity=64 time=272
note_on channel=11 note=67 velocity=94 time=48
note_off channel=11 note=67 velocity=64 time=124
note_on channel=11 note=55 velocity=50 time=19556
note_off channel=11 note=55 velocity=64 time=124
note_on channel=11 note=64 velocity=55 time=36
note_off channel=11 note=64 velocity=64 time=132
note_on channel=11 note=65 velocity=50 time=348
note_off channel=11 note=65 velocity=64 time=294
control_change channel=11 control=11 value=109 time=26
note_on channel=11 note=67 velocity=58 time=0
control_change channel=11 control=11 value=110 time=100
control_change channel=11 control=11 value=111 time=100
control_change channel=11 control=11 value=113 time=100
control_change channel=11 control=11 value=114 time=100
control_change channel=11 control=11 value=115 time=100
control_change channel=11 control=11 value=116 time=100
note_off channel=11 note=67 velocity=64 time=12
note_on channel=11 note=69 velocity=58 time=28
control_change channel=11 control=11 value=118 time=60
control_change channel=11 control=11 value=119 time=100
control_change channel=11 control=11 value=120 time=100
control_change channel=11 control=11 value=121 time=100
control_change channel=11 control=11 value=123 time=100
control_change channel=11 control=11 value=124 time=100
control_change channel=11 control=11 value=125 time=100
control_change channel=11 control=11 value=127 time=60
note_off channel=11 note=69 velocity=64 time=32
note_on channel=11 note=65 velocity=60 time=48
note_off channel=11 note=65 velocity=64 time=112
note_on channel=11 note=65 velocity=55 time=368
note_off channel=11 note=65 velocity=64 time=144
note_on channel=11 note=65 velocity=50 time=336
note_off channel=11 note=65 velocity=64 time=136
note_on channel=11 note=59 velocity=55 time=24
note_off channel=11 note=59 velocity=64 time=284
note_on channel=11 note=59 velocity=50 time=36
note_off channel=11 note=59 velocity=64 time=136
note_on channel=11 note=57 velocity=55 time=24
note_off channel=11 note=57 velocity=64 time=120
note_on channel=11 note=60 velocity=55 time=360
note_off channel=11 note=60 velocity=64 time=284
note_on channel=11 note=67 velocity=55 time=36
note_off channel=11 note=67 velocity=64 time=120
note_on channel=11 note=60 velocity=55 time=360
control_change channel=11 control=11 value=127 time=232
control_change channel=11 control=11 value=120 time=24
control_change channel=11 control=11 value=114 time=24
control_change channel=11 control=11 value=108 time=24
control_change channel=11 control=11 value=101 time=24
control_change channel=11 control=11 value=94 time=24
control_change channel=11 control=11 value=96 time=120
control_change channel=11 control=11 value=99 time=120
control_change channel=11 control=11 value=101 time=120
control_change channel=11 control=11 value=104 time=120
control_change channel=11 control=11 value=106 time=120
control_change channel=11 control=11 value=109 time=120
control_change channel=11 control=11 value=111 time=120
control_change channel=11 control=11 value=114 time=120
control_change channel=11 control=11 value=116 time=120
control_change channel=11 control=11 value=119 time=120
control_change channel=11 control=11 value=121 time=120
control_change channel=11 control=11 value=124 time=120
control_change channel=11 control=11 value=127 time=120
note_off channel=11 note=60 velocity=64 time=120
note_on channel=11 note=58 velocity=56 time=1008
note_off channel=11 note=58 velocity=64 time=284
note_on channel=11 note=62 velocity=59 time=36
note_off channel=11 note=62 velocity=64 time=108
note_on channel=11 note=65 velocity=65 time=372
note_off channel=11 note=65 velocity=64 time=592
note_on channel=11 note=64 velocity=60 time=48
note_off channel=11 note=64 velocity=64 time=296
note_on channel=11 note=62 velocity=50 time=24
note_off channel=11 note=62 velocity=64 time=134
note_on channel=11 note=60 velocity=55 time=26
note_off channel=11 note=60 velocity=64 time=284
note_on channel=11 note=61 velocity=55 time=36
note_off channel=11 note=61 velocity=64 time=120
note_on channel=11 note=61 velocity=56 time=360
control_change channel=11 control=11 value=127 time=232
control_change channel=11 control=11 value=120 time=24
control_change channel=11 control=11 value=114 time=24
control_change channel=11 control=11 value=108 time=24
control_change channel=11 control=11 value=101 time=24
control_change channel=11 control=11 value=95 time=24
control_change channel=11 control=11 value=95 time=0
control_change channel=11 control=11 value=96 time=120
control_change channel=11 control=11 value=98 time=120
control_change channel=11 control=11 value=99 time=120
control_change channel=11 control=11 value=100 time=120
control_change channel=11 control=11 value=101 time=120
control_change channel=11 control=11 value=103 time=120
control_change channel=11 control=11 value=104 time=120
control_change channel=11 control=11 value=105 time=120
control_change channel=11 control=11 value=106 time=120
control_change channel=11 control=11 value=108 time=120
control_change channel=11 control=11 value=109 time=120
control_change channel=11 control=11 value=110 time=120
control_change channel=11 control=11 value=111 time=120
control_change channel=11 control=11 value=113 time=120
note_off channel=11 note=61 velocity=64 time=32
note_on channel=11 note=60 velocity=51 time=16
control_change channel=11 control=11 value=114 time=72
control_change channel=11 control=11 value=115 time=120
control_change channel=11 control=11 value=116 time=120
control_change channel=11 control=11 value=118 time=120
control_change channel=11 control=11 value=119 time=120
control_change channel=11 control=11 value=120 time=120
control_change channel=11 control=11 value=121 time=120
control_change channel=11 control=11 value=123 time=120
control_change channel=11 control=11 value=124 time=120
control_change channel=11 control=11 value=125 time=120
control_change channel=11 control=11 value=127 time=48
note_off channel=11 note=60 velocity=64 time=180
note_on channel=11 note=60 velocity=59 time=60
note_off channel=11 note=60 velocity=64 time=284
note_on channel=11 note=59 velocity=60 time=36
note_off channel=11 note=59 velocity=64 time=112
note_on channel=11 note=62 velocity=69 time=3248
note_off channel=11 note=62 velocity=64 time=136
note_on channel=11 note=60 velocity=66 time=24
note_off channel=11 note=60 velocity=64 time=296
note_on channel=11 note=57 velocity=57 time=24
note_off channel=11 note=57 velocity=64 time=136
note_on channel=11 note=62 velocity=69 time=3224
note_off channel=11 note=62 velocity=64 time=136
note_on channel=11 note=60 velocity=66 time=24
note_off channel=11 note=60 velocity=64 time=296
note_on channel=11 note=57 velocity=57 time=24
note_off channel=11 note=57 velocity=64 time=136
note_on channel=11 note=55 velocity=62 time=8024
note_off channel=11 note=55 velocity=64 time=136
note_on channel=11 note=64 velocity=69 time=24
note_off channel=11 note=64 velocity=64 time=144
note_on channel=11 note=65 velocity=75 time=336
note_off channel=11 note=65 velocity=64 time=296
note_on channel=11 note=67 velocity=62 time=24
note_off channel=11 note=67 velocity=64 time=136
note_on channel=11 note=70 velocity=72 time=24
note_off channel=11 note=70 velocity=64 time=296
note_on channel=11 note=70 velocity=81 time=24
note_off channel=11 note=70 velocity=64 time=604
note_on channel=11 note=67 velocity=71 time=36
note_off channel=11 note=67 velocity=64 time=308
note_on channel=11 note=67 velocity=77 time=12
control_change channel=11 control=11 value=127 time=16
control_change channel=11 control=11 value=125 time=120
control_change channel=11 control=11 value=123 time=120
control_change channel=11 control=11 value=121 time=120
control_change channel=11 control=11 value=119 time=120
control_change channel=11 control=11 value=118 time=120
control_change channel=11 control=11 value=115 time=96
control_change channel=11 control=11 value=114 time=120
control_change channel=11 control=11 value=111 time=120
note_off channel=11 note=67 velocity=64 time=120
control_change channel=11 control=11 value=110 time=0
control_change channel=11 control=11 value=109 time=24
control_change channel=11 control=11 value=127 time=24
note_on channel=11 note=57 velocity=62 time=320
note_off channel=11 note=57 velocity=64 time=136
note_on channel=11 note=59 velocity=69 time=24
note_off channel=11 note=59 velocity=64 time=144
note_on channel=11 note=61 velocity=76 time=336
note_off channel=11 note=61 velocity=64 time=296
note_on channel=11 note=61 velocity=62 time=24
note_off channel=11 note=61 velocity=64 time=136
note_on channel=11 note=64 velocity=72 time=24
note_off channel=11 note=64 velocity=64 time=296
note_on channel=11 note=67 velocity=81 time=24
note_off channel=11 note=67 velocity=64 time=604
note_on channel=11 note=63 velocity=72 time=36
note_off channel=11 note=63 velocity=64 time=308
note_on channel=11 note=63 velocity=77 time=12
control_change channel=11 control=11 value=127 time=16
control_change channel=11 control=11 value=125 time=120
control_change channel=11 control=11 value=123 time=120
control_change channel=11 control=11 value=121 time=120
control_change channel=11 control=11 value=119 time=120
control_change channel=11 control=11 value=118 time=120
control_change channel=11 control=11 value=115 time=96
control_change channel=11 control=11 value=114 time=120
control_change channel=11 control=11 value=111 time=120
note_off channel=11 note=63 velocity=64 time=120
control_change channel=11 control=11 value=110 time=0
control_change channel=11 control=11 value=109 time=24
control_change channel=11 control=11 value=127 time=24
note_on channel=11 note=60 velocity=69 time=7040
note_off channel=11 note=60 velocity=64 time=580
note_on channel=11 note=59 velocity=69 time=60
note_off channel=11 note=59 velocity=64 time=144
note_on channel=11 note=59 velocity=69 time=336
note_off channel=11 note=59 velocity=64 time=296
note_on channel=11 note=59 velocity=69 time=24
note_off channel=11 note=59 velocity=64 time=136
note_on channel=11 note=59 velocity=62 time=24
note_off channel=11 note=59 velocity=64 time=56
note_on channel=11 note=59 velocity=69 time=24
note_off channel=11 note=59 velocity=64 time=68
note_on channel=11 note=59 velocity=69 time=332
note_off channel=11 note=59 velocity=64 time=308
control_change channel=11 control=11 value=104 time=12
note_on channel=11 note=58 velocity=75 time=0
control_change channel=11 control=11 value=105 time=100
control_change channel=11 control=11 value=108 time=80
control_change channel=11 control=11 value=109 time=100
control_change channel=11 control=11 value=111 time=100
control_change channel=11 control=11 value=114 time=90
control_change channel=11 control=11 value=115 time=100
control_change channel=11 control=11 value=118 time=70
control_change channel=11 control=11 value=119 time=100
control_change channel=11 control=11 value=121 time=100
control_change channel=11 control=11 value=124 time=90
control_change channel=11 control=11 value=125 time=100
control_change channel=11 control=11 value=127 time=10
note_off channel=11 note=58 velocity=64 time=80
note_on channel=11 note=60 velocity=76 time=320
note_on channel=11 note=59 velocity=40 time=112
note_on channel=11 note=58 velocity=28 time=40
note_off channel=11 note=60 velocity=64 time=4
note_off channel=11 note=59 velocity=64 time=8
note_on channel=11 note=57 velocity=17 time=28
note_off channel=11 note=58 velocity=64 time=12
note_off channel=11 note=57 velocity=64 time=40
note_on channel=11 note=62 velocity=75 time=236
note_off channel=11 note=62 velocity=64 time=592
note_on channel=11 note=62 velocity=69 time=48
note_off channel=11 note=62 velocity=64 time=296
note_on channel=11 note=60 velocity=57 time=24
note_off channel=11 note=60 velocity=64 time=136
note_on channel=11 note=64 velocity=69 time=24
note_off channel=11 note=64 velocity=64 time=284
note_on channel=11 note=61 velocity=69 time=36
note_off channel=11 note=61 velocity=64 time=156
note_on channel=11 note=64 velocity=69 time=324
control_change channel=11 control=11 value=127 time=160
control_change channel=11 control=11 value=125 time=120
control_change channel=11 control=11 value=123 time=120
control_change channel=11 control=11 value=121 time=120
control_change channel=11 control=11 value=119 time=120
control_change channel=11 control=11 value=118 time=120
control_change channel=11 control=11 value=115 time=120
control_change channel=11 control=11 value=114 time=120
control_change channel=11 control=11 value=111 time=120
control_change channel=11 control=11 value=110 time=120
control_change channel=11 control=11 value=108 time=120
control_change channel=11 control=11 value=106 time=120
control_change channel=11 control=11 value=104 time=120
control_change channel=11 control=11 value=103 time=120
control_change channel=11 control=11 value=100 time=120
control_change channel=11 control=11 value=99 time=120
note_off channel=11 note=64 velocity=64 time=60
control_change channel=11 control=11 value=96 time=36
control_change channel=11 control=11 value=127 time=24
note_on channel=11 note=61 velocity=75 time=320
note_on channel=11 note=60 velocity=30 time=112
note_on channel=11 note=59 velocity=20 time=40
note_off channel=11 note=61 velocity=64 time=4
note_off channel=11 note=60 velocity=64 time=8
note_off channel=11 note=59 velocity=64 time=40
note_on channel=11 note=64 velocity=75 time=276
note_off channel=11 note=64 velocity=64 time=580
note_on channel=11 note=62 velocity=75 time=60
note_off channel=11 note=62 velocity=64 time=168
note_on channel=11 note=61 velocity=74 time=632
note_on channel=11 note=60 velocity=32 time=112
note_on channel=11 note=59 velocity=23 time=40
note_off channel=11 note=61 velocity=64 time=4
note_off channel=11 note=60 velocity=64 time=8
note_off channel=11 note=59 velocity=64 time=40
note_on channel=11 note=62 velocity=75 time=276
note_off channel=11 note=62 velocity=64 time=580
note_on channel=11 note=60 velocity=75 time=60
note_off channel=11 note=60 velocity=64 time=168
note_on channel=11 note=58 velocity=69 time=632
note_off channel=11 note=58 velocity=64 time=444
note_on channel=11 note=60 velocity=71 time=36
note_off channel=11 note=60 velocity=64 time=444
note_on channel=11 note=63 velocity=74 time=36
note_off channel=11 note=63 velocity=64 time=444
note_on channel=11 note=60 velocity=66 time=36
note_off channel=11 note=60 velocity=64 time=136
note_on channel=11 note=63 velocity=79 time=24
note_off channel=11 note=63 velocity=64 time=148
note_on channel=11 note=60 velocity=65 time=12
note_off channel=11 note=60 velocity=64 time=148
note_on channel=11 note=67 velocity=80 time=12
note_off channel=11 note=67 velocity=64 time=924
note_on channel=11 note=61 velocity=75 time=36
note_off channel=11 note=61 velocity=64 time=604
note_on channel=11 note=55 velocity=69 time=36
note_off channel=11 note=55 velocity=64 time=284
note_on channel=11 note=55 velocity=70 time=36
note_off channel=11 note=55 velocity=64 time=124
note_on channel=11 note=69 velocity=81 time=15236
note_off channel=11 note=69 velocity=64 time=604
note_on channel=11 note=64 velocity=81 time=36
note_off channel=11 note=64 velocity=64 time=296
note_on channel=11 note=65 velocity=81 time=24
note_off channel=11 note=65 velocity=64 time=136
note_on channel=11 note=69 velocity=81 time=824
note_off channel=11 note=69 velocity=64 time=604
note_on channel=11 note=63 velocity=81 time=36
note_off channel=11 note=63 velocity=64 time=296
note_on channel=11 note=60 velocity=81 time=24
note_off channel=11 note=60 velocity=64 time=136
note_on channel=11 note=69 velocity=81 time=824
note_off channel=11 note=69 velocity=64 time=604
note_on channel=11 note=64 velocity=81 time=36
note_off channel=11 note=64 velocity=64 time=296
note_on channel=11 note=65 velocity=81 time=24
note_off channel=11 note=65 velocity=64 time=136
note_on channel=11 note=69 velocity=81 time=824
note_off channel=11 note=69 velocity=64 time=604
note_on channel=11 note=63 velocity=81 time=36
note_off channel=11 note=63 velocity=64 time=296
note_on channel=11 note=64 velocity=81 time=24
note_off channel=11 note=64 velocity=64 time=136
note_on channel=11 note=69 velocity=81 time=824
note_off channel=11 note=69 velocity=64 time=580
note_on channel=11 note=69 velocity=81 time=60
note_off channel=11 note=69 velocity=64 time=168
note_on channel=11 note=69 velocity=81 time=312
note_off channel=11 note=69 velocity=64 time=168
note_on channel=11 note=69 velocity=81 time=312
note_off channel=11 note=69 velocity=64 time=296
note_on channel=11 note=72 velocity=69 time=24
note_off channel=11 note=72 velocity=64 time=148
note_on channel=11 note=69 velocity=81 time=12
note_off channel=11 note=69 velocity=64 time=311
note_on channel=11 note=69 velocity=81 time=9
pitchwheel channel=11 pitch=0 time=16
control_change channel=11 control=11 value=127 time=0
pitchwheel channel=11 pitch=242 time=24
control_change channel=11 control=11 value=124 time=72
control_change channel=11 control=11 value=121 time=96
pitchwheel channel=11 pitch=0 time=72
control_change channel=11 control=11 value=119 time=48
control_change channel=11 control=11 value=116 time=48
pitchwheel channel=11 pitch=-82 time=96
control_change channel=11 control=11 value=114 time=24
control_change channel=11 control=11 value=111 time=72
pitchwheel channel=11 pitch=-244 time=24
pitchwheel channel=11 pitch=-407 time=96
control_change channel=11 control=11 value=109 time=0
control_change channel=11 control=11 value=106 time=48
pitchwheel channel=11 pitch=-569 time=24
pitchwheel channel=11 pitch=-731 time=72
control_change channel=11 control=11 value=104 time=24
pitchwheel channel=11 pitch=-893 time=24
pitchwheel channel=11 pitch=-1055 time=48
control_change channel=11 control=11 value=101 time=0
pitchwheel channel=11 pitch=-1218 time=48
pitchwheel channel=11 pitch=-1380 time=24
pitchwheel channel=11 pitch=-1542 time=24
pitchwheel channel=11 pitch=-1704 time=24
control_change channel=11 control=11 value=99 time=0
note_off channel=11 note=69 velocity=64 time=24
pitchwheel channel=11 pitch=-2029 time=0
control_change channel=11 control=11 value=96 time=24
control_change channel=11 control=11 value=127 time=0
control_change channel=11 control=11 value=127 time=24
pitchwheel channel=11 pitch=0 time=0
note_on channel=11 note=67 velocity=81 time=320
note_on channel=11 note=66 velocity=30 time=112
note_on channel=11 note=65 velocity=20 time=40
note_off channel=11 note=67 velocity=64 time=8
note_off channel=11 note=66 velocity=64 time=4
note_off channel=11 note=65 velocity=64 time=40
note_on channel=11 note=67 velocity=81 time=436
note_off channel=11 note=67 velocity=64 time=168
note_on channel=11 note=67 velocity=81 time=312
note_off channel=11 note=67 velocity=64 time=168
note_on channel=11 note=68 velocity=81 time=792
note_off channel=11 note=68 velocity=64 time=296
note_on channel=11 note=68 velocity=81 time=24
note_off channel=11 note=68 velocity=64 time=192
note_on channel=11 note=65 velocity=69 time=288
note_off channel=11 note=65 velocity=64 time=148
note_on channel=11 note=68 velocity=81 time=12
note_off channel=11 note=68 velocity=64 time=308
note_on channel=11 note=68 velocity=75 time=12
note_off channel=11 note=68 velocity=64 time=136
note_on channel=11 note=69 velocity=81 time=24
note_off channel=11 note=69 velocity=64 time=296
note_on channel=11 note=65 velocity=81 time=24
note_off channel=11 note=65 velocity=64 time=136
note_on channel=11 note=65 velocity=81 time=1944
note_off channel=11 note=65 velocity=64 time=168
note_on channel=11 note=64 velocity=81 time=312
note_off channel=11 note=64 velocity=64 time=296
note_on channel=11 note=65 velocity=81 time=24
note_off channel=11 note=65 velocity=64 time=180
note_on channel=11 note=72 velocity=81 time=300
note_on channel=11 note=74 velocity=59 time=1440
note_off channel=11 note=72 velocity=64 time=16
note_on channel=11 note=73 velocity=70 time=64
note_off channel=11 note=74 velocity=64 time=24
note_on channel=11 note=69 velocity=81 time=56
note_off channel=11 note=73 velocity=64 time=24
note_off channel=11 note=69 velocity=64 time=284
note_on channel=11 note=64 velocity=81 time=12
pitchwheel channel=11 pitch=0 time=160
control_change channel=11 control=11 value=127 time=0
pitchwheel channel=11 pitch=242 time=12
control_change channel=11 control=11 value=124 time=72
control_change channel=11 control=11 value=121 time=72
pitchwheel channel=11 pitch=0 time=48
control_change channel=11 control=11 value=119 time=60
control_change channel=11 control=11 value=116 time=48
pitchwheel channel=11 pitch=-82 time=36
control_change channel=11 control=11 value=114 time=72
pitchwheel channel=11 pitch=-244 time=24
control_change channel=11 control=11 value=111 time=24
pitchwheel channel=11 pitch=-407 time=48
pitchwheel channel=11 pitch=-569 time=60
control_change channel=11 control=11 value=109 time=0
control_change channel=11 control=11 value=106 time=48
pitchwheel channel=11 pitch=-731 time=12
pitchwheel channel=11 pitch=-893 time=36
pitchwheel channel=11 pitch=-1055 time=48
control_change channel=11 control=11 value=104 time=12
pitchwheel channel=11 pitch=-1218 time=24
pitchwheel channel=11 pitch=-1380 time=24
control_change channel=11 control=11 value=101 time=0
pitchwheel channel=11 pitch=-1542 time=36
pitchwheel channel=11 pitch=-1704 time=24
pitchwheel channel=11 pitch=-1866 time=12
pitchwheel channel=11 pitch=-2029 time=24
pitchwheel channel=11 pitch=-2191 time=12
control_change channel=11 control=11 value=99 time=0
pitchwheel channel=11 pitch=-2353 time=12
note_off channel=11 note=64 velocity=64 time=12
pitchwheel channel=11 pitch=-2515 time=0
pitchwheel channel=11 pitch=-2840 time=12
control_change channel=11 control=11 value=96 time=12
control_change channel=11 control=11 value=127 time=24
pitchwheel channel=11 pitch=0 time=0
note_on channel=11 note=67 velocity=81 time=1280
note_off channel=11 note=67 velocity=64 time=604
note_on channel=11 note=69 velocity=81 time=36
note_off channel=11 note=69 velocity=64 time=180
note_on channel=11 note=70 velocity=81 time=300
note_off channel=11 note=70 velocity=64 time=296
note_on channel=11 note=69 velocity=81 time=24
note_off channel=11 note=69 velocity=64 time=136
note_on channel=11 note=69 velocity=81 time=344
note_off channel=11 note=69 velocity=64 time=180
note_on channel=11 note=67 velocity=75 time=300
note_off channel=11 note=67 velocity=64 time=148
note_on channel=11 note=65 velocity=81 time=12
note_off channel=11 note=65 velocity=64 time=456
note_on channel=11 note=64 velocity=81 time=24
note_off channel=11 note=64 velocity=64 time=156
note_on channel=11 note=74 velocity=88 time=804
note_off channel=11 note=74 velocity=64 time=912
note_on channel=11 note=72 velocity=81 time=48
note_off channel=11 note=72 velocity=64 time=180
control_change channel=11 control=11 value=104 time=300
note_on channel=11 note=70 velocity=88 time=0
control_change channel=11 control=11 value=106 time=108
control_change channel=11 control=11 value=109 time=108
note_off channel=11 note=70 velocity=64 time=92
note_on channel=11 note=72 velocity=88 time=12
control_change channel=11 control=11 value=111 time=4
control_change channel=11 control=11 value=114 time=108
control_change channel=11 control=11 value=116 time=108
control_change channel=11 control=11 value=119 time=108
control_change channel=11 control=11 value=121 time=108
control_change channel=11 control=11 value=124 time=108
note_off channel=11 note=72 velocity=64 time=60
control_change channel=11 control=11 value=127 time=36
control_change channel=11 control=11 value=127 time=0
note_on channel=11 note=69 velocity=88 time=0
control_change channel=11 control=11 value=124 time=84
control_change channel=11 control=11 value=121 time=84
control_change channel=11 control=11 value=119 time=108
note_off channel=11 note=69 velocity=64 time=32
note_on channel=11 note=63 velocity=88 time=12
control_change channel=11 control=11 value=116 time=4
control_change channel=11 control=11 value=114 time=108
control_change channel=11 control=11 value=111 time=48
control_change channel=11 control=11 value=109 time=108
control_change channel=11 control=11 value=106 time=60
control_change channel=11 control=11 value=104 time=108
control_change channel=11 control=11 value=101 time=48
note_off channel=11 note=63 velocity=64 time=108
control_change channel=11 control=11 value=99 time=0
control_change channel=11 control=11 value=96 time=48
control_change channel=11 control=11 value=127 time=0
control_change channel=11 control=11 value=127 time=12
note_on channel=11 note=62 velocity=69 time=3188
note_off channel=11 note=62 velocity=64 time=136
note_on channel=11 note=60 velocity=66 time=24
note_off channel=11 note=60 velocity=64 time=296
note_on channel=11 note=57 velocity=57 time=24
note_off channel=11 note=57 velocity=64 time=136
note_on channel=11 note=62 velocity=69 time=3224
note_off channel=11 note=62 velocity=64 time=136
note_on channel=11 note=60 velocity=66 time=24
note_off channel=11 note=60 velocity=64 time=296
note_on channel=11 note=57 velocity=57 time=24
note_off channel=11 note=57 velocity=64 time=136
note_on channel=11 note=65 velocity=81 time=8024
note_off channel=11 note=65 velocity=64 time=168
note_on channel=11 note=67 velocity=81 time=312
note_off channel=11 note=67 velocity=64 time=136
note_on channel=11 note=67 velocity=81 time=24
note_off channel=11 note=67 velocity=64 time=168
note_on channel=11 note=67 velocity=81 time=312
note_off channel=11 note=67 velocity=64 time=168
control_change channel=11 control=93 value=30 time=312
note_on channel=11 note=68 velocity=81 time=0
note_off channel=11 note=68 velocity=64 time=444
note_on channel=11 note=70 velocity=81 time=36
note_off channel=11 note=70 velocity=64 time=296
note_on channel=11 note=72 velocity=81 time=24
note_off channel=11 note=72 velocity=64 time=136
note_on channel=11 note=62 velocity=81 time=824
note_off channel=11 note=62 velocity=64 time=604
note_on channel=11 note=65 velocity=81 time=36
note_off channel=11 note=65 velocity=64 time=296
note_on channel=11 note=62 velocity=69 time=24
note_off channel=11 note=62 velocity=64 time=136
note_on channel=11 note=69 velocity=81 time=24
note_off channel=11 note=69 velocity=64 time=284
note_on channel=11 note=69 velocity=81 time=36
note_off channel=11 note=69 velocity=64 time=168
note_on channel=11 note=69 velocity=81 time=312
note_off channel=11 note=69 velocity=64 time=604
note_on channel=11 note=72 velocity=81 time=36
note_off channel=11 note=72 velocity=64 time=296
note_on channel=11 note=70 velocity=81 time=24
note_off channel=11 note=70 velocity=64 time=124
note_on channel=11 note=68 velocity=81 time=1316
note_off channel=11 note=68 velocity=64 time=568
note_on channel=11 note=69 velocity=81 time=72
note_off channel=11 note=69 velocity=64 time=156
note_on channel=11 note=62 velocity=81 time=324
note_off channel=11 note=62 velocity=64 time=156
note_on channel=11 note=68 velocity=81 time=324
note_off channel=11 note=68 velocity=64 time=782
note_on channel=11 note=69 velocity=81 time=18
note_off channel=11 note=69 velocity=64 time=1060
control_change channel=11 control=0 value=56 time=7740
control_change channel=11 control=32 value=0 time=0
program_change channel=11 program=59 time=0
note_on channel=11 note=65 velocity=45 time=2720
control_change channel=11 control=11 value=127 time=1120
control_change channel=11 control=11 value=125 time=120
control_change channel=11 control=11 value=124 time=120
control_change channel=11 control=11 value=123 time=120
control_change channel=11 control=11 value=121 time=120
control_change channel=11 control=11 value=120 time=120
control_change channel=11 control=11 value=119 time=120
control_change channel=11 control=11 value=118 time=120
control_change channel=11 control=11 value=116 time=120
control_change channel=11 control=11 value=115 time=120
control_change channel=11 control=11 value=114 time=120
control_change channel=11 control=11 value=113 time=120
control_change channel=11 control=11 value=111 time=120
control_change channel=11 control=11 value=110 time=120
control_change channel=11 control=11 value=109 time=120
control_change channel=11 control=11 value=108 time=120
control_change channel=11 control=11 value=106 time=120
control_change channel=11 control=11 value=105 time=120
control_change channel=11 control=11 value=104 time=120
control_change channel=11 control=11 value=103 time=120
control_change channel=11 control=11 value=101 time=120
control_change channel=11 control=11 value=100 time=120
control_change channel=11 control=11 value=99 time=120
control_change channel=11 control=11 value=98 time=120
note_off channel=11 note=65 velocity=64 time=96
<meta message end_of_track time=0>
<meta message text text='Trombone 1' time=0>
control_change channel=12 control=11 value=127 time=0
control_change channel=12 control=7 value=106 time=0
control_change channel=12 control=10 value=84 time=0
control_change channel=12 control=91 value=94 time=0
control_change channel=12 control=93 value=30 time=0
control_change channel=12 control=0 value=56 time=0
control_change channel=12 control=32 value=0 time=0
program_change channel=12 program=57 time=0
note_on channel=12 note=68 velocity=69 time=9920
note_off channel=12 note=68 velocity=64 time=580
note_on channel=12 note=69 velocity=70 time=60
note_off channel=12 note=69 velocity=64 time=168
note_on channel=12 note=62 velocity=72 time=312
note_off channel=12 note=62 velocity=64 time=168
note_on channel=12 note=68 velocity=74 time=312
note_off channel=12 note=68 velocity=64 time=764
note_on channel=12 note=69 velocity=76 time=36
note_off channel=12 note=69 velocity=64 time=1072
note_on channel=12 note=63 velocity=81 time=368
note_off channel=12 note=63 velocity=64 time=580
note_on channel=12 note=64 velocity=84 time=60
note_off channel=12 note=64 velocity=64 time=168
note_on channel=12 note=62 velocity=85 time=312
note_off channel=12 note=62 velocity=64 time=168
note_on channel=12 note=63 velocity=88 time=312
note_off channel=12 note=63 velocity=64 time=764
note_on channel=12 note=62 velocity=90 time=36
note_off channel=12 note=62 velocity=64 time=592
note_on channel=12 note=62 velocity=93 time=48
note_off channel=12 note=62 velocity=64 time=272
note_on channel=12 note=62 velocity=93 time=48
note_off channel=12 note=62 velocity=64 time=124
note_on channel=12 note=53 velocity=50 time=19556
note_off channel=12 note=53 velocity=64 time=124
note_on channel=12 note=61 velocity=55 time=36
note_off channel=12 note=61 velocity=64 time=132
note_on channel=12 note=62 velocity=50 time=348
note_off channel=12 note=62 velocity=64 time=294
control_change channel=12 control=11 value=109 time=26
note_on channel=12 note=65 velocity=58 time=0
control_change channel=12 control=11 value=110 time=100
control_change channel=12 control=11 value=111 time=100
control_change channel=12 control=11 value=113 time=100
control_change channel=12 control=11 value=114 time=100
control_change channel=12 control=11 value=115 time=100
control_change channel=12 control=11 value=116 time=100
control_change channel=12 control=11 value=118 time=100
control_change channel=12 control=11 value=119 time=100
control_change channel=12 control=11 value=120 time=100
control_change channel=12 control=11 value=121 time=100
control_change channel=12 control=11 value=123 time=100
control_change channel=12 control=11 value=124 time=100
control_change channel=12 control=11 value=125 time=100
control_change channel=12 control=11 value=127 time=60
note_off channel=12 note=65 velocity=64 time=44
note_on channel=12 note=64 velocity=60 time=36
note_off channel=12 note=64 velocity=64 time=112
note_on channel=12 note=62 velocity=55 time=368
note_off channel=12 note=62 velocity=64 time=144
note_on channel=12 note=64 velocity=50 time=336
note_off channel=12 note=64 velocity=64 time=136
note_on channel=12 note=59 velocity=55 time=24
note_off channel=12 note=59 velocity=64 time=284
note_on channel=12 note=59 velocity=50 time=36
note_off channel=12 note=59 velocity=64 time=136
note_on channel=12 note=57 velocity=55 time=24
note_off channel=12 note=57 velocity=64 time=120
note_on channel=12 note=56 velocity=55 time=360
note_off channel=12 note=56 velocity=64 time=284
note_on channel=12 note=64 velocity=55 time=36
note_off channel=12 note=64 velocity=64 time=120
note_on channel=12 note=59 velocity=55 time=360
control_change channel=12 control=11 value=127 time=232
control_change channel=12 control=11 value=120 time=24
control_change channel=12 control=11 value=114 time=24
control_change channel=12 control=11 value=108 time=24
control_change channel=12 control=11 value=101 time=24
control_change channel=12 control=11 value=94 time=24
control_change channel=12 control=11 value=96 time=120
control_change channel=12 control=11 value=99 time=120
control_change channel=12 control=11 value=101 time=120
control_change channel=12 control=11 value=104 time=120
control_change channel=12 control=11 value=106 time=120
control_change channel=12 control=11 value=109 time=120
control_change channel=12 control=11 value=111 time=120
control_change channel=12 control=11 value=114 time=120
control_change channel=12 control=11 value=116 time=120
control_change channel=12 control=11 value=119 time=120
control_change channel=12 control=11 value=121 time=120
control_change channel=12 control=11 value=124 time=120
control_change channel=12 control=11 value=127 time=120
note_off channel=12 note=59 velocity=64 time=120
note_on channel=12 note=55 velocity=60 time=368
note_off channel=12 note=55 velocity=64 time=124
note_on channel=12 note=55 velocity=54 time=36
note_off channel=12 note=55 velocity=64 time=120
note_on channel=12 note=58 velocity=56 time=360
note_off channel=12 note=58 velocity=64 time=284
note_on channel=12 note=58 velocity=59 time=36
note_off channel=12 note=58 velocity=64 time=108
note_on channel=12 note=62 velocity=65 time=372
note_off channel=12 note=62 velocity=64 time=592
note_on channel=12 note=62 velocity=60 time=48
note_off channel=12 note=62 velocity=64 time=296
note_on channel=12 note=62 velocity=50 time=24
note_off channel=12 note=62 velocity=64 time=134
note_on channel=12 note=60 velocity=55 time=26
note_off channel=12 note=60 velocity=64 time=284
note_on channel=12 note=62 velocity=55 time=36
note_off channel=12 note=62 velocity=64 time=120
note_on channel=12 note=61 velocity=56 time=360
control_change channel=12 control=11 value=127 time=232
control_change channel=12 control=11 value=120 time=24
control_change channel=12 control=11 value=114 time=24
control_change channel=12 control=11 value=108 time=24
control_change channel=12 control=11 value=101 time=24
control_change channel=12 control=11 value=95 time=24
control_change channel=12 control=11 value=95 time=0
control_change channel=12 control=11 value=96 time=120
control_change channel=12 control=11 value=98 time=120
control_change channel=12 control=11 value=99 time=120
control_change channel=12 control=11 value=100 time=120
control_change channel=12 control=11 value=101 time=120
control_change channel=12 control=11 value=103 time=120
control_change channel=12 control=11 value=104 time=120
control_change channel=12 control=11 value=105 time=120
control_change channel=12 control=11 value=106 time=120
control_change channel=12 control=11 value=108 time=120
control_change channel=12 control=11 value=109 time=120
control_change channel=12 control=11 value=110 time=120
control_change channel=12 control=11 value=111 time=120
control_change channel=12 control=11 value=113 time=120
note_off channel=12 note=61 velocity=64 time=32
note_on channel=12 note=60 velocity=51 time=16
control_change channel=12 control=11 value=114 time=72
control_change channel=12 control=11 value=115 time=120
control_change channel=12 control=11 value=116 time=120
control_change channel=12 control=11 value=118 time=120
control_change channel=12 control=11 value=119 time=120
control_change channel=12 control=11 value=120 time=120
control_change channel=12 control=11 value=121 time=120
control_change channel=12 control=11 value=123 time=120
control_change channel=12 control=11 value=124 time=120
control_change channel=12 control=11 value=125 time=120
control_change channel=12 control=11 value=127 time=48
note_off channel=12 note=60 velocity=64 time=180
note_on channel=12 note=60 velocity=59 time=60
note_off channel=12 note=60 velocity=64 time=284
note_on channel=12 note=59 velocity=60 time=36
note_off channel=12 note=59 velocity=64 time=112
note_on channel=12 note=58 velocity=48 time=1808
control_change channel=12 control=11 value=127 time=232
control_change channel=12 control=11 value=121 time=24
control_change channel=12 control=11 value=115 time=24
control_change channel=12 control=11 value=109 time=24
control_change channel=12 control=11 value=103 time=24
control_change channel=12 control=11 value=96 time=24
control_change channel=12 control=11 value=90 time=24
control_change channel=12 control=11 value=84 time=24
control_change channel=12 control=11 value=84 time=24
control_change channel=12 control=11 value=86 time=120
control_change channel=12 control=11 value=89 time=48
control_change channel=12 control=11 value=93 time=120
control_change channel=12 control=11 value=95 time=120
control_change channel=12 control=11 value=98 time=48
control_change channel=12 control=11 value=101 time=120
control_change channel=12 control=11 value=104 time=96
control_change channel=12 control=11 value=108 time=120
control_change channel=12 control=11 value=111 time=120
control_change channel=12 control=11 value=114 time=72
control_change channel=12 control=11 value=116 time=120
control_change channel=12 control=11 value=119 time=48
control_change channel=12 control=11 value=123 time=120
control_change channel=12 control=11 value=127 time=120
note_off channel=12 note=58 velocity=64 time=80
note_on channel=12 note=57 velocity=60 time=24
note_off channel=12 note=57 velocity=64 time=136
note_on channel=12 note=60 velocity=60 time=1784
control_change channel=12 control=11 value=127 time=232
control_change channel=12 control=11 value=121 time=24
control_change channel=12 control=11 value=115 time=24
control_change channel=12 control=11 value=109 time=24
control_change channel=12 control=11 value=103 time=24
control_change channel=12 control=11 value=96 time=24
control_change channel=12 control=11 value=90 time=24
control_change channel=12 control=11 value=84 time=24
control_change channel=12 control=11 value=84 time=24
control_change channel=12 control=11 value=86 time=120
control_change channel=12 control=11 value=89 time=48
control_change channel=12 control=11 value=93 time=120
control_change channel=12 control=11 value=95 time=120
control_change channel=12 control=11 value=98 time=48
control_change channel=12 control=11 value=101 time=120
control_change channel=12 control=11 value=104 time=96
control_change channel=12 control=11 value=108 time=120
control_change channel=12 control=11 value=111 time=120
control_change channel=12 control=11 value=114 time=72
control_change channel=12 control=11 value=116 time=120
control_change channel=12 control=11 value=119 time=48
control_change channel=12 control=11 value=123 time=120
control_change channel=12 control=11 value=127 time=120
note_off channel=12 note=60 velocity=64 time=80
note_on channel=12 note=59 velocity=60 time=24
note_off channel=12 note=59 velocity=64 time=136
note_on channel=12 note=58 velocity=60 time=1784
control_change channel=12 control=11 value=127 time=232
control_change channel=12 control=11 value=121 time=24
control_change channel=12 control=11 value=115 time=24
control_change channel=12 control=11 value=109 time=24
control_change channel=12 control=11 value=103 time=24
control_change channel=12 control=11 value=96 time=24
control_change channel=12 control=11 value=90 time=24
control_change channel=12 control=11 value=84 time=24
control_change channel=12 control=11 value=84 time=24
control_change channel=12 control=11 value=86 time=120
control_change channel=12 control=11 value=89 time=48
control_change channel=12 control=11 value=93 time=120
control_change channel=12 control=11 value=95 time=120
control_change channel=12 control=11 value=98 time=48
control_change channel=12 control=11 value=101 time=120
control_change channel=12 control=11 value=104 time=96
control_change channel=12 control=11 value=108 time=120
control_change channel=12 control=11 value=111 time=120
control_change channel=12 control=11 value=114 time=72
control_change channel=12 control=11 value=116 time=120
control_change channel=12 control=11 value=119 time=48
control_change channel=12 control=11 value=123 time=120
control_change channel=12 control=11 value=127 time=120
note_off channel=12 note=58 velocity=64 time=80
control_change channel=12 control=93 value=60 time=184
note_on channel=12 note=62 velocity=75 time=320
note_off channel=12 note=62 velocity=64 time=580
note_on channel=12 note=60 velocity=75 time=60
note_off channel=12 note=60 velocity=64 time=144
note_on channel=12 note=55 velocity=75 time=336
note_off channel=12 note=55 velocity=64 time=144
note_on channel=12 note=59 velocity=75 time=336
note_off channel=12 note=59 velocity=64 time=444
note_on channel=12 note=60 velocity=75 time=36
note_off channel=12 note=60 velocity=64 time=284
note_on channel=12 note=62 velocity=75 time=36
note_off channel=12 note=62 velocity=64 time=124
note_on channel=12 note=60 velocity=75 time=380
note_off channel=12 note=60 velocity=64 time=556
control_change channel=12 control=93 value=30 time=60
note_on channel=12 note=53 velocity=62 time=320
note_off channel=12 note=53 velocity=64 time=136
note_on channel=12 note=61 velocity=69 time=24
note_off channel=12 note=61 velocity=64 time=144
note_on channel=12 note=62 velocity=75 time=336
note_off channel=12 note=62 velocity=64 time=296
note_on channel=12 note=65 velocity=62 time=24
note_off channel=12 note=65 velocity=64 time=136
note_on channel=12 note=67 velocity=72 time=24
note_off channel=12 note=67 velocity=64 time=296
note_on channel=12 note=68 velocity=81 time=24
note_off channel=12 note=68 velocity=64 time=604
note_on channel=12 note=67 velocity=71 time=36
note_off channel=12 note=67 velocity=64 time=308
note_on channel=12 note=65 velocity=77 time=12
control_change channel=12 control=11 value=127 time=16
control_change channel=12 control=11 value=125 time=120
control_change channel=12 control=11 value=123 time=120
control_change channel=12 control=11 value=121 time=120
control_change channel=12 control=11 value=119 time=120
control_change channel=12 control=11 value=118 time=120
control_change channel=12 control=11 value=115 time=96
control_change channel=12 control=11 value=114 time=120
control_change channel=12 control=11 value=111 time=120
note_off channel=12 note=65 velocity=64 time=120
control_change channel=12 control=11 value=110 time=0
control_change channel=12 control=11 value=109 time=24
control_change channel=12 control=11 value=127 time=24
note_on channel=12 note=57 velocity=62 time=320
note_off channel=12 note=57 velocity=64 time=136
note_on channel=12 note=56 velocity=69 time=24
note_off channel=12 note=56 velocity=64 time=144
note_on channel=12 note=57 velocity=76 time=336
note_off channel=12 note=57 velocity=64 time=296
note_on channel=12 note=60 velocity=62 time=24
note_off channel=12 note=60 velocity=64 time=136
note_on channel=12 note=62 velocity=72 time=24
note_off channel=12 note=62 velocity=64 time=296
note_on channel=12 note=63 velocity=81 time=24
note_off channel=12 note=63 velocity=64 time=604
note_on channel=12 note=62 velocity=72 time=36
note_off channel=12 note=62 velocity=64 time=308
note_on channel=12 note=60 velocity=77 time=12
control_change channel=12 control=11 value=127 time=16
control_change channel=12 control=11 value=125 time=120
control_change channel=12 control=11 value=123 time=120
control_change channel=12 control=11 value=121 time=120
control_change channel=12 control=11 value=119 time=120
control_change channel=12 control=11 value=118 time=120
control_change channel=12 control=11 value=115 time=96
control_change channel=12 control=11 value=114 time=120
control_change channel=12 control=11 value=111 time=120
note_off channel=12 note=60 velocity=64 time=120
control_change channel=12 control=11 value=110 time=0
control_change channel=12 control=11 value=109 time=24
control_change channel=12 control=11 value=127 time=24
note_on channel=12 note=58 velocity=62 time=1760
control_change channel=12 control=11 value=127 time=232
control_change channel=12 control=11 value=121 time=24
control_change channel=12 control=11 value=115 time=24
control_change channel=12 control=11 value=109 time=24
control_change channel=12 control=11 value=103 time=24
control_change channel=12 control=11 value=96 time=24
control_change channel=12 control=11 value=90 time=24
control_change channel=12 control=11 value=84 time=24
control_change channel=12 control=11 value=88 time=96
control_change channel=12 control=11 value=91 time=96
control_change channel=12 control=11 value=94 time=72
control_change channel=12 control=11 value=98 time=96
control_change channel=12 control=11 value=101 time=96
control_change channel=12 control=11 value=104 time=48
control_change channel=12 control=11 value=108 time=96
control_change channel=12 control=11 value=111 time=96
control_change channel=12 control=11 value=114 time=72
control_change channel=12 control=11 value=118 time=72
control_change channel=12 control=11 value=121 time=96
control_change channel=12 control=11 value=124 time=72
control_change channel=12 control=11 value=127 time=48
note_off channel=12 note=58 velocity=64 time=104
note_on channel=12 note=58 velocity=62 time=40
note_off channel=12 note=58 velocity=64 time=296
note_on channel=12 note=57 velocity=62 time=24
note_off channel=12 note=57 velocity=64 time=136
note_on channel=12 note=60 velocity=69 time=3224
note_off channel=12 note=60 velocity=64 time=580
note_on channel=12 note=59 velocity=69 time=60
note_off channel=12 note=59 velocity=64 time=144
note_on channel=12 note=59 velocity=69 time=336
note_off channel=12 note=59 velocity=64 time=296
note_on channel=12 note=59 velocity=69 time=24
note_off channel=12 note=59 velocity=64 time=136
note_on channel=12 note=59 velocity=62 time=24
note_off channel=12 note=59 velocity=64 time=56
note_on channel=12 note=59 velocity=69 time=24
note_off channel=12 note=59 velocity=64 time=68
note_on channel=12 note=59 velocity=69 time=332
note_off channel=12 note=59 velocity=64 time=308
control_change channel=12 control=11 value=104 time=12
note_on channel=12 note=58 velocity=75 time=0
control_change channel=12 control=11 value=105 time=100
control_change channel=12 control=11 value=108 time=80
control_change channel=12 control=11 value=109 time=100
control_change channel=12 control=11 value=111 time=100
control_change channel=12 control=11 value=114 time=90
control_change channel=12 control=11 value=115 time=100
control_change channel=12 control=11 value=118 time=70
control_change channel=12 control=11 value=119 time=100
control_change channel=12 control=11 value=121 time=100
control_change channel=12 control=11 value=124 time=90
control_change channel=12 control=11 value=125 time=100
control_change channel=12 control=11 value=127 time=10
note_off channel=12 note=58 velocity=64 time=80
note_on channel=12 note=58 velocity=76 time=320
note_on channel=12 note=57 velocity=40 time=112
note_on channel=12 note=56 velocity=28 time=40
note_off channel=12 note=58 velocity=64 time=4
note_off channel=12 note=57 velocity=64 time=8
note_on channel=12 note=55 velocity=17 time=28
note_off channel=12 note=56 velocity=64 time=12
note_off channel=12 note=55 velocity=64 time=40
note_on channel=12 note=57 velocity=75 time=236
note_off channel=12 note=57 velocity=64 time=592
note_on channel=12 note=57 velocity=69 time=48
note_off channel=12 note=57 velocity=64 time=296
note_on channel=12 note=57 velocity=57 time=24
note_off channel=12 note=57 velocity=64 time=136
note_on channel=12 note=60 velocity=69 time=24
note_off channel=12 note=60 velocity=64 time=284
note_on channel=12 note=60 velocity=69 time=36
note_off channel=12 note=60 velocity=64 time=156
note_on channel=12 note=60 velocity=69 time=324
control_change channel=12 control=11 value=127 time=160
control_change channel=12 control=11 value=125 time=120
control_change channel=12 control=11 value=123 time=120
control_change channel=12 control=11 value=121 time=120
control_change channel=12 control=11 value=119 time=120
control_change channel=12 control=11 value=118 time=120
control_change channel=12 control=11 value=115 time=120
control_change channel=12 control=11 value=114 time=120
control_change channel=12 control=11 value=111 time=120
control_change channel=12 control=11 value=110 time=120
control_change channel=12 control=11 value=108 time=120
control_change channel=12 control=11 value=106 time=120
control_change channel=12 control=11 value=104 time=120
control_change channel=12 control=11 value=103 time=120
control_change channel=12 control=11 value=100 time=120
control_change channel=12 control=11 value=99 time=120
note_off channel=12 note=60 velocity=64 time=60
control_change channel=12 control=11 value=96 time=36
control_change channel=12 control=11 value=127 time=24
note_on channel=12 note=59 velocity=75 time=320
note_on channel=12 note=58 velocity=30 time=112
note_on channel=12 note=57 velocity=20 time=40
note_off channel=12 note=59 velocity=64 time=4
note_off channel=12 note=58 velocity=64 time=8
note_off channel=12 note=57 velocity=64 time=40
note_on channel=12 note=59 velocity=75 time=276
note_off channel=12 note=59 velocity=64 time=580
note_on channel=12 note=59 velocity=75 time=60
note_off channel=12 note=59 velocity=64 time=168
note_on channel=12 note=58 velocity=74 time=632
note_on channel=12 note=57 velocity=32 time=112
note_on channel=12 note=56 velocity=23 time=40
note_off channel=12 note=58 velocity=64 time=4
note_off channel=12 note=57 velocity=64 time=8
note_off channel=12 note=56 velocity=64 time=40
note_on channel=12 note=58 velocity=75 time=276
note_off channel=12 note=58 velocity=64 time=580
note_on channel=12 note=58 velocity=75 time=60
note_off channel=12 note=58 velocity=64 time=168
note_on channel=12 note=58 velocity=69 time=632
note_off channel=12 note=58 velocity=64 time=444
note_on channel=12 note=58 velocity=71 time=36
note_off channel=12 note=58 velocity=64 time=444
note_on channel=12 note=60 velocity=74 time=36
note_off channel=12 note=60 velocity=64 time=444
note_on channel=12 note=58 velocity=66 time=36
note_off channel=12 note=58 velocity=64 time=136
note_on channel=12 note=62 velocity=79 time=24
note_off channel=12 note=62 velocity=64 time=148
note_on channel=12 note=58 velocity=65 time=12
note_off channel=12 note=58 velocity=64 time=148
note_on channel=12 note=65 velocity=80 time=12
note_off channel=12 note=65 velocity=64 time=924
note_on channel=12 note=57 velocity=75 time=36
note_off channel=12 note=57 velocity=64 time=604
note_on channel=12 note=55 velocity=69 time=36
note_off channel=12 note=55 velocity=64 time=284
note_on channel=12 note=55 velocity=70 time=36
note_off channel=12 note=55 velocity=64 time=124
note_on channel=12 note=60 velocity=81 time=12516
note_off channel=12 note=60 velocity=64 time=168
note_on channel=12 note=63 velocity=71 time=312
note_off channel=12 note=63 velocity=64 time=308
control_change channel=12 control=11 value=109 time=12
note_on channel=12 note=65 velocity=82 time=0
control_change channel=12 control=11 value=110 time=120
control_change channel=12 control=11 value=111 time=110
control_change channel=12 control=11 value=113 time=110
control_change channel=12 control=11 value=114 time=110
control_change channel=12 control=11 value=115 time=110
control_change channel=12 control=11 value=116 time=110
control_change channel=12 control=11 value=118 time=110
control_change channel=12 control=11 value=119 time=120
control_change channel=12 control=11 value=120 time=110
control_change channel=12 control=11 value=121 time=110
control_change channel=12 control=11 value=123 time=110
control_change channel=12 control=11 value=124 time=110
control_change channel=12 control=11 value=125 time=110
note_off channel=12 note=65 velocity=64 time=102
control_change channel=12 control=11 value=127 time=8
note_on channel=12 note=65 velocity=81 time=360
note_off channel=12 note=65 velocity=64 time=604
note_on channel=12 note=64 velocity=81 time=36
note_off channel=12 note=64 velocity=64 time=296
note_on channel=12 note=62 velocity=81 time=24
note_off channel=12 note=62 velocity=64 time=136
note_on channel=12 note=62 velocity=81 time=824
note_off channel=12 note=62 velocity=64 time=604
note_on channel=12 note=58 velocity=81 time=36
note_off channel=12 note=58 velocity=64 time=296
note_on channel=12 note=58 velocity=81 time=24
note_off channel=12 note=58 velocity=64 time=136
note_on channel=12 note=67 velocity=81 time=824
note_off channel=12 note=67 velocity=64 time=604
note_on channel=12 note=61 velocity=81 time=36
note_off channel=12 note=61 velocity=64 time=296
note_on channel=12 note=62 velocity=81 time=24
note_off channel=12 note=62 velocity=64 time=136
note_on channel=12 note=64 velocity=81 time=824
note_off channel=12 note=64 velocity=64 time=604
note_on channel=12 note=60 velocity=81 time=36
note_off channel=12 note=60 velocity=64 time=296
note_on channel=12 note=60 velocity=81 time=24
note_off channel=12 note=60 velocity=64 time=136
note_on channel=12 note=65 velocity=81 time=824
note_off channel=12 note=65 velocity=64 time=580
note_on channel=12 note=65 velocity=81 time=60
note_off channel=12 note=65 velocity=64 time=168
note_on channel=12 note=65 velocity=81 time=312
note_off channel=12 note=65 velocity=64 time=168
note_on channel=12 note=65 velocity=81 time=312
note_off channel=12 note=65 velocity=64 time=296
note_on channel=12 note=67 velocity=69 time=24
note_off channel=12 note=67 velocity=64 time=148
note_on channel=12 note=65 velocity=81 time=12
note_off channel=12 note=65 velocity=64 time=311
note_on channel=12 note=64 velocity=81 time=9
pitchwheel channel=12 pitch=0 time=16
control_change channel=12 control=11 value=127 time=0
pitchwheel channel=12 pitch=242 time=24
control_change channel=12 control=11 value=124 time=72
control_change channel=12 control=11 value=121 time=96
pitchwheel channel=12 pitch=0 time=72
control_change channel=12 control=11 value=119 time=48
control_change channel=12 control=11 value=116 time=48
pitchwheel channel=12 pitch=-82 time=96
control_change channel=12 control=11 value=114 time=24
control_change channel=12 control=11 value=111 time=72
pitchwheel channel=12 pitch=-244 time=24
pitchwheel channel=12 pitch=-407 time=96
control_change channel=12 control=11 value=109 time=0
control_change channel=12 control=11 value=106 time=48
pitchwheel channel=12 pitch=-569 time=24
pitchwheel channel=12 pitch=-731 time=72
control_change channel=12 control=11 value=104 time=24
pitchwheel channel=12 pitch=-893 time=24
pitchwheel channel=12 pitch=-1055 time=48
control_change channel=12 control=11 value=101 time=0
pitchwheel channel=12 pitch=-1218 time=48
pitchwheel channel=12 pitch=-1380 time=24
pitchwheel channel=12 pitch=-1542 time=24
pitchwheel channel=12 pitch=-1704 time=24
control_change channel=12 control=11 value=99 time=0
note_off channel=12 note=64 velocity=64 time=24
pitchwheel channel=12 pitch=-2029 time=0
control_change channel=12 control=11 value=127 time=24
control_change channel=12 control=11 value=96 time=0
control_change channel=12 control=11 value=127 time=24
pitchwheel channel=12 pitch=0 time=0
note_on channel=12 note=63 velocity=81 time=320
note_on channel=12 note=62 velocity=30 time=112
note_on channel=12 note=61 velocity=20 time=40
note_off channel=12 note=63 velocity=64 time=8
note_off channel=12 note=62 velocity=64 time=4
note_off channel=12 note=61 velocity=64 time=40
note_on channel=12 note=63 velocity=81 time=436
note_off channel=12 note=63 velocity=64 time=168
note_on channel=12 note=63 velocity=81 time=312
note_off channel=12 note=63 velocity=64 time=168
note_on channel=12 note=65 velocity=81 time=792
note_off channel=12 note=65 velocity=64 time=296
note_on channel=12 note=65 velocity=81 time=24
note_off channel=12 note=65 velocity=64 time=192
note_on channel=12 note=63 velocity=69 time=288
note_off channel=12 note=63 velocity=64 time=148
note_on channel=12 note=65 velocity=81 time=12
note_off channel=12 note=65 velocity=64 time=308
note_on channel=12 note=65 velocity=75 time=12
note_off channel=12 note=65 velocity=64 time=136
note_on channel=12 note=65 velocity=81 time=24
note_off channel=12 note=65 velocity=64 time=296
note_on channel=12 note=62 velocity=81 time=24
note_off channel=12 note=62 velocity=64 time=136
note_on channel=12 note=62 velocity=81 time=1944
note_off channel=12 note=62 velocity=64 time=168
note_on channel=12 note=62 velocity=81 time=312
note_off channel=12 note=62 velocity=64 time=296
note_on channel=12 note=62 velocity=81 time=24
note_off channel=12 note=62 velocity=64 time=180
note_on channel=12 note=67 velocity=81 time=300
note_on channel=12 note=69 velocity=59 time=1440
note_off channel=12 note=67 velocity=64 time=16
note_on channel=12 note=68 velocity=70 time=64
note_off channel=12 note=69 velocity=64 time=24
note_on channel=12 note=67 velocity=81 time=56
note_off channel=12 note=68 velocity=64 time=24
note_off channel=12 note=67 velocity=64 time=284
note_on channel=12 note=60 velocity=81 time=12
pitchwheel channel=12 pitch=0 time=160
control_change channel=12 control=11 value=127 time=0
pitchwheel channel=12 pitch=242 time=12
control_change channel=12 control=11 value=124 time=72
control_change channel=12 control=11 value=121 time=72
pitchwheel channel=12 pitch=0 time=48
control_change channel=12 control=11 value=119 time=60
control_change channel=12 control=11 value=116 time=48
pitchwheel channel=12 pitch=-82 time=36
control_change channel=12 control=11 value=114 time=72
pitchwheel channel=12 pitch=-244 time=24
control_change channel=12 control=11 value=111 time=24
pitchwheel channel=12 pitch=-407 time=48
pitchwheel channel=12 pitch=-569 time=60
control_change channel=12 control=11 value=109 time=0
control_change channel=12 control=11 value=106 time=48
pitchwheel channel=12 pitch=-731 time=12
pitchwheel channel=12 pitch=-893 time=36
pitchwheel channel=12 pitch=-1055 time=48
control_change channel=12 control=11 value=104 time=12
pitchwheel channel=12 pitch=-1218 time=24
pitchwheel channel=12 pitch=-1380 time=24
control_change channel=12 control=11 value=101 time=0
pitchwheel channel=12 pitch=-1542 time=36
pitchwheel channel=12 pitch=-1704 time=24
pitchwheel channel=12 pitch=-1866 time=12
pitchwheel channel=12 pitch=-2029 time=24
pitchwheel channel=12 pitch=-2191 time=12
control_change channel=12 control=11 value=99 time=0
pitchwheel channel=12 pitch=-2353 time=12
note_off channel=12 note=60 velocity=64 time=12
pitchwheel channel=12 pitch=-2515 time=0
pitchwheel channel=12 pitch=-2840 time=12
control_change channel=12 control=11 value=96 time=12
control_change channel=12 control=11 value=127 time=24
pitchwheel channel=12 pitch=0 time=0
note_on channel=12 note=62 velocity=81 time=1280
note_off channel=12 note=62 velocity=64 time=604
note_on channel=12 note=66 velocity=81 time=36
note_off channel=12 note=66 velocity=64 time=180
note_on channel=12 note=66 velocity=81 time=300
note_off channel=12 note=66 velocity=64 time=296
note_on channel=12 note=65 velocity=81 time=24
note_off channel=12 note=65 velocity=64 time=136
note_on channel=12 note=65 velocity=81 time=344
note_off channel=12 note=65 velocity=64 time=180
note_on channel=12 note=65 velocity=75 time=300
note_off channel=12 note=65 velocity=64 time=148
note_on channel=12 note=62 velocity=81 time=12
note_off channel=12 note=62 velocity=64 time=456
note_on channel=12 note=64 velocity=81 time=24
note_off channel=12 note=64 velocity=64 time=156
note_on channel=12 note=67 velocity=88 time=804
note_off channel=12 note=67 velocity=64 time=912
note_on channel=12 note=67 velocity=81 time=48
note_off channel=12 note=67 velocity=64 time=180
control_change channel=12 control=11 value=104 time=300
note_on channel=12 note=65 velocity=88 time=0
control_change channel=12 control=11 value=106 time=108
control_change channel=12 control=11 value=109 time=108
note_off channel=12 note=65 velocity=64 time=92
note_on channel=12 note=65 velocity=88 time=12
control_change channel=12 control=11 value=111 time=4
control_change channel=12 control=11 value=114 time=108
control_change channel=12 control=11 value=116 time=108
control_change channel=12 control=11 value=119 time=108
control_change channel=12 control=11 value=121 time=108
control_change channel=12 control=11 value=124 time=108
note_off channel=12 note=65 velocity=64 time=60
control_change channel=12 control=11 value=127 time=36
control_change channel=12 control=11 value=127 time=0
note_on channel=12 note=64 velocity=88 time=0
control_change channel=12 control=11 value=124 time=84
control_change channel=12 control=11 value=121 time=84
control_change channel=12 control=11 value=119 time=108
note_off channel=12 note=64 velocity=64 time=32
note_on channel=12 note=60 velocity=88 time=12
control_change channel=12 control=11 value=116 time=4
control_change channel=12 control=11 value=114 time=108
control_change channel=12 control=11 value=111 time=48
control_change channel=12 control=11 value=109 time=108
control_change channel=12 control=11 value=106 time=60
control_change channel=12 control=11 value=104 time=108
control_change channel=12 control=11 value=101 time=48
note_off channel=12 note=60 velocity=64 time=108
control_change channel=12 control=11 value=99 time=0
control_change channel=12 control=11 value=127 time=48
control_change channel=12 control=11 value=96 time=0
control_change channel=12 control=11 value=127 time=12
note_on channel=12 note=58 velocity=60 time=1748
control_change channel=12 control=11 value=127 time=232
control_change channel=12 control=11 value=121 time=24
control_change channel=12 control=11 value=115 time=24
control_change channel=12 control=11 value=109 time=24
control_change channel=12 control=11 value=103 time=24
control_change channel=12 control=11 value=96 time=24
control_change channel=12 control=11 value=90 time=24
control_change channel=12 control=11 value=84 time=24
control_change channel=12 control=11 value=84 time=24
control_change channel=12 control=11 value=86 time=120
control_change channel=12 control=11 value=89 time=48
control_change channel=12 control=11 value=93 time=120
control_change channel=12 control=11 value=95 time=120
control_change channel=12 control=11 value=98 time=48
control_change channel=12 control=11 value=101 time=120
control_change channel=12 control=11 value=104 time=96
control_change channel=12 control=11 value=108 time=120
control_change channel=12 control=11 value=111 time=120
control_change channel=12 control=11 value=114 time=72
control_change channel=12 control=11 value=116 time=120
control_change channel=12 control=11 value=119 time=48
control_change channel=12 control=11 value=123 time=120
control_change channel=12 control=11 value=127 time=120
note_off channel=12 note=58 velocity=64 time=80
note_on channel=12 note=57 velocity=60 time=24
note_off channel=12 note=57 velocity=64 time=136
note_on channel=12 note=60 velocity=60 time=1784
control_change channel=12 control=11 value=127 time=232
control_change channel=12 control=11 value=121 time=24
control_change channel=12 control=11 value=115 time=24
control_change channel=12 control=11 value=109 time=24
control_change channel=12 control=11 value=103 time=24
control_change channel=12 control=11 value=96 time=24
control_change channel=12 control=11 value=90 time=24
control_change channel=12 control=11 value=84 time=24
control_change channel=12 control=11 value=84 time=24
control_change channel=12 control=11 value=86 time=120
control_change channel=12 control=11 value=89 time=48
control_change channel=12 control=11 value=93 time=120
control_change channel=12 control=11 value=95 time=120
control_change channel=12 control=11 value=98 time=48
control_change channel=12 control=11 value=101 time=120
control_change channel=12 control=11 value=104 time=96
control_change channel=12 control=11 value=108 time=120
control_change channel=12 control=11 value=111 time=120
control_change channel=12 control=11 value=114 time=72
control_change channel=12 control=11 value=116 time=120
control_change channel=12 control=11 value=119 time=48
control_change channel=12 control=11 value=123 time=120
control_change channel=12 control=11 value=127 time=120
note_off channel=12 note=60 velocity=64 time=80
note_on channel=12 note=59 velocity=60 time=24
note_off channel=12 note=59 velocity=64 time=136
note_on channel=12 note=58 velocity=60 time=1784
control_change channel=12 control=11 value=127 time=232
control_change channel=12 control=11 value=121 time=24
control_change channel=12 control=11 value=115 time=24
control_change channel=12 control=11 value=109 time=24
control_change channel=12 control=11 value=103 time=24
control_change channel=12 control=11 value=96 time=24
control_change channel=12 control=11 value=90 time=24
control_change channel=12 control=11 value=84 time=24
control_change channel=12 control=11 value=84 time=24
control_change channel=12 control=11 value=86 time=120
control_change channel=12 control=11 value=89 time=48
control_change channel=12 control=11 value=93 time=120
control_change channel=12 control=11 value=95 time=120
control_change channel=12 control=11 value=98 time=48
control_change channel=12 control=11 value=101 time=120
control_change channel=12 control=11 value=104 time=96
control_change channel=12 control=11 value=108 time=120
control_change channel=12 control=11 value=111 time=120
control_change channel=12 control=11 value=114 time=72
control_change channel=12 control=11 value=116 time=120
control_change channel=12 control=11 value=119 time=48
control_change channel=12 control=11 value=123 time=120
control_change channel=12 control=11 value=127 time=120
note_off channel=12 note=58 velocity=64 time=80
control_change channel=12 control=93 value=60 time=184
note_on channel=12 note=62 velocity=75 time=320
note_off channel=12 note=62 velocity=64 time=580
note_on channel=12 note=60 velocity=75 time=60
note_off channel=12 note=60 velocity=64 time=144
note_on channel=12 note=55 velocity=75 time=336
note_off channel=12 note=55 velocity=64 time=144
note_on channel=12 note=59 velocity=75 time=336
note_off channel=12 note=59 velocity=64 time=444
note_on channel=12 note=58 velocity=75 time=36
note_off channel=12 note=58 velocity=64 time=284
note_on channel=12 note=57 velocity=75 time=36
note_off channel=12 note=57 velocity=64 time=124
control_change channel=12 control=93 value=30 time=36
note_on channel=12 note=62 velocity=81 time=1280
note_off channel=12 note=62 velocity=64 time=168
note_on channel=12 note=64 velocity=81 time=312
note_off channel=12 note=64 velocity=64 time=136
note_on channel=12 note=65 velocity=81 time=24
note_off channel=12 note=65 velocity=64 time=168
note_on channel=12 note=65 velocity=81 time=312
note_off channel=12 note=65 velocity=64 time=168
control_change channel=12 control=93 value=30 time=312
note_on channel=12 note=65 velocity=81 time=0
note_off channel=12 note=65 velocity=64 time=444
note_on channel=12 note=65 velocity=81 time=36
note_off channel=12 note=65 velocity=64 time=296
note_on channel=12 note=65 velocity=81 time=24
note_off channel=12 note=65 velocity=64 time=136
note_on channel=12 note=60 velocity=81 time=824
note_off channel=12 note=60 velocity=64 time=604
note_on channel=12 note=62 velocity=81 time=36
note_off channel=12 note=62 velocity=64 time=296
note_on channel=12 note=60 velocity=69 time=24
note_off channel=12 note=60 velocity=64 time=136
note_on channel=12 note=65 velocity=81 time=24
note_off channel=12 note=65 velocity=64 time=284
note_on channel=12 note=67 velocity=81 time=36
note_off channel=12 note=67 velocity=64 time=168
note_on channel=12 note=67 velocity=81 time=312
note_off channel=12 note=67 velocity=64 time=604
note_on channel=12 note=67 velocity=81 time=36
note_off channel=12 note=67 velocity=64 time=296
note_on channel=12 note=66 velocity=81 time=24
note_off channel=12 note=66 velocity=64 time=124
note_on channel=12 note=63 velocity=81 time=1316
note_off channel=12 note=63 velocity=64 time=568
note_on channel=12 note=64 velocity=81 time=72
note_off channel=12 note=64 velocity=64 time=156
note_on channel=12 note=62 velocity=81 time=324
note_off channel=12 note=62 velocity=64 time=156
note_on channel=12 note=63 velocity=81 time=324
note_off channel=12 note=63 velocity=64 time=782
note_on channel=12 note=64 velocity=81 time=18
note_off channel=12 note=64 velocity=64 time=1060
note_on channel=12 note=68 velocity=81 time=380
note_off channel=12 note=68 velocity=64 time=580
note_on channel=12 note=69 velocity=81 time=60
note_off channel=12 note=69 velocity=64 time=168
note_on channel=12 note=62 velocity=81 time=312
note_off channel=12 note=62 velocity=64 time=168
note_on channel=12 note=68 velocity=81 time=312
note_off channel=12 note=68 velocity=64 time=782
note_on channel=12 note=69 velocity=81 time=18
note_off channel=12 note=69 velocity=64 time=1060
note_on channel=12 note=60 velocity=56 time=5820
note_off channel=12 note=60 velocity=64 time=80
note_on channel=12 note=60 velocity=62 time=0
note_off channel=12 note=60 velocity=64 time=80
note_on channel=12 note=57 velocity=45 time=640
control_change channel=12 control=11 value=127 time=1120
control_change channel=12 control=11 value=125 time=120
control_change channel=12 control=11 value=124 time=120
control_change channel=12 control=11 value=123 time=120
control_change channel=12 control=11 value=121 time=120
control_change channel=12 control=11 value=120 time=120
control_change channel=12 control=11 value=119 time=120
control_change channel=12 control=11 value=118 time=120
control_change channel=12 control=11 value=116 time=120
control_change channel=12 control=11 value=115 time=120
control_change channel=12 control=11 value=114 time=120
control_change channel=12 control=11 value=113 time=120
control_change channel=12 control=11 value=111 time=120
control_change channel=12 control=11 value=110 time=120
control_change channel=12 control=11 value=109 time=120
control_change channel=12 control=11 value=108 time=120
control_change channel=12 control=11 value=106 time=120
control_change channel=12 control=11 value=105 time=120
control_change channel=12 control=11 value=104 time=120
control_change channel=12 control=11 value=103 time=120
control_change channel=12 control=11 value=101 time=120
control_change channel=12 control=11 value=100 time=120
control_change channel=12 control=11 value=99 time=120
control_change channel=12 control=11 value=98 time=120
note_off channel=12 note=57 velocity=64 time=96
<meta message end_of_track time=0>
<meta message text text='Trombone 2' time=0>
control_change channel=13 control=11 value=127 time=0
control_change channel=13 control=7 value=106 time=0
control_change channel=13 control=10 value=89 time=0
control_change channel=13 control=91 value=89 time=0
control_change channel=13 control=93 value=25 time=0
control_change channel=13 control=0 value=56 time=0
control_change channel=13 control=32 value=0 time=0
program_change channel=13 program=57 time=0
note_on channel=13 note=63 velocity=62 time=9920
note_off channel=13 note=63 velocity=64 time=580
note_on channel=13 note=64 velocity=64 time=60
note_off channel=13 note=64 velocity=64 time=168
note_on channel=13 note=63 velocity=67 time=792
note_off channel=13 note=63 velocity=64 time=764
note_on channel=13 note=64 velocity=70 time=36
note_off channel=13 note=64 velocity=64 time=1072
note_on channel=13 note=59 velocity=75 time=368
note_off channel=13 note=59 velocity=64 time=580
note_on channel=13 note=59 velocity=77 time=60
note_off channel=13 note=59 velocity=64 time=168
note_on channel=13 note=59 velocity=79 time=312
note_off channel=13 note=59 velocity=64 time=168
note_on channel=13 note=58 velocity=81 time=312
note_off channel=13 note=58 velocity=64 time=764
note_on channel=13 note=58 velocity=84 time=36
note_off channel=13 note=58 velocity=64 time=592
note_on channel=13 note=58 velocity=86 time=48
note_off channel=13 note=58 velocity=64 time=272
note_on channel=13 note=60 velocity=86 time=48
note_off channel=13 note=60 velocity=64 time=124
note_on channel=13 note=55 velocity=45 time=19556
note_off channel=13 note=55 velocity=64 time=124
note_on channel=13 note=57 velocity=50 time=36
note_off channel=13 note=57 velocity=64 time=132
note_on channel=13 note=58 velocity=45 time=348
note_off channel=13 note=58 velocity=64 time=294
control_change channel=13 control=11 value=109 time=26
note_on channel=13 note=62 velocity=52 time=0
control_change channel=13 control=11 value=110 time=100
control_change channel=13 control=11 value=111 time=100
control_change channel=13 control=11 value=113 time=100
control_change channel=13 control=11 value=114 time=100
control_change channel=13 control=11 value=115 time=100
control_change channel=13 control=11 value=116 time=100
control_change channel=13 control=11 value=118 time=100
control_change channel=13 control=11 value=119 time=100
control_change channel=13 control=11 value=120 time=100
control_change channel=13 control=11 value=121 time=100
control_change channel=13 control=11 value=123 time=100
control_change channel=13 control=11 value=124 time=100
control_change channel=13 control=11 value=125 time=100
control_change channel=13 control=11 value=127 time=60
note_off channel=13 note=62 velocity=64 time=44
note_on channel=13 note=58 velocity=55 time=36
note_off channel=13 note=58 velocity=64 time=112
note_on channel=13 note=58 velocity=50 time=368
note_off channel=13 note=58 velocity=64 time=144
note_on channel=13 note=58 velocity=45 time=336
note_off channel=13 note=58 velocity=64 time=136
note_on channel=13 note=52 velocity=50 time=24
note_off channel=13 note=52 velocity=64 time=284
note_on channel=13 note=52 velocity=45 time=36
note_off channel=13 note=52 velocity=64 time=136
note_on channel=13 note=52 velocity=50 time=24
note_off channel=13 note=52 velocity=64 time=120
note_on channel=13 note=52 velocity=50 time=360
note_off channel=13 note=52 velocity=64 time=284
note_on channel=13 note=60 velocity=50 time=36
note_off channel=13 note=60 velocity=64 time=120
note_on channel=13 note=56 velocity=50 time=360
control_change channel=13 control=11 value=127 time=232
control_change channel=13 control=11 value=120 time=24
control_change channel=13 control=11 value=114 time=24
control_change channel=13 control=11 value=108 time=24
control_change channel=13 control=11 value=101 time=24
control_change channel=13 control=11 value=94 time=24
control_change channel=13 control=11 value=96 time=120
control_change channel=13 control=11 value=99 time=120
control_change channel=13 control=11 value=101 time=120
control_change channel=13 control=11 value=104 time=120
control_change channel=13 control=11 value=106 time=120
control_change channel=13 control=11 value=109 time=120
control_change channel=13 control=11 value=111 time=120
control_change channel=13 control=11 value=114 time=120
control_change channel=13 control=11 value=116 time=120
control_change channel=13 control=11 value=119 time=120
control_change channel=13 control=11 value=121 time=120
control_change channel=13 control=11 value=124 time=120
control_change channel=13 control=11 value=127 time=120
note_off channel=13 note=56 velocity=64 time=120
note_on channel=13 note=50 velocity=55 time=368
note_off channel=13 note=50 velocity=64 time=124
note_on channel=13 note=50 velocity=50 time=36
note_off channel=13 note=50 velocity=64 time=120
note_on channel=13 note=54 velocity=52 time=360
note_off channel=13 note=54 velocity=64 time=284
note_on channel=13 note=54 velocity=55 time=36
note_off channel=13 note=54 velocity=64 time=108
note_on channel=13 note=58 velocity=60 time=372
note_off channel=13 note=58 velocity=64 time=592
note_on channel=13 note=58 velocity=55 time=48
note_off channel=13 note=58 velocity=64 time=296
note_on channel=13 note=58 velocity=45 time=24
note_off channel=13 note=58 velocity=64 time=134
note_on channel=13 note=55 velocity=50 time=26
note_off channel=13 note=55 velocity=64 time=284
note_on channel=13 note=55 velocity=50 time=36
note_off channel=13 note=55 velocity=64 time=120
note_on channel=13 note=55 velocity=50 time=360
control_change channel=13 control=11 value=127 time=232
control_change channel=13 control=11 value=120 time=24
control_change channel=13 control=11 value=114 time=24
control_change channel=13 control=11 value=108 time=24
control_change channel=13 control=11 value=101 time=24
control_change channel=13 control=11 value=95 time=24
control_change channel=13 control=11 value=95 time=0
control_change channel=13 control=11 value=96 time=120
control_change channel=13 control=11 value=98 time=120
control_change channel=13 control=11 value=99 time=120
control_change channel=13 control=11 value=100 time=120
control_change channel=13 control=11 value=101 time=120
control_change channel=13 control=11 value=103 time=120
control_change channel=13 control=11 value=104 time=120
control_change channel=13 control=11 value=105 time=120
control_change channel=13 control=11 value=106 time=120
control_change channel=13 control=11 value=108 time=120
control_change channel=13 control=11 value=109 time=120
control_change channel=13 control=11 value=110 time=120
control_change channel=13 control=11 value=111 time=120
control_change channel=13 control=11 value=113 time=120
note_off channel=13 note=55 velocity=64 time=32
note_on channel=13 note=54 velocity=45 time=16
control_change channel=13 control=11 value=114 time=72
control_change channel=13 control=11 value=115 time=120
control_change channel=13 control=11 value=116 time=120
control_change channel=13 control=11 value=118 time=120
control_change channel=13 control=11 value=119 time=120
control_change channel=13 control=11 value=120 time=120
control_change channel=13 control=11 value=121 time=120
control_change channel=13 control=11 value=123 time=120
control_change channel=13 control=11 value=124 time=120
control_change channel=13 control=11 value=125 time=120
control_change channel=13 control=11 value=127 time=48
note_off channel=13 note=54 velocity=64 time=180
note_on channel=13 note=54 velocity=55 time=60
note_off channel=13 note=54 velocity=64 time=284
note_on channel=13 note=53 velocity=55 time=36
note_off channel=13 note=53 velocity=64 time=112
note_on channel=13 note=52 velocity=45 time=1808
control_change channel=13 control=11 value=127 time=232
control_change channel=13 control=11 value=121 time=24
control_change channel=13 control=11 value=115 time=24
control_change channel=13 control=11 value=109 time=24
control_change channel=13 control=11 value=103 time=24
control_change channel=13 control=11 value=96 time=24
control_change channel=13 control=11 value=90 time=24
control_change channel=13 control=11 value=84 time=24
control_change channel=13 control=11 value=84 time=24
control_change channel=13 control=11 value=86 time=120
control_change channel=13 control=11 value=89 time=48
control_change channel=13 control=11 value=93 time=120
control_change channel=13 control=11 value=95 time=120
control_change channel=13 control=11 value=98 time=48
control_change channel=13 control=11 value=101 time=120
control_change channel=13 control=11 value=104 time=96
control_change channel=13 control=11 value=108 time=120
control_change channel=13 control=11 value=111 time=120
control_change channel=13 control=11 value=114 time=72
control_change channel=13 control=11 value=116 time=120
control_change channel=13 control=11 value=119 time=48
control_change channel=13 control=11 value=123 time=120
control_change channel=13 control=11 value=127 time=120
note_off channel=13 note=52 velocity=64 time=80
note_on channel=13 note=50 velocity=56 time=24
note_off channel=13 note=50 velocity=64 time=136
note_on channel=13 note=54 velocity=56 time=1784
control_change channel=13 control=11 value=127 time=232
control_change channel=13 control=11 value=121 time=24
control_change channel=13 control=11 value=115 time=24
control_change channel=13 control=11 value=109 time=24
control_change channel=13 control=11 value=103 time=24
control_change channel=13 control=11 value=96 time=24
control_change channel=13 control=11 value=90 time=24
control_change channel=13 control=11 value=84 time=24
control_change channel=13 control=11 value=84 time=24
control_change channel=13 control=11 value=86 time=120
control_change channel=13 control=11 value=89 time=48
control_change channel=13 control=11 value=93 time=120
control_change channel=13 control=11 value=95 time=120
control_change channel=13 control=11 value=98 time=48
control_change channel=13 control=11 value=101 time=120
control_change channel=13 control=11 value=104 time=96
control_change channel=13 control=11 value=108 time=120
control_change channel=13 control=11 value=111 time=120
control_change channel=13 control=11 value=114 time=72
control_change channel=13 control=11 value=116 time=120
control_change channel=13 control=11 value=119 time=48
control_change channel=13 control=11 value=123 time=120
control_change channel=13 control=11 value=127 time=120
note_off channel=13 note=54 velocity=64 time=80
note_on channel=13 note=53 velocity=56 time=24
note_off channel=13 note=53 velocity=64 time=136
note_on channel=13 note=52 velocity=56 time=1784
control_change channel=13 control=11 value=127 time=232
control_change channel=13 control=11 value=121 time=24
control_change channel=13 control=11 value=115 time=24
control_change channel=13 control=11 value=109 time=24
control_change channel=13 control=11 value=103 time=24
control_change channel=13 control=11 value=96 time=24
control_change channel=13 control=11 value=90 time=24
control_change channel=13 control=11 value=84 time=24
control_change channel=13 control=11 value=84 time=24
control_change channel=13 control=11 value=86 time=120
control_change channel=13 control=11 value=89 time=48
control_change channel=13 control=11 value=93 time=120
control_change channel=13 control=11 value=95 time=120
control_change channel=13 control=11 value=98 time=48
control_change channel=13 control=11 value=101 time=120
control_change channel=13 control=11 value=104 time=96
control_change channel=13 control=11 value=108 time=120
control_change channel=13 control=11 value=111 time=120
control_change channel=13 control=11 value=114 time=72
control_change channel=13 control=11 value=116 time=120
control_change channel=13 control=11 value=119 time=48
control_change channel=13 control=11 value=123 time=120
control_change channel=13 control=11 value=127 time=120
note_off channel=13 note=52 velocity=64 time=80
note_on channel=13 note=50 velocity=56 time=4344
note_off channel=13 note=50 velocity=64 time=136
note_on channel=13 note=57 velocity=62 time=24
note_off channel=13 note=57 velocity=64 time=144
note_on channel=13 note=58 velocity=69 time=336
note_off channel=13 note=58 velocity=64 time=296
note_on channel=13 note=62 velocity=56 time=24
note_off channel=13 note=62 velocity=64 time=136
note_on channel=13 note=65 velocity=67 time=24
note_off channel=13 note=65 velocity=64 time=296
note_on channel=13 note=65 velocity=81 time=24
note_off channel=13 note=65 velocity=64 time=604
note_on channel=13 note=65 velocity=65 time=36
note_off channel=13 note=65 velocity=64 time=308
note_on channel=13 note=61 velocity=69 time=12
control_change channel=13 control=11 value=127 time=16
control_change channel=13 control=11 value=125 time=120
control_change channel=13 control=11 value=123 time=120
control_change channel=13 control=11 value=121 time=120
control_change channel=13 control=11 value=119 time=120
control_change channel=13 control=11 value=118 time=120
control_change channel=13 control=11 value=115 time=96
control_change channel=13 control=11 value=114 time=120
control_change channel=13 control=11 value=111 time=120
note_off channel=13 note=61 velocity=64 time=120
control_change channel=13 control=11 value=110 time=0
control_change channel=13 control=11 value=109 time=24
control_change channel=13 control=11 value=127 time=24
note_on channel=13 note=53 velocity=56 time=320
note_off channel=13 note=53 velocity=64 time=136
note_on channel=13 note=52 velocity=64 time=24
note_off channel=13 note=52 velocity=64 time=144
note_on channel=13 note=55 velocity=69 time=336
note_off channel=13 note=55 velocity=64 time=296
note_on channel=13 note=55 velocity=56 time=24
note_off channel=13 note=55 velocity=64 time=136
note_on channel=13 note=60 velocity=66 time=24
note_off channel=13 note=60 velocity=64 time=296
note_on channel=13 note=60 velocity=75 time=24
note_off channel=13 note=60 velocity=64 time=604
note_on channel=13 note=60 velocity=64 time=36
note_off channel=13 note=60 velocity=64 time=308
note_on channel=13 note=56 velocity=69 time=12
control_change channel=13 control=11 value=127 time=16
control_change channel=13 control=11 value=125 time=120
control_change channel=13 control=11 value=123 time=120
control_change channel=13 control=11 value=121 time=120
control_change channel=13 control=11 value=119 time=120
control_change channel=13 control=11 value=118 time=120
control_change channel=13 control=11 value=115 time=96
control_change channel=13 control=11 value=114 time=120
control_change channel=13 control=11 value=111 time=120
note_off channel=13 note=56 velocity=64 time=120
control_change channel=13 control=11 value=110 time=0
control_change channel=13 control=11 value=109 time=24
control_change channel=13 control=11 value=127 time=24
note_on channel=13 note=52 velocity=56 time=1760
control_change channel=13 control=11 value=127 time=232
control_change channel=13 control=11 value=121 time=24
control_change channel=13 control=11 value=115 time=24
control_change channel=13 control=11 value=109 time=24
control_change channel=13 control=11 value=103 time=24
control_change channel=13 control=11 value=96 time=24
control_change channel=13 control=11 value=90 time=24
control_change channel=13 control=11 value=84 time=24
control_change channel=13 control=11 value=88 time=96
control_change channel=13 control=11 value=91 time=96
control_change channel=13 control=11 value=94 time=72
control_change channel=13 control=11 value=98 time=96
control_change channel=13 control=11 value=101 time=96
control_change channel=13 control=11 value=104 time=48
control_change channel=13 control=11 value=108 time=96
control_change channel=13 control=11 value=111 time=96
control_change channel=13 control=11 value=114 time=72
control_change channel=13 control=11 value=118 time=72
control_change channel=13 control=11 value=121 time=96
control_change channel=13 control=11 value=124 time=72
control_change channel=13 control=11 value=127 time=48
note_off channel=13 note=52 velocity=64 time=104
note_on channel=13 note=52 velocity=56 time=40
note_off channel=13 note=52 velocity=64 time=296
note_on channel=13 note=50 velocity=56 time=24
note_off channel=13 note=50 velocity=64 time=136
note_on channel=13 note=58 velocity=62 time=3224
note_off channel=13 note=58 velocity=64 time=580
note_on channel=13 note=57 velocity=62 time=60
note_off channel=13 note=57 velocity=64 time=144
note_on channel=13 note=57 velocity=62 time=336
note_off channel=13 note=57 velocity=64 time=296
note_on channel=13 note=55 velocity=62 time=24
note_off channel=13 note=55 velocity=64 time=136
note_on channel=13 note=57 velocity=56 time=24
note_off channel=13 note=57 velocity=64 time=56
note_on channel=13 note=57 velocity=62 time=24
note_off channel=13 note=57 velocity=64 time=68
note_on channel=13 note=55 velocity=62 time=332
note_off channel=13 note=55 velocity=64 time=308
control_change channel=13 control=11 value=104 time=12
note_on channel=13 note=57 velocity=69 time=0
control_change channel=13 control=11 value=105 time=100
control_change channel=13 control=11 value=108 time=80
control_change channel=13 control=11 value=109 time=100
control_change channel=13 control=11 value=111 time=100
control_change channel=13 control=11 value=114 time=90
control_change channel=13 control=11 value=115 time=100
control_change channel=13 control=11 value=118 time=70
control_change channel=13 control=11 value=119 time=100
control_change channel=13 control=11 value=121 time=100
control_change channel=13 control=11 value=124 time=90
control_change channel=13 control=11 value=125 time=100
control_change channel=13 control=11 value=127 time=10
note_off channel=13 note=57 velocity=64 time=80
note_on channel=13 note=52 velocity=69 time=320
note_on channel=13 note=51 velocity=40 time=112
note_on channel=13 note=50 velocity=28 time=40
note_off channel=13 note=52 velocity=64 time=4
note_off channel=13 note=51 velocity=64 time=8
note_on channel=13 note=49 velocity=17 time=28
note_off channel=13 note=50 velocity=64 time=12
note_off channel=13 note=49 velocity=64 time=40
note_on channel=13 note=50 velocity=69 time=236
note_off channel=13 note=50 velocity=64 time=592
note_on channel=13 note=50 velocity=62 time=48
note_off channel=13 note=50 velocity=64 time=296
note_on channel=13 note=50 velocity=50 time=24
note_off channel=13 note=50 velocity=64 time=136
note_on channel=13 note=55 velocity=62 time=24
note_off channel=13 note=55 velocity=64 time=284
note_on channel=13 note=55 velocity=62 time=36
note_off channel=13 note=55 velocity=64 time=156
note_on channel=13 note=54 velocity=62 time=324
control_change channel=13 control=11 value=127 time=160
control_change channel=13 control=11 value=125 time=120
control_change channel=13 control=11 value=123 time=120
control_change channel=13 control=11 value=121 time=120
control_change channel=13 control=11 value=119 time=120
control_change channel=13 control=11 value=118 time=120
control_change channel=13 control=11 value=115 time=120
control_change channel=13 control=11 value=114 time=120
control_change channel=13 control=11 value=111 time=120
control_change channel=13 control=11 value=110 time=120
control_change channel=13 control=11 value=108 time=120
control_change channel=13 control=11 value=106 time=120
control_change channel=13 control=11 value=104 time=120
control_change channel=13 control=11 value=103 time=120
control_change channel=13 control=11 value=100 time=120
control_change channel=13 control=11 value=99 time=120
note_off channel=13 note=54 velocity=64 time=60
control_change channel=13 control=11 value=96 time=36
control_change channel=13 control=11 value=127 time=24
note_on channel=13 note=57 velocity=69 time=320
note_on channel=13 note=56 velocity=30 time=112
note_on channel=13 note=55 velocity=20 time=40
note_off channel=13 note=57 velocity=64 time=4
note_off channel=13 note=56 velocity=64 time=8
note_off channel=13 note=55 velocity=64 time=40
note_on channel=13 note=57 velocity=69 time=276
note_off channel=13 note=57 velocity=64 time=580
note_on channel=13 note=57 velocity=69 time=60
note_off channel=13 note=57 velocity=64 time=168
note_on channel=13 note=57 velocity=69 time=632
note_on channel=13 note=56 velocity=32 time=112
note_on channel=13 note=55 velocity=23 time=40
note_off channel=13 note=57 velocity=64 time=4
note_off channel=13 note=56 velocity=64 time=8
note_off channel=13 note=55 velocity=64 time=40
note_on channel=13 note=54 velocity=69 time=276
note_off channel=13 note=54 velocity=64 time=580
note_on channel=13 note=55 velocity=69 time=60
note_off channel=13 note=55 velocity=64 time=168
note_on channel=13 note=55 velocity=62 time=632
note_off channel=13 note=55 velocity=64 time=444
note_on channel=13 note=55 velocity=65 time=36
note_off channel=13 note=55 velocity=64 time=444
note_on channel=13 note=58 velocity=69 time=36
note_off channel=13 note=58 velocity=64 time=444
note_on channel=13 note=55 velocity=61 time=36
note_off channel=13 note=55 velocity=64 time=136
note_on channel=13 note=58 velocity=72 time=24
note_off channel=13 note=58 velocity=64 time=148
note_on channel=13 note=55 velocity=60 time=12
note_off channel=13 note=55 velocity=64 time=148
note_on channel=13 note=63 velocity=74 time=12
note_off channel=13 note=63 velocity=64 time=924
note_on channel=13 note=53 velocity=69 time=36
note_off channel=13 note=53 velocity=64 time=604
note_on channel=13 note=53 velocity=62 time=36
note_off channel=13 note=53 velocity=64 time=284
note_on channel=13 note=53 velocity=65 time=36
note_off channel=13 note=53 velocity=64 time=124
note_on channel=13 note=61 velocity=64 time=12996
note_off channel=13 note=61 velocity=64 time=308
control_change channel=13 control=11 value=109 time=12
note_on channel=13 note=60 velocity=75 time=0
control_change channel=13 control=11 value=110 time=120
control_change channel=13 control=11 value=111 time=110
control_change channel=13 control=11 value=113 time=110
control_change channel=13 control=11 value=114 time=110
control_change channel=13 control=11 value=115 time=110
control_change channel=13 control=11 value=116 time=110
control_change channel=13 control=11 value=118 time=110
control_change channel=13 control=11 value=119 time=120
control_change channel=13 control=11 value=120 time=110
control_change channel=13 control=11 value=121 time=110
control_change channel=13 control=11 value=123 time=110
control_change channel=13 control=11 value=124 time=110
control_change channel=13 control=11 value=125 time=110
note_off channel=13 note=60 velocity=64 time=102
control_change channel=13 control=11 value=127 time=8
note_on channel=13 note=62 velocity=75 time=360
note_off channel=13 note=62 velocity=64 time=604
note_on channel=13 note=59 velocity=75 time=36
note_off channel=13 note=59 velocity=64 time=296
note_on channel=13 note=59 velocity=75 time=24
note_off channel=13 note=59 velocity=64 time=136
note_on channel=13 note=58 velocity=75 time=824
note_off channel=13 note=58 velocity=64 time=604
note_on channel=13 note=56 velocity=75 time=36
note_off channel=13 note=56 velocity=64 time=296
note_on channel=13 note=57 velocity=75 time=24
note_off channel=13 note=57 velocity=64 time=136
note_on channel=13 note=62 velocity=75 time=824
note_off channel=13 note=62 velocity=64 time=604
note_on channel=13 note=59 velocity=75 time=36
note_off channel=13 note=59 velocity=64 time=296
note_on channel=13 note=60 velocity=75 time=24
note_off channel=13 note=60 velocity=64 time=136
note_on channel=13 note=60 velocity=75 time=824
note_off channel=13 note=60 velocity=64 time=604
note_on channel=13 note=56 velocity=75 time=36
note_off channel=13 note=56 velocity=64 time=296
note_on channel=13 note=57 velocity=75 time=24
note_off channel=13 note=57 velocity=64 time=136
note_on channel=13 note=62 velocity=75 time=824
note_off channel=13 note=62 velocity=64 time=580
note_on channel=13 note=64 velocity=75 time=60
note_off channel=13 note=64 velocity=64 time=168
note_on channel=13 note=62 velocity=75 time=312
note_off channel=13 note=62 velocity=64 time=168
note_on channel=13 note=62 velocity=75 time=312
note_off channel=13 note=62 velocity=64 time=296
note_on channel=13 note=65 velocity=62 time=24
note_off channel=13 note=65 velocity=64 time=148
note_on channel=13 note=62 velocity=75 time=12
note_off channel=13 note=62 velocity=64 time=311
note_on channel=13 note=62 velocity=75 time=9
control_change channel=13 control=11 value=127 time=16
control_change channel=13 control=11 value=124 time=96
control_change channel=13 control=11 value=121 time=96
control_change channel=13 control=11 value=119 time=120
control_change channel=13 control=11 value=116 time=48
control_change channel=13 control=11 value=114 time=120
control_change channel=13 control=11 value=111 time=72
control_change channel=13 control=11 value=109 time=120
control_change channel=13 control=11 value=106 time=48
control_change channel=13 control=11 value=104 time=120
control_change channel=13 control=11 value=101 time=72
control_change channel=13 control=11 value=99 time=120
note_off channel=13 note=62 velocity=64 time=24
control_change channel=13 control=11 value=96 time=24
control_change channel=13 control=11 value=127 time=0
control_change channel=13 control=11 value=127 time=24
note_on channel=13 note=60 velocity=75 time=320
note_on channel=13 note=59 velocity=30 time=112
note_on channel=13 note=58 velocity=20 time=40
note_off channel=13 note=60 velocity=64 time=8
note_off channel=13 note=59 velocity=64 time=4
note_off channel=13 note=58 velocity=64 time=40
note_on channel=13 note=60 velocity=75 time=436
note_off channel=13 note=60 velocity=64 time=168
note_on channel=13 note=60 velocity=75 time=312
note_off channel=13 note=60 velocity=64 time=168
note_on channel=13 note=63 velocity=75 time=792
note_off channel=13 note=63 velocity=64 time=296
note_on channel=13 note=63 velocity=75 time=24
note_off channel=13 note=63 velocity=64 time=192
note_on channel=13 note=60 velocity=62 time=288
note_off channel=13 note=60 velocity=64 time=148
note_on channel=13 note=63 velocity=75 time=12
note_off channel=13 note=63 velocity=64 time=308
note_on channel=13 note=63 velocity=69 time=12
note_off channel=13 note=63 velocity=64 time=136
note_on channel=13 note=62 velocity=75 time=24
note_off channel=13 note=62 velocity=64 time=296
note_on channel=13 note=58 velocity=75 time=24
note_off channel=13 note=58 velocity=64 time=136
note_on channel=13 note=59 velocity=75 time=1944
note_off channel=13 note=59 velocity=64 time=168
note_on channel=13 note=58 velocity=75 time=312
note_off channel=13 note=58 velocity=64 time=296
note_on channel=13 note=58 velocity=75 time=24
note_off channel=13 note=58 velocity=64 time=180
note_on channel=13 note=64 velocity=75 time=300
note_on channel=13 note=66 velocity=54 time=1440
note_off channel=13 note=64 velocity=64 time=16
note_on channel=13 note=65 velocity=62 time=64
note_off channel=13 note=66 velocity=64 time=24
note_on channel=13 note=64 velocity=74 time=56
note_off channel=13 note=65 velocity=64 time=24
note_off channel=13 note=64 velocity=64 time=284
note_on channel=13 note=56 velocity=75 time=12
pitchwheel channel=13 pitch=0 time=160
control_change channel=13 control=11 value=127 time=0
pitchwheel channel=13 pitch=242 time=12
control_change channel=13 control=11 value=124 time=72
control_change channel=13 control=11 value=121 time=72
pitchwheel channel=13 pitch=0 time=48
control_change channel=13 control=11 value=119 time=60
control_change channel=13 control=11 value=116 time=48
pitchwheel channel=13 pitch=-82 time=36
control_change channel=13 control=11 value=114 time=72
pitchwheel channel=13 pitch=-244 time=24
control_change channel=13 control=11 value=111 time=24
pitchwheel channel=13 pitch=-407 time=48
pitchwheel channel=13 pitch=-569 time=60
control_change channel=13 control=11 value=109 time=0
control_change channel=13 control=11 value=106 time=48
pitchwheel channel=13 pitch=-731 time=12
pitchwheel channel=13 pitch=-893 time=36
pitchwheel channel=13 pitch=-1055 time=48
control_change channel=13 control=11 value=104 time=12
pitchwheel channel=13 pitch=-1218 time=24
pitchwheel channel=13 pitch=-1380 time=24
control_change channel=13 control=11 value=101 time=0
pitchwheel channel=13 pitch=-1542 time=36
pitchwheel channel=13 pitch=-1704 time=24
pitchwheel channel=13 pitch=-1866 time=12
pitchwheel channel=13 pitch=-2029 time=24
pitchwheel channel=13 pitch=-2191 time=12
control_change channel=13 control=11 value=99 time=0
pitchwheel channel=13 pitch=-2353 time=12
note_off channel=13 note=56 velocity=64 time=12
pitchwheel channel=13 pitch=-2515 time=0
pitchwheel channel=13 pitch=-2840 time=12
control_change channel=13 control=11 value=96 time=12
control_change channel=13 control=11 value=127 time=24
pitchwheel channel=13 pitch=0 time=0
note_on channel=13 note=58 velocity=75 time=1280
note_off channel=13 note=58 velocity=64 time=604
note_on channel=13 note=62 velocity=75 time=36
note_off channel=13 note=62 velocity=64 time=180
note_on channel=13 note=62 velocity=75 time=300
note_off channel=13 note=62 velocity=64 time=296
note_on channel=13 note=62 velocity=75 time=24
note_off channel=13 note=62 velocity=64 time=136
note_on channel=13 note=62 velocity=75 time=344
note_off channel=13 note=62 velocity=64 time=180
note_on channel=13 note=62 velocity=69 time=300
note_off channel=13 note=62 velocity=64 time=148
note_on channel=13 note=58 velocity=75 time=12
note_off channel=13 note=58 velocity=64 time=456
note_on channel=13 note=60 velocity=75 time=24
note_off channel=13 note=60 velocity=64 time=156
note_on channel=13 note=63 velocity=81 time=804
note_off channel=13 note=63 velocity=64 time=912
note_on channel=13 note=63 velocity=75 time=48
note_off channel=13 note=63 velocity=64 time=180
control_change channel=13 control=11 value=104 time=300
note_on channel=13 note=61 velocity=81 time=0
control_change channel=13 control=11 value=106 time=108
control_change channel=13 control=11 value=109 time=108
note_off channel=13 note=61 velocity=64 time=92
note_on channel=13 note=61 velocity=81 time=12
control_change channel=13 control=11 value=111 time=4
control_change channel=13 control=11 value=114 time=108
control_change channel=13 control=11 value=116 time=108
control_change channel=13 control=11 value=119 time=108
control_change channel=13 control=11 value=121 time=108
control_change channel=13 control=11 value=124 time=108
note_off channel=13 note=61 velocity=64 time=60
control_change channel=13 control=11 value=127 time=36
control_change channel=13 control=11 value=127 time=0
note_on channel=13 note=60 velocity=81 time=0
control_change channel=13 control=11 value=124 time=84
control_change channel=13 control=11 value=121 time=84
control_change channel=13 control=11 value=119 time=108
note_off channel=13 note=60 velocity=64 time=32
note_on channel=13 note=58 velocity=81 time=12
control_change channel=13 control=11 value=116 time=4
control_change channel=13 control=11 value=114 time=108
control_change channel=13 control=11 value=111 time=48
control_change channel=13 control=11 value=109 time=108
control_change channel=13 control=11 value=106 time=60
control_change channel=13 control=11 value=104 time=108
control_change channel=13 control=11 value=101 time=48
note_off channel=13 note=58 velocity=64 time=108
control_change channel=13 control=11 value=127 time=48
note_on channel=13 note=52 velocity=56 time=1760
control_change channel=13 control=11 value=127 time=232
control_change channel=13 control=11 value=121 time=24
control_change channel=13 control=11 value=115 time=24
control_change channel=13 control=11 value=109 time=24
control_change channel=13 control=11 value=103 time=24
control_change channel=13 control=11 value=96 time=24
control_change channel=13 control=11 value=90 time=24
control_change channel=13 control=11 value=84 time=24
control_change channel=13 control=11 value=84 time=24
control_change channel=13 control=11 value=86 time=120
control_change channel=13 control=11 value=89 time=48
control_change channel=13 control=11 value=93 time=120
control_change channel=13 control=11 value=95 time=120
control_change channel=13 control=11 value=98 time=48
control_change channel=13 control=11 value=101 time=120
control_change channel=13 control=11 value=104 time=96
control_change channel=13 control=11 value=108 time=120
control_change channel=13 control=11 value=111 time=120
control_change channel=13 control=11 value=114 time=72
control_change channel=13 control=11 value=116 time=120
control_change channel=13 control=11 value=119 time=48
control_change channel=13 control=11 value=123 time=120
control_change channel=13 control=11 value=127 time=120
note_off channel=13 note=52 velocity=64 time=80
note_on channel=13 note=50 velocity=56 time=24
note_off channel=13 note=50 velocity=64 time=136
note_on channel=13 note=54 velocity=56 time=1784
control_change channel=13 control=11 value=127 time=232
control_change channel=13 control=11 value=121 time=24
control_change channel=13 control=11 value=115 time=24
control_change channel=13 control=11 value=109 time=24
control_change channel=13 control=11 value=103 time=24
control_change channel=13 control=11 value=96 time=24
control_change channel=13 control=11 value=90 time=24
control_change channel=13 control=11 value=84 time=24
control_change channel=13 control=11 value=84 time=24
control_change channel=13 control=11 value=86 time=120
control_change channel=13 control=11 value=89 time=48
control_change channel=13 control=11 value=93 time=120
control_change channel=13 control=11 value=95 time=120
control_change channel=13 control=11 value=98 time=48
control_change channel=13 control=11 value=101 time=120
control_change channel=13 control=11 value=104 time=96
control_change channel=13 control=11 value=108 time=120
control_change channel=13 control=11 value=111 time=120
control_change channel=13 control=11 value=114 time=72
control_change channel=13 control=11 value=116 time=120
control_change channel=13 control=11 value=119 time=48
control_change channel=13 control=11 value=123 time=120
control_change channel=13 control=11 value=127 time=120
note_off channel=13 note=54 velocity=64 time=80
note_on channel=13 note=53 velocity=56 time=24
note_off channel=13 note=53 velocity=64 time=136
note_on channel=13 note=52 velocity=56 time=1784
control_change channel=13 control=11 value=127 time=232
control_change channel=13 control=11 value=121 time=24
control_change channel=13 control=11 value=115 time=24
control_change channel=13 control=11 value=109 time=24
control_change channel=13 control=11 value=103 time=24
control_change channel=13 control=11 value=96 time=24
control_change channel=13 control=11 value=90 time=24
control_change channel=13 control=11 value=84 time=24
control_change channel=13 control=11 value=84 time=24
control_change channel=13 control=11 value=86 time=120
control_change channel=13 control=11 value=89 time=48
control_change channel=13 control=11 value=93 time=120
control_change channel=13 control=11 value=95 time=120
control_change channel=13 control=11 value=98 time=48
control_change channel=13 control=11 value=101 time=120
control_change channel=13 control=11 value=104 time=96
control_change channel=13 control=11 value=108 time=120
control_change channel=13 control=11 value=111 time=120
control_change channel=13 control=11 value=114 time=72
control_change channel=13 control=11 value=116 time=120
control_change channel=13 control=11 value=119 time=48
control_change channel=13 control=11 value=123 time=120
control_change channel=13 control=11 value=127 time=120
note_off channel=13 note=52 velocity=64 time=80
note_on channel=13 note=58 velocity=75 time=4344
note_off channel=13 note=58 velocity=64 time=168
note_on channel=13 note=60 velocity=75 time=312
note_off channel=13 note=60 velocity=64 time=136
note_on channel=13 note=62 velocity=75 time=24
note_off channel=13 note=62 velocity=64 time=168
note_on channel=13 note=62 velocity=75 time=312
note_off channel=13 note=62 velocity=64 time=168
control_change channel=13 control=93 value=30 time=312
note_on channel=13 note=61 velocity=75 time=0
note_off channel=13 note=61 velocity=64 time=444
note_on channel=13 note=61 velocity=75 time=36
note_off channel=13 note=61 velocity=64 time=296
note_on channel=13 note=61 velocity=75 time=24
note_off channel=13 note=61 velocity=64 time=136
note_on channel=13 note=57 velocity=75 time=824
note_off channel=13 note=57 velocity=64 time=604
note_on channel=13 note=60 velocity=75 time=36
note_off channel=13 note=60 velocity=64 time=296
note_on channel=13 note=57 velocity=64 time=24
note_off channel=13 note=57 velocity=64 time=136
note_on channel=13 note=62 velocity=75 time=24
note_off channel=13 note=62 velocity=64 time=284
note_on channel=13 note=64 velocity=75 time=36
note_off channel=13 note=64 velocity=64 time=168
note_on channel=13 note=63 velocity=75 time=312
note_off channel=13 note=63 velocity=64 time=604
note_on channel=13 note=63 velocity=75 time=36
note_off channel=13 note=63 velocity=64 time=296
note_on channel=13 note=63 velocity=75 time=24
note_off channel=13 note=63 velocity=64 time=124
note_on channel=13 note=59 velocity=75 time=1316
note_off channel=13 note=59 velocity=64 time=568
note_on channel=13 note=59 velocity=75 time=72
note_off channel=13 note=59 velocity=64 time=156
note_on channel=13 note=59 velocity=75 time=324
note_off channel=13 note=59 velocity=64 time=156
note_on channel=13 note=58 velocity=75 time=324
note_off channel=13 note=58 velocity=64 time=782
note_on channel=13 note=61 velocity=75 time=18
note_off channel=13 note=61 velocity=64 time=1060
note_on channel=13 note=63 velocity=75 time=380
note_off channel=13 note=63 velocity=64 time=580
note_on channel=13 note=64 velocity=75 time=60
note_off channel=13 note=64 velocity=64 time=168
note_on channel=13 note=62 velocity=75 time=312
note_off channel=13 note=62 velocity=64 time=168
note_on channel=13 note=63 velocity=75 time=312
note_off channel=13 note=63 velocity=64 time=782
note_on channel=13 note=64 velocity=75 time=18
note_off channel=13 note=64 velocity=64 time=1060
note_on channel=13 note=48 velocity=56 time=5820
note_off channel=13 note=48 velocity=64 time=80
note_on channel=13 note=48 velocity=62 time=0
note_off channel=13 note=48 velocity=64 time=80
note_on channel=13 note=51 velocity=40 time=640
control_change channel=13 control=11 value=127 time=1120
control_change channel=13 control=11 value=125 time=120
control_change channel=13 control=11 value=124 time=120
control_change channel=13 control=11 value=123 time=120
control_change channel=13 control=11 value=121 time=120
control_change channel=13 control=11 value=120 time=120
control_change channel=13 control=11 value=119 time=120
control_change channel=13 control=11 value=118 time=120
control_change channel=13 control=11 value=116 time=120
control_change channel=13 control=11 value=115 time=120
control_change channel=13 control=11 value=114 time=120
control_change channel=13 control=11 value=113 time=120
control_change channel=13 control=11 value=111 time=120
control_change channel=13 control=11 value=110 time=120
control_change channel=13 control=11 value=109 time=120
control_change channel=13 control=11 value=108 time=120
control_change channel=13 control=11 value=106 time=120
control_change channel=13 control=11 value=105 time=120
control_change channel=13 control=11 value=104 time=120
control_change channel=13 control=11 value=103 time=120
control_change channel=13 control=11 value=101 time=120
control_change channel=13 control=11 value=100 time=120
control_change channel=13 control=11 value=99 time=120
control_change channel=13 control=11 value=98 time=120
note_off channel=13 note=51 velocity=64 time=96
<meta message end_of_track time=0>
<meta message text text='Trombone 3' time=0>
control_change channel=14 control=11 value=127 time=0
control_change channel=14 control=7 value=106 time=0
control_change channel=14 control=10 value=94 time=0
control_change channel=14 control=91 value=85 time=0
control_change channel=14 control=93 value=25 time=0
control_change channel=14 control=0 value=56 time=0
control_change channel=14 control=32 value=0 time=0
program_change channel=14 program=57 time=0
control_change channel=14 control=11 value=109 time=9944
note_on channel=14 note=57 velocity=60 time=0
control_change channel=14 control=11 value=110 time=250
control_change channel=14 control=11 value=111 time=250
control_change channel=14 control=11 value=113 time=250
control_change channel=14 control=11 value=114 time=250
control_change channel=14 control=11 value=115 time=240
control_change channel=14 control=11 value=116 time=250
note_off channel=14 note=57 velocity=64 time=74
note_on channel=14 note=54 velocity=62 time=36
control_change channel=14 control=11 value=118 time=140
control_change channel=14 control=11 value=119 time=250
control_change channel=14 control=11 value=120 time=250
control_change channel=14 control=11 value=121 time=240
control_change channel=14 control=11 value=123 time=250
control_change channel=14 control=11 value=124 time=250
control_change channel=14 control=11 value=125 time=250
control_change channel=14 control=11 value=127 time=240
note_off channel=14 note=54 velocity=64 time=14
note_on channel=14 note=53 velocity=75 time=332
note_off channel=14 note=53 velocity=64 time=580
note_on channel=14 note=53 velocity=77 time=60
note_off channel=14 note=53 velocity=64 time=168
note_on channel=14 note=53 velocity=79 time=312
note_off channel=14 note=53 velocity=64 time=168
note_on channel=14 note=52 velocity=81 time=312
note_off channel=14 note=52 velocity=64 time=764
note_on channel=14 note=52 velocity=84 time=36
note_off channel=14 note=52 velocity=64 time=592
note_on channel=14 note=52 velocity=86 time=48
note_off channel=14 note=52 velocity=64 time=272
note_on channel=14 note=57 velocity=86 time=48
note_off channel=14 note=57 velocity=64 time=124
note_on channel=14 note=50 velocity=45 time=19556
note_off channel=14 note=50 velocity=64 time=124
note_on channel=14 note=54 velocity=50 time=36
note_off channel=14 note=54 velocity=64 time=132
note_on channel=14 note=55 velocity=45 time=348
note_off channel=14 note=55 velocity=64 time=294
control_change channel=14 control=11 value=109 time=26
note_on channel=14 note=58 velocity=52 time=0
control_change channel=14 control=11 value=110 time=100
control_change channel=14 control=11 value=111 time=100
control_change channel=14 control=11 value=113 time=100
control_change channel=14 control=11 value=114 time=100
control_change channel=14 control=11 value=115 time=100
control_change channel=14 control=11 value=116 time=100
note_off channel=14 note=58 velocity=64 time=12
note_on channel=14 note=59 velocity=50 time=28
control_change channel=14 control=11 value=118 time=60
control_change channel=14 control=11 value=119 time=100
control_change channel=14 control=11 value=120 time=100
control_change channel=14 control=11 value=121 time=100
control_change channel=14 control=11 value=123 time=100
control_change channel=14 control=11 value=124 time=100
control_change channel=14 control=11 value=125 time=100
control_change channel=14 control=11 value=127 time=60
note_off channel=14 note=59 velocity=64 time=32
note_on channel=14 note=56 velocity=55 time=48
note_off channel=14 note=56 velocity=64 time=112
note_on channel=14 note=56 velocity=50 time=368
note_off channel=14 note=56 velocity=64 time=144
note_on channel=14 note=56 velocity=45 time=336
note_off channel=14 note=56 velocity=64 time=136
note_on channel=14 note=48 velocity=50 time=24
note_off channel=14 note=48 velocity=64 time=284
note_on channel=14 note=48 velocity=45 time=36
note_off channel=14 note=48 velocity=64 time=136
note_on channel=14 note=48 velocity=50 time=24
note_off channel=14 note=48 velocity=64 time=120
note_on channel=14 note=48 velocity=50 time=360
note_off channel=14 note=48 velocity=64 time=284
note_on channel=14 note=55 velocity=50 time=36
note_off channel=14 note=55 velocity=64 time=120
note_on channel=14 note=54 velocity=50 time=360
control_change channel=14 control=11 value=127 time=232
control_change channel=14 control=11 value=120 time=24
control_change channel=14 control=11 value=114 time=24
control_change channel=14 control=11 value=108 time=24
control_change channel=14 control=11 value=101 time=24
control_change channel=14 control=11 value=94 time=24
control_change channel=14 control=11 value=96 time=120
control_change channel=14 control=11 value=99 time=120
control_change channel=14 control=11 value=101 time=120
control_change channel=14 control=11 value=104 time=120
control_change channel=14 control=11 value=106 time=120
control_change channel=14 control=11 value=109 time=120
control_change channel=14 control=11 value=111 time=120
control_change channel=14 control=11 value=114 time=120
control_change channel=14 control=11 value=116 time=120
control_change channel=14 control=11 value=119 time=120
control_change channel=14 control=11 value=121 time=120
control_change channel=14 control=11 value=124 time=120
control_change channel=14 control=11 value=127 time=120
note_off channel=14 note=54 velocity=64 time=120
note_on channel=14 note=45 velocity=52 time=1008
note_off channel=14 note=45 velocity=64 time=284
note_on channel=14 note=45 velocity=55 time=36
note_off channel=14 note=45 velocity=64 time=108
note_on channel=14 note=55 velocity=60 time=372
note_off channel=14 note=55 velocity=64 time=592
note_on channel=14 note=55 velocity=55 time=48
note_off channel=14 note=55 velocity=64 time=296
note_on channel=14 note=55 velocity=45 time=24
note_off channel=14 note=55 velocity=64 time=134
note_on channel=14 note=57 velocity=50 time=826
control_change channel=14 control=11 value=127 time=232
control_change channel=14 control=11 value=120 time=24
control_change channel=14 control=11 value=114 time=24
control_change channel=14 control=11 value=108 time=24
control_change channel=14 control=11 value=101 time=24
control_change channel=14 control=11 value=95 time=24
control_change channel=14 control=11 value=95 time=0
control_change channel=14 control=11 value=96 time=120
control_change channel=14 control=11 value=98 time=120
control_change channel=14 control=11 value=99 time=120
control_change channel=14 control=11 value=100 time=120
control_change channel=14 control=11 value=101 time=120
control_change channel=14 control=11 value=103 time=120
control_change channel=14 control=11 value=104 time=120
control_change channel=14 control=11 value=105 time=120
control_change channel=14 control=11 value=106 time=120
control_change channel=14 control=11 value=108 time=120
control_change channel=14 control=11 value=109 time=120
control_change channel=14 control=11 value=110 time=120
control_change channel=14 control=11 value=111 time=120
control_change channel=14 control=11 value=113 time=120
control_change channel=14 control=11 value=114 time=120
control_change channel=14 control=11 value=115 time=120
control_change channel=14 control=11 value=116 time=120
control_change channel=14 control=11 value=118 time=120
control_change channel=14 control=11 value=119 time=120
control_change channel=14 control=11 value=120 time=120
control_change channel=14 control=11 value=121 time=120
control_change channel=14 control=11 value=123 time=120
control_change channel=14 control=11 value=124 time=120
control_change channel=14 control=11 value=125 time=120
control_change channel=14 control=11 value=127 time=48
note_off channel=14 note=57 velocity=64 time=192
note_on channel=14 note=50 velocity=55 time=48
note_off channel=14 note=50 velocity=64 time=284
note_on channel=14 note=50 velocity=55 time=36
note_off channel=14 note=50 velocity=64 time=112
note_on channel=14 note=43 velocity=45 time=1808
control_change channel=14 control=11 value=127 time=232
control_change channel=14 control=11 value=121 time=24
control_change channel=14 control=11 value=115 time=24
control_change channel=14 control=11 value=109 time=24
control_change channel=14 control=11 value=103 time=24
control_change channel=14 control=11 value=96 time=24
control_change channel=14 control=11 value=90 time=24
control_change channel=14 control=11 value=84 time=24
control_change channel=14 control=11 value=84 time=24
control_change channel=14 control=11 value=86 time=120
control_change channel=14 control=11 value=89 time=48
control_change channel=14 control=11 value=93 time=120
control_change channel=14 control=11 value=95 time=120
control_change channel=14 control=11 value=98 time=48
control_change channel=14 control=11 value=101 time=120
control_change channel=14 control=11 value=104 time=96
control_change channel=14 control=11 value=108 time=120
control_change channel=14 control=11 value=111 time=120
control_change channel=14 control=11 value=114 time=72
control_change channel=14 control=11 value=116 time=120
control_change channel=14 control=11 value=119 time=48
control_change channel=14 control=11 value=123 time=120
control_change channel=14 control=11 value=127 time=120
note_off channel=14 note=43 velocity=64 time=80
note_on channel=14 note=48 velocity=56 time=24
note_off channel=14 note=48 velocity=64 time=136
note_on channel=14 note=45 velocity=56 time=1784
control_change channel=14 control=11 value=127 time=232
control_change channel=14 control=11 value=121 time=24
control_change channel=14 control=11 value=115 time=24
control_change channel=14 control=11 value=109 time=24
control_change channel=14 control=11 value=103 time=24
control_change channel=14 control=11 value=96 time=24
control_change channel=14 control=11 value=90 time=24
control_change channel=14 control=11 value=84 time=24
control_change channel=14 control=11 value=84 time=24
control_change channel=14 control=11 value=86 time=120
control_change channel=14 control=11 value=89 time=48
control_change channel=14 control=11 value=93 time=120
control_change channel=14 control=11 value=95 time=120
control_change channel=14 control=11 value=98 time=48
control_change channel=14 control=11 value=101 time=120
control_change channel=14 control=11 value=104 time=96
control_change channel=14 control=11 value=108 time=120
control_change channel=14 control=11 value=111 time=120
control_change channel=14 control=11 value=114 time=72
control_change channel=14 control=11 value=116 time=120
control_change channel=14 control=11 value=119 time=48
control_change channel=14 control=11 value=123 time=120
control_change channel=14 control=11 value=127 time=120
note_off channel=14 note=45 velocity=64 time=80
note_on channel=14 note=50 velocity=56 time=24
note_off channel=14 note=50 velocity=64 time=136
note_on channel=14 note=43 velocity=56 time=1784
control_change channel=14 control=11 value=127 time=232
control_change channel=14 control=11 value=121 time=24
control_change channel=14 control=11 value=115 time=24
control_change channel=14 control=11 value=109 time=24
control_change channel=14 control=11 value=103 time=24
control_change channel=14 control=11 value=96 time=24
control_change channel=14 control=11 value=90 time=24
control_change channel=14 control=11 value=84 time=24
control_change channel=14 control=11 value=84 time=24
control_change channel=14 control=11 value=86 time=120
control_change channel=14 control=11 value=89 time=48
control_change channel=14 control=11 value=93 time=120
control_change channel=14 control=11 value=95 time=120
control_change channel=14 control=11 value=98 time=48
control_change channel=14 control=11 value=101 time=120
control_change channel=14 control=11 value=104 time=96
control_change channel=14 control=11 value=108 time=120
control_change channel=14 control=11 value=111 time=120
control_change channel=14 control=11 value=114 time=72
control_change channel=14 control=11 value=116 time=120
control_change channel=14 control=11 value=119 time=48
control_change channel=14 control=11 value=123 time=120
control_change channel=14 control=11 value=127 time=120
note_off channel=14 note=43 velocity=64 time=80
note_on channel=14 note=46 velocity=56 time=4344
note_off channel=14 note=46 velocity=64 time=136
note_on channel=14 note=54 velocity=62 time=24
note_off channel=14 note=54 velocity=64 time=144
note_on channel=14 note=55 velocity=69 time=336
note_off channel=14 note=55 velocity=64 time=296
note_on channel=14 note=58 velocity=56 time=24
note_off channel=14 note=58 velocity=64 time=136
note_on channel=14 note=62 velocity=67 time=24
note_off channel=14 note=62 velocity=64 time=296
note_on channel=14 note=61 velocity=81 time=24
note_off channel=14 note=61 velocity=64 time=604
note_on channel=14 note=61 velocity=65 time=36
note_off channel=14 note=61 velocity=64 time=308
note_on channel=14 note=58 velocity=69 time=12
control_change channel=14 control=11 value=127 time=16
control_change channel=14 control=11 value=125 time=120
control_change channel=14 control=11 value=123 time=120
control_change channel=14 control=11 value=121 time=120
control_change channel=14 control=11 value=119 time=120
control_change channel=14 control=11 value=118 time=120
control_change channel=14 control=11 value=115 time=96
control_change channel=14 control=11 value=114 time=120
control_change channel=14 control=11 value=111 time=120
note_off channel=14 note=58 velocity=64 time=120
control_change channel=14 control=11 value=110 time=0
control_change channel=14 control=11 value=109 time=24
control_change channel=14 control=11 value=127 time=24
note_on channel=14 note=50 velocity=56 time=320
note_off channel=14 note=50 velocity=64 time=136
note_on channel=14 note=50 velocity=64 time=24
note_off channel=14 note=50 velocity=64 time=144
note_on channel=14 note=51 velocity=69 time=336
note_off channel=14 note=51 velocity=64 time=296
note_on channel=14 note=51 velocity=56 time=24
note_off channel=14 note=51 velocity=64 time=136
note_on channel=14 note=54 velocity=66 time=24
note_off channel=14 note=54 velocity=64 time=296
note_on channel=14 note=55 velocity=75 time=24
note_off channel=14 note=55 velocity=64 time=604
note_on channel=14 note=55 velocity=64 time=36
note_off channel=14 note=55 velocity=64 time=308
note_on channel=14 note=54 velocity=69 time=12
control_change channel=14 control=11 value=127 time=16
control_change channel=14 control=11 value=125 time=120
control_change channel=14 control=11 value=123 time=120
control_change channel=14 control=11 value=121 time=120
control_change channel=14 control=11 value=119 time=120
control_change channel=14 control=11 value=118 time=120
control_change channel=14 control=11 value=115 time=96
control_change channel=14 control=11 value=114 time=120
control_change channel=14 control=11 value=111 time=120
note_off channel=14 note=54 velocity=64 time=120
control_change channel=14 control=11 value=110 time=0
control_change channel=14 control=11 value=109 time=24
control_change channel=14 control=11 value=127 time=24
note_on channel=14 note=43 velocity=56 time=1760
control_change channel=14 control=11 value=127 time=232
control_change channel=14 control=11 value=121 time=24
control_change channel=14 control=11 value=115 time=24
control_change channel=14 control=11 value=109 time=24
control_change channel=14 control=11 value=103 time=24
control_change channel=14 control=11 value=96 time=24
control_change channel=14 control=11 value=90 time=24
control_change channel=14 control=11 value=84 time=24
control_change channel=14 control=11 value=88 time=96
control_change channel=14 control=11 value=91 time=96
control_change channel=14 control=11 value=94 time=72
control_change channel=14 control=11 value=98 time=96
control_change channel=14 control=11 value=101 time=96
control_change channel=14 control=11 value=104 time=48
control_change channel=14 control=11 value=108 time=96
control_change channel=14 control=11 value=111 time=96
control_change channel=14 control=11 value=114 time=72
control_change channel=14 control=11 value=118 time=72
control_change channel=14 control=11 value=121 time=96
control_change channel=14 control=11 value=124 time=72
control_change channel=14 control=11 value=127 time=48
note_off channel=14 note=43 velocity=64 time=104
note_on channel=14 note=43 velocity=56 time=40
note_off channel=14 note=43 velocity=64 time=296
note_on channel=14 note=48 velocity=56 time=24
note_off channel=14 note=48 velocity=64 time=136
note_on channel=14 note=54 velocity=62 time=3224
note_off channel=14 note=54 velocity=64 time=580
note_on channel=14 note=53 velocity=62 time=60
note_off channel=14 note=53 velocity=64 time=144
note_on channel=14 note=53 velocity=62 time=336
note_off channel=14 note=53 velocity=64 time=296
note_on channel=14 note=53 velocity=62 time=24
note_off channel=14 note=53 velocity=64 time=136
note_on channel=14 note=53 velocity=56 time=24
note_off channel=14 note=53 velocity=64 time=56
note_on channel=14 note=53 velocity=62 time=24
note_off channel=14 note=53 velocity=64 time=68
note_on channel=14 note=53 velocity=62 time=332
note_off channel=14 note=53 velocity=64 time=308
control_change channel=14 control=11 value=104 time=12
note_on channel=14 note=52 velocity=69 time=0
control_change channel=14 control=11 value=105 time=100
control_change channel=14 control=11 value=108 time=80
control_change channel=14 control=11 value=109 time=100
control_change channel=14 control=11 value=111 time=100
control_change channel=14 control=11 value=114 time=90
control_change channel=14 control=11 value=115 time=100
control_change channel=14 control=11 value=118 time=70
control_change channel=14 control=11 value=119 time=100
control_change channel=14 control=11 value=121 time=100
control_change channel=14 control=11 value=124 time=90
control_change channel=14 control=11 value=125 time=100
control_change channel=14 control=11 value=127 time=10
note_off channel=14 note=52 velocity=64 time=80
note_on channel=14 note=49 velocity=69 time=320
note_on channel=14 note=48 velocity=40 time=112
note_on channel=14 note=47 velocity=28 time=40
note_off channel=14 note=49 velocity=64 time=4
note_off channel=14 note=48 velocity=64 time=8
note_on channel=14 note=46 velocity=17 time=28
note_off channel=14 note=47 velocity=64 time=12
note_off channel=14 note=46 velocity=64 time=40
note_on channel=14 note=48 velocity=69 time=236
note_off channel=14 note=48 velocity=64 time=592
note_on channel=14 note=48 velocity=62 time=48
note_off channel=14 note=48 velocity=64 time=296
note_on channel=14 note=48 velocity=50 time=24
note_off channel=14 note=48 velocity=64 time=136
note_on channel=14 note=52 velocity=62 time=24
note_off channel=14 note=52 velocity=64 time=284
note_on channel=14 note=46 velocity=62 time=36
note_off channel=14 note=46 velocity=64 time=156
note_on channel=14 note=45 velocity=62 time=324
control_change channel=14 control=11 value=127 time=160
control_change channel=14 control=11 value=125 time=120
control_change channel=14 control=11 value=123 time=120
control_change channel=14 control=11 value=121 time=120
control_change channel=14 control=11 value=119 time=120
control_change channel=14 control=11 value=118 time=120
control_change channel=14 control=11 value=115 time=120
control_change channel=14 control=11 value=114 time=120
control_change channel=14 control=11 value=111 time=120
control_change channel=14 control=11 value=110 time=120
control_change channel=14 control=11 value=108 time=120
control_change channel=14 control=11 value=106 time=120
control_change channel=14 control=11 value=104 time=120
control_change channel=14 control=11 value=103 time=120
control_change channel=14 control=11 value=100 time=120
control_change channel=14 control=11 value=99 time=120
note_off channel=14 note=45 velocity=64 time=60
control_change channel=14 control=11 value=96 time=36
control_change channel=14 control=11 value=127 time=24
note_on channel=14 note=53 velocity=69 time=320
note_on channel=14 note=52 velocity=30 time=112
note_on channel=14 note=51 velocity=20 time=40
note_off channel=14 note=53 velocity=64 time=4
note_off channel=14 note=52 velocity=64 time=8
note_off channel=14 note=51 velocity=64 time=40
note_on channel=14 note=53 velocity=69 time=276
note_off channel=14 note=53 velocity=64 time=580
note_on channel=14 note=53 velocity=69 time=60
note_off channel=14 note=53 velocity=64 time=168
note_on channel=14 note=52 velocity=69 time=632
note_on channel=14 note=51 velocity=32 time=112
note_on channel=14 note=50 velocity=23 time=40
note_off channel=14 note=52 velocity=64 time=4
note_off channel=14 note=51 velocity=64 time=8
note_off channel=14 note=50 velocity=64 time=40
note_on channel=14 note=52 velocity=69 time=276
note_off channel=14 note=52 velocity=64 time=580
note_on channel=14 note=52 velocity=69 time=60
note_off channel=14 note=52 velocity=64 time=168
note_on channel=14 note=51 velocity=62 time=632
note_off channel=14 note=51 velocity=64 time=444
note_on channel=14 note=51 velocity=65 time=36
note_off channel=14 note=51 velocity=64 time=444
note_on channel=14 note=55 velocity=69 time=36
note_off channel=14 note=55 velocity=64 time=444
note_on channel=14 note=51 velocity=61 time=36
note_off channel=14 note=51 velocity=64 time=136
note_on channel=14 note=55 velocity=72 time=24
note_off channel=14 note=55 velocity=64 time=148
note_on channel=14 note=51 velocity=60 time=12
note_off channel=14 note=51 velocity=64 time=148
note_on channel=14 note=60 velocity=74 time=12
note_off channel=14 note=60 velocity=64 time=924
note_on channel=14 note=51 velocity=69 time=36
note_off channel=14 note=51 velocity=64 time=604
note_on channel=14 note=50 velocity=62 time=36
note_off channel=14 note=50 velocity=64 time=284
note_on channel=14 note=50 velocity=65 time=36
note_off channel=14 note=50 velocity=64 time=124
note_on channel=14 note=55 velocity=64 time=12996
note_off channel=14 note=55 velocity=64 time=308
control_change channel=14 control=11 value=109 time=12
note_on channel=14 note=54 velocity=75 time=0
control_change channel=14 control=11 value=110 time=120
control_change channel=14 control=11 value=111 time=110
control_change channel=14 control=11 value=113 time=110
control_change channel=14 control=11 value=114 time=110
control_change channel=14 control=11 value=115 time=110
control_change channel=14 control=11 value=116 time=110
control_change channel=14 control=11 value=118 time=110
control_change channel=14 control=11 value=119 time=120
control_change channel=14 control=11 value=120 time=110
control_change channel=14 control=11 value=121 time=110
control_change channel=14 control=11 value=123 time=110
control_change channel=14 control=11 value=124 time=110
control_change channel=14 control=11 value=125 time=110
note_off channel=14 note=54 velocity=64 time=102
control_change channel=14 control=11 value=127 time=8
note_on channel=14 note=59 velocity=75 time=360
note_off channel=14 note=59 velocity=64 time=604
note_on channel=14 note=56 velocity=75 time=36
note_off channel=14 note=56 velocity=64 time=296
note_on channel=14 note=57 velocity=75 time=24
note_off channel=14 note=57 velocity=64 time=136
note_on channel=14 note=55 velocity=75 time=824
note_off channel=14 note=55 velocity=64 time=604
note_on channel=14 note=52 velocity=75 time=36
note_off channel=14 note=52 velocity=64 time=296
note_on channel=14 note=52 velocity=75 time=24
note_off channel=14 note=52 velocity=64 time=136
note_on channel=14 note=60 velocity=75 time=824
note_off channel=14 note=60 velocity=64 time=604
note_on channel=14 note=56 velocity=75 time=36
note_off channel=14 note=56 velocity=64 time=296
note_on channel=14 note=57 velocity=75 time=24
note_off channel=14 note=57 velocity=64 time=136
note_on channel=14 note=57 velocity=75 time=824
note_off channel=14 note=57 velocity=64 time=604
note_on channel=14 note=54 velocity=75 time=36
note_off channel=14 note=54 velocity=64 time=296
note_on channel=14 note=54 velocity=75 time=24
note_off channel=14 note=54 velocity=64 time=136
note_on channel=14 note=59 velocity=75 time=824
note_off channel=14 note=59 velocity=64 time=580
note_on channel=14 note=59 velocity=75 time=60
note_off channel=14 note=59 velocity=64 time=168
note_on channel=14 note=59 velocity=75 time=312
note_off channel=14 note=59 velocity=64 time=168
note_on channel=14 note=58 velocity=75 time=312
note_off channel=14 note=58 velocity=64 time=296
note_on channel=14 note=62 velocity=62 time=24
note_off channel=14 note=62 velocity=64 time=148
note_on channel=14 note=58 velocity=75 time=12
note_off channel=14 note=58 velocity=64 time=311
note_on channel=14 note=58 velocity=75 time=9
control_change channel=14 control=11 value=127 time=16
control_change channel=14 control=11 value=124 time=96
control_change channel=14 control=11 value=121 time=96
control_change channel=14 control=11 value=119 time=120
control_change channel=14 control=11 value=116 time=48
control_change channel=14 control=11 value=114 time=120
control_change channel=14 control=11 value=111 time=72
control_change channel=14 control=11 value=109 time=120
control_change channel=14 control=11 value=106 time=48
control_change channel=14 control=11 value=104 time=120
control_change channel=14 control=11 value=101 time=72
control_change channel=14 control=11 value=99 time=120
note_off channel=14 note=58 velocity=64 time=24
control_change channel=14 control=11 value=96 time=24
control_change channel=14 control=11 value=127 time=0
control_change channel=14 control=11 value=127 time=24
note_on channel=14 note=58 velocity=75 time=320
note_on channel=14 note=57 velocity=30 time=112
note_on channel=14 note=56 velocity=20 time=40
note_off channel=14 note=58 velocity=64 time=8
note_off channel=14 note=57 velocity=64 time=4
note_off channel=14 note=56 velocity=64 time=40
note_on channel=14 note=58 velocity=75 time=436
note_off channel=14 note=58 velocity=64 time=168
note_on channel=14 note=58 velocity=75 time=312
note_off channel=14 note=58 velocity=64 time=168
note_on channel=14 note=60 velocity=75 time=792
note_off channel=14 note=60 velocity=64 time=296
note_on channel=14 note=60 velocity=75 time=24
note_off channel=14 note=60 velocity=64 time=192
note_on channel=14 note=57 velocity=62 time=288
note_off channel=14 note=57 velocity=64 time=148
note_on channel=14 note=60 velocity=75 time=12
note_off channel=14 note=60 velocity=64 time=308
note_on channel=14 note=60 velocity=69 time=12
note_off channel=14 note=60 velocity=64 time=136
note_on channel=14 note=60 velocity=75 time=24
note_off channel=14 note=60 velocity=64 time=296
note_on channel=14 note=55 velocity=75 time=24
note_off channel=14 note=55 velocity=64 time=136
note_on channel=14 note=57 velocity=75 time=1944
note_off channel=14 note=57 velocity=64 time=168
note_on channel=14 note=56 velocity=75 time=312
note_off channel=14 note=56 velocity=64 time=296
note_on channel=14 note=56 velocity=75 time=24
note_off channel=14 note=56 velocity=64 time=180
note_on channel=14 note=60 velocity=75 time=300
note_on channel=14 note=62 velocity=54 time=1440
note_off channel=14 note=60 velocity=64 time=16
note_on channel=14 note=61 velocity=62 time=64
note_off channel=14 note=62 velocity=64 time=24
note_on channel=14 note=60 velocity=74 time=56
note_off channel=14 note=61 velocity=64 time=24
note_off channel=14 note=60 velocity=64 time=284
note_on channel=14 note=54 velocity=75 time=12
pitchwheel channel=14 pitch=0 time=160
control_change channel=14 control=11 value=127 time=0
pitchwheel channel=14 pitch=242 time=12
control_change channel=14 control=11 value=124 time=72
control_change channel=14 control=11 value=121 time=72
pitchwheel channel=14 pitch=0 time=48
control_change channel=14 control=11 value=119 time=60
control_change channel=14 control=11 value=116 time=48
pitchwheel channel=14 pitch=-82 time=36
control_change channel=14 control=11 value=114 time=72
pitchwheel channel=14 pitch=-244 time=24
control_change channel=14 control=11 value=111 time=24
pitchwheel channel=14 pitch=-407 time=48
pitchwheel channel=14 pitch=-569 time=60
control_change channel=14 control=11 value=109 time=0
control_change channel=14 control=11 value=106 time=48
pitchwheel channel=14 pitch=-731 time=12
pitchwheel channel=14 pitch=-893 time=36
pitchwheel channel=14 pitch=-1055 time=48
control_change channel=14 control=11 value=104 time=12
pitchwheel channel=14 pitch=-1218 time=24
pitchwheel channel=14 pitch=-1380 time=24
control_change channel=14 control=11 value=101 time=0
pitchwheel channel=14 pitch=-1542 time=36
pitchwheel channel=14 pitch=-1704 time=24
pitchwheel channel=14 pitch=-1866 time=12
pitchwheel channel=14 pitch=-2029 time=24
pitchwheel channel=14 pitch=-2191 time=12
control_change channel=14 control=11 value=99 time=0
pitchwheel channel=14 pitch=-2353 time=12
note_off channel=14 note=54 velocity=64 time=12
pitchwheel channel=14 pitch=-2515 time=0
pitchwheel channel=14 pitch=-2840 time=12
control_change channel=14 control=11 value=96 time=12
control_change channel=14 control=11 value=127 time=24
pitchwheel channel=14 pitch=0 time=0
note_on channel=14 note=55 velocity=75 time=1280
note_off channel=14 note=55 velocity=64 time=604
note_on channel=14 note=58 velocity=75 time=36
note_off channel=14 note=58 velocity=64 time=180
note_on channel=14 note=58 velocity=75 time=300
note_off channel=14 note=58 velocity=64 time=296
note_on channel=14 note=58 velocity=75 time=24
note_off channel=14 note=58 velocity=64 time=136
note_on channel=14 note=58 velocity=75 time=344
note_off channel=14 note=58 velocity=64 time=180
note_on channel=14 note=58 velocity=69 time=300
note_off channel=14 note=58 velocity=64 time=148
note_on channel=14 note=55 velocity=75 time=12
note_off channel=14 note=55 velocity=64 time=456
note_on channel=14 note=55 velocity=75 time=24
note_off channel=14 note=55 velocity=64 time=156
note_on channel=14 note=60 velocity=81 time=804
note_off channel=14 note=60 velocity=64 time=912
note_on channel=14 note=60 velocity=75 time=48
note_off channel=14 note=60 velocity=64 time=180
control_change channel=14 control=11 value=104 time=300
note_on channel=14 note=58 velocity=81 time=0
control_change channel=14 control=11 value=106 time=108
control_change channel=14 control=11 value=109 time=108
note_off channel=14 note=58 velocity=64 time=92
note_on channel=14 note=58 velocity=81 time=12
control_change channel=14 control=11 value=111 time=4
control_change channel=14 control=11 value=114 time=108
control_change channel=14 control=11 value=116 time=108
control_change channel=14 control=11 value=119 time=108
control_change channel=14 control=11 value=121 time=108
control_change channel=14 control=11 value=124 time=108
note_off channel=14 note=58 velocity=64 time=60
control_change channel=14 control=11 value=127 time=36
control_change channel=14 control=11 value=127 time=0
note_on channel=14 note=57 velocity=81 time=0
control_change channel=14 control=11 value=124 time=84
control_change channel=14 control=11 value=121 time=84
control_change channel=14 control=11 value=119 time=108
note_off channel=14 note=57 velocity=64 time=32
note_on channel=14 note=54 velocity=81 time=12
control_change channel=14 control=11 value=116 time=4
control_change channel=14 control=11 value=114 time=108
control_change channel=14 control=11 value=111 time=48
control_change channel=14 control=11 value=109 time=108
control_change channel=14 control=11 value=106 time=60
control_change channel=14 control=11 value=104 time=108
control_change channel=14 control=11 value=101 time=48
note_off channel=14 note=54 velocity=64 time=108
control_change channel=14 control=11 value=127 time=72
note_on channel=14 note=43 velocity=56 time=1736
control_change channel=14 control=11 value=127 time=232
control_change channel=14 control=11 value=121 time=24
control_change channel=14 control=11 value=115 time=24
control_change channel=14 control=11 value=109 time=24
control_change channel=14 control=11 value=103 time=24
control_change channel=14 control=11 value=96 time=24
control_change channel=14 control=11 value=90 time=24
control_change channel=14 control=11 value=84 time=24
control_change channel=14 control=11 value=84 time=24
control_change channel=14 control=11 value=86 time=120
control_change channel=14 control=11 value=89 time=48
control_change channel=14 control=11 value=93 time=120
control_change channel=14 control=11 value=95 time=120
control_change channel=14 control=11 value=98 time=48
control_change channel=14 control=11 value=101 time=120
control_change channel=14 control=11 value=104 time=96
control_change channel=14 control=11 value=108 time=120
control_change channel=14 control=11 value=111 time=120
control_change channel=14 control=11 value=114 time=72
control_change channel=14 control=11 value=116 time=120
control_change channel=14 control=11 value=119 time=48
control_change channel=14 control=11 value=123 time=120
control_change channel=14 control=11 value=127 time=120
note_off channel=14 note=43 velocity=64 time=80
note_on channel=14 note=48 velocity=56 time=24
note_off channel=14 note=48 velocity=64 time=136
note_on channel=14 note=45 velocity=56 time=1784
control_change channel=14 control=11 value=127 time=232
control_change channel=14 control=11 value=121 time=24
control_change channel=14 control=11 value=115 time=24
control_change channel=14 control=11 value=109 time=24
control_change channel=14 control=11 value=103 time=24
control_change channel=14 control=11 value=96 time=24
control_change channel=14 control=11 value=90 time=24
control_change channel=14 control=11 value=84 time=24
control_change channel=14 control=11 value=84 time=24
control_change channel=14 control=11 value=86 time=120
control_change channel=14 control=11 value=89 time=48
control_change channel=14 control=11 value=93 time=120
control_change channel=14 control=11 value=95 time=120
control_change channel=14 control=11 value=98 time=48
control_change channel=14 control=11 value=101 time=120
control_change channel=14 control=11 value=104 time=96
control_change channel=14 control=11 value=108 time=120
control_change channel=14 control=11 value=111 time=120
control_change channel=14 control=11 value=114 time=72
control_change channel=14 control=11 value=116 time=120
control_change channel=14 control=11 value=119 time=48
control_change channel=14 control=11 value=123 time=120
control_change channel=14 control=11 value=127 time=120
note_off channel=14 note=45 velocity=64 time=80
note_on channel=14 note=50 velocity=56 time=24
note_off channel=14 note=50 velocity=64 time=136
note_on channel=14 note=43 velocity=56 time=1784
control_change channel=14 control=11 value=127 time=232
control_change channel=14 control=11 value=121 time=24
control_change channel=14 control=11 value=115 time=24
control_change channel=14 control=11 value=109 time=24
control_change channel=14 control=11 value=103 time=24
control_change channel=14 control=11 value=96 time=24
control_change channel=14 control=11 value=90 time=24
control_change channel=14 control=11 value=84 time=24
control_change channel=14 control=11 value=84 time=24
control_change channel=14 control=11 value=86 time=120
control_change channel=14 control=11 value=89 time=48
control_change channel=14 control=11 value=93 time=120
control_change channel=14 control=11 value=95 time=120
control_change channel=14 control=11 value=98 time=48
control_change channel=14 control=11 value=101 time=120
control_change channel=14 control=11 value=104 time=96
control_change channel=14 control=11 value=108 time=120
control_change channel=14 control=11 value=111 time=120
control_change channel=14 control=11 value=114 time=72
control_change channel=14 control=11 value=116 time=120
control_change channel=14 control=11 value=119 time=48
control_change channel=14 control=11 value=123 time=120
control_change channel=14 control=11 value=127 time=120
note_off channel=14 note=43 velocity=64 time=80
note_on channel=14 note=55 velocity=75 time=4344
note_off channel=14 note=55 velocity=64 time=168
note_on channel=14 note=57 velocity=75 time=312
note_off channel=14 note=57 velocity=64 time=136
note_on channel=14 note=58 velocity=75 time=24
note_off channel=14 note=58 velocity=64 time=168
note_on channel=14 note=58 velocity=75 time=312
note_off channel=14 note=58 velocity=64 time=168
control_change channel=14 control=93 value=30 time=312
note_on channel=14 note=58 velocity=75 time=0
note_off channel=14 note=58 velocity=64 time=444
note_on channel=14 note=58 velocity=75 time=36
note_off channel=14 note=58 velocity=64 time=296
note_on channel=14 note=58 velocity=75 time=24
note_off channel=14 note=58 velocity=64 time=136
note_on channel=14 note=53 velocity=75 time=824
note_off channel=14 note=53 velocity=64 time=604
note_on channel=14 note=57 velocity=75 time=36
note_off channel=14 note=57 velocity=64 time=296
note_on channel=14 note=53 velocity=64 time=24
note_off channel=14 note=53 velocity=64 time=136
note_on channel=14 note=60 velocity=75 time=24
note_off channel=14 note=60 velocity=64 time=284
note_on channel=14 note=60 velocity=75 time=36
note_off channel=14 note=60 velocity=64 time=168
note_on channel=14 note=60 velocity=75 time=312
note_off channel=14 note=60 velocity=64 time=604
note_on channel=14 note=60 velocity=75 time=36
note_off channel=14 note=60 velocity=64 time=296
note_on channel=14 note=60 velocity=75 time=24
note_off channel=14 note=60 velocity=64 time=124
note_on channel=14 note=53 velocity=75 time=1316
note_off channel=14 note=53 velocity=64 time=568
note_on channel=14 note=53 velocity=75 time=72
note_off channel=14 note=53 velocity=64 time=156
note_on channel=14 note=53 velocity=75 time=324
note_off channel=14 note=53 velocity=64 time=156
note_on channel=14 note=52 velocity=75 time=324
note_off channel=14 note=52 velocity=64 time=782
note_on channel=14 note=58 velocity=75 time=18
note_off channel=14 note=58 velocity=64 time=1060
note_on channel=14 note=57 velocity=69 time=380
note_off channel=14 note=57 velocity=64 time=1576
note_on channel=14 note=54 velocity=69 time=24
note_off channel=14 note=54 velocity=64 time=1838
note_on channel=14 note=59 velocity=40 time=6642
control_change channel=14 control=11 value=127 time=1120
control_change channel=14 control=11 value=125 time=120
control_change channel=14 control=11 value=124 time=120
control_change channel=14 control=11 value=123 time=120
control_change channel=14 control=11 value=121 time=120
control_change channel=14 control=11 value=120 time=120
control_change channel=14 control=11 value=119 time=120
control_change channel=14 control=11 value=118 time=120
control_change channel=14 control=11 value=116 time=120
control_change channel=14 control=11 value=115 time=120
control_change channel=14 control=11 value=114 time=120
control_change channel=14 control=11 value=113 time=120
control_change channel=14 control=11 value=111 time=120
control_change channel=14 control=11 value=110 time=120
control_change channel=14 control=11 value=109 time=120
control_change channel=14 control=11 value=108 time=120
control_change channel=14 control=11 value=106 time=120
control_change channel=14 control=11 value=105 time=120
control_change channel=14 control=11 value=104 time=120
control_change channel=14 control=11 value=103 time=120
control_change channel=14 control=11 value=101 time=120
control_change channel=14 control=11 value=100 time=120
control_change channel=14 control=11 value=99 time=120
control_change channel=14 control=11 value=98 time=120
note_off channel=14 note=59 velocity=64 time=96
<meta message end_of_track time=0>
<meta message text text='Trombone 4' time=0>
control_change channel=15 control=11 value=127 time=0
control_change channel=15 control=7 value=106 time=0
control_change channel=15 control=10 value=99 time=0
control_change channel=15 control=91 value=81 time=0
control_change channel=15 control=93 value=25 time=0
control_change channel=15 control=0 value=56 time=0
control_change channel=15 control=32 value=0 time=0
program_change channel=15 program=57 time=0
control_change channel=15 control=11 value=109 time=9944
note_on channel=15 note=48 velocity=60 time=0
control_change channel=15 control=11 value=110 time=250
control_change channel=15 control=11 value=111 time=250
control_change channel=15 control=11 value=113 time=250
control_change channel=15 control=11 value=114 time=250
control_change channel=15 control=11 value=115 time=240
control_change channel=15 control=11 value=116 time=250
note_off channel=15 note=48 velocity=64 time=74
note_on channel=15 note=45 velocity=62 time=60
control_change channel=15 control=11 value=118 time=116
control_change channel=15 control=11 value=119 time=250
control_change channel=15 control=11 value=120 time=250
control_change channel=15 control=11 value=121 time=240
control_change channel=15 control=11 value=123 time=250
control_change channel=15 control=11 value=124 time=250
control_change channel=15 control=11 value=125 time=250
control_change channel=15 control=11 value=127 time=240
note_off channel=15 note=45 velocity=64 time=38
note_on channel=15 note=43 velocity=75 time=308
note_off channel=15 note=43 velocity=64 time=580
note_on channel=15 note=43 velocity=77 time=60
note_off channel=15 note=43 velocity=64 time=168
note_on channel=15 note=43 velocity=79 time=312
note_off channel=15 note=43 velocity=64 time=168
note_on channel=15 note=48 velocity=81 time=312
note_off channel=15 note=48 velocity=64 time=764
note_on channel=15 note=48 velocity=84 time=36
note_off channel=15 note=48 velocity=64 time=592
note_on channel=15 note=48 velocity=86 time=48
note_off channel=15 note=48 velocity=64 time=272
note_on channel=15 note=53 velocity=86 time=48
note_off channel=15 note=53 velocity=64 time=124
note_on channel=15 note=46 velocity=45 time=19556
note_off channel=15 note=46 velocity=64 time=124
note_on channel=15 note=52 velocity=50 time=36
note_off channel=15 note=52 velocity=64 time=132
note_on channel=15 note=54 velocity=45 time=348
note_off channel=15 note=54 velocity=64 time=294
control_change channel=15 control=11 value=109 time=26
note_on channel=15 note=55 velocity=52 time=0
control_change channel=15 control=11 value=110 time=100
control_change channel=15 control=11 value=111 time=100
control_change channel=15 control=11 value=113 time=100
control_change channel=15 control=11 value=114 time=100
control_change channel=15 control=11 value=115 time=100
control_change channel=15 control=11 value=116 time=100
note_off channel=15 note=55 velocity=64 time=12
note_on channel=15 note=57 velocity=50 time=28
control_change channel=15 control=11 value=118 time=60
control_change channel=15 control=11 value=119 time=100
control_change channel=15 control=11 value=120 time=100
control_change channel=15 control=11 value=121 time=100
control_change channel=15 control=11 value=123 time=100
control_change channel=15 control=11 value=124 time=100
control_change channel=15 control=11 value=125 time=100
control_change channel=15 control=11 value=127 time=60
note_off channel=15 note=57 velocity=64 time=32
note_on channel=15 note=52 velocity=55 time=48
note_off channel=15 note=52 velocity=64 time=112
note_on channel=15 note=52 velocity=50 time=368
note_off channel=15 note=52 velocity=64 time=144
note_on channel=15 note=52 velocity=45 time=336
note_off channel=15 note=52 velocity=64 time=136
note_on channel=15 note=45 velocity=50 time=24
note_off channel=15 note=45 velocity=64 time=284
note_on channel=15 note=45 velocity=45 time=36
note_off channel=15 note=45 velocity=64 time=136
note_on channel=15 note=45 velocity=50 time=24
note_off channel=15 note=45 velocity=64 time=120
note_on channel=15 note=45 velocity=50 time=360
note_off channel=15 note=45 velocity=64 time=284
note_on channel=15 note=45 velocity=50 time=36
note_off channel=15 note=45 velocity=64 time=120
note_on channel=15 note=50 velocity=50 time=360
control_change channel=15 control=11 value=127 time=232
control_change channel=15 control=11 value=120 time=24
control_change channel=15 control=11 value=114 time=24
control_change channel=15 control=11 value=108 time=24
control_change channel=15 control=11 value=101 time=24
control_change channel=15 control=11 value=94 time=24
control_change channel=15 control=11 value=96 time=120
control_change channel=15 control=11 value=99 time=120
control_change channel=15 control=11 value=101 time=120
control_change channel=15 control=11 value=104 time=120
control_change channel=15 control=11 value=106 time=120
control_change channel=15 control=11 value=109 time=120
control_change channel=15 control=11 value=111 time=120
control_change channel=15 control=11 value=114 time=120
control_change channel=15 control=11 value=116 time=120
control_change channel=15 control=11 value=119 time=120
control_change channel=15 control=11 value=121 time=120
control_change channel=15 control=11 value=124 time=120
control_change channel=15 control=11 value=127 time=120
note_off channel=15 note=50 velocity=64 time=120
note_on channel=15 note=43 velocity=55 time=368
note_off channel=15 note=43 velocity=64 time=124
note_on channel=15 note=43 velocity=50 time=36
note_off channel=15 note=43 velocity=64 time=120
note_on channel=15 note=43 velocity=52 time=360
note_off channel=15 note=43 velocity=64 time=284
note_on channel=15 note=43 velocity=55 time=36
note_off channel=15 note=43 velocity=64 time=108
note_on channel=15 note=48 velocity=60 time=372
note_off channel=15 note=48 velocity=64 time=592
note_on channel=15 note=48 velocity=55 time=48
note_off channel=15 note=48 velocity=64 time=296
note_on channel=15 note=48 velocity=45 time=24
note_off channel=15 note=48 velocity=64 time=134
note_on channel=15 note=46 velocity=50 time=26
note_off channel=15 note=46 velocity=64 time=284
note_on channel=15 note=46 velocity=50 time=36
note_off channel=15 note=46 velocity=64 time=120
note_on channel=15 note=45 velocity=50 time=360
control_change channel=15 control=11 value=127 time=232
control_change channel=15 control=11 value=120 time=24
control_change channel=15 control=11 value=114 time=24
control_change channel=15 control=11 value=108 time=24
control_change channel=15 control=11 value=101 time=24
control_change channel=15 control=11 value=95 time=24
control_change channel=15 control=11 value=95 time=0
control_change channel=15 control=11 value=96 time=120
control_change channel=15 control=11 value=98 time=120
control_change channel=15 control=11 value=99 time=120
control_change channel=15 control=11 value=100 time=120
control_change channel=15 control=11 value=101 time=120
control_change channel=15 control=11 value=103 time=120
control_change channel=15 control=11 value=104 time=120
control_change channel=15 control=11 value=105 time=120
control_change channel=15 control=11 value=106 time=120
control_change channel=15 control=11 value=108 time=120
control_change channel=15 control=11 value=109 time=120
control_change channel=15 control=11 value=110 time=120
control_change channel=15 control=11 value=111 time=120
control_change channel=15 control=11 value=113 time=120
note_off channel=15 note=45 velocity=64 time=32
note_on channel=15 note=38 velocity=45 time=16
control_change channel=15 control=11 value=114 time=72
control_change channel=15 control=11 value=115 time=120
control_change channel=15 control=11 value=116 time=120
control_change channel=15 control=11 value=118 time=120
control_change channel=15 control=11 value=119 time=120
control_change channel=15 control=11 value=120 time=120
control_change channel=15 control=11 value=121 time=120
control_change channel=15 control=11 value=123 time=120
control_change channel=15 control=11 value=124 time=120
control_change channel=15 control=11 value=125 time=120
control_change channel=15 control=11 value=127 time=48
note_off channel=15 note=38 velocity=64 time=180
note_on channel=15 note=38 velocity=55 time=60
note_off channel=15 note=38 velocity=64 time=284
note_on channel=15 note=43 velocity=55 time=36
note_off channel=15 note=43 velocity=64 time=112
note_on channel=15 note=36 velocity=45 time=1808
control_change channel=15 control=11 value=127 time=232
control_change channel=15 control=11 value=121 time=24
control_change channel=15 control=11 value=115 time=24
control_change channel=15 control=11 value=109 time=24
control_change channel=15 control=11 value=103 time=24
control_change channel=15 control=11 value=96 time=24
control_change channel=15 control=11 value=90 time=24
control_change channel=15 control=11 value=84 time=24
control_change channel=15 control=11 value=84 time=24
control_change channel=15 control=11 value=86 time=120
control_change channel=15 control=11 value=89 time=48
control_change channel=15 control=11 value=93 time=120
control_change channel=15 control=11 value=95 time=120
control_change channel=15 control=11 value=98 time=48
control_change channel=15 control=11 value=101 time=120
control_change channel=15 control=11 value=104 time=96
control_change channel=15 control=11 value=108 time=120
control_change channel=15 control=11 value=111 time=120
control_change channel=15 control=11 value=114 time=72
control_change channel=15 control=11 value=116 time=120
control_change channel=15 control=11 value=119 time=48
control_change channel=15 control=11 value=123 time=120
control_change channel=15 control=11 value=127 time=120
note_off channel=15 note=36 velocity=64 time=80
note_on channel=15 note=41 velocity=56 time=24
note_off channel=15 note=41 velocity=64 time=136
note_on channel=15 note=38 velocity=56 time=1784
control_change channel=15 control=11 value=127 time=232
control_change channel=15 control=11 value=121 time=24
control_change channel=15 control=11 value=115 time=24
control_change channel=15 control=11 value=109 time=24
control_change channel=15 control=11 value=103 time=24
control_change channel=15 control=11 value=96 time=24
control_change channel=15 control=11 value=90 time=24
control_change channel=15 control=11 value=84 time=24
control_change channel=15 control=11 value=84 time=24
control_change channel=15 control=11 value=86 time=120
control_change channel=15 control=11 value=89 time=48
control_change channel=15 control=11 value=93 time=120
control_change channel=15 control=11 value=95 time=120
control_change channel=15 control=11 value=98 time=48
control_change channel=15 control=11 value=101 time=120
control_change channel=15 control=11 value=104 time=96
control_change channel=15 control=11 value=108 time=120
control_change channel=15 control=11 value=111 time=120
control_change channel=15 control=11 value=114 time=72
control_change channel=15 control=11 value=116 time=120
control_change channel=15 control=11 value=119 time=48
control_change channel=15 control=11 value=123 time=120
control_change channel=15 control=11 value=127 time=120
note_off channel=15 note=38 velocity=64 time=80
note_on channel=15 note=43 velocity=56 time=24
note_off channel=15 note=43 velocity=64 time=136
note_on channel=15 note=36 velocity=56 time=1784
control_change channel=15 control=11 value=127 time=232
control_change channel=15 control=11 value=121 time=24
control_change channel=15 control=11 value=115 time=24
control_change channel=15 control=11 value=109 time=24
control_change channel=15 control=11 value=103 time=24
control_change channel=15 control=11 value=96 time=24
control_change channel=15 control=11 value=90 time=24
control_change channel=15 control=11 value=84 time=24
control_change channel=15 control=11 value=84 time=24
control_change channel=15 control=11 value=86 time=120
control_change channel=15 control=11 value=89 time=48
control_change channel=15 control=11 value=93 time=120
control_change channel=15 control=11 value=95 time=120
control_change channel=15 control=11 value=98 time=48
control_change channel=15 control=11 value=101 time=120
control_change channel=15 control=11 value=104 time=96
control_change channel=15 control=11 value=108 time=120
control_change channel=15 control=11 value=111 time=120
control_change channel=15 control=11 value=114 time=72
control_change channel=15 control=11 value=116 time=120
control_change channel=15 control=11 value=119 time=48
control_change channel=15 control=11 value=123 time=120
control_change channel=15 control=11 value=127 time=120
note_off channel=15 note=36 velocity=64 time=80
note_on channel=15 note=50 velocity=69 time=504
note_off channel=15 note=50 velocity=64 time=580
note_on channel=15 note=48 velocity=69 time=60
note_off channel=15 note=48 velocity=64 time=144
note_on channel=15 note=43 velocity=69 time=336
note_off channel=15 note=43 velocity=64 time=144
note_on channel=15 note=47 velocity=69 time=336
note_off channel=15 note=47 velocity=64 time=444
note_on channel=15 note=48 velocity=69 time=36
note_off channel=15 note=48 velocity=64 time=284
note_on channel=15 note=50 velocity=69 time=36
note_off channel=15 note=50 velocity=64 time=124
note_on channel=15 note=48 velocity=69 time=380
note_off channel=15 note=48 velocity=64 time=556
note_on channel=15 note=46 velocity=56 time=380
note_off channel=15 note=46 velocity=64 time=136
note_on channel=15 note=52 velocity=62 time=24
note_off channel=15 note=52 velocity=64 time=144
note_on channel=15 note=53 velocity=69 time=336
note_off channel=15 note=53 velocity=64 time=296
note_on channel=15 note=55 velocity=56 time=24
note_off channel=15 note=55 velocity=64 time=136
note_on channel=15 note=58 velocity=67 time=24
note_off channel=15 note=58 velocity=64 time=296
note_on channel=15 note=58 velocity=81 time=24
note_off channel=15 note=58 velocity=64 time=604
note_on channel=15 note=58 velocity=65 time=36
note_off channel=15 note=58 velocity=64 time=308
note_on channel=15 note=55 velocity=69 time=12
control_change channel=15 control=11 value=127 time=16
control_change channel=15 control=11 value=125 time=120
control_change channel=15 control=11 value=123 time=120
control_change channel=15 control=11 value=121 time=120
control_change channel=15 control=11 value=119 time=120
control_change channel=15 control=11 value=118 time=120
control_change channel=15 control=11 value=115 time=96
control_change channel=15 control=11 value=114 time=120
control_change channel=15 control=11 value=111 time=120
note_off channel=15 note=55 velocity=64 time=120
control_change channel=15 control=11 value=110 time=0
control_change channel=15 control=11 value=109 time=24
control_change channel=15 control=11 value=127 time=24
note_on channel=15 note=48 velocity=56 time=320
note_off channel=15 note=48 velocity=64 time=136
note_on channel=15 note=47 velocity=64 time=24
note_off channel=15 note=47 velocity=64 time=144
note_on channel=15 note=46 velocity=69 time=336
note_off channel=15 note=46 velocity=64 time=296
note_on channel=15 note=46 velocity=56 time=24
note_off channel=15 note=46 velocity=64 time=136
note_on channel=15 note=50 velocity=66 time=24
note_off channel=15 note=50 velocity=64 time=296
note_on channel=15 note=45 velocity=75 time=24
note_off channel=15 note=45 velocity=64 time=604
note_on channel=15 note=45 velocity=64 time=36
note_off channel=15 note=45 velocity=64 time=308
note_on channel=15 note=50 velocity=69 time=12
control_change channel=15 control=11 value=127 time=16
control_change channel=15 control=11 value=125 time=120
control_change channel=15 control=11 value=123 time=120
control_change channel=15 control=11 value=121 time=120
control_change channel=15 control=11 value=119 time=120
control_change channel=15 control=11 value=118 time=120
control_change channel=15 control=11 value=115 time=96
control_change channel=15 control=11 value=114 time=120
control_change channel=15 control=11 value=111 time=120
note_off channel=15 note=50 velocity=64 time=120
control_change channel=15 control=11 value=110 time=0
control_change channel=15 control=11 value=109 time=24
control_change channel=15 control=11 value=127 time=24
note_on channel=15 note=36 velocity=56 time=1760
control_change channel=15 control=11 value=127 time=232
control_change channel=15 control=11 value=121 time=24
control_change channel=15 control=11 value=115 time=24
control_change channel=15 control=11 value=109 time=24
control_change channel=15 control=11 value=103 time=24
control_change channel=15 control=11 value=96 time=24
control_change channel=15 control=11 value=90 time=24
control_change channel=15 control=11 value=84 time=24
control_change channel=15 control=11 value=88 time=96
control_change channel=15 control=11 value=91 time=96
control_change channel=15 control=11 value=94 time=72
control_change channel=15 control=11 value=98 time=96
control_change channel=15 control=11 value=101 time=96
control_change channel=15 control=11 value=104 time=48
control_change channel=15 control=11 value=108 time=96
control_change channel=15 control=11 value=111 time=96
control_change channel=15 control=11 value=114 time=72
control_change channel=15 control=11 value=118 time=72
control_change channel=15 control=11 value=121 time=96
control_change channel=15 control=11 value=124 time=72
control_change channel=15 control=11 value=127 time=48
note_off channel=15 note=36 velocity=64 time=104
note_on channel=15 note=36 velocity=56 time=40
note_off channel=15 note=36 velocity=64 time=296
note_on channel=15 note=41 velocity=56 time=24
note_off channel=15 note=41 velocity=64 time=136
note_on channel=15 note=44 velocity=62 time=3224
note_off channel=15 note=44 velocity=64 time=580
note_on channel=15 note=43 velocity=62 time=60
note_off channel=15 note=43 velocity=64 time=144
note_on channel=15 note=43 velocity=62 time=336
note_off channel=15 note=43 velocity=64 time=296
note_on channel=15 note=43 velocity=62 time=24
note_off channel=15 note=43 velocity=64 time=136
note_on channel=15 note=43 velocity=56 time=24
note_off channel=15 note=43 velocity=64 time=56
note_on channel=15 note=43 velocity=62 time=24
note_off channel=15 note=43 velocity=64 time=68
note_on channel=15 note=49 velocity=62 time=332
note_off channel=15 note=49 velocity=64 time=308
control_change channel=15 control=11 value=104 time=12
note_on channel=15 note=48 velocity=69 time=0
control_change channel=15 control=11 value=105 time=100
control_change channel=15 control=11 value=108 time=80
control_change channel=15 control=11 value=109 time=100
control_change channel=15 control=11 value=111 time=100
control_change channel=15 control=11 value=114 time=90
control_change channel=15 control=11 value=115 time=100
control_change channel=15 control=11 value=118 time=70
control_change channel=15 control=11 value=119 time=100
control_change channel=15 control=11 value=121 time=100
control_change channel=15 control=11 value=124 time=90
control_change channel=15 control=11 value=125 time=100
control_change channel=15 control=11 value=127 time=10
note_off channel=15 note=48 velocity=64 time=80
note_on channel=15 note=42 velocity=69 time=320
note_on channel=15 note=41 velocity=40 time=112
note_on channel=15 note=40 velocity=28 time=40
note_off channel=15 note=42 velocity=64 time=4
note_off channel=15 note=41 velocity=64 time=8
note_on channel=15 note=39 velocity=17 time=28
note_off channel=15 note=40 velocity=64 time=12
note_off channel=15 note=39 velocity=64 time=40
note_on channel=15 note=41 velocity=69 time=236
note_off channel=15 note=41 velocity=64 time=592
note_on channel=15 note=41 velocity=62 time=48
note_off channel=15 note=41 velocity=64 time=296
note_on channel=15 note=41 velocity=50 time=24
note_off channel=15 note=41 velocity=64 time=136
note_on channel=15 note=45 velocity=62 time=24
note_off channel=15 note=45 velocity=64 time=284
note_on channel=15 note=39 velocity=62 time=36
note_off channel=15 note=39 velocity=64 time=156
note_on channel=15 note=38 velocity=62 time=324
note_off channel=15 note=38 velocity=64 time=2020
note_on channel=15 note=43 velocity=69 time=380
note_on channel=15 note=42 velocity=30 time=112
note_on channel=15 note=41 velocity=20 time=40
note_off channel=15 note=43 velocity=64 time=4
note_off channel=15 note=42 velocity=64 time=8
note_off channel=15 note=41 velocity=64 time=40
note_on channel=15 note=43 velocity=69 time=276
note_off channel=15 note=43 velocity=64 time=580
note_on channel=15 note=43 velocity=69 time=60
note_off channel=15 note=43 velocity=64 time=168
note_on channel=15 note=48 velocity=69 time=632
note_on channel=15 note=47 velocity=32 time=112
note_on channel=15 note=46 velocity=23 time=40
note_off channel=15 note=48 velocity=64 time=4
note_off channel=15 note=47 velocity=64 time=8
note_off channel=15 note=46 velocity=64 time=40
note_on channel=15 note=48 velocity=69 time=276
note_off channel=15 note=48 velocity=64 time=580
note_on channel=15 note=48 velocity=69 time=60
note_off channel=15 note=48 velocity=64 time=168
note_on channel=15 note=48 velocity=62 time=632
note_off channel=15 note=48 velocity=64 time=444
note_on channel=15 note=48 velocity=65 time=36
note_off channel=15 note=48 velocity=64 time=444
note_on channel=15 note=51 velocity=69 time=36
note_off channel=15 note=51 velocity=64 time=444
note_on channel=15 note=48 velocity=61 time=36
note_off channel=15 note=48 velocity=64 time=136
note_on channel=15 note=51 velocity=72 time=24
note_off channel=15 note=51 velocity=64 time=148
note_on channel=15 note=48 velocity=60 time=12
note_off channel=15 note=48 velocity=64 time=148
note_on channel=15 note=53 velocity=74 time=12
note_off channel=15 note=53 velocity=64 time=924
note_on channel=15 note=41 velocity=69 time=36
note_off channel=15 note=41 velocity=64 time=604
note_on channel=15 note=46 velocity=62 time=36
note_off channel=15 note=46 velocity=64 time=284
note_on channel=15 note=46 velocity=65 time=36
note_off channel=15 note=46 velocity=64 time=124
note_on channel=15 note=48 velocity=81 time=12516
note_off channel=15 note=48 velocity=64 time=168
note_on channel=15 note=51 velocity=64 time=312
note_off channel=15 note=51 velocity=64 time=308
control_change channel=15 control=11 value=109 time=12
note_on channel=15 note=50 velocity=75 time=0
control_change channel=15 control=11 value=110 time=120
control_change channel=15 control=11 value=111 time=110
control_change channel=15 control=11 value=113 time=110
control_change channel=15 control=11 value=114 time=110
control_change channel=15 control=11 value=115 time=110
control_change channel=15 control=11 value=116 time=110
control_change channel=15 control=11 value=118 time=110
control_change channel=15 control=11 value=119 time=120
control_change channel=15 control=11 value=120 time=110
control_change channel=15 control=11 value=121 time=110
control_change channel=15 control=11 value=123 time=110
control_change channel=15 control=11 value=124 time=110
control_change channel=15 control=11 value=125 time=110
note_off channel=15 note=50 velocity=64 time=102
control_change channel=15 control=11 value=127 time=8
note_on channel=15 note=57 velocity=75 time=360
note_off channel=15 note=57 velocity=64 time=604
note_on channel=15 note=53 velocity=75 time=36
note_off channel=15 note=53 velocity=64 time=296
note_on channel=15 note=53 velocity=75 time=24
note_off channel=15 note=53 velocity=64 time=136
note_on channel=15 note=52 velocity=75 time=824
note_off channel=15 note=52 velocity=64 time=604
note_on channel=15 note=48 velocity=75 time=36
note_off channel=15 note=48 velocity=64 time=296
note_on channel=15 note=48 velocity=75 time=24
note_off channel=15 note=48 velocity=64 time=136
note_on channel=15 note=57 velocity=75 time=824
note_off channel=15 note=57 velocity=64 time=604
note_on channel=15 note=53 velocity=75 time=36
note_off channel=15 note=53 velocity=64 time=296
note_on channel=15 note=53 velocity=75 time=24
note_off channel=15 note=53 velocity=64 time=136
note_on channel=15 note=54 velocity=75 time=824
note_off channel=15 note=54 velocity=64 time=604
note_on channel=15 note=50 velocity=75 time=36
note_off channel=15 note=50 velocity=64 time=296
note_on channel=15 note=50 velocity=75 time=24
note_off channel=15 note=50 velocity=64 time=136
note_on channel=15 note=57 velocity=75 time=824
note_off channel=15 note=57 velocity=64 time=580
note_on channel=15 note=57 velocity=75 time=60
note_off channel=15 note=57 velocity=64 time=168
note_on channel=15 note=57 velocity=75 time=312
note_off channel=15 note=57 velocity=64 time=168
note_on channel=15 note=57 velocity=75 time=312
note_off channel=15 note=57 velocity=64 time=296
note_on channel=15 note=60 velocity=62 time=24
note_off channel=15 note=60 velocity=64 time=148
note_on channel=15 note=57 velocity=75 time=12
note_off channel=15 note=57 velocity=64 time=311
note_on channel=15 note=57 velocity=75 time=9
control_change channel=15 control=11 value=127 time=16
control_change channel=15 control=11 value=124 time=96
control_change channel=15 control=11 value=121 time=96
control_change channel=15 control=11 value=119 time=120
control_change channel=15 control=11 value=116 time=48
control_change channel=15 control=11 value=114 time=120
control_change channel=15 control=11 value=111 time=72
control_change channel=15 control=11 value=109 time=120
control_change channel=15 control=11 value=106 time=48
control_change channel=15 control=11 value=104 time=120
control_change channel=15 control=11 value=101 time=72
control_change channel=15 control=11 value=99 time=120
note_off channel=15 note=57 velocity=64 time=24
control_change channel=15 control=11 value=96 time=24
control_change channel=15 control=11 value=127 time=0
control_change channel=15 control=11 value=127 time=24
note_on channel=15 note=55 velocity=75 time=320
note_on channel=15 note=54 velocity=30 time=112
note_on channel=15 note=53 velocity=20 time=40
note_off channel=15 note=55 velocity=64 time=8
note_off channel=15 note=54 velocity=64 time=4
note_off channel=15 note=53 velocity=64 time=40
note_on channel=15 note=55 velocity=75 time=436
note_off channel=15 note=55 velocity=64 time=168
note_on channel=15 note=55 velocity=75 time=312
note_off channel=15 note=55 velocity=64 time=168
note_on channel=15 note=57 velocity=75 time=792
note_off channel=15 note=57 velocity=64 time=296
note_on channel=15 note=57 velocity=75 time=24
note_off channel=15 note=57 velocity=64 time=192
note_on channel=15 note=53 velocity=62 time=288
note_off channel=15 note=53 velocity=64 time=148
note_on channel=15 note=57 velocity=75 time=12
note_off channel=15 note=57 velocity=64 time=308
note_on channel=15 note=57 velocity=69 time=12
note_off channel=15 note=57 velocity=64 time=136
note_on channel=15 note=57 velocity=75 time=24
note_off channel=15 note=57 velocity=64 time=296
note_on channel=15 note=53 velocity=75 time=24
note_off channel=15 note=53 velocity=64 time=136
note_on channel=15 note=53 velocity=75 time=1944
note_off channel=15 note=53 velocity=64 time=168
note_on channel=15 note=52 velocity=75 time=312
note_off channel=15 note=52 velocity=64 time=296
note_on channel=15 note=52 velocity=75 time=24
note_off channel=15 note=52 velocity=64 time=180
note_on channel=15 note=57 velocity=75 time=300
note_on channel=15 note=59 velocity=54 time=1440
note_off channel=15 note=57 velocity=64 time=16
note_on channel=15 note=58 velocity=62 time=64
note_off channel=15 note=59 velocity=64 time=24
note_on channel=15 note=57 velocity=74 time=56
note_off channel=15 note=58 velocity=64 time=24
note_off channel=15 note=57 velocity=64 time=284
note_on channel=15 note=50 velocity=75 time=12
pitchwheel channel=15 pitch=0 time=160
control_change channel=15 control=11 value=127 time=0
pitchwheel channel=15 pitch=242 time=12
control_change channel=15 control=11 value=124 time=72
control_change channel=15 control=11 value=121 time=72
pitchwheel channel=15 pitch=0 time=48
control_change channel=15 control=11 value=119 time=60
control_change channel=15 control=11 value=116 time=48
pitchwheel channel=15 pitch=-82 time=36
control_change channel=15 control=11 value=114 time=72
pitchwheel channel=15 pitch=-244 time=24
control_change channel=15 control=11 value=111 time=24
pitchwheel channel=15 pitch=-407 time=48
pitchwheel channel=15 pitch=-569 time=60
control_change channel=15 control=11 value=109 time=0
control_change channel=15 control=11 value=106 time=48
pitchwheel channel=15 pitch=-731 time=12
pitchwheel channel=15 pitch=-893 time=36
pitchwheel channel=15 pitch=-1055 time=48
control_change channel=15 control=11 value=104 time=12
pitchwheel channel=15 pitch=-1218 time=24
pitchwheel channel=15 pitch=-1380 time=24
control_change channel=15 control=11 value=101 time=0
pitchwheel channel=15 pitch=-1542 time=36
pitchwheel channel=15 pitch=-1704 time=24
pitchwheel channel=15 pitch=-1866 time=12
pitchwheel channel=15 pitch=-2029 time=24
pitchwheel channel=15 pitch=-2191 time=12
control_change channel=15 control=11 value=99 time=0
pitchwheel channel=15 pitch=-2353 time=12
note_off channel=15 note=50 velocity=64 time=12
pitchwheel channel=15 pitch=-2515 time=0
pitchwheel channel=15 pitch=-2840 time=12
control_change channel=15 control=11 value=96 time=12
control_change channel=15 control=11 value=127 time=24
pitchwheel channel=15 pitch=0 time=0
note_on channel=15 note=43 velocity=75 time=1280
note_off channel=15 note=43 velocity=64 time=604
note_on channel=15 note=43 velocity=75 time=36
note_off channel=15 note=43 velocity=64 time=180
note_on channel=15 note=43 velocity=75 time=300
note_off channel=15 note=43 velocity=64 time=296
note_on channel=15 note=48 velocity=75 time=24
note_off channel=15 note=48 velocity=64 time=136
note_on channel=15 note=48 velocity=75 time=344
note_off channel=15 note=48 velocity=64 time=180
note_on channel=15 note=55 velocity=69 time=300
note_off channel=15 note=55 velocity=64 time=148
note_on channel=15 note=48 velocity=75 time=12
note_off channel=15 note=48 velocity=64 time=456
note_on channel=15 note=46 velocity=75 time=24
note_off channel=15 note=46 velocity=64 time=156
note_on channel=15 note=57 velocity=81 time=804
note_off channel=15 note=57 velocity=64 time=912
note_on channel=15 note=57 velocity=75 time=48
note_off channel=15 note=57 velocity=64 time=180
control_change channel=15 control=11 value=104 time=300
note_on channel=15 note=55 velocity=81 time=0
control_change channel=15 control=11 value=106 time=108
control_change channel=15 control=11 value=109 time=108
note_off channel=15 note=55 velocity=64 time=92
note_on channel=15 note=55 velocity=81 time=12
control_change channel=15 control=11 value=111 time=4
control_change channel=15 control=11 value=114 time=108
control_change channel=15 control=11 value=116 time=108
control_change channel=15 control=11 value=119 time=108
control_change channel=15 control=11 value=121 time=108
control_change channel=15 control=11 value=124 time=108
note_off channel=15 note=55 velocity=64 time=60
control_change channel=15 control=11 value=127 time=36
control_change channel=15 control=11 value=127 time=0
note_on channel=15 note=54 velocity=81 time=0
control_change channel=15 control=11 value=124 time=84
control_change channel=15 control=11 value=121 time=84
control_change channel=15 control=11 value=119 time=108
note_off channel=15 note=54 velocity=64 time=32
note_on channel=15 note=44 velocity=81 time=12
control_change channel=15 control=11 value=116 time=4
control_change channel=15 control=11 value=114 time=108
control_change channel=15 control=11 value=111 time=48
control_change channel=15 control=11 value=109 time=108
control_change channel=15 control=11 value=106 time=60
control_change channel=15 control=11 value=104 time=108
control_change channel=15 control=11 value=101 time=48
note_off channel=15 note=44 velocity=64 time=108
control_change channel=15 control=11 value=127 time=72
note_on channel=15 note=36 velocity=56 time=1736
control_change channel=15 control=11 value=127 time=232
control_change channel=15 control=11 value=121 time=24
control_change channel=15 control=11 value=115 time=24
control_change channel=15 control=11 value=109 time=24
control_change channel=15 control=11 value=103 time=24
control_change channel=15 control=11 value=96 time=24
control_change channel=15 control=11 value=90 time=24
control_change channel=15 control=11 value=84 time=24
control_change channel=15 control=11 value=84 time=24
control_change channel=15 control=11 value=86 time=120
control_change channel=15 control=11 value=89 time=48
control_change channel=15 control=11 value=93 time=120
control_change channel=15 control=11 value=95 time=120
control_change channel=15 control=11 value=98 time=48
control_change channel=15 control=11 value=101 time=120
control_change channel=15 control=11 value=104 time=96
control_change channel=15 control=11 value=108 time=120
control_change channel=15 control=11 value=111 time=120
control_change channel=15 control=11 value=114 time=72
control_change channel=15 control=11 value=116 time=120
control_change channel=15 control=11 value=119 time=48
control_change channel=15 control=11 value=123 time=120
control_change channel=15 control=11 value=127 time=120
note_off channel=15 note=36 velocity=64 time=80
note_on channel=15 note=41 velocity=56 time=24
note_off channel=15 note=41 velocity=64 time=136
note_on channel=15 note=38 velocity=56 time=1784
control_change channel=15 control=11 value=127 time=232
control_change channel=15 control=11 value=121 time=24
control_change channel=15 control=11 value=115 time=24
control_change channel=15 control=11 value=109 time=24
control_change channel=15 control=11 value=103 time=24
control_change channel=15 control=11 value=96 time=24
control_change channel=15 control=11 value=90 time=24
control_change channel=15 control=11 value=84 time=24
control_change channel=15 control=11 value=84 time=24
control_change channel=15 control=11 value=86 time=120
control_change channel=15 control=11 value=89 time=48
control_change channel=15 control=11 value=93 time=120
control_change channel=15 control=11 value=95 time=120
control_change channel=15 control=11 value=98 time=48
control_change channel=15 control=11 value=101 time=120
control_change channel=15 control=11 value=104 time=96
control_change channel=15 control=11 value=108 time=120
control_change channel=15 control=11 value=111 time=120
control_change channel=15 control=11 value=114 time=72
control_change channel=15 control=11 value=116 time=120
control_change channel=15 control=11 value=119 time=48
control_change channel=15 control=11 value=123 time=120
control_change channel=15 control=11 value=127 time=120
note_off channel=15 note=38 velocity=64 time=80
note_on channel=15 note=43 velocity=56 time=24
note_off channel=15 note=43 velocity=64 time=136
note_on channel=15 note=36 velocity=56 time=1784
control_change channel=15 control=11 value=127 time=232
control_change channel=15 control=11 value=121 time=24
control_change channel=15 control=11 value=115 time=24
control_change channel=15 control=11 value=109 time=24
control_change channel=15 control=11 value=103 time=24
control_change channel=15 control=11 value=96 time=24
control_change channel=15 control=11 value=90 time=24
control_change channel=15 control=11 value=84 time=24
control_change channel=15 control=11 value=84 time=24
control_change channel=15 control=11 value=86 time=120
control_change channel=15 control=11 value=89 time=48
control_change channel=15 control=11 value=93 time=120
control_change channel=15 control=11 value=95 time=120
control_change channel=15 control=11 value=98 time=48
control_change channel=15 control=11 value=101 time=120
control_change channel=15 control=11 value=104 time=96
control_change channel=15 control=11 value=108 time=120
control_change channel=15 control=11 value=111 time=120
control_change channel=15 control=11 value=114 time=72
control_change channel=15 control=11 value=116 time=120
control_change channel=15 control=11 value=119 time=48
control_change channel=15 control=11 value=123 time=120
control_change channel=15 control=11 value=127 time=120
note_off channel=15 note=36 velocity=64 time=80
note_on channel=15 note=50 velocity=69 time=504
note_off channel=15 note=50 velocity=64 time=580
note_on channel=15 note=48 velocity=69 time=60
note_off channel=15 note=48 velocity=64 time=144
note_on channel=15 note=43 velocity=69 time=336
note_off channel=15 note=43 velocity=64 time=144
note_on channel=15 note=47 velocity=69 time=336
note_off channel=15 note=47 velocity=64 time=444
note_on channel=15 note=46 velocity=69 time=36
note_off channel=15 note=46 velocity=64 time=284
note_on channel=15 note=45 velocity=69 time=36
note_off channel=15 note=45 velocity=64 time=124
note_on channel=15 note=53 velocity=75 time=1316
note_off channel=15 note=53 velocity=64 time=168
note_on channel=15 note=55 velocity=75 time=312
note_off channel=15 note=55 velocity=64 time=136
note_on channel=15 note=55 velocity=75 time=24
note_off channel=15 note=55 velocity=64 time=168
note_on channel=15 note=55 velocity=75 time=312
note_off channel=15 note=55 velocity=64 time=168
control_change channel=15 control=93 value=30 time=312
note_on channel=15 note=56 velocity=75 time=0
note_off channel=15 note=56 velocity=64 time=444
note_on channel=15 note=56 velocity=75 time=36
note_off channel=15 note=56 velocity=64 time=296
note_on channel=15 note=55 velocity=75 time=24
note_off channel=15 note=55 velocity=64 time=136
note_on channel=15 note=50 velocity=75 time=824
note_off channel=15 note=50 velocity=64 time=604
note_on channel=15 note=53 velocity=75 time=36
note_off channel=15 note=53 velocity=64 time=296
note_on channel=15 note=50 velocity=64 time=24
note_off channel=15 note=50 velocity=64 time=136
note_on channel=15 note=57 velocity=75 time=24
note_off channel=15 note=57 velocity=64 time=284
note_on channel=15 note=57 velocity=75 time=36
note_off channel=15 note=57 velocity=64 time=168
note_on channel=15 note=57 velocity=75 time=312
note_off channel=15 note=57 velocity=64 time=604
note_on channel=15 note=57 velocity=75 time=36
note_off channel=15 note=57 velocity=64 time=296
note_on channel=15 note=58 velocity=75 time=24
note_off channel=15 note=58 velocity=64 time=124
note_on channel=15 note=43 velocity=75 time=1316
note_off channel=15 note=43 velocity=64 time=568
note_on channel=15 note=43 velocity=75 time=72
note_off channel=15 note=43 velocity=64 time=156
note_on channel=15 note=43 velocity=75 time=324
note_off channel=15 note=43 velocity=64 time=156
note_on channel=15 note=48 velocity=75 time=324
note_off channel=15 note=48 velocity=64 time=782
note_on channel=15 note=48 velocity=75 time=18
note_off channel=15 note=48 velocity=64 time=1060
note_on channel=15 note=48 velocity=69 time=380
note_off channel=15 note=48 velocity=64 time=1576
note_on channel=15 note=45 velocity=69 time=24
note_off channel=15 note=45 velocity=64 time=1838
note_on channel=15 note=41 velocity=40 time=6642
control_change channel=15 control=11 value=127 time=1120
control_change channel=15 control=11 value=125 time=120
control_change channel=15 control=11 value=124 time=120
control_change channel=15 control=11 value=123 time=120
control_change channel=15 control=11 value=121 time=120
control_change channel=15 control=11 value=120 time=120
control_change channel=15 control=11 value=119 time=120
control_change channel=15 control=11 value=118 time=120
control_change channel=15 control=11 value=116 time=120
control_change channel=15 control=11 value=115 time=120
control_change channel=15 control=11 value=114 time=120
control_change channel=15 control=11 value=113 time=120
control_change channel=15 control=11 value=111 time=120
control_change channel=15 control=11 value=110 time=120
control_change channel=15 control=11 value=109 time=120
control_change channel=15 control=11 value=108 time=120
control_change channel=15 control=11 value=106 time=120
control_change channel=15 control=11 value=105 time=120
control_change channel=15 control=11 value=104 time=120
control_change channel=15 control=11 value=103 time=120
control_change channel=15 control=11 value=101 time=120
control_change channel=15 control=11 value=100 time=120
control_change channel=15 control=11 value=99 time=120
control_change channel=15 control=11 value=98 time=120
note_off channel=15 note=41 velocity=64 time=96
<meta message end_of_track time=0>
<meta message text text='Have A Nice Day' time=0>
<meta message smpte_offset frame_rate=25 hours=32 minutes=0 seconds=0 frames=0 sub_frames=0 time=0>
<meta message time_signature numerator=4 denominator=4 clocks_per_click=24 notated_32nd_notes_per_beat=8 time=0>
<meta message set_tempo tempo=500000 time=0>
<meta message text text='"Have A Nice Day"' time=5760>
<meta message text text='Sequenced for GMIDI by' time=0>
<meta message text text='GaryW0001 (@AOL.com)' time=0>
<meta message text text='Composed & Arranged ' time=0>
<meta message text text='by Sammy Nestico' time=0>
<meta message text text='©1996 Blue Max Distribution' time=0>
<meta message end_of_track time=0>
<meta message text text='-<>-<>-<>-<>-' time=0>
<meta message channel_prefix channel=0 time=0>
<meta message end_of_track time=0>
<meta message text text='   "Have A' time=0>
<meta message channel_prefix channel=0 time=0>
<meta message end_of_track time=0>
<meta message text text='   Nice Day"' time=0>
<meta message channel_prefix channel=0 time=0>
<meta message end_of_track time=0>
<meta message text text='Transcribed ' time=0>
<meta message channel_prefix channel=0 time=0>
<meta message end_of_track time=0>
<meta message text text='& Sequenced' time=0>
<meta message channel_prefix channel=0 time=0>
<meta message end_of_track time=0>
<meta message text text='for GMIDI by' time=0>
<meta message channel_prefix channel=0 time=0>
<meta message end_of_track time=0>
<meta message text text='GaryW0001' time=0>
<meta message channel_prefix channel=0 time=0>
<meta message end_of_track time=0>
<meta message text text='Composed and' time=0>
<meta message channel_prefix channel=0 time=0>
<meta message end_of_track time=0>
<meta message text text='Arranged by' time=0>
<meta message channel_prefix channel=0 time=0>
<meta message end_of_track time=0>
<meta message text text='Sammy Nestico' time=0>
<meta message channel_prefix channel=0 time=0>
<meta message end_of_track time=0>
<meta message text text='Tempo = 120' time=0>
<meta message channel_prefix channel=0 time=0>
<meta message end_of_track time=0>
<meta message text text='Comments??' time=0>
<meta message channel_prefix channel=0 time=0>
<meta message end_of_track time=0>
<meta message text text='-<>-<>-<>-<>-' time=0>
<meta message channel_prefix channel=0 time=0>
<meta message end_of_track time=0>
<meta message text text='Jazz/Brush Kit' time=0>
control_change channel=9 control=11 value=96 time=0
control_change channel=9 control=7 value=94 time=0
control_change channel=9 control=10 value=45 time=0
control_change channel=9 control=91 value=75 time=0
control_change channel=9 control=93 value=5 time=0
control_change channel=9 control=0 value=62 time=0
control_change channel=9 control=32 value=0 time=0
program_change channel=9 program=32 time=0
note_on channel=9 note=37 velocity=84 time=1920
note_off channel=9 note=37 velocity=64 time=480
note_on channel=9 note=37 velocity=84 time=480
note_off channel=9 note=37 velocity=64 time=480
note_on channel=9 note=37 velocity=64 time=480
note_off channel=9 note=37 velocity=64 time=480
note_on channel=9 note=37 velocity=84 time=0
note_off channel=9 note=37 velocity=64 time=480
note_on channel=9 note=37 velocity=64 time=0
note_off channel=9 note=37 velocity=64 time=480
note_on channel=9 note=37 velocity=84 time=0
note_off channel=9 note=37 velocity=64 time=480
note_on channel=9 note=51 velocity=75 time=0
note_off channel=9 note=51 velocity=64 time=100
note_on channel=9 note=51 velocity=90 time=380
note_on channel=9 note=42 velocity=70 time=0
note_off channel=9 note=51 velocity=64 time=100
note_off channel=9 note=42 velocity=64 time=0
note_on channel=9 note=51 velocity=60 time=256
note_off channel=9 note=51 velocity=64 time=100
note_on channel=9 note=51 velocity=80 time=24
note_off channel=9 note=51 velocity=64 time=100
note_on channel=9 note=51 velocity=90 time=380
note_on channel=9 note=37 velocity=70 time=0
note_on channel=9 note=42 velocity=70 time=0
note_off channel=9 note=51 velocity=64 time=100
note_off channel=9 note=42 velocity=64 time=0
note_off channel=9 note=37 velocity=64 time=0
note_on channel=9 note=51 velocity=60 time=256
note_off channel=9 note=51 velocity=64 time=100
note_on channel=9 note=51 velocity=80 time=24
note_off channel=9 note=51 velocity=64 time=100
note_on channel=9 note=51 velocity=90 time=380
note_on channel=9 note=42 velocity=70 time=0
note_off channel=9 note=51 velocity=64 time=100
note_off channel=9 note=42 velocity=64 time=0
note_on channel=9 note=51 velocity=60 time=256
note_off channel=9 note=51 velocity=64 time=100
note_on channel=9 note=51 velocity=80 time=24
note_on channel=9 note=48 velocity=61 time=0
note_off channel=9 note=48 velocity=64 time=58
note_off channel=9 note=51 velocity=64 time=42
note_on channel=9 note=48 velocity=53 time=20
note_off channel=9 note=48 velocity=64 time=57
note_on channel=9 note=38 velocity=20 time=179
note_on channel=9 note=36 velocity=74 time=4
note_off channel=9 note=36 velocity=64 time=59
note_off channel=9 note=38 velocity=64 time=37
note_on channel=9 note=51 velocity=90 time=24
note_on channel=9 note=37 velocity=70 time=0
note_on channel=9 note=42 velocity=70 time=0
note_on channel=9 note=38 velocity=40 time=0
note_on channel=9 note=47 velocity=103 time=0
note_off channel=9 note=47 velocity=64 time=56
note_off channel=9 note=37 velocity=64 time=44
note_off channel=9 note=38 velocity=64 time=0
note_off channel=9 note=42 velocity=64 time=0
note_off channel=9 note=51 velocity=64 time=0
note_on channel=9 note=47 velocity=68 time=20
note_off channel=9 note=47 velocity=64 time=57
note_on channel=9 note=51 velocity=60 time=179
note_on channel=9 note=36 velocity=65 time=4
note_off channel=9 note=36 velocity=64 time=57
note_off channel=9 note=51 velocity=64 time=39
control_change channel=9 control=11 value=96 time=24
note_on channel=9 note=51 velocity=80 time=0
note_on channel=9 note=40 velocity=109 time=0
note_off channel=9 note=40 velocity=64 time=58
note_off channel=9 note=51 velocity=64 time=42
note_on channel=9 note=51 velocity=90 time=380
note_on channel=9 note=42 velocity=70 time=0
note_off channel=9 note=51 velocity=64 time=100
note_off channel=9 note=42 velocity=64 time=0
control_change channel=9 control=11 value=98 time=188
note_on channel=9 note=51 velocity=60 time=68
note_off channel=9 note=51 velocity=64 time=100
note_on channel=9 note=51 velocity=80 time=24
note_off channel=9 note=51 velocity=64 time=100
note_on channel=9 note=51 velocity=90 time=380
note_on channel=9 note=37 velocity=70 time=0
note_on channel=9 note=42 velocity=70 time=0
control_change channel=9 control=11 value=99 time=96
note_off channel=9 note=51 velocity=64 time=4
note_off channel=9 note=42 velocity=64 time=0
note_off channel=9 note=37 velocity=64 time=0
note_on channel=9 note=51 velocity=60 time=256
note_off channel=9 note=51 velocity=64 time=100
note_on channel=9 note=51 velocity=80 time=24
note_off channel=9 note=51 velocity=64 time=100
control_change channel=9 control=11 value=100 time=284
note_on channel=9 note=51 velocity=90 time=96
note_on channel=9 note=42 velocity=70 time=0
note_off channel=9 note=51 velocity=64 time=100
note_off channel=9 note=42 velocity=64 time=0
note_on channel=9 note=51 velocity=60 time=256
note_off channel=9 note=51 velocity=64 time=100
note_on channel=9 note=51 velocity=90 time=24
note_on channel=9 note=35 velocity=70 time=0
note_off channel=9 note=51 velocity=64 time=100
note_off channel=9 note=35 velocity=64 time=0
note_on channel=9 note=45 velocity=100 time=60
note_on channel=9 note=38 velocity=90 time=0
control_change channel=9 control=11 value=101 time=32
note_off channel=9 note=45 velocity=64 time=68
note_off channel=9 note=38 velocity=64 time=0
note_on channel=9 note=42 velocity=1 time=76
note_on channel=9 note=35 velocity=80 time=0
note_off channel=9 note=42 velocity=64 time=100
note_off channel=9 note=35 velocity=64 time=0
note_on channel=9 note=48 velocity=90 time=44
note_on channel=9 note=42 velocity=100 time=0
note_on channel=9 note=38 velocity=80 time=0
note_on channel=9 note=51 velocity=90 time=0
note_off channel=9 note=48 velocity=64 time=100
note_off channel=9 note=51 velocity=64 time=0
note_off channel=9 note=38 velocity=64 time=0
note_off channel=9 note=42 velocity=64 time=0
note_on channel=9 note=45 velocity=70 time=60
note_off channel=9 note=45 velocity=64 time=100
note_on channel=9 note=41 velocity=90 time=76
note_on channel=9 note=35 velocity=70 time=0
note_on channel=9 note=51 velocity=60 time=20
note_on channel=9 note=38 velocity=81 time=44
note_off channel=9 note=41 velocity=64 time=36
note_off channel=9 note=35 velocity=64 time=0
note_off channel=9 note=38 velocity=64 time=4
note_on channel=9 note=38 velocity=81 time=0
note_off channel=9 note=51 velocity=64 time=16
note_off channel=9 note=38 velocity=64 time=24
control_change channel=9 control=11 value=103 time=0
note_on channel=9 note=51 velocity=99 time=0
note_on channel=9 note=40 velocity=99 time=0
note_on channel=9 note=38 velocity=99 time=0
note_on channel=9 note=35 velocity=99 time=0
note_off channel=9 note=51 velocity=64 time=100
note_off channel=9 note=35 velocity=64 time=0
note_off channel=9 note=38 velocity=64 time=0
note_off channel=9 note=40 velocity=64 time=0
note_on channel=9 note=49 velocity=106 time=220
note_on channel=9 note=51 velocity=100 time=160
note_on channel=9 note=42 velocity=70 time=0
note_off channel=9 note=51 velocity=64 time=100
note_off channel=9 note=42 velocity=64 time=0
control_change channel=9 control=11 value=104 time=188
note_on channel=9 note=51 velocity=80 time=192
note_off channel=9 note=51 velocity=64 time=100
note_on channel=9 note=51 velocity=100 time=380
note_on channel=9 note=37 velocity=70 time=0
note_on channel=9 note=42 velocity=70 time=0
control_change channel=9 control=11 value=105 time=96
note_off channel=9 note=51 velocity=64 time=4
note_off channel=9 note=42 velocity=64 time=0
note_off channel=9 note=37 velocity=64 time=0
note_off channel=9 note=49 velocity=64 time=356
note_on channel=9 note=51 velocity=80 time=24
note_off channel=9 note=51 velocity=64 time=100
control_change channel=9 control=11 value=106 time=284
note_on channel=9 note=51 velocity=90 time=96
note_on channel=9 note=42 velocity=70 time=0
note_off channel=9 note=51 velocity=64 time=100
note_off channel=9 note=42 velocity=64 time=0
note_on channel=9 note=51 velocity=80 time=380
note_off channel=9 note=51 velocity=64 time=100
control_change channel=9 control=11 value=108 time=92
note_on channel=9 note=38 velocity=81 time=208
note_off channel=9 note=38 velocity=64 time=40
note_on channel=9 note=38 velocity=81 time=0
note_off channel=9 note=38 velocity=64 time=40
note_on channel=9 note=38 velocity=93 time=0
note_on channel=9 note=35 velocity=93 time=0
note_off channel=9 note=38 velocity=64 time=116
note_off channel=9 note=35 velocity=64 time=0
note_on channel=9 note=38 velocity=93 time=204
note_on channel=9 note=35 velocity=93 time=0
note_off channel=9 note=38 velocity=64 time=136
note_off channel=9 note=35 velocity=64 time=0
control_change channel=9 control=11 value=109 time=24
control_change channel=9 control=11 value=108 time=240
note_on channel=9 note=38 velocity=81 time=80
note_off channel=9 note=38 velocity=64 time=136
control_change channel=9 control=11 value=106 time=24
note_on channel=9 note=35 velocity=86 time=0
note_on channel=9 note=51 velocity=90 time=0
note_on channel=9 note=42 velocity=70 time=0
note_off channel=9 note=35 velocity=64 time=100
note_off channel=9 note=42 velocity=64 time=0
note_off channel=9 note=51 velocity=64 time=0
control_change channel=9 control=11 value=105 time=140
note_on channel=9 note=51 velocity=60 time=112
note_off channel=9 note=51 velocity=64 time=100
control_change channel=9 control=11 value=104 time=28
note_on channel=9 note=51 velocity=80 time=0
note_off channel=9 note=51 velocity=64 time=100
control_change channel=9 control=11 value=103 time=140
control_change channel=9 control=11 value=101 time=240
note_on channel=9 note=51 velocity=90 time=0
note_on channel=9 note=37 velocity=60 time=0
note_on channel=9 note=42 velocity=70 time=0
note_off channel=9 note=51 velocity=64 time=100
note_off channel=9 note=42 velocity=64 time=0
note_off channel=9 note=37 velocity=64 time=0
control_change channel=9 control=11 value=100 time=140
note_on channel=9 note=51 velocity=60 time=112
note_off channel=9 note=51 velocity=64 time=100
control_change channel=9 control=11 value=99 time=28
note_on channel=9 note=51 velocity=80 time=0
note_off channel=9 note=51 velocity=64 time=100
control_change channel=9 control=11 value=98 time=140
control_change channel=9 control=11 value=96 time=240
note_on channel=9 note=51 velocity=90 time=0
note_on channel=9 note=42 velocity=70 time=0
note_off channel=9 note=51 velocity=64 time=100
note_off channel=9 note=42 velocity=64 time=0
control_change channel=9 control=11 value=95 time=140
note_on channel=9 note=51 velocity=60 time=116
note_off channel=9 note=51 velocity=64 time=100
control_change channel=9 control=11 value=94 time=24
note_on channel=9 note=51 velocity=80 time=0
note_off channel=9 note=51 velocity=64 time=100
control_change channel=9 control=11 value=93 time=140
note_on channel=9 note=38 velocity=20 time=116
note_off channel=9 note=38 velocity=64 time=100
control_change channel=9 control=11 value=91 time=24
note_on channel=9 note=51 velocity=90 time=0
note_on channel=9 note=37 velocity=70 time=0
note_on channel=9 note=42 velocity=70 time=0
note_on channel=9 note=38 velocity=40 time=0
note_off channel=9 note=51 velocity=64 time=100
note_off channel=9 note=38 velocity=64 time=0
note_off channel=9 note=42 velocity=64 time=0
note_off channel=9 note=37 velocity=64 time=0
control_change channel=9 control=11 value=90 time=140
note_on channel=9 note=51 velocity=60 time=116
control_change channel=9 control=0 value=62 time=1
control_change channel=9 control=32 value=0 time=0
program_change channel=9 program=40 time=0
note_off channel=9 note=51 velocity=64 time=99
control_change channel=9 control=11 value=89 time=24
note_on channel=9 note=49 velocity=45 time=0
note_on channel=9 note=51 velocity=80 time=0
note_off channel=9 note=49 velocity=64 time=100
note_off channel=9 note=51 velocity=64 time=0
note_on channel=9 note=51 velocity=100 time=380
note_on channel=9 note=42 velocity=70 time=0
note_off channel=9 note=51 velocity=64 time=100
note_off channel=9 note=42 velocity=64 time=0
note_on channel=9 note=51 velocity=80 time=380
note_off channel=9 note=51 velocity=64 time=100
note_on channel=9 note=51 velocity=100 time=380
note_on channel=9 note=37 velocity=70 time=0
note_on channel=9 note=42 velocity=70 time=0
note_off channel=9 note=51 velocity=64 time=100
note_off channel=9 note=42 velocity=64 time=0
note_off channel=9 note=37 velocity=64 time=0
note_on channel=9 note=51 velocity=80 time=380
note_off channel=9 note=51 velocity=64 time=100
note_on channel=9 note=51 velocity=90 time=380
note_on channel=9 note=42 velocity=70 time=0
note_off channel=9 note=51 velocity=64 time=100
note_off channel=9 note=42 velocity=64 time=0
note_on channel=9 note=51 velocity=80 time=380
note_off channel=9 note=51 velocity=64 time=100
note_on channel=9 note=51 velocity=90 time=380
note_on channel=9 note=37 velocity=70 time=0
note_on channel=9 note=42 velocity=70 time=0
note_off channel=9 note=51 velocity=64 time=100
note_off channel=9 note=42 velocity=64 time=0
note_off channel=9 note=37 velocity=64 time=0
note_on channel=9 note=51 velocity=80 time=380
note_off channel=9 note=51 velocity=64 time=100
note_on channel=9 note=51 velocity=90 time=380
note_on channel=9 note=42 velocity=70 time=0
note_off channel=9 note=51 velocity=64 time=100
note_off channel=9 note=42 velocity=64 time=0
note_on channel=9 note=51 velocity=60 time=252
note_off channel=9 note=51 velocity=64 time=100
note_on channel=9 note=51 velocity=80 time=28
note_off channel=9 note=51 velocity=64 time=100
note_on channel=9 note=51 velocity=90 time=380
note_on channel=9 note=37 velocity=60 time=0
note_on channel=9 note=42 velocity=70 time=0
note_off channel=9 note=51 velocity=64 time=100
note_off channel=9 note=42 velocity=64 time=0
note_off channel=9 note=37 velocity=64 time=0
note_on channel=9 note=51 velocity=60 time=252
note_off channel=9 note=51 velocity=64 time=100
note_on channel=9 note=51 velocity=80 time=28
note_off channel=9 note=51 velocity=64 time=100
note_on channel=9 note=51 velocity=100 time=380
note_on channel=9 note=42 velocity=70 time=0
note_off channel=9 note=51 velocity=64 time=100
note_off channel=9 note=42 velocity=64 time=0
note_on channel=9 note=51 velocity=80 time=380
note_off channel=9 note=51 velocity=64 time=100
note_on channel=9 note=51 velocity=100 time=380
note_on channel=9 note=37 velocity=70 time=0
note_on channel=9 note=42 velocity=70 time=0
note_off channel=9 note=51 velocity=64 time=100
note_off channel=9 note=42 velocity=64 time=0
note_off channel=9 note=37 velocity=64 time=0
note_on channel=9 note=51 velocity=80 time=380
note_off channel=9 note=51 velocity=64 time=100
note_on channel=9 note=51 velocity=90 time=380
note_on channel=9 note=42 velocity=70 time=0
note_off channel=9 note=51 velocity=64 time=100
note_off channel=9 note=42 velocity=64 time=0
note_on channel=9 note=51 velocity=60 time=252
note_off channel=9 note=51 velocity=64 time=100
note_on channel=9 note=51 velocity=80 time=28
note_off channel=9 note=51 velocity=64 time=100
note_on channel=9 note=51 velocity=90 time=380
note_on channel=9 note=37 velocity=60 time=0
note_on channel=9 note=42 velocity=70 time=0
note_off channel=9 note=51 velocity=64 time=100
note_off channel=9 note=42 velocity=64 time=0
note_off channel=9 note=37 velocity=64 time=0
note_on channel=9 note=51 velocity=60 time=252
note_off channel=9 note=51 velocity=64 time=100
note_on channel=9 note=51 velocity=80 time=28
note_off channel=9 note=51 velocity=64 time=100
note_on channel=9 note=51 velocity=100 time=380
note_on channel=9 note=42 velocity=70 time=0
note_off channel=9 note=51 velocity=64 time=100
note_off channel=9 note=42 velocity=64 time=0
note_on channel=9 note=51 velocity=80 time=380
note_off channel=9 note=51 velocity=64 time=100
note_on channel=9 note=51 velocity=100 time=380
note_on channel=9 note=37 velocity=70 time=0
note_on channel=9 note=42 velocity=70 time=0
note_off channel=9 note=51 velocity=64 time=100
note_off channel=9 note=42 velocity=64 time=0
note_off channel=9 note=37 velocity=64 time=0
note_on channel=9 note=51 velocity=80 time=380
note_off channel=9 note=51 velocity=64 time=100
note_on channel=9 note=51 velocity=90 time=380
note_on channel=9 note=42 velocity=70 time=0
note_off channel=9 note=51 velocity=64 time=100
note_off channel=9 note=42 velocity=64 time=0
note_on channel=9 note=51 velocity=60 time=256
note_off channel=9 note=51 velocity=64 time=100
note_on channel=9 note=51 velocity=80 time=24
note_off channel=9 note=51 velocity=64 time=100
note_on channel=9 note=51 velocity=90 time=380
note_on channel=9 note=37 velocity=70 time=0
note_on channel=9 note=42 velocity=70 time=0
note_off channel=9 note=51 velocity=64 time=100
note_off channel=9 note=42 velocity=64 time=0
note_off channel=9 note=37 velocity=64 time=0
note_on channel=9 note=51 velocity=60 time=256
note_off channel=9 note=51 velocity=64 time=100
note_on channel=9 note=51 velocity=80 time=24
note_off channel=9 note=51 velocity=64 time=100
note_on channel=9 note=51 velocity=90 time=380
note_on channel=9 note=42 velocity=70 time=0
note_off channel=9 note=51 velocity=64 time=100
note_off channel=9 note=42 velocity=64 time=0
note_on channel=9 note=51 velocity=60 time=256
note_off channel=9 note=51 velocity=64 time=100
note_on channel=9 note=51 velocity=80 time=24
note_off channel=9 note=51 velocity=64 time=100
note_on channel=9 note=38 velocity=20 time=256
note_off channel=9 note=38 velocity=64 time=100
note_on channel=9 note=51 velocity=90 time=24
note_on channel=9 note=37 velocity=70 time=0
note_on channel=9 note=42 velocity=70 time=0
note_on channel=9 note=38 velocity=40 time=0
note_off channel=9 note=51 velocity=64 time=100
note_off channel=9 note=38 velocity=64 time=0
note_off channel=9 note=42 velocity=64 time=0
note_off channel=9 note=37 velocity=64 time=0
note_on channel=9 note=51 velocity=60 time=256
note_off channel=9 note=51 velocity=64 time=100
note_on channel=9 note=51 velocity=80 time=24
note_off channel=9 note=51 velocity=64 time=100
note_on channel=9 note=51 velocity=90 time=380
note_on channel=9 note=42 velocity=70 time=0
note_off channel=9 note=51 velocity=64 time=100
note_off channel=9 note=42 velocity=64 time=0
note_on channel=9 note=51 velocity=60 time=256
note_off channel=9 note=51 velocity=64 time=100
note_on channel=9 note=51 velocity=80 time=24
note_off channel=9 note=51 velocity=64 time=100
note_on channel=9 note=51 velocity=90 time=380
note_on channel=9 note=37 velocity=70 time=0
note_on channel=9 note=42 velocity=70 time=0
note_off channel=9 note=51 velocity=64 time=100
note_off channel=9 note=42 velocity=64 time=0
note_off channel=9 note=37 velocity=64 time=0
note_on channel=9 note=51 velocity=60 time=256
note_off channel=9 note=51 velocity=64 time=100
note_on channel=9 note=51 velocity=80 time=24
note_off channel=9 note=51 velocity=64 time=100
note_on channel=9 note=51 velocity=90 time=380
note_on channel=9 note=42 velocity=70 time=0
note_off channel=9 note=51 velocity=64 time=100
note_off channel=9 note=42 velocity=64 time=0
note_on channel=9 note=51 velocity=80 time=380
note_off channel=9 note=51 velocity=64 time=100
note_on channel=9 note=51 velocity=90 time=380
note_on channel=9 note=37 velocity=70 time=0
note_on channel=9 note=42 velocity=70 time=0
note_off channel=9 note=51 velocity=64 time=100
note_off channel=9 note=42 velocity=64 time=0
note_off channel=9 note=37 velocity=64 time=0
note_on channel=9 note=51 velocity=80 time=380
note_off channel=9 note=51 velocity=64 time=100
note_on channel=9 note=51 velocity=90 time=380
note_on channel=9 note=42 velocity=70 time=0
note_off channel=9 note=51 velocity=64 time=100
note_off channel=9 note=42 velocity=64 time=0
note_on channel=9 note=51 velocity=60 time=252
note_off channel=9 note=51 velocity=64 time=100
note_on channel=9 note=51 velocity=80 time=28
note_off channel=9 note=51 velocity=64 time=100
note_on channel=9 note=51 velocity=90 time=380
note_on channel=9 note=37 velocity=60 time=0
note_on channel=9 note=42 velocity=70 time=0
note_off channel=9 note=51 velocity=64 time=100
note_off channel=9 note=42 velocity=64 time=0
note_off channel=9 note=37 velocity=64 time=0
note_on channel=9 note=51 velocity=60 time=252
note_off channel=9 note=51 velocity=64 time=100
note_on channel=9 note=51 velocity=80 time=28
note_off channel=9 note=51 velocity=64 time=100
note_on channel=9 note=51 velocity=90 time=380
note_on channel=9 note=42 velocity=70 time=0
note_off channel=9 note=51 velocity=64 time=100
note_off channel=9 note=42 velocity=64 time=0
note_on channel=9 note=51 velocity=60 time=256
note_off channel=9 note=51 velocity=64 time=100
note_on channel=9 note=51 velocity=80 time=24
note_off channel=9 note=51 velocity=64 time=100
note_on channel=9 note=51 velocity=90 time=380
note_on channel=9 note=37 velocity=70 time=0
note_on channel=9 note=42 velocity=70 time=0
note_off channel=9 note=51 velocity=64 time=100
note_off channel=9 note=42 velocity=64 time=0
note_off channel=9 note=37 velocity=64 time=0
note_on channel=9 note=51 velocity=60 time=256
note_off channel=9 note=51 velocity=64 time=100
note_on channel=9 note=51 velocity=80 time=24
note_off channel=9 note=51 velocity=64 time=100
note_on channel=9 note=51 velocity=90 time=380
note_on channel=9 note=42 velocity=70 time=0
note_off channel=9 note=51 velocity=64 time=100
note_off channel=9 note=42 velocity=64 time=0
note_on channel=9 note=51 velocity=60 time=256
note_off channel=9 note=51 velocity=64 time=100
note_on channel=9 note=51 velocity=80 time=24
note_off channel=9 note=51 velocity=64 time=100
note_on channel=9 note=51 velocity=90 time=380
note_on channel=9 note=37 velocity=70 time=0
note_on channel=9 note=42 velocity=70 time=0
note_off channel=9 note=51 velocity=64 time=100
note_off channel=9 note=42 velocity=64 time=0
note_off channel=9 note=37 velocity=64 time=0
note_on channel=9 note=51 velocity=60 time=256
note_off channel=9 note=51 velocity=64 time=100
note_on channel=9 note=51 velocity=80 time=24
note_off channel=9 note=51 velocity=64 time=100
note_on channel=9 note=51 velocity=100 time=380
note_on channel=9 note=42 velocity=70 time=0
note_off channel=9 note=51 velocity=64 time=100
note_off channel=9 note=42 velocity=64 time=0
note_on channel=9 note=51 velocity=80 time=380
note_off channel=9 note=51 velocity=64 time=100
note_on channel=9 note=51 velocity=100 time=380
note_on channel=9 note=37 velocity=70 time=0
note_on channel=9 note=42 velocity=70 time=0
note_off channel=9 note=51 velocity=64 time=100
note_off channel=9 note=42 velocity=64 time=0
note_off channel=9 note=37 velocity=64 time=0
note_on channel=9 note=51 velocity=80 time=380
note_off channel=9 note=51 velocity=64 time=100
note_on channel=9 note=51 velocity=90 time=380
note_on channel=9 note=42 velocity=70 time=0
note_off channel=9 note=51 velocity=64 time=100
note_off channel=9 note=42 velocity=64 time=0
note_on channel=9 note=51 velocity=60 time=256
note_off channel=9 note=51 velocity=64 time=100
note_on channel=9 note=51 velocity=80 time=24
note_off channel=9 note=51 velocity=64 time=100
note_on channel=9 note=51 velocity=90 time=380
note_on channel=9 note=37 velocity=70 time=0
note_on channel=9 note=42 velocity=70 time=0
note_off channel=9 note=51 velocity=64 time=100
note_off channel=9 note=42 velocity=64 time=0
note_off channel=9 note=37 velocity=64 time=0
note_on channel=9 note=51 velocity=60 time=256
note_off channel=9 note=51 velocity=64 time=100
note_on channel=9 note=51 velocity=80 time=24
note_off channel=9 note=51 velocity=64 time=100
note_on channel=9 note=51 velocity=90 time=380
note_on channel=9 note=42 velocity=70 time=0
note_off channel=9 note=51 velocity=64 time=100
note_off channel=9 note=42 velocity=64 time=0
note_on channel=9 note=51 velocity=60 time=256
note_off channel=9 note=51 velocity=64 time=100
note_on channel=9 note=51 velocity=80 time=24
note_off channel=9 note=51 velocity=64 time=100
note_on channel=9 note=38 velocity=60 time=256
note_off channel=9 note=38 velocity=64 time=100
note_on channel=9 note=51 velocity=90 time=24
note_on channel=9 note=42 velocity=70 time=0
note_off channel=9 note=51 velocity=64 time=100
note_off channel=9 note=42 velocity=64 time=0
note_on channel=9 note=51 velocity=60 time=256
note_on channel=9 note=38 velocity=30 time=0
note_off channel=9 note=51 velocity=64 time=100
note_off channel=9 note=38 velocity=64 time=0
note_on channel=9 note=51 velocity=80 time=24
note_off channel=9 note=51 velocity=64 time=100
note_on channel=9 note=51 velocity=90 time=380
note_on channel=9 note=42 velocity=70 time=0
note_off channel=9 note=51 velocity=64 time=100
note_off channel=9 note=42 velocity=64 time=0
note_on channel=9 note=51 velocity=60 time=252
note_off channel=9 note=51 velocity=64 time=100
note_on channel=9 note=51 velocity=80 time=28
note_off channel=9 note=51 velocity=64 time=100
note_on channel=9 note=51 velocity=90 time=380
note_on channel=9 note=37 velocity=60 time=0
note_on channel=9 note=42 velocity=70 time=0
note_off channel=9 note=51 velocity=64 time=100
note_off channel=9 note=42 velocity=64 time=0
note_off channel=9 note=37 velocity=64 time=0
note_on channel=9 note=51 velocity=60 time=252
note_off channel=9 note=51 velocity=64 time=100
note_on channel=9 note=51 velocity=80 time=28
note_off channel=9 note=51 velocity=64 time=100
note_on channel=9 note=51 velocity=100 time=380
note_on channel=9 note=42 velocity=70 time=0
note_off channel=9 note=51 velocity=64 time=100
note_off channel=9 note=42 velocity=64 time=0
note_on channel=9 note=51 velocity=80 time=380
note_off channel=9 note=51 velocity=64 time=100
note_on channel=9 note=51 velocity=100 time=380
note_on channel=9 note=37 velocity=70 time=0
note_on channel=9 note=42 velocity=70 time=0
note_off channel=9 note=51 velocity=64 time=100
note_off channel=9 note=42 velocity=64 time=0
note_off channel=9 note=37 velocity=64 time=0
note_on channel=9 note=51 velocity=80 time=380
note_off channel=9 note=51 velocity=64 time=100
note_on channel=9 note=51 velocity=90 time=380
note_on channel=9 note=42 velocity=70 time=0
note_off channel=9 note=51 velocity=64 time=100
note_off channel=9 note=42 velocity=64 time=0
note_on channel=9 note=51 velocity=60 time=252
note_off channel=9 note=51 velocity=64 time=100
note_on channel=9 note=51 velocity=80 time=28
note_off channel=9 note=51 velocity=64 time=100
note_on channel=9 note=51 velocity=90 time=380
note_on channel=9 note=37 velocity=60 time=0
note_on channel=9 note=42 velocity=70 time=0
note_off channel=9 note=51 velocity=64 time=100
note_off channel=9 note=42 velocity=64 time=0
note_off channel=9 note=37 velocity=64 time=0
note_on channel=9 note=51 velocity=60 time=252
note_off channel=9 note=51 velocity=64 time=100
note_on channel=9 note=51 velocity=80 time=28
note_off channel=9 note=51 velocity=64 time=100
note_on channel=9 note=51 velocity=90 time=380
note_on channel=9 note=42 velocity=70 time=0
note_off channel=9 note=51 velocity=64 time=100
note_off channel=9 note=42 velocity=64 time=0
note_on channel=9 note=51 velocity=80 time=380
note_off channel=9 note=51 velocity=64 time=100
note_on channel=9 note=51 velocity=90 time=380
note_on channel=9 note=37 velocity=70 time=0
note_on channel=9 note=42 velocity=70 time=0
note_off channel=9 note=51 velocity=64 time=100
note_off channel=9 note=42 velocity=64 time=0
note_off channel=9 note=37 velocity=64 time=0
note_on channel=9 note=51 velocity=80 time=380
note_off channel=9 note=51 velocity=64 time=100
note_on channel=9 note=51 velocity=90 time=380
note_on channel=9 note=42 velocity=70 time=0
note_off channel=9 note=51 velocity=64 time=100
note_off channel=9 note=42 velocity=64 time=0
note_on channel=9 note=51 velocity=60 time=252
note_off channel=9 note=51 velocity=64 time=100
note_on channel=9 note=51 velocity=80 time=28
note_off channel=9 note=51 velocity=64 time=100
note_on channel=9 note=51 velocity=90 time=380
note_on channel=9 note=37 velocity=60 time=0
note_on channel=9 note=42 velocity=70 time=0
note_off channel=9 note=51 velocity=64 time=100
note_off channel=9 note=42 velocity=64 time=0
note_off channel=9 note=37 velocity=64 time=0
note_on channel=9 note=51 velocity=60 time=252
note_off channel=9 note=51 velocity=64 time=100
note_on channel=9 note=51 velocity=80 time=28
note_off channel=9 note=51 velocity=64 time=100
note_on channel=9 note=51 velocity=100 time=380
note_on channel=9 note=42 velocity=70 time=0
note_off channel=9 note=51 velocity=64 time=100
note_off channel=9 note=42 velocity=64 time=0
note_on channel=9 note=51 velocity=80 time=380
note_off channel=9 note=51 velocity=64 time=100
note_on channel=9 note=51 velocity=100 time=380
note_on channel=9 note=37 velocity=70 time=0
note_on channel=9 note=42 velocity=70 time=0
note_off channel=9 note=51 velocity=64 time=100
note_off channel=9 note=42 velocity=64 time=0
note_off channel=9 note=37 velocity=64 time=0
note_on channel=9 note=51 velocity=80 time=380
note_off channel=9 note=51 velocity=64 time=100
note_on channel=9 note=51 velocity=100 time=380
note_on channel=9 note=42 velocity=70 time=0
note_off channel=9 note=51 velocity=64 time=100
note_off channel=9 note=42 velocity=64 time=0
note_on channel=9 note=51 velocity=80 time=380
note_off channel=9 note=51 velocity=64 time=100
note_on channel=9 note=51 velocity=100 time=380
note_on channel=9 note=37 velocity=70 time=0
note_on channel=9 note=42 velocity=70 time=0
note_off channel=9 note=51 velocity=64 time=100
note_off channel=9 note=42 velocity=64 time=0
note_off channel=9 note=37 velocity=64 time=0
note_on channel=9 note=51 velocity=80 time=380
note_off channel=9 note=51 velocity=64 time=100
note_on channel=9 note=51 velocity=90 time=380
note_on channel=9 note=42 velocity=70 time=0
note_off channel=9 note=51 velocity=64 time=100
note_off channel=9 note=42 velocity=64 time=0
note_on channel=9 note=51 velocity=60 time=256
note_off channel=9 note=51 velocity=64 time=100
note_on channel=9 note=51 velocity=80 time=24
note_off channel=9 note=51 velocity=64 time=100
note_on channel=9 note=38 velocity=20 time=256
note_off channel=9 note=38 velocity=64 time=100
note_on channel=9 note=51 velocity=90 time=24
note_on channel=9 note=37 velocity=70 time=0
note_on channel=9 note=42 velocity=70 time=0
note_on channel=9 note=38 velocity=40 time=0
note_off channel=9 note=51 velocity=64 time=100
note_off channel=9 note=38 velocity=64 time=0
note_off channel=9 note=42 velocity=64 time=0
note_off channel=9 note=37 velocity=64 time=0
note_on channel=9 note=51 velocity=60 time=256
note_off channel=9 note=51 velocity=64 time=100
note_on channel=9 note=49 velocity=75 time=24
note_on channel=9 note=51 velocity=80 time=0
note_off channel=9 note=49 velocity=64 time=100
note_off channel=9 note=51 velocity=64 time=0
note_on channel=9 note=51 velocity=100 time=380
note_on channel=9 note=42 velocity=70 time=0
note_off channel=9 note=51 velocity=64 time=100
note_off channel=9 note=42 velocity=64 time=0
note_on channel=9 note=51 velocity=80 time=380
note_off channel=9 note=51 velocity=64 time=100
note_on channel=9 note=51 velocity=100 time=380
note_on channel=9 note=37 velocity=70 time=0
note_on channel=9 note=42 velocity=70 time=0
note_off channel=9 note=51 velocity=64 time=100
note_off channel=9 note=42 velocity=64 time=0
note_off channel=9 note=37 velocity=64 time=0
note_on channel=9 note=51 velocity=80 time=380
note_off channel=9 note=51 velocity=64 time=100
note_on channel=9 note=51 velocity=100 time=380
note_on channel=9 note=42 velocity=70 time=0
note_off channel=9 note=51 velocity=64 time=100
note_off channel=9 note=42 velocity=64 time=0
note_on channel=9 note=51 velocity=80 time=380
note_off channel=9 note=51 velocity=64 time=100
note_on channel=9 note=51 velocity=100 time=380
note_on channel=9 note=37 velocity=70 time=0
note_on channel=9 note=42 velocity=70 time=0
note_off channel=9 note=51 velocity=64 time=100
note_off channel=9 note=42 velocity=64 time=0
note_off channel=9 note=37 velocity=64 time=0
note_on channel=9 note=51 velocity=80 time=380
note_off channel=9 note=51 velocity=64 time=100
note_on channel=9 note=51 velocity=90 time=380
note_on channel=9 note=42 velocity=70 time=0
note_off channel=9 note=51 velocity=64 time=100
note_off channel=9 note=42 velocity=64 time=0
note_on channel=9 note=51 velocity=60 time=252
note_off channel=9 note=51 velocity=64 time=100
note_on channel=9 note=51 velocity=80 time=28
note_off channel=9 note=51 velocity=64 time=100
note_on channel=9 note=51 velocity=90 time=380
note_on channel=9 note=37 velocity=60 time=0
note_on channel=9 note=42 velocity=70 time=0
note_off channel=9 note=51 velocity=64 time=100
note_off channel=9 note=42 velocity=64 time=0
note_off channel=9 note=37 velocity=64 time=0
note_on channel=9 note=51 velocity=60 time=252
note_off channel=9 note=51 velocity=64 time=100
note_on channel=9 note=51 velocity=80 time=28
note_off channel=9 note=51 velocity=64 time=100
note_on channel=9 note=51 velocity=100 time=380
note_on channel=9 note=42 velocity=70 time=0
note_off channel=9 note=51 velocity=64 time=100
note_off channel=9 note=42 velocity=64 time=0
note_on channel=9 note=51 velocity=80 time=380
note_off channel=9 note=51 velocity=64 time=100
note_on channel=9 note=51 velocity=100 time=380
note_on channel=9 note=37 velocity=70 time=0
note_on channel=9 note=42 velocity=70 time=0
note_off channel=9 note=51 velocity=64 time=100
note_off channel=9 note=42 velocity=64 time=0
note_off channel=9 note=37 velocity=64 time=0
note_on channel=9 note=51 velocity=80 time=380
note_off channel=9 note=51 velocity=64 time=100
note_on channel=9 note=51 velocity=90 time=380
note_on channel=9 note=42 velocity=70 time=0
note_off channel=9 note=51 velocity=64 time=100
note_off channel=9 note=42 velocity=64 time=0
note_on channel=9 note=51 velocity=60 time=256
note_off channel=9 note=51 velocity=64 time=100
note_on channel=9 note=51 velocity=80 time=24
note_off channel=9 note=51 velocity=64 time=100
note_on channel=9 note=51 velocity=90 time=380
note_on channel=9 note=37 velocity=70 time=0
note_on channel=9 note=42 velocity=70 time=0
note_off channel=9 note=51 velocity=64 time=100
note_off channel=9 note=42 velocity=64 time=0
note_off channel=9 note=37 velocity=64 time=0
note_on channel=9 note=35 velocity=100 time=256
note_on channel=9 note=39 velocity=100 time=0
note_on channel=9 note=57 velocity=75 time=0
note_off channel=9 note=35 velocity=64 time=100
note_off channel=9 note=57 velocity=64 time=0
note_off channel=9 note=39 velocity=64 time=0
note_on channel=9 note=51 velocity=80 time=24
note_off channel=9 note=51 velocity=64 time=100
note_on channel=9 note=38 velocity=51 time=220
note_off channel=9 note=38 velocity=64 time=88
note_on channel=9 note=38 velocity=42 time=72
note_on channel=9 note=42 velocity=70 time=0
note_on channel=9 note=51 velocity=100 time=0
note_on channel=9 note=35 velocity=42 time=0
note_off channel=9 note=38 velocity=64 time=88
note_off channel=9 note=35 velocity=64 time=0
note_off channel=9 note=51 velocity=64 time=12
note_off channel=9 note=42 velocity=64 time=0
note_on channel=9 note=51 velocity=80 time=380
note_on channel=9 note=38 velocity=50 time=0
note_on channel=9 note=35 velocity=50 time=0
note_off channel=9 note=38 velocity=64 time=88
note_off channel=9 note=35 velocity=64 time=0
note_off channel=9 note=51 velocity=64 time=12
note_on channel=9 note=38 velocity=56 time=220
note_off channel=9 note=38 velocity=64 time=88
note_on channel=9 note=51 velocity=90 time=72
note_on channel=9 note=42 velocity=70 time=0
note_on channel=9 note=38 velocity=90 time=0
note_on channel=9 note=35 velocity=90 time=0
note_off channel=9 note=35 velocity=64 time=52
note_off channel=9 note=38 velocity=64 time=36
note_off channel=9 note=51 velocity=64 time=12
note_off channel=9 note=42 velocity=64 time=0
note_on channel=9 note=51 velocity=80 time=220
note_on channel=9 note=35 velocity=80 time=0
note_on channel=9 note=38 velocity=80 time=0
note_off channel=9 note=35 velocity=64 time=88
note_off channel=9 note=38 velocity=64 time=0
note_off channel=9 note=51 velocity=64 time=48
control_change channel=9 control=0 value=62 time=24
control_change channel=9 control=32 value=0 time=0
program_change channel=9 program=32 time=0
control_change channel=9 control=11 value=89 time=1896
control_change channel=9 control=11 value=90 time=336
control_change channel=9 control=11 value=91 time=312
note_on channel=9 note=38 velocity=75 time=256
note_off channel=9 note=38 velocity=64 time=40
note_on channel=9 note=38 velocity=77 time=0
note_off channel=9 note=38 velocity=64 time=40
control_change channel=9 control=11 value=93 time=0
note_on channel=9 note=35 velocity=80 time=0
note_on channel=9 note=38 velocity=106 time=0
note_off channel=9 note=35 velocity=64 time=112
note_off channel=9 note=38 velocity=64 time=0
control_change channel=9 control=11 value=94 time=200
note_on channel=9 note=49 velocity=94 time=8
note_on channel=9 note=38 velocity=94 time=0
note_on channel=9 note=35 velocity=81 time=0
note_on channel=9 note=51 velocity=81 time=0
note_off channel=9 note=38 velocity=64 time=112
note_off channel=9 note=51 velocity=64 time=0
note_off channel=9 note=35 velocity=64 time=0
control_change channel=9 control=11 value=95 time=216
note_on channel=9 note=51 velocity=60 time=188
note_off channel=9 note=51 velocity=64 time=100
control_change channel=9 control=11 value=96 time=24
note_on channel=9 note=51 velocity=80 time=0
note_on channel=9 note=35 velocity=80 time=0
note_off channel=9 note=51 velocity=64 time=100
note_off channel=9 note=35 velocity=64 time=0
note_on channel=9 note=51 velocity=90 time=380
note_on channel=9 note=42 velocity=70 time=0
note_off channel=9 note=51 velocity=64 time=100
note_off channel=9 note=42 velocity=64 time=0
note_on channel=9 note=51 velocity=60 time=256
note_off channel=9 note=51 velocity=64 time=100
note_on channel=9 note=51 velocity=80 time=24
note_off channel=9 note=49 velocity=64 time=24
note_off channel=9 note=51 velocity=64 time=76
note_on channel=9 note=51 velocity=90 time=380
note_on channel=9 note=37 velocity=70 time=0
note_on channel=9 note=42 velocity=70 time=0
note_off channel=9 note=51 velocity=64 time=100
note_off channel=9 note=42 velocity=64 time=0
note_off channel=9 note=37 velocity=64 time=0
note_on channel=9 note=51 velocity=60 time=256
note_off channel=9 note=51 velocity=64 time=100
note_on channel=9 note=51 velocity=80 time=24
note_on channel=9 note=35 velocity=80 time=0
note_off channel=9 note=51 velocity=64 time=100
note_off channel=9 note=35 velocity=64 time=0
note_on channel=9 note=51 velocity=90 time=380
note_on channel=9 note=42 velocity=70 time=0
note_off channel=9 note=51 velocity=64 time=100
note_off channel=9 note=42 velocity=64 time=0
note_on channel=9 note=51 velocity=60 time=256
note_on channel=9 note=38 velocity=75 time=44
note_off channel=9 note=38 velocity=64 time=40
note_on channel=9 note=38 velocity=77 time=0
note_off channel=9 note=51 velocity=64 time=16
note_off channel=9 note=38 velocity=64 time=24
note_on channel=9 note=51 velocity=80 time=0
note_on channel=9 note=38 velocity=106 time=0
note_on channel=9 note=35 velocity=106 time=0
note_off channel=9 note=51 velocity=64 time=100
note_off channel=9 note=35 velocity=64 time=12
note_off channel=9 note=38 velocity=64 time=0
note_on channel=9 note=38 velocity=88 time=208
note_on channel=9 note=35 velocity=88 time=0
note_on channel=9 note=40 velocity=88 time=0
note_off channel=9 note=38 velocity=64 time=112
note_off channel=9 note=40 velocity=64 time=0
note_off channel=9 note=35 velocity=64 time=0
note_on channel=9 note=51 velocity=90 time=48
note_on channel=9 note=42 velocity=70 time=0
note_off channel=9 note=51 velocity=64 time=100
note_off channel=9 note=42 velocity=64 time=0
note_on channel=9 note=35 velocity=88 time=220
note_on channel=9 note=38 velocity=88 time=0
note_on channel=9 note=49 velocity=96 time=0
note_on channel=9 note=51 velocity=60 time=36
note_off channel=9 note=35 velocity=64 time=76
note_off channel=9 note=38 velocity=64 time=0
note_off channel=9 note=51 velocity=64 time=24
note_on channel=9 note=51 velocity=80 time=24
note_off channel=9 note=51 velocity=64 time=100
note_on channel=9 note=51 velocity=100 time=380
note_on channel=9 note=42 velocity=70 time=0
note_off channel=9 note=51 velocity=64 time=100
note_off channel=9 note=42 velocity=64 time=0
note_on channel=9 note=51 velocity=80 time=380
note_off channel=9 note=51 velocity=64 time=100
note_on channel=9 note=51 velocity=100 time=380
note_on channel=9 note=37 velocity=70 time=0
note_on channel=9 note=42 velocity=70 time=0
note_off channel=9 note=51 velocity=64 time=100
note_off channel=9 note=42 velocity=64 time=0
note_off channel=9 note=37 velocity=64 time=0
note_off channel=9 note=49 velocity=64 time=356
note_on channel=9 note=51 velocity=80 time=24
note_off channel=9 note=51 velocity=64 time=100
note_on channel=9 note=51 velocity=90 time=380
note_on channel=9 note=42 velocity=70 time=0
note_off channel=9 note=51 velocity=64 time=100
note_off channel=9 note=42 velocity=64 time=0
note_on channel=9 note=51 velocity=80 time=380
note_off channel=9 note=51 velocity=64 time=100
note_on channel=9 note=51 velocity=90 time=380
note_on channel=9 note=37 velocity=70 time=0
note_on channel=9 note=42 velocity=70 time=0
note_off channel=9 note=51 velocity=64 time=100
note_off channel=9 note=42 velocity=64 time=0
note_off channel=9 note=37 velocity=64 time=0
note_on channel=9 note=38 velocity=81 time=300
note_off channel=9 note=38 velocity=64 time=40
note_on channel=9 note=38 velocity=81 time=0
note_off channel=9 note=38 velocity=64 time=40
note_on channel=9 note=51 velocity=80 time=0
note_on channel=9 note=35 velocity=96 time=0
note_on channel=9 note=38 velocity=80 time=0
note_off channel=9 note=51 velocity=64 time=100
note_off channel=9 note=38 velocity=64 time=0
note_off channel=9 note=35 velocity=64 time=0
note_on channel=9 note=40 velocity=88 time=220
note_on channel=9 note=49 velocity=88 time=0
note_off channel=9 note=40 velocity=64 time=112
note_on channel=9 note=51 velocity=100 time=48
note_on channel=9 note=42 velocity=70 time=0
note_off channel=9 note=51 velocity=64 time=100
note_off channel=9 note=42 velocity=64 time=0
note_off channel=9 note=49 velocity=64 time=188
note_on channel=9 note=38 velocity=88 time=32
note_on channel=9 note=35 velocity=88 time=0
note_on channel=9 note=49 velocity=88 time=0
note_off channel=9 note=38 velocity=64 time=112
note_off channel=9 note=35 velocity=64 time=0
note_on channel=9 note=51 velocity=80 time=48
note_off channel=9 note=51 velocity=64 time=100
note_on channel=9 note=51 velocity=100 time=380
note_on channel=9 note=42 velocity=70 time=0
note_off channel=9 note=51 velocity=64 time=100
note_off channel=9 note=42 velocity=64 time=0
note_on channel=9 note=38 velocity=81 time=300
note_off channel=9 note=49 velocity=64 time=8
note_off channel=9 note=38 velocity=64 time=32
note_on channel=9 note=38 velocity=81 time=0
note_off channel=9 note=38 velocity=64 time=40
note_on channel=9 note=51 velocity=80 time=0
note_on channel=9 note=35 velocity=96 time=0
note_on channel=9 note=38 velocity=80 time=0
note_off channel=9 note=51 velocity=64 time=100
note_off channel=9 note=38 velocity=64 time=0
note_off channel=9 note=35 velocity=64 time=0
note_on channel=9 note=40 velocity=88 time=220
note_on channel=9 note=57 velocity=88 time=0
note_off channel=9 note=40 velocity=64 time=112
note_on channel=9 note=51 velocity=90 time=48
note_on channel=9 note=42 velocity=70 time=0
note_off channel=9 note=51 velocity=64 time=100
note_off channel=9 note=42 velocity=64 time=0
note_off channel=9 note=57 velocity=64 time=188
note_on channel=9 note=38 velocity=88 time=32
note_on channel=9 note=35 velocity=88 time=0
note_on channel=9 note=57 velocity=88 time=0
note_off channel=9 note=38 velocity=64 time=112
note_off channel=9 note=35 velocity=64 time=0
note_on channel=9 note=51 velocity=80 time=48
note_off channel=9 note=51 velocity=64 time=100
note_on channel=9 note=51 velocity=90 time=380
note_on channel=9 note=42 velocity=70 time=0
note_off channel=9 note=51 velocity=64 time=100
note_off channel=9 note=42 velocity=64 time=0
note_off channel=9 note=57 velocity=64 time=308
note_on channel=9 note=51 velocity=80 time=72
note_off channel=9 note=51 velocity=64 time=100
note_on channel=9 note=38 velocity=81 time=220
note_on channel=9 note=35 velocity=81 time=0
note_on channel=9 note=49 velocity=81 time=0
note_off channel=9 note=38 velocity=64 time=112
note_off channel=9 note=49 velocity=64 time=0
note_off channel=9 note=35 velocity=64 time=0
note_on channel=9 note=51 velocity=100 time=48
note_on channel=9 note=38 velocity=70 time=0
note_off channel=9 note=51 velocity=64 time=100
note_off channel=9 note=38 velocity=64 time=0
note_on channel=9 note=40 velocity=84 time=220
note_on channel=9 note=35 velocity=84 time=0
note_on channel=9 note=57 velocity=84 time=0
note_off channel=9 note=40 velocity=64 time=112
note_off channel=9 note=57 velocity=64 time=0
note_off channel=9 note=35 velocity=64 time=0
note_on channel=9 note=51 velocity=80 time=48
note_off channel=9 note=51 velocity=64 time=100
note_on channel=9 note=38 velocity=88 time=220
note_on channel=9 note=35 velocity=88 time=0
note_on channel=9 note=49 velocity=88 time=0
note_off channel=9 note=38 velocity=64 time=112
note_off channel=9 note=49 velocity=64 time=0
note_off channel=9 note=35 velocity=64 time=0
note_on channel=9 note=51 velocity=100 time=48
note_on channel=9 note=43 velocity=70 time=0
note_off channel=9 note=51 velocity=64 time=100
note_off channel=9 note=43 velocity=64 time=0
note_on channel=9 note=41 velocity=81 time=60
note_off channel=9 note=41 velocity=64 time=64
note_on channel=9 note=40 velocity=81 time=96
note_on channel=9 note=35 velocity=81 time=0
note_off channel=9 note=40 velocity=64 time=88
note_off channel=9 note=35 velocity=64 time=48
control_change channel=9 control=11 value=96 time=24
note_on channel=9 note=51 velocity=80 time=0
note_on channel=9 note=38 velocity=91 time=0
note_off channel=9 note=38 velocity=64 time=64
note_off channel=9 note=51 velocity=64 time=36
control_change channel=9 control=11 value=95 time=92
note_on channel=9 note=57 velocity=94 time=128
note_on channel=9 note=40 velocity=94 time=0
note_on channel=9 note=35 velocity=94 time=0
note_on channel=9 note=49 velocity=94 time=0
control_change channel=9 control=11 value=94 time=64
note_off channel=9 note=35 velocity=64 time=44
note_off channel=9 note=40 velocity=64 time=4
note_on channel=9 note=51 velocity=90 time=48
note_on channel=9 note=42 velocity=70 time=0
control_change channel=9 control=11 value=93 time=96
note_off channel=9 note=51 velocity=64 time=4
note_off channel=9 note=42 velocity=64 time=0
control_change channel=9 control=11 value=91 time=188
note_on channel=9 note=51 velocity=60 time=68
note_off channel=9 note=51 velocity=64 time=100
control_change channel=9 control=11 value=90 time=24
note_on channel=9 note=51 velocity=80 time=0
note_off channel=9 note=51 velocity=64 time=100
control_change channel=9 control=11 value=89 time=92
note_off channel=9 note=49 velocity=64 time=92
note_off channel=9 note=57 velocity=64 time=0
note_on channel=9 note=38 velocity=20 time=72
control_change channel=9 control=11 value=88 time=28
note_off channel=9 note=38 velocity=64 time=72
note_on channel=9 note=51 velocity=90 time=24
note_on channel=9 note=37 velocity=70 time=0
note_on channel=9 note=42 velocity=70 time=0
note_on channel=9 note=38 velocity=40 time=0
control_change channel=9 control=11 value=86 time=96
note_off channel=9 note=51 velocity=64 time=4
note_off channel=9 note=38 velocity=64 time=0
note_off channel=9 note=42 velocity=64 time=0
note_off channel=9 note=37 velocity=64 time=0
control_change channel=9 control=11 value=85 time=188
note_on channel=9 note=51 velocity=60 time=68
note_on channel=9 note=38 velocity=81 time=44
note_off channel=9 note=38 velocity=64 time=40
note_on channel=9 note=38 velocity=81 time=0
note_off channel=9 note=51 velocity=64 time=16
note_off channel=9 note=38 velocity=64 time=24
control_change channel=9 control=11 value=84 time=0
note_on channel=9 note=51 velocity=80 time=0
note_on channel=9 note=38 velocity=84 time=0
note_on channel=9 note=35 velocity=84 time=0
note_off channel=9 note=51 velocity=64 time=100
note_off channel=9 note=35 velocity=64 time=16
note_off channel=9 note=38 velocity=64 time=0
note_on channel=9 note=38 velocity=82 time=204
note_on channel=9 note=35 velocity=82 time=0
note_off channel=9 note=38 velocity=64 time=124
note_off channel=9 note=35 velocity=64 time=0
note_on channel=9 note=51 velocity=90 time=36
note_on channel=9 note=42 velocity=70 time=0
note_off channel=9 note=51 velocity=64 time=100
note_off channel=9 note=42 velocity=64 time=0
note_on channel=9 note=51 velocity=60 time=252
note_off channel=9 note=51 velocity=64 time=100
note_on channel=9 note=51 velocity=80 time=28
note_off channel=9 note=51 velocity=64 time=100
note_on channel=9 note=51 velocity=90 time=380
note_on channel=9 note=37 velocity=60 time=0
note_on channel=9 note=42 velocity=70 time=0
note_off channel=9 note=51 velocity=64 time=100
note_off channel=9 note=42 velocity=64 time=0
note_off channel=9 note=37 velocity=64 time=0
note_on channel=9 note=51 velocity=60 time=252
note_off channel=9 note=51 velocity=64 time=100
note_on channel=9 note=51 velocity=80 time=28
note_off channel=9 note=51 velocity=64 time=100
note_on channel=9 note=51 velocity=90 time=380
note_on channel=9 note=42 velocity=70 time=0
note_off channel=9 note=51 velocity=64 time=100
note_off channel=9 note=42 velocity=64 time=0
note_on channel=9 note=51 velocity=60 time=256
note_off channel=9 note=51 velocity=64 time=100
note_on channel=9 note=51 velocity=80 time=24
note_off channel=9 note=51 velocity=64 time=100
note_on channel=9 note=51 velocity=90 time=380
note_on channel=9 note=37 velocity=70 time=0
note_on channel=9 note=42 velocity=70 time=0
note_off channel=9 note=51 velocity=64 time=100
note_off channel=9 note=42 velocity=64 time=0
note_off channel=9 note=37 velocity=64 time=0
note_on channel=9 note=51 velocity=60 time=256
note_off channel=9 note=51 velocity=64 time=100
note_on channel=9 note=51 velocity=80 time=24
note_off channel=9 note=51 velocity=64 time=100
note_on channel=9 note=51 velocity=90 time=380
note_on channel=9 note=42 velocity=70 time=0
note_off channel=9 note=51 velocity=64 time=100
note_off channel=9 note=42 velocity=64 time=0
note_on channel=9 note=51 velocity=60 time=252
note_off channel=9 note=51 velocity=64 time=100
note_on channel=9 note=51 velocity=80 time=28
note_off channel=9 note=51 velocity=64 time=100
note_on channel=9 note=51 velocity=90 time=380
note_on channel=9 note=37 velocity=60 time=0
note_on channel=9 note=42 velocity=70 time=0
note_off channel=9 note=51 velocity=64 time=100
note_off channel=9 note=42 velocity=64 time=0
note_off channel=9 note=37 velocity=64 time=0
note_on channel=9 note=51 velocity=60 time=252
note_off channel=9 note=51 velocity=64 time=100
note_on channel=9 note=51 velocity=80 time=28
note_off channel=9 note=51 velocity=64 time=100
note_on channel=9 note=51 velocity=90 time=380
note_on channel=9 note=42 velocity=70 time=0
note_off channel=9 note=51 velocity=64 time=100
note_off channel=9 note=42 velocity=64 time=0
note_on channel=9 note=51 velocity=80 time=380
note_off channel=9 note=51 velocity=64 time=100
note_on channel=9 note=51 velocity=90 time=380
note_on channel=9 note=37 velocity=70 time=0
note_on channel=9 note=42 velocity=70 time=0
note_off channel=9 note=51 velocity=64 time=100
note_off channel=9 note=42 velocity=64 time=0
note_off channel=9 note=37 velocity=64 time=0
note_on channel=9 note=51 velocity=80 time=380
note_off channel=9 note=51 velocity=64 time=100
note_on channel=9 note=51 velocity=100 time=380
note_on channel=9 note=42 velocity=70 time=0
note_off channel=9 note=51 velocity=64 time=100
note_off channel=9 note=42 velocity=64 time=0
note_on channel=9 note=51 velocity=80 time=380
note_off channel=9 note=51 velocity=64 time=100
note_on channel=9 note=51 velocity=100 time=380
note_on channel=9 note=37 velocity=70 time=0
note_on channel=9 note=42 velocity=70 time=0
note_off channel=9 note=51 velocity=64 time=100
note_off channel=9 note=42 velocity=64 time=0
note_off channel=9 note=37 velocity=64 time=0
note_on channel=9 note=51 velocity=80 time=380
note_off channel=9 note=51 velocity=64 time=100
note_on channel=9 note=51 velocity=90 time=380
note_on channel=9 note=42 velocity=70 time=0
note_off channel=9 note=51 velocity=64 time=100
note_off channel=9 note=42 velocity=64 time=0
note_on channel=9 note=51 velocity=80 time=380
note_off channel=9 note=51 velocity=64 time=100
note_on channel=9 note=51 velocity=90 time=380
note_on channel=9 note=37 velocity=70 time=0
note_on channel=9 note=42 velocity=70 time=0
note_off channel=9 note=51 velocity=64 time=100
note_off channel=9 note=42 velocity=64 time=0
note_off channel=9 note=37 velocity=64 time=0
control_change channel=9 control=11 value=84 time=380
note_on channel=9 note=51 velocity=80 time=0
note_off channel=9 note=51 velocity=64 time=100
control_change channel=9 control=11 value=85 time=92
control_change channel=9 control=11 value=86 time=192
note_on channel=9 note=51 velocity=90 time=96
note_on channel=9 note=42 velocity=70 time=0
control_change channel=9 control=11 value=88 time=96
note_off channel=9 note=51 velocity=64 time=4
note_off channel=9 note=42 velocity=64 time=0
control_change channel=9 control=11 value=89 time=188
note_on channel=9 note=51 velocity=60 time=68
note_off channel=9 note=51 velocity=64 time=100
control_change channel=9 control=11 value=90 time=24
note_on channel=9 note=51 velocity=80 time=0
note_off channel=9 note=51 velocity=64 time=100
control_change channel=9 control=11 value=91 time=92
control_change channel=9 control=11 value=93 time=192
note_on channel=9 note=51 velocity=90 time=96
note_on channel=9 note=37 velocity=70 time=0
note_on channel=9 note=42 velocity=70 time=0
control_change channel=9 control=11 value=94 time=96
note_off channel=9 note=51 velocity=64 time=4
note_off channel=9 note=42 velocity=64 time=0
note_off channel=9 note=37 velocity=64 time=0
control_change channel=9 control=11 value=95 time=188
note_on channel=9 note=51 velocity=60 time=68
note_off channel=9 note=51 velocity=64 time=100
control_change channel=9 control=11 value=96 time=24
note_on channel=9 note=51 velocity=80 time=0
note_off channel=9 note=51 velocity=64 time=100
control_change channel=9 control=11 value=98 time=92
control_change channel=9 control=11 value=99 time=192
note_on channel=9 note=51 velocity=90 time=96
note_on channel=9 note=42 velocity=70 time=0
control_change channel=9 control=11 value=100 time=96
note_off channel=9 note=51 velocity=64 time=4
note_off channel=9 note=42 velocity=64 time=0
control_change channel=9 control=11 value=101 time=188
note_on channel=9 note=51 velocity=60 time=68
note_off channel=9 note=51 velocity=64 time=100
control_change channel=9 control=11 value=103 time=24
note_on channel=9 note=48 velocity=61 time=0
note_on channel=9 note=51 velocity=80 time=0
note_off channel=9 note=48 velocity=64 time=58
note_off channel=9 note=51 velocity=64 time=42
note_on channel=9 note=48 velocity=53 time=20
note_off channel=9 note=48 velocity=64 time=57
control_change channel=9 control=11 value=104 time=15
note_on channel=9 note=38 velocity=60 time=164
note_on channel=9 note=36 velocity=74 time=4
control_change channel=9 control=11 value=105 time=24
note_off channel=9 note=36 velocity=64 time=35
note_off channel=9 note=38 velocity=64 time=37
note_on channel=9 note=47 velocity=103 time=24
note_on channel=9 note=51 velocity=90 time=0
note_on channel=9 note=42 velocity=70 time=0
note_off channel=9 note=47 velocity=64 time=56
control_change channel=9 control=11 value=106 time=40
note_off channel=9 note=42 velocity=64 time=4
note_off channel=9 note=51 velocity=64 time=0
note_on channel=9 note=47 velocity=68 time=20
note_off channel=9 note=47 velocity=64 time=57
control_change channel=9 control=11 value=108 time=111
note_on channel=9 note=51 velocity=60 time=68
note_on channel=9 note=38 velocity=30 time=0
note_on channel=9 note=36 velocity=65 time=4
note_on channel=9 note=40 velocity=81 time=40
note_off channel=9 note=36 velocity=64 time=17
note_off channel=9 note=40 velocity=64 time=23
note_on channel=9 note=40 velocity=81 time=0
note_off channel=9 note=51 velocity=64 time=16
note_off channel=9 note=38 velocity=64 time=0
note_off channel=9 note=40 velocity=64 time=24
control_change channel=9 control=11 value=109 time=0
note_on channel=9 note=51 velocity=80 time=0
note_on channel=9 note=40 velocity=92 time=0
note_off channel=9 note=40 velocity=64 time=76
note_off channel=9 note=51 velocity=64 time=24
note_on channel=9 note=40 velocity=109 time=236
note_on channel=9 note=49 velocity=109 time=0
note_on channel=9 note=36 velocity=80 time=0
note_off channel=9 note=40 velocity=64 time=58
note_off channel=9 note=36 velocity=64 time=42
note_on channel=9 note=51 velocity=90 time=44
note_on channel=9 note=42 velocity=70 time=0
note_off channel=9 note=51 velocity=64 time=100
note_off channel=9 note=42 velocity=64 time=0
note_on channel=9 note=51 velocity=60 time=256
note_off channel=9 note=51 velocity=64 time=100
note_on channel=9 note=51 velocity=80 time=24
note_on channel=9 note=38 velocity=94 time=0
note_off channel=9 note=38 velocity=64 time=88
note_off channel=9 note=51 velocity=64 time=12
note_on channel=9 note=38 velocity=94 time=220
note_on channel=9 note=38 velocity=20 time=36
note_off channel=9 note=38 velocity=64 time=52
note_off channel=9 note=38 velocity=64 time=48
note_on channel=9 note=51 velocity=90 time=24
note_on channel=9 note=37 velocity=70 time=0
note_on channel=9 note=42 velocity=70 time=0
note_on channel=9 note=38 velocity=40 time=0
note_off channel=9 note=51 velocity=64 time=100
note_off channel=9 note=38 velocity=64 time=0
note_off channel=9 note=42 velocity=64 time=0
note_off channel=9 note=37 velocity=64 time=0
note_off channel=9 note=49 velocity=64 time=150
note_on channel=9 note=51 velocity=60 time=106
note_on channel=9 note=38 velocity=30 time=0
note_on channel=9 note=36 velocity=65 time=4
note_on channel=9 note=40 velocity=81 time=40
note_off channel=9 note=36 velocity=64 time=17
note_off channel=9 note=40 velocity=64 time=23
note_on channel=9 note=40 velocity=81 time=0
note_off channel=9 note=51 velocity=64 time=16
note_off channel=9 note=38 velocity=64 time=0
note_off channel=9 note=40 velocity=64 time=24
note_on channel=9 note=51 velocity=80 time=0
note_on channel=9 note=40 velocity=92 time=0
note_off channel=9 note=40 velocity=64 time=76
note_off channel=9 note=51 velocity=64 time=24
note_on channel=9 note=36 velocity=80 time=236
note_on channel=9 note=40 velocity=109 time=0
note_on channel=9 note=57 velocity=109 time=0
note_off channel=9 note=40 velocity=64 time=58
note_off channel=9 note=36 velocity=64 time=42
note_on channel=9 note=51 velocity=90 time=44
note_on channel=9 note=42 velocity=70 time=0
note_off channel=9 note=51 velocity=64 time=100
note_off channel=9 note=42 velocity=64 time=0
note_on channel=9 note=51 velocity=60 time=256
note_off channel=9 note=51 velocity=64 time=100
note_on channel=9 note=51 velocity=80 time=24
note_on channel=9 note=38 velocity=94 time=0
note_off channel=9 note=38 velocity=64 time=88
note_off channel=9 note=51 velocity=64 time=12
note_on channel=9 note=38 velocity=94 time=220
note_on channel=9 note=38 velocity=20 time=36
note_off channel=9 note=38 velocity=64 time=52
note_off channel=9 note=38 velocity=64 time=48
note_on channel=9 note=51 velocity=90 time=24
note_on channel=9 note=37 velocity=70 time=0
note_on channel=9 note=42 velocity=70 time=0
note_on channel=9 note=38 velocity=40 time=0
note_off channel=9 note=51 velocity=64 time=100
note_off channel=9 note=38 velocity=64 time=0
note_off channel=9 note=42 velocity=64 time=0
note_off channel=9 note=37 velocity=64 time=0
note_off channel=9 note=57 velocity=64 time=150
note_on channel=9 note=51 velocity=60 time=106
note_on channel=9 note=40 velocity=81 time=44
note_off channel=9 note=40 velocity=64 time=40
note_on channel=9 note=40 velocity=81 time=0
note_off channel=9 note=51 velocity=64 time=16
note_off channel=9 note=40 velocity=64 time=24
note_on channel=9 note=51 velocity=80 time=0
note_on channel=9 note=40 velocity=92 time=0
note_off channel=9 note=40 velocity=64 time=76
note_off channel=9 note=51 velocity=64 time=24
note_on channel=9 note=40 velocity=109 time=236
note_on channel=9 note=36 velocity=80 time=0
note_on channel=9 note=49 velocity=109 time=0
note_off channel=9 note=40 velocity=64 time=58
note_off channel=9 note=36 velocity=64 time=42
note_on channel=9 note=51 velocity=90 time=44
note_on channel=9 note=42 velocity=70 time=0
note_off channel=9 note=51 velocity=64 time=100
note_off channel=9 note=42 velocity=64 time=0
note_on channel=9 note=51 velocity=60 time=256
note_off channel=9 note=51 velocity=64 time=100
note_on channel=9 note=51 velocity=80 time=24
note_on channel=9 note=38 velocity=94 time=0
note_off channel=9 note=38 velocity=64 time=88
note_off channel=9 note=51 velocity=64 time=12
note_on channel=9 note=38 velocity=94 time=220
note_on channel=9 note=38 velocity=20 time=36
note_off channel=9 note=38 velocity=64 time=52
note_off channel=9 note=38 velocity=64 time=48
note_on channel=9 note=51 velocity=90 time=24
note_on channel=9 note=37 velocity=70 time=0
note_on channel=9 note=42 velocity=70 time=0
note_on channel=9 note=38 velocity=40 time=0
note_off channel=9 note=51 velocity=64 time=100
note_off channel=9 note=38 velocity=64 time=0
note_off channel=9 note=42 velocity=64 time=0
note_off channel=9 note=37 velocity=64 time=0
note_off channel=9 note=49 velocity=64 time=150
note_on channel=9 note=51 velocity=60 time=106
note_on channel=9 note=40 velocity=81 time=44
note_off channel=9 note=40 velocity=64 time=40
note_on channel=9 note=40 velocity=81 time=0
note_off channel=9 note=51 velocity=64 time=16
note_off channel=9 note=40 velocity=64 time=24
note_on channel=9 note=51 velocity=80 time=0
note_on channel=9 note=40 velocity=92 time=0
note_off channel=9 note=40 velocity=64 time=76
note_off channel=9 note=51 velocity=64 time=24
note_on channel=9 note=40 velocity=109 time=236
note_on channel=9 note=36 velocity=80 time=0
note_on channel=9 note=57 velocity=109 time=0
note_off channel=9 note=40 velocity=64 time=58
note_off channel=9 note=36 velocity=64 time=42
note_on channel=9 note=51 velocity=90 time=44
note_on channel=9 note=42 velocity=70 time=0
note_off channel=9 note=51 velocity=64 time=100
note_off channel=9 note=42 velocity=64 time=0
note_on channel=9 note=51 velocity=60 time=256
note_off channel=9 note=51 velocity=64 time=100
note_on channel=9 note=51 velocity=80 time=24
note_on channel=9 note=40 velocity=88 time=0
note_off channel=9 note=40 velocity=64 time=84
note_off channel=9 note=51 velocity=64 time=16
note_on channel=9 note=38 velocity=20 time=256
note_off channel=9 note=38 velocity=64 time=100
note_on channel=9 note=51 velocity=90 time=24
note_on channel=9 note=37 velocity=70 time=0
note_on channel=9 note=42 velocity=70 time=0
note_on channel=9 note=38 velocity=40 time=0
note_on channel=9 note=40 velocity=88 time=0
note_off channel=9 note=40 velocity=64 time=84
note_off channel=9 note=37 velocity=64 time=16
note_off channel=9 note=38 velocity=64 time=0
note_off channel=9 note=42 velocity=64 time=0
note_off channel=9 note=51 velocity=64 time=0
note_off channel=9 note=57 velocity=64 time=150
note_on channel=9 note=51 velocity=60 time=106
note_on channel=9 note=40 velocity=81 time=44
note_off channel=9 note=40 velocity=64 time=40
note_on channel=9 note=40 velocity=81 time=0
note_off channel=9 note=51 velocity=64 time=16
note_off channel=9 note=40 velocity=64 time=24
note_on channel=9 note=51 velocity=80 time=0
note_on channel=9 note=40 velocity=109 time=0
note_on channel=9 note=36 velocity=94 time=0
note_off channel=9 note=51 velocity=64 time=100
note_off channel=9 note=36 velocity=64 time=20
note_off channel=9 note=40 velocity=64 time=0
note_on channel=9 note=49 velocity=109 time=216
note_on channel=9 note=36 velocity=80 time=0
note_on channel=9 note=40 velocity=109 time=0
note_off channel=9 note=40 velocity=64 time=58
note_off channel=9 note=36 velocity=64 time=42
note_on channel=9 note=51 velocity=100 time=44
note_on channel=9 note=42 velocity=70 time=0
note_off channel=9 note=51 velocity=64 time=100
note_off channel=9 note=42 velocity=64 time=0
note_on channel=9 note=51 velocity=80 time=380
note_on channel=9 note=40 velocity=88 time=0
note_off channel=9 note=40 velocity=64 time=92
note_off channel=9 note=51 velocity=64 time=8
note_on channel=9 note=40 velocity=88 time=220
note_off channel=9 note=40 velocity=64 time=108
note_on channel=9 note=51 velocity=100 time=52
note_on channel=9 note=37 velocity=70 time=0
note_on channel=9 note=42 velocity=70 time=0
note_off channel=9 note=51 velocity=64 time=100
note_off channel=9 note=42 velocity=64 time=0
note_off channel=9 note=37 velocity=64 time=0
note_off channel=9 note=49 velocity=64 time=150
note_on channel=9 note=40 velocity=81 time=150
note_off channel=9 note=40 velocity=64 time=40
note_on channel=9 note=40 velocity=81 time=0
note_off channel=9 note=40 velocity=64 time=40
note_on channel=9 note=51 velocity=80 time=0
note_on channel=9 note=36 velocity=94 time=0
note_on channel=9 note=40 velocity=109 time=0
note_off channel=9 note=51 velocity=64 time=100
note_off channel=9 note=40 velocity=64 time=20
note_off channel=9 note=36 velocity=64 time=0
note_on channel=9 note=51 velocity=90 time=360
note_on channel=9 note=42 velocity=70 time=0
note_on channel=9 note=40 velocity=81 time=0
note_off channel=9 note=40 velocity=64 time=88
note_off channel=9 note=51 velocity=64 time=12
note_off channel=9 note=42 velocity=64 time=0
note_on channel=9 note=40 velocity=81 time=220
note_on channel=9 note=57 velocity=101 time=0
note_on channel=9 note=51 velocity=60 time=36
note_off channel=9 note=40 velocity=64 time=52
note_off channel=9 note=51 velocity=64 time=48
note_on channel=9 note=51 velocity=80 time=24
note_off channel=9 note=51 velocity=64 time=100
note_on channel=9 note=38 velocity=60 time=256
note_off channel=9 note=38 velocity=64 time=100
note_on channel=9 note=51 velocity=90 time=24
note_on channel=9 note=42 velocity=70 time=0
note_off channel=9 note=51 velocity=64 time=100
note_off channel=9 note=42 velocity=64 time=0
note_on channel=9 note=51 velocity=60 time=256
note_on channel=9 note=38 velocity=30 time=0
note_off channel=9 note=57 velocity=64 time=52
note_off channel=9 note=38 velocity=64 time=48
note_off channel=9 note=51 velocity=64 time=0
note_on channel=9 note=51 velocity=80 time=24
note_off channel=9 note=51 velocity=64 time=100
note_on channel=9 note=40 velocity=94 time=220
note_on channel=9 note=36 velocity=94 time=0
note_off channel=9 note=40 velocity=64 time=112
note_off channel=9 note=36 velocity=64 time=0
note_on channel=9 note=51 velocity=90 time=48
note_on channel=9 note=44 velocity=55 time=0
note_on channel=9 note=47 velocity=103 time=0
note_off channel=9 note=44 velocity=64 time=18
note_off channel=9 note=47 velocity=64 time=40
note_off channel=9 note=51 velocity=64 time=42
note_on channel=9 note=40 velocity=8 time=60
note_on channel=9 note=40 velocity=8 time=0
note_off channel=9 note=40 velocity=64 time=44
note_off channel=9 note=40 velocity=64 time=0
note_on channel=9 note=40 velocity=94 time=116
note_on channel=9 note=51 velocity=60 time=36
note_off channel=9 note=40 velocity=64 time=20
note_off channel=9 note=51 velocity=64 time=80
note_on channel=9 note=51 velocity=80 time=24
note_on channel=9 note=44 velocity=55 time=0
note_off channel=9 note=44 velocity=64 time=20
note_off channel=9 note=51 velocity=64 time=80
note_on channel=9 note=43 velocity=109 time=60
note_off channel=9 note=43 velocity=64 time=57
note_on channel=9 note=51 velocity=90 time=263
note_on channel=9 note=37 velocity=70 time=0
note_on channel=9 note=40 velocity=111 time=0
note_on channel=9 note=44 velocity=55 time=0
note_off channel=9 note=44 velocity=64 time=19
note_off channel=9 note=40 velocity=64 time=37
note_off channel=9 note=51 velocity=64 time=44
note_off channel=9 note=37 velocity=64 time=0
note_on channel=9 note=40 velocity=8 time=92
note_off channel=9 note=40 velocity=64 time=57
note_on channel=9 note=40 velocity=66 time=71
note_on channel=9 note=51 velocity=60 time=36
note_off channel=9 note=40 velocity=64 time=23
note_on channel=9 note=40 velocity=70 time=67
note_off channel=9 note=51 velocity=64 time=10
note_on channel=9 note=51 velocity=80 time=24
note_on channel=9 note=40 velocity=126 time=0
note_off channel=9 note=40 velocity=64 time=1
note_off channel=9 note=40 velocity=64 time=0
note_on channel=9 note=36 velocity=86 time=59
note_off channel=9 note=51 velocity=64 time=40
note_off channel=9 note=36 velocity=64 time=19
note_on channel=9 note=51 velocity=100 time=361
note_on channel=9 note=36 velocity=96 time=0
note_on channel=9 note=40 velocity=96 time=0
note_on channel=9 note=49 velocity=106 time=0
note_off channel=9 note=36 velocity=64 time=56
note_off channel=9 note=49 velocity=64 time=0
note_off channel=9 note=40 velocity=64 time=0
note_off channel=9 note=51 velocity=64 time=44
note_on channel=9 note=36 velocity=102 time=220
note_on channel=9 note=40 velocity=74 time=0
note_on channel=9 note=57 velocity=108 time=0
note_off channel=9 note=36 velocity=64 time=57
note_off channel=9 note=40 velocity=64 time=1
note_on channel=9 note=51 velocity=80 time=102
note_off channel=9 note=51 velocity=64 time=100
note_on channel=9 note=40 velocity=81 time=220
note_off channel=9 note=40 velocity=64 time=64
note_on channel=9 note=51 velocity=100 time=96
note_on channel=9 note=37 velocity=70 time=0
note_off channel=9 note=51 velocity=64 time=100
note_off channel=9 note=37 velocity=64 time=0
note_off channel=9 note=57 velocity=64 time=296
note_on channel=9 note=51 velocity=80 time=84
note_on channel=9 note=40 velocity=94 time=0
note_on channel=9 note=36 velocity=94 time=0
note_off channel=9 note=40 velocity=64 time=64
note_off channel=9 note=36 velocity=64 time=0
note_off channel=9 note=51 velocity=64 time=36
note_on channel=9 note=38 velocity=94 time=220
note_on channel=9 note=36 velocity=94 time=0
note_off channel=9 note=38 velocity=64 time=64
note_off channel=9 note=36 velocity=64 time=0
note_on channel=9 note=51 velocity=90 time=96
note_on channel=9 note=38 velocity=40 time=0
note_off channel=9 note=51 velocity=64 time=100
note_off channel=9 note=38 velocity=64 time=0
note_on channel=9 note=38 velocity=30 time=60
note_off channel=9 note=38 velocity=64 time=100
note_on channel=9 note=48 velocity=90 time=60
note_on channel=9 note=51 velocity=60 time=36
note_off channel=9 note=48 velocity=64 time=64
note_off channel=9 note=51 velocity=64 time=36
note_on channel=9 note=51 velocity=80 time=24
note_on channel=9 note=38 velocity=60 time=0
note_off channel=9 note=51 velocity=64 time=100
note_off channel=9 note=38 velocity=64 time=0
note_on channel=9 note=38 velocity=40 time=60
note_off channel=9 note=38 velocity=64 time=100
note_on channel=9 note=45 velocity=90 time=60
note_on channel=9 note=38 velocity=60 time=36
note_off channel=9 note=45 velocity=64 time=64
note_off channel=9 note=38 velocity=64 time=36
note_on channel=9 note=51 velocity=90 time=24
note_on channel=9 note=38 velocity=60 time=0
note_off channel=9 note=51 velocity=64 time=100
note_off channel=9 note=38 velocity=64 time=0
note_on channel=9 note=38 velocity=40 time=84
note_off channel=9 note=38 velocity=64 time=100
note_on channel=9 note=41 velocity=90 time=36
note_on channel=9 note=51 velocity=60 time=36
note_on channel=9 note=38 velocity=81 time=44
note_off channel=9 note=41 velocity=64 time=20
note_off channel=9 note=38 velocity=64 time=20
note_on channel=9 note=38 velocity=81 time=0
note_off channel=9 note=51 velocity=64 time=16
note_off channel=9 note=38 velocity=64 time=24
note_on channel=9 note=51 velocity=80 time=0
note_on channel=9 note=35 velocity=90 time=0
note_on channel=9 note=38 velocity=90 time=0
note_on channel=9 note=57 velocity=90 time=0
note_off channel=9 note=51 velocity=64 time=100
note_off channel=9 note=35 velocity=64 time=0
note_off channel=9 note=38 velocity=64 time=0
note_on channel=9 note=51 velocity=100 time=380
note_on channel=9 note=42 velocity=70 time=0
note_on channel=9 note=40 velocity=94 time=0
note_on channel=9 note=35 velocity=94 time=0
note_off channel=9 note=40 velocity=64 time=72
note_off channel=9 note=35 velocity=64 time=0
note_off channel=9 note=51 velocity=64 time=28
note_off channel=9 note=42 velocity=64 time=0
note_on channel=9 note=51 velocity=80 time=380
note_on channel=9 note=40 velocity=94 time=0
note_on channel=9 note=35 velocity=94 time=0
note_off channel=9 note=40 velocity=64 time=80
note_off channel=9 note=35 velocity=64 time=0
note_off channel=9 note=51 velocity=64 time=20
note_on channel=9 note=40 velocity=94 time=220
note_on channel=9 note=35 velocity=94 time=0
note_off channel=9 note=40 velocity=64 time=132
note_off channel=9 note=35 velocity=64 time=0
note_on channel=9 note=51 velocity=88 time=28
note_on channel=9 note=37 velocity=88 time=0
note_on channel=9 note=42 velocity=88 time=0
note_on channel=9 note=40 velocity=88 time=0
note_off channel=9 note=40 velocity=64 time=64
note_off channel=9 note=57 velocity=64 time=12
note_off channel=9 note=42 velocity=64 time=24
note_off channel=9 note=37 velocity=64 time=0
note_off channel=9 note=51 velocity=64 time=0
note_on channel=9 note=38 velocity=74 time=60
note_off channel=9 note=38 velocity=64 time=64
note_on channel=9 note=49 velocity=106 time=96
note_on channel=9 note=35 velocity=94 time=0
note_on channel=9 note=38 velocity=106 time=0
note_off channel=9 note=35 velocity=64 time=64
note_off channel=9 note=38 velocity=64 time=24
note_on channel=9 note=51 velocity=80 time=72
note_off channel=9 note=51 velocity=64 time=100
note_on channel=9 note=51 velocity=90 time=380
note_on channel=9 note=42 velocity=70 time=0
note_off channel=9 note=51 velocity=64 time=100
note_off channel=9 note=42 velocity=64 time=0
note_on channel=9 note=51 velocity=80 time=380
note_off channel=9 note=51 velocity=64 time=100
note_on channel=9 note=51 velocity=90 time=380
note_on channel=9 note=37 velocity=70 time=0
note_on channel=9 note=42 velocity=70 time=0
note_on channel=9 note=35 velocity=94 time=0
note_on channel=9 note=38 velocity=94 time=0
note_off channel=9 note=35 velocity=64 time=92
note_off channel=9 note=38 velocity=64 time=0
note_off channel=9 note=42 velocity=64 time=8
note_off channel=9 note=51 velocity=64 time=0
note_off channel=9 note=37 velocity=64 time=0
note_on channel=9 note=35 velocity=94 time=220
note_on channel=9 note=38 velocity=94 time=0
note_on channel=9 note=51 velocity=100 time=0
note_off channel=9 note=49 velocity=64 time=16
note_off channel=9 note=51 velocity=64 time=96
note_off channel=9 note=38 velocity=64 time=0
note_off channel=9 note=35 velocity=64 time=0
note_on channel=9 note=51 velocity=80 time=48
note_off channel=9 note=51 velocity=64 time=100
note_on channel=9 note=36 velocity=94 time=220
note_on channel=9 note=40 velocity=94 time=0
note_off channel=9 note=36 velocity=64 time=112
note_off channel=9 note=40 velocity=64 time=0
note_on channel=9 note=47 velocity=103 time=48
note_on channel=9 note=44 velocity=55 time=0
note_on channel=9 note=51 velocity=90 time=0
note_off channel=9 note=44 velocity=64 time=18
note_off channel=9 note=47 velocity=64 time=40
note_off channel=9 note=51 velocity=64 time=42
note_on channel=9 note=40 velocity=8 time=60
note_on channel=9 note=40 velocity=8 time=0
note_off channel=9 note=40 velocity=64 time=44
note_off channel=9 note=40 velocity=64 time=0
note_on channel=9 note=40 velocity=94 time=116
note_on channel=9 note=51 velocity=60 time=36
note_off channel=9 note=40 velocity=64 time=20
note_off channel=9 note=51 velocity=64 time=80
note_on channel=9 note=44 velocity=55 time=24
note_on channel=9 note=51 velocity=80 time=0
note_off channel=9 note=44 velocity=64 time=20
note_off channel=9 note=51 velocity=64 time=80
note_on channel=9 note=43 velocity=109 time=60
note_off channel=9 note=43 velocity=64 time=57
note_on channel=9 note=44 velocity=55 time=263
note_on channel=9 note=40 velocity=111 time=0
note_on channel=9 note=37 velocity=70 time=0
note_on channel=9 note=51 velocity=90 time=0
note_off channel=9 note=44 velocity=64 time=19
note_off channel=9 note=40 velocity=64 time=37
note_off channel=9 note=37 velocity=64 time=44
note_off channel=9 note=51 velocity=64 time=0
note_on channel=9 note=40 velocity=8 time=92
note_off channel=9 note=40 velocity=64 time=57
note_on channel=9 note=40 velocity=66 time=71
note_on channel=9 note=51 velocity=60 time=36
note_off channel=9 note=40 velocity=64 time=23
note_on channel=9 note=40 velocity=70 time=67
note_off channel=9 note=51 velocity=64 time=10
note_on channel=9 note=40 velocity=126 time=24
note_on channel=9 note=51 velocity=80 time=0
note_off channel=9 note=40 velocity=64 time=1
note_off channel=9 note=40 velocity=64 time=0
note_on channel=9 note=36 velocity=86 time=59
note_on channel=9 note=40 velocity=86 time=0
note_off channel=9 note=51 velocity=64 time=40
note_off channel=9 note=40 velocity=64 time=19
note_off channel=9 note=36 velocity=64 time=0
note_on channel=9 note=38 velocity=94 time=201
note_on channel=9 note=36 velocity=94 time=0
note_on channel=9 note=49 velocity=106 time=0
note_off channel=9 note=38 velocity=64 time=100
note_off channel=9 note=36 velocity=64 time=0
note_on channel=9 note=51 velocity=100 time=60
note_off channel=9 note=51 velocity=64 time=100
note_on channel=9 note=40 velocity=74 time=220
note_on channel=9 note=36 velocity=102 time=0
note_off channel=9 note=36 velocity=64 time=57
note_off channel=9 note=40 velocity=64 time=1
note_on channel=9 note=51 velocity=80 time=102
note_on channel=9 note=38 velocity=94 time=0
note_off channel=9 note=38 velocity=64 time=84
note_off channel=9 note=51 velocity=64 time=16
note_on channel=9 note=40 velocity=81 time=220
note_off channel=9 note=40 velocity=64 time=64
note_on channel=9 note=36 velocity=70 time=96
note_on channel=9 note=51 velocity=100 time=0
note_on channel=9 note=38 velocity=94 time=0
note_off channel=9 note=38 velocity=64 time=80
note_off channel=9 note=36 velocity=64 time=20
note_off channel=9 note=51 velocity=64 time=0
note_on channel=9 note=38 velocity=94 time=220
note_on channel=9 note=36 velocity=94 time=0
note_off channel=9 note=38 velocity=64 time=88
note_off channel=9 note=36 velocity=64 time=0
note_off channel=9 note=49 velocity=64 time=36
note_on channel=9 note=51 velocity=80 time=36
note_off channel=9 note=51 velocity=64 time=100
note_on channel=9 note=38 velocity=94 time=220
note_off channel=9 note=38 velocity=64 time=88
note_on channel=9 note=51 velocity=90 time=72
note_on channel=9 note=42 velocity=70 time=0
note_off channel=9 note=51 velocity=64 time=100
note_off channel=9 note=42 velocity=64 time=0
note_on channel=9 note=36 velocity=75 time=220
note_on channel=9 note=51 velocity=75 time=36
note_off channel=9 note=36 velocity=64 time=88
note_off channel=9 note=51 velocity=64 time=12
note_on channel=9 note=51 velocity=79 time=24
note_on channel=9 note=38 velocity=79 time=0
note_off channel=9 note=38 velocity=64 time=88
note_off channel=9 note=51 velocity=64 time=12
note_on channel=9 note=51 velocity=90 time=380
note_on channel=9 note=36 velocity=70 time=0
note_on channel=9 note=42 velocity=70 time=0
note_on channel=9 note=38 velocity=94 time=0
note_off channel=9 note=38 velocity=64 time=88
note_off channel=9 note=36 velocity=64 time=12
note_off channel=9 note=42 velocity=64 time=0
note_off channel=9 note=51 velocity=64 time=0
note_on channel=9 note=51 velocity=60 time=256
note_on channel=9 note=40 velocity=81 time=44
note_off channel=9 note=40 velocity=64 time=40
note_on channel=9 note=40 velocity=81 time=0
note_off channel=9 note=51 velocity=64 time=16
note_off channel=9 note=40 velocity=64 time=24
note_on channel=9 note=51 velocity=80 time=0
note_on channel=9 note=36 velocity=90 time=0
note_on channel=9 note=40 velocity=98 time=0
note_off channel=9 note=51 velocity=64 time=100
note_off channel=9 note=40 velocity=64 time=0
note_off channel=9 note=36 velocity=64 time=0
note_on channel=9 note=51 velocity=100 time=380
note_on channel=9 note=42 velocity=70 time=0
note_on channel=9 note=49 velocity=109 time=0
note_on channel=9 note=36 velocity=109 time=0
note_on channel=9 note=40 velocity=109 time=0
note_off channel=9 note=36 velocity=64 time=96
note_off channel=9 note=40 velocity=64 time=0
note_off channel=9 note=42 velocity=64 time=4
note_off channel=9 note=51 velocity=64 time=0
note_on channel=9 note=51 velocity=80 time=380
note_off channel=9 note=51 velocity=64 time=100
note_off channel=9 note=49 velocity=64 time=332
note_on channel=9 note=51 velocity=100 time=48
note_on channel=9 note=36 velocity=70 time=0
note_on channel=9 note=42 velocity=70 time=0
note_on channel=9 note=40 velocity=94 time=0
note_off channel=9 note=40 velocity=64 time=84
note_off channel=9 note=36 velocity=64 time=16
note_off channel=9 note=42 velocity=64 time=0
note_off channel=9 note=51 velocity=64 time=0
note_on channel=9 note=38 velocity=81 time=300
note_off channel=9 note=38 velocity=64 time=40
note_on channel=9 note=38 velocity=81 time=0
note_off channel=9 note=38 velocity=64 time=40
note_on channel=9 note=51 velocity=80 time=0
note_on channel=9 note=38 velocity=100 time=0
note_on channel=9 note=36 velocity=89 time=0
note_off channel=9 note=38 velocity=64 time=92
note_off channel=9 note=36 velocity=64 time=0
note_off channel=9 note=51 velocity=64 time=8
note_on channel=9 note=57 velocity=103 time=220
note_on channel=9 note=51 velocity=90 time=160
note_on channel=9 note=42 velocity=70 time=0
note_off channel=9 note=51 velocity=64 time=100
note_off channel=9 note=42 velocity=64 time=0
note_on channel=9 note=51 velocity=60 time=256
note_on channel=9 note=38 velocity=81 time=44
note_off channel=9 note=38 velocity=64 time=40
note_on channel=9 note=38 velocity=81 time=0
note_off channel=9 note=51 velocity=64 time=16
note_off channel=9 note=38 velocity=64 time=24
control_change channel=9 control=11 value=109 time=0
note_on channel=9 note=51 velocity=80 time=0
note_on channel=9 note=48 velocity=61 time=0
note_on channel=9 note=38 velocity=100 time=0
note_on channel=9 note=36 velocity=92 time=0
note_off channel=9 note=48 velocity=64 time=58
note_off channel=9 note=36 velocity=64 time=34
note_off channel=9 note=38 velocity=64 time=0
note_off channel=9 note=51 velocity=64 time=8
control_change channel=9 control=11 value=106 time=20
note_on channel=9 note=48 velocity=53 time=0
note_off channel=9 note=48 velocity=64 time=57
control_change channel=9 control=11 value=104 time=63
note_on channel=9 note=49 velocity=94 time=80
note_on channel=9 note=38 velocity=60 time=36
control_change channel=9 control=11 value=101 time=4
note_off channel=9 note=57 velocity=64 time=12
note_off channel=9 note=38 velocity=64 time=84
control_change channel=9 control=11 value=99 time=24
note_on channel=9 note=51 velocity=90 time=0
note_on channel=9 note=42 velocity=70 time=0
note_on channel=9 note=47 velocity=103 time=0
note_off channel=9 note=47 velocity=64 time=56
note_off channel=9 note=51 velocity=64 time=44
note_off channel=9 note=42 velocity=64 time=0
control_change channel=9 control=11 value=96 time=20
note_on channel=9 note=47 velocity=68 time=0
note_off channel=9 note=47 velocity=64 time=57
control_change channel=9 control=11 value=94 time=63
note_on channel=9 note=51 velocity=60 time=116
note_on channel=9 note=38 velocity=30 time=0
control_change channel=9 control=11 value=91 time=4
note_off channel=9 note=51 velocity=64 time=96
note_off channel=9 note=38 velocity=64 time=0
control_change channel=9 control=11 value=89 time=24
note_on channel=9 note=51 velocity=80 time=0
note_off channel=9 note=51 velocity=64 time=100
note_on channel=9 note=51 velocity=100 time=380
note_on channel=9 note=42 velocity=70 time=0
note_off channel=9 note=51 velocity=64 time=100
note_off channel=9 note=42 velocity=64 time=0
note_off channel=9 note=49 velocity=64 time=332
note_on channel=9 note=51 velocity=80 time=48
note_off channel=9 note=51 velocity=64 time=100
note_on channel=9 note=51 velocity=100 time=380
note_on channel=9 note=37 velocity=70 time=0
note_on channel=9 note=42 velocity=70 time=0
note_off channel=9 note=51 velocity=64 time=100
note_off channel=9 note=42 velocity=64 time=0
note_off channel=9 note=37 velocity=64 time=0
note_on channel=9 note=51 velocity=80 time=380
note_off channel=9 note=51 velocity=64 time=100
note_on channel=9 note=51 velocity=100 time=380
note_on channel=9 note=42 velocity=70 time=0
note_off channel=9 note=51 velocity=64 time=100
note_off channel=9 note=42 velocity=64 time=0
note_on channel=9 note=51 velocity=80 time=380
note_off channel=9 note=51 velocity=64 time=100
note_on channel=9 note=51 velocity=100 time=380
note_on channel=9 note=37 velocity=70 time=0
note_on channel=9 note=42 velocity=70 time=0
note_off channel=9 note=51 velocity=64 time=100
note_off channel=9 note=42 velocity=64 time=0
note_off channel=9 note=37 velocity=64 time=0
note_on channel=9 note=51 velocity=80 time=380
note_off channel=9 note=51 velocity=64 time=100
note_on channel=9 note=51 velocity=100 time=380
note_on channel=9 note=42 velocity=70 time=0
note_off channel=9 note=51 velocity=64 time=100
note_off channel=9 note=42 velocity=64 time=0
note_on channel=9 note=51 velocity=80 time=380
note_off channel=9 note=51 velocity=64 time=100
note_on channel=9 note=51 velocity=100 time=380
note_on channel=9 note=37 velocity=70 time=0
note_on channel=9 note=42 velocity=70 time=0
note_off channel=9 note=51 velocity=64 time=100
note_off channel=9 note=42 velocity=64 time=0
note_off channel=9 note=37 velocity=64 time=0
note_on channel=9 note=51 velocity=80 time=380
note_off channel=9 note=51 velocity=64 time=100
note_on channel=9 note=51 velocity=100 time=380
note_on channel=9 note=42 velocity=70 time=0
note_off channel=9 note=51 velocity=64 time=100
note_off channel=9 note=42 velocity=64 time=0
note_on channel=9 note=51 velocity=80 time=380
note_off channel=9 note=51 velocity=64 time=100
note_on channel=9 note=51 velocity=100 time=380
note_on channel=9 note=37 velocity=70 time=0
note_on channel=9 note=42 velocity=70 time=0
note_off channel=9 note=51 velocity=64 time=100
note_off channel=9 note=42 velocity=64 time=0
note_off channel=9 note=37 velocity=64 time=0
note_on channel=9 note=51 velocity=80 time=380
note_off channel=9 note=51 velocity=64 time=100
note_on channel=9 note=51 velocity=100 time=380
note_on channel=9 note=42 velocity=70 time=0
note_off channel=9 note=51 velocity=64 time=100
note_off channel=9 note=42 velocity=64 time=0
note_on channel=9 note=51 velocity=80 time=380
note_off channel=9 note=51 velocity=64 time=100
note_on channel=9 note=51 velocity=100 time=380
note_on channel=9 note=37 velocity=70 time=0
note_on channel=9 note=42 velocity=70 time=0
note_off channel=9 note=51 velocity=64 time=100
note_off channel=9 note=42 velocity=64 time=0
note_off channel=9 note=37 velocity=64 time=0
note_on channel=9 note=51 velocity=80 time=380
note_off channel=9 note=51 velocity=64 time=100
note_on channel=9 note=51 velocity=90 time=380
note_on channel=9 note=42 velocity=70 time=0
note_off channel=9 note=51 velocity=64 time=100
note_off channel=9 note=42 velocity=64 time=0
note_on channel=9 note=51 velocity=60 time=256
note_off channel=9 note=51 velocity=64 time=100
note_on channel=9 note=51 velocity=80 time=24
note_off channel=9 note=51 velocity=64 time=100
note_on channel=9 note=51 velocity=90 time=380
note_on channel=9 note=37 velocity=70 time=0
note_on channel=9 note=42 velocity=70 time=0
note_off channel=9 note=51 velocity=64 time=100
note_off channel=9 note=42 velocity=64 time=0
note_off channel=9 note=37 velocity=64 time=0
note_on channel=9 note=51 velocity=60 time=256
note_off channel=9 note=51 velocity=64 time=100
control_change channel=9 control=11 value=89 time=24
note_on channel=9 note=51 velocity=80 time=0
note_off channel=9 note=51 velocity=64 time=100
control_change channel=9 control=11 value=90 time=140
control_change channel=9 control=11 value=91 time=240
note_on channel=9 note=51 velocity=100 time=0
note_on channel=9 note=42 velocity=70 time=0
note_off channel=9 note=51 velocity=64 time=100
note_off channel=9 note=42 velocity=64 time=0
control_change channel=9 control=11 value=93 time=140
control_change channel=9 control=11 value=94 time=240
note_on channel=9 note=51 velocity=80 time=0
note_off channel=9 note=51 velocity=64 time=100
control_change channel=9 control=11 value=95 time=140
control_change channel=9 control=11 value=96 time=240
note_on channel=9 note=51 velocity=100 time=0
note_on channel=9 note=37 velocity=70 time=0
note_on channel=9 note=42 velocity=70 time=0
note_off channel=9 note=51 velocity=64 time=100
note_off channel=9 note=42 velocity=64 time=0
note_off channel=9 note=37 velocity=64 time=0
control_change channel=9 control=11 value=98 time=140
control_change channel=9 control=11 value=99 time=240
note_on channel=9 note=51 velocity=80 time=0
note_on channel=9 note=38 velocity=100 time=0
note_on channel=9 note=35 velocity=100 time=0
note_off channel=9 note=51 velocity=64 time=100
note_off channel=9 note=35 velocity=64 time=0
note_off channel=9 note=38 velocity=64 time=0
note_on channel=9 note=38 velocity=60 time=60
control_change channel=9 control=11 value=100 time=80
note_off channel=9 note=38 velocity=64 time=20
note_on channel=9 note=38 velocity=50 time=60
note_off channel=9 note=38 velocity=64 time=100
control_change channel=9 control=11 value=101 time=60
note_on channel=9 note=51 velocity=90 time=0
note_on channel=9 note=42 velocity=70 time=0
note_on channel=9 note=42 velocity=100 time=0
note_on channel=9 note=38 velocity=40 time=0
note_off channel=9 note=51 velocity=64 time=100
note_off channel=9 note=38 velocity=64 time=0
note_off channel=9 note=42 velocity=64 time=0
note_off channel=9 note=42 velocity=64 time=0
note_on channel=9 note=38 velocity=30 time=60
control_change channel=9 control=11 value=103 time=80
note_off channel=9 note=38 velocity=64 time=20
note_on channel=9 note=48 velocity=90 time=60
note_on channel=9 note=51 velocity=60 time=36
note_off channel=9 note=48 velocity=64 time=64
note_off channel=9 note=51 velocity=64 time=36
control_change channel=9 control=11 value=104 time=24
note_on channel=9 note=51 velocity=80 time=0
note_on channel=9 note=38 velocity=60 time=0
note_off channel=9 note=51 velocity=64 time=100
note_off channel=9 note=38 velocity=64 time=0
note_on channel=9 note=38 velocity=40 time=60
control_change channel=9 control=11 value=105 time=80
note_off channel=9 note=38 velocity=64 time=20
note_on channel=9 note=45 velocity=90 time=60
note_on channel=9 note=38 velocity=60 time=36
note_off channel=9 note=45 velocity=64 time=64
note_off channel=9 note=38 velocity=64 time=36
control_change channel=9 control=11 value=106 time=24
note_on channel=9 note=51 velocity=90 time=0
note_on channel=9 note=42 velocity=70 time=0
note_on channel=9 note=42 velocity=100 time=0
note_on channel=9 note=38 velocity=60 time=0
note_off channel=9 note=51 velocity=64 time=100
note_off channel=9 note=38 velocity=64 time=0
note_off channel=9 note=42 velocity=64 time=0
note_off channel=9 note=42 velocity=64 time=0
note_on channel=9 note=38 velocity=40 time=60
control_change channel=9 control=11 value=108 time=80
note_off channel=9 note=38 velocity=64 time=20
note_on channel=9 note=41 velocity=90 time=60
note_on channel=9 note=51 velocity=60 time=36
note_on channel=9 note=38 velocity=30 time=0
note_on channel=9 note=40 velocity=81 time=44
note_off channel=9 note=41 velocity=64 time=20
note_off channel=9 note=40 velocity=64 time=20
note_on channel=9 note=40 velocity=81 time=0
note_off channel=9 note=38 velocity=64 time=16
note_off channel=9 note=51 velocity=64 time=0
note_off channel=9 note=40 velocity=64 time=24
control_change channel=9 control=11 value=109 time=0
note_on channel=9 note=51 velocity=80 time=0
note_on channel=9 note=38 velocity=90 time=0
note_on channel=9 note=35 velocity=90 time=0
note_on channel=9 note=40 velocity=90 time=0
note_off channel=9 note=51 velocity=64 time=100
note_off channel=9 note=40 velocity=64 time=0
note_off channel=9 note=35 velocity=64 time=0
note_off channel=9 note=38 velocity=64 time=0
note_on channel=9 note=38 velocity=95 time=220
note_on channel=9 note=49 velocity=100 time=0
note_on channel=9 note=35 velocity=95 time=0
note_off channel=9 note=38 velocity=64 time=72
note_off channel=9 note=35 velocity=64 time=0
note_on channel=9 note=51 velocity=90 time=88
note_on channel=9 note=42 velocity=70 time=0
note_off channel=9 note=51 velocity=64 time=100
note_off channel=9 note=42 velocity=64 time=0
note_on channel=9 note=38 velocity=95 time=220
note_on channel=9 note=35 velocity=95 time=0
note_on channel=9 note=51 velocity=60 time=36
note_off channel=9 note=38 velocity=64 time=28
note_off channel=9 note=35 velocity=64 time=0
note_off channel=9 note=51 velocity=64 time=72
note_on channel=9 note=51 velocity=80 time=24
note_on channel=9 note=38 velocity=95 time=0
note_on channel=9 note=35 velocity=95 time=0
note_off channel=9 note=38 velocity=64 time=64
note_off channel=9 note=35 velocity=64 time=0
note_off channel=9 note=51 velocity=64 time=36
note_on channel=9 note=51 velocity=90 time=380
note_on channel=9 note=35 velocity=70 time=0
note_on channel=9 note=42 velocity=70 time=0
note_on channel=9 note=38 velocity=95 time=0
note_off channel=9 note=35 velocity=64 time=64
note_off channel=9 note=38 velocity=64 time=0
note_off channel=9 note=42 velocity=64 time=36
note_off channel=9 note=51 velocity=64 time=0
note_on channel=9 note=51 velocity=60 time=256
note_off channel=9 note=49 velocity=64 time=12
note_off channel=9 note=51 velocity=64 time=88
control_change channel=9 control=93 value=30 time=24
control_change channel=9 control=93 value=30 time=0
control_change channel=9 control=93 value=30 time=0
control_change channel=9 control=93 value=30 time=0
note_on channel=9 note=51 velocity=80 time=0
note_on channel=9 note=38 velocity=94 time=0
note_on channel=9 note=57 velocity=94 time=0
note_on channel=9 note=35 velocity=94 time=0
note_off channel=9 note=38 velocity=64 time=64
note_off channel=9 note=35 velocity=64 time=0
note_off channel=9 note=51 velocity=64 time=36
note_on channel=9 note=51 velocity=90 time=380
note_on channel=9 note=42 velocity=70 time=0
note_on channel=9 note=38 velocity=94 time=0
note_off channel=9 note=38 velocity=64 time=64
note_off channel=9 note=51 velocity=64 time=36
note_off channel=9 note=42 velocity=64 time=0
note_on channel=9 note=38 velocity=94 time=220
note_on channel=9 note=35 velocity=94 time=0
note_on channel=9 note=51 velocity=60 time=36
note_off channel=9 note=38 velocity=64 time=28
note_off channel=9 note=35 velocity=64 time=0
note_off channel=9 note=51 velocity=64 time=72
note_on channel=9 note=51 velocity=80 time=24
note_off channel=9 note=51 velocity=64 time=100
note_on channel=9 note=40 velocity=86 time=300
note_off channel=9 note=40 velocity=64 time=40
note_on channel=9 note=40 velocity=81 time=0
note_off channel=9 note=40 velocity=64 time=40
note_on channel=9 note=51 velocity=90 time=0
note_on channel=9 note=35 velocity=70 time=0
note_on channel=9 note=42 velocity=70 time=0
note_on channel=9 note=40 velocity=94 time=0
note_off channel=9 note=35 velocity=64 time=88
note_off channel=9 note=40 velocity=64 time=0
note_off channel=9 note=42 velocity=64 time=12
note_off channel=9 note=51 velocity=64 time=0
note_on channel=9 note=49 velocity=100 time=220
note_on channel=9 note=35 velocity=81 time=0
note_on channel=9 note=38 velocity=94 time=0
note_on channel=9 note=51 velocity=60 time=36
note_off channel=9 note=57 velocity=64 time=44
note_off channel=9 note=38 velocity=64 time=8
note_off channel=9 note=35 velocity=64 time=0
note_off channel=9 note=51 velocity=64 time=48
note_on channel=9 note=51 velocity=80 time=24
note_off channel=9 note=51 velocity=64 time=100
note_on channel=9 note=51 velocity=90 time=380
note_on channel=9 note=42 velocity=70 time=0
note_on channel=9 note=38 velocity=94 time=0
note_on channel=9 note=35 velocity=94 time=0
note_off channel=9 note=51 velocity=64 time=100
note_off channel=9 note=42 velocity=64 time=0
note_off channel=9 note=38 velocity=64 time=12
note_off channel=9 note=35 velocity=64 time=0
note_on channel=9 note=51 velocity=60 time=244
note_off channel=9 note=51 velocity=64 time=100
note_on channel=9 note=51 velocity=80 time=24
note_on channel=9 note=38 velocity=94 time=0
note_off channel=9 note=51 velocity=64 time=100
note_off channel=9 note=38 velocity=64 time=12
note_on channel=9 note=38 velocity=94 time=208
note_on channel=9 note=35 velocity=94 time=0
note_off channel=9 note=38 velocity=64 time=112
note_off channel=9 note=35 velocity=64 time=0
note_on channel=9 note=51 velocity=90 time=48
note_on channel=9 note=35 velocity=70 time=0
note_on channel=9 note=42 velocity=70 time=0
note_on channel=9 note=40 velocity=90 time=0
note_off channel=9 note=49 velocity=64 time=48
note_off channel=9 note=40 velocity=64 time=52
note_off channel=9 note=42 velocity=64 time=0
note_off channel=9 note=35 velocity=64 time=0
note_off channel=9 note=51 velocity=64 time=0
note_on channel=9 note=38 velocity=94 time=220
note_on channel=9 note=57 velocity=101 time=0
note_on channel=9 note=35 velocity=94 time=0
note_on channel=9 note=51 velocity=60 time=36
note_off channel=9 note=38 velocity=64 time=76
note_off channel=9 note=35 velocity=64 time=0
note_off channel=9 note=51 velocity=64 time=24
note_on channel=9 note=51 velocity=80 time=24
note_off channel=9 note=51 velocity=64 time=100
note_on channel=9 note=51 velocity=90 time=380
note_on channel=9 note=42 velocity=70 time=0
note_on channel=9 note=38 velocity=94 time=0
note_on channel=9 note=35 velocity=94 time=0
note_off channel=9 note=51 velocity=64 time=100
note_off channel=9 note=42 velocity=64 time=0
note_off channel=9 note=38 velocity=64 time=12
note_off channel=9 note=35 velocity=64 time=0
note_on channel=9 note=38 velocity=94 time=208
note_on channel=9 note=35 velocity=94 time=0
note_on channel=9 note=51 velocity=60 time=36
note_off channel=9 note=38 velocity=64 time=76
note_off channel=9 note=35 velocity=64 time=0
note_off channel=9 note=51 velocity=64 time=24
note_on channel=9 note=51 velocity=80 time=24
note_on channel=9 note=40 velocity=10 time=0
note_off channel=9 note=40 velocity=64 time=57
note_off channel=9 note=51 velocity=64 time=43
note_on channel=9 note=40 velocity=8 time=140
note_off channel=9 note=40 velocity=64 time=57
note_on channel=9 note=38 velocity=20 time=59
note_on channel=9 note=40 velocity=103 time=4
note_off channel=9 note=40 velocity=64 time=58
note_off channel=9 note=38 velocity=64 time=38
note_on channel=9 note=51 velocity=90 time=24
note_on channel=9 note=35 velocity=70 time=0
note_on channel=9 note=38 velocity=40 time=0
note_off channel=9 note=51 velocity=64 time=100
note_off channel=9 note=38 velocity=64 time=0
note_off channel=9 note=35 velocity=64 time=0
note_on channel=9 note=47 velocity=111 time=20
note_off channel=9 note=47 velocity=64 time=57
note_on channel=9 note=40 velocity=8 time=63
note_off channel=9 note=40 velocity=64 time=57
note_on channel=9 note=51 velocity=60 time=59
note_off channel=9 note=57 velocity=64 time=4
note_on channel=9 note=40 velocity=64 time=0
note_off channel=9 note=40 velocity=64 time=57
note_off channel=9 note=51 velocity=64 time=39
note_on channel=9 note=40 velocity=62 time=2
note_on channel=9 note=51 velocity=80 time=22
note_on channel=9 note=40 velocity=126 time=1
note_off channel=9 note=40 velocity=64 time=7
note_off channel=9 note=40 velocity=64 time=0
note_off channel=9 note=51 velocity=64 time=92
note_on channel=9 note=49 velocity=101 time=220
note_on channel=9 note=35 velocity=101 time=0
note_on channel=9 note=40 velocity=101 time=0
note_off channel=9 note=35 velocity=64 time=88
note_off channel=9 note=40 velocity=64 time=0
note_on channel=9 note=51 velocity=90 time=72
note_on channel=9 note=42 velocity=70 time=0
note_off channel=9 note=51 velocity=64 time=100
note_off channel=9 note=42 velocity=64 time=0
note_on channel=9 note=51 velocity=60 time=252
note_off channel=9 note=51 velocity=64 time=100
note_on channel=9 note=51 velocity=80 time=28
note_on channel=9 note=38 velocity=94 time=0
note_on channel=9 note=35 velocity=94 time=0
note_off channel=9 note=38 velocity=64 time=60
note_off channel=9 note=35 velocity=64 time=0
note_off channel=9 note=51 velocity=64 time=40
note_on channel=9 note=51 velocity=90 time=380
note_on channel=9 note=42 velocity=70 time=0
note_on channel=9 note=38 velocity=94 time=0
note_on channel=9 note=35 velocity=94 time=0
note_off channel=9 note=38 velocity=64 time=60
note_off channel=9 note=35 velocity=64 time=0
note_off channel=9 note=51 velocity=64 time=40
note_off channel=9 note=42 velocity=64 time=0
note_off channel=9 note=49 velocity=64 time=236
note_on channel=9 note=51 velocity=60 time=16
note_off channel=9 note=51 velocity=64 time=100
note_on channel=9 note=51 velocity=80 time=28
note_on channel=9 note=38 velocity=94 time=0
note_off channel=9 note=38 velocity=64 time=86
note_off channel=9 note=51 velocity=64 time=14
note_on channel=9 note=40 velocity=81 time=220
note_off channel=9 note=40 velocity=64 time=88
note_on channel=9 note=51 velocity=90 time=72
note_on channel=9 note=42 velocity=70 time=0
note_on channel=9 note=38 velocity=81 time=0
note_off channel=9 note=38 velocity=64 time=88
note_off channel=9 note=51 velocity=64 time=12
note_off channel=9 note=42 velocity=64 time=0
note_on channel=9 note=38 velocity=94 time=220
note_on channel=9 note=57 velocity=94 time=0
note_on channel=9 note=35 velocity=94 time=0
note_on channel=9 note=51 velocity=60 time=36
note_off channel=9 note=38 velocity=64 time=88
note_off channel=9 note=35 velocity=64 time=0
note_off channel=9 note=51 velocity=64 time=12
note_on channel=9 note=51 velocity=80 time=24
note_off channel=9 note=51 velocity=64 time=100
note_on channel=9 note=38 velocity=20 time=256
note_on channel=9 note=40 velocity=103 time=4
note_off channel=9 note=40 velocity=64 time=58
note_off channel=9 note=38 velocity=64 time=38
note_on channel=9 note=51 velocity=90 time=24
note_on channel=9 note=37 velocity=70 time=0
note_on channel=9 note=42 velocity=70 time=0
note_on channel=9 note=38 velocity=40 time=0
note_on channel=9 note=35 velocity=70 time=0
note_off channel=9 note=51 velocity=64 time=100
note_off channel=9 note=35 velocity=64 time=0
note_off channel=9 note=38 velocity=64 time=0
note_off channel=9 note=42 velocity=64 time=0
note_off channel=9 note=37 velocity=64 time=0
note_on channel=9 note=47 velocity=111 time=20
note_off channel=9 note=47 velocity=64 time=57
note_on channel=9 note=40 velocity=8 time=63
note_off channel=9 note=40 velocity=64 time=57
note_on channel=9 note=51 velocity=60 time=59
note_on channel=9 note=40 velocity=64 time=4
note_off channel=9 note=40 velocity=64 time=57
note_off channel=9 note=51 velocity=64 time=39
note_on channel=9 note=40 velocity=62 time=2
note_on channel=9 note=51 velocity=80 time=22
note_on channel=9 note=40 velocity=126 time=1
note_off channel=9 note=40 velocity=64 time=7
note_off channel=9 note=40 velocity=64 time=0
note_off channel=9 note=51 velocity=64 time=92
note_on channel=9 note=40 velocity=101 time=220
note_on channel=9 note=35 velocity=101 time=0
note_on channel=9 note=49 velocity=101 time=0
note_off channel=9 note=40 velocity=64 time=88
note_off channel=9 note=35 velocity=64 time=0
note_off channel=9 note=57 velocity=64 time=36
note_on channel=9 note=51 velocity=100 time=36
note_on channel=9 note=42 velocity=70 time=0
note_off channel=9 note=51 velocity=64 time=100
note_off channel=9 note=42 velocity=64 time=0
note_on channel=9 note=51 velocity=80 time=380
note_off channel=9 note=51 velocity=64 time=100
note_on channel=9 note=51 velocity=100 time=380
note_on channel=9 note=35 velocity=70 time=0
note_on channel=9 note=42 velocity=70 time=0
note_off channel=9 note=51 velocity=64 time=100
note_off channel=9 note=42 velocity=64 time=0
note_off channel=9 note=35 velocity=64 time=0
note_off channel=9 note=49 velocity=64 time=236
note_on channel=9 note=51 velocity=80 time=144
note_off channel=9 note=51 velocity=64 time=100
note_on channel=9 note=51 velocity=90 time=380
note_on channel=9 note=42 velocity=70 time=0
note_off channel=9 note=51 velocity=64 time=100
note_off channel=9 note=42 velocity=64 time=0
note_on channel=9 note=51 velocity=60 time=256
note_off channel=9 note=51 velocity=64 time=100
control_change channel=9 control=11 value=109 time=24
note_on channel=9 note=51 velocity=80 time=0
note_on channel=9 note=45 velocity=81 time=0
note_off channel=9 note=45 velocity=64 time=80
note_off channel=9 note=51 velocity=64 time=20
control_change channel=9 control=11 value=108 time=20
control_change channel=9 control=11 value=106 time=120
note_on channel=9 note=45 velocity=81 time=80
control_change channel=9 control=11 value=105 time=40
note_off channel=9 note=45 velocity=64 time=48
control_change channel=9 control=11 value=103 time=72
note_on channel=9 note=51 velocity=90 time=0
note_on channel=9 note=35 velocity=70 time=0
note_on channel=9 note=40 velocity=70 time=0
note_on channel=9 note=43 velocity=81 time=0
note_off channel=9 note=43 velocity=64 time=88
note_off channel=9 note=35 velocity=64 time=12
note_off channel=9 note=40 velocity=64 time=0
note_off channel=9 note=51 velocity=64 time=0
control_change channel=9 control=11 value=101 time=20
note_on channel=9 note=41 velocity=81 time=40
control_change channel=9 control=11 value=100 time=80
note_off channel=9 note=41 velocity=64 time=8
note_on channel=9 note=40 velocity=84 time=72
note_on channel=9 note=51 velocity=84 time=36
control_change channel=9 control=11 value=99 time=4
note_off channel=9 note=40 velocity=64 time=48
note_off channel=9 note=51 velocity=64 time=48
note_on channel=9 note=40 velocity=62 time=2
control_change channel=9 control=11 value=96 time=22
note_on channel=9 note=51 velocity=80 time=0
note_on channel=9 note=40 velocity=126 time=1
note_off channel=9 note=40 velocity=64 time=7
note_off channel=9 note=40 velocity=64 time=0
note_off channel=9 note=51 velocity=64 time=92
note_on channel=9 note=49 velocity=94 time=220
note_on channel=9 note=40 velocity=81 time=0
note_on channel=9 note=35 velocity=81 time=0
note_off channel=9 note=40 velocity=64 time=88
note_off channel=9 note=35 velocity=64 time=0
note_on channel=9 note=51 velocity=90 time=72
note_on channel=9 note=42 velocity=70 time=0
note_off channel=9 note=51 velocity=64 time=100
note_off channel=9 note=42 velocity=64 time=0
note_on channel=9 note=51 velocity=60 time=256
note_off channel=9 note=51 velocity=64 time=100
note_on channel=9 note=51 velocity=80 time=24
note_off channel=9 note=51 velocity=64 time=100
note_on channel=9 note=51 velocity=90 time=380
note_on channel=9 note=37 velocity=70 time=0
note_on channel=9 note=42 velocity=70 time=0
note_off channel=9 note=51 velocity=64 time=100
note_off channel=9 note=42 velocity=64 time=0
note_off channel=9 note=37 velocity=64 time=0
note_off channel=9 note=49 velocity=64 time=236
note_on channel=9 note=51 velocity=60 time=20
note_off channel=9 note=51 velocity=64 time=100
note_on channel=9 note=51 velocity=80 time=24
note_off channel=9 note=51 velocity=64 time=100
note_on channel=9 note=51 velocity=100 time=380
note_on channel=9 note=42 velocity=70 time=0
note_off channel=9 note=51 velocity=64 time=100
note_off channel=9 note=42 velocity=64 time=0
note_on channel=9 note=51 velocity=80 time=380
note_off channel=9 note=51 velocity=64 time=100
note_on channel=9 note=38 velocity=60 time=300
note_off channel=9 note=38 velocity=64 time=40
note_on channel=9 note=38 velocity=65 time=0
note_off channel=9 note=38 velocity=64 time=40
note_on channel=9 note=51 velocity=66 time=0
note_on channel=9 note=35 velocity=66 time=0
note_on channel=9 note=42 velocity=66 time=0
note_on channel=9 note=38 velocity=66 time=0
note_off channel=9 note=51 velocity=64 time=100
note_off channel=9 note=38 velocity=64 time=0
note_off channel=9 note=42 velocity=64 time=0
note_off channel=9 note=35 velocity=64 time=0
note_on channel=9 note=38 velocity=67 time=238
note_on channel=9 note=35 velocity=67 time=0
note_off channel=9 note=38 velocity=61 time=108
note_off channel=9 note=35 velocity=61 time=0
control_change channel=9 control=0 value=62 time=34
control_change channel=9 control=32 value=0 time=0
program_change channel=9 program=40 time=0
note_on channel=9 note=38 velocity=54 time=1920
note_off channel=9 note=38 velocity=64 time=80
note_on channel=9 note=38 velocity=56 time=0
note_off channel=9 note=38 velocity=64 time=80
note_on channel=9 note=38 velocity=51 time=320
note_on channel=9 note=35 velocity=51 time=0
note_off channel=9 note=38 velocity=64 time=96
note_off channel=9 note=35 velocity=64 time=0
note_on channel=9 note=35 velocity=75 time=224
note_on channel=9 note=57 velocity=75 time=0
note_off channel=9 note=35 velocity=64 time=88
note_off channel=9 note=57 velocity=64 time=0
note_on channel=9 note=57 velocity=72 time=12
note_off channel=9 note=57 velocity=64 time=60
note_on channel=9 note=57 velocity=25 time=0
note_off channel=9 note=57 velocity=64 time=60
note_on channel=9 note=57 velocity=25 time=0
note_off channel=9 note=57 velocity=64 time=60
note_on channel=9 note=57 velocity=26 time=0
note_off channel=9 note=57 velocity=64 time=60
note_on channel=9 note=57 velocity=26 time=0
note_off channel=9 note=57 velocity=64 time=60
note_on channel=9 note=57 velocity=27 time=0
note_off channel=9 note=57 velocity=64 time=60
note_on channel=9 note=57 velocity=27 time=0
note_off channel=9 note=57 velocity=64 time=60
note_on channel=9 note=57 velocity=28 time=0
note_off channel=9 note=57 velocity=64 time=60
note_on channel=9 note=57 velocity=28 time=0
note_off channel=9 note=57 velocity=64 time=60
note_on channel=9 note=57 velocity=28 time=0
note_off channel=9 note=57 velocity=64 time=60
note_on channel=9 note=57 velocity=30 time=0
note_off channel=9 note=57 velocity=64 time=60
note_on channel=9 note=57 velocity=30 time=0
note_off channel=9 note=57 velocity=64 time=60
note_on channel=9 note=57 velocity=31 time=0
note_off channel=9 note=57 velocity=64 time=60
note_on channel=9 note=57 velocity=31 time=0
note_off channel=9 note=57 velocity=64 time=60
note_on channel=9 note=57 velocity=32 time=0
note_off channel=9 note=57 velocity=64 time=60
note_on channel=9 note=57 velocity=32 time=0
note_off channel=9 note=57 velocity=64 time=60
note_on channel=9 note=57 velocity=33 time=0
note_off channel=9 note=57 velocity=64 time=60
note_on channel=9 note=57 velocity=33 time=0
note_off channel=9 note=57 velocity=64 time=60
note_on channel=9 note=57 velocity=35 time=0
note_off channel=9 note=57 velocity=64 time=60
note_on channel=9 note=57 velocity=35 time=0
note_off channel=9 note=57 velocity=64 time=60
note_on channel=9 note=57 velocity=36 time=0
note_off channel=9 note=57 velocity=64 time=60
note_on channel=9 note=57 velocity=36 time=0
note_off channel=9 note=57 velocity=64 time=60
note_on channel=9 note=57 velocity=36 time=0
note_off channel=9 note=57 velocity=64 time=60
note_on channel=9 note=57 velocity=37 time=0
note_off channel=9 note=57 velocity=64 time=60
note_on channel=9 note=57 velocity=37 time=0
note_off channel=9 note=57 velocity=64 time=60
note_on channel=9 note=57 velocity=38 time=0
note_off channel=9 note=57 velocity=64 time=60
note_on channel=9 note=57 velocity=38 time=0
note_off channel=9 note=57 velocity=64 time=60
note_on channel=9 note=57 velocity=40 time=0
note_off channel=9 note=57 velocity=64 time=60
note_on channel=9 note=57 velocity=40 time=0
note_off channel=9 note=57 velocity=64 time=60
note_on channel=9 note=57 velocity=41 time=0
note_off channel=9 note=57 velocity=64 time=60
note_on channel=9 note=57 velocity=41 time=0
note_off channel=9 note=57 velocity=64 time=60
note_on channel=9 note=57 velocity=41 time=0
note_off channel=9 note=57 velocity=64 time=60
note_on channel=9 note=57 velocity=42 time=0
note_off channel=9 note=57 velocity=64 time=60
note_on channel=9 note=57 velocity=42 time=0
note_off channel=9 note=57 velocity=64 time=60
note_on channel=9 note=57 velocity=44 time=0
note_off channel=9 note=57 velocity=64 time=60
note_on channel=9 note=57 velocity=44 time=0
note_off channel=9 note=57 velocity=64 time=60
note_on channel=9 note=57 velocity=42 time=0
note_off channel=9 note=57 velocity=64 time=60
note_on channel=9 note=57 velocity=42 time=0
note_off channel=9 note=57 velocity=64 time=60
note_on channel=9 note=57 velocity=41 time=0
note_off channel=9 note=57 velocity=64 time=60
note_on channel=9 note=57 velocity=41 time=0
note_off channel=9 note=57 velocity=64 time=60
note_on channel=9 note=57 velocity=40 time=0
note_off channel=9 note=57 velocity=64 time=60
note_on channel=9 note=57 velocity=40 time=0
note_off channel=9 note=57 velocity=64 time=60
note_on channel=9 note=57 velocity=38 time=0
note_off channel=9 note=57 velocity=64 time=60
note_on channel=9 note=57 velocity=38 time=0
note_off channel=9 note=57 velocity=64 time=60
note_on channel=9 note=57 velocity=37 time=0
note_off channel=9 note=57 velocity=64 time=60
note_on channel=9 note=57 velocity=37 time=0
note_off channel=9 note=57 velocity=64 time=60
note_on channel=9 note=57 velocity=36 time=0
note_off channel=9 note=57 velocity=64 time=60
note_on channel=9 note=57 velocity=36 time=0
note_off channel=9 note=57 velocity=64 time=60
note_on channel=9 note=57 velocity=36 time=0
note_off channel=9 note=57 velocity=64 time=60
note_on channel=9 note=57 velocity=35 time=0
note_off channel=9 note=57 velocity=64 time=60
note_on channel=9 note=57 velocity=35 time=0
note_off channel=9 note=57 velocity=64 time=60
note_on channel=9 note=57 velocity=33 time=0
note_off channel=9 note=57 velocity=64 time=60
note_on channel=9 note=57 velocity=33 time=0
note_off channel=9 note=57 velocity=64 time=60
note_on channel=9 note=57 velocity=32 time=0
note_off channel=9 note=57 velocity=64 time=60
note_on channel=9 note=57 velocity=32 time=0
note_off channel=9 note=57 velocity=64 time=60
note_on channel=9 note=57 velocity=31 time=0
note_off channel=9 note=57 velocity=64 time=60
note_on channel=9 note=57 velocity=31 time=0
note_off channel=9 note=57 velocity=64 time=60
note_on channel=9 note=57 velocity=30 time=0
note_off channel=9 note=57 velocity=64 time=60
note_on channel=9 note=57 velocity=30 time=0
note_off channel=9 note=57 velocity=64 time=60
note_on channel=9 note=57 velocity=28 time=0
note_off channel=9 note=57 velocity=64 time=60
note_on channel=9 note=57 velocity=28 time=0
note_off channel=9 note=57 velocity=64 time=60
note_on channel=9 note=57 velocity=28 time=0
note_off channel=9 note=57 velocity=64 time=60
note_on channel=9 note=57 velocity=27 time=0
note_off channel=9 note=57 velocity=64 time=60
note_on channel=9 note=57 velocity=27 time=0
note_off channel=9 note=57 velocity=64 time=60
note_on channel=9 note=57 velocity=26 time=0
note_off channel=9 note=57 velocity=64 time=60
<meta message end_of_track time=0>
<meta message text text='Jazz Bass' time=0>
control_change channel=0 control=11 value=89 time=0
control_change channel=0 control=7 value=94 time=0
control_change channel=0 control=10 value=44 time=0
control_change channel=0 control=91 value=81 time=0
control_change channel=0 control=93 value=5 time=0
control_change channel=0 control=0 value=56 time=0
control_change channel=0 control=32 value=0 time=0
program_change channel=0 program=32 time=0
note_on channel=0 note=43 velocity=98 time=5760
note_on channel=0 note=31 velocity=91 time=356
note_off channel=0 note=43 velocity=64 time=8
note_off channel=0 note=31 velocity=64 time=116
note_on channel=0 note=43 velocity=100 time=0
note_off channel=0 note=43 velocity=64 time=476
note_on channel=0 note=43 velocity=72 time=4
note_off channel=0 note=43 velocity=64 time=360
note_on channel=0 note=31 velocity=69 time=0
note_off channel=0 note=31 velocity=64 time=32
note_on channel=0 note=43 velocity=72 time=88
note_off channel=0 note=43 velocity=64 time=360
note_on channel=0 note=31 velocity=69 time=0
note_off channel=0 note=31 velocity=64 time=32
note_on channel=0 note=36 velocity=82 time=88
note_off channel=0 note=36 velocity=64 time=268
note_on channel=0 note=36 velocity=94 time=88
note_off channel=0 note=36 velocity=64 time=116
note_on channel=0 note=35 velocity=75 time=8
note_off channel=0 note=35 velocity=64 time=480
note_on channel=0 note=36 velocity=87 time=0
note_on channel=0 note=24 velocity=64 time=356
note_off channel=0 note=36 velocity=64 time=76
note_off channel=0 note=24 velocity=64 time=52
note_on channel=0 note=42 velocity=87 time=0
note_off channel=0 note=42 velocity=64 time=476
control_change channel=0 control=11 value=96 time=0
note_on channel=0 note=41 velocity=98 time=0
note_on channel=0 note=29 velocity=91 time=356
note_off channel=0 note=41 velocity=64 time=8
note_off channel=0 note=29 velocity=64 time=116
note_on channel=0 note=41 velocity=100 time=0
control_change channel=0 control=11 value=98 time=288
note_off channel=0 note=41 velocity=64 time=188
note_on channel=0 note=41 velocity=72 time=4
note_off channel=0 note=41 velocity=64 time=360
note_on channel=0 note=29 velocity=69 time=0
note_off channel=0 note=29 velocity=64 time=32
note_on channel=0 note=41 velocity=72 time=88
control_change channel=0 control=11 value=99 time=96
note_off channel=0 note=41 velocity=64 time=264
note_on channel=0 note=29 velocity=69 time=0
note_off channel=0 note=29 velocity=64 time=32
note_on channel=0 note=38 velocity=86 time=88
note_on channel=0 note=33 velocity=62 time=356
control_change channel=0 control=11 value=100 time=28
note_off channel=0 note=33 velocity=64 time=52
note_off channel=0 note=38 velocity=64 time=24
note_on channel=0 note=45 velocity=79 time=20
note_off channel=0 note=45 velocity=64 time=356
note_on channel=0 note=33 velocity=64 time=0
note_off channel=0 note=33 velocity=64 time=68
note_on channel=0 note=38 velocity=91 time=56
control_change channel=0 control=11 value=101 time=192
note_on channel=0 note=42 velocity=88 time=288
note_off channel=0 note=38 velocity=64 time=60
note_off channel=0 note=42 velocity=64 time=376
control_change channel=0 control=11 value=103 time=44
note_on channel=0 note=43 velocity=93 time=0
note_off channel=0 note=43 velocity=64 time=480
note_on channel=0 note=43 velocity=100 time=0
control_change channel=0 control=11 value=104 time=288
note_off channel=0 note=43 velocity=64 time=192
note_on channel=0 note=43 velocity=70 time=0
note_off channel=0 note=43 velocity=64 time=480
note_on channel=0 note=43 velocity=72 time=0
control_change channel=0 control=11 value=105 time=96
note_off channel=0 note=43 velocity=64 time=264
note_on channel=0 note=31 velocity=69 time=0
note_off channel=0 note=31 velocity=64 time=32
note_on channel=0 note=36 velocity=87 time=88
note_off channel=0 note=36 velocity=64 time=256
note_on channel=0 note=36 velocity=80 time=100
control_change channel=0 control=11 value=106 time=28
note_on channel=0 note=43 velocity=75 time=96
note_off channel=0 note=36 velocity=64 time=16
note_off channel=0 note=43 velocity=64 time=464
note_on channel=0 note=36 velocity=79 time=0
control_change channel=0 control=11 value=108 time=192
note_off channel=0 note=36 velocity=64 time=228
note_on channel=0 note=40 velocity=82 time=60
note_off channel=0 note=40 velocity=64 time=272
note_on channel=0 note=41 velocity=85 time=48
note_off channel=0 note=41 velocity=64 time=124
control_change channel=0 control=11 value=109 time=36
control_change channel=0 control=11 value=108 time=240
note_on channel=0 note=41 velocity=98 time=108
note_off channel=0 note=41 velocity=73 time=91
note_on channel=0 note=45 velocity=83 time=36
control_change channel=0 control=11 value=106 time=5
control_change channel=0 control=11 value=105 time=240
control_change channel=0 control=11 value=104 time=240
note_off channel=0 note=45 velocity=55 time=2
note_on channel=0 note=46 velocity=58 time=3
control_change channel=0 control=11 value=103 time=235
note_off channel=0 note=46 velocity=37 time=211
control_change channel=0 control=11 value=101 time=29
note_on channel=0 note=47 velocity=58 time=9
control_change channel=0 control=11 value=100 time=231
control_change channel=0 control=11 value=99 time=240
note_off channel=0 note=47 velocity=57 time=5
note_on channel=0 note=48 velocity=75 time=14
control_change channel=0 control=11 value=98 time=221
control_change channel=0 control=11 value=96 time=240
note_off channel=0 note=48 velocity=52 time=36
note_on channel=0 note=51 velocity=62 time=7
control_change channel=0 control=11 value=95 time=197
note_off channel=0 note=51 velocity=49 time=218
control_change channel=0 control=11 value=94 time=22
note_on channel=0 note=50 velocity=77 time=2
control_change channel=0 control=11 value=93 time=238
note_off channel=0 note=50 velocity=56 time=115
note_on channel=0 note=38 velocity=58 time=10
control_change channel=0 control=11 value=91 time=115
note_on channel=0 note=44 velocity=83 time=29
note_off channel=0 note=38 velocity=43 time=12
control_change channel=0 control=11 value=90 time=199
note_off channel=0 note=44 velocity=46 time=209
control_change channel=0 control=11 value=89 time=31
note_on channel=0 note=43 velocity=81 time=0
note_off channel=0 note=43 velocity=64 time=360
note_on channel=0 note=31 velocity=69 time=0
note_off channel=0 note=31 velocity=64 time=32
note_on channel=0 note=43 velocity=70 time=88
note_off channel=0 note=43 velocity=64 time=480
note_on channel=0 note=43 velocity=82 time=0
note_off channel=0 note=43 velocity=64 time=268
note_on channel=0 note=43 velocity=94 time=88
note_off channel=0 note=43 velocity=64 time=116
note_on channel=0 note=35 velocity=75 time=8
note_off channel=0 note=35 velocity=64 time=480
note_on channel=0 note=36 velocity=86 time=0
note_on channel=0 note=31 velocity=62 time=356
note_off channel=0 note=31 velocity=64 time=80
note_off channel=0 note=36 velocity=64 time=24
note_on channel=0 note=43 velocity=79 time=20
note_off channel=0 note=43 velocity=64 time=356
note_on channel=0 note=31 velocity=64 time=0
note_off channel=0 note=31 velocity=64 time=68
note_on channel=0 note=36 velocity=82 time=56
note_off channel=0 note=36 velocity=64 time=268
note_on channel=0 note=36 velocity=94 time=88
note_off channel=0 note=36 velocity=64 time=116
note_on channel=0 note=40 velocity=75 time=8
note_off channel=0 note=40 velocity=64 time=480
note_on channel=0 note=41 velocity=70 time=0
note_off channel=0 note=41 velocity=64 time=480
note_on channel=0 note=41 velocity=72 time=0
note_off channel=0 note=41 velocity=64 time=360
note_on channel=0 note=29 velocity=69 time=0
note_off channel=0 note=29 velocity=64 time=32
note_on channel=0 note=41 velocity=86 time=88
note_on channel=0 note=36 velocity=62 time=356
note_off channel=0 note=36 velocity=64 time=80
note_off channel=0 note=41 velocity=64 time=24
note_on channel=0 note=48 velocity=79 time=20
note_off channel=0 note=48 velocity=64 time=356
note_on channel=0 note=36 velocity=64 time=0
note_off channel=0 note=36 velocity=64 time=68
note_on channel=0 note=50 velocity=78 time=56
note_on channel=0 note=45 velocity=77 time=480
note_off channel=0 note=50 velocity=64 time=60
note_off channel=0 note=45 velocity=64 time=420
note_on channel=0 note=38 velocity=87 time=0
note_off channel=0 note=38 velocity=64 time=256
note_on channel=0 note=38 velocity=80 time=100
note_on channel=0 note=45 velocity=73 time=124
note_off channel=0 note=38 velocity=64 time=16
note_off channel=0 note=45 velocity=64 time=464
note_on channel=0 note=43 velocity=70 time=0
note_off channel=0 note=43 velocity=64 time=480
note_on channel=0 note=43 velocity=72 time=0
note_off channel=0 note=43 velocity=64 time=360
note_on channel=0 note=31 velocity=69 time=0
note_off channel=0 note=31 velocity=64 time=32
note_on channel=0 note=43 velocity=93 time=88
note_off channel=0 note=43 velocity=64 time=480
note_on channel=0 note=43 velocity=100 time=0
note_off channel=0 note=43 velocity=64 time=480
note_on channel=0 note=36 velocity=98 time=0
note_on channel=0 note=24 velocity=91 time=356
note_off channel=0 note=36 velocity=64 time=8
note_off channel=0 note=24 velocity=64 time=116
note_on channel=0 note=36 velocity=100 time=0
note_off channel=0 note=36 velocity=64 time=476
note_on channel=0 note=36 velocity=93 time=4
note_off channel=0 note=36 velocity=64 time=480
note_on channel=0 note=36 velocity=100 time=0
note_off channel=0 note=36 velocity=64 time=480
note_on channel=0 note=36 velocity=102 time=0
note_off channel=0 note=36 velocity=64 time=276
note_on channel=0 note=24 velocity=110 time=80
note_off channel=0 note=24 velocity=64 time=92
note_on channel=0 note=38 velocity=102 time=32
note_off channel=0 note=38 velocity=64 time=436
note_on channel=0 note=39 velocity=82 time=44
note_off channel=0 note=39 velocity=64 time=448
note_on channel=0 note=43 velocity=95 time=32
note_off channel=0 note=43 velocity=64 time=332
note_on channel=0 note=36 velocity=100 time=24
note_off channel=0 note=36 velocity=64 time=124
note_on channel=0 note=41 velocity=78 time=0
note_on channel=0 note=43 velocity=80 time=480
note_off channel=0 note=41 velocity=64 time=80
note_on channel=0 note=45 velocity=75 time=400
note_off channel=0 note=43 velocity=64 time=44
note_on channel=0 note=48 velocity=76 time=436
note_off channel=0 note=45 velocity=64 time=80
note_off channel=0 note=48 velocity=64 time=400
note_on channel=0 note=34 velocity=70 time=0
note_off channel=0 note=34 velocity=64 time=480
note_on channel=0 note=33 velocity=72 time=0
note_off channel=0 note=33 velocity=64 time=360
note_on channel=0 note=21 velocity=69 time=0
note_off channel=0 note=21 velocity=64 time=32
note_on channel=0 note=34 velocity=82 time=88
note_off channel=0 note=34 velocity=64 time=268
note_on channel=0 note=34 velocity=94 time=88
note_off channel=0 note=34 velocity=64 time=116
note_on channel=0 note=34 velocity=75 time=8
note_off channel=0 note=34 velocity=64 time=480
note_on channel=0 note=35 velocity=98 time=0
note_on channel=0 note=23 velocity=91 time=356
note_off channel=0 note=35 velocity=64 time=8
note_off channel=0 note=23 velocity=64 time=116
note_on channel=0 note=35 velocity=100 time=0
note_off channel=0 note=35 velocity=64 time=476
note_on channel=0 note=40 velocity=82 time=4
note_off channel=0 note=40 velocity=64 time=268
note_on channel=0 note=40 velocity=94 time=88
note_off channel=0 note=40 velocity=64 time=116
note_on channel=0 note=32 velocity=75 time=8
note_off channel=0 note=32 velocity=64 time=480
note_on channel=0 note=33 velocity=87 time=0
note_off channel=0 note=33 velocity=64 time=256
note_on channel=0 note=33 velocity=80 time=100
note_on channel=0 note=40 velocity=73 time=124
note_off channel=0 note=33 velocity=64 time=16
note_off channel=0 note=40 velocity=64 time=464
note_on channel=0 note=44 velocity=72 time=0
note_off channel=0 note=44 velocity=64 time=360
note_on channel=0 note=32 velocity=69 time=0
note_off channel=0 note=32 velocity=64 time=32
note_on channel=0 note=33 velocity=70 time=88
note_off channel=0 note=33 velocity=64 time=480
note_on channel=0 note=38 velocity=85 time=0
note_on channel=0 note=33 velocity=64 time=356
note_off channel=0 note=38 velocity=64 time=12
note_off channel=0 note=33 velocity=64 time=64
note_on channel=0 note=40 velocity=83 time=48
note_off channel=0 note=40 velocity=64 time=476
note_on channel=0 note=42 velocity=90 time=4
note_off channel=0 note=42 velocity=64 time=312
note_on channel=0 note=33 velocity=68 time=44
note_off channel=0 note=33 velocity=64 time=72
note_on channel=0 note=45 velocity=92 time=52
note_on channel=0 note=33 velocity=61 time=356
note_off channel=0 note=33 velocity=64 time=40
note_off channel=0 note=45 velocity=64 time=44
note_on channel=0 note=43 velocity=82 time=40
note_off channel=0 note=43 velocity=64 time=268
note_on channel=0 note=43 velocity=94 time=88
note_off channel=0 note=43 velocity=64 time=116
note_on channel=0 note=42 velocity=75 time=8
note_off channel=0 note=42 velocity=64 time=480
note_on channel=0 note=42 velocity=82 time=0
note_off channel=0 note=42 velocity=64 time=268
note_on channel=0 note=42 velocity=94 time=88
note_off channel=0 note=42 velocity=64 time=116
note_on channel=0 note=42 velocity=75 time=8
note_off channel=0 note=42 velocity=64 time=480
note_on channel=0 note=36 velocity=98 time=0
note_on channel=0 note=24 velocity=91 time=356
note_off channel=0 note=36 velocity=64 time=8
note_off channel=0 note=24 velocity=64 time=116
note_on channel=0 note=36 velocity=100 time=0
note_off channel=0 note=36 velocity=64 time=476
note_on channel=0 note=34 velocity=86 time=4
note_on channel=0 note=31 velocity=62 time=356
note_off channel=0 note=31 velocity=64 time=80
note_off channel=0 note=34 velocity=64 time=24
note_on channel=0 note=43 velocity=79 time=20
note_off channel=0 note=43 velocity=64 time=356
note_on channel=0 note=31 velocity=64 time=0
note_off channel=0 note=31 velocity=64 time=68
note_on channel=0 note=33 velocity=86 time=56
note_off channel=0 note=33 velocity=64 time=456
note_on channel=0 note=32 velocity=80 time=24
note_off channel=0 note=32 velocity=64 time=480
note_on channel=0 note=33 velocity=87 time=0
note_on channel=0 note=21 velocity=64 time=356
note_off channel=0 note=33 velocity=64 time=76
note_off channel=0 note=21 velocity=64 time=52
note_on channel=0 note=39 velocity=87 time=0
note_off channel=0 note=39 velocity=64 time=476
note_on channel=0 note=50 velocity=78 time=0
note_on channel=0 note=45 velocity=77 time=480
note_off channel=0 note=50 velocity=64 time=60
note_off channel=0 note=45 velocity=64 time=420
note_on channel=0 note=38 velocity=72 time=0
note_off channel=0 note=38 velocity=64 time=360
note_on channel=0 note=26 velocity=69 time=0
note_off channel=0 note=26 velocity=64 time=32
note_on channel=0 note=38 velocity=72 time=88
note_off channel=0 note=38 velocity=64 time=360
note_on channel=0 note=26 velocity=69 time=0
note_off channel=0 note=26 velocity=64 time=32
note_on channel=0 note=43 velocity=87 time=88
note_on channel=0 note=31 velocity=64 time=356
note_off channel=0 note=43 velocity=64 time=76
note_off channel=0 note=31 velocity=64 time=52
note_on channel=0 note=44 velocity=87 time=0
note_off channel=0 note=44 velocity=64 time=476
note_on channel=0 note=43 velocity=98 time=0
note_on channel=0 note=31 velocity=91 time=356
note_off channel=0 note=43 velocity=64 time=8
note_off channel=0 note=31 velocity=64 time=116
note_on channel=0 note=43 velocity=100 time=0
note_off channel=0 note=43 velocity=64 time=476
note_on channel=0 note=36 velocity=86 time=4
note_on channel=0 note=31 velocity=62 time=356
note_off channel=0 note=31 velocity=64 time=80
note_off channel=0 note=36 velocity=64 time=24
note_on channel=0 note=43 velocity=79 time=20
note_off channel=0 note=43 velocity=64 time=356
note_on channel=0 note=31 velocity=64 time=0
note_off channel=0 note=31 velocity=64 time=68
note_on channel=0 note=36 velocity=93 time=56
note_off channel=0 note=36 velocity=64 time=480
note_on channel=0 note=36 velocity=100 time=0
note_off channel=0 note=36 velocity=64 time=480
note_on channel=0 note=41 velocity=85 time=0
note_on channel=0 note=36 velocity=64 time=356
note_off channel=0 note=41 velocity=64 time=12
note_off channel=0 note=36 velocity=64 time=64
note_on channel=0 note=43 velocity=83 time=48
note_off channel=0 note=43 velocity=64 time=476
note_on channel=0 note=45 velocity=90 time=4
note_off channel=0 note=45 velocity=64 time=312
note_on channel=0 note=36 velocity=68 time=44
note_off channel=0 note=36 velocity=64 time=72
note_on channel=0 note=48 velocity=92 time=52
note_on channel=0 note=36 velocity=61 time=356
note_off channel=0 note=36 velocity=64 time=40
note_off channel=0 note=48 velocity=64 time=44
note_on channel=0 note=38 velocity=93 time=40
note_off channel=0 note=38 velocity=64 time=480
note_on channel=0 note=38 velocity=100 time=0
note_off channel=0 note=38 velocity=64 time=480
note_on channel=0 note=38 velocity=81 time=0
note_on channel=0 note=45 velocity=80 time=480
note_off channel=0 note=38 velocity=64 time=88
note_off channel=0 note=45 velocity=64 time=392
note_on channel=0 note=43 velocity=82 time=0
note_off channel=0 note=43 velocity=64 time=268
note_on channel=0 note=43 velocity=94 time=88
note_off channel=0 note=43 velocity=64 time=116
note_on channel=0 note=42 velocity=75 time=8
note_off channel=0 note=42 velocity=64 time=480
note_on channel=0 note=43 velocity=93 time=0
note_off channel=0 note=43 velocity=64 time=480
note_on channel=0 note=43 velocity=100 time=0
note_off channel=0 note=43 velocity=64 time=480
note_on channel=0 note=36 velocity=87 time=0
note_off channel=0 note=36 velocity=64 time=256
note_on channel=0 note=36 velocity=80 time=100
note_on channel=0 note=43 velocity=73 time=124
note_off channel=0 note=36 velocity=64 time=16
note_off channel=0 note=43 velocity=64 time=464
note_on channel=0 note=36 velocity=82 time=0
note_off channel=0 note=36 velocity=64 time=268
note_on channel=0 note=36 velocity=94 time=88
note_off channel=0 note=36 velocity=64 time=116
note_on channel=0 note=35 velocity=75 time=8
note_off channel=0 note=35 velocity=64 time=480
note_on channel=0 note=36 velocity=102 time=0
note_off channel=0 note=36 velocity=64 time=316
note_on channel=0 note=24 velocity=110 time=40
note_off channel=0 note=24 velocity=64 time=92
note_on channel=0 note=38 velocity=102 time=32
note_off channel=0 note=38 velocity=64 time=476
note_on channel=0 note=39 velocity=82 time=4
note_off channel=0 note=39 velocity=64 time=480
note_on channel=0 note=43 velocity=95 time=0
note_off channel=0 note=43 velocity=64 time=336
note_on channel=0 note=36 velocity=100 time=20
note_off channel=0 note=36 velocity=64 time=124
note_on channel=0 note=41 velocity=85 time=0
note_off channel=0 note=41 velocity=64 time=480
note_on channel=0 note=48 velocity=84 time=0
note_off channel=0 note=48 velocity=64 time=484
note_on channel=0 note=45 velocity=79 time=0
note_off channel=0 note=45 velocity=64 time=484
note_on channel=0 note=41 velocity=97 time=0
note_off channel=0 note=41 velocity=64 time=472
note_on channel=0 note=34 velocity=72 time=0
note_off channel=0 note=34 velocity=64 time=360
note_on channel=0 note=22 velocity=69 time=0
note_off channel=0 note=22 velocity=64 time=32
note_on channel=0 note=33 velocity=70 time=88
note_off channel=0 note=33 velocity=64 time=480
note_on channel=0 note=34 velocity=98 time=0
note_on channel=0 note=22 velocity=91 time=356
note_off channel=0 note=34 velocity=64 time=8
note_off channel=0 note=22 velocity=64 time=116
note_on channel=0 note=34 velocity=100 time=0
note_off channel=0 note=34 velocity=64 time=476
note_on channel=0 note=34 velocity=72 time=4
note_off channel=0 note=34 velocity=64 time=360
note_on channel=0 note=22 velocity=69 time=0
note_off channel=0 note=22 velocity=64 time=32
note_on channel=0 note=34 velocity=70 time=88
note_off channel=0 note=34 velocity=64 time=480
note_on channel=0 note=39 velocity=87 time=0
note_off channel=0 note=39 velocity=64 time=256
note_on channel=0 note=39 velocity=80 time=100
note_on channel=0 note=46 velocity=73 time=124
note_off channel=0 note=39 velocity=64 time=16
note_off channel=0 note=46 velocity=64 time=464
note_on channel=0 note=41 velocity=72 time=0
note_off channel=0 note=41 velocity=64 time=360
note_on channel=0 note=29 velocity=69 time=0
note_off channel=0 note=29 velocity=64 time=32
note_on channel=0 note=40 velocity=70 time=88
note_off channel=0 note=40 velocity=64 time=480
note_on channel=0 note=39 velocity=72 time=0
note_off channel=0 note=39 velocity=64 time=360
note_on channel=0 note=27 velocity=69 time=0
note_off channel=0 note=27 velocity=64 time=32
note_on channel=0 note=38 velocity=72 time=88
note_off channel=0 note=38 velocity=64 time=360
note_on channel=0 note=26 velocity=69 time=0
note_off channel=0 note=26 velocity=64 time=32
note_on channel=0 note=33 velocity=87 time=88
note_off channel=0 note=33 velocity=64 time=256
note_on channel=0 note=33 velocity=80 time=100
note_on channel=0 note=40 velocity=73 time=124
note_off channel=0 note=33 velocity=64 time=16
note_off channel=0 note=40 velocity=64 time=464
note_on channel=0 note=38 velocity=82 time=0
note_off channel=0 note=38 velocity=64 time=268
note_on channel=0 note=38 velocity=94 time=88
note_off channel=0 note=38 velocity=64 time=116
note_on channel=0 note=42 velocity=75 time=8
note_off channel=0 note=42 velocity=64 time=480
note_on channel=0 note=43 velocity=70 time=0
note_off channel=0 note=43 velocity=64 time=480
note_on channel=0 note=43 velocity=72 time=0
note_off channel=0 note=43 velocity=64 time=360
note_on channel=0 note=31 velocity=69 time=0
note_off channel=0 note=31 velocity=64 time=32
note_on channel=0 note=43 velocity=87 time=88
note_off channel=0 note=43 velocity=64 time=256
note_on channel=0 note=43 velocity=80 time=100
note_on channel=0 note=50 velocity=73 time=124
note_off channel=0 note=43 velocity=64 time=16
note_off channel=0 note=50 velocity=64 time=464
note_on channel=0 note=36 velocity=86 time=0
note_on channel=0 note=31 velocity=62 time=356
note_off channel=0 note=31 velocity=64 time=80
note_off channel=0 note=36 velocity=64 time=24
note_on channel=0 note=43 velocity=79 time=20
note_off channel=0 note=43 velocity=64 time=356
note_on channel=0 note=31 velocity=64 time=0
note_off channel=0 note=31 velocity=64 time=68
note_on channel=0 note=36 velocity=72 time=56
note_off channel=0 note=36 velocity=64 time=300
note_on channel=0 note=41 velocity=85 time=40
note_off channel=0 note=41 velocity=64 time=612
control_change channel=0 control=11 value=89 time=3824
note_on channel=0 note=43 velocity=81 time=24
control_change channel=0 control=11 value=90 time=312
note_on channel=0 note=50 velocity=80 time=168
note_off channel=0 note=43 velocity=64 time=88
control_change channel=0 control=11 value=91 time=56
note_off channel=0 note=50 velocity=64 time=336
control_change channel=0 control=11 value=93 time=0
note_on channel=0 note=43 velocity=70 time=0
control_change channel=0 control=11 value=94 time=312
note_off channel=0 note=43 velocity=64 time=168
note_on channel=0 note=37 velocity=70 time=0
control_change channel=0 control=11 value=95 time=168
note_off channel=0 note=37 velocity=64 time=312
control_change channel=0 control=11 value=96 time=0
note_on channel=0 note=36 velocity=93 time=0
note_off channel=0 note=36 velocity=64 time=480
note_on channel=0 note=36 velocity=100 time=0
note_off channel=0 note=36 velocity=64 time=480
note_on channel=0 note=36 velocity=72 time=0
note_off channel=0 note=36 velocity=64 time=360
note_on channel=0 note=24 velocity=69 time=0
note_off channel=0 note=24 velocity=64 time=32
note_on channel=0 note=42 velocity=72 time=88
note_off channel=0 note=42 velocity=64 time=360
note_on channel=0 note=30 velocity=69 time=0
note_off channel=0 note=30 velocity=64 time=32
note_on channel=0 note=41 velocity=87 time=88
note_off channel=0 note=41 velocity=64 time=256
note_on channel=0 note=41 velocity=80 time=100
note_on channel=0 note=48 velocity=73 time=124
note_off channel=0 note=41 velocity=64 time=16
note_off channel=0 note=48 velocity=64 time=464
note_on channel=0 note=33 velocity=70 time=0
note_off channel=0 note=33 velocity=64 time=480
note_on channel=0 note=39 velocity=70 time=0
note_off channel=0 note=39 velocity=64 time=480
note_on channel=0 note=38 velocity=87 time=0
note_on channel=0 note=50 velocity=70 time=480
note_off channel=0 note=38 velocity=64 time=36
note_on channel=0 note=45 velocity=82 time=444
note_off channel=0 note=50 velocity=64 time=56
note_on channel=0 note=42 velocity=88 time=424
note_off channel=0 note=45 velocity=64 time=12
note_off channel=0 note=42 velocity=64 time=468
note_on channel=0 note=43 velocity=93 time=0
note_off channel=0 note=43 velocity=64 time=480
note_on channel=0 note=43 velocity=100 time=0
note_off channel=0 note=43 velocity=64 time=480
note_on channel=0 note=43 velocity=70 time=0
note_off channel=0 note=43 velocity=64 time=480
note_on channel=0 note=43 velocity=72 time=0
note_off channel=0 note=43 velocity=64 time=360
note_on channel=0 note=31 velocity=69 time=0
note_off channel=0 note=31 velocity=64 time=32
note_on channel=0 note=36 velocity=86 time=88
note_on channel=0 note=31 velocity=62 time=356
note_off channel=0 note=31 velocity=64 time=80
note_off channel=0 note=36 velocity=64 time=24
note_on channel=0 note=43 velocity=79 time=20
note_off channel=0 note=43 velocity=64 time=356
note_on channel=0 note=31 velocity=64 time=0
note_off channel=0 note=31 velocity=64 time=68
note_on channel=0 note=36 velocity=72 time=56
note_off channel=0 note=36 velocity=64 time=360
note_on channel=0 note=24 velocity=69 time=0
note_off channel=0 note=24 velocity=64 time=32
note_on channel=0 note=36 velocity=72 time=88
note_off channel=0 note=36 velocity=64 time=360
note_on channel=0 note=24 velocity=69 time=0
note_off channel=0 note=24 velocity=64 time=32
note_on channel=0 note=36 velocity=85 time=88
note_off channel=0 note=36 velocity=64 time=480
note_on channel=0 note=43 velocity=84 time=0
note_off channel=0 note=43 velocity=64 time=484
note_on channel=0 note=39 velocity=79 time=0
note_off channel=0 note=39 velocity=64 time=484
note_on channel=0 note=36 velocity=97 time=0
note_off channel=0 note=36 velocity=64 time=472
control_change channel=0 control=11 value=96 time=0
note_on channel=0 note=41 velocity=98 time=0
control_change channel=0 control=11 value=95 time=192
note_on channel=0 note=29 velocity=91 time=164
note_off channel=0 note=41 velocity=64 time=8
control_change channel=0 control=11 value=94 time=20
note_off channel=0 note=29 velocity=64 time=96
note_on channel=0 note=41 velocity=100 time=0
control_change channel=0 control=11 value=93 time=96
control_change channel=0 control=11 value=91 time=192
note_off channel=0 note=41 velocity=64 time=188
control_change channel=0 control=11 value=90 time=4
note_on channel=0 note=41 velocity=87 time=0
control_change channel=0 control=11 value=89 time=192
note_on channel=0 note=29 velocity=64 time=164
control_change channel=0 control=11 value=88 time=28
note_off channel=0 note=41 velocity=64 time=48
note_off channel=0 note=29 velocity=64 time=52
note_on channel=0 note=35 velocity=87 time=0
control_change channel=0 control=11 value=86 time=92
control_change channel=0 control=11 value=85 time=192
note_off channel=0 note=35 velocity=64 time=192
control_change channel=0 control=11 value=84 time=0
note_on channel=0 note=34 velocity=94 time=0
note_on channel=0 note=29 velocity=45 time=332
note_off channel=0 note=34 velocity=64 time=40
note_off channel=0 note=29 velocity=64 time=84
note_on channel=0 note=41 velocity=77 time=24
note_off channel=0 note=41 velocity=64 time=420
note_on channel=0 note=38 velocity=85 time=60
note_off channel=0 note=38 velocity=64 time=480
note_on channel=0 note=34 velocity=87 time=0
note_on channel=0 note=29 velocity=65 time=360
note_off channel=0 note=34 velocity=64 time=4
note_off channel=0 note=29 velocity=64 time=68
note_on channel=0 note=34 velocity=87 time=48
note_off channel=0 note=34 velocity=64 time=256
note_on channel=0 note=34 velocity=80 time=100
note_on channel=0 note=41 velocity=73 time=124
note_off channel=0 note=34 velocity=64 time=16
note_off channel=0 note=41 velocity=64 time=464
note_on channel=0 note=39 velocity=86 time=0
note_on channel=0 note=34 velocity=62 time=356
note_off channel=0 note=34 velocity=64 time=80
note_off channel=0 note=39 velocity=64 time=24
note_on channel=0 note=46 velocity=79 time=20
note_off channel=0 note=46 velocity=64 time=356
note_on channel=0 note=34 velocity=64 time=0
note_off channel=0 note=34 velocity=64 time=68
note_on channel=0 note=41 velocity=94 time=56
note_on channel=0 note=36 velocity=45 time=332
note_off channel=0 note=41 velocity=64 time=40
note_off channel=0 note=36 velocity=64 time=84
note_on channel=0 note=48 velocity=77 time=24
note_off channel=0 note=48 velocity=64 time=420
note_on channel=0 note=45 velocity=85 time=60
note_off channel=0 note=45 velocity=64 time=480
note_on channel=0 note=41 velocity=87 time=0
note_on channel=0 note=36 velocity=65 time=360
note_off channel=0 note=41 velocity=64 time=4
note_off channel=0 note=36 velocity=64 time=68
note_on channel=0 note=38 velocity=88 time=48
note_on channel=0 note=40 velocity=85 time=480
note_off channel=0 note=38 velocity=64 time=80
note_on channel=0 note=41 velocity=92 time=400
note_off channel=0 note=40 velocity=64 time=36
note_on channel=0 note=42 velocity=85 time=444
note_off channel=0 note=41 velocity=64 time=24
note_off channel=0 note=42 velocity=64 time=448
note_on channel=0 note=43 velocity=92 time=8
note_off channel=0 note=43 velocity=64 time=328
note_on channel=0 note=35 velocity=59 time=28
note_off channel=0 note=35 velocity=64 time=108
note_on channel=0 note=41 velocity=86 time=16
note_off channel=0 note=41 velocity=64 time=392
note_on channel=0 note=40 velocity=77 time=88
note_off channel=0 note=40 velocity=64 time=516
note_on channel=0 note=38 velocity=86 time=0
note_off channel=0 note=38 velocity=64 time=444
note_on channel=0 note=36 velocity=78 time=0
note_on channel=0 note=38 velocity=80 time=480
note_off channel=0 note=36 velocity=64 time=80
note_on channel=0 note=40 velocity=75 time=400
note_off channel=0 note=38 velocity=64 time=44
note_on channel=0 note=43 velocity=76 time=436
note_off channel=0 note=40 velocity=64 time=80
note_off channel=0 note=43 velocity=64 time=400
control_change channel=0 control=11 value=84 time=0
note_on channel=0 note=41 velocity=78 time=0
control_change channel=0 control=11 value=85 time=192
control_change channel=0 control=11 value=86 time=192
note_on channel=0 note=43 velocity=80 time=96
note_off channel=0 note=41 velocity=64 time=80
control_change channel=0 control=11 value=88 time=16
control_change channel=0 control=11 value=89 time=192
control_change channel=0 control=11 value=90 time=192
note_on channel=0 note=45 velocity=75 time=0
note_off channel=0 note=43 velocity=64 time=44
control_change channel=0 control=11 value=91 time=148
control_change channel=0 control=11 value=93 time=192
note_on channel=0 note=48 velocity=76 time=96
note_off channel=0 note=45 velocity=64 time=80
control_change channel=0 control=11 value=94 time=16
control_change channel=0 control=11 value=95 time=192
note_off channel=0 note=48 velocity=64 time=192
control_change channel=0 control=11 value=96 time=0
note_on channel=0 note=39 velocity=72 time=0
control_change channel=0 control=11 value=98 time=192
note_off channel=0 note=39 velocity=64 time=168
note_on channel=0 note=27 velocity=69 time=0
control_change channel=0 control=11 value=99 time=24
note_off channel=0 note=27 velocity=64 time=8
note_on channel=0 note=38 velocity=72 time=88
control_change channel=0 control=11 value=100 time=96
control_change channel=0 control=11 value=101 time=192
note_off channel=0 note=38 velocity=64 time=72
note_on channel=0 note=26 velocity=69 time=0
note_off channel=0 note=26 velocity=64 time=32
control_change channel=0 control=11 value=103 time=88
note_on channel=0 note=38 velocity=82 time=0
control_change channel=0 control=11 value=104 time=192
note_off channel=0 note=38 velocity=64 time=76
note_on channel=0 note=38 velocity=94 time=88
control_change channel=0 control=11 value=105 time=28
note_off channel=0 note=38 velocity=64 time=88
note_on channel=0 note=42 velocity=75 time=8
control_change channel=0 control=11 value=106 time=96
control_change channel=0 control=11 value=108 time=192
note_off channel=0 note=42 velocity=64 time=192
control_change channel=0 control=11 value=109 time=0
note_on channel=0 note=43 velocity=86 time=0
note_on channel=0 note=38 velocity=62 time=356
note_off channel=0 note=38 velocity=64 time=80
note_off channel=0 note=43 velocity=64 time=24
note_on channel=0 note=50 velocity=79 time=20
note_off channel=0 note=50 velocity=64 time=356
note_on channel=0 note=38 velocity=64 time=0
note_off channel=0 note=38 velocity=64 time=68
note_on channel=0 note=43 velocity=70 time=56
note_off channel=0 note=43 velocity=64 time=480
note_on channel=0 note=43 velocity=72 time=0
note_off channel=0 note=43 velocity=64 time=360
note_on channel=0 note=31 velocity=69 time=0
note_off channel=0 note=31 velocity=64 time=32
note_on channel=0 note=36 velocity=93 time=88
note_off channel=0 note=36 velocity=64 time=480
note_on channel=0 note=36 velocity=100 time=0
note_off channel=0 note=36 velocity=64 time=480
note_on channel=0 note=36 velocity=70 time=0
note_off channel=0 note=36 velocity=64 time=480
note_on channel=0 note=36 velocity=72 time=0
note_off channel=0 note=36 velocity=64 time=360
note_on channel=0 note=24 velocity=69 time=0
note_off channel=0 note=24 velocity=64 time=32
note_on channel=0 note=41 velocity=98 time=88
note_on channel=0 note=29 velocity=91 time=356
note_off channel=0 note=41 velocity=64 time=8
note_off channel=0 note=29 velocity=64 time=116
note_on channel=0 note=41 velocity=100 time=0
note_off channel=0 note=41 velocity=64 time=476
note_on channel=0 note=41 velocity=70 time=4
note_off channel=0 note=41 velocity=64 time=480
note_on channel=0 note=41 velocity=72 time=0
note_off channel=0 note=41 velocity=64 time=360
note_on channel=0 note=29 velocity=69 time=0
note_off channel=0 note=29 velocity=64 time=32
note_on channel=0 note=38 velocity=98 time=88
note_on channel=0 note=26 velocity=91 time=356
note_off channel=0 note=38 velocity=64 time=8
note_off channel=0 note=26 velocity=64 time=116
note_on channel=0 note=38 velocity=100 time=0
note_off channel=0 note=38 velocity=64 time=476
note_on channel=0 note=38 velocity=72 time=4
note_off channel=0 note=38 velocity=64 time=360
note_on channel=0 note=26 velocity=69 time=0
note_off channel=0 note=26 velocity=64 time=32
note_on channel=0 note=38 velocity=72 time=88
note_off channel=0 note=38 velocity=64 time=360
note_on channel=0 note=26 velocity=69 time=0
note_off channel=0 note=26 velocity=64 time=32
note_on channel=0 note=43 velocity=87 time=88
note_off channel=0 note=43 velocity=64 time=256
note_on channel=0 note=43 velocity=80 time=100
note_on channel=0 note=50 velocity=73 time=124
note_off channel=0 note=43 velocity=64 time=16
note_off channel=0 note=50 velocity=64 time=464
note_on channel=0 note=43 velocity=72 time=0
note_off channel=0 note=43 velocity=64 time=360
note_on channel=0 note=31 velocity=69 time=0
note_off channel=0 note=31 velocity=64 time=32
note_on channel=0 note=43 velocity=70 time=88
note_off channel=0 note=43 velocity=64 time=480
note_on channel=0 note=43 velocity=98 time=0
note_on channel=0 note=31 velocity=91 time=356
note_off channel=0 note=43 velocity=64 time=8
note_off channel=0 note=31 velocity=64 time=116
note_on channel=0 note=43 velocity=100 time=0
note_off channel=0 note=43 velocity=64 time=476
note_on channel=0 note=36 velocity=82 time=4
note_off channel=0 note=36 velocity=64 time=268
note_on channel=0 note=36 velocity=94 time=88
note_off channel=0 note=36 velocity=64 time=116
note_on channel=0 note=35 velocity=75 time=8
note_off channel=0 note=35 velocity=64 time=480
note_on channel=0 note=36 velocity=102 time=0
note_off channel=0 note=36 velocity=64 time=276
note_on channel=0 note=24 velocity=110 time=80
note_off channel=0 note=24 velocity=64 time=92
note_on channel=0 note=38 velocity=102 time=32
note_off channel=0 note=38 velocity=64 time=436
note_on channel=0 note=39 velocity=82 time=44
note_off channel=0 note=39 velocity=64 time=448
note_on channel=0 note=43 velocity=95 time=32
note_off channel=0 note=43 velocity=64 time=332
note_on channel=0 note=36 velocity=100 time=24
note_off channel=0 note=36 velocity=64 time=124
note_on channel=0 note=41 velocity=93 time=0
note_off channel=0 note=41 velocity=64 time=268
note_on channel=0 note=29 velocity=40 time=88
note_off channel=0 note=29 velocity=64 time=104
note_on channel=0 note=39 velocity=85 time=20
note_off channel=0 note=39 velocity=64 time=472
note_on channel=0 note=38 velocity=91 time=8
note_on channel=0 note=36 velocity=87 time=480
note_off channel=0 note=38 velocity=64 time=32
note_on channel=0 note=35 velocity=82 time=324
note_off channel=0 note=36 velocity=64 time=72
note_off channel=0 note=35 velocity=64 time=52
note_on channel=0 note=34 velocity=93 time=0
note_off channel=0 note=34 velocity=64 time=480
note_on channel=0 note=34 velocity=100 time=0
note_off channel=0 note=34 velocity=64 time=480
note_on channel=0 note=34 velocity=98 time=0
note_on channel=0 note=22 velocity=91 time=356
note_off channel=0 note=34 velocity=64 time=8
note_off channel=0 note=22 velocity=64 time=116
note_on channel=0 note=34 velocity=100 time=0
note_off channel=0 note=34 velocity=64 time=476
note_on channel=0 note=47 velocity=78 time=4
note_on channel=0 note=42 velocity=77 time=480
note_off channel=0 note=47 velocity=64 time=60
note_off channel=0 note=42 velocity=64 time=420
note_on channel=0 note=40 velocity=82 time=0
note_off channel=0 note=40 velocity=64 time=268
note_on channel=0 note=40 velocity=94 time=88
note_off channel=0 note=40 velocity=64 time=116
note_on channel=0 note=32 velocity=75 time=8
note_off channel=0 note=32 velocity=64 time=480
note_on channel=0 note=33 velocity=85 time=0
note_on channel=0 note=28 velocity=64 time=356
note_off channel=0 note=33 velocity=64 time=12
note_off channel=0 note=28 velocity=64 time=64
note_on channel=0 note=35 velocity=83 time=48
note_off channel=0 note=35 velocity=64 time=476
note_on channel=0 note=36 velocity=90 time=4
note_off channel=0 note=36 velocity=64 time=312
note_on channel=0 note=28 velocity=68 time=44
note_off channel=0 note=28 velocity=64 time=72
note_on channel=0 note=40 velocity=92 time=52
note_on channel=0 note=28 velocity=61 time=356
note_off channel=0 note=28 velocity=64 time=40
note_off channel=0 note=40 velocity=64 time=44
note_on channel=0 note=38 velocity=85 time=40
note_on channel=0 note=33 velocity=64 time=356
note_off channel=0 note=38 velocity=64 time=12
note_off channel=0 note=33 velocity=64 time=64
note_on channel=0 note=40 velocity=83 time=48
note_off channel=0 note=40 velocity=64 time=476
note_on channel=0 note=42 velocity=90 time=4
note_off channel=0 note=42 velocity=64 time=312
note_on channel=0 note=33 velocity=68 time=44
note_off channel=0 note=33 velocity=64 time=72
note_on channel=0 note=45 velocity=92 time=52
note_on channel=0 note=33 velocity=61 time=356
note_off channel=0 note=33 velocity=64 time=40
note_off channel=0 note=45 velocity=64 time=44
note_on channel=0 note=43 velocity=93 time=40
note_off channel=0 note=43 velocity=64 time=480
note_on channel=0 note=43 velocity=100 time=0
note_off channel=0 note=43 velocity=64 time=480
note_on channel=0 note=42 velocity=86 time=0
note_off channel=0 note=42 velocity=64 time=456
note_on channel=0 note=42 velocity=80 time=24
note_off channel=0 note=42 velocity=64 time=480
note_on channel=0 note=36 velocity=81 time=0
note_on channel=0 note=50 velocity=80 time=480
note_off channel=0 note=36 velocity=64 time=88
note_off channel=0 note=50 velocity=64 time=392
note_on channel=0 note=36 velocity=72 time=0
note_off channel=0 note=36 velocity=64 time=360
note_on channel=0 note=24 velocity=69 time=0
note_off channel=0 note=24 velocity=64 time=32
note_on channel=0 note=34 velocity=70 time=88
note_off channel=0 note=34 velocity=64 time=480
note_on channel=0 note=33 velocity=87 time=0
note_on channel=0 note=45 velocity=70 time=480
note_off channel=0 note=33 velocity=64 time=36
note_on channel=0 note=40 velocity=82 time=444
note_off channel=0 note=45 velocity=64 time=56
note_on channel=0 note=36 velocity=88 time=424
note_off channel=0 note=40 velocity=64 time=12
note_off channel=0 note=36 velocity=64 time=468
note_on channel=0 note=39 velocity=86 time=0
note_on channel=0 note=34 velocity=62 time=356
note_off channel=0 note=34 velocity=64 time=80
note_off channel=0 note=39 velocity=64 time=24
note_on channel=0 note=46 velocity=79 time=20
note_off channel=0 note=46 velocity=64 time=356
note_on channel=0 note=34 velocity=64 time=0
note_off channel=0 note=34 velocity=64 time=68
control_change channel=0 control=11 value=109 time=56
note_on channel=0 note=38 velocity=70 time=0
control_change channel=0 control=11 value=106 time=120
control_change channel=0 control=11 value=104 time=120
control_change channel=0 control=11 value=101 time=120
note_off channel=0 note=38 velocity=64 time=120
control_change channel=0 control=11 value=99 time=0
note_on channel=0 note=44 velocity=72 time=0
control_change channel=0 control=11 value=96 time=120
control_change channel=0 control=11 value=94 time=120
note_off channel=0 note=44 velocity=64 time=120
control_change channel=0 control=11 value=91 time=0
note_on channel=0 note=32 velocity=69 time=0
note_off channel=0 note=32 velocity=64 time=32
control_change channel=0 control=11 value=89 time=88
note_on channel=0 note=43 velocity=86 time=0
note_on channel=0 note=38 velocity=62 time=356
note_off channel=0 note=38 velocity=64 time=80
note_off channel=0 note=43 velocity=64 time=24
note_on channel=0 note=50 velocity=79 time=20
note_off channel=0 note=50 velocity=64 time=356
note_on channel=0 note=38 velocity=64 time=0
note_off channel=0 note=38 velocity=64 time=68
note_on channel=0 note=43 velocity=87 time=56
note_on channel=0 note=31 velocity=64 time=356
note_off channel=0 note=43 velocity=64 time=76
note_off channel=0 note=31 velocity=64 time=52
note_on channel=0 note=37 velocity=87 time=0
note_off channel=0 note=37 velocity=64 time=476
note_on channel=0 note=36 velocity=81 time=0
note_on channel=0 note=43 velocity=80 time=480
note_off channel=0 note=36 velocity=64 time=88
note_off channel=0 note=43 velocity=64 time=392
note_on channel=0 note=36 velocity=93 time=0
note_off channel=0 note=36 velocity=64 time=480
note_on channel=0 note=36 velocity=100 time=0
note_off channel=0 note=36 velocity=64 time=480
note_on channel=0 note=41 velocity=85 time=0
note_on channel=0 note=36 velocity=64 time=356
note_off channel=0 note=41 velocity=64 time=12
note_off channel=0 note=36 velocity=64 time=64
note_on channel=0 note=43 velocity=83 time=48
note_off channel=0 note=43 velocity=64 time=476
note_on channel=0 note=45 velocity=90 time=4
note_off channel=0 note=45 velocity=64 time=312
note_on channel=0 note=36 velocity=68 time=44
note_off channel=0 note=36 velocity=64 time=72
note_on channel=0 note=48 velocity=92 time=52
note_on channel=0 note=36 velocity=61 time=356
note_off channel=0 note=36 velocity=64 time=40
note_off channel=0 note=48 velocity=64 time=44
note_on channel=0 note=38 velocity=86 time=40
note_off channel=0 note=38 velocity=64 time=456
note_on channel=0 note=37 velocity=80 time=24
note_off channel=0 note=37 velocity=64 time=480
note_on channel=0 note=38 velocity=91 time=0
note_on channel=0 note=42 velocity=88 time=480
note_off channel=0 note=38 velocity=64 time=60
note_off channel=0 note=42 velocity=64 time=376
note_on channel=0 note=43 velocity=98 time=44
note_off channel=0 note=43 velocity=64 time=480
note_on channel=0 note=44 velocity=105 time=0
note_off channel=0 note=44 velocity=64 time=480
note_on channel=0 note=43 velocity=86 time=0
note_on channel=0 note=38 velocity=62 time=356
note_off channel=0 note=38 velocity=64 time=80
note_off channel=0 note=43 velocity=64 time=24
note_on channel=0 note=50 velocity=79 time=20
note_off channel=0 note=50 velocity=64 time=356
note_on channel=0 note=38 velocity=64 time=0
note_off channel=0 note=38 velocity=64 time=68
note_on channel=0 note=36 velocity=98 time=56
note_on channel=0 note=24 velocity=91 time=356
note_off channel=0 note=36 velocity=64 time=8
note_off channel=0 note=24 velocity=64 time=116
note_on channel=0 note=36 velocity=100 time=0
note_off channel=0 note=36 velocity=64 time=476
note_on channel=0 note=36 velocity=87 time=4
note_on channel=0 note=24 velocity=64 time=356
note_off channel=0 note=36 velocity=64 time=76
note_off channel=0 note=24 velocity=64 time=52
note_on channel=0 note=37 velocity=87 time=0
note_off channel=0 note=37 velocity=64 time=476
control_change channel=0 control=11 value=89 time=0
note_on channel=0 note=36 velocity=88 time=0
control_change channel=0 control=11 value=90 time=240
control_change channel=0 control=11 value=91 time=240
note_on channel=0 note=38 velocity=85 time=0
note_off channel=0 note=36 velocity=64 time=80
control_change channel=0 control=11 value=93 time=160
control_change channel=0 control=11 value=94 time=240
note_on channel=0 note=39 velocity=92 time=0
note_off channel=0 note=38 velocity=64 time=36
control_change channel=0 control=11 value=95 time=204
control_change channel=0 control=11 value=96 time=240
note_on channel=0 note=39 velocity=85 time=0
note_off channel=0 note=39 velocity=64 time=24
control_change channel=0 control=11 value=98 time=216
note_off channel=0 note=39 velocity=64 time=232
control_change channel=0 control=11 value=99 time=8
note_on channel=0 note=41 velocity=72 time=0
control_change channel=0 control=11 value=100 time=240
note_off channel=0 note=41 velocity=64 time=120
note_on channel=0 note=29 velocity=69 time=0
note_off channel=0 note=29 velocity=64 time=32
control_change channel=0 control=11 value=101 time=88
note_on channel=0 note=36 velocity=70 time=0
control_change channel=0 control=11 value=103 time=240
note_off channel=0 note=36 velocity=64 time=240
control_change channel=0 control=11 value=104 time=0
note_on channel=0 note=41 velocity=98 time=0
control_change channel=0 control=11 value=105 time=240
note_off channel=0 note=41 velocity=64 time=240
control_change channel=0 control=11 value=106 time=0
note_on channel=0 note=35 velocity=105 time=0
control_change channel=0 control=11 value=108 time=240
note_off channel=0 note=35 velocity=64 time=240
control_change channel=0 control=11 value=109 time=0
note_on channel=0 note=34 velocity=78 time=0
note_on channel=0 note=36 velocity=80 time=480
note_off channel=0 note=34 velocity=64 time=80
note_on channel=0 note=38 velocity=75 time=400
note_off channel=0 note=36 velocity=64 time=44
note_on channel=0 note=41 velocity=76 time=436
note_off channel=0 note=38 velocity=64 time=80
note_off channel=0 note=41 velocity=64 time=400
note_on channel=0 note=34 velocity=93 time=0
note_off channel=0 note=34 velocity=64 time=480
note_on channel=0 note=34 velocity=100 time=0
note_off channel=0 note=34 velocity=64 time=480
note_on channel=0 note=39 velocity=98 time=0
note_on channel=0 note=27 velocity=91 time=356
note_off channel=0 note=39 velocity=64 time=8
note_off channel=0 note=27 velocity=64 time=116
note_on channel=0 note=39 velocity=100 time=0
note_off channel=0 note=39 velocity=64 time=476
note_on channel=0 note=41 velocity=86 time=4
note_off channel=0 note=41 velocity=64 time=456
note_on channel=0 note=40 velocity=80 time=24
note_off channel=0 note=40 velocity=64 time=480
note_on channel=0 note=41 velocity=70 time=0
note_off channel=0 note=41 velocity=64 time=480
note_on channel=0 note=41 velocity=70 time=0
note_off channel=0 note=41 velocity=64 time=480
note_on channel=0 note=33 velocity=87 time=0
note_on channel=0 note=21 velocity=64 time=356
note_off channel=0 note=33 velocity=64 time=76
note_off channel=0 note=21 velocity=64 time=52
note_on channel=0 note=39 velocity=87 time=0
note_off channel=0 note=39 velocity=64 time=476
note_on channel=0 note=38 velocity=87 time=0
note_on channel=0 note=26 velocity=64 time=356
note_off channel=0 note=38 velocity=64 time=76
note_off channel=0 note=26 velocity=64 time=52
note_on channel=0 note=44 velocity=87 time=0
note_off channel=0 note=44 velocity=64 time=476
note_on channel=0 note=43 velocity=87 time=0
note_off channel=0 note=43 velocity=64 time=256
note_on channel=0 note=43 velocity=80 time=100
note_on channel=0 note=50 velocity=73 time=124
note_off channel=0 note=43 velocity=64 time=16
note_off channel=0 note=50 velocity=64 time=464
note_on channel=0 note=43 velocity=87 time=0
note_off channel=0 note=43 velocity=64 time=256
note_on channel=0 note=43 velocity=80 time=100
note_on channel=0 note=50 velocity=73 time=124
note_off channel=0 note=43 velocity=64 time=16
note_off channel=0 note=50 velocity=64 time=464
note_on channel=0 note=36 velocity=86 time=0
note_off channel=0 note=36 velocity=64 time=456
note_on channel=0 note=35 velocity=80 time=24
note_off channel=0 note=35 velocity=64 time=480
note_on channel=0 note=36 velocity=98 time=0
note_on channel=0 note=24 velocity=91 time=356
note_off channel=0 note=36 velocity=64 time=8
note_off channel=0 note=24 velocity=64 time=116
note_on channel=0 note=36 velocity=100 time=0
note_off channel=0 note=36 velocity=64 time=476
note_on channel=0 note=41 velocity=87 time=4
note_on channel=0 note=29 velocity=64 time=356
note_off channel=0 note=41 velocity=64 time=76
note_off channel=0 note=29 velocity=64 time=52
note_on channel=0 note=42 velocity=87 time=0
note_off channel=0 note=42 velocity=64 time=476
note_on channel=0 note=41 velocity=70 time=0
note_off channel=0 note=41 velocity=64 time=480
note_on channel=0 note=41 velocity=72 time=0
note_off channel=0 note=41 velocity=64 time=360
note_on channel=0 note=29 velocity=69 time=0
note_off channel=0 note=29 velocity=64 time=32
note_on channel=0 note=38 velocity=87 time=88
note_off channel=0 note=38 velocity=64 time=256
note_on channel=0 note=38 velocity=80 time=100
note_on channel=0 note=45 velocity=73 time=124
note_off channel=0 note=38 velocity=64 time=16
note_off channel=0 note=45 velocity=64 time=464
control_change channel=0 control=11 value=109 time=0
note_on channel=0 note=38 velocity=82 time=0
control_change channel=0 control=11 value=108 time=120
control_change channel=0 control=11 value=106 time=120
note_off channel=0 note=38 velocity=64 time=28
note_on channel=0 note=38 velocity=94 time=88
control_change channel=0 control=11 value=105 time=4
note_off channel=0 note=38 velocity=64 time=112
control_change channel=0 control=11 value=103 time=8
note_on channel=0 note=42 velocity=75 time=0
control_change channel=0 control=11 value=101 time=120
control_change channel=0 control=11 value=100 time=120
control_change channel=0 control=11 value=99 time=120
note_off channel=0 note=42 velocity=64 time=120
control_change channel=0 control=11 value=96 time=0
note_on channel=0 note=43 velocity=93 time=0
note_off channel=0 note=43 velocity=64 time=480
note_on channel=0 note=43 velocity=100 time=0
note_off channel=0 note=43 velocity=64 time=480
note_on channel=0 note=43 velocity=86 time=0
note_off channel=0 note=43 velocity=64 time=456
note_on channel=0 note=35 velocity=80 time=24
note_off channel=0 note=35 velocity=64 time=480
note_on channel=0 note=36 velocity=87 time=0
note_off channel=0 note=36 velocity=64 time=256
note_on channel=0 note=36 velocity=80 time=100
note_on channel=0 note=43 velocity=73 time=124
note_off channel=0 note=36 velocity=64 time=16
note_off channel=0 note=43 velocity=64 time=464
note_on channel=0 note=36 velocity=77 time=0
note_off channel=0 note=36 velocity=64 time=516
note_on channel=0 note=40 velocity=85 time=9
note_off channel=0 note=40 velocity=65 time=260
note_on channel=0 note=41 velocity=89 time=33
note_off channel=0 note=41 velocity=61 time=108
note_on channel=0 note=33 velocity=75 time=354
note_off channel=0 note=33 velocity=64 time=640
note_on channel=0 note=34 velocity=79 time=0
note_off channel=0 note=34 velocity=64 time=480
note_on channel=0 note=35 velocity=80 time=0
note_off channel=0 note=35 velocity=64 time=480
note_on channel=0 note=36 velocity=82 time=0
note_off channel=0 note=36 velocity=64 time=192
note_on channel=0 note=41 velocity=75 time=608
note_off channel=0 note=41 velocity=64 time=3976
<meta message end_of_track time=0>
<meta message text text='Piano' time=0>
control_change channel=1 control=11 value=96 time=0
control_change channel=1 control=7 value=94 time=0
control_change channel=1 control=10 value=35 time=0
control_change channel=1 control=91 value=81 time=0
control_change channel=1 control=93 value=5 time=0
control_change channel=1 control=0 value=56 time=0
control_change channel=1 control=32 value=0 time=0
program_change channel=1 program=0 time=0
note_on channel=1 note=75 velocity=81 time=6080
note_on channel=1 note=80 velocity=81 time=0
control_change channel=1 control=64 value=0 time=540
note_off channel=1 note=75 velocity=64 time=28
note_off channel=1 note=80 velocity=64 time=0
note_on channel=1 note=76 velocity=80 time=72
note_on channel=1 note=81 velocity=80 time=0
note_off channel=1 note=76 velocity=64 time=120
note_off channel=1 note=81 velocity=64 time=0
control_change channel=1 control=64 value=0 time=260
note_on channel=1 note=74 velocity=81 time=100
note_off channel=1 note=74 velocity=64 time=120
control_change channel=1 control=64 value=0 time=360
note_on channel=1 note=75 velocity=81 time=0
note_on channel=1 note=80 velocity=81 time=0
note_off channel=1 note=75 velocity=64 time=752
note_off channel=1 note=80 velocity=64 time=0
note_on channel=1 note=76 velocity=81 time=48
note_on channel=1 note=81 velocity=81 time=0
control_change channel=1 control=64 value=0 time=160
control_change channel=1 control=64 value=0 time=860
note_off channel=1 note=76 velocity=64 time=52
note_off channel=1 note=81 velocity=64 time=0
control_change channel=1 control=11 value=96 time=48
note_on channel=1 note=72 velocity=74 time=340
note_on channel=1 note=63 velocity=54 time=24
note_on channel=1 note=57 velocity=57 time=0
note_on channel=1 note=69 velocity=59 time=20
note_on channel=1 note=68 velocity=57 time=32
control_change channel=1 control=11 value=98 time=352
note_off channel=1 note=72 velocity=64 time=192
note_off channel=1 note=68 velocity=64 time=0
note_off channel=1 note=69 velocity=64 time=0
note_off channel=1 note=57 velocity=64 time=0
note_off channel=1 note=63 velocity=64 time=0
control_change channel=1 control=64 value=0 time=0
note_on channel=1 note=60 velocity=58 time=20
note_on channel=1 note=52 velocity=50 time=4
note_on channel=1 note=57 velocity=56 time=4
note_on channel=1 note=67 velocity=61 time=4
note_off channel=1 note=60 velocity=64 time=124
note_off channel=1 note=52 velocity=64 time=16
note_off channel=1 note=57 velocity=64 time=0
note_off channel=1 note=67 velocity=64 time=20
control_change channel=1 control=64 value=0 time=288
note_on channel=1 note=60 velocity=58 time=20
note_on channel=1 note=50 velocity=50 time=4
note_on channel=1 note=57 velocity=56 time=4
note_on channel=1 note=65 velocity=61 time=4
control_change channel=1 control=11 value=99 time=64
note_off channel=1 note=60 velocity=64 time=60
note_off channel=1 note=50 velocity=64 time=16
note_off channel=1 note=57 velocity=64 time=0
note_off channel=1 note=65 velocity=64 time=20
control_change channel=1 control=64 value=0 time=288
note_on channel=1 note=62 velocity=68 time=20
note_on channel=1 note=69 velocity=70 time=16
note_off channel=1 note=62 velocity=64 time=80
note_off channel=1 note=69 velocity=64 time=4
control_change channel=1 control=11 value=100 time=264
control_change channel=1 control=64 value=0 time=576
control_change channel=1 control=11 value=101 time=192
note_on channel=1 note=50 velocity=77 time=204
note_off channel=1 note=50 velocity=64 time=44
note_on channel=1 note=66 velocity=95 time=72
note_on channel=1 note=64 velocity=93 time=4
note_off channel=1 note=64 velocity=64 time=216
note_off channel=1 note=66 velocity=64 time=16
control_change channel=1 control=64 value=0 time=112
note_on channel=1 note=63 velocity=58 time=20
note_on channel=1 note=53 velocity=50 time=4
note_on channel=1 note=59 velocity=56 time=4
note_on channel=1 note=67 velocity=61 time=4
control_change channel=1 control=11 value=103 time=68
note_off channel=1 note=63 velocity=64 time=148
note_off channel=1 note=53 velocity=64 time=16
note_off channel=1 note=59 velocity=64 time=0
note_off channel=1 note=67 velocity=64 time=20
control_change channel=1 control=11 value=104 time=584
control_change channel=1 control=64 value=0 time=192
note_on channel=1 note=69 velocity=77 time=364
note_on channel=1 note=62 velocity=68 time=4
note_on channel=1 note=53 velocity=67 time=4
note_on channel=1 note=59 velocity=42 time=12
note_off channel=1 note=62 velocity=64 time=52
note_off channel=1 note=59 velocity=64 time=0
note_off channel=1 note=53 velocity=64 time=12
note_off channel=1 note=69 velocity=64 time=4
control_change channel=1 control=64 value=0 time=28
note_on channel=1 note=62 velocity=60 time=60
note_on channel=1 note=65 velocity=46 time=0
note_on channel=1 note=59 velocity=52 time=4
note_on channel=1 note=69 velocity=47 time=12
control_change channel=1 control=11 value=105 time=20
note_off channel=1 note=62 velocity=64 time=80
note_off channel=1 note=69 velocity=64 time=16
note_off channel=1 note=59 velocity=64 time=0
note_off channel=1 note=65 velocity=64 time=0
control_change channel=1 control=64 value=0 time=288
note_on channel=1 note=56 velocity=54 time=12
note_on channel=1 note=58 velocity=52 time=0
note_on channel=1 note=52 velocity=47 time=4
note_on channel=1 note=36 velocity=46 time=4
control_change channel=1 control=11 value=106 time=364
note_off channel=1 note=58 velocity=64 time=216
note_off channel=1 note=52 velocity=64 time=32
note_off channel=1 note=56 velocity=64 time=52
note_off channel=1 note=36 velocity=64 time=64
note_on channel=1 note=47 velocity=66 time=140
note_off channel=1 note=47 velocity=64 time=72
control_change channel=1 control=64 value=0 time=0
note_on channel=1 note=62 velocity=69 time=20
note_on channel=1 note=52 velocity=69 time=4
note_on channel=1 note=58 velocity=69 time=4
note_on channel=1 note=67 velocity=69 time=4
note_off channel=1 note=62 velocity=64 time=124
note_off channel=1 note=52 velocity=64 time=16
note_off channel=1 note=58 velocity=64 time=0
note_off channel=1 note=67 velocity=64 time=20
control_change channel=1 control=11 value=108 time=0
control_change channel=1 control=64 value=0 time=148
note_on channel=1 note=62 velocity=77 time=140
note_on channel=1 note=58 velocity=77 time=0
note_on channel=1 note=52 velocity=77 time=0
note_on channel=1 note=48 velocity=77 time=0
note_on channel=1 note=74 velocity=77 time=0
note_on channel=1 note=70 velocity=77 time=0
note_on channel=1 note=67 velocity=77 time=0
note_on channel=1 note=64 velocity=77 time=0
note_off channel=1 note=62 velocity=64 time=272
note_off channel=1 note=64 velocity=64 time=0
note_off channel=1 note=67 velocity=64 time=0
note_off channel=1 note=70 velocity=64 time=0
note_off channel=1 note=74 velocity=64 time=0
note_off channel=1 note=48 velocity=64 time=0
note_off channel=1 note=52 velocity=64 time=0
note_off channel=1 note=58 velocity=64 time=0
note_on channel=1 note=62 velocity=81 time=48
note_on channel=1 note=60 velocity=81 time=0
note_on channel=1 note=57 velocity=81 time=0
note_on channel=1 note=53 velocity=81 time=0
note_on channel=1 note=77 velocity=81 time=0
note_on channel=1 note=74 velocity=81 time=0
note_on channel=1 note=72 velocity=81 time=0
note_on channel=1 note=67 velocity=81 time=0
note_off channel=1 note=62 velocity=64 time=124
note_off channel=1 note=67 velocity=64 time=0
note_off channel=1 note=72 velocity=64 time=0
note_off channel=1 note=74 velocity=64 time=0
note_off channel=1 note=77 velocity=64 time=0
note_off channel=1 note=53 velocity=64 time=0
note_off channel=1 note=57 velocity=64 time=0
note_off channel=1 note=60 velocity=64 time=0
control_change channel=1 control=64 value=0 time=36
control_change channel=1 control=11 value=109 time=0
control_change channel=1 control=11 value=108 time=240
control_change channel=1 control=11 value=106 time=240
control_change channel=1 control=11 value=105 time=240
control_change channel=1 control=11 value=104 time=240
control_change channel=1 control=11 value=103 time=240
control_change channel=1 control=11 value=101 time=240
control_change channel=1 control=11 value=100 time=240
control_change channel=1 control=11 value=99 time=240
control_change channel=1 control=11 value=98 time=240
control_change channel=1 control=11 value=96 time=240
control_change channel=1 control=11 value=95 time=240
control_change channel=1 control=11 value=94 time=240
control_change channel=1 control=11 value=93 time=240
control_change channel=1 control=11 value=91 time=240
control_change channel=1 control=11 value=90 time=240
control_change channel=1 control=11 value=89 time=240
note_on channel=1 note=62 velocity=56 time=60
note_on channel=1 note=65 velocity=56 time=0
note_on channel=1 note=59 velocity=56 time=4
note_on channel=1 note=67 velocity=56 time=12
note_off channel=1 note=62 velocity=64 time=100
note_off channel=1 note=67 velocity=64 time=16
note_off channel=1 note=59 velocity=64 time=0
note_off channel=1 note=65 velocity=64 time=0
note_on channel=1 note=74 velocity=100 time=206
control_change channel=1 control=64 value=0 time=82
note_off channel=1 note=74 velocity=65 time=53
note_on channel=1 note=80 velocity=92 time=9
note_on channel=1 note=75 velocity=92 time=0
note_off channel=1 note=80 velocity=33 time=123
note_off channel=1 note=75 velocity=33 time=0
note_on channel=1 note=75 velocity=56 time=155
note_on channel=1 note=65 velocity=56 time=24
note_on channel=1 note=59 velocity=56 time=0
note_on channel=1 note=71 velocity=56 time=20
note_on channel=1 note=67 velocity=56 time=32
note_off channel=1 note=75 velocity=64 time=64
note_off channel=1 note=67 velocity=64 time=0
note_off channel=1 note=71 velocity=64 time=0
note_off channel=1 note=59 velocity=64 time=0
note_off channel=1 note=65 velocity=64 time=0
control_change channel=1 control=64 value=0 time=0
note_on channel=1 note=81 velocity=86 time=21
note_on channel=1 note=76 velocity=86 time=0
note_on channel=1 note=81 velocity=83 time=1
note_on channel=1 note=76 velocity=83 time=0
note_off channel=1 note=81 velocity=53 time=276
note_off channel=1 note=76 velocity=53 time=0
note_off channel=1 note=81 velocity=59 time=14
note_off channel=1 note=76 velocity=59 time=0
note_on channel=1 note=74 velocity=86 time=53
note_on channel=1 note=62 velocity=56 time=3
note_on channel=1 note=57 velocity=56 time=8
note_on channel=1 note=69 velocity=56 time=4
note_on channel=1 note=43 velocity=56 time=24
note_off channel=1 note=74 velocity=58 time=52
note_off channel=1 note=62 velocity=64 time=20
note_off channel=1 note=69 velocity=64 time=0
note_off channel=1 note=43 velocity=64 time=12
note_off channel=1 note=57 velocity=64 time=20
note_on channel=1 note=64 velocity=56 time=20
note_off channel=1 note=64 velocity=64 time=260
note_on channel=1 note=80 velocity=92 time=47
note_on channel=1 note=57 velocity=56 time=49
note_off channel=1 note=57 velocity=64 time=76
control_change channel=1 control=64 value=0 time=0
note_on channel=1 note=60 velocity=56 time=60
note_on channel=1 note=64 velocity=56 time=0
note_on channel=1 note=58 velocity=56 time=4
note_on channel=1 note=68 velocity=56 time=12
note_off channel=1 note=60 velocity=64 time=100
note_off channel=1 note=68 velocity=64 time=16
note_off channel=1 note=58 velocity=64 time=0
note_off channel=1 note=64 velocity=64 time=0
note_off channel=1 note=80 velocity=41 time=175
note_on channel=1 note=81 velocity=64 time=2
note_on channel=1 note=48 velocity=56 time=155
note_on channel=1 note=80 velocity=56 time=9
note_off channel=1 note=81 velocity=45 time=7
note_off channel=1 note=80 velocity=40 time=137
note_on channel=1 note=81 velocity=60 time=19
note_off channel=1 note=48 velocity=64 time=28
note_on channel=1 note=80 velocity=59 time=92
note_off channel=1 note=81 velocity=52 time=45
note_off channel=1 note=80 velocity=49 time=72
control_change channel=1 control=64 value=0 time=27
note_on channel=1 note=81 velocity=65 time=5
note_off channel=1 note=81 velocity=69 time=295
note_on channel=1 note=74 velocity=67 time=53
note_on channel=1 note=64 velocity=56 time=11
note_on channel=1 note=58 velocity=56 time=0
note_on channel=1 note=70 velocity=56 time=20
note_on channel=1 note=67 velocity=56 time=32
note_off channel=1 note=74 velocity=57 time=11
note_off channel=1 note=67 velocity=64 time=393
note_off channel=1 note=70 velocity=64 time=0
note_off channel=1 note=58 velocity=64 time=0
note_off channel=1 note=64 velocity=64 time=0
control_change channel=1 control=64 value=0 time=40
note_on channel=1 note=65 velocity=56 time=140
note_on channel=1 note=41 velocity=56 time=4
note_on channel=1 note=60 velocity=56 time=4
note_off channel=1 note=65 velocity=64 time=80
note_off channel=1 note=60 velocity=64 time=36
note_off channel=1 note=41 velocity=64 time=4
note_on channel=1 note=74 velocity=100 time=185
control_change channel=1 control=64 value=0 time=127
note_off channel=1 note=74 velocity=62 time=2
note_on channel=1 note=80 velocity=100 time=22
note_on channel=1 note=75 velocity=100 time=0
note_on channel=1 note=63 velocity=56 time=16
note_on channel=1 note=60 velocity=56 time=4
note_on channel=1 note=41 velocity=56 time=0
note_on channel=1 note=57 velocity=56 time=4
note_off channel=1 note=60 velocity=64 time=80
note_off channel=1 note=63 velocity=64 time=20
note_off channel=1 note=57 velocity=64 time=16
note_off channel=1 note=75 velocity=39 time=4
note_off channel=1 note=41 velocity=64 time=0
note_off channel=1 note=80 velocity=39 time=0
control_change channel=1 control=64 value=0 time=312
note_on channel=1 note=60 velocity=56 time=20
note_on channel=1 note=81 velocity=86 time=9
note_on channel=1 note=76 velocity=86 time=0
note_on channel=1 note=67 velocity=56 time=7
note_off channel=1 note=60 velocity=64 time=80
note_off channel=1 note=67 velocity=64 time=4
note_off channel=1 note=76 velocity=61 time=209
note_off channel=1 note=81 velocity=61 time=0
note_on channel=1 note=74 velocity=86 time=31
note_off channel=1 note=74 velocity=58 time=93
note_on channel=1 note=80 velocity=92 time=382
control_change channel=1 control=64 value=0 time=125
note_off channel=1 note=80 velocity=41 time=367
note_on channel=1 note=62 velocity=64 time=1
note_on channel=1 note=81 velocity=64 time=1
note_on channel=1 note=57 velocity=64 time=7
note_on channel=1 note=69 velocity=64 time=4
note_on channel=1 note=50 velocity=56 time=24
note_off channel=1 note=62 velocity=64 time=72
note_off channel=1 note=69 velocity=64 time=0
note_off channel=1 note=50 velocity=64 time=12
note_off channel=1 note=57 velocity=64 time=20
note_on channel=1 note=65 velocity=56 time=20
note_on channel=1 note=80 velocity=56 time=5
note_off channel=1 note=81 velocity=45 time=7
note_off channel=1 note=80 velocity=40 time=137
note_on channel=1 note=81 velocity=60 time=19
note_off channel=1 note=65 velocity=64 time=92
note_on channel=1 note=80 velocity=59 time=28
note_off channel=1 note=81 velocity=52 time=45
note_on channel=1 note=57 velocity=56 time=23
note_off channel=1 note=80 velocity=49 time=49
note_off channel=1 note=57 velocity=64 time=27
control_change channel=1 control=64 value=0 time=0
note_on channel=1 note=81 velocity=65 time=5
note_off channel=1 note=81 velocity=69 time=295
note_on channel=1 note=74 velocity=89 time=31
note_on channel=1 note=50 velocity=56 time=65
note_off channel=1 note=74 velocity=64 time=41
note_off channel=1 note=50 velocity=64 time=3
note_on channel=1 note=66 velocity=56 time=72
note_on channel=1 note=64 velocity=56 time=4
note_off channel=1 note=64 velocity=64 time=216
note_off channel=1 note=66 velocity=64 time=16
control_change channel=1 control=64 value=0 time=212
note_on channel=1 note=65 velocity=56 time=40
note_on channel=1 note=62 velocity=56 time=4
note_on channel=1 note=43 velocity=56 time=0
note_on channel=1 note=59 velocity=56 time=4
note_off channel=1 note=62 velocity=64 time=80
note_off channel=1 note=65 velocity=64 time=20
note_off channel=1 note=59 velocity=64 time=16
note_off channel=1 note=43 velocity=64 time=4
note_on channel=1 note=74 velocity=105 time=163
note_off channel=1 note=74 velocity=57 time=142
control_change channel=1 control=64 value=0 time=7
note_on channel=1 note=80 velocity=115 time=12
note_on channel=1 note=75 velocity=115 time=0
note_off channel=1 note=80 velocity=43 time=120
note_off channel=1 note=75 velocity=43 time=0
control_change channel=1 control=64 value=0 time=248
control_change channel=1 control=64 value=0 time=0
note_on channel=1 note=81 velocity=86 time=131
note_on channel=1 note=76 velocity=86 time=0
note_off channel=1 note=81 velocity=59 time=307
note_off channel=1 note=76 velocity=59 time=0
note_on channel=1 note=65 velocity=56 time=26
note_on channel=1 note=59 velocity=56 time=0
note_on channel=1 note=74 velocity=75 time=5
note_on channel=1 note=71 velocity=56 time=15
note_on channel=1 note=69 velocity=56 time=32
note_off channel=1 note=74 velocity=54 time=49
note_on channel=1 note=80 velocity=92 time=370
note_off channel=1 note=69 velocity=64 time=125
note_off channel=1 note=59 velocity=64 time=0
note_off channel=1 note=71 velocity=64 time=0
note_off channel=1 note=65 velocity=64 time=0
control_change channel=1 control=64 value=0 time=0
note_on channel=1 note=72 velocity=56 time=340
note_on channel=1 note=64 velocity=56 time=24
note_on channel=1 note=58 velocity=56 time=0
note_off channel=1 note=80 velocity=41 time=3
note_on channel=1 note=81 velocity=64 time=2
note_on channel=1 note=70 velocity=56 time=15
note_on channel=1 note=68 velocity=56 time=32
note_on channel=1 note=80 velocity=56 time=117
note_off channel=1 note=81 velocity=45 time=7
note_off channel=1 note=80 velocity=40 time=137
note_on channel=1 note=81 velocity=60 time=19
note_on channel=1 note=80 velocity=59 time=120
note_off channel=1 note=81 velocity=52 time=45
note_off channel=1 note=80 velocity=49 time=72
note_off channel=1 note=64 velocity=64 time=27
note_off channel=1 note=70 velocity=64 time=0
note_off channel=1 note=72 velocity=64 time=0
note_off channel=1 note=68 velocity=64 time=0
note_off channel=1 note=58 velocity=64 time=0
control_change channel=1 control=64 value=0 time=0
note_on channel=1 note=81 velocity=65 time=5
note_on channel=1 note=62 velocity=56 time=15
note_on channel=1 note=67 velocity=56 time=16
note_off channel=1 note=62 velocity=64 time=80
note_off channel=1 note=67 velocity=64 time=4
note_off channel=1 note=81 velocity=69 time=180
note_on channel=1 note=72 velocity=67 time=33
note_off channel=1 note=72 velocity=52 time=166
note_on channel=1 note=74 velocity=77 time=14
note_off channel=1 note=74 velocity=57 time=272
note_on channel=1 note=79 velocity=67 time=31
note_on channel=1 note=75 velocity=67 time=0
note_on channel=1 note=67 velocity=56 time=508
note_on channel=1 note=60 velocity=56 time=4
note_on channel=1 note=51 velocity=56 time=4
note_on channel=1 note=58 velocity=56 time=12
note_off channel=1 note=60 velocity=64 time=52
note_off channel=1 note=58 velocity=64 time=0
note_off channel=1 note=51 velocity=64 time=12
note_off channel=1 note=67 velocity=64 time=4
note_on channel=1 note=60 velocity=56 time=524
note_on channel=1 note=58 velocity=56 time=12
note_on channel=1 note=67 velocity=56 time=0
note_on channel=1 note=51 velocity=56 time=4
note_off channel=1 note=51 velocity=64 time=60
note_off channel=1 note=60 velocity=64 time=20
note_off channel=1 note=58 velocity=64 time=4
note_off channel=1 note=67 velocity=64 time=8
note_on channel=1 note=51 velocity=56 time=724
note_off channel=1 note=79 velocity=54 time=57
note_off channel=1 note=75 velocity=54 time=0
note_off channel=1 note=51 velocity=64 time=15
control_change channel=1 control=64 value=0 time=40
note_on channel=1 note=72 velocity=56 time=340
note_on channel=1 note=85 velocity=81 time=4
note_on channel=1 note=86 velocity=110 time=4
note_on channel=1 note=63 velocity=56 time=16
note_on channel=1 note=57 velocity=56 time=0
note_off channel=1 note=85 velocity=64 time=20
note_on channel=1 note=69 velocity=56 time=0
note_on channel=1 note=67 velocity=56 time=32
note_off channel=1 note=86 velocity=60 time=49
note_on channel=1 note=86 velocity=96 time=367
note_on channel=1 note=85 velocity=81 time=8
note_off channel=1 note=85 velocity=64 time=40
note_off channel=1 note=86 velocity=55 time=423
note_on channel=1 note=84 velocity=64 time=12
note_on channel=1 note=80 velocity=62 time=165
note_off channel=1 note=84 velocity=60 time=34
note_off channel=1 note=63 velocity=64 time=266
note_off channel=1 note=67 velocity=64 time=0
note_off channel=1 note=69 velocity=64 time=0
note_off channel=1 note=57 velocity=64 time=0
note_off channel=1 note=80 velocity=49 time=8
note_off channel=1 note=72 velocity=64 time=20
note_on channel=1 note=77 velocity=64 time=8
control_change channel=1 control=64 value=0 time=4
note_on channel=1 note=53 velocity=54 time=12
note_on channel=1 note=55 velocity=52 time=0
note_on channel=1 note=50 velocity=47 time=4
note_on channel=1 note=34 velocity=46 time=4
note_off channel=1 note=53 velocity=64 time=420
note_off channel=1 note=34 velocity=64 time=0
note_off channel=1 note=50 velocity=64 time=0
note_off channel=1 note=55 velocity=64 time=0
control_change channel=1 control=64 value=0 time=40
note_on channel=1 note=64 velocity=77 time=464
note_on channel=1 note=57 velocity=68 time=4
note_on channel=1 note=49 velocity=67 time=4
note_on channel=1 note=54 velocity=42 time=12
note_off channel=1 note=57 velocity=64 time=52
note_off channel=1 note=54 velocity=64 time=0
note_off channel=1 note=49 velocity=64 time=12
note_off channel=1 note=64 velocity=64 time=4
note_off channel=1 note=77 velocity=38 time=8
control_change channel=1 control=64 value=0 time=20
note_on channel=1 note=53 velocity=54 time=12
note_on channel=1 note=55 velocity=52 time=0
note_on channel=1 note=50 velocity=47 time=4
note_on channel=1 note=34 velocity=46 time=4
note_off channel=1 note=55 velocity=64 time=580
note_off channel=1 note=50 velocity=64 time=32
note_off channel=1 note=53 velocity=64 time=52
note_off channel=1 note=34 velocity=64 time=64
note_on channel=1 note=45 velocity=62 time=140
note_off channel=1 note=45 velocity=64 time=72
control_change channel=1 control=64 value=0 time=0
note_on channel=1 note=59 velocity=68 time=20
note_on channel=1 note=66 velocity=70 time=16
note_off channel=1 note=59 velocity=64 time=80
note_off channel=1 note=66 velocity=64 time=4
control_change channel=1 control=64 value=0 time=840
note_on channel=1 note=40 velocity=77 time=396
note_off channel=1 note=40 velocity=64 time=44
note_on channel=1 note=62 velocity=95 time=72
note_on channel=1 note=59 velocity=93 time=4
note_off channel=1 note=59 velocity=64 time=216
note_off channel=1 note=62 velocity=64 time=16
control_change channel=1 control=64 value=0 time=212
note_on channel=1 note=72 velocity=74 time=340
note_on channel=1 note=60 velocity=54 time=24
note_on channel=1 note=57 velocity=57 time=0
note_on channel=1 note=69 velocity=59 time=20
note_on channel=1 note=64 velocity=57 time=32
note_off channel=1 note=72 velocity=64 time=404
note_off channel=1 note=64 velocity=64 time=0
note_off channel=1 note=69 velocity=64 time=0
note_off channel=1 note=57 velocity=64 time=0
note_off channel=1 note=60 velocity=64 time=0
control_change channel=1 control=64 value=0 time=40
note_on channel=1 note=60 velocity=68 time=468
note_on channel=1 note=52 velocity=51 time=8
note_on channel=1 note=64 velocity=66 time=4
note_on channel=1 note=44 velocity=52 time=24
note_off channel=1 note=60 velocity=64 time=72
note_off channel=1 note=64 velocity=64 time=0
note_off channel=1 note=44 velocity=64 time=4
note_off channel=1 note=52 velocity=64 time=0
control_change channel=1 control=64 value=0 time=0
control_change channel=1 control=64 value=0 time=380
note_on channel=1 note=64 velocity=60 time=160
note_on channel=1 note=66 velocity=46 time=0
note_on channel=1 note=60 velocity=52 time=4
note_on channel=1 note=70 velocity=47 time=12
note_off channel=1 note=64 velocity=64 time=100
note_off channel=1 note=70 velocity=64 time=16
note_off channel=1 note=60 velocity=64 time=0
note_off channel=1 note=66 velocity=64 time=0
note_on channel=1 note=50 velocity=76 time=332
note_off channel=1 note=50 velocity=64 time=200
note_on channel=1 note=70 velocity=82 time=288
note_on channel=1 note=65 velocity=61 time=0
note_off channel=1 note=65 velocity=64 time=120
note_on channel=1 note=66 velocity=57 time=24
note_off channel=1 note=70 velocity=64 time=136
note_off channel=1 note=66 velocity=64 time=76
control_change channel=1 control=64 value=0 time=552
note_on channel=1 note=67 velocity=68 time=368
note_on channel=1 note=58 velocity=51 time=8
note_on channel=1 note=70 velocity=66 time=4
note_on channel=1 note=43 velocity=52 time=24
note_off channel=1 note=67 velocity=64 time=72
note_off channel=1 note=70 velocity=64 time=0
note_off channel=1 note=43 velocity=64 time=12
note_off channel=1 note=58 velocity=64 time=20
note_on channel=1 note=66 velocity=63 time=20
note_off channel=1 note=66 velocity=64 time=260
control_change channel=1 control=64 value=0 time=72
note_on channel=1 note=79 velocity=74 time=440
note_on channel=1 note=67 velocity=54 time=24
note_on channel=1 note=62 velocity=57 time=0
note_on channel=1 note=74 velocity=59 time=20
note_on channel=1 note=70 velocity=57 time=32
note_off channel=1 note=79 velocity=64 time=404
note_off channel=1 note=70 velocity=64 time=0
note_off channel=1 note=74 velocity=64 time=0
note_off channel=1 note=62 velocity=64 time=0
note_off channel=1 note=67 velocity=64 time=0
control_change channel=1 control=64 value=0 time=40
note_on channel=1 note=62 velocity=60 time=160
note_on channel=1 note=65 velocity=46 time=0
note_on channel=1 note=58 velocity=52 time=4
note_on channel=1 note=67 velocity=47 time=12
note_off channel=1 note=62 velocity=64 time=100
note_off channel=1 note=67 velocity=64 time=16
note_off channel=1 note=58 velocity=64 time=0
note_off channel=1 note=65 velocity=64 time=0
note_on channel=1 note=36 velocity=76 time=332
note_off channel=1 note=36 velocity=64 time=200
control_change channel=1 control=64 value=0 time=236
note_on channel=1 note=67 velocity=77 time=364
note_on channel=1 note=60 velocity=68 time=4
note_on channel=1 note=52 velocity=67 time=4
note_on channel=1 note=58 velocity=42 time=12
note_off channel=1 note=60 velocity=64 time=52
note_off channel=1 note=58 velocity=64 time=0
note_off channel=1 note=52 velocity=64 time=12
note_off channel=1 note=67 velocity=64 time=4
control_change channel=1 control=64 value=0 time=408
note_on channel=1 note=59 velocity=60 time=160
note_on channel=1 note=61 velocity=46 time=0
note_on channel=1 note=55 velocity=52 time=4
note_on channel=1 note=64 velocity=47 time=12
note_off channel=1 note=59 velocity=64 time=100
note_off channel=1 note=64 velocity=64 time=16
note_off channel=1 note=55 velocity=64 time=0
note_off channel=1 note=61 velocity=64 time=0
note_on channel=1 note=45 velocity=76 time=332
note_off channel=1 note=45 velocity=64 time=200
control_change channel=1 control=64 value=0 time=236
note_on channel=1 note=57 velocity=68 time=368
note_on channel=1 note=53 velocity=51 time=8
note_on channel=1 note=65 velocity=66 time=4
note_on channel=1 note=45 velocity=52 time=24
note_off channel=1 note=57 velocity=64 time=72
note_off channel=1 note=65 velocity=64 time=0
note_off channel=1 note=45 velocity=64 time=12
note_off channel=1 note=53 velocity=64 time=20
note_on channel=1 note=60 velocity=63 time=20
note_off channel=1 note=60 velocity=64 time=260
control_change channel=1 control=64 value=0 time=72
note_on channel=1 note=66 velocity=47 time=140
note_on channel=1 note=64 velocity=49 time=4
note_on channel=1 note=50 velocity=41 time=0
note_on channel=1 note=60 velocity=43 time=4
note_off channel=1 note=64 velocity=64 time=80
note_off channel=1 note=66 velocity=64 time=20
note_off channel=1 note=60 velocity=64 time=16
note_off channel=1 note=50 velocity=64 time=4
control_change channel=1 control=64 value=0 time=792
note_on channel=1 note=50 velocity=77 time=396
note_off channel=1 note=50 velocity=64 time=44
control_change channel=1 control=64 value=0 time=40
control_change channel=1 control=64 value=0 time=380
note_on channel=1 note=43 velocity=77 time=496
note_off channel=1 note=43 velocity=64 time=44
note_on channel=1 note=65 velocity=95 time=72
note_on channel=1 note=62 velocity=93 time=4
note_off channel=1 note=62 velocity=64 time=216
note_off channel=1 note=65 velocity=64 time=16
control_change channel=1 control=64 value=0 time=212
note_on channel=1 note=74 velocity=74 time=340
note_on channel=1 note=65 velocity=54 time=24
note_on channel=1 note=59 velocity=57 time=0
note_on channel=1 note=71 velocity=59 time=20
note_on channel=1 note=69 velocity=57 time=32
note_off channel=1 note=74 velocity=64 time=544
note_off channel=1 note=69 velocity=64 time=0
note_off channel=1 note=71 velocity=64 time=0
note_off channel=1 note=59 velocity=64 time=0
note_off channel=1 note=65 velocity=64 time=0
control_change channel=1 control=64 value=0 time=0
note_on channel=1 note=64 velocity=47 time=40
note_on channel=1 note=60 velocity=49 time=4
note_on channel=1 note=48 velocity=41 time=0
note_on channel=1 note=58 velocity=43 time=4
note_off channel=1 note=60 velocity=64 time=80
note_off channel=1 note=64 velocity=64 time=20
note_off channel=1 note=58 velocity=64 time=16
note_off channel=1 note=48 velocity=64 time=4
control_change channel=1 control=64 value=0 time=792
note_on channel=1 note=62 velocity=68 time=368
note_on channel=1 note=55 velocity=51 time=8
note_on channel=1 note=67 velocity=66 time=4
note_on channel=1 note=48 velocity=52 time=24
note_off channel=1 note=62 velocity=64 time=72
note_off channel=1 note=67 velocity=64 time=0
note_off channel=1 note=48 velocity=64 time=12
note_off channel=1 note=55 velocity=64 time=20
note_on channel=1 note=63 velocity=63 time=20
note_off channel=1 note=63 velocity=64 time=260
note_on channel=1 note=55 velocity=55 time=96
note_off channel=1 note=55 velocity=64 time=76
control_change channel=1 control=64 value=0 time=0
note_on channel=1 note=41 velocity=77 time=396
note_off channel=1 note=41 velocity=64 time=44
note_on channel=1 note=64 velocity=95 time=72
note_on channel=1 note=60 velocity=93 time=4
note_off channel=1 note=60 velocity=64 time=216
note_off channel=1 note=64 velocity=64 time=16
note_on channel=1 note=67 velocity=69 time=256
note_on channel=1 note=57 velocity=60 time=4
note_off channel=1 note=67 velocity=64 time=272
note_off channel=1 note=57 velocity=64 time=0
note_on channel=1 note=36 velocity=78 time=72
note_off channel=1 note=36 velocity=64 time=92
note_on channel=1 note=57 velocity=56 time=32
note_on channel=1 note=64 velocity=71 time=0
note_off channel=1 note=57 velocity=64 time=184
note_off channel=1 note=64 velocity=64 time=4
control_change channel=1 control=64 value=0 time=256
note_on channel=1 note=62 velocity=60 time=60
note_on channel=1 note=66 velocity=46 time=0
note_on channel=1 note=60 velocity=52 time=4
note_on channel=1 note=69 velocity=47 time=12
note_off channel=1 note=62 velocity=64 time=100
note_off channel=1 note=69 velocity=64 time=16
note_off channel=1 note=60 velocity=64 time=0
note_off channel=1 note=66 velocity=64 time=0
note_on channel=1 note=50 velocity=76 time=332
note_off channel=1 note=50 velocity=64 time=200
control_change channel=1 control=64 value=0 time=136
note_on channel=1 note=66 velocity=47 time=140
note_on channel=1 note=64 velocity=49 time=4
note_on channel=1 note=50 velocity=41 time=0
note_on channel=1 note=60 velocity=43 time=4
note_off channel=1 note=64 velocity=64 time=80
note_off channel=1 note=66 velocity=64 time=20
note_off channel=1 note=60 velocity=64 time=16
note_off channel=1 note=50 velocity=64 time=4
control_change channel=1 control=64 value=0 time=792
note_on channel=1 note=43 velocity=77 time=396
note_off channel=1 note=43 velocity=64 time=44
note_on channel=1 note=65 velocity=95 time=72
note_on channel=1 note=62 velocity=93 time=4
note_off channel=1 note=62 velocity=64 time=216
note_off channel=1 note=65 velocity=64 time=16
control_change channel=1 control=64 value=0 time=212
note_on channel=1 note=62 velocity=60 time=60
note_on channel=1 note=65 velocity=46 time=0
note_on channel=1 note=59 velocity=52 time=4
note_on channel=1 note=69 velocity=47 time=12
note_off channel=1 note=62 velocity=64 time=100
note_off channel=1 note=69 velocity=64 time=16
note_off channel=1 note=59 velocity=64 time=0
note_off channel=1 note=65 velocity=64 time=0
note_on channel=1 note=43 velocity=76 time=332
note_off channel=1 note=43 velocity=64 time=200
control_change channel=1 control=64 value=0 time=136
note_on channel=1 note=60 velocity=68 time=468
note_on channel=1 note=56 velocity=51 time=8
note_on channel=1 note=68 velocity=66 time=4
note_on channel=1 note=48 velocity=52 time=24
note_off channel=1 note=60 velocity=64 time=72
note_off channel=1 note=68 velocity=64 time=0
note_off channel=1 note=48 velocity=64 time=12
note_off channel=1 note=56 velocity=64 time=20
note_on channel=1 note=63 velocity=63 time=20
note_off channel=1 note=63 velocity=64 time=260
note_on channel=1 note=56 velocity=55 time=96
note_off channel=1 note=56 velocity=64 time=76
control_change channel=1 control=64 value=0 time=0
note_on channel=1 note=62 velocity=58 time=20
note_on channel=1 note=52 velocity=50 time=4
note_on channel=1 note=58 velocity=56 time=4
note_on channel=1 note=67 velocity=61 time=4
note_off channel=1 note=62 velocity=64 time=124
note_off channel=1 note=52 velocity=64 time=16
note_off channel=1 note=58 velocity=64 time=0
note_off channel=1 note=67 velocity=64 time=20
control_change channel=1 control=64 value=0 time=668
note_on channel=1 note=55 velocity=54 time=12
note_on channel=1 note=58 velocity=52 time=0
note_on channel=1 note=51 velocity=47 time=4
note_on channel=1 note=36 velocity=46 time=4
note_off channel=1 note=58 velocity=64 time=672
note_off channel=1 note=51 velocity=64 time=32
note_off channel=1 note=55 velocity=64 time=52
note_off channel=1 note=36 velocity=64 time=64
note_on channel=1 note=47 velocity=62 time=148
note_off channel=1 note=47 velocity=64 time=96
note_on channel=1 note=67 velocity=67 time=12
note_on channel=1 note=48 velocity=48 time=4
note_on channel=1 note=55 velocity=48 time=4
note_on channel=1 note=63 velocity=62 time=0
note_off channel=1 note=55 velocity=64 time=552
note_off channel=1 note=63 velocity=64 time=12
note_off channel=1 note=48 velocity=64 time=16
note_off channel=1 note=67 velocity=64 time=8
control_change channel=1 control=64 value=0 time=328
note_on channel=1 note=67 velocity=46 time=28
note_on channel=1 note=72 velocity=56 time=0
note_on channel=1 note=63 velocity=47 time=12
note_on channel=1 note=57 velocity=58 time=8
note_off channel=1 note=67 velocity=64 time=184
note_off channel=1 note=57 velocity=64 time=0
note_off channel=1 note=72 velocity=64 time=0
note_off channel=1 note=63 velocity=64 time=16
note_on channel=1 note=52 velocity=48 time=700
note_on channel=1 note=69 velocity=74 time=28
note_on channel=1 note=53 velocity=53 time=4
note_on channel=1 note=60 velocity=57 time=24
note_on channel=1 note=63 velocity=61 time=8
note_off channel=1 note=52 velocity=64 time=64
note_off channel=1 note=69 velocity=64 time=76
note_off channel=1 note=63 velocity=64 time=32
note_off channel=1 note=60 velocity=64 time=32
note_off channel=1 note=53 velocity=64 time=80
note_on channel=1 note=67 velocity=59 time=168
note_on channel=1 note=57 velocity=72 time=32
note_on channel=1 note=60 velocity=61 time=4
note_on channel=1 note=51 velocity=67 time=8
note_off channel=1 note=67 velocity=64 time=132
note_off channel=1 note=57 velocity=64 time=4
note_off channel=1 note=60 velocity=64 time=8
note_off channel=1 note=51 velocity=64 time=32
control_change channel=1 control=64 value=0 time=236
note_on channel=1 note=58 velocity=68 time=20
note_on channel=1 note=65 velocity=70 time=16
note_off channel=1 note=58 velocity=64 time=80
note_off channel=1 note=65 velocity=64 time=4
control_change channel=1 control=64 value=0 time=360
note_on channel=1 note=57 velocity=68 time=368
note_on channel=1 note=52 velocity=51 time=8
note_on channel=1 note=64 velocity=66 time=4
note_on channel=1 note=45 velocity=52 time=24
note_off channel=1 note=57 velocity=64 time=72
note_off channel=1 note=64 velocity=64 time=0
note_off channel=1 note=45 velocity=64 time=4
note_off channel=1 note=52 velocity=64 time=0
control_change channel=1 control=64 value=0 time=0
note_on channel=1 note=46 velocity=77 time=396
note_off channel=1 note=46 velocity=64 time=44
note_on channel=1 note=62 velocity=95 time=72
note_on channel=1 note=58 velocity=93 time=4
note_off channel=1 note=58 velocity=64 time=216
note_off channel=1 note=62 velocity=64 time=16
control_change channel=1 control=64 value=0 time=212
note_on channel=1 note=53 velocity=54 time=12
note_on channel=1 note=56 velocity=52 time=0
note_on channel=1 note=49 velocity=47 time=4
note_on channel=1 note=34 velocity=46 time=4
note_off channel=1 note=53 velocity=64 time=460
note_off channel=1 note=34 velocity=64 time=0
note_off channel=1 note=49 velocity=64 time=0
note_off channel=1 note=56 velocity=64 time=0
control_change channel=1 control=64 value=0 time=0
note_on channel=1 note=58 velocity=68 time=20
note_on channel=1 note=65 velocity=70 time=16
note_off channel=1 note=58 velocity=64 time=80
note_off channel=1 note=65 velocity=64 time=4
control_change channel=1 control=64 value=0 time=260
note_on channel=1 note=58 velocity=68 time=20
note_on channel=1 note=65 velocity=70 time=16
note_off channel=1 note=58 velocity=64 time=172
note_off channel=1 note=65 velocity=64 time=4
control_change channel=1 control=64 value=0 time=748
note_on channel=1 note=60 velocity=60 time=160
note_on channel=1 note=62 velocity=46 time=0
note_on channel=1 note=57 velocity=52 time=4
note_on channel=1 note=65 velocity=47 time=12
note_off channel=1 note=60 velocity=64 time=100
note_off channel=1 note=65 velocity=64 time=16
note_off channel=1 note=57 velocity=64 time=0
note_off channel=1 note=62 velocity=64 time=0
control_change channel=1 control=64 value=0 time=288
note_on channel=1 note=59 velocity=68 time=20
note_on channel=1 note=64 velocity=70 time=16
note_off channel=1 note=59 velocity=64 time=80
note_off channel=1 note=64 velocity=64 time=4
control_change channel=1 control=64 value=0 time=360
note_on channel=1 note=58 velocity=68 time=20
note_on channel=1 note=65 velocity=70 time=16
note_off channel=1 note=58 velocity=64 time=80
note_off channel=1 note=65 velocity=64 time=4
control_change channel=1 control=64 value=0 time=360
note_on channel=1 note=64 velocity=68 time=20
note_on channel=1 note=69 velocity=70 time=16
note_off channel=1 note=64 velocity=64 time=80
note_off channel=1 note=69 velocity=64 time=4
control_change channel=1 control=64 value=0 time=360
note_on channel=1 note=69 velocity=74 time=340
note_on channel=1 note=60 velocity=54 time=24
note_on channel=1 note=55 velocity=57 time=0
note_on channel=1 note=67 velocity=59 time=20
note_on channel=1 note=64 velocity=57 time=32
note_off channel=1 note=69 velocity=64 time=544
note_off channel=1 note=64 velocity=64 time=0
note_off channel=1 note=67 velocity=64 time=0
note_off channel=1 note=55 velocity=64 time=0
note_off channel=1 note=60 velocity=64 time=0
control_change channel=1 control=64 value=0 time=0
note_on channel=1 note=62 velocity=68 time=20
note_on channel=1 note=69 velocity=70 time=16
note_off channel=1 note=62 velocity=64 time=80
note_off channel=1 note=69 velocity=64 time=4
control_change channel=1 control=64 value=0 time=840
note_on channel=1 note=62 velocity=60 time=60
note_on channel=1 note=65 velocity=46 time=0
note_on channel=1 note=59 velocity=52 time=4
note_on channel=1 note=69 velocity=47 time=12
note_off channel=1 note=62 velocity=64 time=100
note_off channel=1 note=69 velocity=64 time=16
note_off channel=1 note=59 velocity=64 time=0
note_off channel=1 note=65 velocity=64 time=0
control_change channel=1 control=64 value=0 time=188
note_on channel=1 note=63 velocity=60 time=160
note_on channel=1 note=65 velocity=46 time=0
note_on channel=1 note=59 velocity=52 time=4
note_on channel=1 note=67 velocity=47 time=12
note_off channel=1 note=63 velocity=64 time=100
note_off channel=1 note=67 velocity=64 time=16
note_off channel=1 note=59 velocity=64 time=0
note_off channel=1 note=65 velocity=64 time=0
control_change channel=1 control=64 value=0 time=288
note_on channel=1 note=62 velocity=68 time=368
note_on channel=1 note=57 velocity=51 time=8
note_on channel=1 note=69 velocity=66 time=4
note_on channel=1 note=43 velocity=52 time=24
note_off channel=1 note=62 velocity=64 time=72
note_off channel=1 note=69 velocity=64 time=0
note_off channel=1 note=43 velocity=64 time=12
note_off channel=1 note=57 velocity=64 time=20
note_on channel=1 note=64 velocity=63 time=20
note_off channel=1 note=64 velocity=64 time=260
note_on channel=1 note=57 velocity=55 time=96
note_off channel=1 note=57 velocity=64 time=76
control_change channel=1 control=64 value=0 time=0
note_on channel=1 note=63 velocity=68 time=20
note_on channel=1 note=67 velocity=70 time=16
note_off channel=1 note=63 velocity=64 time=80
note_off channel=1 note=67 velocity=64 time=4
control_change channel=1 control=64 value=0 time=840
note_on channel=1 note=64 velocity=47 time=40
note_on channel=1 note=63 velocity=49 time=4
note_on channel=1 note=48 velocity=41 time=0
note_on channel=1 note=58 velocity=43 time=4
note_off channel=1 note=63 velocity=64 time=80
note_off channel=1 note=64 velocity=64 time=20
note_off channel=1 note=58 velocity=64 time=16
note_off channel=1 note=48 velocity=64 time=4
control_change channel=1 control=64 value=0 time=172
control_change channel=1 control=64 value=0 time=620
control_change channel=1 control=91 value=100 time=0
control_change channel=1 control=11 value=109 time=0
control_change channel=1 control=64 value=127 time=24
note_on channel=1 note=48 velocity=106 time=296
note_on channel=1 note=36 velocity=106 time=0
note_off channel=1 note=48 velocity=64 time=184
note_off channel=1 note=36 velocity=64 time=0
control_change channel=1 control=11 value=109 time=1416
control_change channel=1 control=11 value=108 time=120
control_change channel=1 control=11 value=106 time=120
control_change channel=1 control=11 value=105 time=120
control_change channel=1 control=11 value=104 time=120
control_change channel=1 control=11 value=103 time=120
control_change channel=1 control=11 value=101 time=120
control_change channel=1 control=11 value=100 time=120
control_change channel=1 control=11 value=99 time=120
control_change channel=1 control=11 value=98 time=120
control_change channel=1 control=11 value=96 time=120
control_change channel=1 control=11 value=95 time=120
control_change channel=1 control=11 value=94 time=120
control_change channel=1 control=11 value=93 time=120
control_change channel=1 control=11 value=91 time=120
control_change channel=1 control=11 value=90 time=120
control_change channel=1 control=11 value=89 time=96
control_change channel=1 control=64 value=0 time=24
control_change channel=1 control=91 value=81 time=0
control_change channel=1 control=11 value=90 time=312
note_on channel=1 note=43 velocity=77 time=84
note_off channel=1 note=43 velocity=64 time=44
note_on channel=1 note=65 velocity=95 time=72
note_on channel=1 note=62 velocity=93 time=4
control_change channel=1 control=11 value=91 time=108
note_off channel=1 note=62 velocity=64 time=108
note_off channel=1 note=65 velocity=64 time=16
control_change channel=1 control=64 value=0 time=212
control_change channel=1 control=11 value=93 time=0
note_on channel=1 note=62 velocity=68 time=20
note_on channel=1 note=69 velocity=70 time=16
note_off channel=1 note=62 velocity=64 time=80
note_off channel=1 note=69 velocity=64 time=4
control_change channel=1 control=11 value=94 time=192
control_change channel=1 control=64 value=0 time=168
note_on channel=1 note=63 velocity=68 time=20
note_on channel=1 note=69 velocity=70 time=16
note_off channel=1 note=63 velocity=64 time=80
note_off channel=1 note=69 velocity=64 time=4
control_change channel=1 control=11 value=95 time=48
control_change channel=1 control=11 value=96 time=312
control_change channel=1 control=64 value=0 time=0
note_on channel=1 note=62 velocity=68 time=368
note_on channel=1 note=55 velocity=51 time=8
note_on channel=1 note=67 velocity=66 time=4
note_on channel=1 note=48 velocity=52 time=24
note_off channel=1 note=62 velocity=64 time=72
note_off channel=1 note=67 velocity=64 time=0
note_off channel=1 note=48 velocity=64 time=12
note_off channel=1 note=55 velocity=64 time=20
note_on channel=1 note=63 velocity=63 time=20
note_off channel=1 note=63 velocity=64 time=260
note_on channel=1 note=55 velocity=55 time=96
note_off channel=1 note=55 velocity=64 time=76
control_change channel=1 control=64 value=0 time=0
note_on channel=1 note=64 velocity=47 time=40
note_on channel=1 note=62 velocity=49 time=4
note_on channel=1 note=48 velocity=41 time=0
note_on channel=1 note=58 velocity=43 time=4
note_off channel=1 note=62 velocity=64 time=80
note_off channel=1 note=64 velocity=64 time=20
note_off channel=1 note=58 velocity=64 time=16
note_off channel=1 note=48 velocity=64 time=4
control_change channel=1 control=64 value=0 time=312
control_change channel=1 control=64 value=0 time=380
note_on channel=1 note=60 velocity=60 time=160
note_on channel=1 note=62 velocity=46 time=0
note_on channel=1 note=57 velocity=52 time=4
note_on channel=1 note=65 velocity=47 time=12
note_off channel=1 note=60 velocity=64 time=100
note_off channel=1 note=65 velocity=64 time=16
note_off channel=1 note=57 velocity=64 time=0
note_off channel=1 note=62 velocity=64 time=0
note_on channel=1 note=41 velocity=76 time=332
note_off channel=1 note=41 velocity=64 time=200
control_change channel=1 control=64 value=0 time=236
note_on channel=1 note=60 velocity=47 time=40
note_on channel=1 note=57 velocity=49 time=4
note_on channel=1 note=45 velocity=41 time=0
note_on channel=1 note=55 velocity=43 time=4
note_off channel=1 note=57 velocity=64 time=80
note_off channel=1 note=60 velocity=64 time=20
note_off channel=1 note=55 velocity=64 time=16
note_off channel=1 note=45 velocity=64 time=4
control_change channel=1 control=64 value=0 time=312
note_on channel=1 note=65 velocity=77 time=364
note_on channel=1 note=58 velocity=68 time=4
note_on channel=1 note=49 velocity=67 time=4
note_on channel=1 note=55 velocity=42 time=12
note_off channel=1 note=58 velocity=64 time=52
note_off channel=1 note=55 velocity=64 time=0
note_off channel=1 note=49 velocity=64 time=12
note_off channel=1 note=65 velocity=64 time=4
control_change channel=1 control=64 value=0 time=28
note_on channel=1 note=70 velocity=77 time=364
note_on channel=1 note=64 velocity=68 time=4
note_on channel=1 note=54 velocity=67 time=4
note_on channel=1 note=60 velocity=42 time=12
note_off channel=1 note=64 velocity=64 time=52
note_off channel=1 note=60 velocity=64 time=0
note_off channel=1 note=54 velocity=64 time=12
note_off channel=1 note=70 velocity=64 time=4
note_on channel=1 note=64 velocity=61 time=524
note_on channel=1 note=60 velocity=61 time=12
note_on channel=1 note=70 velocity=59 time=0
note_on channel=1 note=54 velocity=59 time=4
note_off channel=1 note=54 velocity=64 time=60
note_off channel=1 note=64 velocity=64 time=20
note_off channel=1 note=60 velocity=64 time=4
note_off channel=1 note=70 velocity=64 time=8
note_on channel=1 note=53 velocity=55 time=724
note_off channel=1 note=53 velocity=64 time=72
control_change channel=1 control=64 value=0 time=40
note_on channel=1 note=63 velocity=68 time=20
note_on channel=1 note=69 velocity=70 time=16
note_off channel=1 note=63 velocity=64 time=80
note_off channel=1 note=69 velocity=64 time=4
control_change channel=1 control=64 value=0 time=740
note_on channel=1 note=63 velocity=60 time=160
note_on channel=1 note=65 velocity=46 time=0
note_on channel=1 note=59 velocity=52 time=4
note_on channel=1 note=69 velocity=47 time=12
note_off channel=1 note=63 velocity=64 time=100
note_off channel=1 note=69 velocity=64 time=16
note_off channel=1 note=59 velocity=64 time=0
note_off channel=1 note=65 velocity=64 time=0
control_change channel=1 control=64 value=0 time=288
note_on channel=1 note=62 velocity=68 time=20
note_on channel=1 note=69 velocity=70 time=16
note_off channel=1 note=62 velocity=64 time=80
note_off channel=1 note=69 velocity=64 time=4
control_change channel=1 control=64 value=0 time=260
note_on channel=1 note=60 velocity=68 time=468
note_on channel=1 note=55 velocity=51 time=8
note_on channel=1 note=67 velocity=66 time=4
note_on channel=1 note=48 velocity=52 time=24
note_off channel=1 note=60 velocity=64 time=72
note_off channel=1 note=67 velocity=64 time=0
note_off channel=1 note=48 velocity=64 time=12
note_off channel=1 note=55 velocity=64 time=20
note_on channel=1 note=63 velocity=63 time=20
note_off channel=1 note=63 velocity=64 time=260
note_on channel=1 note=55 velocity=55 time=96
note_off channel=1 note=55 velocity=64 time=76
control_change channel=1 control=64 value=0 time=0
control_change channel=1 control=64 value=0 time=380
note_on channel=1 note=62 velocity=58 time=20
note_on channel=1 note=52 velocity=50 time=4
note_on channel=1 note=58 velocity=56 time=4
note_on channel=1 note=67 velocity=61 time=4
note_off channel=1 note=62 velocity=64 time=216
note_off channel=1 note=52 velocity=64 time=16
note_off channel=1 note=58 velocity=64 time=0
note_off channel=1 note=67 velocity=64 time=20
control_change channel=1 control=64 value=0 time=196
note_on channel=1 note=67 velocity=77 time=464
note_on channel=1 note=60 velocity=68 time=4
note_on channel=1 note=51 velocity=67 time=4
note_on channel=1 note=58 velocity=42 time=12
note_off channel=1 note=60 velocity=64 time=52
note_off channel=1 note=58 velocity=64 time=0
note_off channel=1 note=51 velocity=64 time=12
note_off channel=1 note=67 velocity=64 time=4
note_on channel=1 note=60 velocity=61 time=524
note_on channel=1 note=58 velocity=61 time=12
note_on channel=1 note=67 velocity=59 time=0
note_on channel=1 note=51 velocity=59 time=4
note_off channel=1 note=51 velocity=64 time=60
note_off channel=1 note=60 velocity=64 time=20
note_off channel=1 note=58 velocity=64 time=4
note_off channel=1 note=67 velocity=64 time=8
control_change channel=1 control=64 value=0 time=836
note_on channel=1 note=67 velocity=77 time=364
note_on channel=1 note=60 velocity=68 time=4
note_on channel=1 note=51 velocity=67 time=4
note_on channel=1 note=58 velocity=42 time=12
note_off channel=1 note=60 velocity=64 time=52
note_off channel=1 note=58 velocity=64 time=0
note_off channel=1 note=51 velocity=64 time=12
note_off channel=1 note=67 velocity=64 time=4
control_change channel=1 control=64 value=0 time=508
note_on channel=1 note=73 velocity=74 time=340
note_on channel=1 note=63 velocity=54 time=24
note_on channel=1 note=57 velocity=57 time=0
note_on channel=1 note=69 velocity=59 time=20
note_on channel=1 note=65 velocity=57 time=32
note_off channel=1 note=73 velocity=64 time=544
note_off channel=1 note=65 velocity=64 time=0
note_off channel=1 note=69 velocity=64 time=0
note_off channel=1 note=57 velocity=64 time=0
note_off channel=1 note=63 velocity=64 time=0
control_change channel=1 control=64 value=0 time=0
control_change channel=1 control=11 value=109 time=0
note_on channel=1 note=58 velocity=44 time=20
note_on channel=1 note=50 velocity=44 time=4
note_on channel=1 note=55 velocity=44 time=4
note_on channel=1 note=65 velocity=44 time=4
note_off channel=1 note=58 velocity=64 time=124
note_off channel=1 note=50 velocity=64 time=16
note_off channel=1 note=55 velocity=64 time=0
note_off channel=1 note=65 velocity=64 time=20
note_on channel=1 note=73 velocity=83 time=670
note_off channel=1 note=73 velocity=46 time=93
note_on channel=1 note=74 velocity=55 time=70
note_off channel=1 note=74 velocity=58 time=261
note_on channel=1 note=77 velocity=67 time=29
note_on channel=1 note=55 velocity=44 time=69
note_off channel=1 note=55 velocity=64 time=40
note_on channel=1 note=79 velocity=86 time=14
note_off channel=1 note=77 velocity=60 time=14
note_on channel=1 note=70 velocity=44 time=8
note_on channel=1 note=55 velocity=44 time=4
note_on channel=1 note=62 velocity=44 time=8
note_on channel=1 note=65 velocity=44 time=0
note_off channel=1 note=79 velocity=55 time=64
note_off channel=1 note=62 velocity=64 time=120
note_off channel=1 note=70 velocity=64 time=124
note_off channel=1 note=55 velocity=64 time=0
note_off channel=1 note=65 velocity=64 time=0
control_change channel=1 control=64 value=0 time=40
note_on channel=1 note=80 velocity=83 time=107
note_on channel=1 note=65 velocity=44 time=357
note_on channel=1 note=58 velocity=44 time=4
note_on channel=1 note=49 velocity=44 time=4
note_on channel=1 note=56 velocity=44 time=12
note_off channel=1 note=58 velocity=64 time=52
note_off channel=1 note=56 velocity=64 time=0
note_off channel=1 note=49 velocity=64 time=12
note_off channel=1 note=65 velocity=64 time=4
note_off channel=1 note=80 velocity=37 time=381
note_on channel=1 note=77 velocity=67 time=29
control_change channel=1 control=64 value=0 time=98
note_on channel=1 note=70 velocity=44 time=340
note_on channel=1 note=61 velocity=44 time=24
note_on channel=1 note=55 velocity=44 time=0
note_on channel=1 note=67 velocity=44 time=20
note_on channel=1 note=65 velocity=44 time=32
note_off channel=1 note=70 velocity=64 time=544
note_off channel=1 note=65 velocity=64 time=0
note_off channel=1 note=67 velocity=64 time=0
note_off channel=1 note=55 velocity=64 time=0
note_off channel=1 note=61 velocity=64 time=0
control_change channel=1 control=64 value=0 time=0
note_off channel=1 note=77 velocity=33 time=34
note_on channel=1 note=60 velocity=44 time=334
note_on channel=1 note=53 velocity=44 time=8
note_on channel=1 note=65 velocity=44 time=4
note_on channel=1 note=41 velocity=44 time=24
note_off channel=1 note=60 velocity=64 time=72
note_off channel=1 note=65 velocity=64 time=0
note_off channel=1 note=41 velocity=64 time=12
note_off channel=1 note=53 velocity=64 time=20
note_on channel=1 note=62 velocity=44 time=20
note_off channel=1 note=62 velocity=64 time=260
note_on channel=1 note=73 velocity=75 time=62
note_on channel=1 note=53 velocity=44 time=34
note_off channel=1 note=53 velocity=64 time=88
note_off channel=1 note=73 velocity=42 time=12
note_on channel=1 note=57 velocity=44 time=16
note_on channel=1 note=62 velocity=44 time=0
note_on channel=1 note=74 velocity=55 time=34
note_off channel=1 note=57 velocity=64 time=154
note_off channel=1 note=62 velocity=64 time=8
note_off channel=1 note=74 velocity=58 time=107
note_on channel=1 note=77 velocity=86 time=15
note_off channel=1 note=77 velocity=57 time=144
note_on channel=1 note=79 velocity=89 time=16
note_off channel=1 note=79 velocity=33 time=178
note_on channel=1 note=50 velocity=44 time=156
note_off channel=1 note=50 velocity=64 time=72
control_change channel=1 control=64 value=0 time=36
note_on channel=1 note=66 velocity=44 time=0
note_on channel=1 note=69 velocity=44 time=16
note_on channel=1 note=54 velocity=44 time=0
note_on channel=1 note=60 velocity=44 time=0
note_on channel=1 note=80 velocity=96 time=10
note_off channel=1 note=69 velocity=64 time=174
note_off channel=1 note=66 velocity=64 time=568
note_off channel=1 note=60 velocity=64 time=4
note_off channel=1 note=54 velocity=64 time=0
note_off channel=1 note=80 velocity=42 time=46
note_on channel=1 note=77 velocity=83 time=27
note_on channel=1 note=69 velocity=44 time=115
note_on channel=1 note=65 velocity=44 time=0
note_on channel=1 note=60 velocity=44 time=0
note_on channel=1 note=50 velocity=44 time=0
note_off channel=1 note=65 velocity=64 time=128
note_on channel=1 note=66 velocity=44 time=32
note_off channel=1 note=50 velocity=64 time=448
note_off channel=1 note=60 velocity=64 time=0
note_off channel=1 note=69 velocity=64 time=0
note_off channel=1 note=66 velocity=64 time=288
control_change channel=1 control=64 value=0 time=64
note_off channel=1 note=77 velocity=44 time=34
note_on channel=1 note=67 velocity=44 time=330
note_on channel=1 note=62 velocity=44 time=4
note_on channel=1 note=53 velocity=44 time=4
note_on channel=1 note=59 velocity=44 time=12
note_off channel=1 note=62 velocity=64 time=52
note_off channel=1 note=59 velocity=64 time=0
note_off channel=1 note=53 velocity=64 time=12
note_off channel=1 note=67 velocity=64 time=4
note_on channel=1 note=73 velocity=92 time=388
note_off channel=1 note=73 velocity=53 time=127
note_on channel=1 note=62 velocity=44 time=9
note_on channel=1 note=59 velocity=44 time=12
note_on channel=1 note=67 velocity=44 time=0
note_on channel=1 note=53 velocity=44 time=4
note_on channel=1 note=74 velocity=73 time=6
note_off channel=1 note=53 velocity=64 time=54
note_off channel=1 note=62 velocity=64 time=20
note_off channel=1 note=59 velocity=64 time=4
note_off channel=1 note=67 velocity=64 time=8
note_off channel=1 note=74 velocity=58 time=195
note_on channel=1 note=77 velocity=86 time=17
note_off channel=1 note=77 velocity=62 time=134
note_on channel=1 note=79 velocity=96 time=29
note_off channel=1 note=79 velocity=58 time=108
control_change channel=1 control=64 value=0 time=253
note_on channel=1 note=80 velocity=90 time=129
note_off channel=1 note=80 velocity=50 time=290
note_on channel=1 note=67 velocity=44 time=45
note_on channel=1 note=60 velocity=44 time=4
note_on channel=1 note=83 velocity=89 time=2
note_on channel=1 note=52 velocity=44 time=2
note_on channel=1 note=58 velocity=44 time=12
note_off channel=1 note=60 velocity=64 time=52
note_off channel=1 note=58 velocity=64 time=0
note_off channel=1 note=52 velocity=64 time=12
note_off channel=1 note=67 velocity=64 time=4
note_on channel=1 note=60 velocity=44 time=524
note_on channel=1 note=58 velocity=44 time=12
note_on channel=1 note=67 velocity=44 time=0
note_on channel=1 note=52 velocity=44 time=4
note_off channel=1 note=52 velocity=64 time=60
note_off channel=1 note=60 velocity=64 time=20
note_off channel=1 note=58 velocity=64 time=4
note_off channel=1 note=67 velocity=64 time=8
note_off channel=1 note=83 velocity=59 time=190
note_on channel=1 note=82 velocity=63 time=53
note_off channel=1 note=82 velocity=40 time=166
note_on channel=1 note=80 velocity=69 time=12
note_off channel=1 note=80 velocity=55 time=278
note_on channel=1 note=51 velocity=44 time=25
note_on channel=1 note=77 velocity=83 time=11
note_off channel=1 note=51 velocity=64 time=61
control_change channel=1 control=64 value=0 time=40
control_change channel=1 control=11 value=109 time=0
note_on channel=1 note=65 velocity=44 time=368
note_on channel=1 note=57 velocity=44 time=8
note_on channel=1 note=69 velocity=44 time=4
note_on channel=1 note=41 velocity=44 time=24
note_off channel=1 note=65 velocity=64 time=72
note_off channel=1 note=69 velocity=64 time=0
control_change channel=1 control=11 value=108 time=4
note_off channel=1 note=41 velocity=64 time=8
note_off channel=1 note=57 velocity=64 time=20
note_on channel=1 note=64 velocity=44 time=20
note_off channel=1 note=64 velocity=64 time=260
note_on channel=1 note=57 velocity=44 time=96
control_change channel=1 control=11 value=106 time=76
note_off channel=1 note=57 velocity=64 time=12
note_on channel=1 note=60 velocity=44 time=28
note_on channel=1 note=65 velocity=44 time=0
note_off channel=1 note=60 velocity=64 time=188
note_off channel=1 note=65 velocity=64 time=8
control_change channel=1 control=11 value=105 time=244
control_change channel=1 control=64 value=0 time=380
note_on channel=1 note=58 velocity=58 time=20
note_on channel=1 note=49 velocity=50 time=4
note_on channel=1 note=55 velocity=56 time=4
note_on channel=1 note=63 velocity=61 time=4
control_change channel=1 control=11 value=104 time=44
note_off channel=1 note=77 velocity=47 time=22
note_off channel=1 note=58 velocity=64 time=150
note_off channel=1 note=55 velocity=64 time=16
note_off channel=1 note=49 velocity=64 time=0
note_off channel=1 note=63 velocity=64 time=20
control_change channel=1 control=64 value=0 time=296
note_on channel=1 note=65 velocity=60 time=60
note_on channel=1 note=66 velocity=46 time=0
note_on channel=1 note=60 velocity=52 time=4
note_on channel=1 note=69 velocity=47 time=12
note_off channel=1 note=65 velocity=64 time=100
note_off channel=1 note=69 velocity=64 time=16
note_off channel=1 note=60 velocity=64 time=0
note_off channel=1 note=66 velocity=64 time=0
control_change channel=1 control=64 value=0 time=188
note_on channel=1 note=65 velocity=58 time=20
note_on channel=1 note=54 velocity=50 time=4
note_on channel=1 note=60 velocity=56 time=4
note_on channel=1 note=69 velocity=61 time=4
note_off channel=1 note=65 velocity=64 time=216
note_off channel=1 note=54 velocity=64 time=16
note_off channel=1 note=60 velocity=64 time=0
note_off channel=1 note=69 velocity=64 time=20
control_change channel=1 control=64 value=0 time=676
note_on channel=1 note=62 velocity=68 time=20
note_on channel=1 note=69 velocity=70 time=16
note_off channel=1 note=62 velocity=64 time=172
note_off channel=1 note=69 velocity=64 time=4
control_change channel=1 control=64 value=0 time=848
note_on channel=1 note=55 velocity=54 time=12
note_on channel=1 note=59 velocity=52 time=0
note_on channel=1 note=53 velocity=47 time=4
note_on channel=1 note=43 velocity=46 time=4
note_off channel=1 note=55 velocity=64 time=320
note_off channel=1 note=43 velocity=64 time=0
note_off channel=1 note=53 velocity=64 time=0
note_off channel=1 note=59 velocity=64 time=0
control_change channel=1 control=64 value=0 time=40
note_on channel=1 note=65 velocity=47 time=140
note_on channel=1 note=62 velocity=49 time=4
note_on channel=1 note=43 velocity=41 time=0
note_on channel=1 note=59 velocity=43 time=4
note_off channel=1 note=62 velocity=64 time=80
note_off channel=1 note=65 velocity=64 time=20
note_off channel=1 note=59 velocity=64 time=16
note_off channel=1 note=43 velocity=64 time=4
control_change channel=1 control=64 value=0 time=212
note_on channel=1 note=67 velocity=77 time=464
note_on channel=1 note=62 velocity=68 time=4
note_on channel=1 note=52 velocity=67 time=4
note_on channel=1 note=58 velocity=42 time=12
note_off channel=1 note=62 velocity=64 time=52
note_off channel=1 note=58 velocity=64 time=0
note_off channel=1 note=52 velocity=64 time=12
note_off channel=1 note=67 velocity=64 time=4
control_change channel=1 control=64 value=0 time=408
note_on channel=1 note=63 velocity=68 time=468
note_on channel=1 note=55 velocity=51 time=8
note_on channel=1 note=67 velocity=66 time=4
note_on channel=1 note=48 velocity=52 time=24
note_off channel=1 note=63 velocity=64 time=72
note_off channel=1 note=67 velocity=64 time=0
note_off channel=1 note=48 velocity=64 time=4
note_off channel=1 note=55 velocity=64 time=0
control_change channel=1 control=64 value=0 time=0
control_change channel=1 control=64 value=0 time=380
note_on channel=1 note=62 velocity=47 time=140
note_on channel=1 note=60 velocity=49 time=4
note_on channel=1 note=41 velocity=41 time=0
note_on channel=1 note=57 velocity=43 time=4
note_off channel=1 note=60 velocity=64 time=80
note_off channel=1 note=62 velocity=64 time=20
note_off channel=1 note=57 velocity=64 time=16
note_off channel=1 note=41 velocity=64 time=4
control_change channel=1 control=64 value=0 time=792
note_on channel=1 note=53 velocity=54 time=12
note_on channel=1 note=56 velocity=52 time=0
note_on channel=1 note=50 velocity=47 time=4
note_on channel=1 note=41 velocity=46 time=4
note_off channel=1 note=53 velocity=64 time=320
note_off channel=1 note=41 velocity=64 time=0
note_off channel=1 note=50 velocity=64 time=0
note_off channel=1 note=56 velocity=64 time=0
control_change channel=1 control=64 value=0 time=40
note_on channel=1 note=60 velocity=68 time=468
note_on channel=1 note=53 velocity=51 time=8
note_on channel=1 note=65 velocity=66 time=4
note_on channel=1 note=41 velocity=52 time=24
note_off channel=1 note=60 velocity=64 time=72
note_off channel=1 note=65 velocity=64 time=0
note_off channel=1 note=41 velocity=64 time=4
note_off channel=1 note=53 velocity=64 time=0
control_change channel=1 control=64 value=0 time=0
note_on channel=1 note=57 velocity=54 time=12
note_on channel=1 note=60 velocity=52 time=0
note_on channel=1 note=54 velocity=47 time=4
note_on channel=1 note=38 velocity=46 time=4
note_off channel=1 note=60 velocity=64 time=580
note_off channel=1 note=54 velocity=64 time=32
note_off channel=1 note=57 velocity=64 time=52
note_off channel=1 note=38 velocity=64 time=64
note_on channel=1 note=49 velocity=62 time=140
note_off channel=1 note=49 velocity=64 time=72
control_change channel=1 control=64 value=0 time=0
note_on channel=1 note=62 velocity=60 time=60
note_on channel=1 note=66 velocity=46 time=0
note_on channel=1 note=60 velocity=52 time=4
note_on channel=1 note=69 velocity=47 time=12
note_off channel=1 note=62 velocity=64 time=100
note_off channel=1 note=69 velocity=64 time=16
note_off channel=1 note=60 velocity=64 time=0
note_off channel=1 note=66 velocity=64 time=0
control_change channel=1 control=64 value=0 time=288
note_on channel=1 note=64 velocity=68 time=368
note_on channel=1 note=57 velocity=51 time=8
note_on channel=1 note=69 velocity=66 time=4
note_on channel=1 note=50 velocity=52 time=24
note_off channel=1 note=64 velocity=64 time=72
note_off channel=1 note=69 velocity=64 time=0
note_off channel=1 note=50 velocity=64 time=4
note_off channel=1 note=57 velocity=64 time=0
control_change channel=1 control=64 value=0 time=0
note_on channel=1 note=69 velocity=77 time=364
note_on channel=1 note=62 velocity=68 time=4
note_on channel=1 note=53 velocity=67 time=4
note_on channel=1 note=59 velocity=42 time=12
note_off channel=1 note=62 velocity=64 time=52
note_off channel=1 note=59 velocity=64 time=0
note_off channel=1 note=53 velocity=64 time=12
note_off channel=1 note=69 velocity=64 time=4
control_change channel=1 control=64 value=0 time=508
note_on channel=1 note=62 velocity=68 time=20
note_on channel=1 note=69 velocity=70 time=16
note_off channel=1 note=62 velocity=64 time=80
note_off channel=1 note=69 velocity=64 time=4
control_change channel=1 control=64 value=0 time=260
note_on channel=1 note=65 velocity=47 time=140
note_on channel=1 note=62 velocity=49 time=4
note_on channel=1 note=43 velocity=41 time=0
note_on channel=1 note=59 velocity=43 time=4
note_off channel=1 note=62 velocity=64 time=80
note_off channel=1 note=65 velocity=64 time=20
note_off channel=1 note=59 velocity=64 time=16
note_off channel=1 note=43 velocity=64 time=4
control_change channel=1 control=64 value=0 time=312
note_on channel=1 note=65 velocity=47 time=40
note_on channel=1 note=62 velocity=49 time=4
note_on channel=1 note=43 velocity=41 time=0
note_on channel=1 note=58 velocity=43 time=4
note_off channel=1 note=62 velocity=64 time=80
note_off channel=1 note=65 velocity=64 time=20
note_off channel=1 note=58 velocity=64 time=16
note_off channel=1 note=43 velocity=64 time=4
control_change channel=1 control=64 value=0 time=792
note_on channel=1 note=62 velocity=68 time=368
note_on channel=1 note=55 velocity=51 time=8
note_on channel=1 note=67 velocity=66 time=4
note_on channel=1 note=48 velocity=52 time=24
note_off channel=1 note=62 velocity=64 time=72
note_off channel=1 note=67 velocity=64 time=0
note_off channel=1 note=48 velocity=64 time=12
note_off channel=1 note=55 velocity=64 time=20
note_on channel=1 note=63 velocity=63 time=20
note_off channel=1 note=63 velocity=64 time=260
control_change channel=1 control=64 value=0 time=72
note_on channel=1 note=72 velocity=74 time=440
note_on channel=1 note=63 velocity=54 time=24
note_on channel=1 note=58 velocity=57 time=0
note_on channel=1 note=70 velocity=59 time=20
note_on channel=1 note=67 velocity=57 time=32
note_off channel=1 note=72 velocity=64 time=1392
note_off channel=1 note=63 velocity=64 time=40
note_off channel=1 note=70 velocity=64 time=20
note_off channel=1 note=58 velocity=64 time=52
note_off channel=1 note=67 velocity=64 time=0
control_change channel=1 control=64 value=0 time=0
note_on channel=1 note=51 velocity=46 time=16
note_on channel=1 note=60 velocity=56 time=4
note_on channel=1 note=57 velocity=46 time=4
note_on channel=1 note=36 velocity=75 time=1276
note_off channel=1 note=51 velocity=64 time=12
note_off channel=1 note=36 velocity=64 time=40
note_off channel=1 note=57 velocity=64 time=332
note_off channel=1 note=60 velocity=64 time=0
control_change channel=1 control=64 value=0 time=136
note_on channel=1 note=62 velocity=47 time=140
note_on channel=1 note=58 velocity=49 time=4
note_on channel=1 note=46 velocity=41 time=0
note_on channel=1 note=57 velocity=43 time=4
note_off channel=1 note=58 velocity=64 time=80
note_off channel=1 note=62 velocity=64 time=20
note_off channel=1 note=57 velocity=64 time=16
note_off channel=1 note=46 velocity=64 time=4
control_change channel=1 control=64 value=0 time=792
note_on channel=1 note=58 velocity=60 time=60
note_on channel=1 note=62 velocity=46 time=0
note_on channel=1 note=55 velocity=52 time=4
note_on channel=1 note=65 velocity=47 time=12
note_off channel=1 note=58 velocity=64 time=100
note_off channel=1 note=65 velocity=64 time=16
note_off channel=1 note=55 velocity=64 time=0
note_off channel=1 note=62 velocity=64 time=0
note_on channel=1 note=46 velocity=76 time=332
note_off channel=1 note=46 velocity=64 time=200
control_change channel=1 control=64 value=0 time=136
note_on channel=1 note=47 velocity=77 time=496
note_off channel=1 note=47 velocity=64 time=44
note_on channel=1 note=62 velocity=95 time=72
note_on channel=1 note=59 velocity=93 time=4
note_off channel=1 note=59 velocity=64 time=216
note_off channel=1 note=62 velocity=64 time=16
control_change channel=1 control=64 value=0 time=212
note_on channel=1 note=71 velocity=74 time=340
note_on channel=1 note=62 velocity=54 time=24
note_on channel=1 note=56 velocity=57 time=0
note_on channel=1 note=68 velocity=59 time=20
note_on channel=1 note=64 velocity=57 time=32
note_off channel=1 note=71 velocity=64 time=544
note_off channel=1 note=64 velocity=64 time=0
note_off channel=1 note=68 velocity=64 time=0
note_off channel=1 note=56 velocity=64 time=0
note_off channel=1 note=62 velocity=64 time=0
control_change channel=1 control=64 value=0 time=0
note_on channel=1 note=48 velocity=46 time=16
note_on channel=1 note=57 velocity=56 time=4
note_on channel=1 note=55 velocity=46 time=4
note_on channel=1 note=40 velocity=75 time=1276
note_off channel=1 note=48 velocity=64 time=12
note_off channel=1 note=40 velocity=64 time=40
note_off channel=1 note=55 velocity=64 time=332
note_off channel=1 note=57 velocity=64 time=0
control_change channel=1 control=64 value=0 time=236
note_on channel=1 note=76 velocity=74 time=340
note_on channel=1 note=66 velocity=54 time=24
note_on channel=1 note=60 velocity=57 time=0
note_on channel=1 note=72 velocity=59 time=20
note_on channel=1 note=70 velocity=57 time=32
note_off channel=1 note=66 velocity=64 time=1364
note_off channel=1 note=70 velocity=64 time=0
note_off channel=1 note=72 velocity=64 time=0
note_off channel=1 note=60 velocity=64 time=0
note_off channel=1 note=76 velocity=64 time=28
control_change channel=1 control=64 value=0 time=12
note_on channel=1 note=67 velocity=46 time=160
note_on channel=1 note=62 velocity=52 time=4
note_on channel=1 note=70 velocity=47 time=12
note_off channel=1 note=67 velocity=64 time=100
note_off channel=1 note=70 velocity=64 time=16
note_off channel=1 note=62 velocity=64 time=0
note_on channel=1 note=43 velocity=76 time=332
note_off channel=1 note=43 velocity=64 time=200
control_change channel=1 control=64 value=0 time=236
note_on channel=1 note=70 velocity=77 time=364
note_on channel=1 note=67 velocity=68 time=4
note_on channel=1 note=55 velocity=67 time=4
note_on channel=1 note=62 velocity=42 time=12
note_off channel=1 note=67 velocity=64 time=52
note_off channel=1 note=62 velocity=64 time=0
note_off channel=1 note=55 velocity=64 time=12
note_off channel=1 note=70 velocity=64 time=4
control_change channel=1 control=64 value=0 time=508
note_on channel=1 note=74 velocity=74 time=340
note_on channel=1 note=65 velocity=54 time=24
note_on channel=1 note=58 velocity=57 time=0
note_on channel=1 note=70 velocity=59 time=20
note_on channel=1 note=67 velocity=57 time=32
note_off channel=1 note=74 velocity=64 time=544
note_off channel=1 note=67 velocity=64 time=0
note_off channel=1 note=70 velocity=64 time=0
note_off channel=1 note=58 velocity=64 time=0
note_off channel=1 note=65 velocity=64 time=0
control_change channel=1 control=64 value=0 time=0
note_on channel=1 note=62 velocity=58 time=20
note_on channel=1 note=53 velocity=50 time=4
note_on channel=1 note=58 velocity=56 time=4
note_on channel=1 note=67 velocity=61 time=4
note_off channel=1 note=62 velocity=64 time=124
note_off channel=1 note=53 velocity=64 time=16
note_off channel=1 note=58 velocity=64 time=0
note_off channel=1 note=67 velocity=64 time=20
control_change channel=1 control=64 value=0 time=288
control_change channel=1 control=64 value=0 time=380
note_on channel=1 note=57 velocity=58 time=20
note_on channel=1 note=48 velocity=50 time=4
note_on channel=1 note=55 velocity=56 time=4
note_on channel=1 note=64 velocity=61 time=4
note_off channel=1 note=57 velocity=64 time=216
note_off channel=1 note=48 velocity=64 time=16
note_off channel=1 note=55 velocity=64 time=0
note_off channel=1 note=64 velocity=64 time=20
note_on channel=1 note=53 velocity=42 time=1200
note_off channel=1 note=53 velocity=64 time=40
note_on channel=1 note=69 velocity=84 time=36
note_on channel=1 note=55 velocity=56 time=4
note_on channel=1 note=60 velocity=51 time=8
note_on channel=1 note=64 velocity=62 time=0
note_off channel=1 note=60 velocity=64 time=184
note_off channel=1 note=64 velocity=64 time=124
note_off channel=1 note=69 velocity=64 time=0
note_off channel=1 note=55 velocity=64 time=0
control_change channel=1 control=64 value=0 time=40
note_on channel=1 note=51 velocity=54 time=12
note_on channel=1 note=55 velocity=52 time=0
note_on channel=1 note=49 velocity=47 time=4
note_on channel=1 note=39 velocity=46 time=4
note_off channel=1 note=55 velocity=64 time=672
note_off channel=1 note=49 velocity=64 time=32
note_off channel=1 note=51 velocity=64 time=52
note_off channel=1 note=39 velocity=64 time=64
note_on channel=1 note=38 velocity=62 time=148
note_off channel=1 note=38 velocity=64 time=72
control_change channel=1 control=64 value=0 time=0
control_change channel=1 control=11 value=109 time=0
note_on channel=1 note=64 velocity=68 time=20
note_on channel=1 note=69 velocity=70 time=16
note_off channel=1 note=64 velocity=64 time=80
note_off channel=1 note=69 velocity=64 time=4
control_change channel=1 control=11 value=106 time=0
control_change channel=1 control=11 value=104 time=120
control_change channel=1 control=11 value=101 time=120
control_change channel=1 control=11 value=99 time=120
control_change channel=1 control=64 value=0 time=0
note_on channel=1 note=58 velocity=54 time=12
note_on channel=1 note=60 velocity=52 time=0
note_on channel=1 note=54 velocity=47 time=4
note_on channel=1 note=44 velocity=46 time=4
control_change channel=1 control=11 value=96 time=100
control_change channel=1 control=11 value=94 time=120
control_change channel=1 control=11 value=91 time=120
note_off channel=1 note=58 velocity=64 time=120
note_off channel=1 note=44 velocity=64 time=0
note_off channel=1 note=54 velocity=64 time=0
note_off channel=1 note=60 velocity=64 time=0
control_change channel=1 control=64 value=0 time=0
control_change channel=1 control=11 value=89 time=0
note_on channel=1 note=74 velocity=74 time=340
note_on channel=1 note=65 velocity=54 time=24
note_on channel=1 note=59 velocity=57 time=0
note_on channel=1 note=71 velocity=59 time=20
note_on channel=1 note=69 velocity=57 time=32
note_off channel=1 note=74 velocity=64 time=404
note_off channel=1 note=69 velocity=64 time=0
note_off channel=1 note=71 velocity=64 time=0
note_off channel=1 note=59 velocity=64 time=0
note_off channel=1 note=65 velocity=64 time=0
control_change channel=1 control=64 value=0 time=40
note_on channel=1 note=62 velocity=68 time=20
note_on channel=1 note=69 velocity=70 time=16
note_off channel=1 note=62 velocity=64 time=172
note_off channel=1 note=69 velocity=64 time=4
control_change channel=1 control=64 value=0 time=848
note_on channel=1 note=64 velocity=47 time=40
note_on channel=1 note=60 velocity=49 time=4
note_on channel=1 note=48 velocity=41 time=0
note_on channel=1 note=58 velocity=43 time=4
note_off channel=1 note=60 velocity=64 time=80
note_off channel=1 note=64 velocity=64 time=20
note_off channel=1 note=58 velocity=64 time=16
note_off channel=1 note=48 velocity=64 time=4
control_change channel=1 control=64 value=0 time=792
note_on channel=1 note=67 velocity=77 time=364
note_on channel=1 note=62 velocity=68 time=4
note_on channel=1 note=52 velocity=67 time=4
note_on channel=1 note=58 velocity=42 time=12
note_off channel=1 note=62 velocity=64 time=52
note_off channel=1 note=58 velocity=64 time=0
note_off channel=1 note=52 velocity=64 time=12
note_off channel=1 note=67 velocity=64 time=4
control_change channel=1 control=64 value=0 time=508
note_on channel=1 note=41 velocity=77 time=396
note_off channel=1 note=41 velocity=64 time=44
note_on channel=1 note=64 velocity=95 time=72
note_on channel=1 note=60 velocity=93 time=4
note_off channel=1 note=60 velocity=64 time=216
note_off channel=1 note=64 velocity=64 time=16
note_on channel=1 note=67 velocity=69 time=256
note_on channel=1 note=57 velocity=60 time=4
note_off channel=1 note=67 velocity=64 time=272
note_off channel=1 note=57 velocity=64 time=0
note_on channel=1 note=36 velocity=78 time=72
note_off channel=1 note=36 velocity=64 time=92
note_on channel=1 note=57 velocity=56 time=32
note_on channel=1 note=64 velocity=71 time=0
note_off channel=1 note=57 velocity=64 time=184
note_off channel=1 note=64 velocity=64 time=4
control_change channel=1 control=64 value=0 time=256
note_on channel=1 note=62 velocity=58 time=20
note_on channel=1 note=54 velocity=50 time=4
note_on channel=1 note=60 velocity=56 time=4
note_on channel=1 note=69 velocity=61 time=4
note_off channel=1 note=62 velocity=64 time=124
note_off channel=1 note=54 velocity=64 time=16
note_off channel=1 note=60 velocity=64 time=0
note_off channel=1 note=69 velocity=64 time=20
control_change channel=1 control=64 value=0 time=668
note_on channel=1 note=64 velocity=58 time=20
note_on channel=1 note=54 velocity=50 time=4
note_on channel=1 note=60 velocity=56 time=4
note_on channel=1 note=69 velocity=61 time=4
note_off channel=1 note=64 velocity=64 time=216
note_off channel=1 note=54 velocity=64 time=16
note_off channel=1 note=60 velocity=64 time=0
note_off channel=1 note=69 velocity=64 time=20
control_change channel=1 control=64 value=0 time=676
note_on channel=1 note=69 velocity=77 time=464
note_on channel=1 note=62 velocity=68 time=4
note_on channel=1 note=53 velocity=67 time=4
note_on channel=1 note=59 velocity=42 time=12
note_off channel=1 note=62 velocity=64 time=52
note_off channel=1 note=59 velocity=64 time=0
note_off channel=1 note=53 velocity=64 time=12
note_off channel=1 note=69 velocity=64 time=4
control_change channel=1 control=64 value=0 time=408
note_on channel=1 note=43 velocity=77 time=496
note_off channel=1 note=43 velocity=64 time=44
note_on channel=1 note=65 velocity=95 time=72
note_on channel=1 note=62 velocity=93 time=4
note_off channel=1 note=62 velocity=64 time=216
note_off channel=1 note=65 velocity=64 time=16
control_change channel=1 control=64 value=0 time=112
note_on channel=1 note=60 velocity=68 time=20
note_on channel=1 note=68 velocity=70 time=16
note_off channel=1 note=60 velocity=64 time=172
note_off channel=1 note=68 velocity=64 time=4
control_change channel=1 control=64 value=0 time=748
note_on channel=1 note=67 velocity=77 time=464
note_on channel=1 note=62 velocity=68 time=4
note_on channel=1 note=52 velocity=67 time=4
note_on channel=1 note=58 velocity=42 time=12
note_off channel=1 note=62 velocity=64 time=52
note_off channel=1 note=58 velocity=64 time=0
note_off channel=1 note=52 velocity=64 time=12
note_off channel=1 note=67 velocity=64 time=4
control_change channel=1 control=64 value=0 time=508
control_change channel=1 control=11 value=89 time=0
control_change channel=1 control=11 value=90 time=240
note_on channel=1 note=67 velocity=77 time=124
note_on channel=1 note=60 velocity=68 time=4
note_on channel=1 note=51 velocity=67 time=4
note_on channel=1 note=58 velocity=42 time=12
note_off channel=1 note=60 velocity=64 time=52
note_off channel=1 note=58 velocity=64 time=0
note_off channel=1 note=51 velocity=64 time=12
note_off channel=1 note=67 velocity=64 time=4
control_change channel=1 control=11 value=91 time=28
control_change channel=1 control=11 value=93 time=240
control_change channel=1 control=11 value=94 time=240
note_on channel=1 note=60 velocity=61 time=16
note_on channel=1 note=58 velocity=61 time=12
note_on channel=1 note=67 velocity=59 time=0
note_on channel=1 note=51 velocity=59 time=4
note_off channel=1 note=51 velocity=64 time=60
note_off channel=1 note=60 velocity=64 time=20
note_off channel=1 note=58 velocity=64 time=4
note_off channel=1 note=67 velocity=64 time=8
control_change channel=1 control=11 value=95 time=116
control_change channel=1 control=11 value=96 time=240
control_change channel=1 control=11 value=98 time=240
control_change channel=1 control=11 value=99 time=240
control_change channel=1 control=64 value=0 time=0
note_on channel=1 note=63 velocity=47 time=40
note_on channel=1 note=60 velocity=49 time=4
note_on channel=1 note=41 velocity=41 time=0
note_on channel=1 note=57 velocity=43 time=4
note_off channel=1 note=60 velocity=64 time=80
note_off channel=1 note=63 velocity=64 time=20
note_off channel=1 note=57 velocity=64 time=16
note_off channel=1 note=41 velocity=64 time=4
control_change channel=1 control=11 value=100 time=72
control_change channel=1 control=64 value=0 time=140
control_change channel=1 control=11 value=101 time=100
note_on channel=1 note=63 velocity=47 time=40
note_on channel=1 note=60 velocity=49 time=4
note_on channel=1 note=48 velocity=41 time=0
note_on channel=1 note=58 velocity=43 time=4
note_off channel=1 note=60 velocity=64 time=80
note_off channel=1 note=63 velocity=64 time=20
note_off channel=1 note=58 velocity=64 time=16
note_off channel=1 note=48 velocity=64 time=4
control_change channel=1 control=11 value=103 time=72
control_change channel=1 control=11 value=104 time=240
control_change channel=1 control=64 value=0 time=0
note_on channel=1 note=60 velocity=58 time=20
note_on channel=1 note=51 velocity=50 time=4
note_on channel=1 note=57 velocity=56 time=4
note_on channel=1 note=67 velocity=61 time=4
note_off channel=1 note=60 velocity=64 time=124
note_off channel=1 note=51 velocity=64 time=16
note_off channel=1 note=57 velocity=64 time=0
note_off channel=1 note=67 velocity=64 time=20
control_change channel=1 control=11 value=105 time=48
control_change channel=1 control=11 value=106 time=240
control_change channel=1 control=11 value=108 time=240
control_change channel=1 control=64 value=0 time=140
note_on channel=1 note=65 velocity=60 time=20
note_on channel=1 note=62 velocity=65 time=16
control_change channel=1 control=11 value=109 time=64
note_on channel=1 note=55 velocity=64 time=40
note_on channel=1 note=46 velocity=44 time=12
note_off channel=1 note=62 velocity=64 time=1708
note_off channel=1 note=46 velocity=64 time=8
note_off channel=1 note=55 velocity=64 time=0
note_off channel=1 note=65 velocity=64 time=8
control_change channel=1 control=64 value=0 time=44
note_on channel=1 note=58 velocity=58 time=20
note_on channel=1 note=49 velocity=50 time=4
note_on channel=1 note=56 velocity=56 time=4
note_on channel=1 note=65 velocity=61 time=4
note_off channel=1 note=58 velocity=64 time=216
note_off channel=1 note=49 velocity=64 time=16
note_off channel=1 note=56 velocity=64 time=0
note_off channel=1 note=65 velocity=64 time=20
control_change channel=1 control=64 value=0 time=776
note_on channel=1 note=51 velocity=54 time=12
note_on channel=1 note=55 velocity=52 time=0
note_on channel=1 note=49 velocity=47 time=4
note_on channel=1 note=39 velocity=46 time=4
note_off channel=1 note=55 velocity=64 time=580
note_off channel=1 note=49 velocity=64 time=32
note_off channel=1 note=51 velocity=64 time=52
note_off channel=1 note=39 velocity=64 time=64
note_on channel=1 note=38 velocity=62 time=140
note_off channel=1 note=38 velocity=64 time=72
control_change channel=1 control=64 value=0 time=0
note_on channel=1 note=72 velocity=74 time=340
note_on channel=1 note=62 velocity=54 time=24
note_on channel=1 note=57 velocity=57 time=0
note_on channel=1 note=69 velocity=59 time=20
note_on channel=1 note=65 velocity=57 time=32
note_off channel=1 note=72 velocity=64 time=404
note_off channel=1 note=65 velocity=64 time=0
note_off channel=1 note=69 velocity=64 time=0
note_off channel=1 note=57 velocity=64 time=0
note_off channel=1 note=62 velocity=64 time=0
control_change channel=1 control=64 value=0 time=40
note_on channel=1 note=60 velocity=58 time=20
note_on channel=1 note=50 velocity=50 time=4
note_on channel=1 note=57 velocity=56 time=4
note_on channel=1 note=65 velocity=61 time=4
note_off channel=1 note=60 velocity=64 time=216
note_off channel=1 note=50 velocity=64 time=16
note_off channel=1 note=57 velocity=64 time=0
note_off channel=1 note=65 velocity=64 time=20
control_change channel=1 control=64 value=0 time=296
note_on channel=1 note=60 velocity=58 time=20
note_on channel=1 note=52 velocity=50 time=4
note_on channel=1 note=57 velocity=56 time=4
note_on channel=1 note=67 velocity=61 time=4
note_off channel=1 note=60 velocity=64 time=124
note_off channel=1 note=52 velocity=64 time=16
note_off channel=1 note=57 velocity=64 time=0
note_off channel=1 note=67 velocity=64 time=20
control_change channel=1 control=64 value=0 time=288
note_on channel=1 note=57 velocity=68 time=368
note_on channel=1 note=52 velocity=51 time=8
note_on channel=1 note=64 velocity=66 time=4
note_on channel=1 note=45 velocity=52 time=24
note_off channel=1 note=57 velocity=64 time=72
note_off channel=1 note=64 velocity=64 time=0
note_off channel=1 note=45 velocity=64 time=12
note_off channel=1 note=52 velocity=64 time=20
note_on channel=1 note=60 velocity=63 time=20
note_off channel=1 note=60 velocity=64 time=260
control_change channel=1 control=64 value=0 time=72
note_on channel=1 note=62 velocity=68 time=468
note_on channel=1 note=58 velocity=51 time=8
note_on channel=1 note=70 velocity=66 time=4
note_on channel=1 note=50 velocity=52 time=24
note_off channel=1 note=62 velocity=64 time=72
note_off channel=1 note=70 velocity=64 time=0
note_off channel=1 note=50 velocity=64 time=12
note_off channel=1 note=58 velocity=64 time=20
note_on channel=1 note=65 velocity=63 time=20
note_off channel=1 note=65 velocity=64 time=260
note_on channel=1 note=58 velocity=55 time=96
note_off channel=1 note=58 velocity=64 time=76
control_change channel=1 control=64 value=0 time=0
note_on channel=1 note=75 velocity=74 time=340
note_on channel=1 note=65 velocity=54 time=24
note_on channel=1 note=59 velocity=57 time=0
note_on channel=1 note=71 velocity=59 time=20
note_on channel=1 note=67 velocity=57 time=32
note_off channel=1 note=75 velocity=64 time=544
note_off channel=1 note=67 velocity=64 time=0
note_off channel=1 note=71 velocity=64 time=0
note_off channel=1 note=59 velocity=64 time=0
note_off channel=1 note=65 velocity=64 time=0
control_change channel=1 control=64 value=0 time=0
note_on channel=1 note=43 velocity=77 time=396
note_off channel=1 note=43 velocity=64 time=44
note_on channel=1 note=65 velocity=95 time=72
note_on channel=1 note=62 velocity=93 time=4
note_off channel=1 note=62 velocity=64 time=216
note_off channel=1 note=65 velocity=64 time=16
control_change channel=1 control=64 value=0 time=212
note_on channel=1 note=72 velocity=74 time=340
note_on channel=1 note=64 velocity=54 time=24
note_on channel=1 note=58 velocity=57 time=0
note_on channel=1 note=70 velocity=59 time=20
note_on channel=1 note=68 velocity=57 time=32
note_off channel=1 note=72 velocity=64 time=544
note_off channel=1 note=68 velocity=64 time=0
note_off channel=1 note=70 velocity=64 time=0
note_off channel=1 note=58 velocity=64 time=0
note_off channel=1 note=64 velocity=64 time=0
control_change channel=1 control=64 value=0 time=0
note_on channel=1 note=72 velocity=74 time=340
note_on channel=1 note=64 velocity=54 time=24
note_on channel=1 note=58 velocity=57 time=0
note_on channel=1 note=70 velocity=59 time=20
note_on channel=1 note=67 velocity=57 time=32
note_off channel=1 note=72 velocity=64 time=544
note_off channel=1 note=67 velocity=64 time=0
note_off channel=1 note=70 velocity=64 time=0
note_off channel=1 note=58 velocity=64 time=0
note_off channel=1 note=64 velocity=64 time=0
control_change channel=1 control=64 value=0 time=0
note_on channel=1 note=53 velocity=54 time=12
note_on channel=1 note=57 velocity=52 time=0
note_on channel=1 note=51 velocity=47 time=4
note_on channel=1 note=41 velocity=46 time=4
note_off channel=1 note=57 velocity=64 time=580
note_off channel=1 note=51 velocity=64 time=32
note_off channel=1 note=53 velocity=64 time=52
note_off channel=1 note=41 velocity=64 time=64
note_on channel=1 note=40 velocity=62 time=140
note_off channel=1 note=40 velocity=64 time=72
control_change channel=1 control=64 value=0 time=0
note_on channel=1 note=60 velocity=58 time=20
note_on channel=1 note=52 velocity=50 time=4
note_on channel=1 note=57 velocity=56 time=4
note_on channel=1 note=67 velocity=61 time=4
note_off channel=1 note=60 velocity=64 time=124
note_off channel=1 note=52 velocity=64 time=16
note_off channel=1 note=57 velocity=64 time=0
note_off channel=1 note=67 velocity=64 time=20
control_change channel=1 control=64 value=0 time=288
note_on channel=1 note=60 velocity=60 time=60
note_on channel=1 note=62 velocity=46 time=0
note_on channel=1 note=57 velocity=52 time=4
note_on channel=1 note=65 velocity=47 time=12
note_off channel=1 note=60 velocity=64 time=100
note_off channel=1 note=65 velocity=64 time=16
note_off channel=1 note=57 velocity=64 time=0
note_off channel=1 note=62 velocity=64 time=0
control_change channel=1 control=64 value=0 time=188
note_on channel=1 note=62 velocity=60 time=160
note_on channel=1 note=66 velocity=46 time=0
note_on channel=1 note=60 velocity=52 time=4
note_on channel=1 note=69 velocity=47 time=12
note_off channel=1 note=62 velocity=64 time=100
note_off channel=1 note=69 velocity=64 time=16
note_off channel=1 note=60 velocity=64 time=0
note_off channel=1 note=66 velocity=64 time=0
note_on channel=1 note=50 velocity=76 time=332
note_off channel=1 note=50 velocity=64 time=200
control_change channel=1 control=64 value=0 time=236
note_on channel=1 note=64 velocity=60 time=60
note_on channel=1 note=66 velocity=46 time=0
note_on channel=1 note=60 velocity=52 time=4
note_on channel=1 note=69 velocity=47 time=12
note_off channel=1 note=64 velocity=64 time=100
note_off channel=1 note=69 velocity=64 time=16
note_off channel=1 note=60 velocity=64 time=0
note_off channel=1 note=66 velocity=64 time=0
note_on channel=1 note=50 velocity=76 time=332
note_off channel=1 note=50 velocity=64 time=200
control_change channel=1 control=64 value=0 time=136
note_on channel=1 note=63 velocity=68 time=20
note_on channel=1 note=67 velocity=70 time=16
control_change channel=1 control=64 value=0 time=64
note_off channel=1 note=63 velocity=64 time=108
note_off channel=1 note=67 velocity=64 time=4
note_on channel=1 note=80 velocity=81 time=243
note_on channel=1 note=75 velocity=81 time=0
note_off channel=1 note=80 velocity=50 time=588
note_off channel=1 note=75 velocity=50 time=0
control_change channel=1 control=64 value=0 time=17
note_on channel=1 note=57 velocity=50 time=12
note_on channel=1 note=59 velocity=50 time=0
note_on channel=1 note=53 velocity=50 time=4
note_on channel=1 note=43 velocity=50 time=4
note_on channel=1 note=81 velocity=81 time=6
note_on channel=1 note=76 velocity=81 time=0
note_off channel=1 note=81 velocity=53 time=142
note_off channel=1 note=76 velocity=53 time=0
note_on channel=1 note=74 velocity=81 time=314
note_off channel=1 note=59 velocity=64 time=118
note_off channel=1 note=53 velocity=64 time=32
note_off channel=1 note=74 velocity=52 time=16
note_off channel=1 note=57 velocity=64 time=36
note_off channel=1 note=43 velocity=64 time=64
control_change channel=1 control=64 value=0 time=112
note_on channel=1 note=80 velocity=81 time=109
note_on channel=1 note=75 velocity=81 time=0
note_on channel=1 note=72 velocity=50 time=331
note_on channel=1 note=64 velocity=50 time=24
note_on channel=1 note=58 velocity=50 time=0
note_on channel=1 note=70 velocity=50 time=20
note_on channel=1 note=68 velocity=50 time=32
note_off channel=1 note=80 velocity=44 time=409
note_off channel=1 note=75 velocity=44 time=0
note_on channel=1 note=81 velocity=81 time=29
note_on channel=1 note=76 velocity=81 time=0
note_off channel=1 note=70 velocity=64 time=106
note_off channel=1 note=68 velocity=64 time=0
note_off channel=1 note=64 velocity=64 time=0
note_off channel=1 note=58 velocity=64 time=0
note_off channel=1 note=72 velocity=64 time=0
control_change channel=1 control=64 value=0 time=0
control_change channel=1 control=64 value=0 time=340
note_off channel=1 note=76 velocity=75 time=159
note_off channel=1 note=81 velocity=75 time=0
note_on channel=1 note=74 velocity=81 time=26
note_off channel=1 note=74 velocity=65 time=260
note_on channel=1 note=77 velocity=81 time=33
note_off channel=1 note=77 velocity=61 time=108
control_change channel=1 control=64 value=0 time=34
control_change channel=1 control=11 value=96 time=0
note_on channel=1 note=68 velocity=75 time=2720
note_on channel=1 note=63 velocity=75 time=0
note_on channel=1 note=57 velocity=75 time=0
note_on channel=1 note=48 velocity=75 time=0
note_on channel=1 note=41 velocity=75 time=0
note_off channel=1 note=68 velocity=64 time=3976
note_off channel=1 note=41 velocity=64 time=0
note_off channel=1 note=48 velocity=64 time=0
note_off channel=1 note=57 velocity=64 time=0
note_off channel=1 note=63 velocity=64 time=0
<meta message end_of_track time=0>
<meta message text text='Alto Sax 1' time=0>
control_change channel=2 control=11 value=127 time=0
control_change channel=2 control=7 value=106 time=0
control_change channel=2 control=10 value=77 time=0
control_change channel=2 control=91 value=94 time=0
control_change channel=2 control=93 value=30 time=0
control_change channel=2 control=0 value=56 time=0
control_change channel=2 control=32 value=0 time=0
program_change channel=2 program=65 time=0
note_on channel=2 note=68 velocity=69 time=9920
note_off channel=2 note=68 velocity=64 time=604
note_on channel=2 note=69 velocity=70 time=36
note_off channel=2 note=69 velocity=64 time=192
note_on channel=2 note=62 velocity=72 time=288
note_off channel=2 note=62 velocity=64 time=192
note_on channel=2 note=68 velocity=74 time=288
note_off channel=2 note=68 velocity=64 time=788
note_on channel=2 note=69 velocity=76 time=12
note_off channel=2 note=69 velocity=64 time=1120
note_on channel=2 note=68 velocity=81 time=320
note_off channel=2 note=68 velocity=64 time=592
note_on channel=2 note=69 velocity=84 time=48
note_off channel=2 note=69 velocity=64 time=180
note_on channel=2 note=62 velocity=85 time=300
note_off channel=2 note=62 velocity=64 time=180
note_on channel=2 note=68 velocity=88 time=300
note_off channel=2 note=68 velocity=64 time=788
note_on channel=2 note=69 velocity=90 time=12
note_off channel=2 note=69 velocity=64 time=604
note_on channel=2 note=62 velocity=93 time=36
note_off channel=2 note=62 velocity=64 time=284
note_on channel=2 note=65 velocity=93 time=36
note_off channel=2 note=65 velocity=64 time=136
control_change channel=2 control=93 value=60 time=34584
note_on channel=2 note=62 velocity=62 time=320
note_off channel=2 note=62 velocity=64 time=148
note_on channel=2 note=68 velocity=75 time=12
note_off channel=2 note=68 velocity=64 time=156
note_on channel=2 note=69 velocity=69 time=324
note_off channel=2 note=69 velocity=64 time=308
note_on channel=2 note=62 velocity=69 time=12
note_off channel=2 note=62 velocity=64 time=112
note_on channel=2 note=68 velocity=76 time=368
note_off channel=2 note=68 velocity=64 time=468
note_on channel=2 note=69 velocity=69 time=12
note_off channel=2 note=69 velocity=64 time=160
note_on channel=2 note=68 velocity=56 time=0
note_on channel=2 note=69 velocity=44 time=160
note_off channel=2 note=68 velocity=64 time=24
note_on channel=2 note=68 velocity=62 time=136
note_off channel=2 note=69 velocity=64 time=24
note_on channel=2 note=69 velocity=69 time=136
note_off channel=2 note=68 velocity=64 time=24
note_off channel=2 note=69 velocity=64 time=284
note_on channel=2 note=62 velocity=69 time=12
note_off channel=2 note=62 velocity=64 time=148
note_on channel=2 note=62 velocity=62 time=812
note_off channel=2 note=62 velocity=64 time=148
note_on channel=2 note=68 velocity=75 time=12
note_off channel=2 note=68 velocity=64 time=156
note_on channel=2 note=69 velocity=69 time=324
note_off channel=2 note=69 velocity=64 time=308
note_on channel=2 note=62 velocity=69 time=12
note_off channel=2 note=62 velocity=64 time=112
note_on channel=2 note=68 velocity=76 time=368
note_off channel=2 note=68 velocity=64 time=468
note_on channel=2 note=69 velocity=69 time=12
note_off channel=2 note=69 velocity=64 time=160
note_on channel=2 note=68 velocity=56 time=0
note_on channel=2 note=69 velocity=44 time=160
note_off channel=2 note=68 velocity=64 time=24
note_on channel=2 note=68 velocity=62 time=136
note_off channel=2 note=69 velocity=64 time=24
note_on channel=2 note=69 velocity=69 time=136
note_off channel=2 note=68 velocity=64 time=24
note_off channel=2 note=69 velocity=64 time=284
note_on channel=2 note=62 velocity=69 time=12
note_off channel=2 note=62 velocity=64 time=148
note_on channel=2 note=62 velocity=62 time=812
note_off channel=2 note=62 velocity=64 time=148
note_on channel=2 note=68 velocity=75 time=12
note_off channel=2 note=68 velocity=64 time=156
note_on channel=2 note=69 velocity=69 time=324
note_off channel=2 note=69 velocity=64 time=308
note_on channel=2 note=62 velocity=69 time=12
note_off channel=2 note=62 velocity=64 time=112
note_on channel=2 note=68 velocity=75 time=368
note_off channel=2 note=68 velocity=64 time=468
note_on channel=2 note=69 velocity=69 time=12
note_off channel=2 note=69 velocity=64 time=160
note_on channel=2 note=68 velocity=56 time=0
note_on channel=2 note=69 velocity=44 time=160
note_off channel=2 note=68 velocity=64 time=24
note_on channel=2 note=68 velocity=62 time=136
note_off channel=2 note=69 velocity=64 time=24
note_on channel=2 note=69 velocity=69 time=136
note_off channel=2 note=68 velocity=64 time=24
note_off channel=2 note=69 velocity=64 time=284
note_on channel=2 note=60 velocity=56 time=12
note_off channel=2 note=60 velocity=64 time=160
note_on channel=2 note=62 velocity=65 time=0
note_off channel=2 note=62 velocity=64 time=320
note_on channel=2 note=67 velocity=69 time=0
control_change channel=2 control=11 value=127 time=232
control_change channel=2 control=11 value=121 time=24
control_change channel=2 control=11 value=115 time=24
control_change channel=2 control=11 value=109 time=24
control_change channel=2 control=11 value=103 time=24
control_change channel=2 control=11 value=96 time=24
control_change channel=2 control=11 value=90 time=24
control_change channel=2 control=11 value=84 time=24
control_change channel=2 control=11 value=84 time=0
control_change channel=2 control=11 value=85 time=120
control_change channel=2 control=11 value=86 time=120
control_change channel=2 control=11 value=88 time=120
control_change channel=2 control=11 value=89 time=120
control_change channel=2 control=11 value=91 time=120
control_change channel=2 control=11 value=93 time=120
control_change channel=2 control=11 value=94 time=120
control_change channel=2 control=11 value=95 time=120
control_change channel=2 control=11 value=96 time=120
control_change channel=2 control=11 value=99 time=120
control_change channel=2 control=11 value=100 time=120
control_change channel=2 control=11 value=101 time=120
control_change channel=2 control=11 value=103 time=120
control_change channel=2 control=11 value=105 time=120
control_change channel=2 control=11 value=104 time=288
control_change channel=2 control=11 value=103 time=264
control_change channel=2 control=11 value=101 time=264
control_change channel=2 control=11 value=100 time=288
control_change channel=2 control=11 value=99 time=264
control_change channel=2 control=11 value=98 time=264
note_off channel=2 note=67 velocity=64 time=216
control_change channel=2 control=11 value=96 time=48
control_change channel=2 control=11 value=127 time=24
control_change channel=2 control=93 value=30 time=0
note_on channel=2 note=58 velocity=69 time=3200
note_off channel=2 note=58 velocity=64 time=160
note_on channel=2 note=61 velocity=81 time=0
note_off channel=2 note=61 velocity=64 time=314
note_on channel=2 note=61 velocity=75 time=6
note_off channel=2 note=61 velocity=64 time=142
note_on channel=2 note=60 velocity=81 time=6
note_off channel=2 note=60 velocity=64 time=132
control_change channel=2 control=93 value=60 time=3720
note_on channel=2 note=62 velocity=62 time=320
note_off channel=2 note=62 velocity=64 time=136
note_on channel=2 note=68 velocity=75 time=24
note_off channel=2 note=68 velocity=64 time=156
note_on channel=2 note=69 velocity=69 time=324
note_off channel=2 note=69 velocity=64 time=308
note_on channel=2 note=62 velocity=69 time=12
note_off channel=2 note=62 velocity=64 time=136
note_on channel=2 note=63 velocity=75 time=344
control_change channel=2 control=11 value=127 time=160
pitchwheel channel=2 pitch=-1 time=9
control_change channel=2 control=11 value=123 time=3
control_change channel=2 control=11 value=119 time=12
pitchwheel channel=2 pitch=-130 time=0
control_change channel=2 control=11 value=114 time=12
control_change channel=2 control=11 value=110 time=12
pitchwheel channel=2 pitch=-323 time=7
control_change channel=2 control=11 value=105 time=5
control_change channel=2 control=11 value=101 time=12
pitchwheel channel=2 pitch=-517 time=0
control_change channel=2 control=11 value=98 time=12
control_change channel=2 control=11 value=93 time=12
control_change channel=2 control=11 value=89 time=12
control_change channel=2 control=11 value=84 time=12
control_change channel=2 control=11 value=84 time=0
pitchwheel channel=2 pitch=-646 time=60
control_change channel=2 control=11 value=88 time=36
pitchwheel channel=2 pitch=-839 time=24
control_change channel=2 control=11 value=91 time=60
control_change channel=2 control=11 value=94 time=60
pitchwheel channel=2 pitch=-646 time=81
control_change channel=2 control=11 value=98 time=15
pitchwheel channel=2 pitch=-517 time=16
pitchwheel channel=2 pitch=-323 time=60
control_change channel=2 control=11 value=101 time=8
pitchwheel channel=2 pitch=-130 time=57
control_change channel=2 control=11 value=104 time=3
pitchwheel channel=2 pitch=-1 time=43
control_change channel=2 control=11 value=108 time=41
pitchwheel channel=2 pitch=0 time=67
control_change channel=2 control=11 value=111 time=29
control_change channel=2 control=11 value=114 time=60
control_change channel=2 control=11 value=118 time=84
control_change channel=2 control=11 value=121 time=96
control_change channel=2 control=11 value=124 time=60
control_change channel=2 control=11 value=127 time=48
note_off channel=2 note=63 velocity=64 time=116
note_on channel=2 note=60 velocity=56 time=36
note_off channel=2 note=60 velocity=64 time=160
note_on channel=2 note=64 velocity=65 time=0
note_off channel=2 note=64 velocity=64 time=308
note_on channel=2 note=65 velocity=69 time=12
note_off channel=2 note=65 velocity=64 time=124
note_on channel=2 note=62 velocity=44 time=916
note_on channel=2 note=61 velocity=55 time=40
note_on channel=2 note=60 velocity=69 time=40
note_off channel=2 note=62 velocity=64 time=8
note_off channel=2 note=61 velocity=64 time=28
note_off channel=2 note=60 velocity=64 time=284
note_on channel=2 note=62 velocity=62 time=0
note_off channel=2 note=62 velocity=64 time=160
note_on channel=2 note=65 velocity=71 time=0
note_off channel=2 note=65 velocity=64 time=320
note_on channel=2 note=68 velocity=74 time=0
pitchwheel channel=2 pitch=-1 time=74
pitchwheel channel=2 pitch=-130 time=14
pitchwheel channel=2 pitch=-388 time=14
pitchwheel channel=2 pitch=-775 time=17
pitchwheel channel=2 pitch=-1033 time=15
pitchwheel channel=2 pitch=-1162 time=16
pitchwheel channel=2 pitch=-1355 time=15
pitchwheel channel=2 pitch=-1549 time=31
pitchwheel channel=2 pitch=-1355 time=108
pitchwheel channel=2 pitch=-1162 time=46
pitchwheel channel=2 pitch=-904 time=31
pitchwheel channel=2 pitch=-775 time=31
pitchwheel channel=2 pitch=-581 time=17
pitchwheel channel=2 pitch=-388 time=14
pitchwheel channel=2 pitch=-130 time=31
pitchwheel channel=2 pitch=-1 time=15
pitchwheel channel=2 pitch=0 time=31
note_off channel=2 note=68 velocity=64 time=108
note_on channel=2 note=65 velocity=75 time=12
note_off channel=2 note=65 velocity=64 time=320
note_on channel=2 note=63 velocity=81 time=0
control_change channel=2 control=11 value=127 time=160
control_change channel=2 control=11 value=124 time=120
control_change channel=2 control=11 value=121 time=96
control_change channel=2 control=11 value=119 time=120
control_change channel=2 control=11 value=116 time=96
control_change channel=2 control=11 value=114 time=120
control_change channel=2 control=11 value=111 time=72
control_change channel=2 control=11 value=109 time=120
control_change channel=2 control=11 value=106 time=96
note_off channel=2 note=63 velocity=64 time=72
control_change channel=2 control=11 value=104 time=24
control_change channel=2 control=11 value=127 time=24
control_change channel=2 control=93 value=30 time=0
note_on channel=2 note=64 velocity=69 time=0
note_off channel=2 note=64 velocity=64 time=156
note_on channel=2 note=64 velocity=69 time=324
note_off channel=2 note=64 velocity=64 time=308
note_on channel=2 note=62 velocity=69 time=12
note_off channel=2 note=62 velocity=64 time=148
note_on channel=2 note=64 velocity=62 time=12
note_off channel=2 note=64 velocity=64 time=68
note_on channel=2 note=64 velocity=69 time=12
note_off channel=2 note=64 velocity=64 time=80
note_on channel=2 note=63 velocity=69 time=320
note_off channel=2 note=63 velocity=64 time=320
control_change channel=2 control=11 value=104 time=0
note_on channel=2 note=62 velocity=75 time=0
control_change channel=2 control=11 value=105 time=100
control_change channel=2 control=11 value=108 time=80
control_change channel=2 control=11 value=109 time=100
control_change channel=2 control=11 value=111 time=100
control_change channel=2 control=11 value=114 time=90
control_change channel=2 control=11 value=115 time=100
control_change channel=2 control=11 value=118 time=70
control_change channel=2 control=11 value=119 time=100
control_change channel=2 control=11 value=121 time=100
control_change channel=2 control=11 value=124 time=90
control_change channel=2 control=11 value=125 time=100
control_change channel=2 control=11 value=127 time=10
note_off channel=2 note=62 velocity=64 time=92
note_on channel=2 note=68 velocity=76 time=308
note_on channel=2 note=67 velocity=40 time=112
note_on channel=2 note=66 velocity=28 time=40
note_off channel=2 note=68 velocity=64 time=4
note_off channel=2 note=67 velocity=64 time=8
note_on channel=2 note=65 velocity=17 time=28
note_off channel=2 note=66 velocity=64 time=12
note_off channel=2 note=65 velocity=64 time=40
note_on channel=2 note=67 velocity=75 time=236
note_off channel=2 note=67 velocity=64 time=604
note_on channel=2 note=67 velocity=69 time=36
note_off channel=2 note=67 velocity=64 time=308
note_on channel=2 note=67 velocity=57 time=12
note_off channel=2 note=67 velocity=64 time=148
note_on channel=2 note=67 velocity=69 time=12
note_off channel=2 note=67 velocity=64 time=296
note_on channel=2 note=65 velocity=69 time=24
note_off channel=2 note=65 velocity=64 time=168
note_on channel=2 note=64 velocity=69 time=312
control_change channel=2 control=11 value=127 time=160
control_change channel=2 control=11 value=124 time=96
control_change channel=2 control=11 value=121 time=72
control_change channel=2 control=11 value=118 time=120
control_change channel=2 control=11 value=115 time=72
control_change channel=2 control=11 value=111 time=120
control_change channel=2 control=11 value=108 time=120
control_change channel=2 control=11 value=105 time=72
control_change channel=2 control=11 value=101 time=120
note_off channel=2 note=64 velocity=64 time=108
control_change channel=2 control=11 value=98 time=12
control_change channel=2 control=11 value=96 time=24
control_change channel=2 control=11 value=127 time=24
control_change channel=2 control=93 value=60 time=0
note_on channel=2 note=64 velocity=81 time=320
note_off channel=2 note=64 velocity=64 time=148
note_on channel=2 note=62 velocity=69 time=12
note_off channel=2 note=62 velocity=64 time=296
note_on channel=2 note=57 velocity=75 time=24
control_change channel=2 control=11 value=127 time=160
control_change channel=2 control=11 value=119 time=24
control_change channel=2 control=11 value=111 time=24
control_change channel=2 control=11 value=104 time=24
control_change channel=2 control=11 value=96 time=24
control_change channel=2 control=11 value=89 time=24
control_change channel=2 control=11 value=89 time=0
control_change channel=2 control=11 value=93 time=120
control_change channel=2 control=11 value=96 time=96
control_change channel=2 control=11 value=99 time=72
control_change channel=2 control=11 value=103 time=96
control_change channel=2 control=11 value=106 time=120
control_change channel=2 control=11 value=109 time=48
control_change channel=2 control=11 value=113 time=120
control_change channel=2 control=11 value=116 time=96
control_change channel=2 control=11 value=119 time=72
control_change channel=2 control=11 value=123 time=96
control_change channel=2 control=11 value=127 time=96
note_off channel=2 note=57 velocity=64 time=104
note_on channel=2 note=64 velocity=81 time=24
note_off channel=2 note=64 velocity=64 time=148
note_on channel=2 note=62 velocity=69 time=12
note_off channel=2 note=62 velocity=64 time=296
note_on channel=2 note=57 velocity=75 time=24
control_change channel=2 control=11 value=127 time=160
control_change channel=2 control=11 value=119 time=24
control_change channel=2 control=11 value=111 time=24
control_change channel=2 control=11 value=104 time=24
control_change channel=2 control=11 value=96 time=24
control_change channel=2 control=11 value=89 time=24
control_change channel=2 control=11 value=89 time=0
control_change channel=2 control=11 value=93 time=120
control_change channel=2 control=11 value=96 time=96
control_change channel=2 control=11 value=99 time=72
control_change channel=2 control=11 value=103 time=96
control_change channel=2 control=11 value=106 time=120
control_change channel=2 control=11 value=109 time=48
control_change channel=2 control=11 value=113 time=120
control_change channel=2 control=11 value=116 time=96
control_change channel=2 control=11 value=119 time=72
control_change channel=2 control=11 value=123 time=96
control_change channel=2 control=11 value=127 time=96
note_off channel=2 note=57 velocity=64 time=104
note_on channel=2 note=62 velocity=81 time=24
note_off channel=2 note=62 velocity=64 time=148
note_on channel=2 note=60 velocity=69 time=12
note_off channel=2 note=60 velocity=64 time=296
note_on channel=2 note=55 velocity=75 time=24
control_change channel=2 control=11 value=127 time=232
control_change channel=2 control=11 value=121 time=24
control_change channel=2 control=11 value=115 time=24
control_change channel=2 control=11 value=109 time=24
control_change channel=2 control=11 value=103 time=24
control_change channel=2 control=11 value=96 time=24
control_change channel=2 control=11 value=90 time=24
control_change channel=2 control=11 value=85 time=24
control_change channel=2 control=11 value=84 time=0
control_change channel=2 control=11 value=84 time=0
control_change channel=2 control=11 value=85 time=120
control_change channel=2 control=11 value=88 time=120
control_change channel=2 control=11 value=89 time=120
control_change channel=2 control=11 value=91 time=120
control_change channel=2 control=11 value=94 time=120
control_change channel=2 control=11 value=95 time=120
control_change channel=2 control=11 value=98 time=120
control_change channel=2 control=11 value=99 time=120
control_change channel=2 control=11 value=101 time=120
control_change channel=2 control=11 value=104 time=120
control_change channel=2 control=11 value=105 time=120
control_change channel=2 control=11 value=108 time=120
control_change channel=2 control=11 value=109 time=120
control_change channel=2 control=11 value=111 time=120
control_change channel=2 control=11 value=114 time=120
control_change channel=2 control=11 value=115 time=120
control_change channel=2 control=11 value=118 time=120
control_change channel=2 control=11 value=119 time=120
control_change channel=2 control=11 value=121 time=120
control_change channel=2 control=11 value=124 time=120
control_change channel=2 control=11 value=125 time=120
control_change channel=2 control=11 value=127 time=24
note_off channel=2 note=55 velocity=64 time=368
control_change channel=2 control=93 value=30 time=40
note_on channel=2 note=65 velocity=75 time=8
note_off channel=2 note=65 velocity=64 time=616
note_on channel=2 note=60 velocity=69 time=24
note_off channel=2 note=60 velocity=64 time=296
note_on channel=2 note=60 velocity=70 time=24
note_off channel=2 note=60 velocity=64 time=136
control_change channel=2 control=93 value=60 time=12984
note_on channel=2 note=68 velocity=88 time=960
note_off channel=2 note=68 velocity=64 time=308
note_on channel=2 note=69 velocity=88 time=12
note_off channel=2 note=69 velocity=64 time=180
note_on channel=2 note=74 velocity=88 time=300
note_off channel=2 note=74 velocity=64 time=1072
note_on channel=2 note=68 velocity=88 time=48
note_off channel=2 note=68 velocity=64 time=308
note_on channel=2 note=69 velocity=88 time=12
note_off channel=2 note=69 velocity=64 time=180
note_on channel=2 note=62 velocity=88 time=300
note_off channel=2 note=62 velocity=64 time=1072
note_on channel=2 note=68 velocity=88 time=48
note_off channel=2 note=68 velocity=64 time=180
note_on channel=2 note=69 velocity=88 time=300
note_off channel=2 note=69 velocity=64 time=180
note_on channel=2 note=74 velocity=88 time=300
note_off channel=2 note=74 velocity=64 time=912
note_on channel=2 note=68 velocity=88 time=48
note_off channel=2 note=68 velocity=64 time=308
note_on channel=2 note=69 velocity=88 time=12
note_off channel=2 note=69 velocity=64 time=180
note_on channel=2 note=62 velocity=88 time=300
note_off channel=2 note=62 velocity=64 time=1072
note_on channel=2 note=68 velocity=88 time=48
note_off channel=2 note=68 velocity=64 time=180
note_on channel=2 note=69 velocity=88 time=300
note_off channel=2 note=69 velocity=64 time=180
note_on channel=2 note=74 velocity=88 time=300
note_off channel=2 note=74 velocity=64 time=912
note_on channel=2 note=76 velocity=88 time=48
note_off channel=2 note=76 velocity=64 time=308
note_on channel=2 note=74 velocity=88 time=12
note_off channel=2 note=74 velocity=64 time=180
note_on channel=2 note=62 velocity=88 time=300
note_off channel=2 note=62 velocity=64 time=1072
note_on channel=2 note=62 velocity=88 time=48
note_off channel=2 note=62 velocity=64 time=320
note_on channel=2 note=65 velocity=81 time=0
note_off channel=2 note=65 velocity=64 time=160
note_on channel=2 note=68 velocity=88 time=0
note_off channel=2 note=68 velocity=64 time=320
note_on channel=2 note=67 velocity=88 time=0
control_change channel=2 control=11 value=127 time=160
control_change channel=2 control=11 value=125 time=120
control_change channel=2 control=11 value=124 time=120
control_change channel=2 control=11 value=123 time=120
control_change channel=2 control=11 value=121 time=120
control_change channel=2 control=11 value=120 time=120
control_change channel=2 control=11 value=119 time=120
control_change channel=2 control=11 value=118 time=120
control_change channel=2 control=11 value=115 time=120
control_change channel=2 control=11 value=114 time=120
control_change channel=2 control=11 value=113 time=120
control_change channel=2 control=11 value=111 time=120
control_change channel=2 control=11 value=110 time=120
control_change channel=2 control=11 value=109 time=120
control_change channel=2 control=11 value=108 time=120
control_change channel=2 control=11 value=105 time=120
note_off channel=2 note=67 velocity=64 time=72
control_change channel=2 control=11 value=104 time=24
control_change channel=2 control=11 value=127 time=24
control_change channel=2 control=93 value=30 time=0
note_on channel=2 note=68 velocity=81 time=480
note_off channel=2 note=68 velocity=64 time=308
note_on channel=2 note=68 velocity=81 time=12
note_off channel=2 note=68 velocity=64 time=204
note_on channel=2 note=65 velocity=69 time=276
note_off channel=2 note=65 velocity=64 time=160
note_on channel=2 note=68 velocity=81 time=0
note_off channel=2 note=68 velocity=64 time=320
note_on channel=2 note=68 velocity=75 time=0
note_off channel=2 note=68 velocity=64 time=148
note_on channel=2 note=65 velocity=81 time=12
note_off channel=2 note=65 velocity=64 time=308
note_on channel=2 note=62 velocity=81 time=12
note_off channel=2 note=62 velocity=64 time=148
note_on channel=2 note=62 velocity=81 time=1932
note_off channel=2 note=62 velocity=64 time=180
note_on channel=2 note=64 velocity=81 time=300
note_off channel=2 note=64 velocity=64 time=308
note_on channel=2 note=65 velocity=81 time=12
note_off channel=2 note=65 velocity=64 time=192
note_on channel=2 note=72 velocity=81 time=288
note_on channel=2 note=74 velocity=59 time=1440
note_off channel=2 note=72 velocity=64 time=16
note_on channel=2 note=73 velocity=70 time=64
note_off channel=2 note=74 velocity=64 time=24
note_on channel=2 note=69 velocity=81 time=56
note_off channel=2 note=73 velocity=64 time=24
note_off channel=2 note=69 velocity=64 time=296
note_on channel=2 note=64 velocity=81 time=0
pitchwheel channel=2 pitch=0 time=160
control_change channel=2 control=11 value=127 time=0
pitchwheel channel=2 pitch=242 time=12
control_change channel=2 control=11 value=124 time=72
control_change channel=2 control=11 value=121 time=72
pitchwheel channel=2 pitch=0 time=48
control_change channel=2 control=11 value=119 time=60
control_change channel=2 control=11 value=116 time=48
pitchwheel channel=2 pitch=-82 time=36
control_change channel=2 control=11 value=114 time=72
pitchwheel channel=2 pitch=-244 time=24
control_change channel=2 control=11 value=111 time=24
pitchwheel channel=2 pitch=-407 time=48
pitchwheel channel=2 pitch=-569 time=60
control_change channel=2 control=11 value=109 time=0
control_change channel=2 control=11 value=106 time=48
pitchwheel channel=2 pitch=-731 time=12
pitchwheel channel=2 pitch=-893 time=36
pitchwheel channel=2 pitch=-1055 time=48
control_change channel=2 control=11 value=104 time=12
pitchwheel channel=2 pitch=-1218 time=24
pitchwheel channel=2 pitch=-1380 time=24
control_change channel=2 control=11 value=101 time=0
pitchwheel channel=2 pitch=-1542 time=36
pitchwheel channel=2 pitch=-1704 time=24
pitchwheel channel=2 pitch=-1866 time=12
pitchwheel channel=2 pitch=-2029 time=24
pitchwheel channel=2 pitch=-2191 time=12
control_change channel=2 control=11 value=99 time=0
pitchwheel channel=2 pitch=-2353 time=12
pitchwheel channel=2 pitch=-2515 time=12
note_off channel=2 note=64 velocity=64 time=12
pitchwheel channel=2 pitch=-2840 time=0
control_change channel=2 control=11 value=96 time=12
control_change channel=2 control=11 value=127 time=24
pitchwheel channel=2 pitch=0 time=0
note_on channel=2 note=67 velocity=81 time=1280
note_off channel=2 note=67 velocity=64 time=616
note_on channel=2 note=69 velocity=81 time=24
note_off channel=2 note=69 velocity=64 time=192
note_on channel=2 note=70 velocity=81 time=288
note_off channel=2 note=70 velocity=64 time=308
note_on channel=2 note=69 velocity=81 time=12
note_off channel=2 note=69 velocity=64 time=148
note_on channel=2 note=69 velocity=81 time=332
note_off channel=2 note=69 velocity=64 time=192
note_on channel=2 note=67 velocity=75 time=288
note_off channel=2 note=67 velocity=64 time=160
note_on channel=2 note=65 velocity=81 time=0
note_off channel=2 note=65 velocity=64 time=468
note_on channel=2 note=64 velocity=81 time=12
note_off channel=2 note=64 velocity=64 time=168
note_on channel=2 note=74 velocity=88 time=792
note_off channel=2 note=74 velocity=64 time=924
note_on channel=2 note=72 velocity=81 time=36
note_off channel=2 note=72 velocity=64 time=192
control_change channel=2 control=11 value=104 time=288
note_on channel=2 note=70 velocity=88 time=0
control_change channel=2 control=11 value=106 time=108
control_change channel=2 control=11 value=109 time=108
note_off channel=2 note=70 velocity=64 time=104
note_on channel=2 note=72 velocity=88 time=0
control_change channel=2 control=11 value=111 time=4
control_change channel=2 control=11 value=114 time=108
control_change channel=2 control=11 value=116 time=108
control_change channel=2 control=11 value=119 time=108
control_change channel=2 control=11 value=121 time=108
control_change channel=2 control=11 value=124 time=108
note_off channel=2 note=72 velocity=64 time=72
control_change channel=2 control=11 value=127 time=24
control_change channel=2 control=11 value=127 time=0
note_on channel=2 note=69 velocity=88 time=0
control_change channel=2 control=11 value=124 time=84
control_change channel=2 control=11 value=121 time=84
control_change channel=2 control=11 value=119 time=108
note_off channel=2 note=69 velocity=64 time=44
note_on channel=2 note=63 velocity=88 time=0
control_change channel=2 control=11 value=116 time=4
control_change channel=2 control=11 value=114 time=108
control_change channel=2 control=11 value=111 time=48
control_change channel=2 control=11 value=109 time=108
control_change channel=2 control=11 value=106 time=60
control_change channel=2 control=11 value=104 time=108
control_change channel=2 control=11 value=101 time=48
note_off channel=2 note=63 velocity=64 time=108
control_change channel=2 control=11 value=99 time=0
control_change channel=2 control=11 value=127 time=48
control_change channel=2 control=11 value=96 time=0
control_change channel=2 control=93 value=60 time=0
control_change channel=2 control=11 value=127 time=12
note_on channel=2 note=62 velocity=62 time=308
note_off channel=2 note=62 velocity=64 time=148
note_on channel=2 note=68 velocity=75 time=12
note_off channel=2 note=68 velocity=64 time=156
note_on channel=2 note=69 velocity=69 time=324
note_off channel=2 note=69 velocity=64 time=308
note_on channel=2 note=62 velocity=69 time=12
note_off channel=2 note=62 velocity=64 time=112
note_on channel=2 note=68 velocity=76 time=368
note_off channel=2 note=68 velocity=64 time=468
note_on channel=2 note=69 velocity=69 time=12
note_off channel=2 note=69 velocity=64 time=160
note_on channel=2 note=68 velocity=56 time=0
note_on channel=2 note=69 velocity=44 time=160
note_off channel=2 note=68 velocity=64 time=24
note_on channel=2 note=68 velocity=62 time=136
note_off channel=2 note=69 velocity=64 time=24
note_on channel=2 note=69 velocity=69 time=136
note_off channel=2 note=68 velocity=64 time=24
note_off channel=2 note=69 velocity=64 time=284
note_on channel=2 note=62 velocity=69 time=12
note_off channel=2 note=62 velocity=64 time=148
note_on channel=2 note=62 velocity=62 time=812
note_off channel=2 note=62 velocity=64 time=148
note_on channel=2 note=68 velocity=75 time=12
note_off channel=2 note=68 velocity=64 time=156
note_on channel=2 note=69 velocity=69 time=324
note_off channel=2 note=69 velocity=64 time=308
note_on channel=2 note=62 velocity=69 time=12
note_off channel=2 note=62 velocity=64 time=112
note_on channel=2 note=68 velocity=76 time=368
note_off channel=2 note=68 velocity=64 time=468
note_on channel=2 note=69 velocity=69 time=12
note_off channel=2 note=69 velocity=64 time=160
note_on channel=2 note=68 velocity=56 time=0
note_on channel=2 note=69 velocity=44 time=160
note_off channel=2 note=68 velocity=64 time=24
note_on channel=2 note=68 velocity=62 time=136
note_off channel=2 note=69 velocity=64 time=24
note_on channel=2 note=69 velocity=69 time=136
note_off channel=2 note=68 velocity=64 time=24
note_off channel=2 note=69 velocity=64 time=284
note_on channel=2 note=62 velocity=69 time=12
note_off channel=2 note=62 velocity=64 time=148
note_on channel=2 note=62 velocity=62 time=812
note_off channel=2 note=62 velocity=64 time=148
note_on channel=2 note=68 velocity=75 time=12
note_off channel=2 note=68 velocity=64 time=156
note_on channel=2 note=69 velocity=69 time=324
note_off channel=2 note=69 velocity=64 time=308
note_on channel=2 note=62 velocity=69 time=12
note_off channel=2 note=62 velocity=64 time=112
note_on channel=2 note=68 velocity=75 time=368
note_off channel=2 note=68 velocity=64 time=468
note_on channel=2 note=69 velocity=69 time=12
note_off channel=2 note=69 velocity=64 time=160
note_on channel=2 note=68 velocity=56 time=0
note_on channel=2 note=69 velocity=44 time=160
note_off channel=2 note=68 velocity=64 time=24
note_on channel=2 note=68 velocity=62 time=136
note_off channel=2 note=69 velocity=64 time=24
note_on channel=2 note=69 velocity=69 time=136
note_off channel=2 note=68 velocity=64 time=24
note_off channel=2 note=69 velocity=64 time=284
note_on channel=2 note=60 velocity=56 time=12
note_off channel=2 note=60 velocity=64 time=160
note_on channel=2 note=62 velocity=65 time=0
note_off channel=2 note=62 velocity=64 time=320
note_on channel=2 note=67 velocity=69 time=0
control_change channel=2 control=11 value=127 time=232
control_change channel=2 control=11 value=121 time=24
control_change channel=2 control=11 value=115 time=24
control_change channel=2 control=11 value=109 time=24
control_change channel=2 control=11 value=103 time=24
control_change channel=2 control=11 value=96 time=24
control_change channel=2 control=11 value=90 time=24
control_change channel=2 control=11 value=84 time=24
control_change channel=2 control=11 value=84 time=0
control_change channel=2 control=11 value=84 time=0
control_change channel=2 control=11 value=84 time=0
control_change channel=2 control=11 value=85 time=120
control_change channel=2 control=11 value=88 time=120
control_change channel=2 control=11 value=89 time=120
control_change channel=2 control=11 value=91 time=120
control_change channel=2 control=11 value=93 time=120
control_change channel=2 control=11 value=95 time=120
control_change channel=2 control=11 value=96 time=120
control_change channel=2 control=11 value=99 time=96
control_change channel=2 control=11 value=100 time=120
control_change channel=2 control=11 value=103 time=120
control_change channel=2 control=11 value=104 time=120
control_change channel=2 control=11 value=106 time=120
control_change channel=2 control=11 value=108 time=120
control_change channel=2 control=11 value=110 time=120
control_change channel=2 control=11 value=111 time=120
control_change channel=2 control=11 value=114 time=96
control_change channel=2 control=11 value=115 time=120
control_change channel=2 control=11 value=118 time=120
control_change channel=2 control=11 value=119 time=120
control_change channel=2 control=11 value=121 time=120
control_change channel=2 control=11 value=123 time=120
control_change channel=2 control=11 value=125 time=120
control_change channel=2 control=11 value=127 time=48
note_on channel=2 note=66 velocity=21 time=320
note_off channel=2 note=67 velocity=64 time=40
note_on channel=2 note=65 velocity=31 time=0
note_on channel=2 note=64 velocity=44 time=40
note_off channel=2 note=66 velocity=64 time=8
note_on channel=2 note=63 velocity=54 time=32
note_off channel=2 note=65 velocity=64 time=8
note_on channel=2 note=62 velocity=75 time=32
note_off channel=2 note=64 velocity=64 time=8
note_off channel=2 note=63 velocity=64 time=40
note_off channel=2 note=62 velocity=64 time=272
control_change channel=2 control=11 value=104 time=0
note_on channel=2 note=65 velocity=81 time=0
control_change channel=2 control=11 value=105 time=120
control_change channel=2 control=11 value=106 time=110
control_change channel=2 control=11 value=108 time=110
control_change channel=2 control=11 value=109 time=110
control_change channel=2 control=11 value=110 time=110
control_change channel=2 control=11 value=111 time=110
control_change channel=2 control=11 value=113 time=110
control_change channel=2 control=11 value=114 time=110
control_change channel=2 control=11 value=115 time=110
control_change channel=2 control=11 value=116 time=120
control_change channel=2 control=11 value=118 time=110
control_change channel=2 control=11 value=119 time=110
control_change channel=2 control=11 value=120 time=110
control_change channel=2 control=11 value=121 time=110
control_change channel=2 control=11 value=123 time=110
control_change channel=2 control=11 value=124 time=110
control_change channel=2 control=11 value=125 time=110
control_change channel=2 control=11 value=127 time=110
note_off channel=2 note=65 velocity=64 time=32
control_change channel=2 control=93 value=30 time=48
note_on channel=2 note=68 velocity=81 time=0
note_off channel=2 note=68 velocity=64 time=456
note_on channel=2 note=70 velocity=81 time=24
note_off channel=2 note=70 velocity=64 time=308
note_on channel=2 note=72 velocity=81 time=12
note_off channel=2 note=72 velocity=64 time=148
note_on channel=2 note=60 velocity=81 time=812
note_off channel=2 note=60 velocity=64 time=616
note_on channel=2 note=62 velocity=81 time=24
note_off channel=2 note=62 velocity=64 time=308
note_on channel=2 note=60 velocity=69 time=12
note_off channel=2 note=60 velocity=64 time=148
note_on channel=2 note=65 velocity=81 time=12
note_off channel=2 note=65 velocity=64 time=296
note_on channel=2 note=67 velocity=81 time=24
note_off channel=2 note=67 velocity=64 time=180
note_on channel=2 note=69 velocity=81 time=300
note_off channel=2 note=69 velocity=64 time=616
note_on channel=2 note=72 velocity=81 time=24
note_off channel=2 note=72 velocity=64 time=308
note_on channel=2 note=70 velocity=81 time=12
note_off channel=2 note=70 velocity=64 time=136
note_on channel=2 note=68 velocity=81 time=1304
note_off channel=2 note=68 velocity=64 time=580
note_on channel=2 note=69 velocity=81 time=60
note_off channel=2 note=69 velocity=64 time=168
note_on channel=2 note=62 velocity=81 time=312
note_off channel=2 note=62 velocity=64 time=168
note_on channel=2 note=68 velocity=81 time=312
note_off channel=2 note=68 velocity=64 time=794
note_on channel=2 note=69 velocity=81 time=6
note_off channel=2 note=69 velocity=64 time=1072
note_on channel=2 note=68 velocity=81 time=368
note_off channel=2 note=68 velocity=64 time=592
note_on channel=2 note=69 velocity=81 time=48
note_off channel=2 note=69 velocity=64 time=180
note_on channel=2 note=62 velocity=81 time=300
note_off channel=2 note=62 velocity=64 time=180
note_on channel=2 note=68 velocity=81 time=300
note_off channel=2 note=68 velocity=64 time=794
note_on channel=2 note=69 velocity=81 time=6
note_off channel=2 note=69 velocity=64 time=1072
<meta message end_of_track time=0>
<meta message text text='Alto Sax 2' time=0>
control_change channel=3 control=11 value=127 time=0
control_change channel=3 control=7 value=106 time=0
control_change channel=3 control=10 value=88 time=0
control_change channel=3 control=91 value=88 time=0
control_change channel=3 control=93 value=25 time=0
control_change channel=3 control=0 value=56 time=0
control_change channel=3 control=32 value=0 time=0
program_change channel=3 program=65 time=0
note_on channel=3 note=63 velocity=62 time=9920
note_off channel=3 note=63 velocity=64 time=604
note_on channel=3 note=64 velocity=64 time=36
note_off channel=3 note=64 velocity=64 time=192
note_on channel=3 note=63 velocity=67 time=768
note_off channel=3 note=63 velocity=64 time=788
note_on channel=3 note=64 velocity=70 time=12
note_off channel=3 note=64 velocity=64 time=1120
note_on channel=3 note=63 velocity=75 time=320
note_off channel=3 note=63 velocity=64 time=592
note_on channel=3 note=64 velocity=77 time=48
note_off channel=3 note=64 velocity=64 time=180
note_on channel=3 note=57 velocity=79 time=300
note_off channel=3 note=57 velocity=64 time=180
note_on channel=3 note=63 velocity=80 time=300
note_off channel=3 note=63 velocity=64 time=788
note_on channel=3 note=64 velocity=84 time=12
note_off channel=3 note=64 velocity=64 time=604
note_on channel=3 note=58 velocity=85 time=36
note_off channel=3 note=58 velocity=64 time=284
note_on channel=3 note=62 velocity=86 time=36
note_off channel=3 note=62 velocity=64 time=136
control_change channel=3 control=0 value=56 time=34584
control_change channel=3 control=32 value=0 time=0
program_change channel=3 program=73 time=0
note_on channel=3 note=86 velocity=56 time=3200
note_off channel=3 note=86 velocity=64 time=136
note_on channel=3 note=84 velocity=50 time=24
note_off channel=3 note=84 velocity=64 time=296
note_on channel=3 note=81 velocity=45 time=24
note_off channel=3 note=81 velocity=64 time=136
note_on channel=3 note=86 velocity=56 time=3224
note_off channel=3 note=86 velocity=64 time=136
note_on channel=3 note=84 velocity=50 time=24
note_off channel=3 note=84 velocity=64 time=296
note_on channel=3 note=81 velocity=45 time=24
note_off channel=3 note=81 velocity=64 time=136
control_change channel=3 control=0 value=56 time=24
control_change channel=3 control=32 value=0 time=0
program_change channel=3 program=65 time=0
note_on channel=3 note=55 velocity=62 time=10880
note_off channel=3 note=55 velocity=64 time=160
note_on channel=3 note=58 velocity=75 time=0
note_off channel=3 note=58 velocity=64 time=314
note_on channel=3 note=58 velocity=69 time=6
note_off channel=3 note=58 velocity=64 time=142
note_on channel=3 note=57 velocity=75 time=6
note_off channel=3 note=57 velocity=64 time=132
control_change channel=3 control=11 value=127 time=11400
note_on channel=3 note=59 velocity=62 time=0
note_off channel=3 note=59 velocity=64 time=156
note_on channel=3 note=59 velocity=62 time=324
note_off channel=3 note=59 velocity=64 time=308
note_on channel=3 note=59 velocity=62 time=12
note_off channel=3 note=59 velocity=64 time=148
note_on channel=3 note=59 velocity=56 time=12
note_off channel=3 note=59 velocity=64 time=68
note_on channel=3 note=59 velocity=62 time=12
note_off channel=3 note=59 velocity=64 time=80
note_on channel=3 note=59 velocity=65 time=320
note_off channel=3 note=59 velocity=64 time=320
control_change channel=3 control=11 value=104 time=0
note_on channel=3 note=58 velocity=67 time=0
control_change channel=3 control=11 value=105 time=100
control_change channel=3 control=11 value=108 time=80
control_change channel=3 control=11 value=109 time=100
control_change channel=3 control=11 value=111 time=100
control_change channel=3 control=11 value=114 time=90
control_change channel=3 control=11 value=115 time=100
control_change channel=3 control=11 value=118 time=70
control_change channel=3 control=11 value=119 time=100
control_change channel=3 control=11 value=121 time=100
control_change channel=3 control=11 value=124 time=90
control_change channel=3 control=11 value=125 time=100
control_change channel=3 control=11 value=127 time=10
note_off channel=3 note=58 velocity=64 time=92
note_on channel=3 note=64 velocity=69 time=308
note_on channel=3 note=63 velocity=40 time=112
note_on channel=3 note=62 velocity=28 time=40
note_off channel=3 note=64 velocity=64 time=4
note_off channel=3 note=63 velocity=64 time=8
note_on channel=3 note=61 velocity=17 time=28
note_off channel=3 note=62 velocity=64 time=12
note_off channel=3 note=61 velocity=64 time=40
note_on channel=3 note=62 velocity=70 time=236
note_off channel=3 note=62 velocity=64 time=604
note_on channel=3 note=62 velocity=62 time=36
note_off channel=3 note=62 velocity=64 time=308
note_on channel=3 note=60 velocity=50 time=12
note_off channel=3 note=60 velocity=64 time=148
note_on channel=3 note=62 velocity=62 time=12
note_off channel=3 note=62 velocity=64 time=296
note_on channel=3 note=61 velocity=62 time=24
note_off channel=3 note=61 velocity=64 time=168
note_on channel=3 note=60 velocity=62 time=312
control_change channel=3 control=11 value=127 time=160
control_change channel=3 control=11 value=124 time=96
control_change channel=3 control=11 value=121 time=72
control_change channel=3 control=11 value=118 time=120
control_change channel=3 control=11 value=115 time=72
control_change channel=3 control=11 value=111 time=120
control_change channel=3 control=11 value=108 time=120
control_change channel=3 control=11 value=105 time=72
control_change channel=3 control=11 value=101 time=120
note_off channel=3 note=60 velocity=64 time=108
control_change channel=3 control=11 value=98 time=12
control_change channel=3 control=11 value=96 time=24
control_change channel=3 control=11 value=127 time=24
note_on channel=3 note=63 velocity=69 time=8000
note_off channel=3 note=63 velocity=64 time=616
note_on channel=3 note=55 velocity=62 time=24
note_off channel=3 note=55 velocity=64 time=296
note_on channel=3 note=55 velocity=62 time=24
note_off channel=3 note=55 velocity=64 time=136
note_on channel=3 note=65 velocity=75 time=28824
note_off channel=3 note=65 velocity=64 time=308
note_on channel=3 note=65 velocity=75 time=12
note_off channel=3 note=65 velocity=64 time=204
note_on channel=3 note=63 velocity=62 time=276
note_off channel=3 note=63 velocity=64 time=160
note_on channel=3 note=65 velocity=75 time=0
note_off channel=3 note=65 velocity=64 time=320
note_on channel=3 note=65 velocity=69 time=0
note_off channel=3 note=65 velocity=64 time=148
note_on channel=3 note=62 velocity=75 time=12
note_off channel=3 note=62 velocity=64 time=308
note_on channel=3 note=58 velocity=75 time=12
note_off channel=3 note=58 velocity=64 time=148
note_on channel=3 note=59 velocity=75 time=1932
note_off channel=3 note=59 velocity=64 time=180
note_on channel=3 note=62 velocity=75 time=300
note_off channel=3 note=62 velocity=64 time=308
note_on channel=3 note=62 velocity=75 time=12
note_off channel=3 note=62 velocity=64 time=192
note_on channel=3 note=64 velocity=75 time=288
note_on channel=3 note=66 velocity=54 time=1440
note_off channel=3 note=64 velocity=64 time=16
note_on channel=3 note=65 velocity=62 time=64
note_off channel=3 note=66 velocity=64 time=24
note_on channel=3 note=64 velocity=74 time=56
note_off channel=3 note=65 velocity=64 time=24
note_off channel=3 note=64 velocity=64 time=284
note_on channel=3 note=60 velocity=75 time=12
pitchwheel channel=3 pitch=0 time=160
control_change channel=3 control=11 value=127 time=0
pitchwheel channel=3 pitch=242 time=12
control_change channel=3 control=11 value=124 time=72
control_change channel=3 control=11 value=121 time=72
pitchwheel channel=3 pitch=0 time=48
control_change channel=3 control=11 value=119 time=60
control_change channel=3 control=11 value=116 time=48
pitchwheel channel=3 pitch=-82 time=36
control_change channel=3 control=11 value=114 time=72
pitchwheel channel=3 pitch=-244 time=24
control_change channel=3 control=11 value=111 time=24
pitchwheel channel=3 pitch=-407 time=48
pitchwheel channel=3 pitch=-569 time=60
control_change channel=3 control=11 value=109 time=0
control_change channel=3 control=11 value=106 time=48
pitchwheel channel=3 pitch=-731 time=12
pitchwheel channel=3 pitch=-893 time=36
pitchwheel channel=3 pitch=-1055 time=48
control_change channel=3 control=11 value=104 time=12
pitchwheel channel=3 pitch=-1218 time=24
pitchwheel channel=3 pitch=-1380 time=24
control_change channel=3 control=11 value=101 time=0
pitchwheel channel=3 pitch=-1542 time=36
pitchwheel channel=3 pitch=-1704 time=24
pitchwheel channel=3 pitch=-1866 time=12
pitchwheel channel=3 pitch=-2029 time=24
pitchwheel channel=3 pitch=-2191 time=12
control_change channel=3 control=11 value=99 time=0
pitchwheel channel=3 pitch=-2353 time=12
note_off channel=3 note=60 velocity=64 time=12
pitchwheel channel=3 pitch=-2515 time=0
pitchwheel channel=3 pitch=-2840 time=12
control_change channel=3 control=11 value=96 time=12
control_change channel=3 control=11 value=127 time=24
pitchwheel channel=3 pitch=0 time=0
note_on channel=3 note=62 velocity=75 time=1280
note_off channel=3 note=62 velocity=64 time=616
note_on channel=3 note=66 velocity=75 time=24
note_off channel=3 note=66 velocity=64 time=192
note_on channel=3 note=66 velocity=75 time=288
note_off channel=3 note=66 velocity=64 time=308
note_on channel=3 note=65 velocity=75 time=12
note_off channel=3 note=65 velocity=64 time=148
note_on channel=3 note=65 velocity=75 time=332
note_off channel=3 note=65 velocity=64 time=192
note_on channel=3 note=65 velocity=69 time=288
note_off channel=3 note=65 velocity=64 time=160
note_on channel=3 note=62 velocity=75 time=0
note_off channel=3 note=62 velocity=64 time=468
note_on channel=3 note=60 velocity=75 time=12
note_off channel=3 note=60 velocity=64 time=168
note_on channel=3 note=67 velocity=81 time=792
note_off channel=3 note=67 velocity=64 time=924
note_on channel=3 note=67 velocity=75 time=36
note_off channel=3 note=67 velocity=64 time=192
control_change channel=3 control=11 value=104 time=288
note_on channel=3 note=65 velocity=81 time=0
control_change channel=3 control=11 value=106 time=108
control_change channel=3 control=11 value=109 time=108
note_off channel=3 note=65 velocity=64 time=104
note_on channel=3 note=65 velocity=81 time=0
control_change channel=3 control=11 value=111 time=4
control_change channel=3 control=11 value=114 time=108
control_change channel=3 control=11 value=116 time=108
control_change channel=3 control=11 value=119 time=108
control_change channel=3 control=11 value=121 time=108
control_change channel=3 control=11 value=124 time=108
note_off channel=3 note=65 velocity=64 time=72
control_change channel=3 control=11 value=127 time=24
control_change channel=3 control=11 value=127 time=0
note_on channel=3 note=64 velocity=81 time=0
control_change channel=3 control=11 value=124 time=84
control_change channel=3 control=11 value=121 time=84
control_change channel=3 control=11 value=119 time=108
note_off channel=3 note=64 velocity=64 time=44
note_on channel=3 note=60 velocity=81 time=0
control_change channel=3 control=11 value=116 time=4
control_change channel=3 control=11 value=114 time=108
control_change channel=3 control=11 value=111 time=48
control_change channel=3 control=11 value=109 time=108
control_change channel=3 control=11 value=106 time=60
control_change channel=3 control=11 value=104 time=108
control_change channel=3 control=11 value=101 time=48
note_off channel=3 note=60 velocity=64 time=108
control_change channel=3 control=11 value=127 time=48
control_change channel=3 control=0 value=56 time=1920
control_change channel=3 control=32 value=0 time=0
program_change channel=3 program=73 time=0
note_on channel=3 note=86 velocity=56 time=1280
note_off channel=3 note=86 velocity=64 time=136
note_on channel=3 note=84 velocity=50 time=24
note_off channel=3 note=84 velocity=64 time=296
note_on channel=3 note=81 velocity=45 time=24
note_off channel=3 note=81 velocity=64 time=136
note_on channel=3 note=86 velocity=56 time=3224
note_off channel=3 note=86 velocity=64 time=136
note_on channel=3 note=84 velocity=50 time=24
note_off channel=3 note=84 velocity=64 time=296
note_on channel=3 note=81 velocity=45 time=24
note_off channel=3 note=81 velocity=64 time=136
control_change channel=3 control=0 value=56 time=24
control_change channel=3 control=32 value=0 time=0
program_change channel=3 program=65 time=0
control_change channel=3 control=93 value=30 time=9600
note_on channel=3 note=65 velocity=75 time=0
note_off channel=3 note=65 velocity=64 time=456
note_on channel=3 note=65 velocity=75 time=24
note_off channel=3 note=65 velocity=64 time=308
note_on channel=3 note=65 velocity=75 time=12
note_off channel=3 note=65 velocity=64 time=148
note_on channel=3 note=57 velocity=75 time=812
note_off channel=3 note=57 velocity=64 time=616
note_on channel=3 note=60 velocity=75 time=24
note_off channel=3 note=60 velocity=64 time=308
note_on channel=3 note=57 velocity=62 time=12
note_off channel=3 note=57 velocity=64 time=148
note_on channel=3 note=62 velocity=75 time=12
note_off channel=3 note=62 velocity=64 time=296
note_on channel=3 note=64 velocity=75 time=24
note_off channel=3 note=64 velocity=64 time=180
note_on channel=3 note=63 velocity=75 time=300
note_off channel=3 note=63 velocity=64 time=616
note_on channel=3 note=63 velocity=75 time=24
note_off channel=3 note=63 velocity=64 time=308
note_on channel=3 note=63 velocity=75 time=12
note_off channel=3 note=63 velocity=64 time=136
note_on channel=3 note=63 velocity=75 time=1304
note_off channel=3 note=63 velocity=64 time=580
note_on channel=3 note=64 velocity=75 time=60
note_off channel=3 note=64 velocity=64 time=168
note_on channel=3 note=57 velocity=75 time=312
note_off channel=3 note=57 velocity=64 time=168
note_on channel=3 note=63 velocity=75 time=312
note_off channel=3 note=63 velocity=64 time=794
note_on channel=3 note=64 velocity=75 time=6
note_off channel=3 note=64 velocity=64 time=1072
note_on channel=3 note=63 velocity=75 time=368
note_off channel=3 note=63 velocity=64 time=592
note_on channel=3 note=64 velocity=75 time=48
note_off channel=3 note=64 velocity=64 time=180
note_on channel=3 note=57 velocity=75 time=300
note_off channel=3 note=57 velocity=64 time=180
note_on channel=3 note=63 velocity=75 time=300
note_off channel=3 note=63 velocity=64 time=794
note_on channel=3 note=64 velocity=75 time=6
note_off channel=3 note=64 velocity=64 time=1072
<meta message end_of_track time=0>
<meta message text text='Tenor Sax 1' time=0>
control_change channel=4 control=11 value=127 time=0
control_change channel=4 control=7 value=106 time=0
control_change channel=4 control=10 value=62 time=0
control_change channel=4 control=91 value=88 time=0
control_change channel=4 control=93 value=28 time=0
control_change channel=4 control=0 value=56 time=0
control_change channel=4 control=32 value=0 time=0
program_change channel=4 program=66 time=0
control_change channel=4 control=11 value=109 time=9920
note_on channel=4 note=57 velocity=62 time=0
control_change channel=4 control=11 value=110 time=250
control_change channel=4 control=11 value=111 time=250
control_change channel=4 control=11 value=113 time=250
control_change channel=4 control=11 value=114 time=250
control_change channel=4 control=11 value=115 time=240
control_change channel=4 control=11 value=116 time=250
note_off channel=4 note=57 velocity=64 time=86
note_on channel=4 note=54 velocity=67 time=24
control_change channel=4 control=11 value=118 time=140
control_change channel=4 control=11 value=119 time=250
control_change channel=4 control=11 value=120 time=250
control_change channel=4 control=11 value=121 time=240
control_change channel=4 control=11 value=123 time=250
control_change channel=4 control=11 value=124 time=250
control_change channel=4 control=11 value=125 time=250
control_change channel=4 control=11 value=127 time=240
note_off channel=4 note=54 velocity=64 time=26
note_on channel=4 note=53 velocity=75 time=344
note_off channel=4 note=53 velocity=64 time=592
note_on channel=4 note=53 velocity=77 time=48
note_off channel=4 note=53 velocity=64 time=180
note_on channel=4 note=55 velocity=79 time=300
note_off channel=4 note=55 velocity=64 time=180
note_on channel=4 note=52 velocity=80 time=300
note_off channel=4 note=52 velocity=64 time=788
note_on channel=4 note=52 velocity=84 time=12
note_off channel=4 note=52 velocity=64 time=604
note_on channel=4 note=52 velocity=85 time=36
note_off channel=4 note=52 velocity=64 time=284
note_on channel=4 note=48 velocity=86 time=36
note_off channel=4 note=48 velocity=64 time=136
control_change channel=4 control=93 value=60 time=34584
note_on channel=4 note=62 velocity=62 time=320
note_off channel=4 note=62 velocity=64 time=148
note_on channel=4 note=68 velocity=75 time=12
note_off channel=4 note=68 velocity=64 time=156
note_on channel=4 note=69 velocity=69 time=324
note_off channel=4 note=69 velocity=64 time=308
note_on channel=4 note=62 velocity=69 time=12
note_off channel=4 note=62 velocity=64 time=112
note_on channel=4 note=68 velocity=76 time=368
note_off channel=4 note=68 velocity=64 time=468
note_on channel=4 note=69 velocity=69 time=12
note_off channel=4 note=69 velocity=64 time=160
note_on channel=4 note=68 velocity=56 time=0
note_on channel=4 note=69 velocity=44 time=160
note_off channel=4 note=68 velocity=64 time=24
note_on channel=4 note=68 velocity=62 time=136
note_off channel=4 note=69 velocity=64 time=24
note_on channel=4 note=69 velocity=69 time=136
note_off channel=4 note=68 velocity=64 time=24
note_off channel=4 note=69 velocity=64 time=284
note_on channel=4 note=62 velocity=69 time=12
note_off channel=4 note=62 velocity=64 time=148
note_on channel=4 note=62 velocity=62 time=812
note_off channel=4 note=62 velocity=64 time=148
note_on channel=4 note=68 velocity=75 time=12
note_off channel=4 note=68 velocity=64 time=156
note_on channel=4 note=69 velocity=69 time=324
note_off channel=4 note=69 velocity=64 time=308
note_on channel=4 note=62 velocity=69 time=12
note_off channel=4 note=62 velocity=64 time=112
note_on channel=4 note=68 velocity=76 time=368
note_off channel=4 note=68 velocity=64 time=468
note_on channel=4 note=69 velocity=69 time=12
note_off channel=4 note=69 velocity=64 time=160
note_on channel=4 note=68 velocity=56 time=0
note_on channel=4 note=69 velocity=44 time=160
note_off channel=4 note=68 velocity=64 time=24
note_on channel=4 note=68 velocity=62 time=136
note_off channel=4 note=69 velocity=64 time=24
note_on channel=4 note=69 velocity=69 time=136
note_off channel=4 note=68 velocity=64 time=24
note_off channel=4 note=69 velocity=64 time=284
note_on channel=4 note=62 velocity=69 time=12
note_off channel=4 note=62 velocity=64 time=148
note_on channel=4 note=62 velocity=62 time=812
note_off channel=4 note=62 velocity=64 time=148
note_on channel=4 note=68 velocity=75 time=12
note_off channel=4 note=68 velocity=64 time=156
note_on channel=4 note=69 velocity=69 time=324
note_off channel=4 note=69 velocity=64 time=308
note_on channel=4 note=62 velocity=69 time=12
note_off channel=4 note=62 velocity=64 time=112
note_on channel=4 note=68 velocity=75 time=368
note_off channel=4 note=68 velocity=64 time=468
note_on channel=4 note=69 velocity=69 time=12
note_off channel=4 note=69 velocity=64 time=160
note_on channel=4 note=68 velocity=56 time=0
note_on channel=4 note=69 velocity=44 time=160
note_off channel=4 note=68 velocity=64 time=24
note_on channel=4 note=68 velocity=62 time=136
note_off channel=4 note=69 velocity=64 time=24
note_on channel=4 note=69 velocity=69 time=136
note_off channel=4 note=68 velocity=64 time=24
note_off channel=4 note=69 velocity=64 time=284
note_on channel=4 note=60 velocity=56 time=12
note_off channel=4 note=60 velocity=64 time=160
note_on channel=4 note=62 velocity=65 time=0
note_off channel=4 note=62 velocity=64 time=320
note_on channel=4 note=63 velocity=69 time=0
control_change channel=4 control=11 value=127 time=232
control_change channel=4 control=11 value=121 time=24
control_change channel=4 control=11 value=115 time=24
control_change channel=4 control=11 value=109 time=24
control_change channel=4 control=11 value=103 time=24
control_change channel=4 control=11 value=96 time=24
control_change channel=4 control=11 value=90 time=24
control_change channel=4 control=11 value=84 time=24
control_change channel=4 control=11 value=84 time=0
control_change channel=4 control=11 value=85 time=120
control_change channel=4 control=11 value=86 time=120
control_change channel=4 control=11 value=88 time=120
control_change channel=4 control=11 value=89 time=120
control_change channel=4 control=11 value=91 time=120
control_change channel=4 control=11 value=93 time=120
control_change channel=4 control=11 value=94 time=120
control_change channel=4 control=11 value=95 time=120
control_change channel=4 control=11 value=96 time=120
control_change channel=4 control=11 value=99 time=120
control_change channel=4 control=11 value=100 time=120
control_change channel=4 control=11 value=101 time=120
control_change channel=4 control=11 value=103 time=120
control_change channel=4 control=11 value=105 time=120
control_change channel=4 control=11 value=104 time=288
control_change channel=4 control=11 value=103 time=264
control_change channel=4 control=11 value=101 time=264
control_change channel=4 control=11 value=100 time=288
control_change channel=4 control=11 value=99 time=264
control_change channel=4 control=11 value=98 time=264
note_off channel=4 note=63 velocity=64 time=216
control_change channel=4 control=11 value=96 time=48
control_change channel=4 control=11 value=127 time=24
control_change channel=4 control=93 value=30 time=0
note_on channel=4 note=53 velocity=62 time=3200
note_off channel=4 note=53 velocity=64 time=160
note_on channel=4 note=55 velocity=75 time=0
note_off channel=4 note=55 velocity=64 time=314
note_on channel=4 note=55 velocity=69 time=6
note_off channel=4 note=55 velocity=64 time=142
note_on channel=4 note=53 velocity=75 time=6
note_off channel=4 note=53 velocity=64 time=132
control_change channel=4 control=93 value=60 time=3720
note_on channel=4 note=62 velocity=62 time=320
note_off channel=4 note=62 velocity=64 time=136
note_on channel=4 note=68 velocity=75 time=24
note_off channel=4 note=68 velocity=64 time=156
note_on channel=4 note=69 velocity=69 time=324
note_off channel=4 note=69 velocity=64 time=308
note_on channel=4 note=62 velocity=69 time=12
note_off channel=4 note=62 velocity=64 time=136
note_on channel=4 note=63 velocity=75 time=344
control_change channel=4 control=11 value=127 time=160
control_change channel=4 control=11 value=123 time=12
control_change channel=4 control=11 value=119 time=12
control_change channel=4 control=11 value=114 time=12
control_change channel=4 control=11 value=110 time=12
control_change channel=4 control=11 value=105 time=12
control_change channel=4 control=11 value=101 time=12
control_change channel=4 control=11 value=98 time=12
control_change channel=4 control=11 value=93 time=12
control_change channel=4 control=11 value=89 time=12
control_change channel=4 control=11 value=84 time=12
control_change channel=4 control=11 value=84 time=0
control_change channel=4 control=11 value=88 time=96
control_change channel=4 control=11 value=91 time=84
control_change channel=4 control=11 value=94 time=60
control_change channel=4 control=11 value=98 time=96
control_change channel=4 control=11 value=101 time=84
control_change channel=4 control=11 value=104 time=60
control_change channel=4 control=11 value=108 time=84
control_change channel=4 control=11 value=111 time=96
control_change channel=4 control=11 value=114 time=60
control_change channel=4 control=11 value=118 time=84
control_change channel=4 control=11 value=121 time=96
control_change channel=4 control=11 value=124 time=60
control_change channel=4 control=11 value=127 time=48
note_off channel=4 note=63 velocity=64 time=116
note_on channel=4 note=60 velocity=56 time=36
note_off channel=4 note=60 velocity=64 time=160
note_on channel=4 note=64 velocity=65 time=0
note_off channel=4 note=64 velocity=64 time=308
note_on channel=4 note=65 velocity=69 time=12
note_off channel=4 note=65 velocity=64 time=124
note_on channel=4 note=62 velocity=44 time=916
note_on channel=4 note=61 velocity=55 time=40
note_on channel=4 note=60 velocity=69 time=40
note_off channel=4 note=62 velocity=64 time=8
note_off channel=4 note=61 velocity=64 time=28
note_off channel=4 note=60 velocity=64 time=284
note_on channel=4 note=62 velocity=62 time=0
note_off channel=4 note=62 velocity=64 time=160
note_on channel=4 note=65 velocity=71 time=0
note_off channel=4 note=65 velocity=64 time=320
note_on channel=4 note=63 velocity=74 time=0
note_off channel=4 note=63 velocity=64 time=628
note_on channel=4 note=60 velocity=70 time=12
note_off channel=4 note=60 velocity=64 time=320
note_on channel=4 note=58 velocity=75 time=0
control_change channel=4 control=11 value=127 time=160
control_change channel=4 control=11 value=124 time=120
control_change channel=4 control=11 value=121 time=96
control_change channel=4 control=11 value=119 time=120
control_change channel=4 control=11 value=116 time=96
control_change channel=4 control=11 value=114 time=120
control_change channel=4 control=11 value=111 time=72
control_change channel=4 control=11 value=109 time=120
control_change channel=4 control=11 value=106 time=96
note_off channel=4 note=58 velocity=64 time=72
control_change channel=4 control=11 value=104 time=24
control_change channel=4 control=11 value=127 time=24
control_change channel=4 control=11 value=127 time=0
control_change channel=4 control=93 value=30 time=0
note_on channel=4 note=57 velocity=62 time=0
note_off channel=4 note=57 velocity=64 time=156
note_on channel=4 note=57 velocity=62 time=324
note_off channel=4 note=57 velocity=64 time=308
note_on channel=4 note=55 velocity=62 time=12
note_off channel=4 note=55 velocity=64 time=148
note_on channel=4 note=57 velocity=56 time=12
note_off channel=4 note=57 velocity=64 time=68
note_on channel=4 note=57 velocity=62 time=12
note_off channel=4 note=57 velocity=64 time=80
note_on channel=4 note=55 velocity=65 time=320
note_off channel=4 note=55 velocity=64 time=320
control_change channel=4 control=11 value=104 time=0
note_on channel=4 note=57 velocity=67 time=0
control_change channel=4 control=11 value=105 time=100
control_change channel=4 control=11 value=108 time=80
control_change channel=4 control=11 value=109 time=100
control_change channel=4 control=11 value=111 time=100
control_change channel=4 control=11 value=114 time=90
control_change channel=4 control=11 value=115 time=100
control_change channel=4 control=11 value=118 time=70
control_change channel=4 control=11 value=119 time=100
control_change channel=4 control=11 value=121 time=100
control_change channel=4 control=11 value=124 time=90
control_change channel=4 control=11 value=125 time=100
control_change channel=4 control=11 value=127 time=10
note_off channel=4 note=57 velocity=64 time=92
note_on channel=4 note=60 velocity=69 time=308
note_on channel=4 note=59 velocity=40 time=112
note_on channel=4 note=58 velocity=28 time=40
note_off channel=4 note=60 velocity=64 time=4
note_off channel=4 note=59 velocity=64 time=8
note_on channel=4 note=57 velocity=17 time=28
note_off channel=4 note=58 velocity=64 time=12
note_off channel=4 note=57 velocity=64 time=40
note_on channel=4 note=60 velocity=70 time=236
note_off channel=4 note=60 velocity=64 time=604
note_on channel=4 note=60 velocity=62 time=36
note_off channel=4 note=60 velocity=64 time=308
note_on channel=4 note=60 velocity=50 time=12
note_off channel=4 note=60 velocity=64 time=148
note_on channel=4 note=60 velocity=62 time=12
note_off channel=4 note=60 velocity=64 time=296
note_on channel=4 note=60 velocity=62 time=24
note_off channel=4 note=60 velocity=64 time=168
note_on channel=4 note=56 velocity=62 time=312
control_change channel=4 control=11 value=127 time=160
control_change channel=4 control=11 value=124 time=96
control_change channel=4 control=11 value=121 time=72
control_change channel=4 control=11 value=118 time=120
control_change channel=4 control=11 value=115 time=72
control_change channel=4 control=11 value=111 time=120
control_change channel=4 control=11 value=108 time=120
control_change channel=4 control=11 value=105 time=72
control_change channel=4 control=11 value=101 time=120
note_off channel=4 note=56 velocity=64 time=108
control_change channel=4 control=11 value=98 time=12
control_change channel=4 control=11 value=96 time=24
control_change channel=4 control=11 value=127 time=24
control_change channel=4 control=93 value=60 time=0
note_on channel=4 note=64 velocity=75 time=320
note_off channel=4 note=64 velocity=64 time=148
note_on channel=4 note=62 velocity=62 time=12
note_off channel=4 note=62 velocity=64 time=296
note_on channel=4 note=57 velocity=69 time=24
control_change channel=4 control=11 value=127 time=160
control_change channel=4 control=11 value=119 time=24
control_change channel=4 control=11 value=111 time=24
control_change channel=4 control=11 value=104 time=24
control_change channel=4 control=11 value=96 time=24
control_change channel=4 control=11 value=89 time=24
control_change channel=4 control=11 value=89 time=0
control_change channel=4 control=11 value=93 time=120
control_change channel=4 control=11 value=96 time=96
control_change channel=4 control=11 value=99 time=72
control_change channel=4 control=11 value=103 time=96
control_change channel=4 control=11 value=106 time=120
control_change channel=4 control=11 value=109 time=48
control_change channel=4 control=11 value=113 time=120
control_change channel=4 control=11 value=116 time=96
control_change channel=4 control=11 value=119 time=72
control_change channel=4 control=11 value=123 time=96
control_change channel=4 control=11 value=127 time=96
note_off channel=4 note=57 velocity=64 time=104
note_on channel=4 note=64 velocity=75 time=24
note_off channel=4 note=64 velocity=64 time=148
note_on channel=4 note=62 velocity=62 time=12
note_off channel=4 note=62 velocity=64 time=296
note_on channel=4 note=57 velocity=69 time=24
control_change channel=4 control=11 value=127 time=160
control_change channel=4 control=11 value=119 time=24
control_change channel=4 control=11 value=111 time=24
control_change channel=4 control=11 value=104 time=24
control_change channel=4 control=11 value=96 time=24
control_change channel=4 control=11 value=89 time=24
control_change channel=4 control=11 value=89 time=0
control_change channel=4 control=11 value=93 time=120
control_change channel=4 control=11 value=96 time=96
control_change channel=4 control=11 value=99 time=72
control_change channel=4 control=11 value=103 time=96
control_change channel=4 control=11 value=106 time=120
control_change channel=4 control=11 value=109 time=48
control_change channel=4 control=11 value=113 time=120
control_change channel=4 control=11 value=116 time=96
control_change channel=4 control=11 value=119 time=72
control_change channel=4 control=11 value=123 time=96
control_change channel=4 control=11 value=127 time=96
note_off channel=4 note=57 velocity=64 time=104
note_on channel=4 note=62 velocity=75 time=24
note_off channel=4 note=62 velocity=64 time=148
note_on channel=4 note=60 velocity=62 time=12
note_off channel=4 note=60 velocity=64 time=296
note_on channel=4 note=55 velocity=69 time=24
control_change channel=4 control=11 value=127 time=232
control_change channel=4 control=11 value=121 time=24
control_change channel=4 control=11 value=115 time=24
control_change channel=4 control=11 value=109 time=24
control_change channel=4 control=11 value=103 time=24
control_change channel=4 control=11 value=96 time=24
control_change channel=4 control=11 value=90 time=24
control_change channel=4 control=11 value=84 time=24
control_change channel=4 control=11 value=84 time=0
control_change channel=4 control=11 value=85 time=0
control_change channel=4 control=11 value=85 time=120
control_change channel=4 control=11 value=88 time=120
control_change channel=4 control=11 value=89 time=120
control_change channel=4 control=11 value=91 time=120
control_change channel=4 control=11 value=94 time=120
control_change channel=4 control=11 value=95 time=120
control_change channel=4 control=11 value=98 time=120
control_change channel=4 control=11 value=99 time=120
control_change channel=4 control=11 value=101 time=120
control_change channel=4 control=11 value=104 time=120
control_change channel=4 control=11 value=105 time=120
control_change channel=4 control=11 value=108 time=120
control_change channel=4 control=11 value=109 time=120
control_change channel=4 control=11 value=111 time=120
control_change channel=4 control=11 value=114 time=120
control_change channel=4 control=11 value=115 time=120
control_change channel=4 control=11 value=118 time=120
control_change channel=4 control=11 value=119 time=120
control_change channel=4 control=11 value=121 time=120
control_change channel=4 control=11 value=124 time=120
control_change channel=4 control=11 value=125 time=120
control_change channel=4 control=11 value=127 time=24
note_off channel=4 note=55 velocity=64 time=368
control_change channel=4 control=93 value=30 time=40
note_on channel=4 note=61 velocity=69 time=8
note_off channel=4 note=61 velocity=64 time=616
note_on channel=4 note=53 velocity=62 time=24
note_off channel=4 note=53 velocity=64 time=296
note_on channel=4 note=53 velocity=62 time=24
note_off channel=4 note=53 velocity=64 time=136
control_change channel=4 control=93 value=60 time=12984
note_on channel=4 note=56 velocity=88 time=960
note_off channel=4 note=56 velocity=64 time=308
note_on channel=4 note=57 velocity=88 time=12
note_off channel=4 note=57 velocity=64 time=180
note_on channel=4 note=62 velocity=88 time=300
note_off channel=4 note=62 velocity=64 time=1072
note_on channel=4 note=56 velocity=88 time=48
note_off channel=4 note=56 velocity=64 time=308
note_on channel=4 note=57 velocity=88 time=12
note_off channel=4 note=57 velocity=64 time=180
note_on channel=4 note=50 velocity=88 time=300
note_off channel=4 note=50 velocity=64 time=1072
note_on channel=4 note=56 velocity=88 time=48
note_off channel=4 note=56 velocity=64 time=180
note_on channel=4 note=57 velocity=88 time=300
note_off channel=4 note=57 velocity=64 time=180
note_on channel=4 note=62 velocity=88 time=300
note_off channel=4 note=62 velocity=64 time=912
note_on channel=4 note=56 velocity=88 time=48
note_off channel=4 note=56 velocity=64 time=308
note_on channel=4 note=57 velocity=88 time=12
note_off channel=4 note=57 velocity=64 time=180
note_on channel=4 note=50 velocity=88 time=300
note_off channel=4 note=50 velocity=64 time=1072
note_on channel=4 note=56 velocity=88 time=48
note_off channel=4 note=56 velocity=64 time=180
note_on channel=4 note=57 velocity=88 time=300
note_off channel=4 note=57 velocity=64 time=180
note_on channel=4 note=62 velocity=88 time=300
note_off channel=4 note=62 velocity=64 time=912
note_on channel=4 note=64 velocity=88 time=48
note_off channel=4 note=64 velocity=64 time=308
note_on channel=4 note=62 velocity=88 time=12
note_off channel=4 note=62 velocity=64 time=180
note_on channel=4 note=50 velocity=88 time=300
note_off channel=4 note=50 velocity=64 time=1072
note_on channel=4 note=50 velocity=88 time=48
note_off channel=4 note=50 velocity=64 time=320
note_on channel=4 note=53 velocity=81 time=0
note_off channel=4 note=53 velocity=64 time=160
note_on channel=4 note=56 velocity=88 time=0
note_off channel=4 note=56 velocity=64 time=320
note_on channel=4 note=55 velocity=88 time=0
control_change channel=4 control=11 value=127 time=160
control_change channel=4 control=11 value=125 time=120
control_change channel=4 control=11 value=124 time=120
control_change channel=4 control=11 value=123 time=120
control_change channel=4 control=11 value=121 time=120
control_change channel=4 control=11 value=120 time=120
control_change channel=4 control=11 value=119 time=120
control_change channel=4 control=11 value=118 time=120
control_change channel=4 control=11 value=115 time=120
control_change channel=4 control=11 value=114 time=120
control_change channel=4 control=11 value=113 time=120
control_change channel=4 control=11 value=111 time=120
control_change channel=4 control=11 value=110 time=120
control_change channel=4 control=11 value=109 time=120
control_change channel=4 control=11 value=108 time=120
control_change channel=4 control=11 value=105 time=120
note_off channel=4 note=55 velocity=64 time=72
control_change channel=4 control=93 value=30 time=48
control_change channel=4 control=11 value=127 time=0
note_on channel=4 note=63 velocity=75 time=480
note_off channel=4 note=63 velocity=64 time=308
note_on channel=4 note=63 velocity=75 time=12
note_off channel=4 note=63 velocity=64 time=204
note_on channel=4 note=60 velocity=62 time=276
note_off channel=4 note=60 velocity=64 time=160
note_on channel=4 note=63 velocity=75 time=0
note_off channel=4 note=63 velocity=64 time=320
note_on channel=4 note=63 velocity=69 time=0
note_off channel=4 note=63 velocity=64 time=148
note_on channel=4 note=60 velocity=75 time=12
note_off channel=4 note=60 velocity=64 time=308
note_on channel=4 note=55 velocity=75 time=12
note_off channel=4 note=55 velocity=64 time=148
note_on channel=4 note=57 velocity=75 time=1932
note_off channel=4 note=57 velocity=64 time=180
note_on channel=4 note=58 velocity=75 time=300
note_off channel=4 note=58 velocity=64 time=308
note_on channel=4 note=58 velocity=75 time=12
note_off channel=4 note=58 velocity=64 time=192
note_on channel=4 note=60 velocity=75 time=288
note_on channel=4 note=62 velocity=54 time=1440
note_off channel=4 note=60 velocity=64 time=16
note_on channel=4 note=61 velocity=62 time=64
note_off channel=4 note=62 velocity=64 time=24
note_on channel=4 note=60 velocity=74 time=56
note_off channel=4 note=61 velocity=64 time=24
note_off channel=4 note=60 velocity=64 time=284
note_on channel=4 note=56 velocity=75 time=12
pitchwheel channel=4 pitch=0 time=160
control_change channel=4 control=11 value=127 time=0
pitchwheel channel=4 pitch=242 time=12
control_change channel=4 control=11 value=124 time=72
control_change channel=4 control=11 value=121 time=72
pitchwheel channel=4 pitch=0 time=48
control_change channel=4 control=11 value=119 time=60
control_change channel=4 control=11 value=116 time=48
pitchwheel channel=4 pitch=-82 time=36
control_change channel=4 control=11 value=114 time=72
pitchwheel channel=4 pitch=-244 time=24
control_change channel=4 control=11 value=111 time=24
pitchwheel channel=4 pitch=-407 time=48
pitchwheel channel=4 pitch=-569 time=60
control_change channel=4 control=11 value=109 time=0
control_change channel=4 control=11 value=106 time=48
pitchwheel channel=4 pitch=-731 time=12
pitchwheel channel=4 pitch=-893 time=36
pitchwheel channel=4 pitch=-1055 time=48
control_change channel=4 control=11 value=104 time=12
pitchwheel channel=4 pitch=-1218 time=24
pitchwheel channel=4 pitch=-1380 time=24
control_change channel=4 control=11 value=101 time=0
pitchwheel channel=4 pitch=-1542 time=36
pitchwheel channel=4 pitch=-1704 time=24
pitchwheel channel=4 pitch=-1866 time=12
pitchwheel channel=4 pitch=-2029 time=24
pitchwheel channel=4 pitch=-2191 time=12
control_change channel=4 control=11 value=99 time=0
pitchwheel channel=4 pitch=-2353 time=12
note_off channel=4 note=56 velocity=64 time=12
pitchwheel channel=4 pitch=-2515 time=0
pitchwheel channel=4 pitch=-2840 time=12
control_change channel=4 control=11 value=96 time=12
control_change channel=4 control=11 value=127 time=24
pitchwheel channel=4 pitch=0 time=0
note_on channel=4 note=58 velocity=75 time=1280
note_off channel=4 note=58 velocity=64 time=616
note_on channel=4 note=58 velocity=75 time=24
note_off channel=4 note=58 velocity=64 time=192
note_on channel=4 note=58 velocity=75 time=288
note_off channel=4 note=58 velocity=64 time=308
note_on channel=4 note=62 velocity=75 time=12
note_off channel=4 note=62 velocity=64 time=148
note_on channel=4 note=62 velocity=75 time=332
note_off channel=4 note=62 velocity=64 time=192
note_on channel=4 note=62 velocity=69 time=288
note_off channel=4 note=62 velocity=64 time=160
note_on channel=4 note=58 velocity=75 time=0
note_off channel=4 note=58 velocity=64 time=468
note_on channel=4 note=55 velocity=75 time=12
note_off channel=4 note=55 velocity=64 time=168
note_on channel=4 note=63 velocity=81 time=792
note_off channel=4 note=63 velocity=64 time=924
note_on channel=4 note=63 velocity=75 time=36
note_off channel=4 note=63 velocity=64 time=192
control_change channel=4 control=11 value=104 time=288
note_on channel=4 note=61 velocity=81 time=0
control_change channel=4 control=11 value=106 time=108
control_change channel=4 control=11 value=109 time=108
note_off channel=4 note=61 velocity=64 time=104
note_on channel=4 note=61 velocity=81 time=0
control_change channel=4 control=11 value=111 time=4
control_change channel=4 control=11 value=114 time=108
control_change channel=4 control=11 value=116 time=108
control_change channel=4 control=11 value=119 time=108
control_change channel=4 control=11 value=121 time=108
control_change channel=4 control=11 value=124 time=108
note_off channel=4 note=61 velocity=64 time=72
control_change channel=4 control=11 value=127 time=24
control_change channel=4 control=11 value=127 time=0
note_on channel=4 note=60 velocity=81 time=0
control_change channel=4 control=11 value=124 time=84
control_change channel=4 control=11 value=121 time=84
control_change channel=4 control=11 value=119 time=108
note_off channel=4 note=60 velocity=64 time=44
note_on channel=4 note=58 velocity=81 time=0
control_change channel=4 control=11 value=116 time=4
control_change channel=4 control=11 value=114 time=108
control_change channel=4 control=11 value=111 time=48
control_change channel=4 control=11 value=109 time=108
control_change channel=4 control=11 value=106 time=60
control_change channel=4 control=11 value=104 time=108
control_change channel=4 control=11 value=101 time=48
note_off channel=4 note=58 velocity=64 time=108
control_change channel=4 control=93 value=60 time=24
control_change channel=4 control=11 value=127 time=24
note_on channel=4 note=62 velocity=62 time=320
note_off channel=4 note=62 velocity=64 time=148
note_on channel=4 note=68 velocity=75 time=12
note_off channel=4 note=68 velocity=64 time=156
note_on channel=4 note=69 velocity=69 time=324
note_off channel=4 note=69 velocity=64 time=308
note_on channel=4 note=62 velocity=69 time=12
note_off channel=4 note=62 velocity=64 time=112
note_on channel=4 note=68 velocity=76 time=368
note_off channel=4 note=68 velocity=64 time=468
note_on channel=4 note=69 velocity=69 time=12
note_off channel=4 note=69 velocity=64 time=160
note_on channel=4 note=68 velocity=56 time=0
note_on channel=4 note=69 velocity=44 time=160
note_off channel=4 note=68 velocity=64 time=24
note_on channel=4 note=68 velocity=62 time=136
note_off channel=4 note=69 velocity=64 time=24
note_on channel=4 note=69 velocity=69 time=136
note_off channel=4 note=68 velocity=64 time=24
note_off channel=4 note=69 velocity=64 time=284
note_on channel=4 note=62 velocity=69 time=12
note_off channel=4 note=62 velocity=64 time=148
note_on channel=4 note=62 velocity=62 time=812
note_off channel=4 note=62 velocity=64 time=148
note_on channel=4 note=68 velocity=75 time=12
note_off channel=4 note=68 velocity=64 time=156
note_on channel=4 note=69 velocity=69 time=324
note_off channel=4 note=69 velocity=64 time=308
note_on channel=4 note=62 velocity=69 time=12
note_off channel=4 note=62 velocity=64 time=112
note_on channel=4 note=68 velocity=76 time=368
note_off channel=4 note=68 velocity=64 time=468
note_on channel=4 note=69 velocity=69 time=12
note_off channel=4 note=69 velocity=64 time=160
note_on channel=4 note=68 velocity=56 time=0
note_on channel=4 note=69 velocity=44 time=160
note_off channel=4 note=68 velocity=64 time=24
note_on channel=4 note=68 velocity=62 time=136
note_off channel=4 note=69 velocity=64 time=24
note_on channel=4 note=69 velocity=69 time=136
note_off channel=4 note=68 velocity=64 time=24
note_off channel=4 note=69 velocity=64 time=284
note_on channel=4 note=62 velocity=69 time=12
note_off channel=4 note=62 velocity=64 time=148
note_on channel=4 note=62 velocity=62 time=812
note_off channel=4 note=62 velocity=64 time=148
note_on channel=4 note=68 velocity=75 time=12
note_off channel=4 note=68 velocity=64 time=156
note_on channel=4 note=69 velocity=69 time=324
note_off channel=4 note=69 velocity=64 time=308
note_on channel=4 note=62 velocity=69 time=12
note_off channel=4 note=62 velocity=64 time=112
note_on channel=4 note=68 velocity=75 time=368
note_off channel=4 note=68 velocity=64 time=468
note_on channel=4 note=69 velocity=69 time=12
note_off channel=4 note=69 velocity=64 time=160
note_on channel=4 note=68 velocity=56 time=0
note_on channel=4 note=69 velocity=44 time=160
note_off channel=4 note=68 velocity=64 time=24
note_on channel=4 note=68 velocity=62 time=136
note_off channel=4 note=69 velocity=64 time=24
note_on channel=4 note=69 velocity=69 time=136
note_off channel=4 note=68 velocity=64 time=24
note_off channel=4 note=69 velocity=64 time=284
note_on channel=4 note=60 velocity=56 time=12
note_off channel=4 note=60 velocity=64 time=160
note_on channel=4 note=62 velocity=65 time=0
note_off channel=4 note=62 velocity=64 time=320
note_on channel=4 note=63 velocity=69 time=0
control_change channel=4 control=11 value=127 time=232
control_change channel=4 control=11 value=121 time=24
control_change channel=4 control=11 value=115 time=24
control_change channel=4 control=11 value=109 time=24
control_change channel=4 control=11 value=103 time=24
control_change channel=4 control=11 value=96 time=24
control_change channel=4 control=11 value=90 time=24
control_change channel=4 control=11 value=84 time=24
control_change channel=4 control=11 value=84 time=0
control_change channel=4 control=11 value=84 time=0
control_change channel=4 control=11 value=84 time=0
control_change channel=4 control=11 value=85 time=120
control_change channel=4 control=11 value=88 time=120
control_change channel=4 control=11 value=89 time=120
control_change channel=4 control=11 value=91 time=120
control_change channel=4 control=11 value=93 time=120
control_change channel=4 control=11 value=95 time=120
control_change channel=4 control=11 value=96 time=120
control_change channel=4 control=11 value=99 time=96
control_change channel=4 control=11 value=100 time=120
control_change channel=4 control=11 value=103 time=120
control_change channel=4 control=11 value=104 time=120
control_change channel=4 control=11 value=106 time=120
control_change channel=4 control=11 value=108 time=120
control_change channel=4 control=11 value=110 time=120
control_change channel=4 control=11 value=111 time=120
control_change channel=4 control=11 value=114 time=96
control_change channel=4 control=11 value=115 time=120
control_change channel=4 control=11 value=118 time=120
control_change channel=4 control=11 value=119 time=120
control_change channel=4 control=11 value=121 time=120
control_change channel=4 control=11 value=123 time=120
control_change channel=4 control=11 value=125 time=120
control_change channel=4 control=11 value=127 time=48
note_on channel=4 note=61 velocity=21 time=320
note_off channel=4 note=63 velocity=64 time=40
note_on channel=4 note=58 velocity=31 time=0
note_on channel=4 note=55 velocity=44 time=40
note_off channel=4 note=61 velocity=64 time=8
note_on channel=4 note=52 velocity=54 time=32
note_off channel=4 note=58 velocity=64 time=8
note_on channel=4 note=50 velocity=75 time=32
note_off channel=4 note=55 velocity=64 time=8
note_off channel=4 note=52 velocity=64 time=40
note_off channel=4 note=50 velocity=64 time=272
control_change channel=4 control=11 value=104 time=0
note_on channel=4 note=53 velocity=81 time=0
control_change channel=4 control=11 value=105 time=120
control_change channel=4 control=11 value=106 time=110
control_change channel=4 control=11 value=108 time=110
control_change channel=4 control=11 value=109 time=110
control_change channel=4 control=11 value=110 time=110
control_change channel=4 control=11 value=111 time=110
control_change channel=4 control=11 value=113 time=110
control_change channel=4 control=11 value=114 time=110
control_change channel=4 control=11 value=115 time=110
control_change channel=4 control=11 value=116 time=120
control_change channel=4 control=11 value=118 time=110
control_change channel=4 control=11 value=119 time=110
control_change channel=4 control=11 value=120 time=110
control_change channel=4 control=11 value=121 time=110
control_change channel=4 control=11 value=123 time=110
control_change channel=4 control=11 value=124 time=110
control_change channel=4 control=11 value=125 time=110
control_change channel=4 control=11 value=127 time=110
note_off channel=4 note=53 velocity=64 time=32
control_change channel=4 control=93 value=30 time=48
control_change channel=4 control=93 value=30 time=0
note_on channel=4 note=61 velocity=75 time=0
note_off channel=4 note=61 velocity=64 time=456
note_on channel=4 note=61 velocity=75 time=24
note_off channel=4 note=61 velocity=64 time=308
note_on channel=4 note=61 velocity=75 time=12
note_off channel=4 note=61 velocity=64 time=148
note_on channel=4 note=53 velocity=75 time=812
note_off channel=4 note=53 velocity=64 time=616
note_on channel=4 note=57 velocity=75 time=24
note_off channel=4 note=57 velocity=64 time=308
note_on channel=4 note=53 velocity=62 time=12
note_off channel=4 note=53 velocity=64 time=148
note_on channel=4 note=60 velocity=75 time=12
note_off channel=4 note=60 velocity=64 time=296
note_on channel=4 note=60 velocity=75 time=24
note_off channel=4 note=60 velocity=64 time=180
note_on channel=4 note=60 velocity=75 time=300
note_off channel=4 note=60 velocity=64 time=616
note_on channel=4 note=60 velocity=75 time=24
note_off channel=4 note=60 velocity=64 time=308
note_on channel=4 note=60 velocity=75 time=12
note_off channel=4 note=60 velocity=64 time=136
note_on channel=4 note=59 velocity=75 time=1304
note_off channel=4 note=59 velocity=64 time=580
note_on channel=4 note=59 velocity=75 time=60
note_off channel=4 note=59 velocity=64 time=168
note_on channel=4 note=59 velocity=75 time=312
note_off channel=4 note=59 velocity=64 time=168
note_on channel=4 note=58 velocity=75 time=312
note_off channel=4 note=58 velocity=64 time=794
note_on channel=4 note=58 velocity=75 time=6
note_off channel=4 note=58 velocity=64 time=1072
note_on channel=4 note=60 velocity=69 time=368
note_off channel=4 note=60 velocity=64 time=1588
note_on channel=4 note=60 velocity=69 time=12
note_off channel=4 note=60 velocity=64 time=1850
<meta message end_of_track time=0>
<meta message text text='Tenor Sax 2' time=0>
control_change channel=5 control=11 value=127 time=0
control_change channel=5 control=7 value=106 time=0
control_change channel=5 control=10 value=51 time=0
control_change channel=5 control=91 value=81 time=0
control_change channel=5 control=93 value=25 time=0
control_change channel=5 control=0 value=56 time=0
control_change channel=5 control=32 value=0 time=0
program_change channel=5 program=66 time=0
control_change channel=5 control=11 value=109 time=9920
note_on channel=5 note=60 velocity=60 time=0
control_change channel=5 control=11 value=110 time=250
control_change channel=5 control=11 value=111 time=250
control_change channel=5 control=11 value=113 time=250
control_change channel=5 control=11 value=114 time=250
control_change channel=5 control=11 value=115 time=240
control_change channel=5 control=11 value=116 time=250
note_off channel=5 note=60 velocity=64 time=86
note_on channel=5 note=61 velocity=62 time=24
control_change channel=5 control=11 value=118 time=140
control_change channel=5 control=11 value=119 time=250
control_change channel=5 control=11 value=120 time=250
control_change channel=5 control=11 value=121 time=240
control_change channel=5 control=11 value=123 time=250
control_change channel=5 control=11 value=124 time=250
control_change channel=5 control=11 value=125 time=250
control_change channel=5 control=11 value=127 time=240
note_off channel=5 note=61 velocity=64 time=26
note_on channel=5 note=59 velocity=75 time=344
note_off channel=5 note=59 velocity=64 time=592
note_on channel=5 note=59 velocity=77 time=48
note_off channel=5 note=59 velocity=64 time=180
note_on channel=5 note=59 velocity=79 time=300
note_off channel=5 note=59 velocity=64 time=180
note_on channel=5 note=58 velocity=80 time=300
note_off channel=5 note=58 velocity=64 time=788
note_on channel=5 note=58 velocity=84 time=12
note_off channel=5 note=58 velocity=64 time=604
note_on channel=5 note=58 velocity=85 time=36
note_off channel=5 note=58 velocity=64 time=284
note_on channel=5 note=57 velocity=86 time=36
note_off channel=5 note=57 velocity=64 time=136
note_on channel=5 note=49 velocity=62 time=53144
note_off channel=5 note=49 velocity=64 time=160
note_on channel=5 note=53 velocity=75 time=0
note_off channel=5 note=53 velocity=64 time=314
note_on channel=5 note=53 velocity=69 time=6
note_off channel=5 note=53 velocity=64 time=142
note_on channel=5 note=50 velocity=75 time=6
note_off channel=5 note=50 velocity=64 time=132
note_on channel=5 note=54 velocity=62 time=10760
note_off channel=5 note=54 velocity=64 time=580
note_on channel=5 note=53 velocity=62 time=60
note_off channel=5 note=53 velocity=64 time=156
note_on channel=5 note=53 velocity=62 time=324
note_off channel=5 note=53 velocity=64 time=308
note_on channel=5 note=53 velocity=62 time=12
note_off channel=5 note=53 velocity=64 time=148
note_on channel=5 note=53 velocity=56 time=12
note_off channel=5 note=53 velocity=64 time=68
note_on channel=5 note=53 velocity=62 time=12
note_off channel=5 note=53 velocity=64 time=80
note_on channel=5 note=53 velocity=65 time=320
note_off channel=5 note=53 velocity=64 time=320
control_change channel=5 control=11 value=104 time=0
note_on channel=5 note=52 velocity=67 time=0
control_change channel=5 control=11 value=105 time=100
control_change channel=5 control=11 value=108 time=80
control_change channel=5 control=11 value=109 time=100
control_change channel=5 control=11 value=111 time=100
control_change channel=5 control=11 value=114 time=90
control_change channel=5 control=11 value=115 time=100
control_change channel=5 control=11 value=118 time=70
control_change channel=5 control=11 value=119 time=100
control_change channel=5 control=11 value=121 time=100
control_change channel=5 control=11 value=124 time=90
control_change channel=5 control=11 value=125 time=100
control_change channel=5 control=11 value=127 time=10
note_off channel=5 note=52 velocity=64 time=92
note_on channel=5 note=58 velocity=69 time=308
note_on channel=5 note=57 velocity=40 time=112
note_on channel=5 note=56 velocity=28 time=40
note_off channel=5 note=58 velocity=64 time=4
note_off channel=5 note=57 velocity=64 time=8
note_on channel=5 note=55 velocity=17 time=28
note_off channel=5 note=56 velocity=64 time=12
note_off channel=5 note=55 velocity=64 time=40
note_on channel=5 note=57 velocity=70 time=236
note_off channel=5 note=57 velocity=64 time=604
note_on channel=5 note=57 velocity=62 time=36
note_off channel=5 note=57 velocity=64 time=308
note_on channel=5 note=57 velocity=50 time=12
note_off channel=5 note=57 velocity=64 time=148
note_on channel=5 note=55 velocity=62 time=12
note_off channel=5 note=55 velocity=64 time=296
note_on channel=5 note=55 velocity=62 time=24
note_off channel=5 note=55 velocity=64 time=168
note_on channel=5 note=54 velocity=62 time=312
control_change channel=5 control=11 value=127 time=160
control_change channel=5 control=11 value=124 time=96
control_change channel=5 control=11 value=121 time=72
control_change channel=5 control=11 value=118 time=120
control_change channel=5 control=11 value=115 time=72
control_change channel=5 control=11 value=111 time=120
control_change channel=5 control=11 value=108 time=120
control_change channel=5 control=11 value=105 time=72
control_change channel=5 control=11 value=101 time=120
note_off channel=5 note=54 velocity=64 time=108
control_change channel=5 control=11 value=98 time=12
control_change channel=5 control=11 value=96 time=24
control_change channel=5 control=11 value=127 time=24
note_on channel=5 note=57 velocity=69 time=8000
note_off channel=5 note=57 velocity=64 time=616
note_on channel=5 note=50 velocity=62 time=24
note_off channel=5 note=50 velocity=64 time=296
note_on channel=5 note=50 velocity=62 time=24
note_off channel=5 note=50 velocity=64 time=136
note_on channel=5 note=57 velocity=75 time=28824
note_off channel=5 note=57 velocity=64 time=308
note_on channel=5 note=57 velocity=75 time=12
note_off channel=5 note=57 velocity=64 time=204
note_on channel=5 note=57 velocity=75 time=436
note_off channel=5 note=57 velocity=64 time=320
note_on channel=5 note=57 velocity=69 time=0
note_off channel=5 note=57 velocity=64 time=148
note_on channel=5 note=57 velocity=75 time=12
note_off channel=5 note=57 velocity=64 time=308
note_on channel=5 note=53 velocity=75 time=12
note_off channel=5 note=53 velocity=64 time=148
note_on channel=5 note=53 velocity=75 time=1932
note_off channel=5 note=53 velocity=64 time=180
note_on channel=5 note=56 velocity=75 time=300
note_off channel=5 note=56 velocity=64 time=308
note_on channel=5 note=56 velocity=75 time=12
note_off channel=5 note=56 velocity=64 time=192
note_on channel=5 note=55 velocity=75 time=288
note_on channel=5 note=57 velocity=54 time=1440
note_off channel=5 note=55 velocity=64 time=16
note_on channel=5 note=56 velocity=62 time=64
note_off channel=5 note=57 velocity=64 time=24
note_on channel=5 note=55 velocity=74 time=56
note_off channel=5 note=56 velocity=64 time=24
note_off channel=5 note=55 velocity=64 time=284
note_on channel=5 note=54 velocity=75 time=12
pitchwheel channel=5 pitch=0 time=160
control_change channel=5 control=11 value=127 time=0
pitchwheel channel=5 pitch=242 time=12
control_change channel=5 control=11 value=124 time=72
control_change channel=5 control=11 value=121 time=72
pitchwheel channel=5 pitch=0 time=48
control_change channel=5 control=11 value=119 time=60
control_change channel=5 control=11 value=116 time=48
pitchwheel channel=5 pitch=-82 time=36
control_change channel=5 control=11 value=114 time=72
pitchwheel channel=5 pitch=-244 time=24
control_change channel=5 control=11 value=111 time=24
pitchwheel channel=5 pitch=-407 time=48
pitchwheel channel=5 pitch=-569 time=60
control_change channel=5 control=11 value=109 time=0
control_change channel=5 control=11 value=106 time=48
pitchwheel channel=5 pitch=-731 time=12
pitchwheel channel=5 pitch=-893 time=36
pitchwheel channel=5 pitch=-1055 time=48
control_change channel=5 control=11 value=104 time=12
pitchwheel channel=5 pitch=-1218 time=24
pitchwheel channel=5 pitch=-1380 time=24
control_change channel=5 control=11 value=101 time=0
pitchwheel channel=5 pitch=-1542 time=36
pitchwheel channel=5 pitch=-1704 time=24
pitchwheel channel=5 pitch=-1866 time=12
pitchwheel channel=5 pitch=-2029 time=24
pitchwheel channel=5 pitch=-2191 time=12
control_change channel=5 control=11 value=99 time=0
pitchwheel channel=5 pitch=-2353 time=12
note_off channel=5 note=54 velocity=64 time=12
pitchwheel channel=5 pitch=-2515 time=0
pitchwheel channel=5 pitch=-2840 time=12
control_change channel=5 control=11 value=96 time=12
control_change channel=5 control=11 value=127 time=24
pitchwheel channel=5 pitch=0 time=0
note_on channel=5 note=50 velocity=75 time=1280
note_off channel=5 note=50 velocity=64 time=616
note_on channel=5 note=50 velocity=75 time=24
note_off channel=5 note=50 velocity=64 time=192
note_on channel=5 note=50 velocity=75 time=288
note_off channel=5 note=50 velocity=64 time=308
note_on channel=5 note=58 velocity=75 time=12
note_off channel=5 note=58 velocity=64 time=148
note_on channel=5 note=58 velocity=75 time=332
note_off channel=5 note=58 velocity=64 time=192
note_on channel=5 note=58 velocity=69 time=288
note_off channel=5 note=58 velocity=64 time=160
note_on channel=5 note=55 velocity=75 time=0
note_off channel=5 note=55 velocity=64 time=468
note_on channel=5 note=52 velocity=75 time=12
note_off channel=5 note=52 velocity=64 time=168
note_on channel=5 note=60 velocity=81 time=792
note_off channel=5 note=60 velocity=64 time=924
note_on channel=5 note=60 velocity=75 time=36
note_off channel=5 note=60 velocity=64 time=192
control_change channel=5 control=11 value=104 time=288
note_on channel=5 note=55 velocity=81 time=0
control_change channel=5 control=11 value=106 time=108
control_change channel=5 control=11 value=109 time=108
note_off channel=5 note=55 velocity=64 time=104
note_on channel=5 note=55 velocity=81 time=0
control_change channel=5 control=11 value=111 time=4
control_change channel=5 control=11 value=114 time=108
control_change channel=5 control=11 value=116 time=108
control_change channel=5 control=11 value=119 time=108
control_change channel=5 control=11 value=121 time=108
control_change channel=5 control=11 value=124 time=108
note_off channel=5 note=55 velocity=64 time=72
control_change channel=5 control=11 value=127 time=24
control_change channel=5 control=11 value=127 time=0
note_on channel=5 note=54 velocity=81 time=0
control_change channel=5 control=11 value=124 time=84
control_change channel=5 control=11 value=121 time=84
control_change channel=5 control=11 value=119 time=108
note_off channel=5 note=54 velocity=64 time=44
note_on channel=5 note=54 velocity=81 time=0
control_change channel=5 control=11 value=116 time=4
control_change channel=5 control=11 value=114 time=108
control_change channel=5 control=11 value=111 time=48
control_change channel=5 control=11 value=109 time=108
control_change channel=5 control=11 value=106 time=60
control_change channel=5 control=11 value=104 time=108
control_change channel=5 control=11 value=101 time=48
note_off channel=5 note=54 velocity=64 time=108
control_change channel=5 control=11 value=127 time=48
control_change channel=5 control=93 value=30 time=17280
note_on channel=5 note=56 velocity=75 time=0
note_off channel=5 note=56 velocity=64 time=456
note_on channel=5 note=56 velocity=75 time=24
note_off channel=5 note=56 velocity=64 time=308
note_on channel=5 note=55 velocity=75 time=12
note_off channel=5 note=55 velocity=64 time=148
note_on channel=5 note=50 velocity=75 time=812
note_off channel=5 note=50 velocity=64 time=616
note_on channel=5 note=53 velocity=75 time=24
note_off channel=5 note=53 velocity=64 time=308
note_on channel=5 note=50 velocity=62 time=12
note_off channel=5 note=50 velocity=64 time=148
note_on channel=5 note=57 velocity=75 time=12
note_off channel=5 note=57 velocity=64 time=296
note_on channel=5 note=57 velocity=75 time=24
note_off channel=5 note=57 velocity=64 time=180
note_on channel=5 note=55 velocity=75 time=300
note_off channel=5 note=55 velocity=64 time=616
note_on channel=5 note=55 velocity=75 time=24
note_off channel=5 note=55 velocity=64 time=308
note_on channel=5 note=54 velocity=75 time=12
note_off channel=5 note=54 velocity=64 time=136
note_on channel=5 note=53 velocity=75 time=1304
note_off channel=5 note=53 velocity=64 time=580
note_on channel=5 note=53 velocity=75 time=60
note_off channel=5 note=53 velocity=64 time=168
note_on channel=5 note=53 velocity=75 time=312
note_off channel=5 note=53 velocity=64 time=168
note_on channel=5 note=52 velocity=75 time=312
note_off channel=5 note=52 velocity=64 time=794
note_on channel=5 note=52 velocity=75 time=6
note_off channel=5 note=52 velocity=64 time=1072
note_on channel=5 note=57 velocity=69 time=368
note_off channel=5 note=57 velocity=64 time=1588
note_on channel=5 note=54 velocity=69 time=12
note_off channel=5 note=54 velocity=64 time=1850
<meta message end_of_track time=0>
<meta message text text='Bari Sax' time=0>
control_change channel=6 control=11 value=127 time=0
control_change channel=6 control=7 value=106 time=0
control_change channel=6 control=10 value=96 time=0
control_change channel=6 control=91 value=81 time=0
control_change channel=6 control=93 value=25 time=0
control_change channel=6 control=0 value=56 time=0
control_change channel=6 control=32 value=0 time=0
program_change channel=6 program=67 time=0
control_change channel=6 control=11 value=109 time=9944
note_on channel=6 note=53 velocity=60 time=0
control_change channel=6 control=11 value=110 time=250
control_change channel=6 control=11 value=111 time=250
control_change channel=6 control=11 value=113 time=250
control_change channel=6 control=11 value=114 time=250
control_change channel=6 control=11 value=115 time=240
control_change channel=6 control=11 value=116 time=250
note_off channel=6 note=53 velocity=64 time=86
note_on channel=6 note=50 velocity=62 time=24
control_change channel=6 control=11 value=118 time=140
control_change channel=6 control=11 value=119 time=250
control_change channel=6 control=11 value=120 time=250
control_change channel=6 control=11 value=121 time=240
control_change channel=6 control=11 value=123 time=250
control_change channel=6 control=11 value=124 time=250
control_change channel=6 control=11 value=125 time=250
control_change channel=6 control=11 value=127 time=240
note_off channel=6 note=50 velocity=64 time=26
note_on channel=6 note=55 velocity=75 time=344
note_off channel=6 note=55 velocity=64 time=592
note_on channel=6 note=55 velocity=77 time=48
note_off channel=6 note=55 velocity=64 time=180
note_on channel=6 note=55 velocity=79 time=300
note_off channel=6 note=55 velocity=64 time=180
note_on channel=6 note=60 velocity=81 time=300
note_off channel=6 note=60 velocity=64 time=788
note_on channel=6 note=60 velocity=84 time=12
note_off channel=6 note=60 velocity=64 time=604
note_on channel=6 note=60 velocity=86 time=36
note_off channel=6 note=60 velocity=64 time=284
note_on channel=6 note=53 velocity=86 time=36
note_off channel=6 note=53 velocity=64 time=136
note_on channel=6 note=46 velocity=62 time=53120
note_off channel=6 note=46 velocity=64 time=160
note_on channel=6 note=49 velocity=75 time=0
note_off channel=6 note=49 velocity=64 time=314
note_on channel=6 note=49 velocity=69 time=6
note_off channel=6 note=49 velocity=64 time=142
note_on channel=6 note=48 velocity=75 time=6
note_off channel=6 note=48 velocity=64 time=132
note_on channel=6 note=44 velocity=62 time=10760
note_off channel=6 note=44 velocity=64 time=580
note_on channel=6 note=43 velocity=62 time=60
note_off channel=6 note=43 velocity=64 time=156
note_on channel=6 note=43 velocity=62 time=324
note_off channel=6 note=43 velocity=64 time=308
note_on channel=6 note=43 velocity=62 time=12
note_off channel=6 note=43 velocity=64 time=148
note_on channel=6 note=43 velocity=56 time=12
note_off channel=6 note=43 velocity=64 time=68
note_on channel=6 note=43 velocity=62 time=12
note_off channel=6 note=43 velocity=64 time=80
note_on channel=6 note=49 velocity=65 time=320
note_off channel=6 note=49 velocity=64 time=320
control_change channel=6 control=11 value=104 time=0
note_on channel=6 note=48 velocity=67 time=0
control_change channel=6 control=11 value=105 time=100
control_change channel=6 control=11 value=108 time=80
control_change channel=6 control=11 value=109 time=100
control_change channel=6 control=11 value=111 time=100
control_change channel=6 control=11 value=114 time=90
control_change channel=6 control=11 value=115 time=100
control_change channel=6 control=11 value=118 time=70
control_change channel=6 control=11 value=119 time=100
control_change channel=6 control=11 value=121 time=100
control_change channel=6 control=11 value=124 time=90
control_change channel=6 control=11 value=125 time=100
control_change channel=6 control=11 value=127 time=10
note_off channel=6 note=48 velocity=64 time=92
note_on channel=6 note=42 velocity=69 time=308
note_on channel=6 note=41 velocity=40 time=112
note_on channel=6 note=40 velocity=28 time=40
note_off channel=6 note=42 velocity=64 time=4
note_off channel=6 note=41 velocity=64 time=8
note_on channel=6 note=39 velocity=17 time=28
note_off channel=6 note=40 velocity=64 time=12
note_off channel=6 note=39 velocity=64 time=40
note_on channel=6 note=41 velocity=70 time=236
note_off channel=6 note=41 velocity=64 time=604
note_on channel=6 note=41 velocity=62 time=36
note_off channel=6 note=41 velocity=64 time=308
note_on channel=6 note=41 velocity=50 time=12
note_off channel=6 note=41 velocity=64 time=148
note_on channel=6 note=45 velocity=62 time=12
note_off channel=6 note=45 velocity=64 time=296
note_on channel=6 note=39 velocity=62 time=24
note_off channel=6 note=39 velocity=64 time=168
note_on channel=6 note=38 velocity=62 time=312
control_change channel=6 control=11 value=127 time=160
control_change channel=6 control=11 value=124 time=96
control_change channel=6 control=11 value=121 time=72
control_change channel=6 control=11 value=118 time=120
control_change channel=6 control=11 value=115 time=72
control_change channel=6 control=11 value=111 time=120
control_change channel=6 control=11 value=108 time=120
control_change channel=6 control=11 value=105 time=72
control_change channel=6 control=11 value=101 time=120
note_off channel=6 note=38 velocity=64 time=108
control_change channel=6 control=11 value=98 time=12
control_change channel=6 control=11 value=96 time=24
control_change channel=6 control=11 value=127 time=24
note_on channel=6 note=64 velocity=75 time=320
note_off channel=6 note=64 velocity=64 time=148
note_on channel=6 note=62 velocity=62 time=12
note_off channel=6 note=62 velocity=64 time=296
note_on channel=6 note=57 velocity=69 time=24
control_change channel=6 control=11 value=127 time=160
control_change channel=6 control=11 value=119 time=24
control_change channel=6 control=11 value=111 time=24
control_change channel=6 control=11 value=104 time=24
control_change channel=6 control=11 value=96 time=24
control_change channel=6 control=11 value=89 time=24
control_change channel=6 control=11 value=89 time=0
control_change channel=6 control=11 value=93 time=120
control_change channel=6 control=11 value=96 time=96
control_change channel=6 control=11 value=99 time=72
control_change channel=6 control=11 value=103 time=96
control_change channel=6 control=11 value=106 time=120
control_change channel=6 control=11 value=109 time=48
control_change channel=6 control=11 value=113 time=120
control_change channel=6 control=11 value=116 time=96
control_change channel=6 control=11 value=119 time=72
control_change channel=6 control=11 value=123 time=96
control_change channel=6 control=11 value=127 time=96
note_off channel=6 note=57 velocity=64 time=104
note_on channel=6 note=64 velocity=75 time=24
note_off channel=6 note=64 velocity=64 time=148
note_on channel=6 note=62 velocity=62 time=12
note_off channel=6 note=62 velocity=64 time=296
note_on channel=6 note=57 velocity=69 time=24
control_change channel=6 control=11 value=127 time=160
control_change channel=6 control=11 value=119 time=24
control_change channel=6 control=11 value=111 time=24
control_change channel=6 control=11 value=104 time=24
control_change channel=6 control=11 value=96 time=24
control_change channel=6 control=11 value=89 time=24
control_change channel=6 control=11 value=89 time=0
control_change channel=6 control=11 value=93 time=120
control_change channel=6 control=11 value=96 time=96
control_change channel=6 control=11 value=99 time=72
control_change channel=6 control=11 value=103 time=96
control_change channel=6 control=11 value=106 time=120
control_change channel=6 control=11 value=109 time=48
control_change channel=6 control=11 value=113 time=120
control_change channel=6 control=11 value=116 time=96
control_change channel=6 control=11 value=119 time=72
control_change channel=6 control=11 value=123 time=96
control_change channel=6 control=11 value=127 time=96
note_off channel=6 note=57 velocity=64 time=104
note_on channel=6 note=62 velocity=75 time=24
note_off channel=6 note=62 velocity=64 time=148
note_on channel=6 note=60 velocity=62 time=12
note_off channel=6 note=60 velocity=64 time=296
note_on channel=6 note=55 velocity=69 time=24
control_change channel=6 control=11 value=127 time=232
control_change channel=6 control=11 value=121 time=24
control_change channel=6 control=11 value=115 time=24
control_change channel=6 control=11 value=109 time=24
control_change channel=6 control=11 value=103 time=24
control_change channel=6 control=11 value=96 time=24
control_change channel=6 control=11 value=90 time=24
control_change channel=6 control=11 value=85 time=24
control_change channel=6 control=11 value=84 time=0
control_change channel=6 control=11 value=84 time=0
control_change channel=6 control=11 value=85 time=120
control_change channel=6 control=11 value=88 time=120
control_change channel=6 control=11 value=89 time=120
control_change channel=6 control=11 value=91 time=120
control_change channel=6 control=11 value=94 time=120
control_change channel=6 control=11 value=95 time=120
control_change channel=6 control=11 value=98 time=120
control_change channel=6 control=11 value=99 time=120
control_change channel=6 control=11 value=101 time=120
control_change channel=6 control=11 value=104 time=120
control_change channel=6 control=11 value=105 time=120
control_change channel=6 control=11 value=108 time=120
control_change channel=6 control=11 value=109 time=120
control_change channel=6 control=11 value=111 time=120
control_change channel=6 control=11 value=114 time=120
control_change channel=6 control=11 value=115 time=120
control_change channel=6 control=11 value=118 time=120
control_change channel=6 control=11 value=119 time=120
control_change channel=6 control=11 value=121 time=120
control_change channel=6 control=11 value=124 time=120
control_change channel=6 control=11 value=125 time=120
control_change channel=6 control=11 value=127 time=24
note_off channel=6 note=55 velocity=64 time=368
note_on channel=6 note=41 velocity=69 time=48
note_off channel=6 note=41 velocity=64 time=616
note_on channel=6 note=46 velocity=62 time=24
note_off channel=6 note=46 velocity=64 time=296
note_on channel=6 note=46 velocity=62 time=24
note_off channel=6 note=46 velocity=64 time=136
note_on channel=6 note=56 velocity=81 time=13944
note_off channel=6 note=56 velocity=64 time=308
note_on channel=6 note=57 velocity=81 time=12
note_off channel=6 note=57 velocity=64 time=180
note_on channel=6 note=62 velocity=81 time=300
note_off channel=6 note=62 velocity=64 time=1072
note_on channel=6 note=56 velocity=81 time=48
note_off channel=6 note=56 velocity=64 time=308
note_on channel=6 note=57 velocity=81 time=12
note_off channel=6 note=57 velocity=64 time=180
note_on channel=6 note=50 velocity=81 time=300
note_off channel=6 note=50 velocity=64 time=1072
note_on channel=6 note=56 velocity=81 time=48
note_off channel=6 note=56 velocity=64 time=180
note_on channel=6 note=57 velocity=81 time=300
note_off channel=6 note=57 velocity=64 time=180
note_on channel=6 note=62 velocity=81 time=300
note_off channel=6 note=62 velocity=64 time=912
note_on channel=6 note=56 velocity=81 time=48
note_off channel=6 note=56 velocity=64 time=308
note_on channel=6 note=57 velocity=81 time=12
note_off channel=6 note=57 velocity=64 time=180
note_on channel=6 note=50 velocity=81 time=300
note_off channel=6 note=50 velocity=64 time=1072
note_on channel=6 note=56 velocity=81 time=48
note_off channel=6 note=56 velocity=64 time=180
note_on channel=6 note=57 velocity=81 time=300
note_off channel=6 note=57 velocity=64 time=180
note_on channel=6 note=62 velocity=81 time=300
note_off channel=6 note=62 velocity=64 time=912
note_on channel=6 note=64 velocity=81 time=48
note_off channel=6 note=64 velocity=64 time=308
note_on channel=6 note=62 velocity=81 time=12
note_off channel=6 note=62 velocity=64 time=180
note_on channel=6 note=50 velocity=81 time=300
note_off channel=6 note=50 velocity=64 time=1072
note_on channel=6 note=50 velocity=81 time=48
note_off channel=6 note=50 velocity=64 time=320
note_on channel=6 note=53 velocity=74 time=0
note_off channel=6 note=53 velocity=64 time=160
note_on channel=6 note=56 velocity=81 time=0
note_off channel=6 note=56 velocity=64 time=320
note_on channel=6 note=55 velocity=81 time=0
control_change channel=6 control=11 value=127 time=160
control_change channel=6 control=11 value=125 time=120
control_change channel=6 control=11 value=124 time=120
control_change channel=6 control=11 value=123 time=120
control_change channel=6 control=11 value=121 time=120
control_change channel=6 control=11 value=120 time=120
control_change channel=6 control=11 value=119 time=120
control_change channel=6 control=11 value=118 time=120
control_change channel=6 control=11 value=115 time=120
control_change channel=6 control=11 value=114 time=120
control_change channel=6 control=11 value=113 time=120
control_change channel=6 control=11 value=111 time=120
control_change channel=6 control=11 value=110 time=120
control_change channel=6 control=11 value=109 time=120
control_change channel=6 control=11 value=108 time=120
control_change channel=6 control=11 value=105 time=120
note_off channel=6 note=55 velocity=64 time=72
control_change channel=6 control=11 value=127 time=48
note_on channel=6 note=56 velocity=75 time=480
note_off channel=6 note=56 velocity=64 time=308
note_on channel=6 note=56 velocity=75 time=12
note_off channel=6 note=56 velocity=64 time=204
note_on channel=6 note=53 velocity=62 time=276
note_off channel=6 note=53 velocity=64 time=160
note_on channel=6 note=56 velocity=75 time=0
note_off channel=6 note=56 velocity=64 time=320
note_on channel=6 note=56 velocity=69 time=0
note_off channel=6 note=56 velocity=64 time=148
note_on channel=6 note=53 velocity=75 time=12
note_off channel=6 note=53 velocity=64 time=308
note_on channel=6 note=50 velocity=75 time=12
note_off channel=6 note=50 velocity=64 time=148
note_on channel=6 note=47 velocity=75 time=1932
note_off channel=6 note=47 velocity=64 time=180
note_on channel=6 note=40 velocity=75 time=300
note_off channel=6 note=40 velocity=64 time=308
note_on channel=6 note=40 velocity=75 time=12
note_off channel=6 note=40 velocity=64 time=192
note_on channel=6 note=45 velocity=75 time=288
note_on channel=6 note=47 velocity=54 time=1440
note_off channel=6 note=45 velocity=64 time=16
note_on channel=6 note=46 velocity=62 time=64
note_off channel=6 note=47 velocity=64 time=24
note_on channel=6 note=45 velocity=74 time=56
note_off channel=6 note=46 velocity=64 time=24
note_off channel=6 note=45 velocity=64 time=284
note_on channel=6 note=38 velocity=75 time=12
pitchwheel channel=6 pitch=0 time=160
control_change channel=6 control=11 value=127 time=0
pitchwheel channel=6 pitch=242 time=12
control_change channel=6 control=11 value=124 time=72
control_change channel=6 control=11 value=121 time=72
pitchwheel channel=6 pitch=0 time=48
control_change channel=6 control=11 value=119 time=60
control_change channel=6 control=11 value=116 time=48
pitchwheel channel=6 pitch=-82 time=36
control_change channel=6 control=11 value=114 time=72
pitchwheel channel=6 pitch=-244 time=24
control_change channel=6 control=11 value=111 time=24
pitchwheel channel=6 pitch=-407 time=48
pitchwheel channel=6 pitch=-569 time=60
control_change channel=6 control=11 value=109 time=0
control_change channel=6 control=11 value=106 time=48
pitchwheel channel=6 pitch=-731 time=12
pitchwheel channel=6 pitch=-893 time=36
pitchwheel channel=6 pitch=-1055 time=48
control_change channel=6 control=11 value=104 time=12
pitchwheel channel=6 pitch=-1218 time=24
pitchwheel channel=6 pitch=-1380 time=24
control_change channel=6 control=11 value=101 time=0
pitchwheel channel=6 pitch=-1542 time=36
pitchwheel channel=6 pitch=-1704 time=24
pitchwheel channel=6 pitch=-1866 time=12
pitchwheel channel=6 pitch=-2029 time=24
pitchwheel channel=6 pitch=-2191 time=12
control_change channel=6 control=11 value=99 time=0
pitchwheel channel=6 pitch=-2353 time=12
note_off channel=6 note=38 velocity=64 time=12
pitchwheel channel=6 pitch=-2515 time=0
pitchwheel channel=6 pitch=-2840 time=12
control_change channel=6 control=11 value=96 time=12
control_change channel=6 control=11 value=127 time=24
pitchwheel channel=6 pitch=0 time=0
note_on channel=6 note=43 velocity=75 time=1280
note_off channel=6 note=43 velocity=64 time=616
note_on channel=6 note=43 velocity=75 time=24
note_off channel=6 note=43 velocity=64 time=192
note_on channel=6 note=43 velocity=75 time=288
note_off channel=6 note=43 velocity=64 time=308
note_on channel=6 note=48 velocity=75 time=12
note_off channel=6 note=48 velocity=64 time=148
note_on channel=6 note=48 velocity=75 time=332
note_off channel=6 note=48 velocity=64 time=192
note_on channel=6 note=55 velocity=69 time=288
note_off channel=6 note=55 velocity=64 time=160
note_on channel=6 note=48 velocity=75 time=0
note_off channel=6 note=48 velocity=64 time=468
note_on channel=6 note=46 velocity=75 time=12
note_off channel=6 note=46 velocity=64 time=168
note_on channel=6 note=45 velocity=81 time=792
note_off channel=6 note=45 velocity=64 time=924
note_on channel=6 note=45 velocity=75 time=36
note_off channel=6 note=45 velocity=64 time=192
control_change channel=6 control=11 value=104 time=288
note_on channel=6 note=46 velocity=81 time=0
control_change channel=6 control=11 value=106 time=108
control_change channel=6 control=11 value=109 time=108
note_off channel=6 note=46 velocity=64 time=104
note_on channel=6 note=39 velocity=81 time=0
control_change channel=6 control=11 value=111 time=4
control_change channel=6 control=11 value=114 time=108
control_change channel=6 control=11 value=116 time=108
control_change channel=6 control=11 value=119 time=108
control_change channel=6 control=11 value=121 time=108
control_change channel=6 control=11 value=124 time=108
note_off channel=6 note=39 velocity=64 time=72
control_change channel=6 control=11 value=127 time=24
control_change channel=6 control=11 value=127 time=0
note_on channel=6 note=38 velocity=81 time=0
control_change channel=6 control=11 value=124 time=84
control_change channel=6 control=11 value=121 time=84
control_change channel=6 control=11 value=119 time=108
note_off channel=6 note=38 velocity=64 time=44
note_on channel=6 note=44 velocity=81 time=0
control_change channel=6 control=11 value=116 time=4
control_change channel=6 control=11 value=114 time=108
control_change channel=6 control=11 value=111 time=48
control_change channel=6 control=11 value=109 time=108
control_change channel=6 control=11 value=106 time=60
control_change channel=6 control=11 value=104 time=108
control_change channel=6 control=11 value=101 time=48
note_off channel=6 note=44 velocity=64 time=108
control_change channel=6 control=11 value=127 time=48
control_change channel=6 control=93 value=30 time=17280
note_on channel=6 note=46 velocity=75 time=0
note_off channel=6 note=46 velocity=64 time=456
note_on channel=6 note=46 velocity=75 time=24
note_off channel=6 note=46 velocity=64 time=308
note_on channel=6 note=39 velocity=75 time=12
note_off channel=6 note=39 velocity=64 time=148
note_on channel=6 note=48 velocity=75 time=812
note_off channel=6 note=48 velocity=64 time=616
note_on channel=6 note=50 velocity=75 time=24
note_off channel=6 note=50 velocity=64 time=308
note_on channel=6 note=48 velocity=62 time=12
note_off channel=6 note=48 velocity=64 time=148
note_on channel=6 note=53 velocity=75 time=12
note_off channel=6 note=53 velocity=64 time=296
note_on channel=6 note=48 velocity=75 time=24
note_off channel=6 note=48 velocity=64 time=180
note_on channel=6 note=45 velocity=75 time=300
note_off channel=6 note=45 velocity=64 time=616
note_on channel=6 note=45 velocity=75 time=24
note_off channel=6 note=45 velocity=64 time=308
note_on channel=6 note=38 velocity=75 time=12
note_off channel=6 note=38 velocity=64 time=136
note_on channel=6 note=43 velocity=75 time=1304
note_off channel=6 note=43 velocity=64 time=580
note_on channel=6 note=43 velocity=75 time=60
note_off channel=6 note=43 velocity=64 time=168
note_on channel=6 note=43 velocity=75 time=312
note_off channel=6 note=43 velocity=64 time=168
note_on channel=6 note=48 velocity=75 time=312
note_off channel=6 note=48 velocity=64 time=794
note_on channel=6 note=48 velocity=75 time=6
note_off channel=6 note=48 velocity=64 time=1072
note_on channel=6 note=41 velocity=75 time=368
note_off channel=6 note=41 velocity=64 time=1588
note_on channel=6 note=38 velocity=75 time=12
note_off channel=6 note=38 velocity=64 time=1850
<meta message end_of_track time=0>
<meta message text text='Trumpet 1' time=0>
control_change channel=7 control=11 value=127 time=0
control_change channel=7 control=7 value=106 time=0
control_change channel=7 control=10 value=74 time=0
control_change channel=7 control=91 value=94 time=0
control_change channel=7 control=93 value=30 time=0
control_change channel=7 control=0 value=56 time=0
control_change channel=7 control=32 value=0 time=0
program_change channel=7 program=56 time=0
note_on channel=7 note=80 velocity=121 time=13760
note_off channel=7 note=80 velocity=64 time=580
note_on channel=7 note=81 velocity=121 time=60
note_off channel=7 note=81 velocity=64 time=168
note_on channel=7 note=74 velocity=121 time=312
note_off channel=7 note=74 velocity=64 time=168
note_on channel=7 note=80 velocity=121 time=312
note_off channel=7 note=80 velocity=64 time=764
note_on channel=7 note=81 velocity=121 time=36
note_off channel=7 note=81 velocity=64 time=592
note_on channel=7 note=74 velocity=121 time=48
note_off channel=7 note=74 velocity=64 time=272
note_on channel=7 note=77 velocity=121 time=48
note_off channel=7 note=77 velocity=64 time=124
note_on channel=7 note=65 velocity=75 time=19556
note_off channel=7 note=65 velocity=64 time=124
note_on channel=7 note=73 velocity=80 time=36
note_off channel=7 note=73 velocity=64 time=132
note_on channel=7 note=74 velocity=75 time=348
note_off channel=7 note=74 velocity=64 time=294
control_change channel=7 control=11 value=109 time=26
note_on channel=7 note=77 velocity=82 time=0
control_change channel=7 control=11 value=110 time=100
control_change channel=7 control=11 value=111 time=100
control_change channel=7 control=11 value=113 time=100
control_change channel=7 control=11 value=114 time=100
control_change channel=7 control=11 value=115 time=100
control_change channel=7 control=11 value=116 time=100
control_change channel=7 control=11 value=118 time=100
control_change channel=7 control=11 value=119 time=100
control_change channel=7 control=11 value=120 time=100
control_change channel=7 control=11 value=121 time=100
control_change channel=7 control=11 value=123 time=100
control_change channel=7 control=11 value=124 time=100
control_change channel=7 control=11 value=125 time=100
control_change channel=7 control=11 value=127 time=60
note_off channel=7 note=77 velocity=64 time=44
note_on channel=7 note=76 velocity=85 time=36
note_off channel=7 note=76 velocity=64 time=112
note_on channel=7 note=74 velocity=81 time=368
note_off channel=7 note=74 velocity=64 time=144
note_on channel=7 note=76 velocity=75 time=336
note_off channel=7 note=76 velocity=64 time=136
note_on channel=7 note=64 velocity=80 time=24
note_off channel=7 note=64 velocity=64 time=284
note_on channel=7 note=64 velocity=75 time=36
note_off channel=7 note=64 velocity=64 time=136
note_on channel=7 note=69 velocity=80 time=24
note_off channel=7 note=69 velocity=64 time=120
note_on channel=7 note=72 velocity=80 time=360
note_off channel=7 note=72 velocity=64 time=284
note_on channel=7 note=76 velocity=80 time=36
note_off channel=7 note=76 velocity=64 time=120
note_on channel=7 note=71 velocity=80 time=360
control_change channel=7 control=11 value=127 time=232
control_change channel=7 control=11 value=120 time=24
control_change channel=7 control=11 value=114 time=24
control_change channel=7 control=11 value=108 time=24
control_change channel=7 control=11 value=101 time=24
control_change channel=7 control=11 value=94 time=24
control_change channel=7 control=11 value=96 time=120
control_change channel=7 control=11 value=99 time=120
control_change channel=7 control=11 value=101 time=120
control_change channel=7 control=11 value=104 time=120
control_change channel=7 control=11 value=106 time=120
control_change channel=7 control=11 value=109 time=120
control_change channel=7 control=11 value=111 time=120
control_change channel=7 control=11 value=114 time=120
control_change channel=7 control=11 value=116 time=120
control_change channel=7 control=11 value=119 time=120
control_change channel=7 control=11 value=121 time=120
control_change channel=7 control=11 value=124 time=120
control_change channel=7 control=11 value=127 time=120
note_off channel=7 note=71 velocity=64 time=120
note_on channel=7 note=62 velocity=75 time=368
note_off channel=7 note=62 velocity=64 time=124
note_on channel=7 note=67 velocity=80 time=36
note_off channel=7 note=67 velocity=64 time=120
note_on channel=7 note=70 velocity=79 time=360
note_off channel=7 note=70 velocity=64 time=284
note_on channel=7 note=74 velocity=83 time=36
note_off channel=7 note=74 velocity=64 time=108
note_on channel=7 note=77 velocity=89 time=372
note_off channel=7 note=77 velocity=64 time=592
note_on channel=7 note=76 velocity=85 time=48
note_off channel=7 note=76 velocity=64 time=296
note_on channel=7 note=74 velocity=75 time=24
note_off channel=7 note=74 velocity=64 time=134
note_on channel=7 note=72 velocity=82 time=26
note_off channel=7 note=72 velocity=64 time=284
note_on channel=7 note=74 velocity=78 time=36
note_off channel=7 note=74 velocity=64 time=120
note_on channel=7 note=69 velocity=85 time=360
control_change channel=7 control=11 value=127 time=232
control_change channel=7 control=11 value=120 time=24
control_change channel=7 control=11 value=114 time=24
control_change channel=7 control=11 value=108 time=24
control_change channel=7 control=11 value=101 time=24
control_change channel=7 control=11 value=95 time=24
control_change channel=7 control=11 value=95 time=0
control_change channel=7 control=11 value=96 time=120
control_change channel=7 control=11 value=98 time=120
control_change channel=7 control=11 value=99 time=120
control_change channel=7 control=11 value=100 time=120
control_change channel=7 control=11 value=101 time=120
control_change channel=7 control=11 value=103 time=120
control_change channel=7 control=11 value=104 time=120
control_change channel=7 control=11 value=105 time=120
control_change channel=7 control=11 value=106 time=120
control_change channel=7 control=11 value=108 time=120
control_change channel=7 control=11 value=109 time=120
control_change channel=7 control=11 value=110 time=120
control_change channel=7 control=11 value=111 time=120
control_change channel=7 control=11 value=113 time=120
control_change channel=7 control=11 value=114 time=120
control_change channel=7 control=11 value=115 time=120
control_change channel=7 control=11 value=116 time=120
control_change channel=7 control=11 value=118 time=120
control_change channel=7 control=11 value=119 time=120
control_change channel=7 control=11 value=120 time=120
control_change channel=7 control=11 value=121 time=120
control_change channel=7 control=11 value=123 time=120
control_change channel=7 control=11 value=124 time=120
control_change channel=7 control=11 value=125 time=120
control_change channel=7 control=11 value=127 time=48
note_off channel=7 note=69 velocity=64 time=192
note_on channel=7 note=70 velocity=85 time=48
note_off channel=7 note=70 velocity=64 time=284
note_on channel=7 note=69 velocity=85 time=36
note_off channel=7 note=69 velocity=64 time=112
note_on channel=7 note=65 velocity=90 time=15728
note_off channel=7 note=65 velocity=64 time=136
note_on channel=7 note=73 velocity=96 time=24
note_off channel=7 note=73 velocity=64 time=144
note_on channel=7 note=74 velocity=101 time=336
note_off channel=7 note=74 velocity=64 time=296
note_on channel=7 note=77 velocity=90 time=24
note_off channel=7 note=77 velocity=64 time=136
note_on channel=7 note=79 velocity=103 time=24
note_off channel=7 note=79 velocity=64 time=296
note_on channel=7 note=80 velocity=109 time=24
note_off channel=7 note=80 velocity=64 time=604
note_on channel=7 note=79 velocity=103 time=36
note_off channel=7 note=79 velocity=64 time=308
note_on channel=7 note=77 velocity=106 time=12
control_change channel=7 control=11 value=127 time=16
control_change channel=7 control=11 value=125 time=120
control_change channel=7 control=11 value=123 time=120
control_change channel=7 control=11 value=121 time=120
control_change channel=7 control=11 value=119 time=120
control_change channel=7 control=11 value=118 time=120
control_change channel=7 control=11 value=115 time=96
control_change channel=7 control=11 value=114 time=120
control_change channel=7 control=11 value=111 time=120
note_off channel=7 note=77 velocity=64 time=120
control_change channel=7 control=11 value=110 time=0
control_change channel=7 control=11 value=109 time=24
control_change channel=7 control=11 value=127 time=24
note_on channel=7 note=65 velocity=90 time=320
note_off channel=7 note=65 velocity=64 time=136
note_on channel=7 note=68 velocity=96 time=24
note_off channel=7 note=68 velocity=64 time=144
note_on channel=7 note=69 velocity=101 time=336
note_off channel=7 note=69 velocity=64 time=296
note_on channel=7 note=72 velocity=90 time=24
note_off channel=7 note=72 velocity=64 time=136
note_on channel=7 note=74 velocity=103 time=24
note_off channel=7 note=74 velocity=64 time=296
note_on channel=7 note=75 velocity=109 time=24
note_off channel=7 note=75 velocity=64 time=604
note_on channel=7 note=74 velocity=103 time=36
note_off channel=7 note=74 velocity=64 time=308
note_on channel=7 note=72 velocity=106 time=12
control_change channel=7 control=11 value=127 time=16
control_change channel=7 control=11 value=125 time=120
control_change channel=7 control=11 value=123 time=120
control_change channel=7 control=11 value=121 time=120
control_change channel=7 control=11 value=119 time=120
control_change channel=7 control=11 value=118 time=120
control_change channel=7 control=11 value=115 time=96
control_change channel=7 control=11 value=114 time=120
control_change channel=7 control=11 value=111 time=120
note_off channel=7 note=72 velocity=64 time=120
control_change channel=7 control=11 value=110 time=0
control_change channel=7 control=11 value=109 time=24
control_change channel=7 control=11 value=127 time=24
note_on channel=7 note=70 velocity=96 time=7040
note_off channel=7 note=70 velocity=64 time=580
note_on channel=7 note=69 velocity=96 time=60
note_off channel=7 note=69 velocity=64 time=144
note_on channel=7 note=69 velocity=96 time=336
note_off channel=7 note=69 velocity=64 time=296
note_on channel=7 note=67 velocity=96 time=24
note_off channel=7 note=67 velocity=64 time=136
note_on channel=7 note=69 velocity=90 time=24
note_off channel=7 note=69 velocity=64 time=56
note_on channel=7 note=69 velocity=96 time=24
note_off channel=7 note=69 velocity=64 time=68
note_on channel=7 note=67 velocity=96 time=332
note_off channel=7 note=67 velocity=64 time=308
control_change channel=7 control=11 value=104 time=12
note_on channel=7 note=69 velocity=103 time=0
control_change channel=7 control=11 value=105 time=100
control_change channel=7 control=11 value=108 time=80
control_change channel=7 control=11 value=109 time=100
control_change channel=7 control=11 value=111 time=100
control_change channel=7 control=11 value=114 time=90
control_change channel=7 control=11 value=115 time=100
control_change channel=7 control=11 value=118 time=70
control_change channel=7 control=11 value=119 time=100
control_change channel=7 control=11 value=121 time=100
control_change channel=7 control=11 value=124 time=90
control_change channel=7 control=11 value=125 time=100
control_change channel=7 control=11 value=127 time=10
note_off channel=7 note=69 velocity=64 time=80
note_on channel=7 note=72 velocity=103 time=320
note_on channel=7 note=71 velocity=66 time=112
note_on channel=7 note=70 velocity=47 time=40
note_off channel=7 note=72 velocity=64 time=4
note_off channel=7 note=71 velocity=64 time=8
note_on channel=7 note=69 velocity=33 time=28
note_off channel=7 note=70 velocity=64 time=12
note_off channel=7 note=69 velocity=64 time=40
note_on channel=7 note=74 velocity=103 time=236
note_off channel=7 note=74 velocity=64 time=592
note_on channel=7 note=74 velocity=96 time=48
note_off channel=7 note=74 velocity=64 time=296
note_on channel=7 note=72 velocity=85 time=24
note_off channel=7 note=72 velocity=64 time=136
note_on channel=7 note=74 velocity=96 time=24
note_off channel=7 note=74 velocity=64 time=284
note_on channel=7 note=72 velocity=96 time=36
note_off channel=7 note=72 velocity=64 time=156
note_on channel=7 note=74 velocity=96 time=324
control_change channel=7 control=11 value=127 time=160
control_change channel=7 control=11 value=125 time=120
control_change channel=7 control=11 value=123 time=120
control_change channel=7 control=11 value=121 time=120
control_change channel=7 control=11 value=119 time=120
control_change channel=7 control=11 value=118 time=120
control_change channel=7 control=11 value=115 time=120
control_change channel=7 control=11 value=114 time=120
control_change channel=7 control=11 value=111 time=120
control_change channel=7 control=11 value=110 time=120
control_change channel=7 control=11 value=108 time=120
control_change channel=7 control=11 value=106 time=120
control_change channel=7 control=11 value=104 time=120
control_change channel=7 control=11 value=103 time=120
control_change channel=7 control=11 value=100 time=120
control_change channel=7 control=11 value=99 time=120
note_off channel=7 note=74 velocity=64 time=60
control_change channel=7 control=11 value=96 time=36
control_change channel=7 control=11 value=127 time=24
note_on channel=7 note=73 velocity=103 time=320
note_on channel=7 note=72 velocity=51 time=112
note_on channel=7 note=71 velocity=27 time=40
note_off channel=7 note=73 velocity=64 time=4
note_off channel=7 note=72 velocity=64 time=8
note_off channel=7 note=71 velocity=64 time=40
note_on channel=7 note=76 velocity=103 time=276
note_off channel=7 note=76 velocity=64 time=580
note_on channel=7 note=74 velocity=103 time=60
note_off channel=7 note=74 velocity=64 time=168
note_on channel=7 note=73 velocity=103 time=632
note_on channel=7 note=72 velocity=51 time=112
note_on channel=7 note=71 velocity=27 time=40
note_off channel=7 note=73 velocity=64 time=4
note_off channel=7 note=72 velocity=64 time=8
note_off channel=7 note=71 velocity=64 time=40
note_on channel=7 note=74 velocity=103 time=276
note_off channel=7 note=74 velocity=64 time=580
note_on channel=7 note=72 velocity=103 time=60
note_off channel=7 note=72 velocity=64 time=168
note_on channel=7 note=67 velocity=96 time=632
note_off channel=7 note=67 velocity=64 time=444
note_on channel=7 note=70 velocity=99 time=36
note_off channel=7 note=70 velocity=64 time=444
note_on channel=7 note=72 velocity=103 time=36
note_off channel=7 note=72 velocity=64 time=444
note_on channel=7 note=70 velocity=100 time=36
note_off channel=7 note=70 velocity=64 time=136
note_on channel=7 note=74 velocity=106 time=24
note_off channel=7 note=74 velocity=64 time=148
note_on channel=7 note=70 velocity=90 time=12
note_off channel=7 note=70 velocity=64 time=148
note_on channel=7 note=77 velocity=109 time=12
note_off channel=7 note=77 velocity=64 time=924
note_on channel=7 note=68 velocity=103 time=36
note_off channel=7 note=68 velocity=64 time=604
note_on channel=7 note=65 velocity=99 time=36
note_off channel=7 note=65 velocity=64 time=284
note_on channel=7 note=65 velocity=97 time=36
note_off channel=7 note=65 velocity=64 time=124
note_on channel=7 note=81 velocity=109 time=15236
note_off channel=7 note=81 velocity=64 time=604
note_on channel=7 note=76 velocity=109 time=36
note_off channel=7 note=76 velocity=64 time=296
note_on channel=7 note=74 velocity=109 time=24
note_off channel=7 note=74 velocity=64 time=136
note_on channel=7 note=81 velocity=109 time=824
note_off channel=7 note=81 velocity=64 time=604
note_on channel=7 note=75 velocity=109 time=36
note_off channel=7 note=75 velocity=64 time=296
note_on channel=7 note=72 velocity=109 time=24
note_off channel=7 note=72 velocity=64 time=136
note_on channel=7 note=81 velocity=109 time=824
note_off channel=7 note=81 velocity=64 time=604
note_on channel=7 note=76 velocity=109 time=36
note_off channel=7 note=76 velocity=64 time=296
note_on channel=7 note=74 velocity=109 time=24
note_off channel=7 note=74 velocity=64 time=136
note_on channel=7 note=81 velocity=109 time=824
note_off channel=7 note=81 velocity=64 time=604
note_on channel=7 note=75 velocity=109 time=36
note_off channel=7 note=75 velocity=64 time=296
note_on channel=7 note=72 velocity=109 time=24
note_off channel=7 note=72 velocity=64 time=136
note_on channel=7 note=81 velocity=109 time=824
note_off channel=7 note=81 velocity=64 time=580
note_on channel=7 note=81 velocity=109 time=60
note_off channel=7 note=81 velocity=64 time=168
note_on channel=7 note=81 velocity=109 time=312
note_off channel=7 note=81 velocity=64 time=168
note_on channel=7 note=81 velocity=109 time=312
note_off channel=7 note=81 velocity=64 time=296
note_on channel=7 note=84 velocity=96 time=24
note_off channel=7 note=84 velocity=64 time=148
note_on channel=7 note=81 velocity=109 time=12
note_off channel=7 note=81 velocity=64 time=311
note_on channel=7 note=81 velocity=109 time=9
pitchwheel channel=7 pitch=0 time=16
control_change channel=7 control=11 value=127 time=0
pitchwheel channel=7 pitch=242 time=24
control_change channel=7 control=11 value=124 time=72
control_change channel=7 control=11 value=121 time=96
pitchwheel channel=7 pitch=0 time=72
control_change channel=7 control=11 value=119 time=48
control_change channel=7 control=11 value=116 time=48
pitchwheel channel=7 pitch=-82 time=96
control_change channel=7 control=11 value=114 time=24
control_change channel=7 control=11 value=111 time=72
pitchwheel channel=7 pitch=-244 time=24
pitchwheel channel=7 pitch=-407 time=96
control_change channel=7 control=11 value=109 time=0
control_change channel=7 control=11 value=106 time=48
pitchwheel channel=7 pitch=-569 time=24
pitchwheel channel=7 pitch=-731 time=72
control_change channel=7 control=11 value=104 time=24
pitchwheel channel=7 pitch=-893 time=24
pitchwheel channel=7 pitch=-1055 time=48
control_change channel=7 control=11 value=101 time=0
pitchwheel channel=7 pitch=-1218 time=48
pitchwheel channel=7 pitch=-1380 time=24
pitchwheel channel=7 pitch=-1542 time=24
pitchwheel channel=7 pitch=-1704 time=24
control_change channel=7 control=11 value=99 time=0
note_off channel=7 note=81 velocity=64 time=24
pitchwheel channel=7 pitch=-2029 time=0
control_change channel=7 control=11 value=96 time=24
control_change channel=7 control=11 value=127 time=0
control_change channel=7 control=11 value=127 time=24
pitchwheel channel=7 pitch=0 time=0
note_on channel=7 note=79 velocity=109 time=320
note_on channel=7 note=78 velocity=45 time=112
note_on channel=7 note=77 velocity=35 time=40
note_off channel=7 note=79 velocity=64 time=8
note_off channel=7 note=78 velocity=64 time=4
note_off channel=7 note=77 velocity=64 time=40
note_on channel=7 note=79 velocity=109 time=436
note_off channel=7 note=79 velocity=64 time=168
note_on channel=7 note=79 velocity=109 time=312
note_off channel=7 note=79 velocity=64 time=168
note_on channel=7 note=80 velocity=109 time=792
note_off channel=7 note=80 velocity=64 time=296
note_on channel=7 note=80 velocity=109 time=24
note_off channel=7 note=80 velocity=64 time=192
note_on channel=7 note=77 velocity=96 time=288
note_off channel=7 note=77 velocity=64 time=148
note_on channel=7 note=80 velocity=109 time=12
note_off channel=7 note=80 velocity=64 time=308
note_on channel=7 note=80 velocity=103 time=12
note_off channel=7 note=80 velocity=64 time=136
note_on channel=7 note=77 velocity=109 time=24
note_off channel=7 note=77 velocity=64 time=296
note_on channel=7 note=74 velocity=109 time=24
note_off channel=7 note=74 velocity=64 time=136
note_on channel=7 note=74 velocity=109 time=1944
note_off channel=7 note=74 velocity=64 time=168
note_on channel=7 note=76 velocity=109 time=312
note_off channel=7 note=76 velocity=64 time=296
note_on channel=7 note=77 velocity=109 time=24
note_off channel=7 note=77 velocity=64 time=180
note_on channel=7 note=84 velocity=109 time=300
note_on channel=7 note=86 velocity=90 time=1440
note_off channel=7 note=84 velocity=64 time=16
note_on channel=7 note=85 velocity=99 time=64
note_off channel=7 note=86 velocity=64 time=24
note_on channel=7 note=81 velocity=109 time=56
note_off channel=7 note=85 velocity=64 time=24
note_off channel=7 note=81 velocity=64 time=284
note_on channel=7 note=76 velocity=109 time=12
pitchwheel channel=7 pitch=0 time=160
control_change channel=7 control=11 value=127 time=0
pitchwheel channel=7 pitch=242 time=12
control_change channel=7 control=11 value=124 time=72
control_change channel=7 control=11 value=121 time=72
pitchwheel channel=7 pitch=0 time=48
control_change channel=7 control=11 value=119 time=60
control_change channel=7 control=11 value=116 time=48
pitchwheel channel=7 pitch=-82 time=36
control_change channel=7 control=11 value=114 time=72
pitchwheel channel=7 pitch=-244 time=24
control_change channel=7 control=11 value=111 time=24
pitchwheel channel=7 pitch=-407 time=48
pitchwheel channel=7 pitch=-569 time=60
control_change channel=7 control=11 value=109 time=0
control_change channel=7 control=11 value=106 time=48
pitchwheel channel=7 pitch=-731 time=12
pitchwheel channel=7 pitch=-893 time=36
pitchwheel channel=7 pitch=-1055 time=48
control_change channel=7 control=11 value=104 time=12
pitchwheel channel=7 pitch=-1218 time=24
pitchwheel channel=7 pitch=-1380 time=24
control_change channel=7 control=11 value=101 time=0
pitchwheel channel=7 pitch=-1542 time=36
pitchwheel channel=7 pitch=-1704 time=24
pitchwheel channel=7 pitch=-1866 time=12
pitchwheel channel=7 pitch=-2029 time=24
pitchwheel channel=7 pitch=-2191 time=12
control_change channel=7 control=11 value=99 time=0
pitchwheel channel=7 pitch=-2353 time=12
note_off channel=7 note=76 velocity=64 time=12
pitchwheel channel=7 pitch=-2515 time=0
pitchwheel channel=7 pitch=-2840 time=12
control_change channel=7 control=11 value=96 time=12
control_change channel=7 control=11 value=127 time=24
pitchwheel channel=7 pitch=0 time=0
note_on channel=7 note=79 velocity=109 time=1280
note_off channel=7 note=79 velocity=64 time=604
note_on channel=7 note=81 velocity=109 time=36
note_off channel=7 note=81 velocity=64 time=180
note_on channel=7 note=82 velocity=109 time=300
note_off channel=7 note=82 velocity=64 time=296
note_on channel=7 note=81 velocity=109 time=24
note_off channel=7 note=81 velocity=64 time=136
note_on channel=7 note=81 velocity=109 time=344
note_off channel=7 note=81 velocity=64 time=180
note_on channel=7 note=79 velocity=103 time=300
note_off channel=7 note=79 velocity=64 time=148
note_on channel=7 note=77 velocity=109 time=12
note_off channel=7 note=77 velocity=64 time=456
note_on channel=7 note=76 velocity=109 time=24
note_off channel=7 note=76 velocity=64 time=156
note_on channel=7 note=86 velocity=116 time=804
note_off channel=7 note=86 velocity=64 time=912
note_on channel=7 note=84 velocity=109 time=48
note_off channel=7 note=84 velocity=64 time=180
control_change channel=7 control=11 value=104 time=300
note_on channel=7 note=82 velocity=115 time=0
control_change channel=7 control=11 value=106 time=108
control_change channel=7 control=11 value=109 time=108
note_off channel=7 note=82 velocity=64 time=92
note_on channel=7 note=84 velocity=115 time=12
control_change channel=7 control=11 value=111 time=4
control_change channel=7 control=11 value=114 time=108
control_change channel=7 control=11 value=116 time=108
control_change channel=7 control=11 value=119 time=108
control_change channel=7 control=11 value=121 time=108
control_change channel=7 control=11 value=124 time=108
note_off channel=7 note=84 velocity=64 time=60
control_change channel=7 control=11 value=127 time=36
control_change channel=7 control=11 value=127 time=0
note_on channel=7 note=81 velocity=115 time=0
control_change channel=7 control=11 value=124 time=84
control_change channel=7 control=11 value=121 time=84
control_change channel=7 control=11 value=119 time=108
note_off channel=7 note=81 velocity=64 time=32
note_on channel=7 note=75 velocity=115 time=12
control_change channel=7 control=11 value=116 time=4
control_change channel=7 control=11 value=114 time=108
control_change channel=7 control=11 value=111 time=48
control_change channel=7 control=11 value=109 time=108
control_change channel=7 control=11 value=106 time=60
control_change channel=7 control=11 value=104 time=108
control_change channel=7 control=11 value=101 time=48
note_off channel=7 note=75 velocity=64 time=108
control_change channel=7 control=11 value=99 time=0
control_change channel=7 control=11 value=96 time=48
control_change channel=7 control=11 value=127 time=0
control_change channel=7 control=11 value=127 time=12
note_on channel=7 note=74 velocity=110 time=15668
note_off channel=7 note=74 velocity=64 time=168
note_on channel=7 note=76 velocity=110 time=312
note_off channel=7 note=76 velocity=64 time=136
note_on channel=7 note=77 velocity=110 time=24
note_off channel=7 note=77 velocity=64 time=168
note_on channel=7 note=79 velocity=110 time=312
note_off channel=7 note=79 velocity=64 time=168
control_change channel=7 control=93 value=30 time=312
note_on channel=7 note=80 velocity=109 time=0
note_off channel=7 note=80 velocity=64 time=444
note_on channel=7 note=82 velocity=109 time=36
note_off channel=7 note=82 velocity=64 time=296
note_on channel=7 note=84 velocity=109 time=24
note_off channel=7 note=84 velocity=64 time=136
note_on channel=7 note=72 velocity=109 time=824
note_off channel=7 note=72 velocity=64 time=604
note_on channel=7 note=74 velocity=109 time=36
note_off channel=7 note=74 velocity=64 time=296
note_on channel=7 note=72 velocity=96 time=24
note_off channel=7 note=72 velocity=64 time=136
note_on channel=7 note=77 velocity=109 time=24
note_off channel=7 note=77 velocity=64 time=284
note_on channel=7 note=79 velocity=109 time=36
note_off channel=7 note=79 velocity=64 time=168
note_on channel=7 note=81 velocity=109 time=312
note_off channel=7 note=81 velocity=64 time=604
note_on channel=7 note=84 velocity=109 time=36
note_off channel=7 note=84 velocity=64 time=296
note_on channel=7 note=82 velocity=109 time=24
note_off channel=7 note=82 velocity=64 time=124
note_on channel=7 note=80 velocity=109 time=1316
note_off channel=7 note=80 velocity=64 time=568
note_on channel=7 note=81 velocity=109 time=72
note_off channel=7 note=81 velocity=64 time=156
note_on channel=7 note=74 velocity=109 time=324
note_off channel=7 note=74 velocity=64 time=156
note_on channel=7 note=80 velocity=109 time=324
note_off channel=7 note=80 velocity=64 time=782
note_on channel=7 note=81 velocity=109 time=18
note_off channel=7 note=81 velocity=64 time=1060
control_change channel=7 control=0 value=56 time=7740
control_change channel=7 control=32 value=0 time=0
program_change channel=7 program=59 time=0
note_on channel=7 note=74 velocity=75 time=2720
control_change channel=7 control=11 value=127 time=1120
control_change channel=7 control=11 value=125 time=120
control_change channel=7 control=11 value=124 time=120
control_change channel=7 control=11 value=123 time=120
control_change channel=7 control=11 value=121 time=120
control_change channel=7 control=11 value=120 time=120
control_change channel=7 control=11 value=119 time=120
control_change channel=7 control=11 value=118 time=120
control_change channel=7 control=11 value=116 time=120
control_change channel=7 control=11 value=115 time=120
control_change channel=7 control=11 value=114 time=120
control_change channel=7 control=11 value=113 time=120
control_change channel=7 control=11 value=111 time=120
control_change channel=7 control=11 value=110 time=120
control_change channel=7 control=11 value=109 time=120
control_change channel=7 control=11 value=108 time=120
control_change channel=7 control=11 value=106 time=120
control_change channel=7 control=11 value=105 time=120
control_change channel=7 control=11 value=104 time=120
control_change channel=7 control=11 value=103 time=120
control_change channel=7 control=11 value=101 time=120
control_change channel=7 control=11 value=100 time=120
control_change channel=7 control=11 value=99 time=120
control_change channel=7 control=11 value=98 time=120
note_off channel=7 note=74 velocity=64 time=96
control_change channel=7 control=11 value=96 time=0
<meta message end_of_track time=0>
<meta message text text='Trumpet 2' time=0>
control_change channel=8 control=11 value=127 time=0
control_change channel=8 control=7 value=106 time=0
control_change channel=8 control=91 value=89 time=0
control_change channel=8 control=93 value=25 time=0
control_change channel=8 control=0 value=56 time=0
control_change channel=8 control=32 value=0 time=0
program_change channel=8 program=56 time=0
note_on channel=8 note=75 velocity=94 time=13760
note_off channel=8 note=75 velocity=64 time=580
note_on channel=8 note=76 velocity=94 time=60
note_off channel=8 note=76 velocity=64 time=168
note_on channel=8 note=69 velocity=94 time=312
note_off channel=8 note=69 velocity=64 time=168
note_on channel=8 note=75 velocity=94 time=312
note_off channel=8 note=75 velocity=64 time=764
note_on channel=8 note=76 velocity=94 time=36
note_off channel=8 note=76 velocity=64 time=592
note_on channel=8 note=70 velocity=94 time=48
note_off channel=8 note=70 velocity=64 time=272
note_on channel=8 note=74 velocity=94 time=48
note_off channel=8 note=74 velocity=64 time=124
note_on channel=8 note=62 velocity=50 time=19556
note_off channel=8 note=62 velocity=64 time=124
note_on channel=8 note=69 velocity=55 time=36
note_off channel=8 note=69 velocity=64 time=132
note_on channel=8 note=70 velocity=50 time=348
note_off channel=8 note=70 velocity=64 time=294
control_change channel=8 control=11 value=109 time=26
note_on channel=8 note=74 velocity=58 time=0
control_change channel=8 control=11 value=110 time=100
control_change channel=8 control=11 value=111 time=100
control_change channel=8 control=11 value=113 time=100
control_change channel=8 control=11 value=114 time=100
control_change channel=8 control=11 value=115 time=100
control_change channel=8 control=11 value=116 time=100
control_change channel=8 control=11 value=118 time=100
control_change channel=8 control=11 value=119 time=100
control_change channel=8 control=11 value=120 time=100
control_change channel=8 control=11 value=121 time=100
control_change channel=8 control=11 value=123 time=100
control_change channel=8 control=11 value=124 time=100
control_change channel=8 control=11 value=125 time=100
control_change channel=8 control=11 value=127 time=60
note_off channel=8 note=74 velocity=64 time=44
note_on channel=8 note=70 velocity=70 time=36
note_off channel=8 note=70 velocity=64 time=112
note_on channel=8 note=70 velocity=55 time=368
note_off channel=8 note=70 velocity=64 time=144
note_on channel=8 note=70 velocity=50 time=336
note_off channel=8 note=70 velocity=64 time=136
note_on channel=8 note=60 velocity=55 time=24
note_off channel=8 note=60 velocity=64 time=284
note_on channel=8 note=60 velocity=50 time=36
note_off channel=8 note=60 velocity=64 time=136
note_on channel=8 note=64 velocity=55 time=24
note_off channel=8 note=64 velocity=64 time=120
note_on channel=8 note=68 velocity=55 time=360
note_off channel=8 note=68 velocity=64 time=284
note_on channel=8 note=72 velocity=55 time=36
note_off channel=8 note=72 velocity=64 time=120
note_on channel=8 note=67 velocity=55 time=360
control_change channel=8 control=11 value=127 time=232
control_change channel=8 control=11 value=120 time=24
control_change channel=8 control=11 value=114 time=24
control_change channel=8 control=11 value=108 time=24
control_change channel=8 control=11 value=101 time=24
control_change channel=8 control=11 value=94 time=24
control_change channel=8 control=11 value=96 time=120
control_change channel=8 control=11 value=99 time=120
control_change channel=8 control=11 value=101 time=120
control_change channel=8 control=11 value=104 time=120
control_change channel=8 control=11 value=106 time=120
control_change channel=8 control=11 value=109 time=120
control_change channel=8 control=11 value=111 time=120
control_change channel=8 control=11 value=114 time=120
control_change channel=8 control=11 value=116 time=120
control_change channel=8 control=11 value=119 time=120
control_change channel=8 control=11 value=121 time=120
control_change channel=8 control=11 value=124 time=120
control_change channel=8 control=11 value=127 time=120
note_off channel=8 note=67 velocity=64 time=120
note_on channel=8 note=62 velocity=54 time=528
note_off channel=8 note=62 velocity=64 time=120
note_on channel=8 note=66 velocity=56 time=360
note_off channel=8 note=66 velocity=64 time=284
note_on channel=8 note=70 velocity=59 time=36
note_off channel=8 note=70 velocity=64 time=108
note_on channel=8 note=74 velocity=65 time=372
note_off channel=8 note=74 velocity=64 time=592
note_on channel=8 note=72 velocity=60 time=48
note_off channel=8 note=72 velocity=64 time=296
note_on channel=8 note=70 velocity=50 time=24
note_off channel=8 note=70 velocity=64 time=134
note_on channel=8 note=67 velocity=55 time=26
note_off channel=8 note=67 velocity=64 time=284
note_on channel=8 note=67 velocity=55 time=36
note_off channel=8 note=67 velocity=64 time=120
control_change channel=8 control=93 value=50 time=40
note_on channel=8 note=66 velocity=70 time=320
note_off channel=8 note=66 velocity=64 time=468
note_on channel=8 note=65 velocity=63 time=12
note_off channel=8 note=65 velocity=64 time=160
note_on channel=8 note=66 velocity=69 time=0
note_off channel=8 note=66 velocity=64 time=192
note_on channel=8 note=65 velocity=67 time=288
note_off channel=8 note=65 velocity=64 time=308
note_on channel=8 note=66 velocity=59 time=12
note_off channel=8 note=66 velocity=64 time=160
note_on channel=8 note=65 velocity=66 time=0
note_off channel=8 note=65 velocity=64 time=192
note_on channel=8 note=64 velocity=65 time=288
note_off channel=8 note=64 velocity=64 time=308
note_on channel=8 note=65 velocity=58 time=12
note_off channel=8 note=65 velocity=64 time=160
note_on channel=8 note=64 velocity=63 time=0
note_off channel=8 note=64 velocity=64 time=308
note_on channel=8 note=63 velocity=62 time=12
note_off channel=8 note=63 velocity=64 time=592
control_change channel=8 control=93 value=25 time=48
note_on channel=8 note=66 velocity=61 time=0
note_off channel=8 note=66 velocity=64 time=284
note_on channel=8 note=65 velocity=60 time=36
note_off channel=8 note=65 velocity=64 time=112
note_on channel=8 note=74 velocity=75 time=3248
note_off channel=8 note=74 velocity=64 time=136
note_on channel=8 note=72 velocity=72 time=24
note_off channel=8 note=72 velocity=64 time=296
note_on channel=8 note=69 velocity=63 time=24
note_off channel=8 note=69 velocity=64 time=136
note_on channel=8 note=74 velocity=75 time=3224
note_off channel=8 note=74 velocity=64 time=136
note_on channel=8 note=72 velocity=72 time=24
note_off channel=8 note=72 velocity=64 time=296
note_on channel=8 note=69 velocity=63 time=24
note_off channel=8 note=69 velocity=64 time=136
note_on channel=8 note=62 velocity=62 time=8024
note_off channel=8 note=62 velocity=64 time=136
note_on channel=8 note=69 velocity=69 time=24
note_off channel=8 note=69 velocity=64 time=144
note_on channel=8 note=70 velocity=75 time=336
note_off channel=8 note=70 velocity=64 time=296
note_on channel=8 note=74 velocity=62 time=24
note_off channel=8 note=74 velocity=64 time=136
note_on channel=8 note=77 velocity=72 time=24
note_off channel=8 note=77 velocity=64 time=296
note_on channel=8 note=77 velocity=81 time=24
note_off channel=8 note=77 velocity=64 time=604
note_on channel=8 note=73 velocity=71 time=36
note_off channel=8 note=73 velocity=64 time=308
note_on channel=8 note=73 velocity=77 time=12
control_change channel=8 control=11 value=127 time=16
control_change channel=8 control=11 value=125 time=120
control_change channel=8 control=11 value=123 time=120
control_change channel=8 control=11 value=121 time=120
control_change channel=8 control=11 value=119 time=120
control_change channel=8 control=11 value=118 time=120
control_change channel=8 control=11 value=115 time=96
control_change channel=8 control=11 value=114 time=120
control_change channel=8 control=11 value=111 time=120
note_off channel=8 note=73 velocity=64 time=120
control_change channel=8 control=11 value=110 time=0
control_change channel=8 control=11 value=109 time=24
control_change channel=8 control=11 value=127 time=24
note_on channel=8 note=62 velocity=62 time=320
note_off channel=8 note=62 velocity=64 time=136
note_on channel=8 note=64 velocity=69 time=24
note_off channel=8 note=64 velocity=64 time=144
note_on channel=8 note=65 velocity=76 time=336
note_off channel=8 note=65 velocity=64 time=296
note_on channel=8 note=69 velocity=62 time=24
note_off channel=8 note=69 velocity=64 time=136
note_on channel=8 note=69 velocity=72 time=24
note_off channel=8 note=69 velocity=64 time=296
note_on channel=8 note=72 velocity=81 time=24
note_off channel=8 note=72 velocity=64 time=604
note_on channel=8 note=69 velocity=72 time=36
note_off channel=8 note=69 velocity=64 time=308
note_on channel=8 note=68 velocity=77 time=12
control_change channel=8 control=11 value=127 time=16
control_change channel=8 control=11 value=125 time=120
control_change channel=8 control=11 value=123 time=120
control_change channel=8 control=11 value=121 time=120
control_change channel=8 control=11 value=119 time=120
control_change channel=8 control=11 value=118 time=120
control_change channel=8 control=11 value=115 time=96
control_change channel=8 control=11 value=114 time=120
control_change channel=8 control=11 value=111 time=120
note_off channel=8 note=68 velocity=64 time=120
control_change channel=8 control=11 value=110 time=0
control_change channel=8 control=11 value=109 time=24
control_change channel=8 control=11 value=127 time=24
note_on channel=8 note=63 velocity=69 time=7040
note_off channel=8 note=63 velocity=64 time=580
note_on channel=8 note=64 velocity=69 time=60
note_off channel=8 note=64 velocity=64 time=144
note_on channel=8 note=64 velocity=69 time=336
note_off channel=8 note=64 velocity=64 time=296
note_on channel=8 note=62 velocity=69 time=24
note_off channel=8 note=62 velocity=64 time=136
note_on channel=8 note=64 velocity=62 time=24
note_off channel=8 note=64 velocity=64 time=56
note_on channel=8 note=64 velocity=69 time=24
note_off channel=8 note=64 velocity=64 time=68
note_on channel=8 note=63 velocity=69 time=332
note_off channel=8 note=63 velocity=64 time=308
control_change channel=8 control=11 value=104 time=12
note_on channel=8 note=64 velocity=75 time=0
control_change channel=8 control=11 value=105 time=100
control_change channel=8 control=11 value=108 time=80
control_change channel=8 control=11 value=109 time=100
control_change channel=8 control=11 value=111 time=100
control_change channel=8 control=11 value=114 time=90
control_change channel=8 control=11 value=115 time=100
control_change channel=8 control=11 value=118 time=70
control_change channel=8 control=11 value=119 time=100
control_change channel=8 control=11 value=121 time=100
control_change channel=8 control=11 value=124 time=90
control_change channel=8 control=11 value=125 time=100
control_change channel=8 control=11 value=127 time=10
note_off channel=8 note=64 velocity=64 time=80
note_on channel=8 note=68 velocity=76 time=320
note_on channel=8 note=67 velocity=40 time=112
note_on channel=8 note=66 velocity=28 time=40
note_off channel=8 note=68 velocity=64 time=4
note_off channel=8 note=67 velocity=64 time=8
note_on channel=8 note=65 velocity=17 time=28
note_off channel=8 note=66 velocity=64 time=12
note_off channel=8 note=65 velocity=64 time=40
note_on channel=8 note=69 velocity=75 time=236
note_off channel=8 note=69 velocity=64 time=592
note_on channel=8 note=69 velocity=69 time=48
note_off channel=8 note=69 velocity=64 time=296
note_on channel=8 note=69 velocity=57 time=24
note_off channel=8 note=69 velocity=64 time=136
note_on channel=8 note=69 velocity=69 time=24
note_off channel=8 note=69 velocity=64 time=284
note_on channel=8 note=67 velocity=69 time=36
note_off channel=8 note=67 velocity=64 time=156
note_on channel=8 note=71 velocity=69 time=324
control_change channel=8 control=11 value=127 time=160
control_change channel=8 control=11 value=125 time=120
control_change channel=8 control=11 value=123 time=120
control_change channel=8 control=11 value=121 time=120
control_change channel=8 control=11 value=119 time=120
control_change channel=8 control=11 value=118 time=120
control_change channel=8 control=11 value=115 time=120
control_change channel=8 control=11 value=114 time=120
control_change channel=8 control=11 value=111 time=120
control_change channel=8 control=11 value=110 time=120
control_change channel=8 control=11 value=108 time=120
control_change channel=8 control=11 value=106 time=120
control_change channel=8 control=11 value=104 time=120
control_change channel=8 control=11 value=103 time=120
control_change channel=8 control=11 value=100 time=120
control_change channel=8 control=11 value=99 time=120
note_off channel=8 note=71 velocity=64 time=60
control_change channel=8 control=11 value=96 time=36
control_change channel=8 control=11 value=127 time=24
note_on channel=8 note=69 velocity=75 time=320
note_on channel=8 note=68 velocity=30 time=112
note_on channel=8 note=67 velocity=20 time=40
note_off channel=8 note=69 velocity=64 time=4
note_off channel=8 note=68 velocity=64 time=8
note_off channel=8 note=67 velocity=64 time=40
note_on channel=8 note=73 velocity=75 time=276
note_off channel=8 note=73 velocity=64 time=580
note_on channel=8 note=71 velocity=75 time=60
note_off channel=8 note=71 velocity=64 time=168
note_on channel=8 note=69 velocity=74 time=632
note_on channel=8 note=68 velocity=32 time=112
note_on channel=8 note=67 velocity=23 time=40
note_off channel=8 note=69 velocity=64 time=4
note_off channel=8 note=68 velocity=64 time=8
note_off channel=8 note=67 velocity=64 time=40
note_on channel=8 note=69 velocity=75 time=276
note_off channel=8 note=69 velocity=64 time=580
note_on channel=8 note=69 velocity=75 time=60
note_off channel=8 note=69 velocity=64 time=168
note_on channel=8 note=63 velocity=69 time=632
note_off channel=8 note=63 velocity=64 time=444
note_on channel=8 note=67 velocity=71 time=36
note_off channel=8 note=67 velocity=64 time=444
note_on channel=8 note=70 velocity=74 time=36
note_off channel=8 note=70 velocity=64 time=444
note_on channel=8 note=67 velocity=66 time=36
note_off channel=8 note=67 velocity=64 time=136
note_on channel=8 note=70 velocity=79 time=24
note_off channel=8 note=70 velocity=64 time=148
note_on channel=8 note=67 velocity=65 time=12
note_off channel=8 note=67 velocity=64 time=148
note_on channel=8 note=72 velocity=80 time=12
note_off channel=8 note=72 velocity=64 time=924
note_on channel=8 note=65 velocity=75 time=36
note_off channel=8 note=65 velocity=64 time=604
note_on channel=8 note=62 velocity=69 time=36
note_off channel=8 note=62 velocity=64 time=284
note_on channel=8 note=62 velocity=70 time=36
note_off channel=8 note=62 velocity=64 time=124
note_on channel=8 note=77 velocity=81 time=15236
note_off channel=8 note=77 velocity=64 time=604
note_on channel=8 note=71 velocity=81 time=36
note_off channel=8 note=71 velocity=64 time=296
note_on channel=8 note=71 velocity=81 time=24
note_off channel=8 note=71 velocity=64 time=136
note_on channel=8 note=76 velocity=81 time=824
note_off channel=8 note=76 velocity=64 time=604
note_on channel=8 note=72 velocity=81 time=36
note_off channel=8 note=72 velocity=64 time=296
note_on channel=8 note=69 velocity=81 time=24
note_off channel=8 note=69 velocity=64 time=136
note_on channel=8 note=77 velocity=81 time=824
note_off channel=8 note=77 velocity=64 time=604
note_on channel=8 note=71 velocity=81 time=36
note_off channel=8 note=71 velocity=64 time=296
note_on channel=8 note=72 velocity=81 time=24
note_off channel=8 note=72 velocity=64 time=136
note_on channel=8 note=78 velocity=81 time=824
note_off channel=8 note=78 velocity=64 time=604
note_on channel=8 note=72 velocity=81 time=36
note_off channel=8 note=72 velocity=64 time=296
note_on channel=8 note=69 velocity=81 time=24
note_off channel=8 note=69 velocity=64 time=136
note_on channel=8 note=77 velocity=81 time=824
note_off channel=8 note=77 velocity=64 time=580
note_on channel=8 note=77 velocity=81 time=60
note_off channel=8 note=77 velocity=64 time=168
note_on channel=8 note=77 velocity=81 time=312
note_off channel=8 note=77 velocity=64 time=168
note_on channel=8 note=77 velocity=81 time=312
note_off channel=8 note=77 velocity=64 time=296
note_on channel=8 note=81 velocity=69 time=24
note_off channel=8 note=81 velocity=64 time=148
note_on channel=8 note=77 velocity=81 time=12
note_off channel=8 note=77 velocity=64 time=311
note_on channel=8 note=76 velocity=81 time=9
pitchwheel channel=8 pitch=0 time=16
control_change channel=8 control=11 value=127 time=0
pitchwheel channel=8 pitch=242 time=24
control_change channel=8 control=11 value=124 time=72
control_change channel=8 control=11 value=121 time=96
pitchwheel channel=8 pitch=0 time=72
control_change channel=8 control=11 value=119 time=48
control_change channel=8 control=11 value=116 time=48
pitchwheel channel=8 pitch=-82 time=96
control_change channel=8 control=11 value=114 time=24
control_change channel=8 control=11 value=111 time=72
pitchwheel channel=8 pitch=-244 time=24
pitchwheel channel=8 pitch=-407 time=96
control_change channel=8 control=11 value=109 time=0
control_change channel=8 control=11 value=106 time=48
pitchwheel channel=8 pitch=-569 time=24
pitchwheel channel=8 pitch=-731 time=72
control_change channel=8 control=11 value=104 time=24
pitchwheel channel=8 pitch=-893 time=24
pitchwheel channel=8 pitch=-1055 time=48
control_change channel=8 control=11 value=101 time=0
pitchwheel channel=8 pitch=-1218 time=48
pitchwheel channel=8 pitch=-1380 time=24
pitchwheel channel=8 pitch=-1542 time=24
pitchwheel channel=8 pitch=-1704 time=24
control_change channel=8 control=11 value=99 time=0
note_off channel=8 note=76 velocity=64 time=24
pitchwheel channel=8 pitch=-2029 time=0
control_change channel=8 control=11 value=96 time=24
control_change channel=8 control=11 value=127 time=0
control_change channel=8 control=11 value=127 time=24
pitchwheel channel=8 pitch=0 time=0
note_on channel=8 note=74 velocity=81 time=320
note_on channel=8 note=73 velocity=30 time=112
note_on channel=8 note=72 velocity=20 time=40
note_off channel=8 note=74 velocity=64 time=8
note_off channel=8 note=73 velocity=64 time=4
note_off channel=8 note=72 velocity=64 time=40
note_on channel=8 note=74 velocity=81 time=436
note_off channel=8 note=74 velocity=64 time=168
note_on channel=8 note=74 velocity=81 time=312
note_off channel=8 note=74 velocity=64 time=168
note_on channel=8 note=77 velocity=81 time=792
note_off channel=8 note=77 velocity=64 time=296
note_on channel=8 note=77 velocity=81 time=24
note_off channel=8 note=77 velocity=64 time=192
note_on channel=8 note=72 velocity=69 time=288
note_off channel=8 note=72 velocity=64 time=148
note_on channel=8 note=77 velocity=81 time=12
note_off channel=8 note=77 velocity=64 time=308
note_on channel=8 note=77 velocity=75 time=12
note_off channel=8 note=77 velocity=64 time=136
note_on channel=8 note=74 velocity=81 time=24
note_off channel=8 note=74 velocity=64 time=296
note_on channel=8 note=70 velocity=81 time=24
note_off channel=8 note=70 velocity=64 time=136
note_on channel=8 note=71 velocity=81 time=1944
note_off channel=8 note=71 velocity=64 time=168
note_on channel=8 note=70 velocity=81 time=312
note_off channel=8 note=70 velocity=64 time=296
note_on channel=8 note=70 velocity=81 time=24
note_off channel=8 note=70 velocity=64 time=180
note_on channel=8 note=79 velocity=81 time=300
note_on channel=8 note=81 velocity=59 time=1440
note_off channel=8 note=79 velocity=64 time=16
note_on channel=8 note=80 velocity=70 time=64
note_off channel=8 note=81 velocity=64 time=24
note_on channel=8 note=76 velocity=81 time=56
note_off channel=8 note=80 velocity=64 time=24
note_off channel=8 note=76 velocity=64 time=284
note_on channel=8 note=71 velocity=81 time=12
pitchwheel channel=8 pitch=0 time=160
control_change channel=8 control=11 value=127 time=0
pitchwheel channel=8 pitch=242 time=12
control_change channel=8 control=11 value=124 time=72
control_change channel=8 control=11 value=121 time=72
pitchwheel channel=8 pitch=0 time=48
control_change channel=8 control=11 value=119 time=60
control_change channel=8 control=11 value=116 time=48
pitchwheel channel=8 pitch=-82 time=36
control_change channel=8 control=11 value=114 time=72
pitchwheel channel=8 pitch=-244 time=24
control_change channel=8 control=11 value=111 time=24
pitchwheel channel=8 pitch=-407 time=48
pitchwheel channel=8 pitch=-569 time=60
control_change channel=8 control=11 value=109 time=0
control_change channel=8 control=11 value=106 time=48
pitchwheel channel=8 pitch=-731 time=12
pitchwheel channel=8 pitch=-893 time=36
pitchwheel channel=8 pitch=-1055 time=48
control_change channel=8 control=11 value=104 time=12
pitchwheel channel=8 pitch=-1218 time=24
pitchwheel channel=8 pitch=-1380 time=24
control_change channel=8 control=11 value=101 time=0
pitchwheel channel=8 pitch=-1542 time=36
pitchwheel channel=8 pitch=-1704 time=24
pitchwheel channel=8 pitch=-1866 time=12
pitchwheel channel=8 pitch=-2029 time=24
pitchwheel channel=8 pitch=-2191 time=12
control_change channel=8 control=11 value=99 time=0
pitchwheel channel=8 pitch=-2353 time=12
note_off channel=8 note=71 velocity=64 time=12
pitchwheel channel=8 pitch=-2515 time=0
pitchwheel channel=8 pitch=-2840 time=12
control_change channel=8 control=11 value=96 time=12
control_change channel=8 control=11 value=127 time=24
pitchwheel channel=8 pitch=0 time=0
note_on channel=8 note=74 velocity=81 time=1280
note_off channel=8 note=74 velocity=64 time=604
note_on channel=8 note=78 velocity=81 time=36
note_off channel=8 note=78 velocity=64 time=180
note_on channel=8 note=78 velocity=81 time=300
note_off channel=8 note=78 velocity=64 time=296
note_on channel=8 note=77 velocity=81 time=24
note_off channel=8 note=77 velocity=64 time=136
note_on channel=8 note=77 velocity=81 time=344
note_off channel=8 note=77 velocity=64 time=180
note_on channel=8 note=74 velocity=75 time=300
note_off channel=8 note=74 velocity=64 time=148
note_on channel=8 note=74 velocity=81 time=12
note_off channel=8 note=74 velocity=64 time=456
note_on channel=8 note=72 velocity=81 time=24
note_off channel=8 note=72 velocity=64 time=156
note_on channel=8 note=81 velocity=88 time=804
note_off channel=8 note=81 velocity=64 time=912
note_on channel=8 note=79 velocity=81 time=48
note_off channel=8 note=79 velocity=64 time=180
control_change channel=8 control=11 value=104 time=300
note_on channel=8 note=79 velocity=88 time=0
control_change channel=8 control=11 value=106 time=108
control_change channel=8 control=11 value=109 time=108
note_off channel=8 note=79 velocity=64 time=92
note_on channel=8 note=81 velocity=88 time=12
control_change channel=8 control=11 value=111 time=4
control_change channel=8 control=11 value=114 time=108
control_change channel=8 control=11 value=116 time=108
control_change channel=8 control=11 value=119 time=108
control_change channel=8 control=11 value=121 time=108
control_change channel=8 control=11 value=124 time=108
note_off channel=8 note=81 velocity=64 time=60
control_change channel=8 control=11 value=127 time=36
control_change channel=8 control=11 value=127 time=0
note_on channel=8 note=78 velocity=88 time=0
control_change channel=8 control=11 value=124 time=84
control_change channel=8 control=11 value=121 time=84
control_change channel=8 control=11 value=119 time=108
note_off channel=8 note=78 velocity=64 time=32
note_on channel=8 note=72 velocity=88 time=12
control_change channel=8 control=11 value=116 time=4
control_change channel=8 control=11 value=114 time=108
control_change channel=8 control=11 value=111 time=48
control_change channel=8 control=11 value=109 time=108
control_change channel=8 control=11 value=106 time=60
control_change channel=8 control=11 value=104 time=108
control_change channel=8 control=11 value=101 time=48
note_off channel=8 note=72 velocity=64 time=108
control_change channel=8 control=11 value=99 time=0
control_change channel=8 control=11 value=96 time=48
control_change channel=8 control=11 value=127 time=0
control_change channel=8 control=11 value=127 time=12
note_on channel=8 note=74 velocity=75 time=3188
note_off channel=8 note=74 velocity=64 time=136
note_on channel=8 note=72 velocity=72 time=24
note_off channel=8 note=72 velocity=64 time=296
note_on channel=8 note=69 velocity=63 time=24
note_off channel=8 note=69 velocity=64 time=136
note_on channel=8 note=74 velocity=75 time=3224
note_off channel=8 note=74 velocity=64 time=136
note_on channel=8 note=72 velocity=72 time=24
note_off channel=8 note=72 velocity=64 time=296
note_on channel=8 note=69 velocity=63 time=24
note_off channel=8 note=69 velocity=64 time=136
note_on channel=8 note=70 velocity=81 time=8024
note_off channel=8 note=70 velocity=64 time=168
note_on channel=8 note=72 velocity=81 time=312
note_off channel=8 note=72 velocity=64 time=136
note_on channel=8 note=74 velocity=81 time=24
note_off channel=8 note=74 velocity=64 time=168
note_on channel=8 note=74 velocity=81 time=312
note_off channel=8 note=74 velocity=64 time=168
control_change channel=8 control=93 value=30 time=312
note_on channel=8 note=77 velocity=81 time=0
note_off channel=8 note=77 velocity=64 time=444
note_on channel=8 note=77 velocity=81 time=36
note_off channel=8 note=77 velocity=64 time=296
note_on channel=8 note=79 velocity=81 time=24
note_off channel=8 note=79 velocity=64 time=136
note_on channel=8 note=69 velocity=81 time=824
note_off channel=8 note=69 velocity=64 time=604
note_on channel=8 note=72 velocity=81 time=36
note_off channel=8 note=72 velocity=64 time=296
note_on channel=8 note=69 velocity=69 time=24
note_off channel=8 note=69 velocity=64 time=136
note_on channel=8 note=74 velocity=81 time=24
note_off channel=8 note=74 velocity=64 time=284
note_on channel=8 note=76 velocity=81 time=36
note_off channel=8 note=76 velocity=64 time=168
note_on channel=8 note=75 velocity=81 time=312
note_off channel=8 note=75 velocity=64 time=604
note_on channel=8 note=79 velocity=81 time=36
note_off channel=8 note=79 velocity=64 time=296
note_on channel=8 note=78 velocity=81 time=24
note_off channel=8 note=78 velocity=64 time=124
note_on channel=8 note=75 velocity=81 time=1316
note_off channel=8 note=75 velocity=64 time=568
note_on channel=8 note=76 velocity=81 time=72
note_off channel=8 note=76 velocity=64 time=156
note_on channel=8 note=69 velocity=81 time=324
note_off channel=8 note=69 velocity=64 time=156
note_on channel=8 note=75 velocity=81 time=324
note_off channel=8 note=75 velocity=64 time=782
note_on channel=8 note=76 velocity=81 time=18
note_off channel=8 note=76 velocity=64 time=1060
control_change channel=8 control=0 value=56 time=7740
control_change channel=8 control=32 value=0 time=0
program_change channel=8 program=59 time=0
note_on channel=8 note=71 velocity=45 time=2720
control_change channel=8 control=11 value=127 time=1120
control_change channel=8 control=11 value=125 time=120
control_change channel=8 control=11 value=124 time=120
control_change channel=8 control=11 value=123 time=120
control_change channel=8 control=11 value=121 time=120
control_change channel=8 control=11 value=120 time=120
control_change channel=8 control=11 value=119 time=120
control_change channel=8 control=11 value=118 time=120
control_change channel=8 control=11 value=116 time=120
control_change channel=8 control=11 value=115 time=120
control_change channel=8 control=11 value=114 time=120
control_change channel=8 control=11 value=113 time=120
control_change channel=8 control=11 value=111 time=120
control_change channel=8 control=11 value=110 time=120
control_change channel=8 control=11 value=109 time=120
control_change channel=8 control=11 value=108 time=120
control_change channel=8 control=11 value=106 time=120
control_change channel=8 control=11 value=105 time=120
control_change channel=8 control=11 value=104 time=120
control_change channel=8 control=11 value=103 time=120
control_change channel=8 control=11 value=101 time=120
control_change channel=8 control=11 value=100 time=120
control_change channel=8 control=11 value=99 time=120
control_change channel=8 control=11 value=98 time=120
note_off channel=8 note=71 velocity=64 time=96
<meta message end_of_track time=0>
<meta message text text='Trumpet 3' time=0>
control_change channel=10 control=11 value=127 time=0
control_change channel=10 control=7 value=106 time=0
control_change channel=10 control=10 value=54 time=0
control_change channel=10 control=91 value=84 time=0
control_change channel=10 control=93 value=25 time=0
control_change channel=10 control=0 value=56 time=0
control_change channel=10 control=32 value=0 time=0
program_change channel=10 program=56 time=0
note_on channel=10 note=71 velocity=94 time=13760
note_off channel=10 note=71 velocity=64 time=580
note_on channel=10 note=71 velocity=94 time=60
note_off channel=10 note=71 velocity=64 time=168
note_on channel=10 note=65 velocity=94 time=312
note_off channel=10 note=65 velocity=64 time=168
note_on channel=10 note=72 velocity=94 time=312
note_off channel=10 note=72 velocity=64 time=764
note_on channel=10 note=72 velocity=94 time=36
note_off channel=10 note=72 velocity=64 time=592
note_on channel=10 note=67 velocity=94 time=48
note_off channel=10 note=67 velocity=64 time=272
note_on channel=10 note=72 velocity=94 time=48
note_off channel=10 note=72 velocity=64 time=124
note_on channel=10 note=58 velocity=50 time=19556
note_off channel=10 note=58 velocity=64 time=124
note_on channel=10 note=66 velocity=55 time=36
note_off channel=10 note=66 velocity=64 time=132
note_on channel=10 note=67 velocity=50 time=348
note_off channel=10 note=67 velocity=64 time=294
control_change channel=10 control=11 value=109 time=26
note_on channel=10 note=70 velocity=58 time=0
control_change channel=10 control=11 value=110 time=100
control_change channel=10 control=11 value=111 time=100
control_change channel=10 control=11 value=113 time=100
control_change channel=10 control=11 value=114 time=100
control_change channel=10 control=11 value=115 time=100
control_change channel=10 control=11 value=116 time=100
note_off channel=10 note=70 velocity=64 time=12
note_on channel=10 note=71 velocity=58 time=28
control_change channel=10 control=11 value=118 time=60
control_change channel=10 control=11 value=119 time=100
control_change channel=10 control=11 value=120 time=100
control_change channel=10 control=11 value=121 time=100
control_change channel=10 control=11 value=123 time=100
control_change channel=10 control=11 value=124 time=100
control_change channel=10 control=11 value=125 time=100
control_change channel=10 control=11 value=127 time=60
note_off channel=10 note=71 velocity=64 time=32
note_on channel=10 note=68 velocity=60 time=48
note_off channel=10 note=68 velocity=64 time=112
note_on channel=10 note=68 velocity=55 time=368
note_off channel=10 note=68 velocity=64 time=144
note_on channel=10 note=68 velocity=50 time=336
note_off channel=10 note=68 velocity=64 time=136
note_on channel=10 note=60 velocity=55 time=24
note_off channel=10 note=60 velocity=64 time=284
note_on channel=10 note=60 velocity=50 time=36
note_off channel=10 note=60 velocity=64 time=136
note_on channel=10 note=60 velocity=55 time=24
note_off channel=10 note=60 velocity=64 time=120
note_on channel=10 note=64 velocity=55 time=360
note_off channel=10 note=64 velocity=64 time=284
note_on channel=10 note=69 velocity=55 time=36
note_off channel=10 note=69 velocity=64 time=120
note_on channel=10 note=64 velocity=55 time=360
control_change channel=10 control=11 value=127 time=232
control_change channel=10 control=11 value=120 time=24
control_change channel=10 control=11 value=114 time=24
control_change channel=10 control=11 value=108 time=24
control_change channel=10 control=11 value=101 time=24
control_change channel=10 control=11 value=94 time=24
control_change channel=10 control=11 value=96 time=120
control_change channel=10 control=11 value=99 time=120
control_change channel=10 control=11 value=101 time=120
control_change channel=10 control=11 value=104 time=120
control_change channel=10 control=11 value=106 time=120
control_change channel=10 control=11 value=109 time=120
control_change channel=10 control=11 value=111 time=120
control_change channel=10 control=11 value=114 time=120
control_change channel=10 control=11 value=116 time=120
control_change channel=10 control=11 value=119 time=120
control_change channel=10 control=11 value=121 time=120
control_change channel=10 control=11 value=124 time=120
control_change channel=10 control=11 value=127 time=120
note_off channel=10 note=64 velocity=64 time=120
note_on channel=10 note=58 velocity=60 time=368
note_off channel=10 note=58 velocity=64 time=124
note_on channel=10 note=58 velocity=54 time=36
note_off channel=10 note=58 velocity=64 time=120
note_on channel=10 note=62 velocity=56 time=360
note_off channel=10 note=62 velocity=64 time=284
note_on channel=10 note=66 velocity=59 time=36
note_off channel=10 note=66 velocity=64 time=108
note_on channel=10 note=70 velocity=65 time=372
note_off channel=10 note=70 velocity=64 time=592
note_on channel=10 note=69 velocity=60 time=48
note_off channel=10 note=69 velocity=64 time=296
note_on channel=10 note=67 velocity=50 time=24
note_off channel=10 note=67 velocity=64 time=134
note_on channel=10 note=64 velocity=55 time=26
note_off channel=10 note=64 velocity=64 time=284
note_on channel=10 note=64 velocity=55 time=36
note_off channel=10 note=64 velocity=64 time=120
note_on channel=10 note=64 velocity=59 time=3880
note_off channel=10 note=64 velocity=64 time=284
note_on channel=10 note=62 velocity=60 time=36
note_off channel=10 note=62 velocity=64 time=112
note_on channel=10 note=58 velocity=62 time=15728
note_off channel=10 note=58 velocity=64 time=136
note_on channel=10 note=66 velocity=69 time=24
note_off channel=10 note=66 velocity=64 time=144
note_on channel=10 note=67 velocity=75 time=336
note_off channel=10 note=67 velocity=64 time=296
note_on channel=10 note=70 velocity=62 time=24
note_off channel=10 note=70 velocity=64 time=136
note_on channel=10 note=74 velocity=72 time=24
note_off channel=10 note=74 velocity=64 time=296
note_on channel=10 note=73 velocity=81 time=24
note_off channel=10 note=73 velocity=64 time=604
note_on channel=10 note=70 velocity=71 time=36
note_off channel=10 note=70 velocity=64 time=308
note_on channel=10 note=70 velocity=77 time=12
control_change channel=10 control=11 value=127 time=16
control_change channel=10 control=11 value=125 time=120
control_change channel=10 control=11 value=123 time=120
control_change channel=10 control=11 value=121 time=120
control_change channel=10 control=11 value=119 time=120
control_change channel=10 control=11 value=118 time=120
control_change channel=10 control=11 value=115 time=96
control_change channel=10 control=11 value=114 time=120
control_change channel=10 control=11 value=111 time=120
note_off channel=10 note=70 velocity=64 time=120
control_change channel=10 control=11 value=110 time=0
control_change channel=10 control=11 value=109 time=24
control_change channel=10 control=11 value=127 time=24
note_on channel=10 note=60 velocity=62 time=320
note_off channel=10 note=60 velocity=64 time=136
note_on channel=10 note=62 velocity=69 time=24
note_off channel=10 note=62 velocity=64 time=144
note_on channel=10 note=61 velocity=76 time=336
note_off channel=10 note=61 velocity=64 time=296
note_on channel=10 note=65 velocity=62 time=24
note_off channel=10 note=65 velocity=64 time=136
note_on channel=10 note=66 velocity=72 time=24
note_off channel=10 note=66 velocity=64 time=296
note_on channel=10 note=69 velocity=81 time=24
note_off channel=10 note=69 velocity=64 time=604
note_on channel=10 note=67 velocity=72 time=36
note_off channel=10 note=67 velocity=64 time=308
note_on channel=10 note=66 velocity=77 time=12
control_change channel=10 control=11 value=127 time=16
control_change channel=10 control=11 value=125 time=120
control_change channel=10 control=11 value=123 time=120
control_change channel=10 control=11 value=121 time=120
control_change channel=10 control=11 value=119 time=120
control_change channel=10 control=11 value=118 time=120
control_change channel=10 control=11 value=115 time=96
control_change channel=10 control=11 value=114 time=120
control_change channel=10 control=11 value=111 time=120
note_off channel=10 note=66 velocity=64 time=120
control_change channel=10 control=11 value=110 time=0
control_change channel=10 control=11 value=109 time=24
control_change channel=10 control=11 value=127 time=24
control_change channel=10 control=11 value=104 time=9440
note_on channel=10 note=62 velocity=75 time=0
control_change channel=10 control=11 value=105 time=100
control_change channel=10 control=11 value=108 time=80
control_change channel=10 control=11 value=109 time=100
control_change channel=10 control=11 value=111 time=100
control_change channel=10 control=11 value=114 time=90
control_change channel=10 control=11 value=115 time=100
control_change channel=10 control=11 value=118 time=70
control_change channel=10 control=11 value=119 time=100
control_change channel=10 control=11 value=121 time=100
control_change channel=10 control=11 value=124 time=90
control_change channel=10 control=11 value=125 time=100
control_change channel=10 control=11 value=127 time=10
note_off channel=10 note=62 velocity=64 time=80
note_on channel=10 note=64 velocity=76 time=320
note_on channel=10 note=63 velocity=40 time=112
note_on channel=10 note=62 velocity=28 time=40
note_off channel=10 note=64 velocity=64 time=4
note_off channel=10 note=63 velocity=64 time=8
note_on channel=10 note=61 velocity=17 time=28
note_off channel=10 note=62 velocity=64 time=12
note_off channel=10 note=61 velocity=64 time=40
note_on channel=10 note=67 velocity=75 time=236
note_off channel=10 note=67 velocity=64 time=592
note_on channel=10 note=67 velocity=69 time=48
note_off channel=10 note=67 velocity=64 time=296
note_on channel=10 note=65 velocity=57 time=24
note_off channel=10 note=65 velocity=64 time=136
note_on channel=10 note=67 velocity=69 time=24
note_off channel=10 note=67 velocity=64 time=284
note_on channel=10 note=65 velocity=69 time=36
note_off channel=10 note=65 velocity=64 time=156
note_on channel=10 note=68 velocity=69 time=324
control_change channel=10 control=11 value=127 time=160
control_change channel=10 control=11 value=125 time=120
control_change channel=10 control=11 value=123 time=120
control_change channel=10 control=11 value=121 time=120
control_change channel=10 control=11 value=119 time=120
control_change channel=10 control=11 value=118 time=120
control_change channel=10 control=11 value=115 time=120
control_change channel=10 control=11 value=114 time=120
control_change channel=10 control=11 value=111 time=120
control_change channel=10 control=11 value=110 time=120
control_change channel=10 control=11 value=108 time=120
control_change channel=10 control=11 value=106 time=120
control_change channel=10 control=11 value=104 time=120
control_change channel=10 control=11 value=103 time=120
control_change channel=10 control=11 value=100 time=120
control_change channel=10 control=11 value=99 time=120
note_off channel=10 note=68 velocity=64 time=60
control_change channel=10 control=11 value=96 time=36
control_change channel=10 control=11 value=127 time=24
note_on channel=10 note=64 velocity=75 time=320
note_on channel=10 note=63 velocity=30 time=112
note_on channel=10 note=62 velocity=20 time=40
note_off channel=10 note=64 velocity=64 time=4
note_off channel=10 note=63 velocity=64 time=8
note_off channel=10 note=62 velocity=64 time=40
note_on channel=10 note=69 velocity=75 time=276
note_off channel=10 note=69 velocity=64 time=580
note_on channel=10 note=67 velocity=75 time=60
note_off channel=10 note=67 velocity=64 time=168
note_on channel=10 note=64 velocity=74 time=632
note_on channel=10 note=63 velocity=32 time=112
note_on channel=10 note=62 velocity=23 time=40
note_off channel=10 note=64 velocity=64 time=4
note_off channel=10 note=63 velocity=64 time=8
note_off channel=10 note=62 velocity=64 time=40
note_on channel=10 note=64 velocity=75 time=276
note_off channel=10 note=64 velocity=64 time=580
note_on channel=10 note=64 velocity=75 time=60
note_off channel=10 note=64 velocity=64 time=168
note_on channel=10 note=60 velocity=69 time=632
note_off channel=10 note=60 velocity=64 time=444
note_on channel=10 note=63 velocity=71 time=36
note_off channel=10 note=63 velocity=64 time=444
note_on channel=10 note=67 velocity=74 time=36
note_off channel=10 note=67 velocity=64 time=444
note_on channel=10 note=63 velocity=66 time=36
note_off channel=10 note=63 velocity=64 time=136
note_on channel=10 note=67 velocity=79 time=24
note_off channel=10 note=67 velocity=64 time=148
note_on channel=10 note=63 velocity=65 time=12
note_off channel=10 note=63 velocity=64 time=148
note_on channel=10 note=70 velocity=80 time=12
note_off channel=10 note=70 velocity=64 time=924
note_on channel=10 note=63 velocity=75 time=36
note_off channel=10 note=63 velocity=64 time=604
note_on channel=10 note=60 velocity=69 time=36
note_off channel=10 note=60 velocity=64 time=284
note_on channel=10 note=60 velocity=70 time=36
note_off channel=10 note=60 velocity=64 time=124
note_on channel=10 note=74 velocity=81 time=15236
note_off channel=10 note=74 velocity=64 time=604
note_on channel=10 note=68 velocity=81 time=36
note_off channel=10 note=68 velocity=64 time=296
note_on channel=10 note=69 velocity=81 time=24
note_off channel=10 note=69 velocity=64 time=136
note_on channel=10 note=72 velocity=81 time=824
note_off channel=10 note=72 velocity=64 time=604
note_on channel=10 note=68 velocity=81 time=36
note_off channel=10 note=68 velocity=64 time=296
note_on channel=10 note=64 velocity=81 time=24
note_off channel=10 note=64 velocity=64 time=136
note_on channel=10 note=72 velocity=81 time=824
note_off channel=10 note=72 velocity=64 time=604
note_on channel=10 note=68 velocity=81 time=36
note_off channel=10 note=68 velocity=64 time=296
note_on channel=10 note=69 velocity=81 time=24
note_off channel=10 note=69 velocity=64 time=136
note_on channel=10 note=74 velocity=81 time=824
note_off channel=10 note=74 velocity=64 time=604
note_on channel=10 note=68 velocity=81 time=36
note_off channel=10 note=68 velocity=64 time=296
note_on channel=10 note=66 velocity=81 time=24
note_off channel=10 note=66 velocity=64 time=136
note_on channel=10 note=74 velocity=81 time=824
note_off channel=10 note=74 velocity=64 time=580
note_on channel=10 note=76 velocity=81 time=60
note_off channel=10 note=76 velocity=64 time=168
note_on channel=10 note=74 velocity=81 time=312
note_off channel=10 note=74 velocity=64 time=168
note_on channel=10 note=72 velocity=81 time=312
note_off channel=10 note=72 velocity=64 time=296
note_on channel=10 note=77 velocity=69 time=24
note_off channel=10 note=77 velocity=64 time=148
note_on channel=10 note=72 velocity=81 time=12
note_off channel=10 note=72 velocity=64 time=311
note_on channel=10 note=72 velocity=81 time=9
pitchwheel channel=10 pitch=0 time=16
control_change channel=10 control=11 value=127 time=0
pitchwheel channel=10 pitch=242 time=24
control_change channel=10 control=11 value=124 time=72
control_change channel=10 control=11 value=121 time=96
pitchwheel channel=10 pitch=0 time=72
control_change channel=10 control=11 value=119 time=48
control_change channel=10 control=11 value=116 time=48
pitchwheel channel=10 pitch=-82 time=96
control_change channel=10 control=11 value=114 time=24
control_change channel=10 control=11 value=111 time=72
pitchwheel channel=10 pitch=-244 time=24
pitchwheel channel=10 pitch=-407 time=96
control_change channel=10 control=11 value=109 time=0
control_change channel=10 control=11 value=106 time=48
pitchwheel channel=10 pitch=-569 time=24
pitchwheel channel=10 pitch=-731 time=72
control_change channel=10 control=11 value=104 time=24
pitchwheel channel=10 pitch=-893 time=24
pitchwheel channel=10 pitch=-1055 time=48
control_change channel=10 control=11 value=101 time=0
pitchwheel channel=10 pitch=-1218 time=48
pitchwheel channel=10 pitch=-1380 time=24
pitchwheel channel=10 pitch=-1542 time=24
pitchwheel channel=10 pitch=-1704 time=24
control_change channel=10 control=11 value=99 time=0
note_off channel=10 note=72 velocity=64 time=24
pitchwheel channel=10 pitch=-2029 time=0
control_change channel=10 control=11 value=96 time=24
control_change channel=10 control=11 value=127 time=0
control_change channel=10 control=11 value=127 time=24
pitchwheel channel=10 pitch=0 time=0
note_on channel=10 note=70 velocity=81 time=320
note_on channel=10 note=69 velocity=30 time=112
note_on channel=10 note=68 velocity=20 time=40
note_off channel=10 note=70 velocity=64 time=8
note_off channel=10 note=69 velocity=64 time=4
note_off channel=10 note=68 velocity=64 time=40
note_on channel=10 note=70 velocity=81 time=436
note_off channel=10 note=70 velocity=64 time=168
note_on channel=10 note=70 velocity=81 time=312
note_off channel=10 note=70 velocity=64 time=168
note_on channel=10 note=72 velocity=81 time=792
note_off channel=10 note=72 velocity=64 time=296
note_on channel=10 note=72 velocity=81 time=24
note_off channel=10 note=72 velocity=64 time=192
note_on channel=10 note=68 velocity=69 time=288
note_off channel=10 note=68 velocity=64 time=148
note_on channel=10 note=72 velocity=81 time=12
note_off channel=10 note=72 velocity=64 time=308
note_on channel=10 note=72 velocity=75 time=12
note_off channel=10 note=72 velocity=64 time=136
note_on channel=10 note=72 velocity=81 time=24
note_off channel=10 note=72 velocity=64 time=296
note_on channel=10 note=67 velocity=81 time=24
note_off channel=10 note=67 velocity=64 time=136
note_on channel=10 note=69 velocity=81 time=1944
note_off channel=10 note=69 velocity=64 time=168
note_on channel=10 note=68 velocity=81 time=312
note_off channel=10 note=68 velocity=64 time=296
note_on channel=10 note=68 velocity=81 time=24
note_off channel=10 note=68 velocity=64 time=180
note_on channel=10 note=76 velocity=81 time=300
note_on channel=10 note=78 velocity=59 time=1440
note_off channel=10 note=76 velocity=64 time=16
note_on channel=10 note=77 velocity=70 time=64
note_off channel=10 note=78 velocity=64 time=24
note_on channel=10 note=72 velocity=81 time=56
note_off channel=10 note=77 velocity=64 time=24
note_off channel=10 note=72 velocity=64 time=284
note_on channel=10 note=68 velocity=81 time=12
pitchwheel channel=10 pitch=0 time=160
control_change channel=10 control=11 value=127 time=0
pitchwheel channel=10 pitch=242 time=12
control_change channel=10 control=11 value=124 time=72
control_change channel=10 control=11 value=121 time=72
pitchwheel channel=10 pitch=0 time=48
control_change channel=10 control=11 value=119 time=60
control_change channel=10 control=11 value=116 time=48
pitchwheel channel=10 pitch=-82 time=36
control_change channel=10 control=11 value=114 time=72
pitchwheel channel=10 pitch=-244 time=24
control_change channel=10 control=11 value=111 time=24
pitchwheel channel=10 pitch=-407 time=48
pitchwheel channel=10 pitch=-569 time=60
control_change channel=10 control=11 value=109 time=0
control_change channel=10 control=11 value=106 time=48
pitchwheel channel=10 pitch=-731 time=12
pitchwheel channel=10 pitch=-893 time=36
pitchwheel channel=10 pitch=-1055 time=48
control_change channel=10 control=11 value=104 time=12
pitchwheel channel=10 pitch=-1218 time=24
pitchwheel channel=10 pitch=-1380 time=24
control_change channel=10 control=11 value=101 time=0
pitchwheel channel=10 pitch=-1542 time=36
pitchwheel channel=10 pitch=-1704 time=24
pitchwheel channel=10 pitch=-1866 time=12
pitchwheel channel=10 pitch=-2029 time=24
pitchwheel channel=10 pitch=-2191 time=12
control_change channel=10 control=11 value=99 time=0
pitchwheel channel=10 pitch=-2353 time=12
note_off channel=10 note=68 velocity=64 time=12
pitchwheel channel=10 pitch=-2515 time=0
pitchwheel channel=10 pitch=-2840 time=12
control_change channel=10 control=11 value=96 time=12
control_change channel=10 control=11 value=127 time=24
pitchwheel channel=10 pitch=0 time=0
note_on channel=10 note=70 velocity=81 time=1280
note_off channel=10 note=70 velocity=64 time=604
note_on channel=10 note=74 velocity=81 time=36
note_off channel=10 note=74 velocity=64 time=180
note_on channel=10 note=74 velocity=81 time=300
note_off channel=10 note=74 velocity=64 time=296
note_on channel=10 note=74 velocity=81 time=24
note_off channel=10 note=74 velocity=64 time=136
note_on channel=10 note=74 velocity=81 time=344
note_off channel=10 note=74 velocity=64 time=180
note_on channel=10 note=70 velocity=75 time=300
note_off channel=10 note=70 velocity=64 time=148
note_on channel=10 note=70 velocity=81 time=12
note_off channel=10 note=70 velocity=64 time=456
note_on channel=10 note=67 velocity=81 time=24
note_off channel=10 note=67 velocity=64 time=156
note_on channel=10 note=79 velocity=88 time=804
note_off channel=10 note=79 velocity=64 time=912
note_on channel=10 note=75 velocity=81 time=48
note_off channel=10 note=75 velocity=64 time=180
control_change channel=10 control=11 value=104 time=300
note_on channel=10 note=75 velocity=88 time=0
control_change channel=10 control=11 value=106 time=108
control_change channel=10 control=11 value=109 time=108
note_off channel=10 note=75 velocity=64 time=92
note_on channel=10 note=77 velocity=88 time=12
control_change channel=10 control=11 value=111 time=4
control_change channel=10 control=11 value=114 time=108
control_change channel=10 control=11 value=116 time=108
control_change channel=10 control=11 value=119 time=108
control_change channel=10 control=11 value=121 time=108
control_change channel=10 control=11 value=124 time=108
note_off channel=10 note=77 velocity=64 time=60
control_change channel=10 control=11 value=127 time=36
control_change channel=10 control=11 value=127 time=0
note_on channel=10 note=74 velocity=88 time=0
control_change channel=10 control=11 value=124 time=84
control_change channel=10 control=11 value=121 time=84
control_change channel=10 control=11 value=119 time=108
note_off channel=10 note=74 velocity=64 time=32
note_on channel=10 note=68 velocity=88 time=12
control_change channel=10 control=11 value=116 time=4
control_change channel=10 control=11 value=114 time=108
control_change channel=10 control=11 value=111 time=48
control_change channel=10 control=11 value=109 time=108
control_change channel=10 control=11 value=106 time=60
control_change channel=10 control=11 value=104 time=108
control_change channel=10 control=11 value=101 time=48
note_off channel=10 note=68 velocity=64 time=108
control_change channel=10 control=11 value=99 time=0
control_change channel=10 control=11 value=96 time=48
control_change channel=10 control=11 value=127 time=0
control_change channel=10 control=11 value=127 time=12
note_on channel=10 note=67 velocity=81 time=15668
note_off channel=10 note=67 velocity=64 time=168
note_on channel=10 note=69 velocity=81 time=312
note_off channel=10 note=69 velocity=64 time=136
note_on channel=10 note=70 velocity=81 time=24
note_off channel=10 note=70 velocity=64 time=168
note_on channel=10 note=70 velocity=81 time=312
note_off channel=10 note=70 velocity=64 time=168
control_change channel=10 control=93 value=30 time=312
note_on channel=10 note=73 velocity=81 time=0
note_off channel=10 note=73 velocity=64 time=444
note_on channel=10 note=73 velocity=81 time=36
note_off channel=10 note=73 velocity=64 time=296
note_on channel=10 note=75 velocity=81 time=24
note_off channel=10 note=75 velocity=64 time=136
note_on channel=10 note=65 velocity=81 time=824
note_off channel=10 note=65 velocity=64 time=604
note_on channel=10 note=69 velocity=81 time=36
note_off channel=10 note=69 velocity=64 time=296
note_on channel=10 note=65 velocity=69 time=24
note_off channel=10 note=65 velocity=64 time=136
note_on channel=10 note=72 velocity=81 time=24
note_off channel=10 note=72 velocity=64 time=284
note_on channel=10 note=72 velocity=81 time=36
note_off channel=10 note=72 velocity=64 time=168
note_on channel=10 note=72 velocity=81 time=312
note_off channel=10 note=72 velocity=64 time=604
note_on channel=10 note=75 velocity=81 time=36
note_off channel=10 note=75 velocity=64 time=296
note_on channel=10 note=75 velocity=81 time=24
note_off channel=10 note=75 velocity=64 time=124
note_on channel=10 note=71 velocity=81 time=1316
note_off channel=10 note=71 velocity=64 time=568
note_on channel=10 note=71 velocity=81 time=72
note_off channel=10 note=71 velocity=64 time=156
note_on channel=10 note=65 velocity=81 time=324
note_off channel=10 note=65 velocity=64 time=156
note_on channel=10 note=72 velocity=81 time=324
note_off channel=10 note=72 velocity=64 time=782
note_on channel=10 note=73 velocity=81 time=18
note_off channel=10 note=73 velocity=64 time=1060
control_change channel=10 control=0 value=56 time=7740
control_change channel=10 control=32 value=0 time=0
program_change channel=10 program=59 time=0
note_on channel=10 note=68 velocity=45 time=2720
control_change channel=10 control=11 value=127 time=1120
control_change channel=10 control=11 value=125 time=120
control_change channel=10 control=11 value=124 time=120
control_change channel=10 control=11 value=123 time=120
control_change channel=10 control=11 value=121 time=120
control_change channel=10 control=11 value=120 time=120
control_change channel=10 control=11 value=119 time=120
control_change channel=10 control=11 value=118 time=120
control_change channel=10 control=11 value=116 time=120
control_change channel=10 control=11 value=115 time=120
control_change channel=10 control=11 value=114 time=120
control_change channel=10 control=11 value=113 time=120
control_change channel=10 control=11 value=111 time=120
control_change channel=10 control=11 value=110 time=120
control_change channel=10 control=11 value=109 time=120
control_change channel=10 control=11 value=108 time=120
control_change channel=10 control=11 value=106 time=120
control_change channel=10 control=11 value=105 time=120
control_change channel=10 control=11 value=104 time=120
control_change channel=10 control=11 value=103 time=120
control_change channel=10 control=11 value=101 time=120
control_change channel=10 control=11 value=100 time=120
control_change channel=10 control=11 value=99 time=120
control_change channel=10 control=11 value=98 time=120
note_off channel=10 note=68 velocity=64 time=96
<meta message end_of_track time=0>
<meta message text text='Trumpet 4' time=0>
control_change channel=11 control=11 value=127 time=0
control_change channel=11 control=7 value=106 time=0
control_change channel=11 control=10 value=44 time=0
control_change channel=11 control=91 value=81 time=0
control_change channel=11 control=93 value=25 time=0
control_change channel=11 control=0 value=56 time=0
control_change channel=11 control=32 value=0 time=0
program_change channel=11 program=56 time=0
note_on channel=11 note=68 velocity=94 time=13760
note_off channel=11 note=68 velocity=64 time=580
note_on channel=11 note=69 velocity=94 time=60
note_off channel=11 note=69 velocity=64 time=168
note_on channel=11 note=62 velocity=94 time=312
note_off channel=11 note=62 velocity=64 time=168
note_on channel=11 note=68 velocity=94 time=312
note_off channel=11 note=68 velocity=64 time=764
note_on channel=11 note=69 velocity=94 time=36
note_off channel=11 note=69 velocity=64 time=592
note_on channel=11 note=64 velocity=94 time=48
note_off channel=11 note=64 velocity=64 time=272
note_on channel=11 note=67 velocity=94 time=48
note_off channel=11 note=67 velocity=64 time=124
note_on channel=11 note=55 velocity=50 time=19556
note_off channel=11 note=55 velocity=64 time=124
note_on channel=11 note=64 velocity=55 time=36
note_off channel=11 note=64 velocity=64 time=132
note_on channel=11 note=65 velocity=50 time=348
note_off channel=11 note=65 velocity=64 time=294
control_change channel=11 control=11 value=109 time=26
note_on channel=11 note=67 velocity=58 time=0
control_change channel=11 control=11 value=110 time=100
control_change channel=11 control=11 value=111 time=100
control_change channel=11 control=11 value=113 time=100
control_change channel=11 control=11 value=114 time=100
control_change channel=11 control=11 value=115 time=100
control_change channel=11 control=11 value=116 time=100
note_off channel=11 note=67 velocity=64 time=12
note_on channel=11 note=69 velocity=58 time=28
control_change channel=11 control=11 value=118 time=60
control_change channel=11 control=11 value=119 time=100
control_change channel=11 control=11 value=120 time=100
control_change channel=11 control=11 value=121 time=100
control_change channel=11 control=11 value=123 time=100
control_change channel=11 control=11 value=124 time=100
control_change channel=11 control=11 value=125 time=100
control_change channel=11 control=11 value=127 time=60
note_off channel=11 note=69 velocity=64 time=32
note_on channel=11 note=65 velocity=60 time=48
note_off channel=11 note=65 velocity=64 time=112
note_on channel=11 note=65 velocity=55 time=368
note_off channel=11 note=65 velocity=64 time=144
note_on channel=11 note=65 velocity=50 time=336
note_off channel=11 note=65 velocity=64 time=136
note_on channel=11 note=59 velocity=55 time=24
note_off channel=11 note=59 velocity=64 time=284
note_on channel=11 note=59 velocity=50 time=36
note_off channel=11 note=59 velocity=64 time=136
note_on channel=11 note=57 velocity=55 time=24
note_off channel=11 note=57 velocity=64 time=120
note_on channel=11 note=60 velocity=55 time=360
note_off channel=11 note=60 velocity=64 time=284
note_on channel=11 note=67 velocity=55 time=36
note_off channel=11 note=67 velocity=64 time=120
note_on channel=11 note=60 velocity=55 time=360
control_change channel=11 control=11 value=127 time=232
control_change channel=11 control=11 value=120 time=24
control_change channel=11 control=11 value=114 time=24
control_change channel=11 control=11 value=108 time=24
control_change channel=11 control=11 value=101 time=24
control_change channel=11 control=11 value=94 time=24
control_change channel=11 control=11 value=96 time=120
control_change channel=11 control=11 value=99 time=120
control_change channel=11 control=11 value=101 time=120
control_change channel=11 control=11 value=104 time=120
control_change channel=11 control=11 value=106 time=120
control_change channel=11 control=11 value=109 time=120
control_change channel=11 control=11 value=111 time=120
control_change channel=11 control=11 value=114 time=120
control_change channel=11 control=11 value=116 time=120
control_change channel=11 control=11 value=119 time=120
control_change channel=11 control=11 value=121 time=120
control_change channel=11 control=11 value=124 time=120
control_change channel=11 control=11 value=127 time=120
note_off channel=11 note=60 velocity=64 time=120
note_on channel=11 note=58 velocity=56 time=1008
note_off channel=11 note=58 velocity=64 time=284
note_on channel=11 note=62 velocity=59 time=36
note_off channel=11 note=62 velocity=64 time=108
note_on channel=11 note=65 velocity=65 time=372
note_off channel=11 note=65 velocity=64 time=592
note_on channel=11 note=64 velocity=60 time=48
note_off channel=11 note=64 velocity=64 time=296
note_on channel=11 note=62 velocity=50 time=24
note_off channel=11 note=62 velocity=64 time=134
note_on channel=11 note=60 velocity=55 time=26
note_off channel=11 note=60 velocity=64 time=284
note_on channel=11 note=61 velocity=55 time=36
note_off channel=11 note=61 velocity=64 time=120
note_on channel=11 note=61 velocity=56 time=360
control_change channel=11 control=11 value=127 time=232
control_change channel=11 control=11 value=120 time=24
control_change channel=11 control=11 value=114 time=24
control_change channel=11 control=11 value=108 time=24
control_change channel=11 control=11 value=101 time=24
control_change channel=11 control=11 value=95 time=24
control_change channel=11 control=11 value=95 time=0
control_change channel=11 control=11 value=96 time=120
control_change channel=11 control=11 value=98 time=120
control_change channel=11 control=11 value=99 time=120
control_change channel=11 control=11 value=100 time=120
control_change channel=11 control=11 value=101 time=120
control_change channel=11 control=11 value=103 time=120
control_change channel=11 control=11 value=104 time=120
control_change channel=11 control=11 value=105 time=120
control_change channel=11 control=11 value=106 time=120
control_change channel=11 control=11 value=108 time=120
control_change channel=11 control=11 value=109 time=120
control_change channel=11 control=11 value=110 time=120
control_change channel=11 control=11 value=111 time=120
control_change channel=11 control=11 value=113 time=120
note_off channel=11 note=61 velocity=64 time=32
note_on channel=11 note=60 velocity=51 time=16
control_change channel=11 control=11 value=114 time=72
control_change channel=11 control=11 value=115 time=120
control_change channel=11 control=11 value=116 time=120
control_change channel=11 control=11 value=118 time=120
control_change channel=11 control=11 value=119 time=120
control_change channel=11 control=11 value=120 time=120
control_change channel=11 control=11 value=121 time=120
control_change channel=11 control=11 value=123 time=120
control_change channel=11 control=11 value=124 time=120
control_change channel=11 control=11 value=125 time=120
control_change channel=11 control=11 value=127 time=48
note_off channel=11 note=60 velocity=64 time=180
note_on channel=11 note=60 velocity=59 time=60
note_off channel=11 note=60 velocity=64 time=284
note_on channel=11 note=59 velocity=60 time=36
note_off channel=11 note=59 velocity=64 time=112
note_on channel=11 note=62 velocity=69 time=3248
note_off channel=11 note=62 velocity=64 time=136
note_on channel=11 note=60 velocity=66 time=24
note_off channel=11 note=60 velocity=64 time=296
note_on channel=11 note=57 velocity=57 time=24
note_off channel=11 note=57 velocity=64 time=136
note_on channel=11 note=62 velocity=69 time=3224
note_off channel=11 note=62 velocity=64 time=136
note_on channel=11 note=60 velocity=66 time=24
note_off channel=11 note=60 velocity=64 time=296
note_on channel=11 note=57 velocity=57 time=24
note_off channel=11 note=57 velocity=64 time=136
note_on channel=11 note=55 velocity=62 time=8024
note_off channel=11 note=55 velocity=64 time=136
note_on channel=11 note=64 velocity=69 time=24
note_off channel=11 note=64 velocity=64 time=144
note_on channel=11 note=65 velocity=75 time=336
note_off channel=11 note=65 velocity=64 time=296
note_on channel=11 note=67 velocity=62 time=24
note_off channel=11 note=67 velocity=64 time=136
note_on channel=11 note=70 velocity=72 time=24
note_off channel=11 note=70 velocity=64 time=296
note_on channel=11 note=70 velocity=81 time=24
note_off channel=11 note=70 velocity=64 time=604
note_on channel=11 note=67 velocity=71 time=36
note_off channel=11 note=67 velocity=64 time=308
note_on channel=11 note=67 velocity=77 time=12
control_change channel=11 control=11 value=127 time=16
control_change channel=11 control=11 value=125 time=120
control_change channel=11 control=11 value=123 time=120
control_change channel=11 control=11 value=121 time=120
control_change channel=11 control=11 value=119 time=120
control_change channel=11 control=11 value=118 time=120
control_change channel=11 control=11 value=115 time=96
control_change channel=11 control=11 value=114 time=120
control_change channel=11 control=11 value=111 time=120
note_off channel=11 note=67 velocity=64 time=120
control_change channel=11 control=11 value=110 time=0
control_change channel=11 control=11 value=109 time=24
control_change channel=11 control=11 value=127 time=24
note_on channel=11 note=57 velocity=62 time=320
note_off channel=11 note=57 velocity=64 time=136
note_on channel=11 note=59 velocity=69 time=24
note_off channel=11 note=59 velocity=64 time=144
note_on channel=11 note=61 velocity=76 time=336
note_off channel=11 note=61 velocity=64 time=296
note_on channel=11 note=61 velocity=62 time=24
note_off channel=11 note=61 velocity=64 time=136
note_on channel=11 note=64 velocity=72 time=24
note_off channel=11 note=64 velocity=64 time=296
note_on channel=11 note=67 velocity=81 time=24
note_off channel=11 note=67 velocity=64 time=604
note_on channel=11 note=63 velocity=72 time=36
note_off channel=11 note=63 velocity=64 time=308
note_on channel=11 note=63 velocity=77 time=12
control_change channel=11 control=11 value=127 time=16
control_change channel=11 control=11 value=125 time=120
control_change channel=11 control=11 value=123 time=120
control_change channel=11 control=11 value=121 time=120
control_change channel=11 control=11 value=119 time=120
control_change channel=11 control=11 value=118 time=120
control_change channel=11 control=11 value=115 time=96
control_change channel=11 control=11 value=114 time=120
control_change channel=11 control=11 value=111 time=120
note_off channel=11 note=63 velocity=64 time=120
control_change channel=11 control=11 value=110 time=0
control_change channel=11 control=11 value=109 time=24
control_change channel=11 control=11 value=127 time=24
note_on channel=11 note=60 velocity=69 time=7040
note_off channel=11 note=60 velocity=64 time=580
note_on channel=11 note=59 velocity=69 time=60
note_off channel=11 note=59 velocity=64 time=144
note_on channel=11 note=59 velocity=69 time=336
note_off channel=11 note=59 velocity=64 time=296
note_on channel=11 note=59 velocity=69 time=24
note_off channel=11 note=59 velocity=64 time=136
note_on channel=11 note=59 velocity=62 time=24
note_off channel=11 note=59 velocity=64 time=56
note_on channel=11 note=59 velocity=69 time=24
note_off channel=11 note=59 velocity=64 time=68
note_on channel=11 note=59 velocity=69 time=332
note_off channel=11 note=59 velocity=64 time=308
control_change channel=11 control=11 value=104 time=12
note_on channel=11 note=58 velocity=75 time=0
control_change channel=11 control=11 value=105 time=100
control_change channel=11 control=11 value=108 time=80
control_change channel=11 control=11 value=109 time=100
control_change channel=11 control=11 value=111 time=100
control_change channel=11 control=11 value=114 time=90
control_change channel=11 control=11 value=115 time=100
control_change channel=11 control=11 value=118 time=70
control_change channel=11 control=11 value=119 time=100
control_change channel=11 control=11 value=121 time=100
control_change channel=11 control=11 value=124 time=90
control_change channel=11 control=11 value=125 time=100
control_change channel=11 control=11 value=127 time=10
note_off channel=11 note=58 velocity=64 time=80
note_on channel=11 note=60 velocity=76 time=320
note_on channel=11 note=59 velocity=40 time=112
note_on channel=11 note=58 velocity=28 time=40
note_off channel=11 note=60 velocity=64 time=4
note_off channel=11 note=59 velocity=64 time=8
note_on channel=11 note=57 velocity=17 time=28
note_off channel=11 note=58 velocity=64 time=12
note_off channel=11 note=57 velocity=64 time=40
note_on channel=11 note=62 velocity=75 time=236
note_off channel=11 note=62 velocity=64 time=592
note_on channel=11 note=62 velocity=69 time=48
note_off channel=11 note=62 velocity=64 time=296
note_on channel=11 note=60 velocity=57 time=24
note_off channel=11 note=60 velocity=64 time=136
note_on channel=11 note=64 velocity=69 time=24
note_off channel=11 note=64 velocity=64 time=284
note_on channel=11 note=61 velocity=69 time=36
note_off channel=11 note=61 velocity=64 time=156
note_on channel=11 note=64 velocity=69 time=324
control_change channel=11 control=11 value=127 time=160
control_change channel=11 control=11 value=125 time=120
control_change channel=11 control=11 value=123 time=120
control_change channel=11 control=11 value=121 time=120
control_change channel=11 control=11 value=119 time=120
control_change channel=11 control=11 value=118 time=120
control_change channel=11 control=11 value=115 time=120
control_change channel=11 control=11 value=114 time=120
control_change channel=11 control=11 value=111 time=120
control_change channel=11 control=11 value=110 time=120
control_change channel=11 control=11 value=108 time=120
control_change channel=11 control=11 value=106 time=120
control_change channel=11 control=11 value=104 time=120
control_change channel=11 control=11 value=103 time=120
control_change channel=11 control=11 value=100 time=120
control_change channel=11 control=11 value=99 time=120
note_off channel=11 note=64 velocity=64 time=60
control_change channel=11 control=11 value=96 time=36
control_change channel=11 control=11 value=127 time=24
note_on channel=11 note=61 velocity=75 time=320
note_on channel=11 note=60 velocity=30 time=112
note_on channel=11 note=59 velocity=20 time=40
note_off channel=11 note=61 velocity=64 time=4
note_off channel=11 note=60 velocity=64 time=8
note_off channel=11 note=59 velocity=64 time=40
note_on channel=11 note=64 velocity=75 time=276
note_off channel=11 note=64 velocity=64 time=580
note_on channel=11 note=62 velocity=75 time=60
note_off channel=11 note=62 velocity=64 time=168
note_on channel=11 note=61 velocity=74 time=632
note_on channel=11 note=60 velocity=32 time=112
note_on channel=11 note=59 velocity=23 time=40
note_off channel=11 note=61 velocity=64 time=4
note_off channel=11 note=60 velocity=64 time=8
note_off channel=11 note=59 velocity=64 time=40
note_on channel=11 note=62 velocity=75 time=276
note_off channel=11 note=62 velocity=64 time=580
note_on channel=11 note=60 velocity=75 time=60
note_off channel=11 note=60 velocity=64 time=168
note_on channel=11 note=58 velocity=69 time=632
note_off channel=11 note=58 velocity=64 time=444
note_on channel=11 note=60 velocity=71 time=36
note_off channel=11 note=60 velocity=64 time=444
note_on channel=11 note=63 velocity=74 time=36
note_off channel=11 note=63 velocity=64 time=444
note_on channel=11 note=60 velocity=66 time=36
note_off channel=11 note=60 velocity=64 time=136
note_on channel=11 note=63 velocity=79 time=24
note_off channel=11 note=63 velocity=64 time=148
note_on channel=11 note=60 velocity=65 time=12
note_off channel=11 note=60 velocity=64 time=148
note_on channel=11 note=67 velocity=80 time=12
note_off channel=11 note=67 velocity=64 time=924
note_on channel=11 note=61 velocity=75 time=36
note_off channel=11 note=61 velocity=64 time=604
note_on channel=11 note=55 velocity=69 time=36
note_off channel=11 note=55 velocity=64 time=284
note_on channel=11 note=55 velocity=70 time=36
note_off channel=11 note=55 velocity=64 time=124
note_on channel=11 note=69 velocity=81 time=15236
note_off channel=11 note=69 velocity=64 time=604
note_on channel=11 note=64 velocity=81 time=36
note_off channel=11 note=64 velocity=64 time=296
note_on channel=11 note=65 velocity=81 time=24
note_off channel=11 note=65 velocity=64 time=136
note_on channel=11 note=69 velocity=81 time=824
note_off channel=11 note=69 velocity=64 time=604
note_on channel=11 note=63 velocity=81 time=36
note_off channel=11 note=63 velocity=64 time=296
note_on channel=11 note=60 velocity=81 time=24
note_off channel=11 note=60 velocity=64 time=136
note_on channel=11 note=69 velocity=81 time=824
note_off channel=11 note=69 velocity=64 time=604
note_on channel=11 note=64 velocity=81 time=36
note_off channel=11 note=64 velocity=64 time=296
note_on channel=11 note=65 velocity=81 time=24
note_off channel=11 note=65 velocity=64 time=136
note_on channel=11 note=69 velocity=81 time=824
note_off channel=11 note=69 velocity=64 time=604
note_on channel=11 note=63 velocity=81 time=36
note_off channel=11 note=63 velocity=64 time=296
note_on channel=11 note=64 velocity=81 time=24
note_off channel=11 note=64 velocity=64 time=136
note_on channel=11 note=69 velocity=81 time=824
note_off channel=11 note=69 velocity=64 time=580
note_on channel=11 note=69 velocity=81 time=60
note_off channel=11 note=69 velocity=64 time=168
note_on channel=11 note=69 velocity=81 time=312
note_off channel=11 note=69 velocity=64 time=168
note_on channel=11 note=69 velocity=81 time=312
note_off channel=11 note=69 velocity=64 time=296
note_on channel=11 note=72 velocity=69 time=24
note_off channel=11 note=72 velocity=64 time=148
note_on channel=11 note=69 velocity=81 time=12
note_off channel=11 note=69 velocity=64 time=311
note_on channel=11 note=69 velocity=81 time=9
pitchwheel channel=11 pitch=0 time=16
control_change channel=11 control=11 value=127 time=0
pitchwheel channel=11 pitch=242 time=24
control_change channel=11 control=11 value=124 time=72
control_change channel=11 control=11 value=121 time=96
pitchwheel channel=11 pitch=0 time=72
control_change channel=11 control=11 value=119 time=48
control_change channel=11 control=11 value=116 time=48
pitchwheel channel=11 pitch=-82 time=96
control_change channel=11 control=11 value=114 time=24
control_change channel=11 control=11 value=111 time=72
pitchwheel channel=11 pitch=-244 time=24
pitchwheel channel=11 pitch=-407 time=96
control_change channel=11 control=11 value=109 time=0
control_change channel=11 control=11 value=106 time=48
pitchwheel channel=11 pitch=-569 time=24
pitchwheel channel=11 pitch=-731 time=72
control_change channel=11 control=11 value=104 time=24
pitchwheel channel=11 pitch=-893 time=24
pitchwheel channel=11 pitch=-1055 time=48
control_change channel=11 control=11 value=101 time=0
pitchwheel channel=11 pitch=-1218 time=48
pitchwheel channel=11 pitch=-1380 time=24
pitchwheel channel=11 pitch=-1542 time=24
pitchwheel channel=11 pitch=-1704 time=24
control_change channel=11 control=11 value=99 time=0
note_off channel=11 note=69 velocity=64 time=24
pitchwheel channel=11 pitch=-2029 time=0
control_change channel=11 control=11 value=96 time=24
control_change channel=11 control=11 value=127 time=0
control_change channel=11 control=11 value=127 time=24
pitchwheel channel=11 pitch=0 time=0
note_on channel=11 note=67 velocity=81 time=320
note_on channel=11 note=66 velocity=30 time=112
note_on channel=11 note=65 velocity=20 time=40
note_off channel=11 note=67 velocity=64 time=8
note_off channel=11 note=66 velocity=64 time=4
note_off channel=11 note=65 velocity=64 time=40
note_on channel=11 note=67 velocity=81 time=436
note_off channel=11 note=67 velocity=64 time=168
note_on channel=11 note=67 velocity=81 time=312
note_off channel=11 note=67 velocity=64 time=168
note_on channel=11 note=68 velocity=81 time=792
note_off channel=11 note=68 velocity=64 time=296
note_on channel=11 note=68 velocity=81 time=24
note_off channel=11 note=68 velocity=64 time=192
note_on channel=11 note=65 velocity=69 time=288
note_off channel=11 note=65 velocity=64 time=148
note_on channel=11 note=68 velocity=81 time=12
note_off channel=11 note=68 velocity=64 time=308
note_on channel=11 note=68 velocity=75 time=12
note_off channel=11 note=68 velocity=64 time=136
note_on channel=11 note=69 velocity=81 time=24
note_off channel=11 note=69 velocity=64 time=296
note_on channel=11 note=65 velocity=81 time=24
note_off channel=11 note=65 velocity=64 time=136
note_on channel=11 note=65 velocity=81 time=1944
note_off channel=11 note=65 velocity=64 time=168
note_on channel=11 note=64 velocity=81 time=312
note_off channel=11 note=64 velocity=64 time=296
note_on channel=11 note=65 velocity=81 time=24
note_off channel=11 note=65 velocity=64 time=180
note_on channel=11 note=72 velocity=81 time=300
note_on channel=11 note=74 velocity=59 time=1440
note_off channel=11 note=72 velocity=64 time=16
note_on channel=11 note=73 velocity=70 time=64
note_off channel=11 note=74 velocity=64 time=24
note_on channel=11 note=69 velocity=81 time=56
note_off channel=11 note=73 velocity=64 time=24
note_off channel=11 note=69 velocity=64 time=284
note_on channel=11 note=64 velocity=81 time=12
pitchwheel channel=11 pitch=0 time=160
control_change channel=11 control=11 value=127 time=0
pitchwheel channel=11 pitch=242 time=12
control_change channel=11 control=11 value=124 time=72
control_change channel=11 control=11 value=121 time=72
pitchwheel channel=11 pitch=0 time=48
control_change channel=11 control=11 value=119 time=60
control_change channel=11 control=11 value=116 time=48
pitchwheel channel=11 pitch=-82 time=36
control_change channel=11 control=11 value=114 time=72
pitchwheel channel=11 pitch=-244 time=24
control_change channel=11 control=11 value=111 time=24
pitchwheel channel=11 pitch=-407 time=48
pitchwheel channel=11 pitch=-569 time=60
control_change channel=11 control=11 value=109 time=0
control_change channel=11 control=11 value=106 time=48
pitchwheel channel=11 pitch=-731 time=12
pitchwheel channel=11 pitch=-893 time=36
pitchwheel channel=11 pitch=-1055 time=48
control_change channel=11 control=11 value=104 time=12
pitchwheel channel=11 pitch=-1218 time=24
pitchwheel channel=11 pitch=-1380 time=24
control_change channel=11 control=11 value=101 time=0
pitchwheel channel=11 pitch=-1542 time=36
pitchwheel channel=11 pitch=-1704 time=24
pitchwheel channel=11 pitch=-1866 time=12
pitchwheel channel=11 pitch=-2029 time=24
pitchwheel channel=11 pitch=-2191 time=12
control_change channel=11 control=11 value=99 time=0
pitchwheel channel=11 pitch=-2353 time=12
note_off channel=11 note=64 velocity=64 time=12
pitchwheel channel=11 pitch=-2515 time=0
pitchwheel channel=11 pitch=-2840 time=12
control_change channel=11 control=11 value=96 time=12
control_change channel=11 control=11 value=127 time=24
pitchwheel channel=11 pitch=0 time=0
note_on channel=11 note=67 velocity=81 time=1280
note_off channel=11 note=67 velocity=64 time=604
note_on channel=11 note=69 velocity=81 time=36
note_off channel=11 note=69 velocity=64 time=180
note_on channel=11 note=70 velocity=81 time=300
note_off channel=11 note=70 velocity=64 time=296
note_on channel=11 note=69 velocity=81 time=24
note_off channel=11 note=69 velocity=64 time=136
note_on channel=11 note=69 velocity=81 time=344
note_off channel=11 note=69 velocity=64 time=180
note_on channel=11 note=67 velocity=75 time=300
note_off channel=11 note=67 velocity=64 time=148
note_on channel=11 note=65 velocity=81 time=12
note_off channel=11 note=65 velocity=64 time=456
note_on channel=11 note=64 velocity=81 time=24
note_off channel=11 note=64 velocity=64 time=156
note_on channel=11 note=74 velocity=88 time=804
note_off channel=11 note=74 velocity=64 time=912
note_on channel=11 note=72 velocity=81 time=48
note_off channel=11 note=72 velocity=64 time=180
control_change channel=11 control=11 value=104 time=300
note_on channel=11 note=70 velocity=88 time=0
control_change channel=11 control=11 value=106 time=108
control_change channel=11 control=11 value=109 time=108
note_off channel=11 note=70 velocity=64 time=92
note_on channel=11 note=72 velocity=88 time=12
control_change channel=11 control=11 value=111 time=4
control_change channel=11 control=11 value=114 time=108
control_change channel=11 control=11 value=116 time=108
control_change channel=11 control=11 value=119 time=108
control_change channel=11 control=11 value=121 time=108
control_change channel=11 control=11 value=124 time=108
note_off channel=11 note=72 velocity=64 time=60
control_change channel=11 control=11 value=127 time=36
control_change channel=11 control=11 value=127 time=0
note_on channel=11 note=69 velocity=88 time=0
control_change channel=11 control=11 value=124 time=84
control_change channel=11 control=11 value=121 time=84
control_change channel=11 control=11 value=119 time=108
note_off channel=11 note=69 velocity=64 time=32
note_on channel=11 note=63 velocity=88 time=12
control_change channel=11 control=11 value=116 time=4
control_change channel=11 control=11 value=114 time=108
control_change channel=11 control=11 value=111 time=48
control_change channel=11 control=11 value=109 time=108
control_change channel=11 control=11 value=106 time=60
control_change channel=11 control=11 value=104 time=108
control_change channel=11 control=11 value=101 time=48
note_off channel=11 note=63 velocity=64 time=108
control_change channel=11 control=11 value=99 time=0
control_change channel=11 control=11 value=96 time=48
control_change channel=11 control=11 value=127 time=0
control_change channel=11 control=11 value=127 time=12
note_on channel=11 note=62 velocity=69 time=3188
note_off channel=11 note=62 velocity=64 time=136
note_on channel=11 note=60 velocity=66 time=24
note_off channel=11 note=60 velocity=64 time=296
note_on channel=11 note=57 velocity=57 time=24
note_off channel=11 note=57 velocity=64 time=136
note_on channel=11 note=62 velocity=69 time=3224
note_off channel=11 note=62 velocity=64 time=136
note_on channel=11 note=60 velocity=66 time=24
note_off channel=11 note=60 velocity=64 time=296
note_on channel=11 note=57 velocity=57 time=24
note_off channel=11 note=57 velocity=64 time=136
note_on channel=11 note=65 velocity=81 time=8024
note_off channel=11 note=65 velocity=64 time=168
note_on channel=11 note=67 velocity=81 time=312
note_off channel=11 note=67 velocity=64 time=136
note_on channel=11 note=67 velocity=81 time=24
note_off channel=11 note=67 velocity=64 time=168
note_on channel=11 note=67 velocity=81 time=312
note_off channel=11 note=67 velocity=64 time=168
control_change channel=11 control=93 value=30 time=312
note_on channel=11 note=68 velocity=81 time=0
note_off channel=11 note=68 velocity=64 time=444
note_on channel=11 note=70 velocity=81 time=36
note_off channel=11 note=70 velocity=64 time=296
note_on channel=11 note=72 velocity=81 time=24
note_off channel=11 note=72 velocity=64 time=136
note_on channel=11 note=62 velocity=81 time=824
note_off channel=11 note=62 velocity=64 time=604
note_on channel=11 note=65 velocity=81 time=36
note_off channel=11 note=65 velocity=64 time=296
note_on channel=11 note=62 velocity=69 time=24
note_off channel=11 note=62 velocity=64 time=136
note_on channel=11 note=69 velocity=81 time=24
note_off channel=11 note=69 velocity=64 time=284
note_on channel=11 note=69 velocity=81 time=36
note_off channel=11 note=69 velocity=64 time=168
note_on channel=11 note=69 velocity=81 time=312
note_off channel=11 note=69 velocity=64 time=604
note_on channel=11 note=72 velocity=81 time=36
note_off channel=11 note=72 velocity=64 time=296
note_on channel=11 note=70 velocity=81 time=24
note_off channel=11 note=70 velocity=64 time=124
note_on channel=11 note=68 velocity=81 time=1316
note_off channel=11 note=68 velocity=64 time=568
note_on channel=11 note=69 velocity=81 time=72
note_off channel=11 note=69 velocity=64 time=156
note_on channel=11 note=62 velocity=81 time=324
note_off channel=11 note=62 velocity=64 time=156
note_on channel=11 note=68 velocity=81 time=324
note_off channel=11 note=68 velocity=64 time=782
note_on channel=11 note=69 velocity=81 time=18
note_off channel=11 note=69 velocity=64 time=1060
control_change channel=11 control=0 value=56 time=7740
control_change channel=11 control=32 value=0 time=0
program_change channel=11 program=59 time=0
note_on channel=11 note=65 velocity=45 time=2720
control_change channel=11 control=11 value=127 time=1120
control_change channel=11 control=11 value=125 time=120
control_change channel=11 control=11 value=124 time=120
control_change channel=11 control=11 value=123 time=120
control_change channel=11 control=11 value=121 time=120
control_change channel=11 control=11 value=120 time=120
control_change channel=11 control=11 value=119 time=120
control_change channel=11 control=11 value=118 time=120
control_change channel=11 control=11 value=116 time=120
control_change channel=11 control=11 value=115 time=120
control_change channel=11 control=11 value=114 time=120
control_change channel=11 control=11 value=113 time=120
control_change channel=11 control=11 value=111 time=120
control_change channel=11 control=11 value=110 time=120
control_change channel=11 control=11 value=109 time=120
control_change channel=11 control=11 value=108 time=120
control_change channel=11 control=11 value=106 time=120
control_change channel=11 control=11 value=105 time=120
control_change channel=11 control=11 value=104 time=120
control_change channel=11 control=11 value=103 time=120
control_change channel=11 control=11 value=101 time=120
control_change channel=11 control=11 value=100 time=120
control_change channel=11 control=11 value=99 time=120
control_change channel=11 control=11 value=98 time=120
note_off channel=11 note=65 velocity=64 time=96
<meta message end_of_track time=0>
<meta message text text='Trombone 1' time=0>
control_change channel=12 control=11 value=127 time=0
control_change channel=12 control=7 value=106 time=0
control_change channel=12 control=10 value=84 time=0
control_change channel=12 control=91 value=94 time=0
control_change channel=12 control=93 value=30 time=0
control_change channel=12 control=0 value=56 time=0
control_change channel=12 control=32 value=0 time=0
program_change channel=12 program=57 time=0
note_on channel=12 note=68 velocity=69 time=9920
note_off channel=12 note=68 velocity=64 time=580
note_on channel=12 note=69 velocity=70 time=60
note_off channel=12 note=69 velocity=64 time=168
note_on channel=12 note=62 velocity=72 time=312
note_off channel=12 note=62 velocity=64 time=168
note_on channel=12 note=68 velocity=74 time=312
note_off channel=12 note=68 velocity=64 time=764
note_on channel=12 note=69 velocity=76 time=36
note_off channel=12 note=69 velocity=64 time=1072
note_on channel=12 note=63 velocity=81 time=368
note_off channel=12 note=63 velocity=64 time=580
note_on channel=12 note=64 velocity=84 time=60
note_off channel=12 note=64 velocity=64 time=168
note_on channel=12 note=62 velocity=85 time=312
note_off channel=12 note=62 velocity=64 time=168
note_on channel=12 note=63 velocity=88 time=312
note_off channel=12 note=63 velocity=64 time=764
note_on channel=12 note=62 velocity=90 time=36
note_off channel=12 note=62 velocity=64 time=592
note_on channel=12 note=62 velocity=93 time=48
note_off channel=12 note=62 velocity=64 time=272
note_on channel=12 note=62 velocity=93 time=48
note_off channel=12 note=62 velocity=64 time=124
note_on channel=12 note=53 velocity=50 time=19556
note_off channel=12 note=53 velocity=64 time=124
note_on channel=12 note=61 velocity=55 time=36
note_off channel=12 note=61 velocity=64 time=132
note_on channel=12 note=62 velocity=50 time=348
note_off channel=12 note=62 velocity=64 time=294
control_change channel=12 control=11 value=109 time=26
note_on channel=12 note=65 velocity=58 time=0
control_change channel=12 control=11 value=110 time=100
control_change channel=12 control=11 value=111 time=100
control_change channel=12 control=11 value=113 time=100
control_change channel=12 control=11 value=114 time=100
control_change channel=12 control=11 value=115 time=100
control_change channel=12 control=11 value=116 time=100
control_change channel=12 control=11 value=118 time=100
control_change channel=12 control=11 value=119 time=100
control_change channel=12 control=11 value=120 time=100
control_change channel=12 control=11 value=121 time=100
control_change channel=12 control=11 value=123 time=100
control_change channel=12 control=11 value=124 time=100
control_change channel=12 control=11 value=125 time=100
control_change channel=12 control=11 value=127 time=60
note_off channel=12 note=65 velocity=64 time=44
note_on channel=12 note=64 velocity=60 time=36
note_off channel=12 note=64 velocity=64 time=112
note_on channel=12 note=62 velocity=55 time=368
note_off channel=12 note=62 velocity=64 time=144
note_on channel=12 note=64 velocity=50 time=336
note_off channel=12 note=64 velocity=64 time=136
note_on channel=12 note=59 velocity=55 time=24
note_off channel=12 note=59 velocity=64 time=284
note_on channel=12 note=59 velocity=50 time=36
note_off channel=12 note=59 velocity=64 time=136
note_on channel=12 note=57 velocity=55 time=24
note_off channel=12 note=57 velocity=64 time=120
note_on channel=12 note=56 velocity=55 time=360
note_off channel=12 note=56 velocity=64 time=284
note_on channel=12 note=64 velocity=55 time=36
note_off channel=12 note=64 velocity=64 time=120
note_on channel=12 note=59 velocity=55 time=360
control_change channel=12 control=11 value=127 time=232
control_change channel=12 control=11 value=120 time=24
control_change channel=12 control=11 value=114 time=24
control_change channel=12 control=11 value=108 time=24
control_change channel=12 control=11 value=101 time=24
control_change channel=12 control=11 value=94 time=24
control_change channel=12 control=11 value=96 time=120
control_change channel=12 control=11 value=99 time=120
control_change channel=12 control=11 value=101 time=120
control_change channel=12 control=11 value=104 time=120
control_change channel=12 control=11 value=106 time=120
control_change channel=12 control=11 value=109 time=120
control_change channel=12 control=11 value=111 time=120
control_change channel=12 control=11 value=114 time=120
control_change channel=12 control=11 value=116 time=120
control_change channel=12 control=11 value=119 time=120
control_change channel=12 control=11 value=121 time=120
control_change channel=12 control=11 value=124 time=120
control_change channel=12 control=11 value=127 time=120
note_off channel=12 note=59 velocity=64 time=120
note_on channel=12 note=55 velocity=60 time=368
note_off channel=12 note=55 velocity=64 time=124
note_on channel=12 note=55 velocity=54 time=36
note_off channel=12 note=55 velocity=64 time=120
note_on channel=12 note=58 velocity=56 time=360
note_off channel=12 note=58 velocity=64 time=284
note_on channel=12 note=58 velocity=59 time=36
note_off channel=12 note=58 velocity=64 time=108
note_on channel=12 note=62 velocity=65 time=372
note_off channel=12 note=62 velocity=64 time=592
note_on channel=12 note=62 velocity=60 time=48
note_off channel=12 note=62 velocity=64 time=296
note_on channel=12 note=62 velocity=50 time=24
note_off channel=12 note=62 velocity=64 time=134
note_on channel=12 note=60 velocity=55 time=26
note_off channel=12 note=60 velocity=64 time=284
note_on channel=12 note=62 velocity=55 time=36
note_off channel=12 note=62 velocity=64 time=120
note_on channel=12 note=61 velocity=56 time=360
control_change channel=12 control=11 value=127 time=232
control_change channel=12 control=11 value=120 time=24
control_change channel=12 control=11 value=114 time=24
control_change channel=12 control=11 value=108 time=24
control_change channel=12 control=11 value=101 time=24
control_change channel=12 control=11 value=95 time=24
control_change channel=12 control=11 value=95 time=0
control_change channel=12 control=11 value=96 time=120
control_change channel=12 control=11 value=98 time=120
control_change channel=12 control=11 value=99 time=120
control_change channel=12 control=11 value=100 time=120
control_change channel=12 control=11 value=101 time=120
control_change channel=12 control=11 value=103 time=120
control_change channel=12 control=11 value=104 time=120
control_change channel=12 control=11 value=105 time=120
control_change channel=12 control=11 value=106 time=120
control_change channel=12 control=11 value=108 time=120
control_change channel=12 control=11 value=109 time=120
control_change channel=12 control=11 value=110 time=120
control_change channel=12 control=11 value=111 time=120
control_change channel=12 control=11 value=113 time=120
note_off channel=12 note=61 velocity=64 time=32
note_on channel=12 note=60 velocity=51 time=16
control_change channel=12 control=11 value=114 time=72
control_change channel=12 control=11 value=115 time=120
control_change channel=12 control=11 value=116 time=120
control_change channel=12 control=11 value=118 time=120
control_change channel=12 control=11 value=119 time=120
control_change channel=12 control=11 value=120 time=120
control_change channel=12 control=11 value=121 time=120
control_change channel=12 control=11 value=123 time=120
control_change channel=12 control=11 value=124 time=120
control_change channel=12 control=11 value=125 time=120
control_change channel=12 control=11 value=127 time=48
note_off channel=12 note=60 velocity=64 time=180
note_on channel=12 note=60 velocity=59 time=60
note_off channel=12 note=60 velocity=64 time=284
note_on channel=12 note=59 velocity=60 time=36
note_off channel=12 note=59 velocity=64 time=112
note_on channel=12 note=58 velocity=48 time=1808
control_change channel=12 control=11 value=127 time=232
control_change channel=12 control=11 value=121 time=24
control_change channel=12 control=11 value=115 time=24
control_change channel=12 control=11 value=109 time=24
control_change channel=12 control=11 value=103 time=24
control_change channel=12 control=11 value=96 time=24
control_change channel=12 control=11 value=90 time=24
control_change channel=12 control=11 value=84 time=24
control_change channel=12 control=11 value=84 time=24
control_change channel=12 control=11 value=86 time=120
control_change channel=12 control=11 value=89 time=48
control_change channel=12 control=11 value=93 time=120
control_change channel=12 control=11 value=95 time=120
control_change channel=12 control=11 value=98 time=48
control_change channel=12 control=11 value=101 time=120
control_change channel=12 control=11 value=104 time=96
control_change channel=12 control=11 value=108 time=120
control_change channel=12 control=11 value=111 time=120
control_change channel=12 control=11 value=114 time=72
control_change channel=12 control=11 value=116 time=120
control_change channel=12 control=11 value=119 time=48
control_change channel=12 control=11 value=123 time=120
control_change channel=12 control=11 value=127 time=120
note_off channel=12 note=58 velocity=64 time=80
note_on channel=12 note=57 velocity=60 time=24
note_off channel=12 note=57 velocity=64 time=136
note_on channel=12 note=60 velocity=60 time=1784
control_change channel=12 control=11 value=127 time=232
control_change channel=12 control=11 value=121 time=24
control_change channel=12 control=11 value=115 time=24
control_change channel=12 control=11 value=109 time=24
control_change channel=12 control=11 value=103 time=24
control_change channel=12 control=11 value=96 time=24
control_change channel=12 control=11 value=90 time=24
control_change channel=12 control=11 value=84 time=24
control_change channel=12 control=11 value=84 time=24
control_change channel=12 control=11 value=86 time=120
control_change channel=12 control=11 value=89 time=48
control_change channel=12 control=11 value=93 time=120
control_change channel=12 control=11 value=95 time=120
control_change channel=12 control=11 value=98 time=48
control_change channel=12 control=11 value=101 time=120
control_change channel=12 control=11 value=104 time=96
control_change channel=12 control=11 value=108 time=120
control_change channel=12 control=11 value=111 time=120
control_change channel=12 control=11 value=114 time=72
control_change channel=12 control=11 value=116 time=120
control_change channel=12 control=11 value=119 time=48
control_change channel=12 control=11 value=123 time=120
control_change channel=12 control=11 value=127 time=120
note_off channel=12 note=60 velocity=64 time=80
note_on channel=12 note=59 velocity=60 time=24
note_off channel=12 note=59 velocity=64 time=136
note_on channel=12 note=58 velocity=60 time=1784
control_change channel=12 control=11 value=127 time=232
control_change channel=12 control=11 value=121 time=24
control_change channel=12 control=11 value=115 time=24
control_change channel=12 control=11 value=109 time=24
control_change channel=12 control=11 value=103 time=24
control_change channel=12 control=11 value=96 time=24
control_change channel=12 control=11 value=90 time=24
control_change channel=12 control=11 value=84 time=24
control_change channel=12 control=11 value=84 time=24
control_change channel=12 control=11 value=86 time=120
control_change channel=12 control=11 value=89 time=48
control_change channel=12 control=11 value=93 time=120
control_change channel=12 control=11 value=95 time=120
control_change channel=12 control=11 value=98 time=48
control_change channel=12 control=11 value=101 time=120
control_change channel=12 control=11 value=104 time=96
control_change channel=12 control=11 value=108 time=120
control_change channel=12 control=11 value=111 time=120
control_change channel=12 control=11 value=114 time=72
control_change channel=12 control=11 value=116 time=120
control_change channel=12 control=11 value=119 time=48
control_change channel=12 control=11 value=123 time=120
control_change channel=12 control=11 value=127 time=120
note_off channel=12 note=58 velocity=64 time=80
control_change channel=12 control=93 value=60 time=184
note_on channel=12 note=62 velocity=75 time=320
note_off channel=12 note=62 velocity=64 time=580
note_on channel=12 note=60 velocity=75 time=60
note_off channel=12 note=60 velocity=64 time=144
note_on channel=12 note=55 velocity=75 time=336
note_off channel=12 note=55 velocity=64 time=144
note_on channel=12 note=59 velocity=75 time=336
note_off channel=12 note=59 velocity=64 time=444
note_on channel=12 note=60 velocity=75 time=36
note_off channel=12 note=60 velocity=64 time=284
note_on channel=12 note=62 velocity=75 time=36
note_off channel=12 note=62 velocity=64 time=124
note_on channel=12 note=60 velocity=75 time=380
note_off channel=12 note=60 velocity=64 time=556
control_change channel=12 control=93 value=30 time=60
note_on channel=12 note=53 velocity=62 time=320
note_off channel=12 note=53 velocity=64 time=136
note_on channel=12 note=61 velocity=69 time=24
note_off channel=12 note=61 velocity=64 time=144
note_on channel=12 note=62 velocity=75 time=336
note_off channel=12 note=62 velocity=64 time=296
note_on channel=12 note=65 velocity=62 time=24
note_off channel=12 note=65 velocity=64 time=136
note_on channel=12 note=67 velocity=72 time=24
note_off channel=12 note=67 velocity=64 time=296
note_on channel=12 note=68 velocity=81 time=24
note_off channel=12 note=68 velocity=64 time=604
note_on channel=12 note=67 velocity=71 time=36
note_off channel=12 note=67 velocity=64 time=308
note_on channel=12 note=65 velocity=77 time=12
control_change channel=12 control=11 value=127 time=16
control_change channel=12 control=11 value=125 time=120
control_change channel=12 control=11 value=123 time=120
control_change channel=12 control=11 value=121 time=120
control_change channel=12 control=11 value=119 time=120
control_change channel=12 control=11 value=118 time=120
control_change channel=12 control=11 value=115 time=96
control_change channel=12 control=11 value=114 time=120
control_change channel=12 control=11 value=111 time=120
note_off channel=12 note=65 velocity=64 time=120
control_change channel=12 control=11 value=110 time=0
control_change channel=12 control=11 value=109 time=24
control_change channel=12 control=11 value=127 time=24
note_on channel=12 note=57 velocity=62 time=320
note_off channel=12 note=57 velocity=64 time=136
note_on channel=12 note=56 velocity=69 time=24
note_off channel=12 note=56 velocity=64 time=144
note_on channel=12 note=57 velocity=76 time=336
note_off channel=12 note=57 velocity=64 time=296
note_on channel=12 note=60 velocity=62 time=24
note_off channel=12 note=60 velocity=64 time=136
note_on channel=12 note=62 velocity=72 time=24
note_off channel=12 note=62 velocity=64 time=296
note_on channel=12 note=63 velocity=81 time=24
note_off channel=12 note=63 velocity=64 time=604
note_on channel=12 note=62 velocity=72 time=36
note_off channel=12 note=62 velocity=64 time=308
note_on channel=12 note=60 velocity=77 time=12
control_change channel=12 control=11 value=127 time=16
control_change channel=12 control=11 value=125 time=120
control_change channel=12 control=11 value=123 time=120
control_change channel=12 control=11 value=121 time=120
control_change channel=12 control=11 value=119 time=120
control_change channel=12 control=11 value=118 time=120
control_change channel=12 control=11 value=115 time=96
control_change channel=12 control=11 value=114 time=120
control_change channel=12 control=11 value=111 time=120
note_off channel=12 note=60 velocity=64 time=120
control_change channel=12 control=11 value=110 time=0
control_change channel=12 control=11 value=109 time=24
control_change channel=12 control=11 value=127 time=24
note_on channel=12 note=58 velocity=62 time=1760
control_change channel=12 control=11 value=127 time=232
control_change channel=12 control=11 value=121 time=24
control_change channel=12 control=11 value=115 time=24
control_change channel=12 control=11 value=109 time=24
control_change channel=12 control=11 value=103 time=24
control_change channel=12 control=11 value=96 time=24
control_change channel=12 control=11 value=90 time=24
control_change channel=12 control=11 value=84 time=24
control_change channel=12 control=11 value=88 time=96
control_change channel=12 control=11 value=91 time=96
control_change channel=12 control=11 value=94 time=72
control_change channel=12 control=11 value=98 time=96
control_change channel=12 control=11 value=101 time=96
control_change channel=12 control=11 value=104 time=48
control_change channel=12 control=11 value=108 time=96
control_change channel=12 control=11 value=111 time=96
control_change channel=12 control=11 value=114 time=72
control_change channel=12 control=11 value=118 time=72
control_change channel=12 control=11 value=121 time=96
control_change channel=12 control=11 value=124 time=72
control_change channel=12 control=11 value=127 time=48
note_off channel=12 note=58 velocity=64 time=104
note_on channel=12 note=58 velocity=62 time=40
note_off channel=12 note=58 velocity=64 time=296
note_on channel=12 note=57 velocity=62 time=24
note_off channel=12 note=57 velocity=64 time=136
note_on channel=12 note=60 velocity=69 time=3224
note_off channel=12 note=60 velocity=64 time=580
note_on channel=12 note=59 velocity=69 time=60
note_off channel=12 note=59 velocity=64 time=144
note_on channel=12 note=59 velocity=69 time=336
note_off channel=12 note=59 velocity=64 time=296
note_on channel=12 note=59 velocity=69 time=24
note_off channel=12 note=59 velocity=64 time=136
note_on channel=12 note=59 velocity=62 time=24
note_off channel=12 note=59 velocity=64 time=56
note_on channel=12 note=59 velocity=69 time=24
note_off channel=12 note=59 velocity=64 time=68
note_on channel=12 note=59 velocity=69 time=332
note_off channel=12 note=59 velocity=64 time=308
control_change channel=12 control=11 value=104 time=12
note_on channel=12 note=58 velocity=75 time=0
control_change channel=12 control=11 value=105 time=100
control_change channel=12 control=11 value=108 time=80
control_change channel=12 control=11 value=109 time=100
control_change channel=12 control=11 value=111 time=100
control_change channel=12 control=11 value=114 time=90
control_change channel=12 control=11 value=115 time=100
control_change channel=12 control=11 value=118 time=70
control_change channel=12 control=11 value=119 time=100
control_change channel=12 control=11 value=121 time=100
control_change channel=12 control=11 value=124 time=90
control_change channel=12 control=11 value=125 time=100
control_change channel=12 control=11 value=127 time=10
note_off channel=12 note=58 velocity=64 time=80
note_on channel=12 note=58 velocity=76 time=320
note_on channel=12 note=57 velocity=40 time=112
note_on channel=12 note=56 velocity=28 time=40
note_off channel=12 note=58 velocity=64 time=4
note_off channel=12 note=57 velocity=64 time=8
note_on channel=12 note=55 velocity=17 time=28
note_off channel=12 note=56 velocity=64 time=12
note_off channel=12 note=55 velocity=64 time=40
note_on channel=12 note=57 velocity=75 time=236
note_off channel=12 note=57 velocity=64 time=592
note_on channel=12 note=57 velocity=69 time=48
note_off channel=12 note=57 velocity=64 time=296
note_on channel=12 note=57 velocity=57 time=24
note_off channel=12 note=57 velocity=64 time=136
note_on channel=12 note=60 velocity=69 time=24
note_off channel=12 note=60 velocity=64 time=284
note_on channel=12 note=60 velocity=69 time=36
note_off channel=12 note=60 velocity=64 time=156
note_on channel=12 note=60 velocity=69 time=324
control_change channel=12 control=11 value=127 time=160
control_change channel=12 control=11 value=125 time=120
control_change channel=12 control=11 value=123 time=120
control_change channel=12 control=11 value=121 time=120
control_change channel=12 control=11 value=119 time=120
control_change channel=12 control=11 value=118 time=120
control_change channel=12 control=11 value=115 time=120
control_change channel=12 control=11 value=114 time=120
control_change channel=12 control=11 value=111 time=120
control_change channel=12 control=11 value=110 time=120
control_change channel=12 control=11 value=108 time=120
control_change channel=12 control=11 value=106 time=120
control_change channel=12 control=11 value=104 time=120
control_change channel=12 control=11 value=103 time=120
control_change channel=12 control=11 value=100 time=120
control_change channel=12 control=11 value=99 time=120
note_off channel=12 note=60 velocity=64 time=60
control_change channel=12 control=11 value=96 time=36
control_change channel=12 control=11 value=127 time=24
note_on channel=12 note=59 velocity=75 time=320
note_on channel=12 note=58 velocity=30 time=112
note_on channel=12 note=57 velocity=20 time=40
note_off channel=12 note=59 velocity=64 time=4
note_off channel=12 note=58 velocity=64 time=8
note_off channel=12 note=57 velocity=64 time=40
note_on channel=12 note=59 velocity=75 time=276
note_off channel=12 note=59 velocity=64 time=580
note_on channel=12 note=59 velocity=75 time=60
note_off channel=12 note=59 velocity=64 time=168
note_on channel=12 note=58 velocity=74 time=632
note_on channel=12 note=57 velocity=32 time=112
note_on channel=12 note=56 velocity=23 time=40
note_off channel=12 note=58 velocity=64 time=4
note_off channel=12 note=57 velocity=64 time=8
note_off channel=12 note=56 velocity=64 time=40
note_on channel=12 note=58 velocity=75 time=276
note_off channel=12 note=58 velocity=64 time=580
note_on channel=12 note=58 velocity=75 time=60
note_off channel=12 note=58 velocity=64 time=168
note_on channel=12 note=58 velocity=69 time=632
note_off channel=12 note=58 velocity=64 time=444
note_on channel=12 note=58 velocity=71 time=36
note_off channel=12 note=58 velocity=64 time=444
note_on channel=12 note=60 velocity=74 time=36
note_off channel=12 note=60 velocity=64 time=444
note_on channel=12 note=58 velocity=66 time=36
note_off channel=12 note=58 velocity=64 time=136
note_on channel=12 note=62 velocity=79 time=24
note_off channel=12 note=62 velocity=64 time=148
note_on channel=12 note=58 velocity=65 time=12
note_off channel=12 note=58 velocity=64 time=148
note_on channel=12 note=65 velocity=80 time=12
note_off channel=12 note=65 velocity=64 time=924
note_on channel=12 note=57 velocity=75 time=36
note_off channel=12 note=57 velocity=64 time=604
note_on channel=12 note=55 velocity=69 time=36
note_off channel=12 note=55 velocity=64 time=284
note_on channel=12 note=55 velocity=70 time=36
note_off channel=12 note=55 velocity=64 time=124
note_on channel=12 note=60 velocity=81 time=12516
note_off channel=12 note=60 velocity=64 time=168
note_on channel=12 note=63 velocity=71 time=312
note_off channel=12 note=63 velocity=64 time=308
control_change channel=12 control=11 value=109 time=12
note_on channel=12 note=65 velocity=82 time=0
control_change channel=12 control=11 value=110 time=120
control_change channel=12 control=11 value=111 time=110
control_change channel=12 control=11 value=113 time=110
control_change channel=12 control=11 value=114 time=110
control_change channel=12 control=11 value=115 time=110
control_change channel=12 control=11 value=116 time=110
control_change channel=12 control=11 value=118 time=110
control_change channel=12 control=11 value=119 time=120
control_change channel=12 control=11 value=120 time=110
control_change channel=12 control=11 value=121 time=110
control_change channel=12 control=11 value=123 time=110
control_change channel=12 control=11 value=124 time=110
control_change channel=12 control=11 value=125 time=110
note_off channel=12 note=65 velocity=64 time=102
control_change channel=12 control=11 value=127 time=8
note_on channel=12 note=65 velocity=81 time=360
note_off channel=12 note=65 velocity=64 time=604
note_on channel=12 note=64 velocity=81 time=36
note_off channel=12 note=64 velocity=64 time=296
note_on channel=12 note=62 velocity=81 time=24
note_off channel=12 note=62 velocity=64 time=136
note_on channel=12 note=62 velocity=81 time=824
note_off channel=12 note=62 velocity=64 time=604
note_on channel=12 note=58 velocity=81 time=36
note_off channel=12 note=58 velocity=64 time=296
note_on channel=12 note=58 velocity=81 time=24
note_off channel=12 note=58 velocity=64 time=136
note_on channel=12 note=67 velocity=81 time=824
note_off channel=12 note=67 velocity=64 time=604
note_on channel=12 note=61 velocity=81 time=36
note_off channel=12 note=61 velocity=64 time=296
note_on channel=12 note=62 velocity=81 time=24
note_off channel=12 note=62 velocity=64 time=136
note_on channel=12 note=64 velocity=81 time=824
note_off channel=12 note=64 velocity=64 time=604
note_on channel=12 note=60 velocity=81 time=36
note_off channel=12 note=60 velocity=64 time=296
note_on channel=12 note=60 velocity=81 time=24
note_off channel=12 note=60 velocity=64 time=136
note_on channel=12 note=65 velocity=81 time=824
note_off channel=12 note=65 velocity=64 time=580
note_on channel=12 note=65 velocity=81 time=60
note_off channel=12 note=65 velocity=64 time=168
note_on channel=12 note=65 velocity=81 time=312
note_off channel=12 note=65 velocity=64 time=168
note_on channel=12 note=65 velocity=81 time=312
note_off channel=12 note=65 velocity=64 time=296
note_on channel=12 note=67 velocity=69 time=24
note_off channel=12 note=67 velocity=64 time=148
note_on channel=12 note=65 velocity=81 time=12
note_off channel=12 note=65 velocity=64 time=311
note_on channel=12 note=64 velocity=81 time=9
pitchwheel channel=12 pitch=0 time=16
control_change channel=12 control=11 value=127 time=0
pitchwheel channel=12 pitch=242 time=24
control_change channel=12 control=11 value=124 time=72
control_change channel=12 control=11 value=121 time=96
pitchwheel channel=12 pitch=0 time=72
control_change channel=12 control=11 value=119 time=48
control_change channel=12 control=11 value=116 time=48
pitchwheel channel=12 pitch=-82 time=96
control_change channel=12 control=11 value=114 time=24
control_change channel=12 control=11 value=111 time=72
pitchwheel channel=12 pitch=-244 time=24
pitchwheel channel=12 pitch=-407 time=96
control_change channel=12 control=11 value=109 time=0
control_change channel=12 control=11 value=106 time=48
pitchwheel channel=12 pitch=-569 time=24
pitchwheel channel=12 pitch=-731 time=72
control_change channel=12 control=11 value=104 time=24
pitchwheel channel=12 pitch=-893 time=24
pitchwheel channel=12 pitch=-1055 time=48
control_change channel=12 control=11 value=101 time=0
pitchwheel channel=12 pitch=-1218 time=48
pitchwheel channel=12 pitch=-1380 time=24
pitchwheel channel=12 pitch=-1542 time=24
pitchwheel channel=12 pitch=-1704 time=24
control_change channel=12 control=11 value=99 time=0
note_off channel=12 note=64 velocity=64 time=24
pitchwheel channel=12 pitch=-2029 time=0
control_change channel=12 control=11 value=127 time=24
control_change channel=12 control=11 value=96 time=0
control_change channel=12 control=11 value=127 time=24
pitchwheel channel=12 pitch=0 time=0
note_on channel=12 note=63 velocity=81 time=320
note_on channel=12 note=62 velocity=30 time=112
note_on channel=12 note=61 velocity=20 time=40
note_off channel=12 note=63 velocity=64 time=8
note_off channel=12 note=62 velocity=64 time=4
note_off channel=12 note=61 velocity=64 time=40
note_on channel=12 note=63 velocity=81 time=436
note_off channel=12 note=63 velocity=64 time=168
note_on channel=12 note=63 velocity=81 time=312
note_off channel=12 note=63 velocity=64 time=168
note_on channel=12 note=65 velocity=81 time=792
note_off channel=12 note=65 velocity=64 time=296
note_on channel=12 note=65 velocity=81 time=24
note_off channel=12 note=65 velocity=64 time=192
note_on channel=12 note=63 velocity=69 time=288
note_off channel=12 note=63 velocity=64 time=148
note_on channel=12 note=65 velocity=81 time=12
note_off channel=12 note=65 velocity=64 time=308
note_on channel=12 note=65 velocity=75 time=12
note_off channel=12 note=65 velocity=64 time=136
note_on channel=12 note=65 velocity=81 time=24
note_off channel=12 note=65 velocity=64 time=296
note_on channel=12 note=62 velocity=81 time=24
note_off channel=12 note=62 velocity=64 time=136
note_on channel=12 note=62 velocity=81 time=1944
note_off channel=12 note=62 velocity=64 time=168
note_on channel=12 note=62 velocity=81 time=312
note_off channel=12 note=62 velocity=64 time=296
note_on channel=12 note=62 velocity=81 time=24
note_off channel=12 note=62 velocity=64 time=180
note_on channel=12 note=67 velocity=81 time=300
note_on channel=12 note=69 velocity=59 time=1440
note_off channel=12 note=67 velocity=64 time=16
note_on channel=12 note=68 velocity=70 time=64
note_off channel=12 note=69 velocity=64 time=24
note_on channel=12 note=67 velocity=81 time=56
note_off channel=12 note=68 velocity=64 time=24
note_off channel=12 note=67 velocity=64 time=284
note_on channel=12 note=60 velocity=81 time=12
pitchwheel channel=12 pitch=0 time=160
control_change channel=12 control=11 value=127 time=0
pitchwheel channel=12 pitch=242 time=12
control_change channel=12 control=11 value=124 time=72
control_change channel=12 control=11 value=121 time=72
pitchwheel channel=12 pitch=0 time=48
control_change channel=12 control=11 value=119 time=60
control_change channel=12 control=11 value=116 time=48
pitchwheel channel=12 pitch=-82 time=36
control_change channel=12 control=11 value=114 time=72
pitchwheel channel=12 pitch=-244 time=24
control_change channel=12 control=11 value=111 time=24
pitchwheel channel=12 pitch=-407 time=48
pitchwheel channel=12 pitch=-569 time=60
control_change channel=12 control=11 value=109 time=0
control_change channel=12 control=11 value=106 time=48
pitchwheel channel=12 pitch=-731 time=12
pitchwheel channel=12 pitch=-893 time=36
pitchwheel channel=12 pitch=-1055 time=48
control_change channel=12 control=11 value=104 time=12
pitchwheel channel=12 pitch=-1218 time=24
pitchwheel channel=12 pitch=-1380 time=24
control_change channel=12 control=11 value=101 time=0
pitchwheel channel=12 pitch=-1542 time=36
pitchwheel channel=12 pitch=-1704 time=24
pitchwheel channel=12 pitch=-1866 time=12
pitchwheel channel=12 pitch=-2029 time=24
pitchwheel channel=12 pitch=-2191 time=12
control_change channel=12 control=11 value=99 time=0
pitchwheel channel=12 pitch=-2353 time=12
note_off channel=12 note=60 velocity=64 time=12
pitchwheel channel=12 pitch=-2515 time=0
pitchwheel channel=12 pitch=-2840 time=12
control_change channel=12 control=11 value=96 time=12
control_change channel=12 control=11 value=127 time=24
pitchwheel channel=12 pitch=0 time=0
note_on channel=12 note=62 velocity=81 time=1280
note_off channel=12 note=62 velocity=64 time=604
note_on channel=12 note=66 velocity=81 time=36
note_off channel=12 note=66 velocity=64 time=180
note_on channel=12 note=66 velocity=81 time=300
note_off channel=12 note=66 velocity=64 time=296
note_on channel=12 note=65 velocity=81 time=24
note_off channel=12 note=65 velocity=64 time=136
note_on channel=12 note=65 velocity=81 time=344
note_off channel=12 note=65 velocity=64 time=180
note_on channel=12 note=65 velocity=75 time=300
note_off channel=12 note=65 velocity=64 time=148
note_on channel=12 note=62 velocity=81 time=12
note_off channel=12 note=62 velocity=64 time=456
note_on channel=12 note=64 velocity=81 time=24
note_off channel=12 note=64 velocity=64 time=156
note_on channel=12 note=67 velocity=88 time=804
note_off channel=12 note=67 velocity=64 time=912
note_on channel=12 note=67 velocity=81 time=48
note_off channel=12 note=67 velocity=64 time=180
control_change channel=12 control=11 value=104 time=300
note_on channel=12 note=65 velocity=88 time=0
control_change channel=12 control=11 value=106 time=108
control_change channel=12 control=11 value=109 time=108
note_off channel=12 note=65 velocity=64 time=92
note_on channel=12 note=65 velocity=88 time=12
control_change channel=12 control=11 value=111 time=4
control_change channel=12 control=11 value=114 time=108
control_change channel=12 control=11 value=116 time=108
control_change channel=12 control=11 value=119 time=108
control_change channel=12 control=11 value=121 time=108
control_change channel=12 control=11 value=124 time=108
note_off channel=12 note=65 velocity=64 time=60
control_change channel=12 control=11 value=127 time=36
control_change channel=12 control=11 value=127 time=0
note_on channel=12 note=64 velocity=88 time=0
control_change channel=12 control=11 value=124 time=84
control_change channel=12 control=11 value=121 time=84
control_change channel=12 control=11 value=119 time=108
note_off channel=12 note=64 velocity=64 time=32
note_on channel=12 note=60 velocity=88 time=12
control_change channel=12 control=11 value=116 time=4
control_change channel=12 control=11 value=114 time=108
control_change channel=12 control=11 value=111 time=48
control_change channel=12 control=11 value=109 time=108
control_change channel=12 control=11 value=106 time=60
control_change channel=12 control=11 value=104 time=108
control_change channel=12 control=11 value=101 time=48
note_off channel=12 note=60 velocity=64 time=108
control_change channel=12 control=11 value=99 time=0
control_change channel=12 control=11 value=127 time=48
control_change channel=12 control=11 value=96 time=0
control_change channel=12 control=11 value=127 time=12
note_on channel=12 note=58 velocity=60 time=1748
control_change channel=12 control=11 value=127 time=232
control_change channel=12 control=11 value=121 time=24
control_change channel=12 control=11 value=115 time=24
control_change channel=12 control=11 value=109 time=24
control_change channel=12 control=11 value=103 time=24
control_change channel=12 control=11 value=96 time=24
control_change channel=12 control=11 value=90 time=24
control_change channel=12 control=11 value=84 time=24
control_change channel=12 control=11 value=84 time=24
control_change channel=12 control=11 value=86 time=120
control_change channel=12 control=11 value=89 time=48
control_change channel=12 control=11 value=93 time=120
control_change channel=12 control=11 value=95 time=120
control_change channel=12 control=11 value=98 time=48
control_change channel=12 control=11 value=101 time=120
control_change channel=12 control=11 value=104 time=96
control_change channel=12 control=11 value=108 time=120
control_change channel=12 control=11 value=111 time=120
control_change channel=12 control=11 value=114 time=72
control_change channel=12 control=11 value=116 time=120
control_change channel=12 control=11 value=119 time=48
control_change channel=12 control=11 value=123 time=120
control_change channel=12 control=11 value=127 time=120
note_off channel=12 note=58 velocity=64 time=80
note_on channel=12 note=57 velocity=60 time=24
note_off channel=12 note=57 velocity=64 time=136
note_on channel=12 note=60 velocity=60 time=1784
control_change channel=12 control=11 value=127 time=232
control_change channel=12 control=11 value=121 time=24
control_change channel=12 control=11 value=115 time=24
control_change channel=12 control=11 value=109 time=24
control_change channel=12 control=11 value=103 time=24
control_change channel=12 control=11 value=96 time=24
control_change channel=12 control=11 value=90 time=24
control_change channel=12 control=11 value=84 time=24
control_change channel=12 control=11 value=84 time=24
control_change channel=12 control=11 value=86 time=120
control_change channel=12 control=11 value=89 time=48
control_change channel=12 control=11 value=93 time=120
control_change channel=12 control=11 value=95 time=120
control_change channel=12 control=11 value=98 time=48
control_change channel=12 control=11 value=101 time=120
control_change channel=12 control=11 value=104 time=96
control_change channel=12 control=11 value=108 time=120
control_change channel=12 control=11 value=111 time=120
control_change channel=12 control=11 value=114 time=72
control_change channel=12 control=11 value=116 time=120
control_change channel=12 control=11 value=119 time=48
control_change channel=12 control=11 value=123 time=120
control_change channel=12 control=11 value=127 time=120
note_off channel=12 note=60 velocity=64 time=80
note_on channel=12 note=59 velocity=60 time=24
note_off channel=12 note=59 velocity=64 time=136
note_on channel=12 note=58 velocity=60 time=1784
control_change channel=12 control=11 value=127 time=232
control_change channel=12 control=11 value=121 time=24
control_change channel=12 control=11 value=115 time=24
control_change channel=12 control=11 value=109 time=24
control_change channel=12 control=11 value=103 time=24
control_change channel=12 control=11 value=96 time=24
control_change channel=12 control=11 value=90 time=24
control_change channel=12 control=11 value=84 time=24
control_change channel=12 control=11 value=84 time=24
control_change channel=12 control=11 value=86 time=120
control_change channel=12 control=11 value=89 time=48
control_change channel=12 control=11 value=93 time=120
control_change channel=12 control=11 value=95 time=120
control_change channel=12 control=11 value=98 time=48
control_change channel=12 control=11 value=101 time=120
control_change channel=12 control=11 value=104 time=96
control_change channel=12 control=11 value=108 time=120
control_change channel=12 control=11 value=111 time=120
control_change channel=12 control=11 value=114 time=72
control_change channel=12 control=11 value=116 time=120
control_change channel=12 control=11 value=119 time=48
control_change channel=12 control=11 value=123 time=120
control_change channel=12 control=11 value=127 time=120
note_off channel=12 note=58 velocity=64 time=80
control_change channel=12 control=93 value=60 time=184
note_on channel=12 note=62 velocity=75 time=320
note_off channel=12 note=62 velocity=64 time=580
note_on channel=12 note=60 velocity=75 time=60
note_off channel=12 note=60 velocity=64 time=144
note_on channel=12 note=55 velocity=75 time=336
note_off channel=12 note=55 velocity=64 time=144
note_on channel=12 note=59 velocity=75 time=336
note_off channel=12 note=59 velocity=64 time=444
note_on channel=12 note=58 velocity=75 time=36
note_off channel=12 note=58 velocity=64 time=284
note_on channel=12 note=57 velocity=75 time=36
note_off channel=12 note=57 velocity=64 time=124
control_change channel=12 control=93 value=30 time=36
note_on channel=12 note=62 velocity=81 time=1280
note_off channel=12 note=62 velocity=64 time=168
note_on channel=12 note=64 velocity=81 time=312
note_off channel=12 note=64 velocity=64 time=136
note_on channel=12 note=65 velocity=81 time=24
note_off channel=12 note=65 velocity=64 time=168
note_on channel=12 note=65 velocity=81 time=312
note_off channel=12 note=65 velocity=64 time=168
control_change channel=12 control=93 value=30 time=312
note_on channel=12 note=65 velocity=81 time=0
note_off channel=12 note=65 velocity=64 time=444
note_on channel=12 note=65 velocity=81 time=36
note_off channel=12 note=65 velocity=64 time=296
note_on channel=12 note=65 velocity=81 time=24
note_off channel=12 note=65 velocity=64 time=136
note_on channel=12 note=60 velocity=81 time=824
note_off channel=12 note=60 velocity=64 time=604
note_on channel=12 note=62 velocity=81 time=36
note_off channel=12 note=62 velocity=64 time=296
note_on channel=12 note=60 velocity=69 time=24
note_off channel=12 note=60 velocity=64 time=136
note_on channel=12 note=65 velocity=81 time=24
note_off channel=12 note=65 velocity=64 time=284
note_on channel=12 note=67 velocity=81 time=36
note_off channel=12 note=67 velocity=64 time=168
note_on channel=12 note=67 velocity=81 time=312
note_off channel=12 note=67 velocity=64 time=604
note_on channel=12 note=67 velocity=81 time=36
note_off channel=12 note=67 velocity=64 time=296
note_on channel=12 note=66 velocity=81 time=24
note_off channel=12 note=66 velocity=64 time=124
note_on channel=12 note=63 velocity=81 time=1316
note_off channel=12 note=63 velocity=64 time=568
note_on channel=12 note=64 velocity=81 time=72
note_off channel=12 note=64 velocity=64 time=156
note_on channel=12 note=62 velocity=81 time=324
note_off channel=12 note=62 velocity=64 time=156
note_on channel=12 note=63 velocity=81 time=324
note_off channel=12 note=63 velocity=64 time=782
note_on channel=12 note=64 velocity=81 time=18
note_off channel=12 note=64 velocity=64 time=1060
note_on channel=12 note=68 velocity=81 time=380
note_off channel=12 note=68 velocity=64 time=580
note_on channel=12 note=69 velocity=81 time=60
note_off channel=12 note=69 velocity=64 time=168
note_on channel=12 note=62 velocity=81 time=312
note_off channel=12 note=62 velocity=64 time=168
note_on channel=12 note=68 velocity=81 time=312
note_off channel=12 note=68 velocity=64 time=782
note_on channel=12 note=69 velocity=81 time=18
note_off channel=12 note=69 velocity=64 time=1060
note_on channel=12 note=60 velocity=56 time=5820
note_off channel=12 note=60 velocity=64 time=80
note_on channel=12 note=60 velocity=62 time=0
note_off channel=12 note=60 velocity=64 time=80
note_on channel=12 note=57 velocity=45 time=640
control_change channel=12 control=11 value=127 time=1120
control_change channel=12 control=11 value=125 time=120
control_change channel=12 control=11 value=124 time=120
control_change channel=12 control=11 value=123 time=120
control_change channel=12 control=11 value=121 time=120
control_change channel=12 control=11 value=120 time=120
control_change channel=12 control=11 value=119 time=120
control_change channel=12 control=11 value=118 time=120
control_change channel=12 control=11 value=116 time=120
control_change channel=12 control=11 value=115 time=120
control_change channel=12 control=11 value=114 time=120
control_change channel=12 control=11 value=113 time=120
control_change channel=12 control=11 value=111 time=120
control_change channel=12 control=11 value=110 time=120
control_change channel=12 control=11 value=109 time=120
control_change channel=12 control=11 value=108 time=120
control_change channel=12 control=11 value=106 time=120
control_change channel=12 control=11 value=105 time=120
control_change channel=12 control=11 value=104 time=120
control_change channel=12 control=11 value=103 time=120
control_change channel=12 control=11 value=101 time=120
control_change channel=12 control=11 value=100 time=120
control_change channel=12 control=11 value=99 time=120
control_change channel=12 control=11 value=98 time=120
note_off channel=12 note=57 velocity=64 time=96
<meta message end_of_track time=0>
<meta message text text='Trombone 2' time=0>
control_change channel=13 control=11 value=127 time=0
control_change channel=13 control=7 value=106 time=0
control_change channel=13 control=10 value=89 time=0
control_change channel=13 control=91 value=89 time=0
control_change channel=13 control=93 value=25 time=0
control_change channel=13 control=0 value=56 time=0
control_change channel=13 control=32 value=0 time=0
program_change channel=13 program=57 time=0
note_on channel=13 note=63 velocity=62 time=9920
note_off channel=13 note=63 velocity=64 time=580
note_on channel=13 note=64 velocity=64 time=60
note_off channel=13 note=64 velocity=64 time=168
note_on channel=13 note=63 velocity=67 time=792
note_off channel=13 note=63 velocity=64 time=764
note_on channel=13 note=64 velocity=70 time=36
note_off channel=13 note=64 velocity=64 time=1072
note_on channel=13 note=59 velocity=75 time=368
note_off channel=13 note=59 velocity=64 time=580
note_on channel=13 note=59 velocity=77 time=60
note_off channel=13 note=59 velocity=64 time=168
note_on channel=13 note=59 velocity=79 time=312
note_off channel=13 note=59 velocity=64 time=168
note_on channel=13 note=58 velocity=81 time=312
note_off channel=13 note=58 velocity=64 time=764
note_on channel=13 note=58 velocity=84 time=36
note_off channel=13 note=58 velocity=64 time=592
note_on channel=13 note=58 velocity=86 time=48
note_off channel=13 note=58 velocity=64 time=272
note_on channel=13 note=60 velocity=86 time=48
note_off channel=13 note=60 velocity=64 time=124
note_on channel=13 note=55 velocity=45 time=19556
note_off channel=13 note=55 velocity=64 time=124
note_on channel=13 note=57 velocity=50 time=36
note_off channel=13 note=57 velocity=64 time=132
note_on channel=13 note=58 velocity=45 time=348
note_off channel=13 note=58 velocity=64 time=294
control_change channel=13 control=11 value=109 time=26
note_on channel=13 note=62 velocity=52 time=0
control_change channel=13 control=11 value=110 time=100
control_change channel=13 control=11 value=111 time=100
control_change channel=13 control=11 value=113 time=100
control_change channel=13 control=11 value=114 time=100
control_change channel=13 control=11 value=115 time=100
control_change channel=13 control=11 value=116 time=100
control_change channel=13 control=11 value=118 time=100
control_change channel=13 control=11 value=119 time=100
control_change channel=13 control=11 value=120 time=100
control_change channel=13 control=11 value=121 time=100
control_change channel=13 control=11 value=123 time=100
control_change channel=13 control=11 value=124 time=100
control_change channel=13 control=11 value=125 time=100
control_change channel=13 control=11 value=127 time=60
note_off channel=13 note=62 velocity=64 time=44
note_on channel=13 note=58 velocity=55 time=36
note_off channel=13 note=58 velocity=64 time=112
note_on channel=13 note=58 velocity=50 time=368
note_off channel=13 note=58 velocity=64 time=144
note_on channel=13 note=58 velocity=45 time=336
note_off channel=13 note=58 velocity=64 time=136
note_on channel=13 note=52 velocity=50 time=24
note_off channel=13 note=52 velocity=64 time=284
note_on channel=13 note=52 velocity=45 time=36
note_off channel=13 note=52 velocity=64 time=136
note_on channel=13 note=52 velocity=50 time=24
note_off channel=13 note=52 velocity=64 time=120
note_on channel=13 note=52 velocity=50 time=360
note_off channel=13 note=52 velocity=64 time=284
note_on channel=13 note=60 velocity=50 time=36
note_off channel=13 note=60 velocity=64 time=120
note_on channel=13 note=56 velocity=50 time=360
control_change channel=13 control=11 value=127 time=232
control_change channel=13 control=11 value=120 time=24
control_change channel=13 control=11 value=114 time=24
control_change channel=13 control=11 value=108 time=24
control_change channel=13 control=11 value=101 time=24
control_change channel=13 control=11 value=94 time=24
control_change channel=13 control=11 value=96 time=120
control_change channel=13 control=11 value=99 time=120
control_change channel=13 control=11 value=101 time=120
control_change channel=13 control=11 value=104 time=120
control_change channel=13 control=11 value=106 time=120
control_change channel=13 control=11 value=109 time=120
control_change channel=13 control=11 value=111 time=120
control_change channel=13 control=11 value=114 time=120
control_change channel=13 control=11 value=116 time=120
control_change channel=13 control=11 value=119 time=120
control_change channel=13 control=11 value=121 time=120
control_change channel=13 control=11 value=124 time=120
control_change channel=13 control=11 value=127 time=120
note_off channel=13 note=56 velocity=64 time=120
note_on channel=13 note=50 velocity=55 time=368
note_off channel=13 note=50 velocity=64 time=124
note_on channel=13 note=50 velocity=50 time=36
note_off channel=13 note=50 velocity=64 time=120
note_on channel=13 note=54 velocity=52 time=360
note_off channel=13 note=54 velocity=64 time=284
note_on channel=13 note=54 velocity=55 time=36
note_off channel=13 note=54 velocity=64 time=108
note_on channel=13 note=58 velocity=60 time=372
note_off channel=13 note=58 velocity=64 time=592
note_on channel=13 note=58 velocity=55 time=48
note_off channel=13 note=58 velocity=64 time=296
note_on channel=13 note=58 velocity=45 time=24
note_off channel=13 note=58 velocity=64 time=134
note_on channel=13 note=55 velocity=50 time=26
note_off channel=13 note=55 velocity=64 time=284
note_on channel=13 note=55 velocity=50 time=36
note_off channel=13 note=55 velocity=64 time=120
note_on channel=13 note=55 velocity=50 time=360
control_change channel=13 control=11 value=127 time=232
control_change channel=13 control=11 value=120 time=24
control_change channel=13 control=11 value=114 time=24
control_change channel=13 control=11 value=108 time=24
control_change channel=13 control=11 value=101 time=24
control_change channel=13 control=11 value=95 time=24
control_change channel=13 control=11 value=95 time=0
control_change channel=13 control=11 value=96 time=120
control_change channel=13 control=11 value=98 time=120
control_change channel=13 control=11 value=99 time=120
control_change channel=13 control=11 value=100 time=120
control_change channel=13 control=11 value=101 time=120
control_change channel=13 control=11 value=103 time=120
control_change channel=13 control=11 value=104 time=120
control_change channel=13 control=11 value=105 time=120
control_change channel=13 control=11 value=106 time=120
control_change channel=13 control=11 value=108 time=120
control_change channel=13 control=11 value=109 time=120
control_change channel=13 control=11 value=110 time=120
control_change channel=13 control=11 value=111 time=120
control_change channel=13 control=11 value=113 time=120
note_off channel=13 note=55 velocity=64 time=32
note_on channel=13 note=54 velocity=45 time=16
control_change channel=13 control=11 value=114 time=72
control_change channel=13 control=11 value=115 time=120
control_change channel=13 control=11 value=116 time=120
control_change channel=13 control=11 value=118 time=120
control_change channel=13 control=11 value=119 time=120
control_change channel=13 control=11 value=120 time=120
control_change channel=13 control=11 value=121 time=120
control_change channel=13 control=11 value=123 time=120
control_change channel=13 control=11 value=124 time=120
control_change channel=13 control=11 value=125 time=120
control_change channel=13 control=11 value=127 time=48
note_off channel=13 note=54 velocity=64 time=180
note_on channel=13 note=54 velocity=55 time=60
note_off channel=13 note=54 velocity=64 time=284
note_on channel=13 note=53 velocity=55 time=36
note_off channel=13 note=53 velocity=64 time=112
note_on channel=13 note=52 velocity=45 time=1808
control_change channel=13 control=11 value=127 time=232
control_change channel=13 control=11 value=121 time=24
control_change channel=13 control=11 value=115 time=24
control_change channel=13 control=11 value=109 time=24
control_change channel=13 control=11 value=103 time=24
control_change channel=13 control=11 value=96 time=24
control_change channel=13 control=11 value=90 time=24
control_change channel=13 control=11 value=84 time=24
control_change channel=13 control=11 value=84 time=24
control_change channel=13 control=11 value=86 time=120
control_change channel=13 control=11 value=89 time=48
control_change channel=13 control=11 value=93 time=120
control_change channel=13 control=11 value=95 time=120
control_change channel=13 control=11 value=98 time=48
control_change channel=13 control=11 value=101 time=120
control_change channel=13 control=11 value=104 time=96
control_change channel=13 control=11 value=108 time=120
control_change channel=13 control=11 value=111 time=120
control_change channel=13 control=11 value=114 time=72
control_change channel=13 control=11 value=116 time=120
control_change channel=13 control=11 value=119 time=48
control_change channel=13 control=11 value=123 time=120
control_change channel=13 control=11 value=127 time=120
note_off channel=13 note=52 velocity=64 time=80
note_on channel=13 note=50 velocity=56 time=24
note_off channel=13 note=50 velocity=64 time=136
note_on channel=13 note=54 velocity=56 time=1784
control_change channel=13 control=11 value=127 time=232
control_change channel=13 control=11 value=121 time=24
control_change channel=13 control=11 value=115 time=24
control_change channel=13 control=11 value=109 time=24
control_change channel=13 control=11 value=103 time=24
control_change channel=13 control=11 value=96 time=24
control_change channel=13 control=11 value=90 time=24
control_change channel=13 control=11 value=84 time=24
control_change channel=13 control=11 value=84 time=24
control_change channel=13 control=11 value=86 time=120
control_change channel=13 control=11 value=89 time=48
control_change channel=13 control=11 value=93 time=120
control_change channel=13 control=11 value=95 time=120
control_change channel=13 control=11 value=98 time=48
control_change channel=13 control=11 value=101 time=120
control_change channel=13 control=11 value=104 time=96
control_change channel=13 control=11 value=108 time=120
control_change channel=13 control=11 value=111 time=120
control_change channel=13 control=11 value=114 time=72
control_change channel=13 control=11 value=116 time=120
control_change channel=13 control=11 value=119 time=48
control_change channel=13 control=11 value=123 time=120
control_change channel=13 control=11 value=127 time=120
note_off channel=13 note=54 velocity=64 time=80
note_on channel=13 note=53 velocity=56 time=24
note_off channel=13 note=53 velocity=64 time=136
note_on channel=13 note=52 velocity=56 time=1784
control_change channel=13 control=11 value=127 time=232
control_change channel=13 control=11 value=121 time=24
control_change channel=13 control=11 value=115 time=24
control_change channel=13 control=11 value=109 time=24
control_change channel=13 control=11 value=103 time=24
control_change channel=13 control=11 value=96 time=24
control_change channel=13 control=11 value=90 time=24
control_change channel=13 control=11 value=84 time=24
control_change channel=13 control=11 value=84 time=24
control_change channel=13 control=11 value=86 time=120
control_change channel=13 control=11 value=89 time=48
control_change channel=13 control=11 value=93 time=120
control_change channel=13 control=11 value=95 time=120
control_change channel=13 control=11 value=98 time=48
control_change channel=13 control=11 value=101 time=120
control_change channel=13 control=11 value=104 time=96
control_change channel=13 control=11 value=108 time=120
control_change channel=13 control=11 value=111 time=120
control_change channel=13 control=11 value=114 time=72
control_change channel=13 control=11 value=116 time=120
control_change channel=13 control=11 value=119 time=48
control_change channel=13 control=11 value=123 time=120
control_change channel=13 control=11 value=127 time=120
note_off channel=13 note=52 velocity=64 time=80
note_on channel=13 note=50 velocity=56 time=4344
note_off channel=13 note=50 velocity=64 time=136
note_on channel=13 note=57 velocity=62 time=24
note_off channel=13 note=57 velocity=64 time=144
note_on channel=13 note=58 velocity=69 time=336
note_off channel=13 note=58 velocity=64 time=296
note_on channel=13 note=62 velocity=56 time=24
note_off channel=13 note=62 velocity=64 time=136
note_on channel=13 note=65 velocity=67 time=24
note_off channel=13 note=65 velocity=64 time=296
note_on channel=13 note=65 velocity=81 time=24
note_off channel=13 note=65 velocity=64 time=604
note_on channel=13 note=65 velocity=65 time=36
note_off channel=13 note=65 velocity=64 time=308
note_on channel=13 note=61 velocity=69 time=12
control_change channel=13 control=11 value=127 time=16
control_change channel=13 control=11 value=125 time=120
control_change channel=13 control=11 value=123 time=120
control_change channel=13 control=11 value=121 time=120
control_change channel=13 control=11 value=119 time=120
control_change channel=13 control=11 value=118 time=120
control_change channel=13 control=11 value=115 time=96
control_change channel=13 control=11 value=114 time=120
control_change channel=13 control=11 value=111 time=120
note_off channel=13 note=61 velocity=64 time=120
control_change channel=13 control=11 value=110 time=0
control_change channel=13 control=11 value=109 time=24
control_change channel=13 control=11 value=127 time=24
note_on channel=13 note=53 velocity=56 time=320
note_off channel=13 note=53 velocity=64 time=136
note_on channel=13 note=52 velocity=64 time=24
note_off channel=13 note=52 velocity=64 time=144
note_on channel=13 note=55 velocity=69 time=336
note_off channel=13 note=55 velocity=64 time=296
note_on channel=13 note=55 velocity=56 time=24
note_off channel=13 note=55 velocity=64 time=136
note_on channel=13 note=60 velocity=66 time=24
note_off channel=13 note=60 velocity=64 time=296
note_on channel=13 note=60 velocity=75 time=24
note_off channel=13 note=60 velocity=64 time=604
note_on channel=13 note=60 velocity=64 time=36
note_off channel=13 note=60 velocity=64 time=308
note_on channel=13 note=56 velocity=69 time=12
control_change channel=13 control=11 value=127 time=16
control_change channel=13 control=11 value=125 time=120
control_change channel=13 control=11 value=123 time=120
control_change channel=13 control=11 value=121 time=120
control_change channel=13 control=11 value=119 time=120
control_change channel=13 control=11 value=118 time=120
control_change channel=13 control=11 value=115 time=96
control_change channel=13 control=11 value=114 time=120
control_change channel=13 control=11 value=111 time=120
note_off channel=13 note=56 velocity=64 time=120
control_change channel=13 control=11 value=110 time=0
control_change channel=13 control=11 value=109 time=24
control_change channel=13 control=11 value=127 time=24
note_on channel=13 note=52 velocity=56 time=1760
control_change channel=13 control=11 value=127 time=232
control_change channel=13 control=11 value=121 time=24
control_change channel=13 control=11 value=115 time=24
control_change channel=13 control=11 value=109 time=24
control_change channel=13 control=11 value=103 time=24
control_change channel=13 control=11 value=96 time=24
control_change channel=13 control=11 value=90 time=24
control_change channel=13 control=11 value=84 time=24
control_change channel=13 control=11 value=88 time=96
control_change channel=13 control=11 value=91 time=96
control_change channel=13 control=11 value=94 time=72
control_change channel=13 control=11 value=98 time=96
control_change channel=13 control=11 value=101 time=96
control_change channel=13 control=11 value=104 time=48
control_change channel=13 control=11 value=108 time=96
control_change channel=13 control=11 value=111 time=96
control_change channel=13 control=11 value=114 time=72
control_change channel=13 control=11 value=118 time=72
control_change channel=13 control=11 value=121 time=96
control_change channel=13 control=11 value=124 time=72
control_change channel=13 control=11 value=127 time=48
note_off channel=13 note=52 velocity=64 time=104
note_on channel=13 note=52 velocity=56 time=40
note_off channel=13 note=52 velocity=64 time=296
note_on channel=13 note=50 velocity=56 time=24
note_off channel=13 note=50 velocity=64 time=136
note_on channel=13 note=58 velocity=62 time=3224
note_off channel=13 note=58 velocity=64 time=580
note_on channel=13 note=57 velocity=62 time=60
note_off channel=13 note=57 velocity=64 time=144
note_on channel=13 note=57 velocity=62 time=336
note_off channel=13 note=57 velocity=64 time=296
note_on channel=13 note=55 velocity=62 time=24
note_off channel=13 note=55 velocity=64 time=136
note_on channel=13 note=57 velocity=56 time=24
note_off channel=13 note=57 velocity=64 time=56
note_on channel=13 note=57 velocity=62 time=24
note_off channel=13 note=57 velocity=64 time=68
note_on channel=13 note=55 velocity=62 time=332
note_off channel=13 note=55 velocity=64 time=308
control_change channel=13 control=11 value=104 time=12
note_on channel=13 note=57 velocity=69 time=0
control_change channel=13 control=11 value=105 time=100
control_change channel=13 control=11 value=108 time=80
control_change channel=13 control=11 value=109 time=100
control_change channel=13 control=11 value=111 time=100
control_change channel=13 control=11 value=114 time=90
control_change channel=13 control=11 value=115 time=100
control_change channel=13 control=11 value=118 time=70
control_change channel=13 control=11 value=119 time=100
control_change channel=13 control=11 value=121 time=100
control_change channel=13 control=11 value=124 time=90
control_change channel=13 control=11 value=125 time=100
control_change channel=13 control=11 value=127 time=10
note_off channel=13 note=57 velocity=64 time=80
note_on channel=13 note=52 velocity=69 time=320
note_on channel=13 note=51 velocity=40 time=112
note_on channel=13 note=50 velocity=28 time=40
note_off channel=13 note=52 velocity=64 time=4
note_off channel=13 note=51 velocity=64 time=8
note_on channel=13 note=49 velocity=17 time=28
note_off channel=13 note=50 velocity=64 time=12
note_off channel=13 note=49 velocity=64 time=40
note_on channel=13 note=50 velocity=69 time=236
note_off channel=13 note=50 velocity=64 time=592
note_on channel=13 note=50 velocity=62 time=48
note_off channel=13 note=50 velocity=64 time=296
note_on channel=13 note=50 velocity=50 time=24
note_off channel=13 note=50 velocity=64 time=136
note_on channel=13 note=55 velocity=62 time=24
note_off channel=13 note=55 velocity=64 time=284
note_on channel=13 note=55 velocity=62 time=36
note_off channel=13 note=55 velocity=64 time=156
note_on channel=13 note=54 velocity=62 time=324
control_change channel=13 control=11 value=127 time=160
control_change channel=13 control=11 value=125 time=120
control_change channel=13 control=11 value=123 time=120
control_change channel=13 control=11 value=121 time=120
control_change channel=13 control=11 value=119 time=120
control_change channel=13 control=11 value=118 time=120
control_change channel=13 control=11 value=115 time=120
control_change channel=13 control=11 value=114 time=120
control_change channel=13 control=11 value=111 time=120
control_change channel=13 control=11 value=110 time=120
control_change channel=13 control=11 value=108 time=120
control_change channel=13 control=11 value=106 time=120
control_change channel=13 control=11 value=104 time=120
control_change channel=13 control=11 value=103 time=120
control_change channel=13 control=11 value=100 time=120
control_change channel=13 control=11 value=99 time=120
note_off channel=13 note=54 velocity=64 time=60
control_change channel=13 control=11 value=96 time=36
control_change channel=13 control=11 value=127 time=24
note_on channel=13 note=57 velocity=69 time=320
note_on channel=13 note=56 velocity=30 time=112
note_on channel=13 note=55 velocity=20 time=40
note_off channel=13 note=57 velocity=64 time=4
note_off channel=13 note=56 velocity=64 time=8
note_off channel=13 note=55 velocity=64 time=40
note_on channel=13 note=57 velocity=69 time=276
note_off channel=13 note=57 velocity=64 time=580
note_on channel=13 note=57 velocity=69 time=60
note_off channel=13 note=57 velocity=64 time=168
note_on channel=13 note=57 velocity=69 time=632
note_on channel=13 note=56 velocity=32 time=112
note_on channel=13 note=55 velocity=23 time=40
note_off channel=13 note=57 velocity=64 time=4
note_off channel=13 note=56 velocity=64 time=8
note_off channel=13 note=55 velocity=64 time=40
note_on channel=13 note=54 velocity=69 time=276
note_off channel=13 note=54 velocity=64 time=580
note_on channel=13 note=55 velocity=69 time=60
note_off channel=13 note=55 velocity=64 time=168
note_on channel=13 note=55 velocity=62 time=632
note_off channel=13 note=55 velocity=64 time=444
note_on channel=13 note=55 velocity=65 time=36
note_off channel=13 note=55 velocity=64 time=444
note_on channel=13 note=58 velocity=69 time=36
note_off channel=13 note=58 velocity=64 time=444
note_on channel=13 note=55 velocity=61 time=36
note_off channel=13 note=55 velocity=64 time=136
note_on channel=13 note=58 velocity=72 time=24
note_off channel=13 note=58 velocity=64 time=148
note_on channel=13 note=55 velocity=60 time=12
note_off channel=13 note=55 velocity=64 time=148
note_on channel=13 note=63 velocity=74 time=12
note_off channel=13 note=63 velocity=64 time=924
note_on channel=13 note=53 velocity=69 time=36
note_off channel=13 note=53 velocity=64 time=604
note_on channel=13 note=53 velocity=62 time=36
note_off channel=13 note=53 velocity=64 time=284
note_on channel=13 note=53 velocity=65 time=36
note_off channel=13 note=53 velocity=64 time=124
note_on channel=13 note=61 velocity=64 time=12996
note_off channel=13 note=61 velocity=64 time=308
control_change channel=13 control=11 value=109 time=12
note_on channel=13 note=60 velocity=75 time=0
control_change channel=13 control=11 value=110 time=120
control_change channel=13 control=11 value=111 time=110
control_change channel=13 control=11 value=113 time=110
control_change channel=13 control=11 value=114 time=110
control_change channel=13 control=11 value=115 time=110
control_change channel=13 control=11 value=116 time=110
control_change channel=13 control=11 value=118 time=110
control_change channel=13 control=11 value=119 time=120
control_change channel=13 control=11 value=120 time=110
control_change channel=13 control=11 value=121 time=110
control_change channel=13 control=11 value=123 time=110
control_change channel=13 control=11 value=124 time=110
control_change channel=13 control=11 value=125 time=110
note_off channel=13 note=60 velocity=64 time=102
control_change channel=13 control=11 value=127 time=8
note_on channel=13 note=62 velocity=75 time=360
note_off channel=13 note=62 velocity=64 time=604
note_on channel=13 note=59 velocity=75 time=36
note_off channel=13 note=59 velocity=64 time=296
note_on channel=13 note=59 velocity=75 time=24
note_off channel=13 note=59 velocity=64 time=136
note_on channel=13 note=58 velocity=75 time=824
note_off channel=13 note=58 velocity=64 time=604
note_on channel=13 note=56 velocity=75 time=36
note_off channel=13 note=56 velocity=64 time=296
note_on channel=13 note=57 velocity=75 time=24
note_off channel=13 note=57 velocity=64 time=136
note_on channel=13 note=62 velocity=75 time=824
note_off channel=13 note=62 velocity=64 time=604
note_on channel=13 note=59 velocity=75 time=36
note_off channel=13 note=59 velocity=64 time=296
note_on channel=13 note=60 velocity=75 time=24
note_off channel=13 note=60 velocity=64 time=136
note_on channel=13 note=60 velocity=75 time=824
note_off channel=13 note=60 velocity=64 time=604
note_on channel=13 note=56 velocity=75 time=36
note_off channel=13 note=56 velocity=64 time=296
note_on channel=13 note=57 velocity=75 time=24
note_off channel=13 note=57 velocity=64 time=136
note_on channel=13 note=62 velocity=75 time=824
note_off channel=13 note=62 velocity=64 time=580
note_on channel=13 note=64 velocity=75 time=60
note_off channel=13 note=64 velocity=64 time=168
note_on channel=13 note=62 velocity=75 time=312
note_off channel=13 note=62 velocity=64 time=168
note_on channel=13 note=62 velocity=75 time=312
note_off channel=13 note=62 velocity=64 time=296
note_on channel=13 note=65 velocity=62 time=24
note_off channel=13 note=65 velocity=64 time=148
note_on channel=13 note=62 velocity=75 time=12
note_off channel=13 note=62 velocity=64 time=311
note_on channel=13 note=62 velocity=75 time=9
control_change channel=13 control=11 value=127 time=16
control_change channel=13 control=11 value=124 time=96
control_change channel=13 control=11 value=121 time=96
control_change channel=13 control=11 value=119 time=120
control_change channel=13 control=11 value=116 time=48
control_change channel=13 control=11 value=114 time=120
control_change channel=13 control=11 value=111 time=72
control_change channel=13 control=11 value=109 time=120
control_change channel=13 control=11 value=106 time=48
control_change channel=13 control=11 value=104 time=120
control_change channel=13 control=11 value=101 time=72
control_change channel=13 control=11 value=99 time=120
note_off channel=13 note=62 velocity=64 time=24
control_change channel=13 control=11 value=96 time=24
control_change channel=13 control=11 value=127 time=0
control_change channel=13 control=11 value=127 time=24
note_on channel=13 note=60 velocity=75 time=320
note_on channel=13 note=59 velocity=30 time=112
note_on channel=13 note=58 velocity=20 time=40
note_off channel=13 note=60 velocity=64 time=8
note_off channel=13 note=59 velocity=64 time=4
note_off channel=13 note=58 velocity=64 time=40
note_on channel=13 note=60 velocity=75 time=436
note_off channel=13 note=60 velocity=64 time=168
note_on channel=13 note=60 velocity=75 time=312
note_off channel=13 note=60 velocity=64 time=168
note_on channel=13 note=63 velocity=75 time=792
note_off channel=13 note=63 velocity=64 time=296
note_on channel=13 note=63 velocity=75 time=24
note_off channel=13 note=63 velocity=64 time=192
note_on channel=13 note=60 velocity=62 time=288
note_off channel=13 note=60 velocity=64 time=148
note_on channel=13 note=63 velocity=75 time=12
note_off channel=13 note=63 velocity=64 time=308
note_on channel=13 note=63 velocity=69 time=12
note_off channel=13 note=63 velocity=64 time=136
note_on channel=13 note=62 velocity=75 time=24
note_off channel=13 note=62 velocity=64 time=296
note_on channel=13 note=58 velocity=75 time=24
note_off channel=13 note=58 velocity=64 time=136
note_on channel=13 note=59 velocity=75 time=1944
note_off channel=13 note=59 velocity=64 time=168
note_on channel=13 note=58 velocity=75 time=312
note_off channel=13 note=58 velocity=64 time=296
note_on channel=13 note=58 velocity=75 time=24
note_off channel=13 note=58 velocity=64 time=180
note_on channel=13 note=64 velocity=75 time=300
note_on channel=13 note=66 velocity=54 time=1440
note_off channel=13 note=64 velocity=64 time=16
note_on channel=13 note=65 velocity=62 time=64
note_off channel=13 note=66 velocity=64 time=24
note_on channel=13 note=64 velocity=74 time=56
note_off channel=13 note=65 velocity=64 time=24
note_off channel=13 note=64 velocity=64 time=284
note_on channel=13 note=56 velocity=75 time=12
pitchwheel channel=13 pitch=0 time=160
control_change channel=13 control=11 value=127 time=0
pitchwheel channel=13 pitch=242 time=12
control_change channel=13 control=11 value=124 time=72
control_change channel=13 control=11 value=121 time=72
pitchwheel channel=13 pitch=0 time=48
control_change channel=13 control=11 value=119 time=60
control_change channel=13 control=11 value=116 time=48
pitchwheel channel=13 pitch=-82 time=36
control_change channel=13 control=11 value=114 time=72
pitchwheel channel=13 pitch=-244 time=24
control_change channel=13 control=11 value=111 time=24
pitchwheel channel=13 pitch=-407 time=48
pitchwheel channel=13 pitch=-569 time=60
control_change channel=13 control=11 value=109 time=0
control_change channel=13 control=11 value=106 time=48
pitchwheel channel=13 pitch=-731 time=12
pitchwheel channel=13 pitch=-893 time=36
pitchwheel channel=13 pitch=-1055 time=48
control_change channel=13 control=11 value=104 time=12
pitchwheel channel=13 pitch=-1218 time=24
pitchwheel channel=13 pitch=-1380 time=24
control_change channel=13 control=11 value=101 time=0
pitchwheel channel=13 pitch=-1542 time=36
pitchwheel channel=13 pitch=-1704 time=24
pitchwheel channel=13 pitch=-1866 time=12
pitchwheel channel=13 pitch=-2029 time=24
pitchwheel channel=13 pitch=-2191 time=12
control_change channel=13 control=11 value=99 time=0
pitchwheel channel=13 pitch=-2353 time=12
note_off channel=13 note=56 velocity=64 time=12
pitchwheel channel=13 pitch=-2515 time=0
pitchwheel channel=13 pitch=-2840 time=12
control_change channel=13 control=11 value=96 time=12
control_change channel=13 control=11 value=127 time=24
pitchwheel channel=13 pitch=0 time=0
note_on channel=13 note=58 velocity=75 time=1280
note_off channel=13 note=58 velocity=64 time=604
note_on channel=13 note=62 velocity=75 time=36
note_off channel=13 note=62 velocity=64 time=180
note_on channel=13 note=62 velocity=75 time=300
note_off channel=13 note=62 velocity=64 time=296
note_on channel=13 note=62 velocity=75 time=24
note_off channel=13 note=62 velocity=64 time=136
note_on channel=13 note=62 velocity=75 time=344
note_off channel=13 note=62 velocity=64 time=180
note_on channel=13 note=62 velocity=69 time=300
note_off channel=13 note=62 velocity=64 time=148
note_on channel=13 note=58 velocity=75 time=12
note_off channel=13 note=58 velocity=64 time=456
note_on channel=13 note=60 velocity=75 time=24
note_off channel=13 note=60 velocity=64 time=156
note_on channel=13 note=63 velocity=81 time=804
note_off channel=13 note=63 velocity=64 time=912
note_on channel=13 note=63 velocity=75 time=48
note_off channel=13 note=63 velocity=64 time=180
control_change channel=13 control=11 value=104 time=300
note_on channel=13 note=61 velocity=81 time=0
control_change channel=13 control=11 value=106 time=108
control_change channel=13 control=11 value=109 time=108
note_off channel=13 note=61 velocity=64 time=92
note_on channel=13 note=61 velocity=81 time=12
control_change channel=13 control=11 value=111 time=4
control_change channel=13 control=11 value=114 time=108
control_change channel=13 control=11 value=116 time=108
control_change channel=13 control=11 value=119 time=108
control_change channel=13 control=11 value=121 time=108
control_change channel=13 control=11 value=124 time=108
note_off channel=13 note=61 velocity=64 time=60
control_change channel=13 control=11 value=127 time=36
control_change channel=13 control=11 value=127 time=0
note_on channel=13 note=60 velocity=81 time=0
control_change channel=13 control=11 value=124 time=84
control_change channel=13 control=11 value=121 time=84
control_change channel=13 control=11 value=119 time=108
note_off channel=13 note=60 velocity=64 time=32
note_on channel=13 note=58 velocity=81 time=12
control_change channel=13 control=11 value=116 time=4
control_change channel=13 control=11 value=114 time=108
control_change channel=13 control=11 value=111 time=48
control_change channel=13 control=11 value=109 time=108
control_change channel=13 control=11 value=106 time=60
control_change channel=13 control=11 value=104 time=108
control_change channel=13 control=11 value=101 time=48
note_off channel=13 note=58 velocity=64 time=108
control_change channel=13 control=11 value=127 time=48
note_on channel=13 note=52 velocity=56 time=1760
control_change channel=13 control=11 value=127 time=232
control_change channel=13 control=11 value=121 time=24
control_change channel=13 control=11 value=115 time=24
control_change channel=13 control=11 value=109 time=24
control_change channel=13 control=11 value=103 time=24
control_change channel=13 control=11 value=96 time=24
control_change channel=13 control=11 value=90 time=24
control_change channel=13 control=11 value=84 time=24
control_change channel=13 control=11 value=84 time=24
control_change channel=13 control=11 value=86 time=120
control_change channel=13 control=11 value=89 time=48
control_change channel=13 control=11 value=93 time=120
control_change channel=13 control=11 value=95 time=120
control_change channel=13 control=11 value=98 time=48
control_change channel=13 control=11 value=101 time=120
control_change channel=13 control=11 value=104 time=96
control_change channel=13 control=11 value=108 time=120
control_change channel=13 control=11 value=111 time=120
control_change channel=13 control=11 value=114 time=72
control_change channel=13 control=11 value=116 time=120
control_change channel=13 control=11 value=119 time=48
control_change channel=13 control=11 value=123 time=120
control_change channel=13 control=11 value=127 time=120
note_off channel=13 note=52 velocity=64 time=80
note_on channel=13 note=50 velocity=56 time=24
note_off channel=13 note=50 velocity=64 time=136
note_on channel=13 note=54 velocity=56 time=1784
control_change channel=13 control=11 value=127 time=232
control_change channel=13 control=11 value=121 time=24
control_change channel=13 control=11 value=115 time=24
control_change channel=13 control=11 value=109 time=24
control_change channel=13 control=11 value=103 time=24
control_change channel=13 control=11 value=96 time=24
control_change channel=13 control=11 value=90 time=24
control_change channel=13 control=11 value=84 time=24
control_change channel=13 control=11 value=84 time=24
control_change channel=13 control=11 value=86 time=120
control_change channel=13 control=11 value=89 time=48
control_change channel=13 control=11 value=93 time=120
control_change channel=13 control=11 value=95 time=120
control_change channel=13 control=11 value=98 time=48
control_change channel=13 control=11 value=101 time=120
control_change channel=13 control=11 value=104 time=96
control_change channel=13 control=11 value=108 time=120
control_change channel=13 control=11 value=111 time=120
control_change channel=13 control=11 value=114 time=72
control_change channel=13 control=11 value=116 time=120
control_change channel=13 control=11 value=119 time=48
control_change channel=13 control=11 value=123 time=120
control_change channel=13 control=11 value=127 time=120
note_off channel=13 note=54 velocity=64 time=80
note_on channel=13 note=53 velocity=56 time=24
note_off channel=13 note=53 velocity=64 time=136
note_on channel=13 note=52 velocity=56 time=1784
control_change channel=13 control=11 value=127 time=232
control_change channel=13 control=11 value=121 time=24
control_change channel=13 control=11 value=115 time=24
control_change channel=13 control=11 value=109 time=24
control_change channel=13 control=11 value=103 time=24
control_change channel=13 control=11 value=96 time=24
control_change channel=13 control=11 value=90 time=24
control_change channel=13 control=11 value=84 time=24
control_change channel=13 control=11 value=84 time=24
control_change channel=13 control=11 value=86 time=120
control_change channel=13 control=11 value=89 time=48
control_change channel=13 control=11 value=93 time=120
control_change channel=13 control=11 value=95 time=120
control_change channel=13 control=11 value=98 time=48
control_change channel=13 control=11 value=101 time=120
control_change channel=13 control=11 value=104 time=96
control_change channel=13 control=11 value=108 time=120
control_change channel=13 control=11 value=111 time=120
control_change channel=13 control=11 value=114 time=72
control_change channel=13 control=11 value=116 time=120
control_change channel=13 control=11 value=119 time=48
control_change channel=13 control=11 value=123 time=120
control_change channel=13 control=11 value=127 time=120
note_off channel=13 note=52 velocity=64 time=80
note_on channel=13 note=58 velocity=75 time=4344
note_off channel=13 note=58 velocity=64 time=168
note_on channel=13 note=60 velocity=75 time=312
note_off channel=13 note=60 velocity=64 time=136
note_on channel=13 note=62 velocity=75 time=24
note_off channel=13 note=62 velocity=64 time=168
note_on channel=13 note=62 velocity=75 time=312
note_off channel=13 note=62 velocity=64 time=168
control_change channel=13 control=93 value=30 time=312
note_on channel=13 note=61 velocity=75 time=0
note_off channel=13 note=61 velocity=64 time=444
note_on channel=13 note=61 velocity=75 time=36
note_off channel=13 note=61 velocity=64 time=296
note_on channel=13 note=61 velocity=75 time=24
note_off channel=13 note=61 velocity=64 time=136
note_on channel=13 note=57 velocity=75 time=824
note_off channel=13 note=57 velocity=64 time=604
note_on channel=13 note=60 velocity=75 time=36
note_off channel=13 note=60 velocity=64 time=296
note_on channel=13 note=57 velocity=64 time=24
note_off channel=13 note=57 velocity=64 time=136
note_on channel=13 note=62 velocity=75 time=24
note_off channel=13 note=62 velocity=64 time=284
note_on channel=13 note=64 velocity=75 time=36
note_off channel=13 note=64 velocity=64 time=168
note_on channel=13 note=63 velocity=75 time=312
note_off channel=13 note=63 velocity=64 time=604
note_on channel=13 note=63 velocity=75 time=36
note_off channel=13 note=63 velocity=64 time=296
note_on channel=13 note=63 velocity=75 time=24
note_off channel=13 note=63 velocity=64 time=124
note_on channel=13 note=59 velocity=75 time=1316
note_off channel=13 note=59 velocity=64 time=568
note_on channel=13 note=59 velocity=75 time=72
note_off channel=13 note=59 velocity=64 time=156
note_on channel=13 note=59 velocity=75 time=324
note_off channel=13 note=59 velocity=64 time=156
note_on channel=13 note=58 velocity=75 time=324
note_off channel=13 note=58 velocity=64 time=782
note_on channel=13 note=61 velocity=75 time=18
note_off channel=13 note=61 velocity=64 time=1060
note_on channel=13 note=63 velocity=75 time=380
note_off channel=13 note=63 velocity=64 time=580
note_on channel=13 note=64 velocity=75 time=60
note_off channel=13 note=64 velocity=64 time=168
note_on channel=13 note=62 velocity=75 time=312
note_off channel=13 note=62 velocity=64 time=168
note_on channel=13 note=63 velocity=75 time=312
note_off channel=13 note=63 velocity=64 time=782
note_on channel=13 note=64 velocity=75 time=18
note_off channel=13 note=64 velocity=64 time=1060
note_on channel=13 note=48 velocity=56 time=5820
note_off channel=13 note=48 velocity=64 time=80
note_on channel=13 note=48 velocity=62 time=0
note_off channel=13 note=48 velocity=64 time=80
note_on channel=13 note=51 velocity=40 time=640
control_change channel=13 control=11 value=127 time=1120
control_change channel=13 control=11 value=125 time=120
control_change channel=13 control=11 value=124 time=120
control_change channel=13 control=11 value=123 time=120
control_change channel=13 control=11 value=121 time=120
control_change channel=13 control=11 value=120 time=120
control_change channel=13 control=11 value=119 time=120
control_change channel=13 control=11 value=118 time=120
control_change channel=13 control=11 value=116 time=120
control_change channel=13 control=11 value=115 time=120
control_change channel=13 control=11 value=114 time=120
control_change channel=13 control=11 value=113 time=120
control_change channel=13 control=11 value=111 time=120
control_change channel=13 control=11 value=110 time=120
control_change channel=13 control=11 value=109 time=120
control_change channel=13 control=11 value=108 time=120
control_change channel=13 control=11 value=106 time=120
control_change channel=13 control=11 value=105 time=120
control_change channel=13 control=11 value=104 time=120
control_change channel=13 control=11 value=103 time=120
control_change channel=13 control=11 value=101 time=120
control_change channel=13 control=11 value=100 time=120
control_change channel=13 control=11 value=99 time=120
control_change channel=13 control=11 value=98 time=120
note_off channel=13 note=51 velocity=64 time=96
<meta message end_of_track time=0>
<meta message text text='Trombone 3' time=0>
control_change channel=14 control=11 value=127 time=0
control_change channel=14 control=7 value=106 time=0
control_change channel=14 control=10 value=94 time=0
control_change channel=14 control=91 value=85 time=0
control_change channel=14 control=93 value=25 time=0
control_change channel=14 control=0 value=56 time=0
control_change channel=14 control=32 value=0 time=0
program_change channel=14 program=57 time=0
control_change channel=14 control=11 value=109 time=9944
note_on channel=14 note=57 velocity=60 time=0
control_change channel=14 control=11 value=110 time=250
control_change channel=14 control=11 value=111 time=250
control_change channel=14 control=11 value=113 time=250
control_change channel=14 control=11 value=114 time=250
control_change channel=14 control=11 value=115 time=240
control_change channel=14 control=11 value=116 time=250
note_off channel=14 note=57 velocity=64 time=74
note_on channel=14 note=54 velocity=62 time=36
control_change channel=14 control=11 value=118 time=140
control_change channel=14 control=11 value=119 time=250
control_change channel=14 control=11 value=120 time=250
control_change channel=14 control=11 value=121 time=240
control_change channel=14 control=11 value=123 time=250
control_change channel=14 control=11 value=124 time=250
control_change channel=14 control=11 value=125 time=250
control_change channel=14 control=11 value=127 time=240
note_off channel=14 note=54 velocity=64 time=14
note_on channel=14 note=53 velocity=75 time=332
note_off channel=14 note=53 velocity=64 time=580
note_on channel=14 note=53 velocity=77 time=60
note_off channel=14 note=53 velocity=64 time=168
note_on channel=14 note=53 velocity=79 time=312
note_off channel=14 note=53 velocity=64 time=168
note_on channel=14 note=52 velocity=81 time=312
note_off channel=14 note=52 velocity=64 time=764
note_on channel=14 note=52 velocity=84 time=36
note_off channel=14 note=52 velocity=64 time=592
note_on channel=14 note=52 velocity=86 time=48
note_off channel=14 note=52 velocity=64 time=272
note_on channel=14 note=57 velocity=86 time=48
note_off channel=14 note=57 velocity=64 time=124
note_on channel=14 note=50 velocity=45 time=19556
note_off channel=14 note=50 velocity=64 time=124
note_on channel=14 note=54 velocity=50 time=36
note_off channel=14 note=54 velocity=64 time=132
note_on channel=14 note=55 velocity=45 time=348
note_off channel=14 note=55 velocity=64 time=294
control_change channel=14 control=11 value=109 time=26
note_on channel=14 note=58 velocity=52 time=0
control_change channel=14 control=11 value=110 time=100
control_change channel=14 control=11 value=111 time=100
control_change channel=14 control=11 value=113 time=100
control_change channel=14 control=11 value=114 time=100
control_change channel=14 control=11 value=115 time=100
control_change channel=14 control=11 value=116 time=100
note_off channel=14 note=58 velocity=64 time=12
note_on channel=14 note=59 velocity=50 time=28
control_change channel=14 control=11 value=118 time=60
control_change channel=14 control=11 value=119 time=100
control_change channel=14 control=11 value=120 time=100
control_change channel=14 control=11 value=121 time=100
control_change channel=14 control=11 value=123 time=100
control_change channel=14 control=11 value=124 time=100
control_change channel=14 control=11 value=125 time=100
control_change channel=14 control=11 value=127 time=60
note_off channel=14 note=59 velocity=64 time=32
note_on channel=14 note=56 velocity=55 time=48
note_off channel=14 note=56 velocity=64 time=112
note_on channel=14 note=56 velocity=50 time=368
note_off channel=14 note=56 velocity=64 time=144
note_on channel=14 note=56 velocity=45 time=336
note_off channel=14 note=56 velocity=64 time=136
note_on channel=14 note=48 velocity=50 time=24
note_off channel=14 note=48 velocity=64 time=284
note_on channel=14 note=48 velocity=45 time=36
note_off channel=14 note=48 velocity=64 time=136
note_on channel=14 note=48 velocity=50 time=24
note_off channel=14 note=48 velocity=64 time=120
note_on channel=14 note=48 velocity=50 time=360
note_off channel=14 note=48 velocity=64 time=284
note_on channel=14 note=55 velocity=50 time=36
note_off channel=14 note=55 velocity=64 time=120
note_on channel=14 note=54 velocity=50 time=360
control_change channel=14 control=11 value=127 time=232
control_change channel=14 control=11 value=120 time=24
control_change channel=14 control=11 value=114 time=24
control_change channel=14 control=11 value=108 time=24
control_change channel=14 control=11 value=101 time=24
control_change channel=14 control=11 value=94 time=24
control_change channel=14 control=11 value=96 time=120
control_change channel=14 control=11 value=99 time=120
control_change channel=14 control=11 value=101 time=120
control_change channel=14 control=11 value=104 time=120
control_change channel=14 control=11 value=106 time=120
control_change channel=14 control=11 value=109 time=120
control_change channel=14 control=11 value=111 time=120
control_change channel=14 control=11 value=114 time=120
control_change channel=14 control=11 value=116 time=120
control_change channel=14 control=11 value=119 time=120
control_change channel=14 control=11 value=121 time=120
control_change channel=14 control=11 value=124 time=120
control_change channel=14 control=11 value=127 time=120
note_off channel=14 note=54 velocity=64 time=120
note_on channel=14 note=45 velocity=52 time=1008
note_off channel=14 note=45 velocity=64 time=284
note_on channel=14 note=45 velocity=55 time=36
note_off channel=14 note=45 velocity=64 time=108
note_on channel=14 note=55 velocity=60 time=372
note_off channel=14 note=55 velocity=64 time=592
note_on channel=14 note=55 velocity=55 time=48
note_off channel=14 note=55 velocity=64 time=296
note_on channel=14 note=55 velocity=45 time=24
note_off channel=14 note=55 velocity=64 time=134
note_on channel=14 note=57 velocity=50 time=826
control_change channel=14 control=11 value=127 time=232
control_change channel=14 control=11 value=120 time=24
control_change channel=14 control=11 value=114 time=24
control_change channel=14 control=11 value=108 time=24
control_change channel=14 control=11 value=101 time=24
control_change channel=14 control=11 value=95 time=24
control_change channel=14 control=11 value=95 time=0
control_change channel=14 control=11 value=96 time=120
control_change channel=14 control=11 value=98 time=120
control_change channel=14 control=11 value=99 time=120
control_change channel=14 control=11 value=100 time=120
control_change channel=14 control=11 value=101 time=120
control_change channel=14 control=11 value=103 time=120
control_change channel=14 control=11 value=104 time=120
control_change channel=14 control=11 value=105 time=120
control_change channel=14 control=11 value=106 time=120
control_change channel=14 control=11 value=108 time=120
control_change channel=14 control=11 value=109 time=120
control_change channel=14 control=11 value=110 time=120
control_change channel=14 control=11 value=111 time=120
control_change channel=14 control=11 value=113 time=120
control_change channel=14 control=11 value=114 time=120
control_change channel=14 control=11 value=115 time=120
control_change channel=14 control=11 value=116 time=120
control_change channel=14 control=11 value=118 time=120
control_change channel=14 control=11 value=119 time=120
control_change channel=14 control=11 value=120 time=120
control_change channel=14 control=11 value=121 time=120
control_change channel=14 control=11 value=123 time=120
control_change channel=14 control=11 value=124 time=120
control_change channel=14 control=11 value=125 time=120
control_change channel=14 control=11 value=127 time=48
note_off channel=14 note=57 velocity=64 time=192
note_on channel=14 note=50 velocity=55 time=48
note_off channel=14 note=50 velocity=64 time=284
note_on channel=14 note=50 velocity=55 time=36
note_off channel=14 note=50 velocity=64 time=112
note_on channel=14 note=43 velocity=45 time=1808
control_change channel=14 control=11 value=127 time=232
control_change channel=14 control=11 value=121 time=24
control_change channel=14 control=11 value=115 time=24
control_change channel=14 control=11 value=109 time=24
control_change channel=14 control=11 value=103 time=24
control_change channel=14 control=11 value=96 time=24
control_change channel=14 control=11 value=90 time=24
control_change channel=14 control=11 value=84 time=24
control_change channel=14 control=11 value=84 time=24
control_change channel=14 control=11 value=86 time=120
control_change channel=14 control=11 value=89 time=48
control_change channel=14 control=11 value=93 time=120
control_change channel=14 control=11 value=95 time=120
control_change channel=14 control=11 value=98 time=48
control_change channel=14 control=11 value=101 time=120
control_change channel=14 control=11 value=104 time=96
control_change channel=14 control=11 value=108 time=120
control_change channel=14 control=11 value=111 time=120
control_change channel=14 control=11 value=114 time=72
control_change channel=14 control=11 value=116 time=120
control_change channel=14 control=11 value=119 time=48
control_change channel=14 control=11 value=123 time=120
control_change channel=14 control=11 value=127 time=120
note_off channel=14 note=43 velocity=64 time=80
note_on channel=14 note=48 velocity=56 time=24
note_off channel=14 note=48 velocity=64 time=136
note_on channel=14 note=45 velocity=56 time=1784
control_change channel=14 control=11 value=127 time=232
control_change channel=14 control=11 value=121 time=24
control_change channel=14 control=11 value=115 time=24
control_change channel=14 control=11 value=109 time=24
control_change channel=14 control=11 value=103 time=24
control_change channel=14 control=11 value=96 time=24
control_change channel=14 control=11 value=90 time=24
control_change channel=14 control=11 value=84 time=24
control_change channel=14 control=11 value=84 time=24
control_change channel=14 control=11 value=86 time=120
control_change channel=14 control=11 value=89 time=48
control_change channel=14 control=11 value=93 time=120
control_change channel=14 control=11 value=95 time=120
control_change channel=14 control=11 value=98 time=48
control_change channel=14 control=11 value=101 time=120
control_change channel=14 control=11 value=104 time=96
control_change channel=14 control=11 value=108 time=120
control_change channel=14 control=11 value=111 time=120
control_change channel=14 control=11 value=114 time=72
control_change channel=14 control=11 value=116 time=120
control_change channel=14 control=11 value=119 time=48
control_change channel=14 control=11 value=123 time=120
control_change channel=14 control=11 value=127 time=120
note_off channel=14 note=45 velocity=64 time=80
note_on channel=14 note=50 velocity=56 time=24
note_off channel=14 note=50 velocity=64 time=136
note_on channel=14 note=43 velocity=56 time=1784
control_change channel=14 control=11 value=127 time=232
control_change channel=14 control=11 value=121 time=24
control_change channel=14 control=11 value=115 time=24
control_change channel=14 control=11 value=109 time=24
control_change channel=14 control=11 value=103 time=24
control_change channel=14 control=11 value=96 time=24
control_change channel=14 control=11 value=90 time=24
control_change channel=14 control=11 value=84 time=24
control_change channel=14 control=11 value=84 time=24
control_change channel=14 control=11 value=86 time=120
control_change channel=14 control=11 value=89 time=48
control_change channel=14 control=11 value=93 time=120
control_change channel=14 control=11 value=95 time=120
control_change channel=14 control=11 value=98 time=48
control_change channel=14 control=11 value=101 time=120
control_change channel=14 control=11 value=104 time=96
control_change channel=14 control=11 value=108 time=120
control_change channel=14 control=11 value=111 time=120
control_change channel=14 control=11 value=114 time=72
control_change channel=14 control=11 value=116 time=120
control_change channel=14 control=11 value=119 time=48
control_change channel=14 control=11 value=123 time=120
control_change channel=14 control=11 value=127 time=120
note_off channel=14 note=43 velocity=64 time=80
note_on channel=14 note=46 velocity=56 time=4344
note_off channel=14 note=46 velocity=64 time=136
note_on channel=14 note=54 velocity=62 time=24
note_off channel=14 note=54 velocity=64 time=144
note_on channel=14 note=55 velocity=69 time=336
note_off channel=14 note=55 velocity=64 time=296
note_on channel=14 note=58 velocity=56 time=24
note_off channel=14 note=58 velocity=64 time=136
note_on channel=14 note=62 velocity=67 time=24
note_off channel=14 note=62 velocity=64 time=296
note_on channel=14 note=61 velocity=81 time=24
note_off channel=14 note=61 velocity=64 time=604
note_on channel=14 note=61 velocity=65 time=36
note_off channel=14 note=61 velocity=64 time=308
note_on channel=14 note=58 velocity=69 time=12
control_change channel=14 control=11 value=127 time=16
control_change channel=14 control=11 value=125 time=120
control_change channel=14 control=11 value=123 time=120
control_change channel=14 control=11 value=121 time=120
control_change channel=14 control=11 value=119 time=120
control_change channel=14 control=11 value=118 time=120
control_change channel=14 control=11 value=115 time=96
control_change channel=14 control=11 value=114 time=120
control_change channel=14 control=11 value=111 time=120
note_off channel=14 note=58 velocity=64 time=120
control_change channel=14 control=11 value=110 time=0
control_change channel=14 control=11 value=109 time=24
control_change channel=14 control=11 value=127 time=24
note_on channel=14 note=50 velocity=56 time=320
note_off channel=14 note=50 velocity=64 time=136
note_on channel=14 note=50 velocity=64 time=24
note_off channel=14 note=50 velocity=64 time=144
note_on channel=14 note=51 velocity=69 time=336
note_off channel=14 note=51 velocity=64 time=296
note_on channel=14 note=51 velocity=56 time=24
note_off channel=14 note=51 velocity=64 time=136
note_on channel=14 note=54 velocity=66 time=24
note_off channel=14 note=54 velocity=64 time=296
note_on channel=14 note=55 velocity=75 time=24
note_off channel=14 note=55 velocity=64 time=604
note_on channel=14 note=55 velocity=64 time=36
note_off channel=14 note=55 velocity=64 time=308
note_on channel=14 note=54 velocity=69 time=12
control_change channel=14 control=11 value=127 time=16
control_change channel=14 control=11 value=125 time=120
control_change channel=14 control=11 value=123 time=120
control_change channel=14 control=11 value=121 time=120
control_change channel=14 control=11 value=119 time=120
control_change channel=14 control=11 value=118 time=120
control_change channel=14 control=11 value=115 time=96
control_change channel=14 control=11 value=114 time=120
control_change channel=14 control=11 value=111 time=120
note_off channel=14 note=54 velocity=64 time=120
control_change channel=14 control=11 value=110 time=0
control_change channel=14 control=11 value=109 time=24
control_change channel=14 control=11 value=127 time=24
note_on channel=14 note=43 velocity=56 time=1760
control_change channel=14 control=11 value=127 time=232
control_change channel=14 control=11 value=121 time=24
control_change channel=14 control=11 value=115 time=24
control_change channel=14 control=11 value=109 time=24
control_change channel=14 control=11 value=103 time=24
control_change channel=14 control=11 value=96 time=24
control_change channel=14 control=11 value=90 time=24
control_change channel=14 control=11 value=84 time=24
control_change channel=14 control=11 value=88 time=96
control_change channel=14 control=11 value=91 time=96
control_change channel=14 control=11 value=94 time=72
control_change channel=14 control=11 value=98 time=96
control_change channel=14 control=11 value=101 time=96
control_change channel=14 control=11 value=104 time=48
control_change channel=14 control=11 value=108 time=96
control_change channel=14 control=11 value=111 time=96
control_change channel=14 control=11 value=114 time=72
control_change channel=14 control=11 value=118 time=72
control_change channel=14 control=11 value=121 time=96
control_change channel=14 control=11 value=124 time=72
control_change channel=14 control=11 value=127 time=48
note_off channel=14 note=43 velocity=64 time=104
note_on channel=14 note=43 velocity=56 time=40
note_off channel=14 note=43 velocity=64 time=296
note_on channel=14 note=48 velocity=56 time=24
note_off channel=14 note=48 velocity=64 time=136
note_on channel=14 note=54 velocity=62 time=3224
note_off channel=14 note=54 velocity=64 time=580
note_on channel=14 note=53 velocity=62 time=60
note_off channel=14 note=53 velocity=64 time=144
note_on channel=14 note=53 velocity=62 time=336
note_off channel=14 note=53 velocity=64 time=296
note_on channel=14 note=53 velocity=62 time=24
note_off channel=14 note=53 velocity=64 time=136
note_on channel=14 note=53 velocity=56 time=24
note_off channel=14 note=53 velocity=64 time=56
note_on channel=14 note=53 velocity=62 time=24
note_off channel=14 note=53 velocity=64 time=68
note_on channel=14 note=53 velocity=62 time=332
note_off channel=14 note=53 velocity=64 time=308
control_change channel=14 control=11 value=104 time=12
note_on channel=14 note=52 velocity=69 time=0
control_change channel=14 control=11 value=105 time=100
control_change channel=14 control=11 value=108 time=80
control_change channel=14 control=11 value=109 time=100
control_change channel=14 control=11 value=111 time=100
control_change channel=14 control=11 value=114 time=90
control_change channel=14 control=11 value=115 time=100
control_change channel=14 control=11 value=118 time=70
control_change channel=14 control=11 value=119 time=100
control_change channel=14 control=11 value=121 time=100
control_change channel=14 control=11 value=124 time=90
control_change channel=14 control=11 value=125 time=100
control_change channel=14 control=11 value=127 time=10
note_off channel=14 note=52 velocity=64 time=80
note_on channel=14 note=49 velocity=69 time=320
note_on channel=14 note=48 velocity=40 time=112
note_on channel=14 note=47 velocity=28 time=40
note_off channel=14 note=49 velocity=64 time=4
note_off channel=14 note=48 velocity=64 time=8
note_on channel=14 note=46 velocity=17 time=28
note_off channel=14 note=47 velocity=64 time=12
note_off channel=14 note=46 velocity=64 time=40
note_on channel=14 note=48 velocity=69 time=236
note_off channel=14 note=48 velocity=64 time=592
note_on channel=14 note=48 velocity=62 time=48
note_off channel=14 note=48 velocity=64 time=296
note_on channel=14 note=48 velocity=50 time=24
note_off channel=14 note=48 velocity=64 time=136
note_on channel=14 note=52 velocity=62 time=24
note_off channel=14 note=52 velocity=64 time=284
note_on channel=14 note=46 velocity=62 time=36
note_off channel=14 note=46 velocity=64 time=156
note_on channel=14 note=45 velocity=62 time=324
control_change channel=14 control=11 value=127 time=160
control_change channel=14 control=11 value=125 time=120
control_change channel=14 control=11 value=123 time=120
control_change channel=14 control=11 value=121 time=120
control_change channel=14 control=11 value=119 time=120
control_change channel=14 control=11 value=118 time=120
control_change channel=14 control=11 value=115 time=120
control_change channel=14 control=11 value=114 time=120
control_change channel=14 control=11 value=111 time=120
control_change channel=14 control=11 value=110 time=120
control_change channel=14 control=11 value=108 time=120
control_change channel=14 control=11 value=106 time=120
control_change channel=14 control=11 value=104 time=120
control_change channel=14 control=11 value=103 time=120
control_change channel=14 control=11 value=100 time=120
control_change channel=14 control=11 value=99 time=120
note_off channel=14 note=45 velocity=64 time=60
control_change channel=14 control=11 value=96 time=36
control_change channel=14 control=11 value=127 time=24
note_on channel=14 note=53 velocity=69 time=320
note_on channel=14 note=52 velocity=30 time=112
note_on channel=14 note=51 velocity=20 time=40
note_off channel=14 note=53 velocity=64 time=4
note_off channel=14 note=52 velocity=64 time=8
note_off channel=14 note=51 velocity=64 time=40
note_on channel=14 note=53 velocity=69 time=276
note_off channel=14 note=53 velocity=64 time=580
note_on channel=14 note=53 velocity=69 time=60
note_off channel=14 note=53 velocity=64 time=168
note_on channel=14 note=52 velocity=69 time=632
note_on channel=14 note=51 velocity=32 time=112
note_on channel=14 note=50 velocity=23 time=40
note_off channel=14 note=52 velocity=64 time=4
note_off channel=14 note=51 velocity=64 time=8
note_off channel=14 note=50 velocity=64 time=40
note_on channel=14 note=52 velocity=69 time=276
note_off channel=14 note=52 velocity=64 time=580
note_on channel=14 note=52 velocity=69 time=60
note_off channel=14 note=52 velocity=64 time=168
note_on channel=14 note=51 velocity=62 time=632
note_off channel=14 note=51 velocity=64 time=444
note_on channel=14 note=51 velocity=65 time=36
note_off channel=14 note=51 velocity=64 time=444
note_on channel=14 note=55 velocity=69 time=36
note_off channel=14 note=55 velocity=64 time=444
note_on channel=14 note=51 velocity=61 time=36
note_off channel=14 note=51 velocity=64 time=136
note_on channel=14 note=55 velocity=72 time=24
note_off channel=14 note=55 velocity=64 time=148
note_on channel=14 note=51 velocity=60 time=12
note_off channel=14 note=51 velocity=64 time=148
note_on channel=14 note=60 velocity=74 time=12
note_off channel=14 note=60 velocity=64 time=924
note_on channel=14 note=51 velocity=69 time=36
note_off channel=14 note=51 velocity=64 time=604
note_on channel=14 note=50 velocity=62 time=36
note_off channel=14 note=50 velocity=64 time=284
note_on channel=14 note=50 velocity=65 time=36
note_off channel=14 note=50 velocity=64 time=124
note_on channel=14 note=55 velocity=64 time=12996
note_off channel=14 note=55 velocity=64 time=308
control_change channel=14 control=11 value=109 time=12
note_on channel=14 note=54 velocity=75 time=0
control_change channel=14 control=11 value=110 time=120
control_change channel=14 control=11 value=111 time=110
control_change channel=14 control=11 value=113 time=110
control_change channel=14 control=11 value=114 time=110
control_change channel=14 control=11 value=115 time=110
control_change channel=14 control=11 value=116 time=110
control_change channel=14 control=11 value=118 time=110
control_change channel=14 control=11 value=119 time=120
control_change channel=14 control=11 value=120 time=110
control_change channel=14 control=11 value=121 time=110
control_change channel=14 control=11 value=123 time=110
control_change channel=14 control=11 value=124 time=110
control_change channel=14 control=11 value=125 time=110
note_off channel=14 note=54 velocity=64 time=102
control_change channel=14 control=11 value=127 time=8
note_on channel=14 note=59 velocity=75 time=360
note_off channel=14 note=59 velocity=64 time=604
note_on channel=14 note=56 velocity=75 time=36
note_off channel=14 note=56 velocity=64 time=296
note_on channel=14 note=57 velocity=75 time=24
note_off channel=14 note=57 velocity=64 time=136
note_on channel=14 note=55 velocity=75 time=824
note_off channel=14 note=55 velocity=64 time=604
note_on channel=14 note=52 velocity=75 time=36
note_off channel=14 note=52 velocity=64 time=296
note_on channel=14 note=52 velocity=75 time=24
note_off channel=14 note=52 velocity=64 time=136
note_on channel=14 note=60 velocity=75 time=824
note_off channel=14 note=60 velocity=64 time=604
note_on channel=14 note=56 velocity=75 time=36
note_off channel=14 note=56 velocity=64 time=296
note_on channel=14 note=57 velocity=75 time=24
note_off channel=14 note=57 velocity=64 time=136
note_on channel=14 note=57 velocity=75 time=824
note_off channel=14 note=57 velocity=64 time=604
note_on channel=14 note=54 velocity=75 time=36
note_off channel=14 note=54 velocity=64 time=296
note_on channel=14 note=54 velocity=75 time=24
note_off channel=14 note=54 velocity=64 time=136
note_on channel=14 note=59 velocity=75 time=824
note_off channel=14 note=59 velocity=64 time=580
note_on channel=14 note=59 velocity=75 time=60
note_off channel=14 note=59 velocity=64 time=168
note_on channel=14 note=59 velocity=75 time=312
note_off channel=14 note=59 velocity=64 time=168
note_on channel=14 note=58 velocity=75 time=312
note_off channel=14 note=58 velocity=64 time=296
note_on channel=14 note=62 velocity=62 time=24
note_off channel=14 note=62 velocity=64 time=148
note_on channel=14 note=58 velocity=75 time=12
note_off channel=14 note=58 velocity=64 time=311
note_on channel=14 note=58 velocity=75 time=9
control_change channel=14 control=11 value=127 time=16
control_change channel=14 control=11 value=124 time=96
control_change channel=14 control=11 value=121 time=96
control_change channel=14 control=11 value=119 time=120
control_change channel=14 control=11 value=116 time=48
control_change channel=14 control=11 value=114 time=120
control_change channel=14 control=11 value=111 time=72
control_change channel=14 control=11 value=109 time=120
control_change channel=14 control=11 value=106 time=48
control_change channel=14 control=11 value=104 time=120
control_change channel=14 control=11 value=101 time=72
control_change channel=14 control=11 value=99 time=120
note_off channel=14 note=58 velocity=64 time=24
control_change channel=14 control=11 value=96 time=24
control_change channel=14 control=11 value=127 time=0
control_change channel=14 control=11 value=127 time=24
note_on channel=14 note=58 velocity=75 time=320
note_on channel=14 note=57 velocity=30 time=112
note_on channel=14 note=56 velocity=20 time=40
note_off channel=14 note=58 velocity=64 time=8
note_off channel=14 note=57 velocity=64 time=4
note_off channel=14 note=56 velocity=64 time=40
note_on channel=14 note=58 velocity=75 time=436
note_off channel=14 note=58 velocity=64 time=168
note_on channel=14 note=58 velocity=75 time=312
note_off channel=14 note=58 velocity=64 time=168
note_on channel=14 note=60 velocity=75 time=792
note_off channel=14 note=60 velocity=64 time=296
note_on channel=14 note=60 velocity=75 time=24
note_off channel=14 note=60 velocity=64 time=192
note_on channel=14 note=57 velocity=62 time=288
note_off channel=14 note=57 velocity=64 time=148
note_on channel=14 note=60 velocity=75 time=12
note_off channel=14 note=60 velocity=64 time=308
note_on channel=14 note=60 velocity=69 time=12
note_off channel=14 note=60 velocity=64 time=136
note_on channel=14 note=60 velocity=75 time=24
note_off channel=14 note=60 velocity=64 time=296
note_on channel=14 note=55 velocity=75 time=24
note_off channel=14 note=55 velocity=64 time=136
note_on channel=14 note=57 velocity=75 time=1944
note_off channel=14 note=57 velocity=64 time=168
note_on channel=14 note=56 velocity=75 time=312
note_off channel=14 note=56 velocity=64 time=296
note_on channel=14 note=56 velocity=75 time=24
note_off channel=14 note=56 velocity=64 time=180
note_on channel=14 note=60 velocity=75 time=300
note_on channel=14 note=62 velocity=54 time=1440
note_off channel=14 note=60 velocity=64 time=16
note_on channel=14 note=61 velocity=62 time=64
note_off channel=14 note=62 velocity=64 time=24
note_on channel=14 note=60 velocity=74 time=56
note_off channel=14 note=61 velocity=64 time=24
note_off channel=14 note=60 velocity=64 time=284
note_on channel=14 note=54 velocity=75 time=12
pitchwheel channel=14 pitch=0 time=160
control_change channel=14 control=11 value=127 time=0
pitchwheel channel=14 pitch=242 time=12
control_change channel=14 control=11 value=124 time=72
control_change channel=14 control=11 value=121 time=72
pitchwheel channel=14 pitch=0 time=48
control_change channel=14 control=11 value=119 time=60
control_change channel=14 control=11 value=116 time=48
pitchwheel channel=14 pitch=-82 time=36
control_change channel=14 control=11 value=114 time=72
pitchwheel channel=14 pitch=-244 time=24
control_change channel=14 control=11 value=111 time=24
pitchwheel channel=14 pitch=-407 time=48
pitchwheel channel=14 pitch=-569 time=60
control_change channel=14 control=11 value=109 time=0
control_change channel=14 control=11 value=106 time=48
pitchwheel channel=14 pitch=-731 time=12
pitchwheel channel=14 pitch=-893 time=36
pitchwheel channel=14 pitch=-1055 time=48
control_change channel=14 control=11 value=104 time=12
pitchwheel channel=14 pitch=-1218 time=24
pitchwheel channel=14 pitch=-1380 time=24
control_change channel=14 control=11 value=101 time=0
pitchwheel channel=14 pitch=-1542 time=36
pitchwheel channel=14 pitch=-1704 time=24
pitchwheel channel=14 pitch=-1866 time=12
pitchwheel channel=14 pitch=-2029 time=24
pitchwheel channel=14 pitch=-2191 time=12
control_change channel=14 control=11 value=99 time=0
pitchwheel channel=14 pitch=-2353 time=12
note_off channel=14 note=54 velocity=64 time=12
pitchwheel channel=14 pitch=-2515 time=0
pitchwheel channel=14 pitch=-2840 time=12
control_change channel=14 control=11 value=96 time=12
control_change channel=14 control=11 value=127 time=24
pitchwheel channel=14 pitch=0 time=0
note_on channel=14 note=55 velocity=75 time=1280
note_off channel=14 note=55 velocity=64 time=604
note_on channel=14 note=58 velocity=75 time=36
note_off channel=14 note=58 velocity=64 time=180
note_on channel=14 note=58 velocity=75 time=300
note_off channel=14 note=58 velocity=64 time=296
note_on channel=14 note=58 velocity=75 time=24
note_off channel=14 note=58 velocity=64 time=136
note_on channel=14 note=58 velocity=75 time=344
note_off channel=14 note=58 velocity=64 time=180
note_on channel=14 note=58 velocity=69 time=300
note_off channel=14 note=58 velocity=64 time=148
note_on channel=14 note=55 velocity=75 time=12
note_off channel=14 note=55 velocity=64 time=456
note_on channel=14 note=55 velocity=75 time=24
note_off channel=14 note=55 velocity=64 time=156
note_on channel=14 note=60 velocity=81 time=804
note_off channel=14 note=60 velocity=64 time=912
note_on channel=14 note=60 velocity=75 time=48
note_off channel=14 note=60 velocity=64 time=180
control_change channel=14 control=11 value=104 time=300
note_on channel=14 note=58 velocity=81 time=0
control_change channel=14 control=11 value=106 time=108
control_change channel=14 control=11 value=109 time=108
note_off channel=14 note=58 velocity=64 time=92
note_on channel=14 note=58 velocity=81 time=12
control_change channel=14 control=11 value=111 time=4
control_change channel=14 control=11 value=114 time=108
control_change channel=14 control=11 value=116 time=108
control_change channel=14 control=11 value=119 time=108
control_change channel=14 control=11 value=121 time=108
control_change channel=14 control=11 value=124 time=108
note_off channel=14 note=58 velocity=64 time=60
control_change channel=14 control=11 value=127 time=36
control_change channel=14 control=11 value=127 time=0
note_on channel=14 note=57 velocity=81 time=0
control_change channel=14 control=11 value=124 time=84
control_change channel=14 control=11 value=121 time=84
control_change channel=14 control=11 value=119 time=108
note_off channel=14 note=57 velocity=64 time=32
note_on channel=14 note=54 velocity=81 time=12
control_change channel=14 control=11 value=116 time=4
control_change channel=14 control=11 value=114 time=108
control_change channel=14 control=11 value=111 time=48
control_change channel=14 control=11 value=109 time=108
control_change channel=14 control=11 value=106 time=60
control_change channel=14 control=11 value=104 time=108
control_change channel=14 control=11 value=101 time=48
note_off channel=14 note=54 velocity=64 time=108
control_change channel=14 control=11 value=127 time=72
note_on channel=14 note=43 velocity=56 time=1736
control_change channel=14 control=11 value=127 time=232
control_change channel=14 control=11 value=121 time=24
control_change channel=14 control=11 value=115 time=24
control_change channel=14 control=11 value=109 time=24
control_change channel=14 control=11 value=103 time=24
control_change channel=14 control=11 value=96 time=24
control_change channel=14 control=11 value=90 time=24
control_change channel=14 control=11 value=84 time=24
control_change channel=14 control=11 value=84 time=24
control_change channel=14 control=11 value=86 time=120
control_change channel=14 control=11 value=89 time=48
control_change channel=14 control=11 value=93 time=120
control_change channel=14 control=11 value=95 time=120
control_change channel=14 control=11 value=98 time=48
control_change channel=14 control=11 value=101 time=120
control_change channel=14 control=11 value=104 time=96
control_change channel=14 control=11 value=108 time=120
control_change channel=14 control=11 value=111 time=120
control_change channel=14 control=11 value=114 time=72
control_change channel=14 control=11 value=116 time=120
control_change channel=14 control=11 value=119 time=48
control_change channel=14 control=11 value=123 time=120
control_change channel=14 control=11 value=127 time=120
note_off channel=14 note=43 velocity=64 time=80
note_on channel=14 note=48 velocity=56 time=24
note_off channel=14 note=48 velocity=64 time=136
note_on channel=14 note=45 velocity=56 time=1784
control_change channel=14 control=11 value=127 time=232
control_change channel=14 control=11 value=121 time=24
control_change channel=14 control=11 value=115 time=24
control_change channel=14 control=11 value=109 time=24
control_change channel=14 control=11 value=103 time=24
control_change channel=14 control=11 value=96 time=24
control_change channel=14 control=11 value=90 time=24
control_change channel=14 control=11 value=84 time=24
control_change channel=14 control=11 value=84 time=24
control_change channel=14 control=11 value=86 time=120
control_change channel=14 control=11 value=89 time=48
control_change channel=14 control=11 value=93 time=120
control_change channel=14 control=11 value=95 time=120
control_change channel=14 control=11 value=98 time=48
control_change channel=14 control=11 value=101 time=120
control_change channel=14 control=11 value=104 time=96
control_change channel=14 control=11 value=108 time=120
control_change channel=14 control=11 value=111 time=120
control_change channel=14 control=11 value=114 time=72
control_change channel=14 control=11 value=116 time=120
control_change channel=14 control=11 value=119 time=48
control_change channel=14 control=11 value=123 time=120
control_change channel=14 control=11 value=127 time=120
note_off channel=14 note=45 velocity=64 time=80
note_on channel=14 note=50 velocity=56 time=24
note_off channel=14 note=50 velocity=64 time=136
note_on channel=14 note=43 velocity=56 time=1784
control_change channel=14 control=11 value=127 time=232
control_change channel=14 control=11 value=121 time=24
control_change channel=14 control=11 value=115 time=24
control_change channel=14 control=11 value=109 time=24
control_change channel=14 control=11 value=103 time=24
control_change channel=14 control=11 value=96 time=24
control_change channel=14 control=11 value=90 time=24
control_change channel=14 control=11 value=84 time=24
control_change channel=14 control=11 value=84 time=24
control_change channel=14 control=11 value=86 time=120
control_change channel=14 control=11 value=89 time=48
control_change channel=14 control=11 value=93 time=120
control_change channel=14 control=11 value=95 time=120
control_change channel=14 control=11 value=98 time=48
control_change channel=14 control=11 value=101 time=120
control_change channel=14 control=11 value=104 time=96
control_change channel=14 control=11 value=108 time=120
control_change channel=14 control=11 value=111 time=120
control_change channel=14 control=11 value=114 time=72
control_change channel=14 control=11 value=116 time=120
control_change channel=14 control=11 value=119 time=48
control_change channel=14 control=11 value=123 time=120
control_change channel=14 control=11 value=127 time=120
note_off channel=14 note=43 velocity=64 time=80
note_on channel=14 note=55 velocity=75 time=4344
note_off channel=14 note=55 velocity=64 time=168
note_on channel=14 note=57 velocity=75 time=312
note_off channel=14 note=57 velocity=64 time=136
note_on channel=14 note=58 velocity=75 time=24
note_off channel=14 note=58 velocity=64 time=168
note_on channel=14 note=58 velocity=75 time=312
note_off channel=14 note=58 velocity=64 time=168
control_change channel=14 control=93 value=30 time=312
note_on channel=14 note=58 velocity=75 time=0
note_off channel=14 note=58 velocity=64 time=444
note_on channel=14 note=58 velocity=75 time=36
note_off channel=14 note=58 velocity=64 time=296
note_on channel=14 note=58 velocity=75 time=24
note_off channel=14 note=58 velocity=64 time=136
note_on channel=14 note=53 velocity=75 time=824
note_off channel=14 note=53 velocity=64 time=604
note_on channel=14 note=57 velocity=75 time=36
note_off channel=14 note=57 velocity=64 time=296
note_on channel=14 note=53 velocity=64 time=24
note_off channel=14 note=53 velocity=64 time=136
note_on channel=14 note=60 velocity=75 time=24
note_off channel=14 note=60 velocity=64 time=284
note_on channel=14 note=60 velocity=75 time=36
note_off channel=14 note=60 velocity=64 time=168
note_on channel=14 note=60 velocity=75 time=312
note_off channel=14 note=60 velocity=64 time=604
note_on channel=14 note=60 velocity=75 time=36
note_off channel=14 note=60 velocity=64 time=296
note_on channel=14 note=60 velocity=75 time=24
note_off channel=14 note=60 velocity=64 time=124
note_on channel=14 note=53 velocity=75 time=1316
note_off channel=14 note=53 velocity=64 time=568
note_on channel=14 note=53 velocity=75 time=72
note_off channel=14 note=53 velocity=64 time=156
note_on channel=14 note=53 velocity=75 time=324
note_off channel=14 note=53 velocity=64 time=156
note_on channel=14 note=52 velocity=75 time=324
note_off channel=14 note=52 velocity=64 time=782
note_on channel=14 note=58 velocity=75 time=18
note_off channel=14 note=58 velocity=64 time=1060
note_on channel=14 note=57 velocity=69 time=380
note_off channel=14 note=57 velocity=64 time=1576
note_on channel=14 note=54 velocity=69 time=24
note_off channel=14 note=54 velocity=64 time=1838
note_on channel=14 note=59 velocity=40 time=6642
control_change channel=14 control=11 value=127 time=1120
control_change channel=14 control=11 value=125 time=120
control_change channel=14 control=11 value=124 time=120
control_change channel=14 control=11 value=123 time=120
control_change channel=14 control=11 value=121 time=120
control_change channel=14 control=11 value=120 time=120
control_change channel=14 control=11 value=119 time=120
control_change channel=14 control=11 value=118 time=120
control_change channel=14 control=11 value=116 time=120
control_change channel=14 control=11 value=115 time=120
control_change channel=14 control=11 value=114 time=120
control_change channel=14 control=11 value=113 time=120
control_change channel=14 control=11 value=111 time=120
control_change channel=14 control=11 value=110 time=120
control_change channel=14 control=11 value=109 time=120
control_change channel=14 control=11 value=108 time=120
control_change channel=14 control=11 value=106 time=120
control_change channel=14 control=11 value=105 time=120
control_change channel=14 control=11 value=104 time=120
control_change channel=14 control=11 value=103 time=120
control_change channel=14 control=11 value=101 time=120
control_change channel=14 control=11 value=100 time=120
control_change channel=14 control=11 value=99 time=120
control_change channel=14 control=11 value=98 time=120
note_off channel=14 note=59 velocity=64 time=96
<meta message end_of_track time=0>
<meta message text text='Trombone 4' time=0>
control_change channel=15 control=11 value=127 time=0
control_change channel=15 control=7 value=106 time=0
control_change channel=15 control=10 value=99 time=0
control_change channel=15 control=91 value=81 time=0
control_change channel=15 control=93 value=25 time=0
control_change channel=15 control=0 value=56 time=0
control_change channel=15 control=32 value=0 time=0
program_change channel=15 program=57 time=0
control_change channel=15 control=11 value=109 time=9944
note_on channel=15 note=48 velocity=60 time=0
control_change channel=15 control=11 value=110 time=250
control_change channel=15 control=11 value=111 time=250
control_change channel=15 control=11 value=113 time=250
control_change channel=15 control=11 value=114 time=250
control_change channel=15 control=11 value=115 time=240
control_change channel=15 control=11 value=116 time=250
note_off channel=15 note=48 velocity=64 time=74
note_on channel=15 note=45 velocity=62 time=60
control_change channel=15 control=11 value=118 time=116
control_change channel=15 control=11 value=119 time=250
control_change channel=15 control=11 value=120 time=250
control_change channel=15 control=11 value=121 time=240
control_change channel=15 control=11 value=123 time=250
control_change channel=15 control=11 value=124 time=250
control_change channel=15 control=11 value=125 time=250
control_change channel=15 control=11 value=127 time=240
note_off channel=15 note=45 velocity=64 time=38
note_on channel=15 note=43 velocity=75 time=308
note_off channel=15 note=43 velocity=64 time=580
note_on channel=15 note=43 velocity=77 time=60
note_off channel=15 note=43 velocity=64 time=168
note_on channel=15 note=43 velocity=79 time=312
note_off channel=15 note=43 velocity=64 time=168
note_on channel=15 note=48 velocity=81 time=312
note_off channel=15 note=48 velocity=64 time=764
note_on channel=15 note=48 velocity=84 time=36
note_off channel=15 note=48 velocity=64 time=592
note_on channel=15 note=48 velocity=86 time=48
note_off channel=15 note=48 velocity=64 time=272
note_on channel=15 note=53 velocity=86 time=48
note_off channel=15 note=53 velocity=64 time=124
note_on channel=15 note=46 velocity=45 time=19556
note_off channel=15 note=46 velocity=64 time=124
note_on channel=15 note=52 velocity=50 time=36
note_off channel=15 note=52 velocity=64 time=132
note_on channel=15 note=54 velocity=45 time=348
note_off channel=15 note=54 velocity=64 time=294
control_change channel=15 control=11 value=109 time=26
note_on channel=15 note=55 velocity=52 time=0
control_change channel=15 control=11 value=110 time=100
control_change channel=15 control=11 value=111 time=100
control_change channel=15 control=11 value=113 time=100
control_change channel=15 control=11 value=114 time=100
control_change channel=15 control=11 value=115 time=100
control_change channel=15 control=11 value=116 time=100
note_off channel=15 note=55 velocity=64 time=12
note_on channel=15 note=57 velocity=50 time=28
control_change channel=15 control=11 value=118 time=60
control_change channel=15 control=11 value=119 time=100
control_change channel=15 control=11 value=120 time=100
control_change channel=15 control=11 value=121 time=100
control_change channel=15 control=11 value=123 time=100
control_change channel=15 control=11 value=124 time=100
control_change channel=15 control=11 value=125 time=100
control_change channel=15 control=11 value=127 time=60
note_off channel=15 note=57 velocity=64 time=32
note_on channel=15 note=52 velocity=55 time=48
note_off channel=15 note=52 velocity=64 time=112
note_on channel=15 note=52 velocity=50 time=368
note_off channel=15 note=52 velocity=64 time=144
note_on channel=15 note=52 velocity=45 time=336
note_off channel=15 note=52 velocity=64 time=136
note_on channel=15 note=45 velocity=50 time=24
note_off channel=15 note=45 velocity=64 time=284
note_on channel=15 note=45 velocity=45 time=36
note_off channel=15 note=45 velocity=64 time=136
note_on channel=15 note=45 velocity=50 time=24
note_off channel=15 note=45 velocity=64 time=120
note_on channel=15 note=45 velocity=50 time=360
note_off channel=15 note=45 velocity=64 time=284
note_on channel=15 note=45 velocity=50 time=36
note_off channel=15 note=45 velocity=64 time=120
note_on channel=15 note=50 velocity=50 time=360
control_change channel=15 control=11 value=127 time=232
control_change channel=15 control=11 value=120 time=24
control_change channel=15 control=11 value=114 time=24
control_change channel=15 control=11 value=108 time=24
control_change channel=15 control=11 value=101 time=24
control_change channel=15 control=11 value=94 time=24
control_change channel=15 control=11 value=96 time=120
control_change channel=15 control=11 value=99 time=120
control_change channel=15 control=11 value=101 time=120
control_change channel=15 control=11 value=104 time=120
control_change channel=15 control=11 value=106 time=120
control_change channel=15 control=11 value=109 time=120
control_change channel=15 control=11 value=111 time=120
control_change channel=15 control=11 value=114 time=120
control_change channel=15 control=11 value=116 time=120
control_change channel=15 control=11 value=119 time=120
control_change channel=15 control=11 value=121 time=120
control_change channel=15 control=11 value=124 time=120
control_change channel=15 control=11 value=127 time=120
note_off channel=15 note=50 velocity=64 time=120
note_on channel=15 note=43 velocity=55 time=368
note_off channel=15 note=43 velocity=64 time=124
note_on channel=15 note=43 velocity=50 time=36
note_off channel=15 note=43 velocity=64 time=120
note_on channel=15 note=43 velocity=52 time=360
note_off channel=15 note=43 velocity=64 time=284
note_on channel=15 note=43 velocity=55 time=36
note_off channel=15 note=43 velocity=64 time=108
note_on channel=15 note=48 velocity=60 time=372
note_off channel=15 note=48 velocity=64 time=592
note_on channel=15 note=48 velocity=55 time=48
note_off channel=15 note=48 velocity=64 time=296
note_on channel=15 note=48 velocity=45 time=24
note_off channel=15 note=48 velocity=64 time=134
note_on channel=15 note=46 velocity=50 time=26
note_off channel=15 note=46 velocity=64 time=284
note_on channel=15 note=46 velocity=50 time=36
note_off channel=15 note=46 velocity=64 time=120
note_on channel=15 note=45 velocity=50 time=360
control_change channel=15 control=11 value=127 time=232
control_change channel=15 control=11 value=120 time=24
control_change channel=15 control=11 value=114 time=24
control_change channel=15 control=11 value=108 time=24
control_change channel=15 control=11 value=101 time=24
control_change channel=15 control=11 value=95 time=24
control_change channel=15 control=11 value=95 time=0
control_change channel=15 control=11 value=96 time=120
control_change channel=15 control=11 value=98 time=120
control_change channel=15 control=11 value=99 time=120
control_change channel=15 control=11 value=100 time=120
control_change channel=15 control=11 value=101 time=120
control_change channel=15 control=11 value=103 time=120
control_change channel=15 control=11 value=104 time=120
control_change channel=15 control=11 value=105 time=120
control_change channel=15 control=11 value=106 time=120
control_change channel=15 control=11 value=108 time=120
control_change channel=15 control=11 value=109 time=120
control_change channel=15 control=11 value=110 time=120
control_change channel=15 control=11 value=111 time=120
control_change channel=15 control=11 value=113 time=120
note_off channel=15 note=45 velocity=64 time=32
note_on channel=15 note=38 velocity=45 time=16
control_change channel=15 control=11 value=114 time=72
control_change channel=15 control=11 value=115 time=120
control_change channel=15 control=11 value=116 time=120
control_change channel=15 control=11 value=118 time=120
control_change channel=15 control=11 value=119 time=120
control_change channel=15 control=11 value=120 time=120
control_change channel=15 control=11 value=121 time=120
control_change channel=15 control=11 value=123 time=120
control_change channel=15 control=11 value=124 time=120
control_change channel=15 control=11 value=125 time=120
control_change channel=15 control=11 value=127 time=48
note_off channel=15 note=38 velocity=64 time=180
note_on channel=15 note=38 velocity=55 time=60
note_off channel=15 note=38 velocity=64 time=284
note_on channel=15 note=43 velocity=55 time=36
note_off channel=15 note=43 velocity=64 time=112
note_on channel=15 note=36 velocity=45 time=1808
control_change channel=15 control=11 value=127 time=232
control_change channel=15 control=11 value=121 time=24
control_change channel=15 control=11 value=115 time=24
control_change channel=15 control=11 value=109 time=24
control_change channel=15 control=11 value=103 time=24
control_change channel=15 control=11 value=96 time=24
control_change channel=15 control=11 value=90 time=24
control_change channel=15 control=11 value=84 time=24
control_change channel=15 control=11 value=84 time=24
control_change channel=15 control=11 value=86 time=120
control_change channel=15 control=11 value=89 time=48
control_change channel=15 control=11 value=93 time=120
control_change channel=15 control=11 value=95 time=120
control_change channel=15 control=11 value=98 time=48
control_change channel=15 control=11 value=101 time=120
control_change channel=15 control=11 value=104 time=96
control_change channel=15 control=11 value=108 time=120
control_change channel=15 control=11 value=111 time=120
control_change channel=15 control=11 value=114 time=72
control_change channel=15 control=11 value=116 time=120
control_change channel=15 control=11 value=119 time=48
control_change channel=15 control=11 value=123 time=120
control_change channel=15 control=11 value=127 time=120
note_off channel=15 note=36 velocity=64 time=80
note_on channel=15 note=41 velocity=56 time=24
note_off channel=15 note=41 velocity=64 time=136
note_on channel=15 note=38 velocity=56 time=1784
control_change channel=15 control=11 value=127 time=232
control_change channel=15 control=11 value=121 time=24
control_change channel=15 control=11 value=115 time=24
control_change channel=15 control=11 value=109 time=24
control_change channel=15 control=11 value=103 time=24
control_change channel=15 control=11 value=96 time=24
control_change channel=15 control=11 value=90 time=24
control_change channel=15 control=11 value=84 time=24
control_change channel=15 control=11 value=84 time=24
control_change channel=15 control=11 value=86 time=120
control_change channel=15 control=11 value=89 time=48
control_change channel=15 control=11 value=93 time=120
control_change channel=15 control=11 value=95 time=120
control_change channel=15 control=11 value=98 time=48
control_change channel=15 control=11 value=101 time=120
control_change channel=15 control=11 value=104 time=96
control_change channel=15 control=11 value=108 time=120
control_change channel=15 control=11 value=111 time=120
control_change channel=15 control=11 value=114 time=72
control_change channel=15 control=11 value=116 time=120
control_change channel=15 control=11 value=119 time=48
control_change channel=15 control=11 value=123 time=120
control_change channel=15 control=11 value=127 time=120
note_off channel=15 note=38 velocity=64 time=80
note_on channel=15 note=43 velocity=56 time=24
note_off channel=15 note=43 velocity=64 time=136
note_on channel=15 note=36 velocity=56 time=1784
control_change channel=15 control=11 value=127 time=232
control_change channel=15 control=11 value=121 time=24
control_change channel=15 control=11 value=115 time=24
control_change channel=15 control=11 value=109 time=24
control_change channel=15 control=11 value=103 time=24
control_change channel=15 control=11 value=96 time=24
control_change channel=15 control=11 value=90 time=24
control_change channel=15 control=11 value=84 time=24
control_change channel=15 control=11 value=84 time=24
control_change channel=15 control=11 value=86 time=120
control_change channel=15 control=11 value=89 time=48
control_change channel=15 control=11 value=93 time=120
control_change channel=15 control=11 value=95 time=120
control_change channel=15 control=11 value=98 time=48
control_change channel=15 control=11 value=101 time=120
control_change channel=15 control=11 value=104 time=96
control_change channel=15 control=11 value=108 time=120
control_change channel=15 control=11 value=111 time=120
control_change channel=15 control=11 value=114 time=72
control_change channel=15 control=11 value=116 time=120
control_change channel=15 control=11 value=119 time=48
control_change channel=15 control=11 value=123 time=120
control_change channel=15 control=11 value=127 time=120
note_off channel=15 note=36 velocity=64 time=80
note_on channel=15 note=50 velocity=69 time=504
note_off channel=15 note=50 velocity=64 time=580
note_on channel=15 note=48 velocity=69 time=60
note_off channel=15 note=48 velocity=64 time=144
note_on channel=15 note=43 velocity=69 time=336
note_off channel=15 note=43 velocity=64 time=144
note_on channel=15 note=47 velocity=69 time=336
note_off channel=15 note=47 velocity=64 time=444
note_on channel=15 note=48 velocity=69 time=36
note_off channel=15 note=48 velocity=64 time=284
note_on channel=15 note=50 velocity=69 time=36
note_off channel=15 note=50 velocity=64 time=124
note_on channel=15 note=48 velocity=69 time=380
note_off channel=15 note=48 velocity=64 time=556
note_on channel=15 note=46 velocity=56 time=380
note_off channel=15 note=46 velocity=64 time=136
note_on channel=15 note=52 velocity=62 time=24
note_off channel=15 note=52 velocity=64 time=144
note_on channel=15 note=53 velocity=69 time=336
note_off channel=15 note=53 velocity=64 time=296
note_on channel=15 note=55 velocity=56 time=24
note_off channel=15 note=55 velocity=64 time=136
note_on channel=15 note=58 velocity=67 time=24
note_off channel=15 note=58 velocity=64 time=296
note_on channel=15 note=58 velocity=81 time=24
note_off channel=15 note=58 velocity=64 time=604
note_on channel=15 note=58 velocity=65 time=36
note_off channel=15 note=58 velocity=64 time=308
note_on channel=15 note=55 velocity=69 time=12
control_change channel=15 control=11 value=127 time=16
control_change channel=15 control=11 value=125 time=120
control_change channel=15 control=11 value=123 time=120
control_change channel=15 control=11 value=121 time=120
control_change channel=15 control=11 value=119 time=120
control_change channel=15 control=11 value=118 time=120
control_change channel=15 control=11 value=115 time=96
control_change channel=15 control=11 value=114 time=120
control_change channel=15 control=11 value=111 time=120
note_off channel=15 note=55 velocity=64 time=120
control_change channel=15 control=11 value=110 time=0
control_change channel=15 control=11 value=109 time=24
control_change channel=15 control=11 value=127 time=24
note_on channel=15 note=48 velocity=56 time=320
note_off channel=15 note=48 velocity=64 time=136
note_on channel=15 note=47 velocity=64 time=24
note_off channel=15 note=47 velocity=64 time=144
note_on channel=15 note=46 velocity=69 time=336
note_off channel=15 note=46 velocity=64 time=296
note_on channel=15 note=46 velocity=56 time=24
note_off channel=15 note=46 velocity=64 time=136
note_on channel=15 note=50 velocity=66 time=24
note_off channel=15 note=50 velocity=64 time=296
note_on channel=15 note=45 velocity=75 time=24
note_off channel=15 note=45 velocity=64 time=604
note_on channel=15 note=45 velocity=64 time=36
note_off channel=15 note=45 velocity=64 time=308
note_on channel=15 note=50 velocity=69 time=12
control_change channel=15 control=11 value=127 time=16
control_change channel=15 control=11 value=125 time=120
control_change channel=15 control=11 value=123 time=120
control_change channel=15 control=11 value=121 time=120
control_change channel=15 control=11 value=119 time=120
control_change channel=15 control=11 value=118 time=120
control_change channel=15 control=11 value=115 time=96
control_change channel=15 control=11 value=114 time=120
control_change channel=15 control=11 value=111 time=120
note_off channel=15 note=50 velocity=64 time=120
control_change channel=15 control=11 value=110 time=0
control_change channel=15 control=11 value=109 time=24
control_change channel=15 control=11 value=127 time=24
note_on channel=15 note=36 velocity=56 time=1760
control_change channel=15 control=11 value=127 time=232
control_change channel=15 control=11 value=121 time=24
control_change channel=15 control=11 value=115 time=24
control_change channel=15 control=11 value=109 time=24
control_change channel=15 control=11 value=103 time=24
control_change channel=15 control=11 value=96 time=24
control_change channel=15 control=11 value=90 time=24
control_change channel=15 control=11 value=84 time=24
control_change channel=15 control=11 value=88 time=96
control_change channel=15 control=11 value=91 time=96
control_change channel=15 control=11 value=94 time=72
control_change channel=15 control=11 value=98 time=96
control_change channel=15 control=11 value=101 time=96
control_change channel=15 control=11 value=104 time=48
control_change channel=15 control=11 value=108 time=96
control_change channel=15 control=11 value=111 time=96
control_change channel=15 control=11 value=114 time=72
control_change channel=15 control=11 value=118 time=72
control_change channel=15 control=11 value=121 time=96
control_change channel=15 control=11 value=124 time=72
control_change channel=15 control=11 value=127 time=48
note_off channel=15 note=36 velocity=64 time=104
note_on channel=15 note=36 velocity=56 time=40
note_off channel=15 note=36 velocity=64 time=296
note_on channel=15 note=41 velocity=56 time=24
note_off channel=15 note=41 velocity=64 time=136
note_on channel=15 note=44 velocity=62 time=3224
note_off channel=15 note=44 velocity=64 time=580
note_on channel=15 note=43 velocity=62 time=60
note_off channel=15 note=43 velocity=64 time=144
note_on channel=15 note=43 velocity=62 time=336
note_off channel=15 note=43 velocity=64 time=296
note_on channel=15 note=43 velocity=62 time=24
note_off channel=15 note=43 velocity=64 time=136
note_on channel=15 note=43 velocity=56 time=24
note_off channel=15 note=43 velocity=64 time=56
note_on channel=15 note=43 velocity=62 time=24
note_off channel=15 note=43 velocity=64 time=68
note_on channel=15 note=49 velocity=62 time=332
note_off channel=15 note=49 velocity=64 time=308
control_change channel=15 control=11 value=104 time=12
note_on channel=15 note=48 velocity=69 time=0
control_change channel=15 control=11 value=105 time=100
control_change channel=15 control=11 value=108 time=80
control_change channel=15 control=11 value=109 time=100
control_change channel=15 control=11 value=111 time=100
control_change channel=15 control=11 value=114 time=90
control_change channel=15 control=11 value=115 time=100
control_change channel=15 control=11 value=118 time=70
control_change channel=15 control=11 value=119 time=100
control_change channel=15 control=11 value=121 time=100
control_change channel=15 control=11 value=124 time=90
control_change channel=15 control=11 value=125 time=100
control_change channel=15 control=11 value=127 time=10
note_off channel=15 note=48 velocity=64 time=80
note_on channel=15 note=42 velocity=69 time=320
note_on channel=15 note=41 velocity=40 time=112
note_on channel=15 note=40 velocity=28 time=40
note_off channel=15 note=42 velocity=64 time=4
note_off channel=15 note=41 velocity=64 time=8
note_on channel=15 note=39 velocity=17 time=28
note_off channel=15 note=40 velocity=64 time=12
note_off channel=15 note=39 velocity=64 time=40
note_on channel=15 note=41 velocity=69 time=236
note_off channel=15 note=41 velocity=64 time=592
note_on channel=15 note=41 velocity=62 time=48
note_off channel=15 note=41 velocity=64 time=296
note_on channel=15 note=41 velocity=50 time=24
note_off channel=15 note=41 velocity=64 time=136
note_on channel=15 note=45 velocity=62 time=24
note_off channel=15 note=45 velocity=64 time=284
note_on channel=15 note=39 velocity=62 time=36
note_off channel=15 note=39 velocity=64 time=156
note_on channel=15 note=38 velocity=62 time=324
note_off channel=15 note=38 velocity=64 time=2020
note_on channel=15 note=43 velocity=69 time=380
note_on channel=15 note=42 velocity=30 time=112
note_on channel=15 note=41 velocity=20 time=40
note_off channel=15 note=43 velocity=64 time=4
note_off channel=15 note=42 velocity=64 time=8
note_off channel=15 note=41 velocity=64 time=40
note_on channel=15 note=43 velocity=69 time=276
note_off channel=15 note=43 velocity=64 time=580
note_on channel=15 note=43 velocity=69 time=60
note_off channel=15 note=43 velocity=64 time=168
note_on channel=15 note=48 velocity=69 time=632
note_on channel=15 note=47 velocity=32 time=112
note_on channel=15 note=46 velocity=23 time=40
note_off channel=15 note=48 velocity=64 time=4
note_off channel=15 note=47 velocity=64 time=8
note_off channel=15 note=46 velocity=64 time=40
note_on channel=15 note=48 velocity=69 time=276
note_off channel=15 note=48 velocity=64 time=580
note_on channel=15 note=48 velocity=69 time=60
note_off channel=15 note=48 velocity=64 time=168
note_on channel=15 note=48 velocity=62 time=632
note_off channel=15 note=48 velocity=64 time=444
note_on channel=15 note=48 velocity=65 time=36
note_off channel=15 note=48 velocity=64 time=444
note_on channel=15 note=51 velocity=69 time=36
note_off channel=15 note=51 velocity=64 time=444
note_on channel=15 note=48 velocity=61 time=36
note_off channel=15 note=48 velocity=64 time=136
note_on channel=15 note=51 velocity=72 time=24
note_off channel=15 note=51 velocity=64 time=148
note_on channel=15 note=48 velocity=60 time=12
note_off channel=15 note=48 velocity=64 time=148
note_on channel=15 note=53 velocity=74 time=12
note_off channel=15 note=53 velocity=64 time=924
note_on channel=15 note=41 velocity=69 time=36
note_off channel=15 note=41 velocity=64 time=604
note_on channel=15 note=46 velocity=62 time=36
note_off channel=15 note=46 velocity=64 time=284
note_on channel=15 note=46 velocity=65 time=36
note_off channel=15 note=46 velocity=64 time=124
note_on channel=15 note=48 velocity=81 time=12516
note_off channel=15 note=48 velocity=64 time=168
note_on channel=15 note=51 velocity=64 time=312
note_off channel=15 note=51 velocity=64 time=308
control_change channel=15 control=11 value=109 time=12
note_on channel=15 note=50 velocity=75 time=0
control_change channel=15 control=11 value=110 time=120
control_change channel=15 control=11 value=111 time=110
control_change channel=15 control=11 value=113 time=110
control_change channel=15 control=11 value=114 time=110
control_change channel=15 control=11 value=115 time=110
control_change channel=15 control=11 value=116 time=110
control_change channel=15 control=11 value=118 time=110
control_change channel=15 control=11 value=119 time=120
control_change channel=15 control=11 value=120 time=110
control_change channel=15 control=11 value=121 time=110
control_change channel=15 control=11 value=123 time=110
control_change channel=15 control=11 value=124 time=110
control_change channel=15 control=11 value=125 time=110
note_off channel=15 note=50 velocity=64 time=102
control_change channel=15 control=11 value=127 time=8
note_on channel=15 note=57 velocity=75 time=360
note_off channel=15 note=57 velocity=64 time=604
note_on channel=15 note=53 velocity=75 time=36
note_off channel=15 note=53 velocity=64 time=296
note_on channel=15 note=53 velocity=75 time=24
note_off channel=15 note=53 velocity=64 time=136
note_on channel=15 note=52 velocity=75 time=824
note_off channel=15 note=52 velocity=64 time=604
note_on channel=15 note=48 velocity=75 time=36
note_off channel=15 note=48 velocity=64 time=296
note_on channel=15 note=48 velocity=75 time=24
note_off channel=15 note=48 velocity=64 time=136
note_on channel=15 note=57 velocity=75 time=824
note_off channel=15 note=57 velocity=64 time=604
note_on channel=15 note=53 velocity=75 time=36
note_off channel=15 note=53 velocity=64 time=296
note_on channel=15 note=53 velocity=75 time=24
note_off channel=15 note=53 velocity=64 time=136
note_on channel=15 note=54 velocity=75 time=824
note_off channel=15 note=54 velocity=64 time=604
note_on channel=15 note=50 velocity=75 time=36
note_off channel=15 note=50 velocity=64 time=296
note_on channel=15 note=50 velocity=75 time=24
note_off channel=15 note=50 velocity=64 time=136
note_on channel=15 note=57 velocity=75 time=824
note_off channel=15 note=57 velocity=64 time=580
note_on channel=15 note=57 velocity=75 time=60
note_off channel=15 note=57 velocity=64 time=168
note_on channel=15 note=57 velocity=75 time=312
note_off channel=15 note=57 velocity=64 time=168
note_on channel=15 note=57 velocity=75 time=312
note_off channel=15 note=57 velocity=64 time=296
note_on channel=15 note=60 velocity=62 time=24
note_off channel=15 note=60 velocity=64 time=148
note_on channel=15 note=57 velocity=75 time=12
note_off channel=15 note=57 velocity=64 time=311
note_on channel=15 note=57 velocity=75 time=9
control_change channel=15 control=11 value=127 time=16
control_change channel=15 control=11 value=124 time=96
control_change channel=15 control=11 value=121 time=96
control_change channel=15 control=11 value=119 time=120
control_change channel=15 control=11 value=116 time=48
control_change channel=15 control=11 value=114 time=120
control_change channel=15 control=11 value=111 time=72
control_change channel=15 control=11 value=109 time=120
control_change channel=15 control=11 value=106 time=48
control_change channel=15 control=11 value=104 time=120
control_change channel=15 control=11 value=101 time=72
control_change channel=15 control=11 value=99 time=120
note_off channel=15 note=57 velocity=64 time=24
control_change channel=15 control=11 value=96 time=24
control_change channel=15 control=11 value=127 time=0
control_change channel=15 control=11 value=127 time=24
note_on channel=15 note=55 velocity=75 time=320
note_on channel=15 note=54 velocity=30 time=112
note_on channel=15 note=53 velocity=20 time=40
note_off channel=15 note=55 velocity=64 time=8
note_off channel=15 note=54 velocity=64 time=4
note_off channel=15 note=53 velocity=64 time=40
note_on channel=15 note=55 velocity=75 time=436
note_off channel=15 note=55 velocity=64 time=168
note_on channel=15 note=55 velocity=75 time=312
note_off channel=15 note=55 velocity=64 time=168
note_on channel=15 note=57 velocity=75 time=792
note_off channel=15 note=57 velocity=64 time=296
note_on channel=15 note=57 velocity=75 time=24
note_off channel=15 note=57 velocity=64 time=192
note_on channel=15 note=53 velocity=62 time=288
note_off channel=15 note=53 velocity=64 time=148
note_on channel=15 note=57 velocity=75 time=12
note_off channel=15 note=57 velocity=64 time=308
note_on channel=15 note=57 velocity=69 time=12
note_off channel=15 note=57 velocity=64 time=136
note_on channel=15 note=57 velocity=75 time=24
note_off channel=15 note=57 velocity=64 time=296
note_on channel=15 note=53 velocity=75 time=24
note_off channel=15 note=53 velocity=64 time=136
note_on channel=15 note=53 velocity=75 time=1944
note_off channel=15 note=53 velocity=64 time=168
note_on channel=15 note=52 velocity=75 time=312
note_off channel=15 note=52 velocity=64 time=296
note_on channel=15 note=52 velocity=75 time=24
note_off channel=15 note=52 velocity=64 time=180
note_on channel=15 note=57 velocity=75 time=300
note_on channel=15 note=59 velocity=54 time=1440
note_off channel=15 note=57 velocity=64 time=16
note_on channel=15 note=58 velocity=62 time=64
note_off channel=15 note=59 velocity=64 time=24
note_on channel=15 note=57 velocity=74 time=56
note_off channel=15 note=58 velocity=64 time=24
note_off channel=15 note=57 velocity=64 time=284
note_on channel=15 note=50 velocity=75 time=12
pitchwheel channel=15 pitch=0 time=160
control_change channel=15 control=11 value=127 time=0
pitchwheel channel=15 pitch=242 time=12
control_change channel=15 control=11 value=124 time=72
control_change channel=15 control=11 value=121 time=72
pitchwheel channel=15 pitch=0 time=48
control_change channel=15 control=11 value=119 time=60
control_change channel=15 control=11 value=116 time=48
pitchwheel channel=15 pitch=-82 time=36
control_change channel=15 control=11 value=114 time=72
pitchwheel channel=15 pitch=-244 time=24
control_change channel=15 control=11 value=111 time=24
pitchwheel channel=15 pitch=-407 time=48
pitchwheel channel=15 pitch=-569 time=60
control_change channel=15 control=11 value=109 time=0
control_change channel=15 control=11 value=106 time=48
pitchwheel channel=15 pitch=-731 time=12
pitchwheel channel=15 pitch=-893 time=36
pitchwheel channel=15 pitch=-1055 time=48
control_change channel=15 control=11 value=104 time=12
pitchwheel channel=15 pitch=-1218 time=24
pitchwheel channel=15 pitch=-1380 time=24
control_change channel=15 control=11 value=101 time=0
pitchwheel channel=15 pitch=-1542 time=36
pitchwheel channel=15 pitch=-1704 time=24
pitchwheel channel=15 pitch=-1866 time=12
pitchwheel channel=15 pitch=-2029 time=24
pitchwheel channel=15 pitch=-2191 time=12
control_change channel=15 control=11 value=99 time=0
pitchwheel channel=15 pitch=-2353 time=12
note_off channel=15 note=50 velocity=64 time=12
pitchwheel channel=15 pitch=-2515 time=0
pitchwheel channel=15 pitch=-2840 time=12
control_change channel=15 control=11 value=96 time=12
control_change channel=15 control=11 value=127 time=24
pitchwheel channel=15 pitch=0 time=0
note_on channel=15 note=43 velocity=75 time=1280
note_off channel=15 note=43 velocity=64 time=604
note_on channel=15 note=43 velocity=75 time=36
note_off channel=15 note=43 velocity=64 time=180
note_on channel=15 note=43 velocity=75 time=300
note_off channel=15 note=43 velocity=64 time=296
note_on channel=15 note=48 velocity=75 time=24
note_off channel=15 note=48 velocity=64 time=136
note_on channel=15 note=48 velocity=75 time=344
note_off channel=15 note=48 velocity=64 time=180
note_on channel=15 note=55 velocity=69 time=300
note_off channel=15 note=55 velocity=64 time=148
note_on channel=15 note=48 velocity=75 time=12
note_off channel=15 note=48 velocity=64 time=456
note_on channel=15 note=46 velocity=75 time=24
note_off channel=15 note=46 velocity=64 time=156
note_on channel=15 note=57 velocity=81 time=804
note_off channel=15 note=57 velocity=64 time=912
note_on channel=15 note=57 velocity=75 time=48
note_off channel=15 note=57 velocity=64 time=180
control_change channel=15 control=11 value=104 time=300
note_on channel=15 note=55 velocity=81 time=0
control_change channel=15 control=11 value=106 time=108
control_change channel=15 control=11 value=109 time=108
note_off channel=15 note=55 velocity=64 time=92
note_on channel=15 note=55 velocity=81 time=12
control_change channel=15 control=11 value=111 time=4
control_change channel=15 control=11 value=114 time=108
control_change channel=15 control=11 value=116 time=108
control_change channel=15 control=11 value=119 time=108
control_change channel=15 control=11 value=121 time=108
control_change channel=15 control=11 value=124 time=108
note_off channel=15 note=55 velocity=64 time=60
control_change channel=15 control=11 value=127 time=36
control_change channel=15 control=11 value=127 time=0
note_on channel=15 note=54 velocity=81 time=0
control_change channel=15 control=11 value=124 time=84
control_change channel=15 control=11 value=121 time=84
control_change channel=15 control=11 value=119 time=108
note_off channel=15 note=54 velocity=64 time=32
note_on channel=15 note=44 velocity=81 time=12
control_change channel=15 control=11 value=116 time=4
control_change channel=15 control=11 value=114 time=108
control_change channel=15 control=11 value=111 time=48
control_change channel=15 control=11 value=109 time=108
control_change channel=15 control=11 value=106 time=60
control_change channel=15 control=11 value=104 time=108
control_change channel=15 control=11 value=101 time=48
note_off channel=15 note=44 velocity=64 time=108
control_change channel=15 control=11 value=127 time=72
note_on channel=15 note=36 velocity=56 time=1736
control_change channel=15 control=11 value=127 time=232
control_change channel=15 control=11 value=121 time=24
control_change channel=15 control=11 value=115 time=24
control_change channel=15 control=11 value=109 time=24
control_change channel=15 control=11 value=103 time=24
control_change channel=15 control=11 value=96 time=24
control_change channel=15 control=11 value=90 time=24
control_change channel=15 control=11 value=84 time=24
control_change channel=15 control=11 value=84 time=24
control_change channel=15 control=11 value=86 time=120
control_change channel=15 control=11 value=89 time=48
control_change channel=15 control=11 value=93 time=120
control_change channel=15 control=11 value=95 time=120
control_change channel=15 control=11 value=98 time=48
control_change channel=15 control=11 value=101 time=120
control_change channel=15 control=11 value=104 time=96
control_change channel=15 control=11 value=108 time=120
control_change channel=15 control=11 value=111 time=120
control_change channel=15 control=11 value=114 time=72
control_change channel=15 control=11 value=116 time=120
control_change channel=15 control=11 value=119 time=48
control_change channel=15 control=11 value=123 time=120
control_change channel=15 control=11 value=127 time=120
note_off channel=15 note=36 velocity=64 time=80
note_on channel=15 note=41 velocity=56 time=24
note_off channel=15 note=41 velocity=64 time=136
note_on channel=15 note=38 velocity=56 time=1784
control_change channel=15 control=11 value=127 time=232
control_change channel=15 control=11 value=121 time=24
control_change channel=15 control=11 value=115 time=24
control_change channel=15 control=11 value=109 time=24
control_change channel=15 control=11 value=103 time=24
control_change channel=15 control=11 value=96 time=24
control_change channel=15 control=11 value=90 time=24
control_change channel=15 control=11 value=84 time=24
control_change channel=15 control=11 value=84 time=24
control_change channel=15 control=11 value=86 time=120
control_change channel=15 control=11 value=89 time=48
control_change channel=15 control=11 value=93 time=120
control_change channel=15 control=11 value=95 time=120
control_change channel=15 control=11 value=98 time=48
control_change channel=15 control=11 value=101 time=120
control_change channel=15 control=11 value=104 time=96
control_change channel=15 control=11 value=108 time=120
control_change channel=15 control=11 value=111 time=120
control_change channel=15 control=11 value=114 time=72
control_change channel=15 control=11 value=116 time=120
control_change channel=15 control=11 value=119 time=48
control_change channel=15 control=11 value=123 time=120
control_change channel=15 control=11 value=127 time=120
note_off channel=15 note=38 velocity=64 time=80
note_on channel=15 note=43 velocity=56 time=24
note_off channel=15 note=43 velocity=64 time=136
note_on channel=15 note=36 velocity=56 time=1784
control_change channel=15 control=11 value=127 time=232
control_change channel=15 control=11 value=121 time=24
control_change channel=15 control=11 value=115 time=24
control_change channel=15 control=11 value=109 time=24
control_change channel=15 control=11 value=103 time=24
control_change channel=15 control=11 value=96 time=24
control_change channel=15 control=11 value=90 time=24
control_change channel=15 control=11 value=84 time=24
control_change channel=15 control=11 value=84 time=24
control_change channel=15 control=11 value=86 time=120
control_change channel=15 control=11 value=89 time=48
control_change channel=15 control=11 value=93 time=120
control_change channel=15 control=11 value=95 time=120
control_change channel=15 control=11 value=98 time=48
control_change channel=15 control=11 value=101 time=120
control_change channel=15 control=11 value=104 time=96
control_change channel=15 control=11 value=108 time=120
control_change channel=15 control=11 value=111 time=120
control_change channel=15 control=11 value=114 time=72
control_change channel=15 control=11 value=116 time=120
control_change channel=15 control=11 value=119 time=48
control_change channel=15 control=11 value=123 time=120
control_change channel=15 control=11 value=127 time=120
note_off channel=15 note=36 velocity=64 time=80
note_on channel=15 note=50 velocity=69 time=504
note_off channel=15 note=50 velocity=64 time=580
note_on channel=15 note=48 velocity=69 time=60
note_off channel=15 note=48 velocity=64 time=144
note_on channel=15 note=43 velocity=69 time=336
note_off channel=15 note=43 velocity=64 time=144
note_on channel=15 note=47 velocity=69 time=336
note_off channel=15 note=47 velocity=64 time=444
note_on channel=15 note=46 velocity=69 time=36
note_off channel=15 note=46 velocity=64 time=284
note_on channel=15 note=45 velocity=69 time=36
note_off channel=15 note=45 velocity=64 time=124
note_on channel=15 note=53 velocity=75 time=1316
note_off channel=15 note=53 velocity=64 time=168
note_on channel=15 note=55 velocity=75 time=312
note_off channel=15 note=55 velocity=64 time=136
note_on channel=15 note=55 velocity=75 time=24
note_off channel=15 note=55 velocity=64 time=168
note_on channel=15 note=55 velocity=75 time=312
note_off channel=15 note=55 velocity=64 time=168
control_change channel=15 control=93 value=30 time=312
note_on channel=15 note=56 velocity=75 time=0
note_off channel=15 note=56 velocity=64 time=444
note_on channel=15 note=56 velocity=75 time=36
note_off channel=15 note=56 velocity=64 time=296
note_on channel=15 note=55 velocity=75 time=24
note_off channel=15 note=55 velocity=64 time=136
note_on channel=15 note=50 velocity=75 time=824
note_off channel=15 note=50 velocity=64 time=604
note_on channel=15 note=53 velocity=75 time=36
note_off channel=15 note=53 velocity=64 time=296
note_on channel=15 note=50 velocity=64 time=24
note_off channel=15 note=50 velocity=64 time=136
note_on channel=15 note=57 velocity=75 time=24
note_off channel=15 note=57 velocity=64 time=284
note_on channel=15 note=57 velocity=75 time=36
note_off channel=15 note=57 velocity=64 time=168
note_on channel=15 note=57 velocity=75 time=312
note_off channel=15 note=57 velocity=64 time=604
note_on channel=15 note=57 velocity=75 time=36
note_off channel=15 note=57 velocity=64 time=296
note_on channel=15 note=58 velocity=75 time=24
note_off channel=15 note=58 velocity=64 time=124
note_on channel=15 note=43 velocity=75 time=1316
note_off channel=15 note=43 velocity=64 time=568
note_on channel=15 note=43 velocity=75 time=72
note_off channel=15 note=43 velocity=64 time=156
note_on channel=15 note=43 velocity=75 time=324
note_off channel=15 note=43 velocity=64 time=156
note_on channel=15 note=48 velocity=75 time=324
note_off channel=15 note=48 velocity=64 time=782
note_on channel=15 note=48 velocity=75 time=18
note_off channel=15 note=48 velocity=64 time=1060
note_on channel=15 note=48 velocity=69 time=380
note_off channel=15 note=48 velocity=64 time=1576
note_on channel=15 note=45 velocity=69 time=24
note_off channel=15 note=45 velocity=64 time=1838
note_on channel=15 note=41 velocity=40 time=6642
control_change channel=15 control=11 value=127 time=1120
control_change channel=15 control=11 value=125 time=120
control_change channel=15 control=11 value=124 time=120
control_change channel=15 control=11 value=123 time=120
control_change channel=15 control=11 value=121 time=120
control_change channel=15 control=11 value=120 time=120
control_change channel=15 control=11 value=119 time=120
control_change channel=15 control=11 value=118 time=120
control_change channel=15 control=11 value=116 time=120
control_change channel=15 control=11 value=115 time=120
control_change channel=15 control=11 value=114 time=120
control_change channel=15 control=11 value=113 time=120
control_change channel=15 control=11 value=111 time=120
control_change channel=15 control=11 value=110 time=120
control_change channel=15 control=11 value=109 time=120
control_change channel=15 control=11 value=108 time=120
control_change channel=15 control=11 value=106 time=120
control_change channel=15 control=11 value=105 time=120
control_change channel=15 control=11 value=104 time=120
control_change channel=15 control=11 value=103 time=120
control_change channel=15 control=11 value=101 time=120
control_change channel=15 control=11 value=100 time=120
control_change channel=15 control=11 value=99 time=120
control_change channel=15 control=11 value=98 time=120
note_off channel=15 note=41 velocity=64 time=96
<meta message end_of_track time=0>
<meta message text text='Have A Nice Day' time=0>
<meta message smpte_offset frame_rate=25 hours=32 minutes=0 seconds=0 frames=0 sub_frames=0 time=0>
<meta message time_signature numerator=4 denominator=4 clocks_per_click=24 notated_32nd_notes_per_beat=8 time=0>
<meta message set_tempo tempo=500000 time=0>
<meta message text text='"Have A Nice Day"' time=5760>
<meta message text text='Sequenced for GMIDI by' time=0>
<meta message text text='GaryW0001 (@AOL.com)' time=0>
<meta message text text='Composed & Arranged ' time=0>
<meta message text text='by Sammy Nestico' time=0>
<meta message text text='©1996 Blue Max Distribution' time=0>
<meta message end_of_track time=0>
<meta message text text='-<>-<>-<>-<>-' time=0>
<meta message channel_prefix channel=0 time=0>
<meta message end_of_track time=0>
<meta message text text='   "Have A' time=0>
<meta message channel_prefix channel=0 time=0>
<meta message end_of_track time=0>
<meta message text text='   Nice Day"' time=0>
<meta message channel_prefix channel=0 time=0>
<meta message end_of_track time=0>
<meta message text text='Transcribed ' time=0>
<meta message channel_prefix channel=0 time=0>
<meta message end_of_track time=0>
<meta message text text='& Sequenced' time=0>
<meta message channel_prefix channel=0 time=0>
<meta message end_of_track time=0>
<meta message text text='for GMIDI by' time=0>
<meta message channel_prefix channel=0 time=0>
<meta message end_of_track time=0>
<meta message text text='GaryW0001' time=0>
<meta message channel_prefix channel=0 time=0>
<meta message end_of_track time=0>
<meta message text text='Composed and' time=0>
<meta message channel_prefix channel=0 time=0>
<meta message end_of_track time=0>
<meta message text text='Arranged by' time=0>
<meta message channel_prefix channel=0 time=0>
<meta message end_of_track time=0>
<meta message text text='Sammy Nestico' time=0>
<meta message channel_prefix channel=0 time=0>
<meta message end_of_track time=0>
<meta message text text='Tempo = 120' time=0>
<meta message channel_prefix channel=0 time=0>
<meta message end_of_track time=0>
<meta message text text='Comments??' time=0>
<meta message channel_prefix channel=0 time=0>
<meta message end_of_track time=0>
<meta message text text='-<>-<>-<>-<>-' time=0>
<meta message channel_prefix channel=0 time=0>
<meta message end_of_track time=0>
<meta message text text='Jazz/Brush Kit' time=0>
control_change channel=9 control=11 value=96 time=0
control_change channel=9 control=7 value=94 time=0
control_change channel=9 control=10 value=45 time=0
control_change channel=9 control=91 value=75 time=0
control_change channel=9 control=93 value=5 time=0
control_change channel=9 control=0 value=62 time=0
control_change channel=9 control=32 value=0 time=0
program_change channel=9 program=32 time=0
note_on channel=9 note=37 velocity=84 time=1920
note_off channel=9 note=37 velocity=64 time=480
note_on channel=9 note=37 velocity=84 time=480
note_off channel=9 note=37 velocity=64 time=480
note_on channel=9 note=37 velocity=64 time=480
note_off channel=9 note=37 velocity=64 time=480
note_on channel=9 note=37 velocity=84 time=0
note_off channel=9 note=37 velocity=64 time=480
note_on channel=9 note=37 velocity=64 time=0
note_off channel=9 note=37 velocity=64 time=480
note_on channel=9 note=37 velocity=84 time=0
note_off channel=9 note=37 velocity=64 time=480
note_on channel=9 note=51 velocity=75 time=0
note_off channel=9 note=51 velocity=64 time=100
note_on channel=9 note=51 velocity=90 time=380
note_on channel=9 note=42 velocity=70 time=0
note_off channel=9 note=51 velocity=64 time=100
note_off channel=9 note=42 velocity=64 time=0
note_on channel=9 note=51 velocity=60 time=256
note_off channel=9 note=51 velocity=64 time=100
note_on channel=9 note=51 velocity=80 time=24
note_off channel=9 note=51 velocity=64 time=100
note_on channel=9 note=51 velocity=90 time=380
note_on channel=9 note=37 velocity=70 time=0
note_on channel=9 note=42 velocity=70 time=0
note_off channel=9 note=51 velocity=64 time=100
note_off channel=9 note=42 velocity=64 time=0
note_off channel=9 note=37 velocity=64 time=0
note_on channel=9 note=51 velocity=60 time=256
note_off channel=9 note=51 velocity=64 time=100
note_on channel=9 note=51 velocity=80 time=24
note_off channel=9 note=51 velocity=64 time=100
note_on channel=9 note=51 velocity=90 time=380
note_on channel=9 note=42 velocity=70 time=0
note_off channel=9 note=51 velocity=64 time=100
note_off channel=9 note=42 velocity=64 time=0
note_on channel=9 note=51 velocity=60 time=256
note_off channel=9 note=51 velocity=64 time=100
note_on channel=9 note=51 velocity=80 time=24
note_on channel=9 note=48 velocity=61 time=0
note_off channel=9 note=48 velocity=64 time=58
note_off channel=9 note=51 velocity=64 time=42
note_on channel=9 note=48 velocity=53 time=20
note_off channel=9 note=48 velocity=64 time=57
note_on channel=9 note=38 velocity=20 time=179
note_on channel=9 note=36 velocity=74 time=4
note_off channel=9 note=36 velocity=64 time=59
note_off channel=9 note=38 velocity=64 time=37
note_on channel=9 note=51 velocity=90 time=24
note_on channel=9 note=37 velocity=70 time=0
note_on channel=9 note=42 velocity=70 time=0
note_on channel=9 note=38 velocity=40 time=0
note_on channel=9 note=47 velocity=103 time=0
note_off channel=9 note=47 velocity=64 time=56
note_off channel=9 note=37 velocity=64 time=44
note_off channel=9 note=38 velocity=64 time=0
note_off channel=9 note=42 velocity=64 time=0
note_off channel=9 note=51 velocity=64 time=0
note_on channel=9 note=47 velocity=68 time=20
note_off channel=9 note=47 velocity=64 time=57
note_on channel=9 note=51 velocity=60 time=179
note_on channel=9 note=36 velocity=65 time=4
note_off channel=9 note=36 velocity=64 time=57
note_off channel=9 note=51 velocity=64 time=39
control_change channel=9 control=11 value=96 time=24
note_on channel=9 note=51 velocity=80 time=0
note_on channel=9 note=40 velocity=109 time=0
note_off channel=9 note=40 velocity=64 time=58
note_off channel=9 note=51 velocity=64 time=42
note_on channel=9 note=51 velocity=90 time=380
note_on channel=9 note=42 velocity=70 time=0
note_off channel=9 note=51 velocity=64 time=100
note_off channel=9 note=42 velocity=64 time=0
control_change channel=9 control=11 value=98 time=188
note_on channel=9 note=51 velocity=60 time=68
note_off channel=9 note=51 velocity=64 time=100
note_on channel=9 note=51 velocity=80 time=24
note_off channel=9 note=51 velocity=64 time=100
note_on channel=9 note=51 velocity=90 time=380
note_on channel=9 note=37 velocity=70 time=0
note_on channel=9 note=42 velocity=70 time=0
control_change channel=9 control=11 value=99 time=96
note_off channel=9 note=51 velocity=64 time=4
note_off channel=9 note=42 velocity=64 time=0
note_off channel=9 note=37 velocity=64 time=0
note_on channel=9 note=51 velocity=60 time=256
note_off channel=9 note=51 velocity=64 time=100
note_on channel=9 note=51 velocity=80 time=24
note_off channel=9 note=51 velocity=64 time=100
control_change channel=9 control=11 value=100 time=284
note_on channel=9 note=51 velocity=90 time=96
note_on channel=9 note=42 velocity=70 time=0
note_off channel=9 note=51 velocity=64 time=100
note_off channel=9 note=42 velocity=64 time=0
note_on channel=9 note=51 velocity=60 time=256
note_off channel=9 note=51 velocity=64 time=100
note_on channel=9 note=51 velocity=90 time=24
note_on channel=9 note=35 velocity=70 time=0
note_off channel=9 note=51 velocity=64 time=100
note_off channel=9 note=35 velocity=64 time=0
note_on channel=9 note=45 velocity=100 time=60
note_on channel=9 note=38 velocity=90 time=0
control_change channel=9 control=11 value=101 time=32
note_off channel=9 note=45 velocity=64 time=68
note_off channel=9 note=38 velocity=64 time=0
note_on channel=9 note=42 velocity=1 time=76
note_on channel=9 note=35 velocity=80 time=0
note_off channel=9 note=42 velocity=64 time=100
note_off channel=9 note=35 velocity=64 time=0
note_on channel=9 note=48 velocity=90 time=44
note_on channel=9 note=42 velocity=100 time=0
note_on channel=9 note=38 velocity=80 time=0
note_on channel=9 note=51 velocity=90 time=0
note_off channel=9 note=48 velocity=64 time=100
note_off channel=9 note=51 velocity=64 time=0
note_off channel=9 note=38 velocity=64 time=0
note_off channel=9 note=42 velocity=64 time=0
note_on channel=9 note=45 velocity=70 time=60
note_off channel=9 note=45 velocity=64 time=100
note_on channel=9 note=41 velocity=90 time=76
note_on channel=9 note=35 velocity=70 time=0
note_on channel=9 note=51 velocity=60 time=20
note_on channel=9 note=38 velocity=81 time=44
note_off channel=9 note=41 velocity=64 time=36
note_off channel=9 note=35 velocity=64 time=0
note_off channel=9 note=38 velocity=64 time=4
note_on channel=9 note=38 velocity=81 time=0
note_off channel=9 note=51 velocity=64 time=16
note_off channel=9 note=38 velocity=64 time=24
control_change channel=9 control=11 value=103 time=0
note_on channel=9 note=51 velocity=99 time=0
note_on channel=9 note=40 velocity=99 time=0
note_on channel=9 note=38 velocity=99 time=0
note_on channel=9 note=35 velocity=99 time=0
note_off channel=9 note=51 velocity=64 time=100
note_off channel=9 note=35 velocity=64 time=0
note_off channel=9 note=38 velocity=64 time=0
note_off channel=9 note=40 velocity=64 time=0
note_on channel=9 note=49 velocity=106 time=220
note_on channel=9 note=51 velocity=100 time=160
note_on channel=9 note=42 velocity=70 time=0
note_off channel=9 note=51 velocity=64 time=100
note_off channel=9 note=42 velocity=64 time=0
control_change channel=9 control=11 value=104 time=188
note_on channel=9 note=51 velocity=80 time=192
note_off channel=9 note=51 velocity=64 time=100
note_on channel=9 note=51 velocity=100 time=380
note_on channel=9 note=37 velocity=70 time=0
note_on channel=9 note=42 velocity=70 time=0
control_change channel=9 control=11 value=105 time=96
note_off channel=9 note=51 velocity=64 time=4
note_off channel=9 note=42 velocity=64 time=0
note_off channel=9 note=37 velocity=64 time=0
note_off channel=9 note=49 velocity=64 time=356
note_on channel=9 note=51 velocity=80 time=24
note_off channel=9 note=51 velocity=64 time=100
control_change channel=9 control=11 value=106 time=284
note_on channel=9 note=51 velocity=90 time=96
note_on channel=9 note=42 velocity=70 time=0
note_off channel=9 note=51 velocity=64 time=100
note_off channel=9 note=42 velocity=64 time=0
note_on channel=9 note=51 velocity=80 time=380
note_off channel=9 note=51 velocity=64 time=100
control_change channel=9 control=11 value=108 time=92
note_on channel=9 note=38 velocity=81 time=208
note_off channel=9 note=38 velocity=64 time=40
note_on channel=9 note=38 velocity=81 time=0
note_off channel=9 note=38 velocity=64 time=40
note_on channel=9 note=38 velocity=93 time=0
note_on channel=9 note=35 velocity=93 time=0
note_off channel=9 note=38 velocity=64 time=116
note_off channel=9 note=35 velocity=64 time=0
note_on channel=9 note=38 velocity=93 time=204
note_on channel=9 note=35 velocity=93 time=0
note_off channel=9 note=38 velocity=64 time=136
note_off channel=9 note=35 velocity=64 time=0
control_change channel=9 control=11 value=109 time=24
control_change channel=9 control=11 value=108 time=240
note_on channel=9 note=38 velocity=81 time=80
note_off channel=9 note=38 velocity=64 time=136
control_change channel=9 control=11 value=106 time=24
note_on channel=9 note=35 velocity=86 time=0
note_on channel=9 note=51 velocity=90 time=0
note_on channel=9 note=42 velocity=70 time=0
note_off channel=9 note=35 velocity=64 time=100
note_off channel=9 note=42 velocity=64 time=0
note_off channel=9 note=51 velocity=64 time=0
control_change channel=9 control=11 value=105 time=140
note_on channel=9 note=51 velocity=60 time=112
note_off channel=9 note=51 velocity=64 time=100
control_change channel=9 control=11 value=104 time=28
note_on channel=9 note=51 velocity=80 time=0
note_off channel=9 note=51 velocity=64 time=100
control_change channel=9 control=11 value=103 time=140
control_change channel=9 control=11 value=101 time=240
note_on channel=9 note=51 velocity=90 time=0
note_on channel=9 note=37 velocity=60 time=0
note_on channel=9 note=42 velocity=70 time=0
note_off channel=9 note=51 velocity=64 time=100
note_off channel=9 note=42 velocity=64 time=0
note_off channel=9 note=37 velocity=64 time=0
control_change channel=9 control=11 value=100 time=140
note_on channel=9 note=51 velocity=60 time=112
note_off channel=9 note=51 velocity=64 time=100
control_change channel=9 control=11 value=99 time=28
note_on channel=9 note=51 velocity=80 time=0
note_off channel=9 note=51 velocity=64 time=100
control_change channel=9 control=11 value=98 time=140
control_change channel=9 control=11 value=96 time=240
note_on channel=9 note=51 velocity=90 time=0
note_on channel=9 note=42 velocity=70 time=0
note_off channel=9 note=51 velocity=64 time=100
note_off channel=9 note=42 velocity=64 time=0
control_change channel=9 control=11 value=95 time=140
note_on channel=9 note=51 velocity=60 time=116
note_off channel=9 note=51 velocity=64 time=100
control_change channel=9 control=11 value=94 time=24
note_on channel=9 note=51 velocity=80 time=0
note_off channel=9 note=51 velocity=64 time=100
control_change channel=9 control=11 value=93 time=140
note_on channel=9 note=38 velocity=20 time=116
note_off channel=9 note=38 velocity=64 time=100
control_change channel=9 control=11 value=91 time=24
note_on channel=9 note=51 velocity=90 time=0
note_on channel=9 note=37 velocity=70 time=0
note_on channel=9 note=42 velocity=70 time=0
note_on channel=9 note=38 velocity=40 time=0
note_off channel=9 note=51 velocity=64 time=100
note_off channel=9 note=38 velocity=64 time=0
note_off channel=9 note=42 velocity=64 time=0
note_off channel=9 note=37 velocity=64 time=0
control_change channel=9 control=11 value=90 time=140
note_on channel=9 note=51 velocity=60 time=116
control_change channel=9 control=0 value=62 time=1
control_change channel=9 control=32 value=0 time=0
program_change channel=9 program=40 time=0
note_off channel=9 note=51 velocity=64 time=99
control_change channel=9 control=11 value=89 time=24
note_on channel=9 note=49 velocity=45 time=0
note_on channel=9 note=51 velocity=80 time=0
note_off channel=9 note=49 velocity=64 time=100
note_off channel=9 note=51 velocity=64 time=0
note_on channel=9 note=51 velocity=100 time=380
note_on channel=9 note=42 velocity=70 time=0
note_off channel=9 note=51 velocity=64 time=100
note_off channel=9 note=42 velocity=64 time=0
note_on channel=9 note=51 velocity=80 time=380
note_off channel=9 note=51 velocity=64 time=100
note_on channel=9 note=51 velocity=100 time=380
note_on channel=9 note=37 velocity=70 time=0
note_on channel=9 note=42 velocity=70 time=0
note_off channel=9 note=51 velocity=64 time=100
note_off channel=9 note=42 velocity=64 time=0
note_off channel=9 note=37 velocity=64 time=0
note_on channel=9 note=51 velocity=80 time=380
note_off channel=9 note=51 velocity=64 time=100
note_on channel=9 note=51 velocity=90 time=380
note_on channel=9 note=42 velocity=70 time=0
note_off channel=9 note=51 velocity=64 time=100
note_off channel=9 note=42 velocity=64 time=0
note_on channel=9 note=51 velocity=80 time=380
note_off channel=9 note=51 velocity=64 time=100
note_on channel=9 note=51 velocity=90 time=380
note_on channel=9 note=37 velocity=70 time=0
note_on channel=9 note=42 velocity=70 time=0
note_off channel=9 note=51 velocity=64 time=100
note_off channel=9 note=42 velocity=64 time=0
note_off channel=9 note=37 velocity=64 time=0
note_on channel=9 note=51 velocity=80 time=380
note_off channel=9 note=51 velocity=64 time=100
note_on channel=9 note=51 velocity=90 time=380
note_on channel=9 note=42 velocity=70 time=0
note_off channel=9 note=51 velocity=64 time=100
note_off channel=9 note=42 velocity=64 time=0
note_on channel=9 note=51 velocity=60 time=252
note_off channel=9 note=51 velocity=64 time=100
note_on channel=9 note=51 velocity=80 time=28
note_off channel=9 note=51 velocity=64 time=100
note_on channel=9 note=51 velocity=90 time=380
note_on channel=9 note=37 velocity=60 time=0
note_on channel=9 note=42 velocity=70 time=0
note_off channel=9 note=51 velocity=64 time=100
note_off channel=9 note=42 velocity=64 time=0
note_off channel=9 note=37 velocity=64 time=0
note_on channel=9 note=51 velocity=60 time=252
note_off channel=9 note=51 velocity=64 time=100
note_on channel=9 note=51 velocity=80 time=28
note_off channel=9 note=51 velocity=64 time=100
note_on channel=9 note=51 velocity=100 time=380
note_on channel=9 note=42 velocity=70 time=0
note_off channel=9 note=51 velocity=64 time=100
note_off channel=9 note=42 velocity=64 time=0
note_on channel=9 note=51 velocity=80 time=380
note_off channel=9 note=51 velocity=64 time=100
note_on channel=9 note=51 velocity=100 time=380
note_on channel=9 note=37 velocity=70 time=0
note_on channel=9 note=42 velocity=70 time=0
note_off channel=9 note=51 velocity=64 time=100
note_off channel=9 note=42 velocity=64 time=0
note_off channel=9 note=37 velocity=64 time=0
note_on channel=9 note=51 velocity=80 time=380
note_off channel=9 note=51 velocity=64 time=100
note_on channel=9 note=51 velocity=90 time=380
note_on channel=9 note=42 velocity=70 time=0
note_off channel=9 note=51 velocity=64 time=100
note_off channel=9 note=42 velocity=64 time=0
note_on channel=9 note=51 velocity=60 time=252
note_off channel=9 note=51 velocity=64 time=100
note_on channel=9 note=51 velocity=80 time=28
note_off channel=9 note=51 velocity=64 time=100
note_on channel=9 note=51 velocity=90 time=380
note_on channel=9 note=37 velocity=60 time=0
note_on channel=9 note=42 velocity=70 time=0
note_off channel=9 note=51 velocity=64 time=100
note_off channel=9 note=42 velocity=64 time=0
note_off channel=9 note=37 velocity=64 time=0
note_on channel=9 note=51 velocity=60 time=252
note_off channel=9 note=51 velocity=64 time=100
note_on channel=9 note=51 velocity=80 time=28
note_off channel=9 note=51 velocity=64 time=100
note_on channel=9 note=51 velocity=100 time=380
note_on channel=9 note=42 velocity=70 time=0
note_off channel=9 note=51 velocity=64 time=100
note_off channel=9 note=42 velocity=64 time=0
note_on channel=9 note=51 velocity=80 time=380
note_off channel=9 note=51 velocity=64 time=100
note_on channel=9 note=51 velocity=100 time=380
note_on channel=9 note=37 velocity=70 time=0
note_on channel=9 note=42 velocity=70 time=0
note_off channel=9 note=51 velocity=64 time=100
note_off channel=9 note=42 velocity=64 time=0
note_off channel=9 note=37 velocity=64 time=0
note_on channel=9 note=51 velocity=80 time=380
note_off channel=9 note=51 velocity=64 time=100
note_on channel=9 note=51 velocity=90 time=380
note_on channel=9 note=42 velocity=70 time=0
note_off channel=9 note=51 velocity=64 time=100
note_off channel=9 note=42 velocity=64 time=0
note_on channel=9 note=51 velocity=60 time=256
note_off channel=9 note=51 velocity=64 time=100
note_on channel=9 note=51 velocity=80 time=24
note_off channel=9 note=51 velocity=64 time=100
note_on channel=9 note=51 velocity=90 time=380
note_on channel=9 note=37 velocity=70 time=0
note_on channel=9 note=42 velocity=70 time=0
note_off channel=9 note=51 velocity=64 time=100
note_off channel=9 note=42 velocity=64 time=0
note_off channel=9 note=37 velocity=64 time=0
note_on channel=9 note=51 velocity=60 time=256
note_off channel=9 note=51 velocity=64 time=100
note_on channel=9 note=51 velocity=80 time=24
note_off channel=9 note=51 velocity=64 time=100
note_on channel=9 note=51 velocity=90 time=380
note_on channel=9 note=42 velocity=70 time=0
note_off channel=9 note=51 velocity=64 time=100
note_off channel=9 note=42 velocity=64 time=0
note_on channel=9 note=51 velocity=60 time=256
note_off channel=9 note=51 velocity=64 time=100
note_on channel=9 note=51 velocity=80 time=24
note_off channel=9 note=51 velocity=64 time=100
note_on channel=9 note=38 velocity=20 time=256
note_off channel=9 note=38 velocity=64 time=100
note_on channel=9 note=51 velocity=90 time=24
note_on channel=9 note=37 velocity=70 time=0
note_on channel=9 note=42 velocity=70 time=0
note_on channel=9 note=38 velocity=40 time=0
note_off channel=9 note=51 velocity=64 time=100
note_off channel=9 note=38 velocity=64 time=0
note_off channel=9 note=42 velocity=64 time=0
note_off channel=9 note=37 velocity=64 time=0
note_on channel=9 note=51 velocity=60 time=256
note_off channel=9 note=51 velocity=64 time=100
note_on channel=9 note=51 velocity=80 time=24
note_off channel=9 note=51 velocity=64 time=100
note_on channel=9 note=51 velocity=90 time=380
note_on channel=9 note=42 velocity=70 time=0
note_off channel=9 note=51 velocity=64 time=100
note_off channel=9 note=42 velocity=64 time=0
note_on channel=9 note=51 velocity=60 time=256
note_off channel=9 note=51 velocity=64 time=100
note_on channel=9 note=51 velocity=80 time=24
note_off channel=9 note=51 velocity=64 time=100
note_on channel=9 note=51 velocity=90 time=380
note_on channel=9 note=37 velocity=70 time=0
note_on channel=9 note=42 velocity=70 time=0
note_off channel=9 note=51 velocity=64 time=100
note_off channel=9 note=42 velocity=64 time=0
note_off channel=9 note=37 velocity=64 time=0
note_on channel=9 note=51 velocity=60 time=256
note_off channel=9 note=51 velocity=64 time=100
note_on channel=9 note=51 velocity=80 time=24
note_off channel=9 note=51 velocity=64 time=100
note_on channel=9 note=51 velocity=90 time=380
note_on channel=9 note=42 velocity=70 time=0
note_off channel=9 note=51 velocity=64 time=100
note_off channel=9 note=42 velocity=64 time=0
note_on channel=9 note=51 velocity=80 time=380
note_off channel=9 note=51 velocity=64 time=100
note_on channel=9 note=51 velocity=90 time=380
note_on channel=9 note=37 velocity=70 time=0
note_on channel=9 note=42 velocity=70 time=0
note_off channel=9 note=51 velocity=64 time=100
note_off channel=9 note=42 velocity=64 time=0
note_off channel=9 note=37 velocity=64 time=0
note_on channel=9 note=51 velocity=80 time=380
note_off channel=9 note=51 velocity=64 time=100
note_on channel=9 note=51 velocity=90 time=380
note_on channel=9 note=42 velocity=70 time=0
note_off channel=9 note=51 velocity=64 time=100
note_off channel=9 note=42 velocity=64 time=0
note_on channel=9 note=51 velocity=60 time=252
note_off channel=9 note=51 velocity=64 time=100
note_on channel=9 note=51 velocity=80 time=28
note_off channel=9 note=51 velocity=64 time=100
note_on channel=9 note=51 velocity=90 time=380
note_on channel=9 note=37 velocity=60 time=0
note_on channel=9 note=42 velocity=70 time=0
note_off channel=9 note=51 velocity=64 time=100
note_off channel=9 note=42 velocity=64 time=0
note_off channel=9 note=37 velocity=64 time=0
note_on channel=9 note=51 velocity=60 time=252
note_off channel=9 note=51 velocity=64 time=100
note_on channel=9 note=51 velocity=80 time=28
note_off channel=9 note=51 velocity=64 time=100
note_on channel=9 note=51 velocity=90 time=380
note_on channel=9 note=42 velocity=70 time=0
note_off channel=9 note=51 velocity=64 time=100
note_off channel=9 note=42 velocity=64 time=0
note_on channel=9 note=51 velocity=60 time=256
note_off channel=9 note=51 velocity=64 time=100
note_on channel=9 note=51 velocity=80 time=24
note_off channel=9 note=51 velocity=64 time=100
note_on channel=9 note=51 velocity=90 time=380
note_on channel=9 note=37 velocity=70 time=0
note_on channel=9 note=42 velocity=70 time=0
note_off channel=9 note=51 velocity=64 time=100
note_off channel=9 note=42 velocity=64 time=0
note_off channel=9 note=37 velocity=64 time=0
note_on channel=9 note=51 velocity=60 time=256
note_off channel=9 note=51 velocity=64 time=100
note_on channel=9 note=51 velocity=80 time=24
note_off channel=9 note=51 velocity=64 time=100
note_on channel=9 note=51 velocity=90 time=380
note_on channel=9 note=42 velocity=70 time=0
note_off channel=9 note=51 velocity=64 time=100
note_off channel=9 note=42 velocity=64 time=0
note_on channel=9 note=51 velocity=60 time=256
note_off channel=9 note=51 velocity=64 time=100
note_on channel=9 note=51 velocity=80 time=24
note_off channel=9 note=51 velocity=64 time=100
note_on channel=9 note=51 velocity=90 time=380
note_on channel=9 note=37 velocity=70 time=0
note_on channel=9 note=42 velocity=70 time=0
note_off channel=9 note=51 velocity=64 time=100
note_off channel=9 note=42 velocity=64 time=0
note_off channel=9 note=37 velocity=64 time=0
note_on channel=9 note=51 velocity=60 time=256
note_off channel=9 note=51 velocity=64 time=100
note_on channel=9 note=51 velocity=80 time=24
note_off channel=9 note=51 velocity=64 time=100
note_on channel=9 note=51 velocity=100 time=380
note_on channel=9 note=42 velocity=70 time=0
note_off channel=9 note=51 velocity=64 time=100
note_off channel=9 note=42 velocity=64 time=0
note_on channel=9 note=51 velocity=80 time=380
note_off channel=9 note=51 velocity=64 time=100
note_on channel=9 note=51 velocity=100 time=380
note_on channel=9 note=37 velocity=70 time=0
note_on channel=9 note=42 velocity=70 time=0
note_off channel=9 note=51 velocity=64 time=100
note_off channel=9 note=42 velocity=64 time=0
note_off channel=9 note=37 velocity=64 time=0
note_on channel=9 note=51 velocity=80 time=380
note_off channel=9 note=51 velocity=64 time=100
note_on channel=9 note=51 velocity=90 time=380
note_on channel=9 note=42 velocity=70 time=0
note_off channel=9 note=51 velocity=64 time=100
note_off channel=9 note=42 velocity=64 time=0
note_on channel=9 note=51 velocity=60 time=256
note_off channel=9 note=51 velocity=64 time=100
note_on channel=9 note=51 velocity=80 time=24
note_off channel=9 note=51 velocity=64 time=100
note_on channel=9 note=51 velocity=90 time=380
note_on channel=9 note=37 velocity=70 time=0
note_on channel=9 note=42 velocity=70 time=0
note_off channel=9 note=51 velocity=64 time=100
note_off channel=9 note=42 velocity=64 time=0
note_off channel=9 note=37 velocity=64 time=0
note_on channel=9 note=51 velocity=60 time=256
note_off channel=9 note=51 velocity=64 time=100
note_on channel=9 note=51 velocity=80 time=24
note_off channel=9 note=51 velocity=64 time=100
note_on channel=9 note=51 velocity=90 time=380
note_on channel=9 note=42 velocity=70 time=0
note_off channel=9 note=51 velocity=64 time=100
note_off channel=9 note=42 velocity=64 time=0
note_on channel=9 note=51 velocity=60 time=256
note_off channel=9 note=51 velocity=64 time=100
note_on channel=9 note=51 velocity=80 time=24
note_off channel=9 note=51 velocity=64 time=100
note_on channel=9 note=38 velocity=60 time=256
note_off channel=9 note=38 velocity=64 time=100
note_on channel=9 note=51 velocity=90 time=24
note_on channel=9 note=42 velocity=70 time=0
note_off channel=9 note=51 velocity=64 time=100
note_off channel=9 note=42 velocity=64 time=0
note_on channel=9 note=51 velocity=60 time=256
note_on channel=9 note=38 velocity=30 time=0
note_off channel=9 note=51 velocity=64 time=100
note_off channel=9 note=38 velocity=64 time=0
note_on channel=9 note=51 velocity=80 time=24
note_off channel=9 note=51 velocity=64 time=100
note_on channel=9 note=51 velocity=90 time=380
note_on channel=9 note=42 velocity=70 time=0
note_off channel=9 note=51 velocity=64 time=100
note_off channel=9 note=42 velocity=64 time=0
note_on channel=9 note=51 velocity=60 time=252
note_off channel=9 note=51 velocity=64 time=100
note_on channel=9 note=51 velocity=80 time=28
note_off channel=9 note=51 velocity=64 time=100
note_on channel=9 note=51 velocity=90 time=380
note_on channel=9 note=37 velocity=60 time=0
note_on channel=9 note=42 velocity=70 time=0
note_off channel=9 note=51 velocity=64 time=100
note_off channel=9 note=42 velocity=64 time=0
note_off channel=9 note=37 velocity=64 time=0
note_on channel=9 note=51 velocity=60 time=252
note_off channel=9 note=51 velocity=64 time=100
note_on channel=9 note=51 velocity=80 time=28
note_off channel=9 note=51 velocity=64 time=100
note_on channel=9 note=51 velocity=100 time=380
note_on channel=9 note=42 velocity=70 time=0
note_off channel=9 note=51 velocity=64 time=100
note_off channel=9 note=42 velocity=64 time=0
note_on channel=9 note=51 velocity=80 time=380
note_off channel=9 note=51 velocity=64 time=100
note_on channel=9 note=51 velocity=100 time=380
note_on channel=9 note=37 velocity=70 time=0
note_on channel=9 note=42 velocity=70 time=0
note_off channel=9 note=51 velocity=64 time=100
note_off channel=9 note=42 velocity=64 time=0
note_off channel=9 note=37 velocity=64 time=0
note_on channel=9 note=51 velocity=80 time=380
note_off channel=9 note=51 velocity=64 time=100
note_on channel=9 note=51 velocity=90 time=380
note_on channel=9 note=42 velocity=70 time=0
note_off channel=9 note=51 velocity=64 time=100
note_off channel=9 note=42 velocity=64 time=0
note_on channel=9 note=51 velocity=60 time=252
note_off channel=9 note=51 velocity=64 time=100
note_on channel=9 note=51 velocity=80 time=28
note_off channel=9 note=51 velocity=64 time=100
note_on channel=9 note=51 velocity=90 time=380
note_on channel=9 note=37 velocity=60 time=0
note_on channel=9 note=42 velocity=70 time=0
note_off channel=9 note=51 velocity=64 time=100
note_off channel=9 note=42 velocity=64 time=0
note_off channel=9 note=37 velocity=64 time=0
note_on channel=9 note=51 velocity=60 time=252
note_off channel=9 note=51 velocity=64 time=100
note_on channel=9 note=51 velocity=80 time=28
note_off channel=9 note=51 velocity=64 time=100
note_on channel=9 note=51 velocity=90 time=380
note_on channel=9 note=42 velocity=70 time=0
note_off channel=9 note=51 velocity=64 time=100
note_off channel=9 note=42 velocity=64 time=0
note_on channel=9 note=51 velocity=80 time=380
note_off channel=9 note=51 velocity=64 time=100
note_on channel=9 note=51 velocity=90 time=380
note_on channel=9 note=37 velocity=70 time=0
note_on channel=9 note=42 velocity=70 time=0
note_off channel=9 note=51 velocity=64 time=100
note_off channel=9 note=42 velocity=64 time=0
note_off channel=9 note=37 velocity=64 time=0
note_on channel=9 note=51 velocity=80 time=380
note_off channel=9 note=51 velocity=64 time=100
note_on channel=9 note=51 velocity=90 time=380
note_on channel=9 note=42 velocity=70 time=0
note_off channel=9 note=51 velocity=64 time=100
note_off channel=9 note=42 velocity=64 time=0
note_on channel=9 note=51 velocity=60 time=252
note_off channel=9 note=51 velocity=64 time=100
note_on channel=9 note=51 velocity=80 time=28
note_off channel=9 note=51 velocity=64 time=100
note_on channel=9 note=51 velocity=90 time=380
note_on channel=9 note=37 velocity=60 time=0
note_on channel=9 note=42 velocity=70 time=0
note_off channel=9 note=51 velocity=64 time=100
note_off channel=9 note=42 velocity=64 time=0
note_off channel=9 note=37 velocity=64 time=0
note_on channel=9 note=51 velocity=60 time=252
note_off channel=9 note=51 velocity=64 time=100
note_on channel=9 note=51 velocity=80 time=28
note_off channel=9 note=51 velocity=64 time=100
note_on channel=9 note=51 velocity=100 time=380
note_on channel=9 note=42 velocity=70 time=0
note_off channel=9 note=51 velocity=64 time=100
note_off channel=9 note=42 velocity=64 time=0
note_on channel=9 note=51 velocity=80 time=380
note_off channel=9 note=51 velocity=64 time=100
note_on channel=9 note=51 velocity=100 time=380
note_on channel=9 note=37 velocity=70 time=0
note_on channel=9 note=42 velocity=70 time=0
note_off channel=9 note=51 velocity=64 time=100
note_off channel=9 note=42 velocity=64 time=0
note_off channel=9 note=37 velocity=64 time=0
note_on channel=9 note=51 velocity=80 time=380
note_off channel=9 note=51 velocity=64 time=100
note_on channel=9 note=51 velocity=100 time=380
note_on channel=9 note=42 velocity=70 time=0
note_off channel=9 note=51 velocity=64 time=100
note_off channel=9 note=42 velocity=64 time=0
note_on channel=9 note=51 velocity=80 time=380
note_off channel=9 note=51 velocity=64 time=100
note_on channel=9 note=51 velocity=100 time=380
note_on channel=9 note=37 velocity=70 time=0
note_on channel=9 note=42 velocity=70 time=0
note_off channel=9 note=51 velocity=64 time=100
note_off channel=9 note=42 velocity=64 time=0
note_off channel=9 note=37 velocity=64 time=0
note_on channel=9 note=51 velocity=80 time=380
note_off channel=9 note=51 velocity=64 time=100
note_on channel=9 note=51 velocity=90 time=380
note_on channel=9 note=42 velocity=70 time=0
note_off channel=9 note=51 velocity=64 time=100
note_off channel=9 note=42 velocity=64 time=0
note_on channel=9 note=51 velocity=60 time=256
note_off channel=9 note=51 velocity=64 time=100
note_on channel=9 note=51 velocity=80 time=24
note_off channel=9 note=51 velocity=64 time=100
note_on channel=9 note=38 velocity=20 time=256
note_off channel=9 note=38 velocity=64 time=100
note_on channel=9 note=51 velocity=90 time=24
note_on channel=9 note=37 velocity=70 time=0
note_on channel=9 note=42 velocity=70 time=0
note_on channel=9 note=38 velocity=40 time=0
note_off channel=9 note=51 velocity=64 time=100
note_off channel=9 note=38 velocity=64 time=0
note_off channel=9 note=42 velocity=64 time=0
note_off channel=9 note=37 velocity=64 time=0
note_on channel=9 note=51 velocity=60 time=256
note_off channel=9 note=51 velocity=64 time=100
note_on channel=9 note=49 velocity=75 time=24
note_on channel=9 note=51 velocity=80 time=0
note_off channel=9 note=49 velocity=64 time=100
note_off channel=9 note=51 velocity=64 time=0
note_on channel=9 note=51 velocity=100 time=380
note_on channel=9 note=42 velocity=70 time=0
note_off channel=9 note=51 velocity=64 time=100
note_off channel=9 note=42 velocity=64 time=0
note_on channel=9 note=51 velocity=80 time=380
note_off channel=9 note=51 velocity=64 time=100
note_on channel=9 note=51 velocity=100 time=380
note_on channel=9 note=37 velocity=70 time=0
note_on channel=9 note=42 velocity=70 time=0
note_off channel=9 note=51 velocity=64 time=100
note_off channel=9 note=42 velocity=64 time=0
note_off channel=9 note=37 velocity=64 time=0
note_on channel=9 note=51 velocity=80 time=380
note_off channel=9 note=51 velocity=64 time=100
note_on channel=9 note=51 velocity=100 time=380
note_on channel=9 note=42 velocity=70 time=0
note_off channel=9 note=51 velocity=64 time=100
note_off channel=9 note=42 velocity=64 time=0
note_on channel=9 note=51 velocity=80 time=380
note_off channel=9 note=51 velocity=64 time=100
note_on channel=9 note=51 velocity=100 time=380
note_on channel=9 note=37 velocity=70 time=0
note_on channel=9 note=42 velocity=70 time=0
note_off channel=9 note=51 velocity=64 time=100
note_off channel=9 note=42 velocity=64 time=0
note_off channel=9 note=37 velocity=64 time=0
note_on channel=9 note=51 velocity=80 time=380
note_off channel=9 note=51 velocity=64 time=100
note_on channel=9 note=51 velocity=90 time=380
note_on channel=9 note=42 velocity=70 time=0
note_off channel=9 note=51 velocity=64 time=100
note_off channel=9 note=42 velocity=64 time=0
note_on channel=9 note=51 velocity=60 time=252
note_off channel=9 note=51 velocity=64 time=100
note_on channel=9 note=51 velocity=80 time=28
note_off channel=9 note=51 velocity=64 time=100
note_on channel=9 note=51 velocity=90 time=380
note_on channel=9 note=37 velocity=60 time=0
note_on channel=9 note=42 velocity=70 time=0
note_off channel=9 note=51 velocity=64 time=100
note_off channel=9 note=42 velocity=64 time=0
note_off channel=9 note=37 velocity=64 time=0
note_on channel=9 note=51 velocity=60 time=252
note_off channel=9 note=51 velocity=64 time=100
note_on channel=9 note=51 velocity=80 time=28
note_off channel=9 note=51 velocity=64 time=100
note_on channel=9 note=51 velocity=100 time=380
note_on channel=9 note=42 velocity=70 time=0
note_off channel=9 note=51 velocity=64 time=100
note_off channel=9 note=42 velocity=64 time=0
note_on channel=9 note=51 velocity=80 time=380
note_off channel=9 note=51 velocity=64 time=100
note_on channel=9 note=51 velocity=100 time=380
note_on channel=9 note=37 velocity=70 time=0
note_on channel=9 note=42 velocity=70 time=0
note_off channel=9 note=51 velocity=64 time=100
note_off channel=9 note=42 velocity=64 time=0
note_off channel=9 note=37 velocity=64 time=0
note_on channel=9 note=51 velocity=80 time=380
note_off channel=9 note=51 velocity=64 time=100
note_on channel=9 note=51 velocity=90 time=380
note_on channel=9 note=42 velocity=70 time=0
note_off channel=9 note=51 velocity=64 time=100
note_off channel=9 note=42 velocity=64 time=0
note_on channel=9 note=51 velocity=60 time=256
note_off channel=9 note=51 velocity=64 time=100
note_on channel=9 note=51 velocity=80 time=24
note_off channel=9 note=51 velocity=64 time=100
note_on channel=9 note=51 velocity=90 time=380
note_on channel=9 note=37 velocity=70 time=0
note_on channel=9 note=42 velocity=70 time=0
note_off channel=9 note=51 velocity=64 time=100
note_off channel=9 note=42 velocity=64 time=0
note_off channel=9 note=37 velocity=64 time=0
note_on channel=9 note=35 velocity=100 time=256
note_on channel=9 note=39 velocity=100 time=0
note_on channel=9 note=57 velocity=75 time=0
note_off channel=9 note=35 velocity=64 time=100
note_off channel=9 note=57 velocity=64 time=0
note_off channel=9 note=39 velocity=64 time=0
note_on channel=9 note=51 velocity=80 time=24
note_off channel=9 note=51 velocity=64 time=100
note_on channel=9 note=38 velocity=51 time=220
note_off channel=9 note=38 velocity=64 time=88
note_on channel=9 note=38 velocity=42 time=72
note_on channel=9 note=42 velocity=70 time=0
note_on channel=9 note=51 velocity=100 time=0
note_on channel=9 note=35 velocity=42 time=0
note_off channel=9 note=38 velocity=64 time=88
note_off channel=9 note=35 velocity=64 time=0
note_off channel=9 note=51 velocity=64 time=12
note_off channel=9 note=42 velocity=64 time=0
note_on channel=9 note=51 velocity=80 time=380
note_on channel=9 note=38 velocity=50 time=0
note_on channel=9 note=35 velocity=50 time=0
note_off channel=9 note=38 velocity=64 time=88
note_off channel=9 note=35 velocity=64 time=0
note_off channel=9 note=51 velocity=64 time=12
note_on channel=9 note=38 velocity=56 time=220
note_off channel=9 note=38 velocity=64 time=88
note_on channel=9 note=51 velocity=90 time=72
note_on channel=9 note=42 velocity=70 time=0
note_on channel=9 note=38 velocity=90 time=0
note_on channel=9 note=35 velocity=90 time=0
note_off channel=9 note=35 velocity=64 time=52
note_off channel=9 note=38 velocity=64 time=36
note_off channel=9 note=51 velocity=64 time=12
note_off channel=9 note=42 velocity=64 time=0
note_on channel=9 note=51 velocity=80 time=220
note_on channel=9 note=35 velocity=80 time=0
note_on channel=9 note=38 velocity=80 time=0
note_off channel=9 note=35 velocity=64 time=88
note_off channel=9 note=38 velocity=64 time=0
note_off channel=9 note=51 velocity=64 time=48
control_change channel=9 control=0 value=62 time=24
control_change channel=9 control=32 value=0 time=0
program_change channel=9 program=32 time=0
control_change channel=9 control=11 value=89 time=1896
control_change channel=9 control=11 value=90 time=336
control_change channel=9 control=11 value=91 time=312
note_on channel=9 note=38 velocity=75 time=256
note_off channel=9 note=38 velocity=64 time=40
note_on channel=9 note=38 velocity=77 time=0
note_off channel=9 note=38 velocity=64 time=40
control_change channel=9 control=11 value=93 time=0
note_on channel=9 note=35 velocity=80 time=0
note_on channel=9 note=38 velocity=106 time=0
note_off channel=9 note=35 velocity=64 time=112
note_off channel=9 note=38 velocity=64 time=0
control_change channel=9 control=11 value=94 time=200
note_on channel=9 note=49 velocity=94 time=8
note_on channel=9 note=38 velocity=94 time=0
note_on channel=9 note=35 velocity=81 time=0
note_on channel=9 note=51 velocity=81 time=0
note_off channel=9 note=38 velocity=64 time=112
note_off channel=9 note=51 velocity=64 time=0
note_off channel=9 note=35 velocity=64 time=0
control_change channel=9 control=11 value=95 time=216
note_on channel=9 note=51 velocity=60 time=188
note_off channel=9 note=51 velocity=64 time=100
control_change channel=9 control=11 value=96 time=24
note_on channel=9 note=51 velocity=80 time=0
note_on channel=9 note=35 velocity=80 time=0
note_off channel=9 note=51 velocity=64 time=100
note_off channel=9 note=35 velocity=64 time=0
note_on channel=9 note=51 velocity=90 time=380
note_on channel=9 note=42 velocity=70 time=0
note_off channel=9 note=51 velocity=64 time=100
note_off channel=9 note=42 velocity=64 time=0
note_on channel=9 note=51 velocity=60 time=256
note_off channel=9 note=51 velocity=64 time=100
note_on channel=9 note=51 velocity=80 time=24
note_off channel=9 note=49 velocity=64 time=24
note_off channel=9 note=51 velocity=64 time=76
note_on channel=9 note=51 velocity=90 time=380
note_on channel=9 note=37 velocity=70 time=0
note_on channel=9 note=42 velocity=70 time=0
note_off channel=9 note=51 velocity=64 time=100
note_off channel=9 note=42 velocity=64 time=0
note_off channel=9 note=37 velocity=64 time=0
note_on channel=9 note=51 velocity=60 time=256
note_off channel=9 note=51 velocity=64 time=100
note_on channel=9 note=51 velocity=80 time=24
note_on channel=9 note=35 velocity=80 time=0
note_off channel=9 note=51 velocity=64 time=100
note_off channel=9 note=35 velocity=64 time=0
note_on channel=9 note=51 velocity=90 time=380
note_on channel=9 note=42 velocity=70 time=0
note_off channel=9 note=51 velocity=64 time=100
note_off channel=9 note=42 velocity=64 time=0
note_on channel=9 note=51 velocity=60 time=256
note_on channel=9 note=38 velocity=75 time=44
note_off channel=9 note=38 velocity=64 time=40
note_on channel=9 note=38 velocity=77 time=0
note_off channel=9 note=51 velocity=64 time=16
note_off channel=9 note=38 velocity=64 time=24
note_on channel=9 note=51 velocity=80 time=0
note_on channel=9 note=38 velocity=106 time=0
note_on channel=9 note=35 velocity=106 time=0
note_off channel=9 note=51 velocity=64 time=100
note_off channel=9 note=35 velocity=64 time=12
note_off channel=9 note=38 velocity=64 time=0
note_on channel=9 note=38 velocity=88 time=208
note_on channel=9 note=35 velocity=88 time=0
note_on channel=9 note=40 velocity=88 time=0
note_off channel=9 note=38 velocity=64 time=112
note_off channel=9 note=40 velocity=64 time=0
note_off channel=9 note=35 velocity=64 time=0
note_on channel=9 note=51 velocity=90 time=48
note_on channel=9 note=42 velocity=70 time=0
note_off channel=9 note=51 velocity=64 time=100
note_off channel=9 note=42 velocity=64 time=0
note_on channel=9 note=35 velocity=88 time=220
note_on channel=9 note=38 velocity=88 time=0
note_on channel=9 note=49 velocity=96 time=0
note_on channel=9 note=51 velocity=60 time=36
note_off channel=9 note=35 velocity=64 time=76
note_off channel=9 note=38 velocity=64 time=0
note_off channel=9 note=51 velocity=64 time=24
note_on channel=9 note=51 velocity=80 time=24
note_off channel=9 note=51 velocity=64 time=100
note_on channel=9 note=51 velocity=100 time=380
note_on channel=9 note=42 velocity=70 time=0
note_off channel=9 note=51 velocity=64 time=100
note_off channel=9 note=42 velocity=64 time=0
note_on channel=9 note=51 velocity=80 time=380
note_off channel=9 note=51 velocity=64 time=100
note_on channel=9 note=51 velocity=100 time=380
note_on channel=9 note=37 velocity=70 time=0
note_on channel=9 note=42 velocity=70 time=0
note_off channel=9 note=51 velocity=64 time=100
note_off channel=9 note=42 velocity=64 time=0
note_off channel=9 note=37 velocity=64 time=0
note_off channel=9 note=49 velocity=64 time=356
note_on channel=9 note=51 velocity=80 time=24
note_off channel=9 note=51 velocity=64 time=100
note_on channel=9 note=51 velocity=90 time=380
note_on channel=9 note=42 velocity=70 time=0
note_off channel=9 note=51 velocity=64 time=100
note_off channel=9 note=42 velocity=64 time=0
note_on channel=9 note=51 velocity=80 time=380
note_off channel=9 note=51 velocity=64 time=100
note_on channel=9 note=51 velocity=90 time=380
note_on channel=9 note=37 velocity=70 time=0
note_on channel=9 note=42 velocity=70 time=0
note_off channel=9 note=51 velocity=64 time=100
note_off channel=9 note=42 velocity=64 time=0
note_off channel=9 note=37 velocity=64 time=0
note_on channel=9 note=38 velocity=81 time=300
note_off channel=9 note=38 velocity=64 time=40
note_on channel=9 note=38 velocity=81 time=0
note_off channel=9 note=38 velocity=64 time=40
note_on channel=9 note=51 velocity=80 time=0
note_on channel=9 note=35 velocity=96 time=0
note_on channel=9 note=38 velocity=80 time=0
note_off channel=9 note=51 velocity=64 time=100
note_off channel=9 note=38 velocity=64 time=0
note_off channel=9 note=35 velocity=64 time=0
note_on channel=9 note=40 velocity=88 time=220
note_on channel=9 note=49 velocity=88 time=0
note_off channel=9 note=40 velocity=64 time=112
note_on channel=9 note=51 velocity=100 time=48
note_on channel=9 note=42 velocity=70 time=0
note_off channel=9 note=51 velocity=64 time=100
note_off channel=9 note=42 velocity=64 time=0
note_off channel=9 note=49 velocity=64 time=188
note_on channel=9 note=38 velocity=88 time=32
note_on channel=9 note=35 velocity=88 time=0
note_on channel=9 note=49 velocity=88 time=0
note_off channel=9 note=38 velocity=64 time=112
note_off channel=9 note=35 velocity=64 time=0
note_on channel=9 note=51 velocity=80 time=48
note_off channel=9 note=51 velocity=64 time=100
note_on channel=9 note=51 velocity=100 time=380
note_on channel=9 note=42 velocity=70 time=0
note_off channel=9 note=51 velocity=64 time=100
note_off channel=9 note=42 velocity=64 time=0
note_on channel=9 note=38 velocity=81 time=300
note_off channel=9 note=49 velocity=64 time=8
note_off channel=9 note=38 velocity=64 time=32
note_on channel=9 note=38 velocity=81 time=0
note_off channel=9 note=38 velocity=64 time=40
note_on channel=9 note=51 velocity=80 time=0
note_on channel=9 note=35 velocity=96 time=0
note_on channel=9 note=38 velocity=80 time=0
note_off channel=9 note=51 velocity=64 time=100
note_off channel=9 note=38 velocity=64 time=0
note_off channel=9 note=35 velocity=64 time=0
note_on channel=9 note=40 velocity=88 time=220
note_on channel=9 note=57 velocity=88 time=0
note_off channel=9 note=40 velocity=64 time=112
note_on channel=9 note=51 velocity=90 time=48
note_on channel=9 note=42 velocity=70 time=0
note_off channel=9 note=51 velocity=64 time=100
note_off channel=9 note=42 velocity=64 time=0
note_off channel=9 note=57 velocity=64 time=188
note_on channel=9 note=38 velocity=88 time=32
note_on channel=9 note=35 velocity=88 time=0
note_on channel=9 note=57 velocity=88 time=0
note_off channel=9 note=38 velocity=64 time=112
note_off channel=9 note=35 velocity=64 time=0
note_on channel=9 note=51 velocity=80 time=48
note_off channel=9 note=51 velocity=64 time=100
note_on channel=9 note=51 velocity=90 time=380
note_on channel=9 note=42 velocity=70 time=0
note_off channel=9 note=51 velocity=64 time=100
note_off channel=9 note=42 velocity=64 time=0
note_off channel=9 note=57 velocity=64 time=308
note_on channel=9 note=51 velocity=80 time=72
note_off channel=9 note=51 velocity=64 time=100
note_on channel=9 note=38 velocity=81 time=220
note_on channel=9 note=35 velocity=81 time=0
note_on channel=9 note=49 velocity=81 time=0
note_off channel=9 note=38 velocity=64 time=112
note_off channel=9 note=49 velocity=64 time=0
note_off channel=9 note=35 velocity=64 time=0
note_on channel=9 note=51 velocity=100 time=48
note_on channel=9 note=38 velocity=70 time=0
note_off channel=9 note=51 velocity=64 time=100
note_off channel=9 note=38 velocity=64 time=0
note_on channel=9 note=40 velocity=84 time=220
note_on channel=9 note=35 velocity=84 time=0
note_on channel=9 note=57 velocity=84 time=0
note_off channel=9 note=40 velocity=64 time=112
note_off channel=9 note=57 velocity=64 time=0
note_off channel=9 note=35 velocity=64 time=0
note_on channel=9 note=51 velocity=80 time=48
note_off channel=9 note=51 velocity=64 time=100
note_on channel=9 note=38 velocity=88 time=220
note_on channel=9 note=35 velocity=88 time=0
note_on channel=9 note=49 velocity=88 time=0
note_off channel=9 note=38 velocity=64 time=112
note_off channel=9 note=49 velocity=64 time=0
note_off channel=9 note=35 velocity=64 time=0
note_on channel=9 note=51 velocity=100 time=48
note_on channel=9 note=43 velocity=70 time=0
note_off channel=9 note=51 velocity=64 time=100
note_off channel=9 note=43 velocity=64 time=0
note_on channel=9 note=41 velocity=81 time=60
note_off channel=9 note=41 velocity=64 time=64
note_on channel=9 note=40 velocity=81 time=96
note_on channel=9 note=35 velocity=81 time=0
note_off channel=9 note=40 velocity=64 time=88
note_off channel=9 note=35 velocity=64 time=48
control_change channel=9 control=11 value=96 time=24
note_on channel=9 note=51 velocity=80 time=0
note_on channel=9 note=38 velocity=91 time=0
note_off channel=9 note=38 velocity=64 time=64
note_off channel=9 note=51 velocity=64 time=36
control_change channel=9 control=11 value=95 time=92
note_on channel=9 note=57 velocity=94 time=128
note_on channel=9 note=40 velocity=94 time=0
note_on channel=9 note=35 velocity=94 time=0
note_on channel=9 note=49 velocity=94 time=0
control_change channel=9 control=11 value=94 time=64
note_off channel=9 note=35 velocity=64 time=44
note_off channel=9 note=40 velocity=64 time=4
note_on channel=9 note=51 velocity=90 time=48
note_on channel=9 note=42 velocity=70 time=0
control_change channel=9 control=11 value=93 time=96
note_off channel=9 note=51 velocity=64 time=4
note_off channel=9 note=42 velocity=64 time=0
control_change channel=9 control=11 value=91 time=188
note_on channel=9 note=51 velocity=60 time=68
note_off channel=9 note=51 velocity=64 time=100
control_change channel=9 control=11 value=90 time=24
note_on channel=9 note=51 velocity=80 time=0
note_off channel=9 note=51 velocity=64 time=100
control_change channel=9 control=11 value=89 time=92
note_off channel=9 note=49 velocity=64 time=92
note_off channel=9 note=57 velocity=64 time=0
note_on channel=9 note=38 velocity=20 time=72
control_change channel=9 control=11 value=88 time=28
note_off channel=9 note=38 velocity=64 time=72
note_on channel=9 note=51 velocity=90 time=24
note_on channel=9 note=37 velocity=70 time=0
note_on channel=9 note=42 velocity=70 time=0
note_on channel=9 note=38 velocity=40 time=0
control_change channel=9 control=11 value=86 time=96
note_off channel=9 note=51 velocity=64 time=4
note_off channel=9 note=38 velocity=64 time=0
note_off channel=9 note=42 velocity=64 time=0
note_off channel=9 note=37 velocity=64 time=0
control_change channel=9 control=11 value=85 time=188
note_on channel=9 note=51 velocity=60 time=68
note_on channel=9 note=38 velocity=81 time=44
note_off channel=9 note=38 velocity=64 time=40
note_on channel=9 note=38 velocity=81 time=0
note_off channel=9 note=51 velocity=64 time=16
note_off channel=9 note=38 velocity=64 time=24
control_change channel=9 control=11 value=84 time=0
note_on channel=9 note=51 velocity=80 time=0
note_on channel=9 note=38 velocity=84 time=0
note_on channel=9 note=35 velocity=84 time=0
note_off channel=9 note=51 velocity=64 time=100
note_off channel=9 note=35 velocity=64 time=16
note_off channel=9 note=38 velocity=64 time=0
note_on channel=9 note=38 velocity=82 time=204
note_on channel=9 note=35 velocity=82 time=0
note_off channel=9 note=38 velocity=64 time=124
note_off channel=9 note=35 velocity=64 time=0
note_on channel=9 note=51 velocity=90 time=36
note_on channel=9 note=42 velocity=70 time=0
note_off channel=9 note=51 velocity=64 time=100
note_off channel=9 note=42 velocity=64 time=0
note_on channel=9 note=51 velocity=60 time=252
note_off channel=9 note=51 velocity=64 time=100
note_on channel=9 note=51 velocity=80 time=28
note_off channel=9 note=51 velocity=64 time=100
note_on channel=9 note=51 velocity=90 time=380
note_on channel=9 note=37 velocity=60 time=0
note_on channel=9 note=42 velocity=70 time=0
note_off channel=9 note=51 velocity=64 time=100
note_off channel=9 note=42 velocity=64 time=0
note_off channel=9 note=37 velocity=64 time=0
note_on channel=9 note=51 velocity=60 time=252
note_off channel=9 note=51 velocity=64 time=100
note_on channel=9 note=51 velocity=80 time=28
note_off channel=9 note=51 velocity=64 time=100
note_on channel=9 note=51 velocity=90 time=380
note_on channel=9 note=42 velocity=70 time=0
note_off channel=9 note=51 velocity=64 time=100
note_off channel=9 note=42 velocity=64 time=0
note_on channel=9 note=51 velocity=60 time=256
note_off channel=9 note=51 velocity=64 time=100
note_on channel=9 note=51 velocity=80 time=24
note_off channel=9 note=51 velocity=64 time=100
note_on channel=9 note=51 velocity=90 time=380
note_on channel=9 note=37 velocity=70 time=0
note_on channel=9 note=42 velocity=70 time=0
note_off channel=9 note=51 velocity=64 time=100
note_off channel=9 note=42 velocity=64 time=0
note_off channel=9 note=37 velocity=64 time=0
note_on channel=9 note=51 velocity=60 time=256
note_off channel=9 note=51 velocity=64 time=100
note_on channel=9 note=51 velocity=80 time=24
note_off channel=9 note=51 velocity=64 time=100
note_on channel=9 note=51 velocity=90 time=380
note_on channel=9 note=42 velocity=70 time=0
note_off channel=9 note=51 velocity=64 time=100
note_off channel=9 note=42 velocity=64 time=0
note_on channel=9 note=51 velocity=60 time=252
note_off channel=9 note=51 velocity=64 time=100
note_on channel=9 note=51 velocity=80 time=28
note_off channel=9 note=51 velocity=64 time=100
note_on channel=9 note=51 velocity=90 time=380
note_on channel=9 note=37 velocity=60 time=0
note_on channel=9 note=42 velocity=70 time=0
note_off channel=9 note=51 velocity=64 time=100
note_off channel=9 note=42 velocity=64 time=0
note_off channel=9 note=37 velocity=64 time=0
note_on channel=9 note=51 velocity=60 time=252
note_off channel=9 note=51 velocity=64 time=100
note_on channel=9 note=51 velocity=80 time=28
note_off channel=9 note=51 velocity=64 time=100
note_on channel=9 note=51 velocity=90 time=380
note_on channel=9 note=42 velocity=70 time=0
note_off channel=9 note=51 velocity=64 time=100
note_off channel=9 note=42 velocity=64 time=0
note_on channel=9 note=51 velocity=80 time=380
note_off channel=9 note=51 velocity=64 time=100
note_on channel=9 note=51 velocity=90 time=380
note_on channel=9 note=37 velocity=70 time=0
note_on channel=9 note=42 velocity=70 time=0
note_off channel=9 note=51 velocity=64 time=100
note_off channel=9 note=42 velocity=64 time=0
note_off channel=9 note=37 velocity=64 time=0
note_on channel=9 note=51 velocity=80 time=380
note_off channel=9 note=51 velocity=64 time=100
note_on channel=9 note=51 velocity=100 time=380
note_on channel=9 note=42 velocity=70 time=0
note_off channel=9 note=51 velocity=64 time=100
note_off channel=9 note=42 velocity=64 time=0
note_on channel=9 note=51 velocity=80 time=380
note_off channel=9 note=51 velocity=64 time=100
note_on channel=9 note=51 velocity=100 time=380
note_on channel=9 note=37 velocity=70 time=0
note_on channel=9 note=42 velocity=70 time=0
note_off channel=9 note=51 velocity=64 time=100
note_off channel=9 note=42 velocity=64 time=0
note_off channel=9 note=37 velocity=64 time=0
note_on channel=9 note=51 velocity=80 time=380
note_off channel=9 note=51 velocity=64 time=100
note_on channel=9 note=51 velocity=90 time=380
note_on channel=9 note=42 velocity=70 time=0
note_off channel=9 note=51 velocity=64 time=100
note_off channel=9 note=42 velocity=64 time=0
note_on channel=9 note=51 velocity=80 time=380
note_off channel=9 note=51 velocity=64 time=100
note_on channel=9 note=51 velocity=90 time=380
note_on channel=9 note=37 velocity=70 time=0
note_on channel=9 note=42 velocity=70 time=0
note_off channel=9 note=51 velocity=64 time=100
note_off channel=9 note=42 velocity=64 time=0
note_off channel=9 note=37 velocity=64 time=0
control_change channel=9 control=11 value=84 time=380
note_on channel=9 note=51 velocity=80 time=0
note_off channel=9 note=51 velocity=64 time=100
control_change channel=9 control=11 value=85 time=92
control_change channel=9 control=11 value=86 time=192
note_on channel=9 note=51 velocity=90 time=96
note_on channel=9 note=42 velocity=70 time=0
control_change channel=9 control=11 value=88 time=96
note_off channel=9 note=51 velocity=64 time=4
note_off channel=9 note=42 velocity=64 time=0
control_change channel=9 control=11 value=89 time=188
note_on channel=9 note=51 velocity=60 time=68
note_off channel=9 note=51 velocity=64 time=100
control_change channel=9 control=11 value=90 time=24
note_on channel=9 note=51 velocity=80 time=0
note_off channel=9 note=51 velocity=64 time=100
control_change channel=9 control=11 value=91 time=92
control_change channel=9 control=11 value=93 time=192
note_on channel=9 note=51 velocity=90 time=96
note_on channel=9 note=37 velocity=70 time=0
note_on channel=9 note=42 velocity=70 time=0
control_change channel=9 control=11 value=94 time=96
note_off channel=9 note=51 velocity=64 time=4
note_off channel=9 note=42 velocity=64 time=0
note_off channel=9 note=37 velocity=64 time=0
control_change channel=9 control=11 value=95 time=188
note_on channel=9 note=51 velocity=60 time=68
note_off channel=9 note=51 velocity=64 time=100
control_change channel=9 control=11 value=96 time=24
note_on channel=9 note=51 velocity=80 time=0
note_off channel=9 note=51 velocity=64 time=100
control_change channel=9 control=11 value=98 time=92
control_change channel=9 control=11 value=99 time=192
note_on channel=9 note=51 velocity=90 time=96
note_on channel=9 note=42 velocity=70 time=0
control_change channel=9 control=11 value=100 time=96
note_off channel=9 note=51 velocity=64 time=4
note_off channel=9 note=42 velocity=64 time=0
control_change channel=9 control=11 value=101 time=188
note_on channel=9 note=51 velocity=60 time=68
note_off channel=9 note=51 velocity=64 time=100
control_change channel=9 control=11 value=103 time=24
note_on channel=9 note=48 velocity=61 time=0
note_on channel=9 note=51 velocity=80 time=0
note_off channel=9 note=48 velocity=64 time=58
note_off channel=9 note=51 velocity=64 time=42
note_on channel=9 note=48 velocity=53 time=20
note_off channel=9 note=48 velocity=64 time=57
control_change channel=9 control=11 value=104 time=15
note_on channel=9 note=38 velocity=60 time=164
note_on channel=9 note=36 velocity=74 time=4
control_change channel=9 control=11 value=105 time=24
note_off channel=9 note=36 velocity=64 time=35
note_off channel=9 note=38 velocity=64 time=37
note_on channel=9 note=47 velocity=103 time=24
note_on channel=9 note=51 velocity=90 time=0
note_on channel=9 note=42 velocity=70 time=0
note_off channel=9 note=47 velocity=64 time=56
control_change channel=9 control=11 value=106 time=40
note_off channel=9 note=42 velocity=64 time=4
note_off channel=9 note=51 velocity=64 time=0
note_on channel=9 note=47 velocity=68 time=20
note_off channel=9 note=47 velocity=64 time=57
control_change channel=9 control=11 value=108 time=111
note_on channel=9 note=51 velocity=60 time=68
note_on channel=9 note=38 velocity=30 time=0
note_on channel=9 note=36 velocity=65 time=4
note_on channel=9 note=40 velocity=81 time=40
note_off channel=9 note=36 velocity=64 time=17
note_off channel=9 note=40 velocity=64 time=23
note_on channel=9 note=40 velocity=81 time=0
note_off channel=9 note=51 velocity=64 time=16
note_off channel=9 note=38 velocity=64 time=0
note_off channel=9 note=40 velocity=64 time=24
control_change channel=9 control=11 value=109 time=0
note_on channel=9 note=51 velocity=80 time=0
note_on channel=9 note=40 velocity=92 time=0
note_off channel=9 note=40 velocity=64 time=76
note_off channel=9 note=51 velocity=64 time=24
note_on channel=9 note=40 velocity=109 time=236
note_on channel=9 note=49 velocity=109 time=0
note_on channel=9 note=36 velocity=80 time=0
note_off channel=9 note=40 velocity=64 time=58
note_off channel=9 note=36 velocity=64 time=42
note_on channel=9 note=51 velocity=90 time=44
note_on channel=9 note=42 velocity=70 time=0
note_off channel=9 note=51 velocity=64 time=100
note_off channel=9 note=42 velocity=64 time=0
note_on channel=9 note=51 velocity=60 time=256
note_off channel=9 note=51 velocity=64 time=100
note_on channel=9 note=51 velocity=80 time=24
note_on channel=9 note=38 velocity=94 time=0
note_off channel=9 note=38 velocity=64 time=88
note_off channel=9 note=51 velocity=64 time=12
note_on channel=9 note=38 velocity=94 time=220
note_on channel=9 note=38 velocity=20 time=36
note_off channel=9 note=38 velocity=64 time=52
note_off channel=9 note=38 velocity=64 time=48
note_on channel=9 note=51 velocity=90 time=24
note_on channel=9 note=37 velocity=70 time=0
note_on channel=9 note=42 velocity=70 time=0
note_on channel=9 note=38 velocity=40 time=0
note_off channel=9 note=51 velocity=64 time=100
note_off channel=9 note=38 velocity=64 time=0
note_off channel=9 note=42 velocity=64 time=0
note_off channel=9 note=37 velocity=64 time=0
note_off channel=9 note=49 velocity=64 time=150
note_on channel=9 note=51 velocity=60 time=106
note_on channel=9 note=38 velocity=30 time=0
note_on channel=9 note=36 velocity=65 time=4
note_on channel=9 note=40 velocity=81 time=40
note_off channel=9 note=36 velocity=64 time=17
note_off channel=9 note=40 velocity=64 time=23
note_on channel=9 note=40 velocity=81 time=0
note_off channel=9 note=51 velocity=64 time=16
note_off channel=9 note=38 velocity=64 time=0
note_off channel=9 note=40 velocity=64 time=24
note_on channel=9 note=51 velocity=80 time=0
note_on channel=9 note=40 velocity=92 time=0
note_off channel=9 note=40 velocity=64 time=76
note_off channel=9 note=51 velocity=64 time=24
note_on channel=9 note=36 velocity=80 time=236
note_on channel=9 note=40 velocity=109 time=0
note_on channel=9 note=57 velocity=109 time=0
note_off channel=9 note=40 velocity=64 time=58
note_off channel=9 note=36 velocity=64 time=42
note_on channel=9 note=51 velocity=90 time=44
note_on channel=9 note=42 velocity=70 time=0
note_off channel=9 note=51 velocity=64 time=100
note_off channel=9 note=42 velocity=64 time=0
note_on channel=9 note=51 velocity=60 time=256
note_off channel=9 note=51 velocity=64 time=100
note_on channel=9 note=51 velocity=80 time=24
note_on channel=9 note=38 velocity=94 time=0
note_off channel=9 note=38 velocity=64 time=88
note_off channel=9 note=51 velocity=64 time=12
note_on channel=9 note=38 velocity=94 time=220
note_on channel=9 note=38 velocity=20 time=36
note_off channel=9 note=38 velocity=64 time=52
note_off channel=9 note=38 velocity=64 time=48
note_on channel=9 note=51 velocity=90 time=24
note_on channel=9 note=37 velocity=70 time=0
note_on channel=9 note=42 velocity=70 time=0
note_on channel=9 note=38 velocity=40 time=0
note_off channel=9 note=51 velocity=64 time=100
note_off channel=9 note=38 velocity=64 time=0
note_off channel=9 note=42 velocity=64 time=0
note_off channel=9 note=37 velocity=64 time=0
note_off channel=9 note=57 velocity=64 time=150
note_on channel=9 note=51 velocity=60 time=106
note_on channel=9 note=40 velocity=81 time=44
note_off channel=9 note=40 velocity=64 time=40
note_on channel=9 note=40 velocity=81 time=0
note_off channel=9 note=51 velocity=64 time=16
note_off channel=9 note=40 velocity=64 time=24
note_on channel=9 note=51 velocity=80 time=0
note_on channel=9 note=40 velocity=92 time=0
note_off channel=9 note=40 velocity=64 time=76
note_off channel=9 note=51 velocity=64 time=24
note_on channel=9 note=40 velocity=109 time=236
note_on channel=9 note=36 velocity=80 time=0
note_on channel=9 note=49 velocity=109 time=0
note_off channel=9 note=40 velocity=64 time=58
note_off channel=9 note=36 velocity=64 time=42
note_on channel=9 note=51 velocity=90 time=44
note_on channel=9 note=42 velocity=70 time=0
note_off channel=9 note=51 velocity=64 time=100
note_off channel=9 note=42 velocity=64 time=0
note_on channel=9 note=51 velocity=60 time=256
note_off channel=9 note=51 velocity=64 time=100
note_on channel=9 note=51 velocity=80 time=24
note_on channel=9 note=38 velocity=94 time=0
note_off channel=9 note=38 velocity=64 time=88
note_off channel=9 note=51 velocity=64 time=12
note_on channel=9 note=38 velocity=94 time=220
note_on channel=9 note=38 velocity=20 time=36
note_off channel=9 note=38 velocity=64 time=52
note_off channel=9 note=38 velocity=64 time=48
note_on channel=9 note=51 velocity=90 time=24
note_on channel=9 note=37 velocity=70 time=0
note_on channel=9 note=42 velocity=70 time=0
note_on channel=9 note=38 velocity=40 time=0
note_off channel=9 note=51 velocity=64 time=100
note_off channel=9 note=38 velocity=64 time=0
note_off channel=9 note=42 velocity=64 time=0
note_off channel=9 note=37 velocity=64 time=0
note_off channel=9 note=49 velocity=64 time=150
note_on channel=9 note=51 velocity=60 time=106
note_on channel=9 note=40 velocity=81 time=44
note_off channel=9 note=40 velocity=64 time=40
note_on channel=9 note=40 velocity=81 time=0
note_off channel=9 note=51 velocity=64 time=16
note_off channel=9 note=40 velocity=64 time=24
note_on channel=9 note=51 velocity=80 time=0
note_on channel=9 note=40 velocity=92 time=0
note_off channel=9 note=40 velocity=64 time=76
note_off channel=9 note=51 velocity=64 time=24
note_on channel=9 note=40 velocity=109 time=236
note_on channel=9 note=36 velocity=80 time=0
note_on channel=9 note=57 velocity=109 time=0
note_off channel=9 note=40 velocity=64 time=58
note_off channel=9 note=36 velocity=64 time=42
note_on channel=9 note=51 velocity=90 time=44
note_on channel=9 note=42 velocity=70 time=0
note_off channel=9 note=51 velocity=64 time=100
note_off channel=9 note=42 velocity=64 time=0
note_on channel=9 note=51 velocity=60 time=256
note_off channel=9 note=51 velocity=64 time=100
note_on channel=9 note=51 velocity=80 time=24
note_on channel=9 note=40 velocity=88 time=0
note_off channel=9 note=40 velocity=64 time=84
note_off channel=9 note=51 velocity=64 time=16
note_on channel=9 note=38 velocity=20 time=256
note_off channel=9 note=38 velocity=64 time=100
note_on channel=9 note=51 velocity=90 time=24
note_on channel=9 note=37 velocity=70 time=0
note_on channel=9 note=42 velocity=70 time=0
note_on channel=9 note=38 velocity=40 time=0
note_on channel=9 note=40 velocity=88 time=0
note_off channel=9 note=40 velocity=64 time=84
note_off channel=9 note=37 velocity=64 time=16
note_off channel=9 note=38 velocity=64 time=0
note_off channel=9 note=42 velocity=64 time=0
note_off channel=9 note=51 velocity=64 time=0
note_off channel=9 note=57 velocity=64 time=150
note_on channel=9 note=51 velocity=60 time=106
note_on channel=9 note=40 velocity=81 time=44
note_off channel=9 note=40 velocity=64 time=40
note_on channel=9 note=40 velocity=81 time=0
note_off channel=9 note=51 velocity=64 time=16
note_off channel=9 note=40 velocity=64 time=24
note_on channel=9 note=51 velocity=80 time=0
note_on channel=9 note=40 velocity=109 time=0
note_on channel=9 note=36 velocity=94 time=0
note_off channel=9 note=51 velocity=64 time=100
note_off channel=9 note=36 velocity=64 time=20
note_off channel=9 note=40 velocity=64 time=0
note_on channel=9 note=49 velocity=109 time=216
note_on channel=9 note=36 velocity=80 time=0
note_on channel=9 note=40 velocity=109 time=0
note_off channel=9 note=40 velocity=64 time=58
note_off channel=9 note=36 velocity=64 time=42
note_on channel=9 note=51 velocity=100 time=44
note_on channel=9 note=42 velocity=70 time=0
note_off channel=9 note=51 velocity=64 time=100
note_off channel=9 note=42 velocity=64 time=0
note_on channel=9 note=51 velocity=80 time=380
note_on channel=9 note=40 velocity=88 time=0
note_off channel=9 note=40 velocity=64 time=92
note_off channel=9 note=51 velocity=64 time=8
note_on channel=9 note=40 velocity=88 time=220
note_off channel=9 note=40 velocity=64 time=108
note_on channel=9 note=51 velocity=100 time=52
note_on channel=9 note=37 velocity=70 time=0
note_on channel=9 note=42 velocity=70 time=0
note_off channel=9 note=51 velocity=64 time=100
note_off channel=9 note=42 velocity=64 time=0
note_off channel=9 note=37 velocity=64 time=0
note_off channel=9 note=49 velocity=64 time=150
note_on channel=9 note=40 velocity=81 time=150
note_off channel=9 note=40 velocity=64 time=40
note_on channel=9 note=40 velocity=81 time=0
note_off channel=9 note=40 velocity=64 time=40
note_on channel=9 note=51 velocity=80 time=0
note_on channel=9 note=36 velocity=94 time=0
note_on channel=9 note=40 velocity=109 time=0
note_off channel=9 note=51 velocity=64 time=100
note_off channel=9 note=40 velocity=64 time=20
note_off channel=9 note=36 velocity=64 time=0
note_on channel=9 note=51 velocity=90 time=360
note_on channel=9 note=42 velocity=70 time=0
note_on channel=9 note=40 velocity=81 time=0
note_off channel=9 note=40 velocity=64 time=88
note_off channel=9 note=51 velocity=64 time=12
note_off channel=9 note=42 velocity=64 time=0
note_on channel=9 note=40 velocity=81 time=220
note_on channel=9 note=57 velocity=101 time=0
note_on channel=9 note=51 velocity=60 time=36
note_off channel=9 note=40 velocity=64 time=52
note_off channel=9 note=51 velocity=64 time=48
note_on channel=9 note=51 velocity=80 time=24
note_off channel=9 note=51 velocity=64 time=100
note_on channel=9 note=38 velocity=60 time=256
note_off channel=9 note=38 velocity=64 time=100
note_on channel=9 note=51 velocity=90 time=24
note_on channel=9 note=42 velocity=70 time=0
note_off channel=9 note=51 velocity=64 time=100
note_off channel=9 note=42 velocity=64 time=0
note_on channel=9 note=51 velocity=60 time=256
note_on channel=9 note=38 velocity=30 time=0
note_off channel=9 note=57 velocity=64 time=52
note_off channel=9 note=38 velocity=64 time=48
note_off channel=9 note=51 velocity=64 time=0
note_on channel=9 note=51 velocity=80 time=24
note_off channel=9 note=51 velocity=64 time=100
note_on channel=9 note=40 velocity=94 time=220
note_on channel=9 note=36 velocity=94 time=0
note_off channel=9 note=40 velocity=64 time=112
note_off channel=9 note=36 velocity=64 time=0
note_on channel=9 note=51 velocity=90 time=48
note_on channel=9 note=44 velocity=55 time=0
note_on channel=9 note=47 velocity=103 time=0
note_off channel=9 note=44 velocity=64 time=18
note_off channel=9 note=47 velocity=64 time=40
note_off channel=9 note=51 velocity=64 time=42
note_on channel=9 note=40 velocity=8 time=60
note_on channel=9 note=40 velocity=8 time=0
note_off channel=9 note=40 velocity=64 time=44
note_off channel=9 note=40 velocity=64 time=0
note_on channel=9 note=40 velocity=94 time=116
note_on channel=9 note=51 velocity=60 time=36
note_off channel=9 note=40 velocity=64 time=20
note_off channel=9 note=51 velocity=64 time=80
note_on channel=9 note=51 velocity=80 time=24
note_on channel=9 note=44 velocity=55 time=0
note_off channel=9 note=44 velocity=64 time=20
note_off channel=9 note=51 velocity=64 time=80
note_on channel=9 note=43 velocity=109 time=60
note_off channel=9 note=43 velocity=64 time=57
note_on channel=9 note=51 velocity=90 time=263
note_on channel=9 note=37 velocity=70 time=0
note_on channel=9 note=40 velocity=111 time=0
note_on channel=9 note=44 velocity=55 time=0
note_off channel=9 note=44 velocity=64 time=19
note_off channel=9 note=40 velocity=64 time=37
note_off channel=9 note=51 velocity=64 time=44
note_off channel=9 note=37 velocity=64 time=0
note_on channel=9 note=40 velocity=8 time=92
note_off channel=9 note=40 velocity=64 time=57
note_on channel=9 note=40 velocity=66 time=71
note_on channel=9 note=51 velocity=60 time=36
note_off channel=9 note=40 velocity=64 time=23
note_on channel=9 note=40 velocity=70 time=67
note_off channel=9 note=51 velocity=64 time=10
note_on channel=9 note=51 velocity=80 time=24
note_on channel=9 note=40 velocity=126 time=0
note_off channel=9 note=40 velocity=64 time=1
note_off channel=9 note=40 velocity=64 time=0
note_on channel=9 note=36 velocity=86 time=59
note_off channel=9 note=51 velocity=64 time=40
note_off channel=9 note=36 velocity=64 time=19
note_on channel=9 note=51 velocity=100 time=361
note_on channel=9 note=36 velocity=96 time=0
note_on channel=9 note=40 velocity=96 time=0
note_on channel=9 note=49 velocity=106 time=0
note_off channel=9 note=36 velocity=64 time=56
note_off channel=9 note=49 velocity=64 time=0
note_off channel=9 note=40 velocity=64 time=0
note_off channel=9 note=51 velocity=64 time=44
note_on channel=9 note=36 velocity=102 time=220
note_on channel=9 note=40 velocity=74 time=0
note_on channel=9 note=57 velocity=108 time=0
note_off channel=9 note=36 velocity=64 time=57
note_off channel=9 note=40 velocity=64 time=1
note_on channel=9 note=51 velocity=80 time=102
note_off channel=9 note=51 velocity=64 time=100
note_on channel=9 note=40 velocity=81 time=220
note_off channel=9 note=40 velocity=64 time=64
note_on channel=9 note=51 velocity=100 time=96
note_on channel=9 note=37 velocity=70 time=0
note_off channel=9 note=51 velocity=64 time=100
note_off channel=9 note=37 velocity=64 time=0
note_off channel=9 note=57 velocity=64 time=296
note_on channel=9 note=51 velocity=80 time=84
note_on channel=9 note=40 velocity=94 time=0
note_on channel=9 note=36 velocity=94 time=0
note_off channel=9 note=40 velocity=64 time=64
note_off channel=9 note=36 velocity=64 time=0
note_off channel=9 note=51 velocity=64 time=36
note_on channel=9 note=38 velocity=94 time=220
note_on channel=9 note=36 velocity=94 time=0
note_off channel=9 note=38 velocity=64 time=64
note_off channel=9 note=36 velocity=64 time=0
note_on channel=9 note=51 velocity=90 time=96
note_on channel=9 note=38 velocity=40 time=0
note_off channel=9 note=51 velocity=64 time=100
note_off channel=9 note=38 velocity=64 time=0
note_on channel=9 note=38 velocity=30 time=60
note_off channel=9 note=38 velocity=64 time=100
note_on channel=9 note=48 velocity=90 time=60
note_on channel=9 note=51 velocity=60 time=36
note_off channel=9 note=48 velocity=64 time=64
note_off channel=9 note=51 velocity=64 time=36
note_on channel=9 note=51 velocity=80 time=24
note_on channel=9 note=38 velocity=60 time=0
note_off channel=9 note=51 velocity=64 time=100
note_off channel=9 note=38 velocity=64 time=0
note_on channel=9 note=38 velocity=40 time=60
note_off channel=9 note=38 velocity=64 time=100
note_on channel=9 note=45 velocity=90 time=60
note_on channel=9 note=38 velocity=60 time=36
note_off channel=9 note=45 velocity=64 time=64
note_off channel=9 note=38 velocity=64 time=36
note_on channel=9 note=51 velocity=90 time=24
note_on channel=9 note=38 velocity=60 time=0
note_off channel=9 note=51 velocity=64 time=100
note_off channel=9 note=38 velocity=64 time=0
note_on channel=9 note=38 velocity=40 time=84
note_off channel=9 note=38 velocity=64 time=100
note_on channel=9 note=41 velocity=90 time=36
note_on channel=9 note=51 velocity=60 time=36
note_on channel=9 note=38 velocity=81 time=44
note_off channel=9 note=41 velocity=64 time=20
note_off channel=9 note=38 velocity=64 time=20
note_on channel=9 note=38 velocity=81 time=0
note_off channel=9 note=51 velocity=64 time=16
note_off channel=9 note=38 velocity=64 time=24
note_on channel=9 note=51 velocity=80 time=0
note_on channel=9 note=35 velocity=90 time=0
note_on channel=9 note=38 velocity=90 time=0
note_on channel=9 note=57 velocity=90 time=0
note_off channel=9 note=51 velocity=64 time=100
note_off channel=9 note=35 velocity=64 time=0
note_off channel=9 note=38 velocity=64 time=0
note_on channel=9 note=51 velocity=100 time=380
note_on channel=9 note=42 velocity=70 time=0
note_on channel=9 note=40 velocity=94 time=0
note_on channel=9 note=35 velocity=94 time=0
note_off channel=9 note=40 velocity=64 time=72
note_off channel=9 note=35 velocity=64 time=0
note_off channel=9 note=51 velocity=64 time=28
note_off channel=9 note=42 velocity=64 time=0
note_on channel=9 note=51 velocity=80 time=380
note_on channel=9 note=40 velocity=94 time=0
note_on channel=9 note=35 velocity=94 time=0
note_off channel=9 note=40 velocity=64 time=80
note_off channel=9 note=35 velocity=64 time=0
note_off channel=9 note=51 velocity=64 time=20
note_on channel=9 note=40 velocity=94 time=220
note_on channel=9 note=35 velocity=94 time=0
note_off channel=9 note=40 velocity=64 time=132
note_off channel=9 note=35 velocity=64 time=0
note_on channel=9 note=51 velocity=88 time=28
note_on channel=9 note=37 velocity=88 time=0
note_on channel=9 note=42 velocity=88 time=0
note_on channel=9 note=40 velocity=88 time=0
note_off channel=9 note=40 velocity=64 time=64
note_off channel=9 note=57 velocity=64 time=12
note_off channel=9 note=42 velocity=64 time=24
note_off channel=9 note=37 velocity=64 time=0
note_off channel=9 note=51 velocity=64 time=0
note_on channel=9 note=38 velocity=74 time=60
note_off channel=9 note=38 velocity=64 time=64
note_on channel=9 note=49 velocity=106 time=96
note_on channel=9 note=35 velocity=94 time=0
note_on channel=9 note=38 velocity=106 time=0
note_off channel=9 note=35 velocity=64 time=64
note_off channel=9 note=38 velocity=64 time=24
note_on channel=9 note=51 velocity=80 time=72
note_off channel=9 note=51 velocity=64 time=100
note_on channel=9 note=51 velocity=90 time=380
note_on channel=9 note=42 velocity=70 time=0
note_off channel=9 note=51 velocity=64 time=100
note_off channel=9 note=42 velocity=64 time=0
note_on channel=9 note=51 velocity=80 time=380
note_off channel=9 note=51 velocity=64 time=100
note_on channel=9 note=51 velocity=90 time=380
note_on channel=9 note=37 velocity=70 time=0
note_on channel=9 note=42 velocity=70 time=0
note_on channel=9 note=35 velocity=94 time=0
note_on channel=9 note=38 velocity=94 time=0
note_off channel=9 note=35 velocity=64 time=92
note_off channel=9 note=38 velocity=64 time=0
note_off channel=9 note=42 velocity=64 time=8
note_off channel=9 note=51 velocity=64 time=0
note_off channel=9 note=37 velocity=64 time=0
note_on channel=9 note=35 velocity=94 time=220
note_on channel=9 note=38 velocity=94 time=0
note_on channel=9 note=51 velocity=100 time=0
note_off channel=9 note=49 velocity=64 time=16
note_off channel=9 note=51 velocity=64 time=96
note_off channel=9 note=38 velocity=64 time=0
note_off channel=9 note=35 velocity=64 time=0
note_on channel=9 note=51 velocity=80 time=48
note_off channel=9 note=51 velocity=64 time=100
note_on channel=9 note=36 velocity=94 time=220
note_on channel=9 note=40 velocity=94 time=0
note_off channel=9 note=36 velocity=64 time=112
note_off channel=9 note=40 velocity=64 time=0
note_on channel=9 note=47 velocity=103 time=48
note_on channel=9 note=44 velocity=55 time=0
note_on channel=9 note=51 velocity=90 time=0
note_off channel=9 note=44 velocity=64 time=18
note_off channel=9 note=47 velocity=64 time=40
note_off channel=9 note=51 velocity=64 time=42
note_on channel=9 note=40 velocity=8 time=60
note_on channel=9 note=40 velocity=8 time=0
note_off channel=9 note=40 velocity=64 time=44
note_off channel=9 note=40 velocity=64 time=0
note_on channel=9 note=40 velocity=94 time=116
note_on channel=9 note=51 velocity=60 time=36
note_off channel=9 note=40 velocity=64 time=20
note_off channel=9 note=51 velocity=64 time=80
note_on channel=9 note=44 velocity=55 time=24
note_on channel=9 note=51 velocity=80 time=0
note_off channel=9 note=44 velocity=64 time=20
note_off channel=9 note=51 velocity=64 time=80
note_on channel=9 note=43 velocity=109 time=60
note_off channel=9 note=43 velocity=64 time=57
note_on channel=9 note=44 velocity=55 time=263
note_on channel=9 note=40 velocity=111 time=0
note_on channel=9 note=37 velocity=70 time=0
note_on channel=9 note=51 velocity=90 time=0
note_off channel=9 note=44 velocity=64 time=19
note_off channel=9 note=40 velocity=64 time=37
note_off channel=9 note=37 velocity=64 time=44
note_off channel=9 note=51 velocity=64 time=0
note_on channel=9 note=40 velocity=8 time=92
note_off channel=9 note=40 velocity=64 time=57
note_on channel=9 note=40 velocity=66 time=71
note_on channel=9 note=51 velocity=60 time=36
note_off channel=9 note=40 velocity=64 time=23
note_on channel=9 note=40 velocity=70 time=67
note_off channel=9 note=51 velocity=64 time=10
note_on channel=9 note=40 velocity=126 time=24
note_on channel=9 note=51 velocity=80 time=0
note_off channel=9 note=40 velocity=64 time=1
note_off channel=9 note=40 velocity=64 time=0
note_on channel=9 note=36 velocity=86 time=59
note_on channel=9 note=40 velocity=86 time=0
note_off channel=9 note=51 velocity=64 time=40
note_off channel=9 note=40 velocity=64 time=19
note_off channel=9 note=36 velocity=64 time=0
note_on channel=9 note=38 velocity=94 time=201
note_on channel=9 note=36 velocity=94 time=0
note_on channel=9 note=49 velocity=106 time=0
note_off channel=9 note=38 velocity=64 time=100
note_off channel=9 note=36 velocity=64 time=0
note_on channel=9 note=51 velocity=100 time=60
note_off channel=9 note=51 velocity=64 time=100
note_on channel=9 note=40 velocity=74 time=220
note_on channel=9 note=36 velocity=102 time=0
note_off channel=9 note=36 velocity=64 time=57
note_off channel=9 note=40 velocity=64 time=1
note_on channel=9 note=51 velocity=80 time=102
note_on channel=9 note=38 velocity=94 time=0
note_off channel=9 note=38 velocity=64 time=84
note_off channel=9 note=51 velocity=64 time=16
note_on channel=9 note=40 velocity=81 time=220
note_off channel=9 note=40 velocity=64 time=64
note_on channel=9 note=36 velocity=70 time=96
note_on channel=9 note=51 velocity=100 time=0
note_on channel=9 note=38 velocity=94 time=0
note_off channel=9 note=38 velocity=64 time=80
note_off channel=9 note=36 velocity=64 time=20
note_off channel=9 note=51 velocity=64 time=0
note_on channel=9 note=38 velocity=94 time=220
note_on channel=9 note=36 velocity=94 time=0
note_off channel=9 note=38 velocity=64 time=88
note_off channel=9 note=36 velocity=64 time=0
note_off channel=9 note=49 velocity=64 time=36
note_on channel=9 note=51 velocity=80 time=36
note_off channel=9 note=51 velocity=64 time=100
note_on channel=9 note=38 velocity=94 time=220
note_off channel=9 note=38 velocity=64 time=88
note_on channel=9 note=51 velocity=90 time=72
note_on channel=9 note=42 velocity=70 time=0
note_off channel=9 note=51 velocity=64 time=100
note_off channel=9 note=42 velocity=64 time=0
note_on channel=9 note=36 velocity=75 time=220
note_on channel=9 note=51 velocity=75 time=36
note_off channel=9 note=36 velocity=64 time=88
note_off channel=9 note=51 velocity=64 time=12
note_on channel=9 note=51 velocity=79 time=24
note_on channel=9 note=38 velocity=79 time=0
note_off channel=9 note=38 velocity=64 time=88
note_off channel=9 note=51 velocity=64 time=12
note_on channel=9 note=51 velocity=90 time=380
note_on channel=9 note=36 velocity=70 time=0
note_on channel=9 note=42 velocity=70 time=0
note_on channel=9 note=38 velocity=94 time=0
note_off channel=9 note=38 velocity=64 time=88
note_off channel=9 note=36 velocity=64 time=12
note_off channel=9 note=42 velocity=64 time=0
note_off channel=9 note=51 velocity=64 time=0
note_on channel=9 note=51 velocity=60 time=256
note_on channel=9 note=40 velocity=81 time=44
note_off channel=9 note=40 velocity=64 time=40
note_on channel=9 note=40 velocity=81 time=0
note_off channel=9 note=51 velocity=64 time=16
note_off channel=9 note=40 velocity=64 time=24
note_on channel=9 note=51 velocity=80 time=0
note_on channel=9 note=36 velocity=90 time=0
note_on channel=9 note=40 velocity=98 time=0
note_off channel=9 note=51 velocity=64 time=100
note_off channel=9 note=40 velocity=64 time=0
note_off channel=9 note=36 velocity=64 time=0
note_on channel=9 note=51 velocity=100 time=380
note_on channel=9 note=42 velocity=70 time=0
note_on channel=9 note=49 velocity=109 time=0
note_on channel=9 note=36 velocity=109 time=0
note_on channel=9 note=40 velocity=109 time=0
note_off channel=9 note=36 velocity=64 time=96
note_off channel=9 note=40 velocity=64 time=0
note_off channel=9 note=42 velocity=64 time=4
note_off channel=9 note=51 velocity=64 time=0
note_on channel=9 note=51 velocity=80 time=380
note_off channel=9 note=51 velocity=64 time=100
note_off channel=9 note=49 velocity=64 time=332
note_on channel=9 note=51 velocity=100 time=48
note_on channel=9 note=36 velocity=70 time=0
note_on channel=9 note=42 velocity=70 time=0
note_on channel=9 note=40 velocity=94 time=0
note_off channel=9 note=40 velocity=64 time=84
note_off channel=9 note=36 velocity=64 time=16
note_off channel=9 note=42 velocity=64 time=0
note_off channel=9 note=51 velocity=64 time=0
note_on channel=9 note=38 velocity=81 time=300
note_off channel=9 note=38 velocity=64 time=40
note_on channel=9 note=38 velocity=81 time=0
note_off channel=9 note=38 velocity=64 time=40
note_on channel=9 note=51 velocity=80 time=0
note_on channel=9 note=38 velocity=100 time=0
note_on channel=9 note=36 velocity=89 time=0
note_off channel=9 note=38 velocity=64 time=92
note_off channel=9 note=36 velocity=64 time=0
note_off channel=9 note=51 velocity=64 time=8
note_on channel=9 note=57 velocity=103 time=220
note_on channel=9 note=51 velocity=90 time=160
note_on channel=9 note=42 velocity=70 time=0
note_off channel=9 note=51 velocity=64 time=100
note_off channel=9 note=42 velocity=64 time=0
note_on channel=9 note=51 velocity=60 time=256
note_on channel=9 note=38 velocity=81 time=44
note_off channel=9 note=38 velocity=64 time=40
note_on channel=9 note=38 velocity=81 time=0
note_off channel=9 note=51 velocity=64 time=16
note_off channel=9 note=38 velocity=64 time=24
control_change channel=9 control=11 value=109 time=0
note_on channel=9 note=51 velocity=80 time=0
note_on channel=9 note=48 velocity=61 time=0
note_on channel=9 note=38 velocity=100 time=0
note_on channel=9 note=36 velocity=92 time=0
note_off channel=9 note=48 velocity=64 time=58
note_off channel=9 note=36 velocity=64 time=34
note_off channel=9 note=38 velocity=64 time=0
note_off channel=9 note=51 velocity=64 time=8
control_change channel=9 control=11 value=106 time=20
note_on channel=9 note=48 velocity=53 time=0
note_off channel=9 note=48 velocity=64 time=57
control_change channel=9 control=11 value=104 time=63
note_on channel=9 note=49 velocity=94 time=80
note_on channel=9 note=38 velocity=60 time=36
control_change channel=9 control=11 value=101 time=4
note_off channel=9 note=57 velocity=64 time=12
note_off channel=9 note=38 velocity=64 time=84
control_change channel=9 control=11 value=99 time=24
note_on channel=9 note=51 velocity=90 time=0
note_on channel=9 note=42 velocity=70 time=0
note_on channel=9 note=47 velocity=103 time=0
note_off channel=9 note=47 velocity=64 time=56
note_off channel=9 note=51 velocity=64 time=44
note_off channel=9 note=42 velocity=64 time=0
control_change channel=9 control=11 value=96 time=20
note_on channel=9 note=47 velocity=68 time=0
note_off channel=9 note=47 velocity=64 time=57
control_change channel=9 control=11 value=94 time=63
note_on channel=9 note=51 velocity=60 time=116
note_on channel=9 note=38 velocity=30 time=0
control_change channel=9 control=11 value=91 time=4
note_off channel=9 note=51 velocity=64 time=96
note_off channel=9 note=38 velocity=64 time=0
control_change channel=9 control=11 value=89 time=24
note_on channel=9 note=51 velocity=80 time=0
note_off channel=9 note=51 velocity=64 time=100
note_on channel=9 note=51 velocity=100 time=380
note_on channel=9 note=42 velocity=70 time=0
note_off channel=9 note=51 velocity=64 time=100
note_off channel=9 note=42 velocity=64 time=0
note_off channel=9 note=49 velocity=64 time=332
note_on channel=9 note=51 velocity=80 time=48
note_off channel=9 note=51 velocity=64 time=100
note_on channel=9 note=51 velocity=100 time=380
note_on channel=9 note=37 velocity=70 time=0
note_on channel=9 note=42 velocity=70 time=0
note_off channel=9 note=51 velocity=64 time=100
note_off channel=9 note=42 velocity=64 time=0
note_off channel=9 note=37 velocity=64 time=0
note_on channel=9 note=51 velocity=80 time=380
note_off channel=9 note=51 velocity=64 time=100
note_on channel=9 note=51 velocity=100 time=380
note_on channel=9 note=42 velocity=70 time=0
note_off channel=9 note=51 velocity=64 time=100
note_off channel=9 note=42 velocity=64 time=0
note_on channel=9 note=51 velocity=80 time=380
note_off channel=9 note=51 velocity=64 time=100
note_on channel=9 note=51 velocity=100 time=380
note_on channel=9 note=37 velocity=70 time=0
note_on channel=9 note=42 velocity=70 time=0
note_off channel=9 note=51 velocity=64 time=100
note_off channel=9 note=42 velocity=64 time=0
note_off channel=9 note=37 velocity=64 time=0
note_on channel=9 note=51 velocity=80 time=380
note_off channel=9 note=51 velocity=64 time=100
note_on channel=9 note=51 velocity=100 time=380
note_on channel=9 note=42 velocity=70 time=0
note_off channel=9 note=51 velocity=64 time=100
note_off channel=9 note=42 velocity=64 time=0
note_on channel=9 note=51 velocity=80 time=380
note_off channel=9 note=51 velocity=64 time=100
note_on channel=9 note=51 velocity=100 time=380
note_on channel=9 note=37 velocity=70 time=0
note_on channel=9 note=42 velocity=70 time=0
note_off channel=9 note=51 velocity=64 time=100
note_off channel=9 note=42 velocity=64 time=0
note_off channel=9 note=37 velocity=64 time=0
note_on channel=9 note=51 velocity=80 time=380
note_off channel=9 note=51 velocity=64 time=100
note_on channel=9 note=51 velocity=100 time=380
note_on channel=9 note=42 velocity=70 time=0
note_off channel=9 note=51 velocity=64 time=100
note_off channel=9 note=42 velocity=64 time=0
note_on channel=9 note=51 velocity=80 time=380
note_off channel=9 note=51 velocity=64 time=100
note_on channel=9 note=51 velocity=100 time=380
note_on channel=9 note=37 velocity=70 time=0
note_on channel=9 note=42 velocity=70 time=0
note_off channel=9 note=51 velocity=64 time=100
note_off channel=9 note=42 velocity=64 time=0
note_off channel=9 note=37 velocity=64 time=0
note_on channel=9 note=51 velocity=80 time=380
note_off channel=9 note=51 velocity=64 time=100
note_on channel=9 note=51 velocity=100 time=380
note_on channel=9 note=42 velocity=70 time=0
note_off channel=9 note=51 velocity=64 time=100
note_off channel=9 note=42 velocity=64 time=0
note_on channel=9 note=51 velocity=80 time=380
note_off channel=9 note=51 velocity=64 time=100
note_on channel=9 note=51 velocity=100 time=380
note_on channel=9 note=37 velocity=70 time=0
note_on channel=9 note=42 velocity=70 time=0
note_off channel=9 note=51 velocity=64 time=100
note_off channel=9 note=42 velocity=64 time=0
note_off channel=9 note=37 velocity=64 time=0
note_on channel=9 note=51 velocity=80 time=380
note_off channel=9 note=51 velocity=64 time=100
note_on channel=9 note=51 velocity=90 time=380
note_on channel=9 note=42 velocity=70 time=0
note_off channel=9 note=51 velocity=64 time=100
note_off channel=9 note=42 velocity=64 time=0
note_on channel=9 note=51 velocity=60 time=256
note_off channel=9 note=51 velocity=64 time=100
note_on channel=9 note=51 velocity=80 time=24
note_off channel=9 note=51 velocity=64 time=100
note_on channel=9 note=51 velocity=90 time=380
note_on channel=9 note=37 velocity=70 time=0
note_on channel=9 note=42 velocity=70 time=0
note_off channel=9 note=51 velocity=64 time=100
note_off channel=9 note=42 velocity=64 time=0
note_off channel=9 note=37 velocity=64 time=0
note_on channel=9 note=51 velocity=60 time=256
note_off channel=9 note=51 velocity=64 time=100
control_change channel=9 control=11 value=89 time=24
note_on channel=9 note=51 velocity=80 time=0
note_off channel=9 note=51 velocity=64 time=100
control_change channel=9 control=11 value=90 time=140
control_change channel=9 control=11 value=91 time=240
note_on channel=9 note=51 velocity=100 time=0
note_on channel=9 note=42 velocity=70 time=0
note_off channel=9 note=51 velocity=64 time=100
note_off channel=9 note=42 velocity=64 time=0
control_change channel=9 control=11 value=93 time=140
control_change channel=9 control=11 value=94 time=240
note_on channel=9 note=51 velocity=80 time=0
note_off channel=9 note=51 velocity=64 time=100
control_change channel=9 control=11 value=95 time=140
control_change channel=9 control=11 value=96 time=240
note_on channel=9 note=51 velocity=100 time=0
note_on channel=9 note=37 velocity=70 time=0
note_on channel=9 note=42 velocity=70 time=0
note_off channel=9 note=51 velocity=64 time=100
note_off channel=9 note=42 velocity=64 time=0
note_off channel=9 note=37 velocity=64 time=0
control_change channel=9 control=11 value=98 time=140
control_change channel=9 control=11 value=99 time=240
note_on channel=9 note=51 velocity=80 time=0
note_on channel=9 note=38 velocity=100 time=0
note_on channel=9 note=35 velocity=100 time=0
note_off channel=9 note=51 velocity=64 time=100
note_off channel=9 note=35 velocity=64 time=0
note_off channel=9 note=38 velocity=64 time=0
note_on channel=9 note=38 velocity=60 time=60
control_change channel=9 control=11 value=100 time=80
note_off channel=9 note=38 velocity=64 time=20
note_on channel=9 note=38 velocity=50 time=60
note_off channel=9 note=38 velocity=64 time=100
control_change channel=9 control=11 value=101 time=60
note_on channel=9 note=51 velocity=90 time=0
note_on channel=9 note=42 velocity=70 time=0
note_on channel=9 note=42 velocity=100 time=0
note_on channel=9 note=38 velocity=40 time=0
note_off channel=9 note=51 velocity=64 time=100
note_off channel=9 note=38 velocity=64 time=0
note_off channel=9 note=42 velocity=64 time=0
note_off channel=9 note=42 velocity=64 time=0
note_on channel=9 note=38 velocity=30 time=60
control_change channel=9 control=11 value=103 time=80
note_off channel=9 note=38 velocity=64 time=20
note_on channel=9 note=48 velocity=90 time=60
note_on channel=9 note=51 velocity=60 time=36
note_off channel=9 note=48 velocity=64 time=64
note_off channel=9 note=51 velocity=64 time=36
control_change channel=9 control=11 value=104 time=24
note_on channel=9 note=51 velocity=80 time=0
note_on channel=9 note=38 velocity=60 time=0
note_off channel=9 note=51 velocity=64 time=100
note_off channel=9 note=38 velocity=64 time=0
note_on channel=9 note=38 velocity=40 time=60
control_change channel=9 control=11 value=105 time=80
note_off channel=9 note=38 velocity=64 time=20
note_on channel=9 note=45 velocity=90 time=60
note_on channel=9 note=38 velocity=60 time=36
note_off channel=9 note=45 velocity=64 time=64
note_off channel=9 note=38 velocity=64 time=36
control_change channel=9 control=11 value=106 time=24
note_on channel=9 note=51 velocity=90 time=0
note_on channel=9 note=42 velocity=70 time=0
note_on channel=9 note=42 velocity=100 time=0
note_on channel=9 note=38 velocity=60 time=0
note_off channel=9 note=51 velocity=64 time=100
note_off channel=9 note=38 velocity=64 time=0
note_off channel=9 note=42 velocity=64 time=0
note_off channel=9 note=42 velocity=64 time=0
note_on channel=9 note=38 velocity=40 time=60
control_change channel=9 control=11 value=108 time=80
note_off channel=9 note=38 velocity=64 time=20
note_on channel=9 note=41 velocity=90 time=60
note_on channel=9 note=51 velocity=60 time=36
note_on channel=9 note=38 velocity=30 time=0
note_on channel=9 note=40 velocity=81 time=44
note_off channel=9 note=41 velocity=64 time=20
note_off channel=9 note=40 velocity=64 time=20
note_on channel=9 note=40 velocity=81 time=0
note_off channel=9 note=38 velocity=64 time=16
note_off channel=9 note=51 velocity=64 time=0
note_off channel=9 note=40 velocity=64 time=24
control_change channel=9 control=11 value=109 time=0
note_on channel=9 note=51 velocity=80 time=0
note_on channel=9 note=38 velocity=90 time=0
note_on channel=9 note=35 velocity=90 time=0
note_on channel=9 note=40 velocity=90 time=0
note_off channel=9 note=51 velocity=64 time=100
note_off channel=9 note=40 velocity=64 time=0
note_off channel=9 note=35 velocity=64 time=0
note_off channel=9 note=38 velocity=64 time=0
note_on channel=9 note=38 velocity=95 time=220
note_on channel=9 note=49 velocity=100 time=0
note_on channel=9 note=35 velocity=95 time=0
note_off channel=9 note=38 velocity=64 time=72
note_off channel=9 note=35 velocity=64 time=0
note_on channel=9 note=51 velocity=90 time=88
note_on channel=9 note=42 velocity=70 time=0
note_off channel=9 note=51 velocity=64 time=100
note_off channel=9 note=42 velocity=64 time=0
note_on channel=9 note=38 velocity=95 time=220
note_on channel=9 note=35 velocity=95 time=0
note_on channel=9 note=51 velocity=60 time=36
note_off channel=9 note=38 velocity=64 time=28
note_off channel=9 note=35 velocity=64 time=0
note_off channel=9 note=51 velocity=64 time=72
note_on channel=9 note=51 velocity=80 time=24
note_on channel=9 note=38 velocity=95 time=0
note_on channel=9 note=35 velocity=95 time=0
note_off channel=9 note=38 velocity=64 time=64
note_off channel=9 note=35 velocity=64 time=0
note_off channel=9 note=51 velocity=64 time=36
note_on channel=9 note=51 velocity=90 time=380
note_on channel=9 note=35 velocity=70 time=0
note_on channel=9 note=42 velocity=70 time=0
note_on channel=9 note=38 velocity=95 time=0
note_off channel=9 note=35 velocity=64 time=64
note_off channel=9 note=38 velocity=64 time=0
note_off channel=9 note=42 velocity=64 time=36
note_off channel=9 note=51 velocity=64 time=0
note_on channel=9 note=51 velocity=60 time=256
note_off channel=9 note=49 velocity=64 time=12
note_off channel=9 note=51 velocity=64 time=88
control_change channel=9 control=93 value=30 time=24
control_change channel=9 control=93 value=30 time=0
control_change channel=9 control=93 value=30 time=0
control_change channel=9 control=93 value=30 time=0
note_on channel=9 note=51 velocity=80 time=0
note_on channel=9 note=38 velocity=94 time=0
note_on channel=9 note=57 velocity=94 time=0
note_on channel=9 note=35 velocity=94 time=0
note_off channel=9 note=38 velocity=64 time=64
note_off channel=9 note=35 velocity=64 time=0
note_off channel=9 note=51 velocity=64 time=36
note_on channel=9 note=51 velocity=90 time=380
note_on channel=9 note=42 velocity=70 time=0
note_on channel=9 note=38 velocity=94 time=0
note_off channel=9 note=38 velocity=64 time=64
note_off channel=9 note=51 velocity=64 time=36
note_off channel=9 note=42 velocity=64 time=0
note_on channel=9 note=38 velocity=94 time=220
note_on channel=9 note=35 velocity=94 time=0
note_on channel=9 note=51 velocity=60 time=36
note_off channel=9 note=38 velocity=64 time=28
note_off channel=9 note=35 velocity=64 time=0
note_off channel=9 note=51 velocity=64 time=72
note_on channel=9 note=51 velocity=80 time=24
note_off channel=9 note=51 velocity=64 time=100
note_on channel=9 note=40 velocity=86 time=300
note_off channel=9 note=40 velocity=64 time=40
note_on channel=9 note=40 velocity=81 time=0
note_off channel=9 note=40 velocity=64 time=40
note_on channel=9 note=51 velocity=90 time=0
note_on channel=9 note=35 velocity=70 time=0
note_on channel=9 note=42 velocity=70 time=0
note_on channel=9 note=40 velocity=94 time=0
note_off channel=9 note=35 velocity=64 time=88
note_off channel=9 note=40 velocity=64 time=0
note_off channel=9 note=42 velocity=64 time=12
note_off channel=9 note=51 velocity=64 time=0
note_on channel=9 note=49 velocity=100 time=220
note_on channel=9 note=35 velocity=81 time=0
note_on channel=9 note=38 velocity=94 time=0
note_on channel=9 note=51 velocity=60 time=36
note_off channel=9 note=57 velocity=64 time=44
note_off channel=9 note=38 velocity=64 time=8
note_off channel=9 note=35 velocity=64 time=0
note_off channel=9 note=51 velocity=64 time=48
note_on channel=9 note=51 velocity=80 time=24
note_off channel=9 note=51 velocity=64 time=100
note_on channel=9 note=51 velocity=90 time=380
note_on channel=9 note=42 velocity=70 time=0
note_on channel=9 note=38 velocity=94 time=0
note_on channel=9 note=35 velocity=94 time=0
note_off channel=9 note=51 velocity=64 time=100
note_off channel=9 note=42 velocity=64 time=0
note_off channel=9 note=38 velocity=64 time=12
note_off channel=9 note=35 velocity=64 time=0
note_on channel=9 note=51 velocity=60 time=244
note_off channel=9 note=51 velocity=64 time=100
note_on channel=9 note=51 velocity=80 time=24
note_on channel=9 note=38 velocity=94 time=0
note_off channel=9 note=51 velocity=64 time=100
note_off channel=9 note=38 velocity=64 time=12
note_on channel=9 note=38 velocity=94 time=208
note_on channel=9 note=35 velocity=94 time=0
note_off channel=9 note=38 velocity=64 time=112
note_off channel=9 note=35 velocity=64 time=0
note_on channel=9 note=51 velocity=90 time=48
note_on channel=9 note=35 velocity=70 time=0
note_on channel=9 note=42 velocity=70 time=0
note_on channel=9 note=40 velocity=90 time=0
note_off channel=9 note=49 velocity=64 time=48
note_off channel=9 note=40 velocity=64 time=52
note_off channel=9 note=42 velocity=64 time=0
note_off channel=9 note=35 velocity=64 time=0
note_off channel=9 note=51 velocity=64 time=0
note_on channel=9 note=38 velocity=94 time=220
note_on channel=9 note=57 velocity=101 time=0
note_on channel=9 note=35 velocity=94 time=0
note_on channel=9 note=51 velocity=60 time=36
note_off channel=9 note=38 velocity=64 time=76
note_off channel=9 note=35 velocity=64 time=0
note_off channel=9 note=51 velocity=64 time=24
note_on channel=9 note=51 velocity=80 time=24
note_off channel=9 note=51 velocity=64 time=100
note_on channel=9 note=51 velocity=90 time=380
note_on channel=9 note=42 velocity=70 time=0
note_on channel=9 note=38 velocity=94 time=0
note_on channel=9 note=35 velocity=94 time=0
note_off channel=9 note=51 velocity=64 time=100
note_off channel=9 note=42 velocity=64 time=0
note_off channel=9 note=38 velocity=64 time=12
note_off channel=9 note=35 velocity=64 time=0
note_on channel=9 note=38 velocity=94 time=208
note_on channel=9 note=35 velocity=94 time=0
note_on channel=9 note=51 velocity=60 time=36
note_off channel=9 note=38 velocity=64 time=76
note_off channel=9 note=35 velocity=64 time=0
note_off channel=9 note=51 velocity=64 time=24
note_on channel=9 note=51 velocity=80 time=24
note_on channel=9 note=40 velocity=10 time=0
note_off channel=9 note=40 velocity=64 time=57
note_off channel=9 note=51 velocity=64 time=43
note_on channel=9 note=40 velocity=8 time=140
note_off channel=9 note=40 velocity=64 time=57
note_on channel=9 note=38 velocity=20 time=59
note_on channel=9 note=40 velocity=103 time=4
note_off channel=9 note=40 velocity=64 time=58
note_off channel=9 note=38 velocity=64 time=38
note_on channel=9 note=51 velocity=90 time=24
note_on channel=9 note=35 velocity=70 time=0
note_on channel=9 note=38 velocity=40 time=0
note_off channel=9 note=51 velocity=64 time=100
note_off channel=9 note=38 velocity=64 time=0
note_off channel=9 note=35 velocity=64 time=0
note_on channel=9 note=47 velocity=111 time=20
note_off channel=9 note=47 velocity=64 time=57
note_on channel=9 note=40 velocity=8 time=63
note_off channel=9 note=40 velocity=64 time=57
note_on channel=9 note=51 velocity=60 time=59
note_off channel=9 note=57 velocity=64 time=4
note_on channel=9 note=40 velocity=64 time=0
note_off channel=9 note=40 velocity=64 time=57
note_off channel=9 note=51 velocity=64 time=39
note_on channel=9 note=40 velocity=62 time=2
note_on channel=9 note=51 velocity=80 time=22
note_on channel=9 note=40 velocity=126 time=1
note_off channel=9 note=40 velocity=64 time=7
note_off channel=9 note=40 velocity=64 time=0
note_off channel=9 note=51 velocity=64 time=92
note_on channel=9 note=49 velocity=101 time=220
note_on channel=9 note=35 velocity=101 time=0
note_on channel=9 note=40 velocity=101 time=0
note_off channel=9 note=35 velocity=64 time=88
note_off channel=9 note=40 velocity=64 time=0
note_on channel=9 note=51 velocity=90 time=72
note_on channel=9 note=42 velocity=70 time=0
note_off channel=9 note=51 velocity=64 time=100
note_off channel=9 note=42 velocity=64 time=0
note_on channel=9 note=51 velocity=60 time=252
note_off channel=9 note=51 velocity=64 time=100
note_on channel=9 note=51 velocity=80 time=28
note_on channel=9 note=38 velocity=94 time=0
note_on channel=9 note=35 velocity=94 time=0
note_off channel=9 note=38 velocity=64 time=60
note_off channel=9 note=35 velocity=64 time=0
note_off channel=9 note=51 velocity=64 time=40
note_on channel=9 note=51 velocity=90 time=380
note_on channel=9 note=42 velocity=70 time=0
note_on channel=9 note=38 velocity=94 time=0
note_on channel=9 note=35 velocity=94 time=0
note_off channel=9 note=38 velocity=64 time=60
note_off channel=9 note=35 velocity=64 time=0
note_off channel=9 note=51 velocity=64 time=40
note_off channel=9 note=42 velocity=64 time=0
note_off channel=9 note=49 velocity=64 time=236
note_on channel=9 note=51 velocity=60 time=16
note_off channel=9 note=51 velocity=64 time=100
note_on channel=9 note=51 velocity=80 time=28
note_on channel=9 note=38 velocity=94 time=0
note_off channel=9 note=38 velocity=64 time=86
note_off channel=9 note=51 velocity=64 time=14
note_on channel=9 note=40 velocity=81 time=220
note_off channel=9 note=40 velocity=64 time=88
note_on channel=9 note=51 velocity=90 time=72
note_on channel=9 note=42 velocity=70 time=0
note_on channel=9 note=38 velocity=81 time=0
note_off channel=9 note=38 velocity=64 time=88
note_off channel=9 note=51 velocity=64 time=12
note_off channel=9 note=42 velocity=64 time=0
note_on channel=9 note=38 velocity=94 time=220
note_on channel=9 note=57 velocity=94 time=0
note_on channel=9 note=35 velocity=94 time=0
note_on channel=9 note=51 velocity=60 time=36
note_off channel=9 note=38 velocity=64 time=88
note_off channel=9 note=35 velocity=64 time=0
note_off channel=9 note=51 velocity=64 time=12
note_on channel=9 note=51 velocity=80 time=24
note_off channel=9 note=51 velocity=64 time=100
note_on channel=9 note=38 velocity=20 time=256
note_on channel=9 note=40 velocity=103 time=4
note_off channel=9 note=40 velocity=64 time=58
note_off channel=9 note=38 velocity=64 time=38
note_on channel=9 note=51 velocity=90 time=24
note_on channel=9 note=37 velocity=70 time=0
note_on channel=9 note=42 velocity=70 time=0
note_on channel=9 note=38 velocity=40 time=0
note_on channel=9 note=35 velocity=70 time=0
note_off channel=9 note=51 velocity=64 time=100
note_off channel=9 note=35 velocity=64 time=0
note_off channel=9 note=38 velocity=64 time=0
note_off channel=9 note=42 velocity=64 time=0
note_off channel=9 note=37 velocity=64 time=0
note_on channel=9 note=47 velocity=111 time=20
note_off channel=9 note=47 velocity=64 time=57
note_on channel=9 note=40 velocity=8 time=63
note_off channel=9 note=40 velocity=64 time=57
note_on channel=9 note=51 velocity=60 time=59
note_on channel=9 note=40 velocity=64 time=4
note_off channel=9 note=40 velocity=64 time=57
note_off channel=9 note=51 velocity=64 time=39
note_on channel=9 note=40 velocity=62 time=2
note_on channel=9 note=51 velocity=80 time=22
note_on channel=9 note=40 velocity=126 time=1
note_off channel=9 note=40 velocity=64 time=7
note_off channel=9 note=40 velocity=64 time=0
note_off channel=9 note=51 velocity=64 time=92
note_on channel=9 note=40 velocity=101 time=220
note_on channel=9 note=35 velocity=101 time=0
note_on channel=9 note=49 velocity=101 time=0
note_off channel=9 note=40 velocity=64 time=88
note_off channel=9 note=35 velocity=64 time=0
note_off channel=9 note=57 velocity=64 time=36
note_on channel=9 note=51 velocity=100 time=36
note_on channel=9 note=42 velocity=70 time=0
note_off channel=9 note=51 velocity=64 time=100
note_off channel=9 note=42 velocity=64 time=0
note_on channel=9 note=51 velocity=80 time=380
note_off channel=9 note=51 velocity=64 time=100
note_on channel=9 note=51 velocity=100 time=380
note_on channel=9 note=35 velocity=70 time=0
note_on channel=9 note=42 velocity=70 time=0
note_off channel=9 note=51 velocity=64 time=100
note_off channel=9 note=42 velocity=64 time=0
note_off channel=9 note=35 velocity=64 time=0
note_off channel=9 note=49 velocity=64 time=236
note_on channel=9 note=51 velocity=80 time=144
note_off channel=9 note=51 velocity=64 time=100
note_on channel=9 note=51 velocity=90 time=380
note_on channel=9 note=42 velocity=70 time=0
note_off channel=9 note=51 velocity=64 time=100
note_off channel=9 note=42 velocity=64 time=0
note_on channel=9 note=51 velocity=60 time=256
note_off channel=9 note=51 velocity=64 time=100
control_change channel=9 control=11 value=109 time=24
note_on channel=9 note=51 velocity=80 time=0
note_on channel=9 note=45 velocity=81 time=0
note_off channel=9 note=45 velocity=64 time=80
note_off channel=9 note=51 velocity=64 time=20
control_change channel=9 control=11 value=108 time=20
control_change channel=9 control=11 value=106 time=120
note_on channel=9 note=45 velocity=81 time=80
control_change channel=9 control=11 value=105 time=40
note_off channel=9 note=45 velocity=64 time=48
control_change channel=9 control=11 value=103 time=72
note_on channel=9 note=51 velocity=90 time=0
note_on channel=9 note=35 velocity=70 time=0
note_on channel=9 note=40 velocity=70 time=0
note_on channel=9 note=43 velocity=81 time=0
note_off channel=9 note=43 velocity=64 time=88
note_off channel=9 note=35 velocity=64 time=12
note_off channel=9 note=40 velocity=64 time=0
note_off channel=9 note=51 velocity=64 time=0
control_change channel=9 control=11 value=101 time=20
note_on channel=9 note=41 velocity=81 time=40
control_change channel=9 control=11 value=100 time=80
note_off channel=9 note=41 velocity=64 time=8
note_on channel=9 note=40 velocity=84 time=72
note_on channel=9 note=51 velocity=84 time=36
control_change channel=9 control=11 value=99 time=4
note_off channel=9 note=40 velocity=64 time=48
note_off channel=9 note=51 velocity=64 time=48
note_on channel=9 note=40 velocity=62 time=2
control_change channel=9 control=11 value=96 time=22
note_on channel=9 note=51 velocity=80 time=0
note_on channel=9 note=40 velocity=126 time=1
note_off channel=9 note=40 velocity=64 time=7
note_off channel=9 note=40 velocity=64 time=0
note_off channel=9 note=51 velocity=64 time=92
note_on channel=9 note=49 velocity=94 time=220
note_on channel=9 note=40 velocity=81 time=0
note_on channel=9 note=35 velocity=81 time=0
note_off channel=9 note=40 velocity=64 time=88
note_off channel=9 note=35 velocity=64 time=0
note_on channel=9 note=51 velocity=90 time=72
note_on channel=9 note=42 velocity=70 time=0
note_off channel=9 note=51 velocity=64 time=100
note_off channel=9 note=42 velocity=64 time=0
note_on channel=9 note=51 velocity=60 time=256
note_off channel=9 note=51 velocity=64 time=100
note_on channel=9 note=51 velocity=80 time=24
note_off channel=9 note=51 velocity=64 time=100
note_on channel=9 note=51 velocity=90 time=380
note_on channel=9 note=37 velocity=70 time=0
note_on channel=9 note=42 velocity=70 time=0
note_off channel=9 note=51 velocity=64 time=100
note_off channel=9 note=42 velocity=64 time=0
note_off channel=9 note=37 velocity=64 time=0
note_off channel=9 note=49 velocity=64 time=236
note_on channel=9 note=51 velocity=60 time=20
note_off channel=9 note=51 velocity=64 time=100
note_on channel=9 note=51 velocity=80 time=24
note_off channel=9 note=51 velocity=64 time=100
note_on channel=9 note=51 velocity=100 time=380
note_on channel=9 note=42 velocity=70 time=0
note_off channel=9 note=51 velocity=64 time=100
note_off channel=9 note=42 velocity=64 time=0
note_on channel=9 note=51 velocity=80 time=380
note_off channel=9 note=51 velocity=64 time=100
note_on channel=9 note=38 velocity=60 time=300
note_off channel=9 note=38 velocity=64 time=40
note_on channel=9 note=38 velocity=65 time=0
note_off channel=9 note=38 velocity=64 time=40
note_on channel=9 note=51 velocity=66 time=0
note_on channel=9 note=35 velocity=66 time=0
note_on channel=9 note=42 velocity=66 time=0
note_on channel=9 note=38 velocity=66 time=0
note_off channel=9 note=51 velocity=64 time=100
note_off channel=9 note=38 velocity=64 time=0
note_off channel=9 note=42 velocity=64 time=0
note_off channel=9 note=35 velocity=64 time=0
note_on channel=9 note=38 velocity=67 time=238
note_on channel=9 note=35 velocity=67 time=0
note_off channel=9 note=38 velocity=61 time=108
note_off channel=9 note=35 velocity=61 time=0
control_change channel=9 control=0 value=62 time=34
control_change channel=9 control=32 value=0 time=0
program_change channel=9 program=40 time=0
note_on channel=9 note=38 velocity=54 time=1920
note_off channel=9 note=38 velocity=64 time=80
note_on channel=9 note=38 velocity=56 time=0
note_off channel=9 note=38 velocity=64 time=80
note_on channel=9 note=38 velocity=51 time=320
note_on channel=9 note=35 velocity=51 time=0
note_off channel=9 note=38 velocity=64 time=96
note_off channel=9 note=35 velocity=64 time=0
note_on channel=9 note=35 velocity=75 time=224
note_on channel=9 note=57 velocity=75 time=0
note_off channel=9 note=35 velocity=64 time=88
note_off channel=9 note=57 velocity=64 time=0
note_on channel=9 note=57 velocity=72 time=12
note_off channel=9 note=57 velocity=64 time=60
note_on channel=9 note=57 velocity=25 time=0
note_off channel=9 note=57 velocity=64 time=60
note_on channel=9 note=57 velocity=25 time=0
note_off channel=9 note=57 velocity=64 time=60
note_on channel=9 note=57 velocity=26 time=0
note_off channel=9 note=57 velocity=64 time=60
note_on channel=9 note=57 velocity=26 time=0
note_off channel=9 note=57 velocity=64 time=60
note_on channel=9 note=57 velocity=27 time=0
note_off channel=9 note=57 velocity=64 time=60
note_on channel=9 note=57 velocity=27 time=0
note_off channel=9 note=57 velocity=64 time=60
note_on channel=9 note=57 velocity=28 time=0
note_off channel=9 note=57 velocity=64 time=60
note_on channel=9 note=57 velocity=28 time=0
note_off channel=9 note=57 velocity=64 time=60
note_on channel=9 note=57 velocity=28 time=0
note_off channel=9 note=57 velocity=64 time=60
note_on channel=9 note=57 velocity=30 time=0
note_off channel=9 note=57 velocity=64 time=60
note_on channel=9 note=57 velocity=30 time=0
note_off channel=9 note=57 velocity=64 time=60
note_on channel=9 note=57 velocity=31 time=0
note_off channel=9 note=57 velocity=64 time=60
note_on channel=9 note=57 velocity=31 time=0
note_off channel=9 note=57 velocity=64 time=60
note_on channel=9 note=57 velocity=32 time=0
note_off channel=9 note=57 velocity=64 time=60
note_on channel=9 note=57 velocity=32 time=0
note_off channel=9 note=57 velocity=64 time=60
note_on channel=9 note=57 velocity=33 time=0
note_off channel=9 note=57 velocity=64 time=60
note_on channel=9 note=57 velocity=33 time=0
note_off channel=9 note=57 velocity=64 time=60
note_on channel=9 note=57 velocity=35 time=0
note_off channel=9 note=57 velocity=64 time=60
note_on channel=9 note=57 velocity=35 time=0
note_off channel=9 note=57 velocity=64 time=60
note_on channel=9 note=57 velocity=36 time=0
note_off channel=9 note=57 velocity=64 time=60
note_on channel=9 note=57 velocity=36 time=0
note_off channel=9 note=57 velocity=64 time=60
note_on channel=9 note=57 velocity=36 time=0
note_off channel=9 note=57 velocity=64 time=60
note_on channel=9 note=57 velocity=37 time=0
note_off channel=9 note=57 velocity=64 time=60
note_on channel=9 note=57 velocity=37 time=0
note_off channel=9 note=57 velocity=64 time=60
note_on channel=9 note=57 velocity=38 time=0
note_off channel=9 note=57 velocity=64 time=60
note_on channel=9 note=57 velocity=38 time=0
note_off channel=9 note=57 velocity=64 time=60
note_on channel=9 note=57 velocity=40 time=0
note_off channel=9 note=57 velocity=64 time=60
note_on channel=9 note=57 velocity=40 time=0
note_off channel=9 note=57 velocity=64 time=60
note_on channel=9 note=57 velocity=41 time=0
note_off channel=9 note=57 velocity=64 time=60
note_on channel=9 note=57 velocity=41 time=0
note_off channel=9 note=57 velocity=64 time=60
note_on channel=9 note=57 velocity=41 time=0
note_off channel=9 note=57 velocity=64 time=60
note_on channel=9 note=57 velocity=42 time=0
note_off channel=9 note=57 velocity=64 time=60
note_on channel=9 note=57 velocity=42 time=0
note_off channel=9 note=57 velocity=64 time=60
note_on channel=9 note=57 velocity=44 time=0
note_off channel=9 note=57 velocity=64 time=60
note_on channel=9 note=57 velocity=44 time=0
note_off channel=9 note=57 velocity=64 time=60
note_on channel=9 note=57 velocity=42 time=0
note_off channel=9 note=57 velocity=64 time=60
note_on channel=9 note=57 velocity=42 time=0
note_off channel=9 note=57 velocity=64 time=60
note_on channel=9 note=57 velocity=41 time=0
note_off channel=9 note=57 velocity=64 time=60
note_on channel=9 note=57 velocity=41 time=0
note_off channel=9 note=57 velocity=64 time=60
note_on channel=9 note=57 velocity=40 time=0
note_off channel=9 note=57 velocity=64 time=60
note_on channel=9 note=57 velocity=40 time=0
note_off channel=9 note=57 velocity=64 time=60
note_on channel=9 note=57 velocity=38 time=0
note_off channel=9 note=57 velocity=64 time=60
note_on channel=9 note=57 velocity=38 time=0
note_off channel=9 note=57 velocity=64 time=60
note_on channel=9 note=57 velocity=37 time=0
note_off channel=9 note=57 velocity=64 time=60
note_on channel=9 note=57 velocity=37 time=0
note_off channel=9 note=57 velocity=64 time=60
note_on channel=9 note=57 velocity=36 time=0
note_off channel=9 note=57 velocity=64 time=60
note_on channel=9 note=57 velocity=36 time=0
note_off channel=9 note=57 velocity=64 time=60
note_on channel=9 note=57 velocity=36 time=0
note_off channel=9 note=57 velocity=64 time=60
note_on channel=9 note=57 velocity=35 time=0
note_off channel=9 note=57 velocity=64 time=60
note_on channel=9 note=57 velocity=35 time=0
note_off channel=9 note=57 velocity=64 time=60
note_on channel=9 note=57 velocity=33 time=0
note_off channel=9 note=57 velocity=64 time=60
note_on channel=9 note=57 velocity=33 time=0
note_off channel=9 note=57 velocity=64 time=60
note_on channel=9 note=57 velocity=32 time=0
note_off channel=9 note=57 velocity=64 time=60
note_on channel=9 note=57 velocity=32 time=0
note_off channel=9 note=57 velocity=64 time=60
note_on channel=9 note=57 velocity=31 time=0
note_off channel=9 note=57 velocity=64 time=60
note_on channel=9 note=57 velocity=31 time=0
note_off channel=9 note=57 velocity=64 time=60
note_on channel=9 note=57 velocity=30 time=0
note_off channel=9 note=57 velocity=64 time=60
note_on channel=9 note=57 velocity=30 time=0
note_off channel=9 note=57 velocity=64 time=60
note_on channel=9 note=57 velocity=28 time=0
note_off channel=9 note=57 velocity=64 time=60
note_on channel=9 note=57 velocity=28 time=0
note_off channel=9 note=57 velocity=64 time=60
note_on channel=9 note=57 velocity=28 time=0
note_off channel=9 note=57 velocity=64 time=60
note_on channel=9 note=57 velocity=27 time=0
note_off channel=9 note=57 velocity=64 time=60
note_on channel=9 note=57 velocity=27 time=0
note_off channel=9 note=57 velocity=64 time=60
note_on channel=9 note=57 velocity=26 time=0
note_off channel=9 note=57 velocity=64 time=60
<meta message end_of_track time=0>
<meta message text text='Jazz Bass' time=0>
control_change channel=0 control=11 value=89 time=0
control_change channel=0 control=7 value=94 time=0
control_change channel=0 control=10 value=44 time=0
control_change channel=0 control=91 value=81 time=0
control_change channel=0 control=93 value=5 time=0
control_change channel=0 control=0 value=56 time=0
control_change channel=0 control=32 value=0 time=0
program_change channel=0 program=32 time=0
note_on channel=0 note=43 velocity=98 time=5760
note_on channel=0 note=31 velocity=91 time=356
note_off channel=0 note=43 velocity=64 time=8
note_off channel=0 note=31 velocity=64 time=116
note_on channel=0 note=43 velocity=100 time=0
note_off channel=0 note=43 velocity=64 time=476
note_on channel=0 note=43 velocity=72 time=4
note_off channel=0 note=43 velocity=64 time=360
note_on channel=0 note=31 velocity=69 time=0
note_off channel=0 note=31 velocity=64 time=32
note_on channel=0 note=43 velocity=72 time=88
note_off channel=0 note=43 velocity=64 time=360
note_on channel=0 note=31 velocity=69 time=0
note_off channel=0 note=31 velocity=64 time=32
note_on channel=0 note=36 velocity=82 time=88
note_off channel=0 note=36 velocity=64 time=268
note_on channel=0 note=36 velocity=94 time=88
note_off channel=0 note=36 velocity=64 time=116
note_on channel=0 note=35 velocity=75 time=8
note_off channel=0 note=35 velocity=64 time=480
note_on channel=0 note=36 velocity=87 time=0
note_on channel=0 note=24 velocity=64 time=356
note_off channel=0 note=36 velocity=64 time=76
note_off channel=0 note=24 velocity=64 time=52
note_on channel=0 note=42 velocity=87 time=0
note_off channel=0 note=42 velocity=64 time=476
control_change channel=0 control=11 value=96 time=0
note_on channel=0 note=41 velocity=98 time=0
note_on channel=0 note=29 velocity=91 time=356
note_off channel=0 note=41 velocity=64 time=8
note_off channel=0 note=29 velocity=64 time=116
note_on channel=0 note=41 velocity=100 time=0
control_change channel=0 control=11 value=98 time=288
note_off channel=0 note=41 velocity=64 time=188
note_on channel=0 note=41 velocity=72 time=4
note_off channel=0 note=41 velocity=64 time=360
note_on channel=0 note=29 velocity=69 time=0
note_off channel=0 note=29 velocity=64 time=32
note_on channel=0 note=41 velocity=72 time=88
control_change channel=0 control=11 value=99 time=96
note_off channel=0 note=41 velocity=64 time=264
note_on channel=0 note=29 velocity=69 time=0
note_off channel=0 note=29 velocity=64 time=32
note_on channel=0 note=38 velocity=86 time=88
note_on channel=0 note=33 velocity=62 time=356
control_change channel=0 control=11 value=100 time=28
note_off channel=0 note=33 velocity=64 time=52
note_off channel=0 note=38 velocity=64 time=24
note_on channel=0 note=45 velocity=79 time=20
note_off channel=0 note=45 velocity=64 time=356
note_on channel=0 note=33 velocity=64 time=0
note_off channel=0 note=33 velocity=64 time=68
note_on channel=0 note=38 velocity=91 time=56
control_change channel=0 control=11 value=101 time=192
note_on channel=0 note=42 velocity=88 time=288
note_off channel=0 note=38 velocity=64 time=60
note_off channel=0 note=42 velocity=64 time=376
control_change channel=0 control=11 value=103 time=44
note_on channel=0 note=43 velocity=93 time=0
note_off channel=0 note=43 velocity=64 time=480
note_on channel=0 note=43 velocity=100 time=0
control_change channel=0 control=11 value=104 time=288
note_off channel=0 note=43 velocity=64 time=192
note_on channel=0 note=43 velocity=70 time=0
note_off channel=0 note=43 velocity=64 time=480
note_on channel=0 note=43 velocity=72 time=0
control_change channel=0 control=11 value=105 time=96
note_off channel=0 note=43 velocity=64 time=264
note_on channel=0 note=31 velocity=69 time=0
note_off channel=0 note=31 velocity=64 time=32
note_on channel=0 note=36 velocity=87 time=88
note_off channel=0 note=36 velocity=64 time=256
note_on channel=0 note=36 velocity=80 time=100
control_change channel=0 control=11 value=106 time=28
note_on channel=0 note=43 velocity=75 time=96
note_off channel=0 note=36 velocity=64 time=16
note_off channel=0 note=43 velocity=64 time=464
note_on channel=0 note=36 velocity=79 time=0
control_change channel=0 control=11 value=108 time=192
note_off channel=0 note=36 velocity=64 time=228
note_on channel=0 note=40 velocity=82 time=60
note_off channel=0 note=40 velocity=64 time=272
note_on channel=0 note=41 velocity=85 time=48
note_off channel=0 note=41 velocity=64 time=124
control_change channel=0 control=11 value=109 time=36
control_change channel=0 control=11 value=108 time=240
note_on channel=0 note=41 velocity=98 time=108
note_off channel=0 note=41 velocity=73 time=91
note_on channel=0 note=45 velocity=83 time=36
control_change channel=0 control=11 value=106 time=5
control_change channel=0 control=11 value=105 time=240
control_change channel=0 control=11 value=104 time=240
note_off channel=0 note=45 velocity=55 time=2
note_on channel=0 note=46 velocity=58 time=3
control_change channel=0 control=11 value=103 time=235
note_off channel=0 note=46 velocity=37 time=211
control_change channel=0 control=11 value=101 time=29
note_on channel=0 note=47 velocity=58 time=9
control_change channel=0 control=11 value=100 time=231
control_change channel=0 control=11 value=99 time=240
note_off channel=0 note=47 velocity=57 time=5
note_on channel=0 note=48 velocity=75 time=14
control_change channel=0 control=11 value=98 time=221
control_change channel=0 control=11 value=96 time=240
note_off channel=0 note=48 velocity=52 time=36
note_on channel=0 note=51 velocity=62 time=7
control_change channel=0 control=11 value=95 time=197
note_off channel=0 note=51 velocity=49 time=218
control_change channel=0 control=11 value=94 time=22
note_on channel=0 note=50 velocity=77 time=2
control_change channel=0 control=11 value=93 time=238
note_off channel=0 note=50 velocity=56 time=115
note_on channel=0 note=38 velocity=58 time=10
control_change channel=0 control=11 value=91 time=115
note_on channel=0 note=44 velocity=83 time=29
note_off channel=0 note=38 velocity=43 time=12
control_change channel=0 control=11 value=90 time=199
note_off channel=0 note=44 velocity=46 time=209
control_change channel=0 control=11 value=89 time=31
note_on channel=0 note=43 velocity=81 time=0
note_off channel=0 note=43 velocity=64 time=360
note_on channel=0 note=31 velocity=69 time=0
note_off channel=0 note=31 velocity=64 time=32
note_on channel=0 note=43 velocity=70 time=88
note_off channel=0 note=43 velocity=64 time=480
note_on channel=0 note=43 velocity=82 time=0
note_off channel=0 note=43 velocity=64 time=268
note_on channel=0 note=43 velocity=94 time=88
note_off channel=0 note=43 velocity=64 time=116
note_on channel=0 note=35 velocity=75 time=8
note_off channel=0 note=35 velocity=64 time=480
note_on channel=0 note=36 velocity=86 time=0
note_on channel=0 note=31 velocity=62 time=356
note_off channel=0 note=31 velocity=64 time=80
note_off channel=0 note=36 velocity=64 time=24
note_on channel=0 note=43 velocity=79 time=20
note_off channel=0 note=43 velocity=64 time=356
note_on channel=0 note=31 velocity=64 time=0
note_off channel=0 note=31 velocity=64 time=68
note_on channel=0 note=36 velocity=82 time=56
note_off channel=0 note=36 velocity=64 time=268
note_on channel=0 note=36 velocity=94 time=88
note_off channel=0 note=36 velocity=64 time=116
note_on channel=0 note=40 velocity=75 time=8
note_off channel=0 note=40 velocity=64 time=480
note_on channel=0 note=41 velocity=70 time=0
note_off channel=0 note=41 velocity=64 time=480
note_on channel=0 note=41 velocity=72 time=0
note_off channel=0 note=41 velocity=64 time=360
note_on channel=0 note=29 velocity=69 time=0
note_off channel=0 note=29 velocity=64 time=32
note_on channel=0 note=41 velocity=86 time=88
note_on channel=0 note=36 velocity=62 time=356
note_off channel=0 note=36 velocity=64 time=80
note_off channel=0 note=41 velocity=64 time=24
note_on channel=0 note=48 velocity=79 time=20
note_off channel=0 note=48 velocity=64 time=356
note_on channel=0 note=36 velocity=64 time=0
note_off channel=0 note=36 velocity=64 time=68
note_on channel=0 note=50 velocity=78 time=56
note_on channel=0 note=45 velocity=77 time=480
note_off channel=0 note=50 velocity=64 time=60
note_off channel=0 note=45 velocity=64 time=420
note_on channel=0 note=38 velocity=87 time=0
note_off channel=0 note=38 velocity=64 time=256
note_on channel=0 note=38 velocity=80 time=100
note_on channel=0 note=45 velocity=73 time=124
note_off channel=0 note=38 velocity=64 time=16
note_off channel=0 note=45 velocity=64 time=464
note_on channel=0 note=43 velocity=70 time=0
note_off channel=0 note=43 velocity=64 time=480
note_on channel=0 note=43 velocity=72 time=0
note_off channel=0 note=43 velocity=64 time=360
note_on channel=0 note=31 velocity=69 time=0
note_off channel=0 note=31 velocity=64 time=32
note_on channel=0 note=43 velocity=93 time=88
note_off channel=0 note=43 velocity=64 time=480
note_on channel=0 note=43 velocity=100 time=0
note_off channel=0 note=43 velocity=64 time=480
note_on channel=0 note=36 velocity=98 time=0
note_on channel=0 note=24 velocity=91 time=356
note_off channel=0 note=36 velocity=64 time=8
note_off channel=0 note=24 velocity=64 time=116
note_on channel=0 note=36 velocity=100 time=0
note_off channel=0 note=36 velocity=64 time=476
note_on channel=0 note=36 velocity=93 time=4
note_off channel=0 note=36 velocity=64 time=480
note_on channel=0 note=36 velocity=100 time=0
note_off channel=0 note=36 velocity=64 time=480
note_on channel=0 note=36 velocity=102 time=0
note_off channel=0 note=36 velocity=64 time=276
note_on channel=0 note=24 velocity=110 time=80
note_off channel=0 note=24 velocity=64 time=92
note_on channel=0 note=38 velocity=102 time=32
note_off channel=0 note=38 velocity=64 time=436
note_on channel=0 note=39 velocity=82 time=44
note_off channel=0 note=39 velocity=64 time=448
note_on channel=0 note=43 velocity=95 time=32
note_off channel=0 note=43 velocity=64 time=332
note_on channel=0 note=36 velocity=100 time=24
note_off channel=0 note=36 velocity=64 time=124
note_on channel=0 note=41 velocity=78 time=0
note_on channel=0 note=43 velocity=80 time=480
note_off channel=0 note=41 velocity=64 time=80
note_on channel=0 note=45 velocity=75 time=400
note_off channel=0 note=43 velocity=64 time=44
note_on channel=0 note=48 velocity=76 time=436
note_off channel=0 note=45 velocity=64 time=80
note_off channel=0 note=48 velocity=64 time=400
note_on channel=0 note=34 velocity=70 time=0
note_off channel=0 note=34 velocity=64 time=480
note_on channel=0 note=33 velocity=72 time=0
note_off channel=0 note=33 velocity=64 time=360
note_on channel=0 note=21 velocity=69 time=0
note_off channel=0 note=21 velocity=64 time=32
note_on channel=0 note=34 velocity=82 time=88
note_off channel=0 note=34 velocity=64 time=268
note_on channel=0 note=34 velocity=94 time=88
note_off channel=0 note=34 velocity=64 time=116
note_on channel=0 note=34 velocity=75 time=8
note_off channel=0 note=34 velocity=64 time=480
note_on channel=0 note=35 velocity=98 time=0
note_on channel=0 note=23 velocity=91 time=356
note_off channel=0 note=35 velocity=64 time=8
note_off channel=0 note=23 velocity=64 time=116
note_on channel=0 note=35 velocity=100 time=0
note_off channel=0 note=35 velocity=64 time=476
note_on channel=0 note=40 velocity=82 time=4
note_off channel=0 note=40 velocity=64 time=268
note_on channel=0 note=40 velocity=94 time=88
note_off channel=0 note=40 velocity=64 time=116
note_on channel=0 note=32 velocity=75 time=8
note_off channel=0 note=32 velocity=64 time=480
note_on channel=0 note=33 velocity=87 time=0
note_off channel=0 note=33 velocity=64 time=256
note_on channel=0 note=33 velocity=80 time=100
note_on channel=0 note=40 velocity=73 time=124
note_off channel=0 note=33 velocity=64 time=16
note_off channel=0 note=40 velocity=64 time=464
note_on channel=0 note=44 velocity=72 time=0
note_off channel=0 note=44 velocity=64 time=360
note_on channel=0 note=32 velocity=69 time=0
note_off channel=0 note=32 velocity=64 time=32
note_on channel=0 note=33 velocity=70 time=88
note_off channel=0 note=33 velocity=64 time=480
note_on channel=0 note=38 velocity=85 time=0
note_on channel=0 note=33 velocity=64 time=356
note_off channel=0 note=38 velocity=64 time=12
note_off channel=0 note=33 velocity=64 time=64
note_on channel=0 note=40 velocity=83 time=48
note_off channel=0 note=40 velocity=64 time=476
note_on channel=0 note=42 velocity=90 time=4
note_off channel=0 note=42 velocity=64 time=312
note_on channel=0 note=33 velocity=68 time=44
note_off channel=0 note=33 velocity=64 time=72
note_on channel=0 note=45 velocity=92 time=52
note_on channel=0 note=33 velocity=61 time=356
note_off channel=0 note=33 velocity=64 time=40
note_off channel=0 note=45 velocity=64 time=44
note_on channel=0 note=43 velocity=82 time=40
note_off channel=0 note=43 velocity=64 time=268
note_on channel=0 note=43 velocity=94 time=88
note_off channel=0 note=43 velocity=64 time=116
note_on channel=0 note=42 velocity=75 time=8
note_off channel=0 note=42 velocity=64 time=480
note_on channel=0 note=42 velocity=82 time=0
note_off channel=0 note=42 velocity=64 time=268
note_on channel=0 note=42 velocity=94 time=88
note_off channel=0 note=42 velocity=64 time=116
note_on channel=0 note=42 velocity=75 time=8
note_off channel=0 note=42 velocity=64 time=480
note_on channel=0 note=36 velocity=98 time=0
note_on channel=0 note=24 velocity=91 time=356
note_off channel=0 note=36 velocity=64 time=8
note_off channel=0 note=24 velocity=64 time=116
note_on channel=0 note=36 velocity=100 time=0
note_off channel=0 note=36 velocity=64 time=476
note_on channel=0 note=34 velocity=86 time=4
note_on channel=0 note=31 velocity=62 time=356
note_off channel=0 note=31 velocity=64 time=80
note_off channel=0 note=34 velocity=64 time=24
note_on channel=0 note=43 velocity=79 time=20
note_off channel=0 note=43 velocity=64 time=356
note_on channel=0 note=31 velocity=64 time=0
note_off channel=0 note=31 velocity=64 time=68
note_on channel=0 note=33 velocity=86 time=56
note_off channel=0 note=33 velocity=64 time=456
note_on channel=0 note=32 velocity=80 time=24
note_off channel=0 note=32 velocity=64 time=480
note_on channel=0 note=33 velocity=87 time=0
note_on channel=0 note=21 velocity=64 time=356
note_off channel=0 note=33 velocity=64 time=76
note_off channel=0 note=21 velocity=64 time=52
note_on channel=0 note=39 velocity=87 time=0
note_off channel=0 note=39 velocity=64 time=476
note_on channel=0 note=50 velocity=78 time=0
note_on channel=0 note=45 velocity=77 time=480
note_off channel=0 note=50 velocity=64 time=60
note_off channel=0 note=45 velocity=64 time=420
note_on channel=0 note=38 velocity=72 time=0
note_off channel=0 note=38 velocity=64 time=360
note_on channel=0 note=26 velocity=69 time=0
note_off channel=0 note=26 velocity=64 time=32
note_on channel=0 note=38 velocity=72 time=88
note_off channel=0 note=38 velocity=64 time=360
note_on channel=0 note=26 velocity=69 time=0
note_off channel=0 note=26 velocity=64 time=32
note_on channel=0 note=43 velocity=87 time=88
note_on channel=0 note=31 velocity=64 time=356
note_off channel=0 note=43 velocity=64 time=76
note_off channel=0 note=31 velocity=64 time=52
note_on channel=0 note=44 velocity=87 time=0
note_off channel=0 note=44 velocity=64 time=476
note_on channel=0 note=43 velocity=98 time=0
note_on channel=0 note=31 velocity=91 time=356
note_off channel=0 note=43 velocity=64 time=8
note_off channel=0 note=31 velocity=64 time=116
note_on channel=0 note=43 velocity=100 time=0
note_off channel=0 note=43 velocity=64 time=476
note_on channel=0 note=36 velocity=86 time=4
note_on channel=0 note=31 velocity=62 time=356
note_off channel=0 note=31 velocity=64 time=80
note_off channel=0 note=36 velocity=64 time=24
note_on channel=0 note=43 velocity=79 time=20
note_off channel=0 note=43 velocity=64 time=356
note_on channel=0 note=31 velocity=64 time=0
note_off channel=0 note=31 velocity=64 time=68
note_on channel=0 note=36 velocity=93 time=56
note_off channel=0 note=36 velocity=64 time=480
note_on channel=0 note=36 velocity=100 time=0
note_off channel=0 note=36 velocity=64 time=480
note_on channel=0 note=41 velocity=85 time=0
note_on channel=0 note=36 velocity=64 time=356
note_off channel=0 note=41 velocity=64 time=12
note_off channel=0 note=36 velocity=64 time=64
note_on channel=0 note=43 velocity=83 time=48
note_off channel=0 note=43 velocity=64 time=476
note_on channel=0 note=45 velocity=90 time=4
note_off channel=0 note=45 velocity=64 time=312
note_on channel=0 note=36 velocity=68 time=44
note_off channel=0 note=36 velocity=64 time=72
note_on channel=0 note=48 velocity=92 time=52
note_on channel=0 note=36 velocity=61 time=356
note_off channel=0 note=36 velocity=64 time=40
note_off channel=0 note=48 velocity=64 time=44
note_on channel=0 note=38 velocity=93 time=40
note_off channel=0 note=38 velocity=64 time=480
note_on channel=0 note=38 velocity=100 time=0
note_off channel=0 note=38 velocity=64 time=480
note_on channel=0 note=38 velocity=81 time=0
note_on channel=0 note=45 velocity=80 time=480
note_off channel=0 note=38 velocity=64 time=88
note_off channel=0 note=45 velocity=64 time=392
note_on channel=0 note=43 velocity=82 time=0
note_off channel=0 note=43 velocity=64 time=268
note_on channel=0 note=43 velocity=94 time=88
note_off channel=0 note=43 velocity=64 time=116
note_on channel=0 note=42 velocity=75 time=8
note_off channel=0 note=42 velocity=64 time=480
note_on channel=0 note=43 velocity=93 time=0
note_off channel=0 note=43 velocity=64 time=480
note_on channel=0 note=43 velocity=100 time=0
note_off channel=0 note=43 velocity=64 time=480
note_on channel=0 note=36 velocity=87 time=0
note_off channel=0 note=36 velocity=64 time=256
note_on channel=0 note=36 velocity=80 time=100
note_on channel=0 note=43 velocity=73 time=124
note_off channel=0 note=36 velocity=64 time=16
note_off channel=0 note=43 velocity=64 time=464
note_on channel=0 note=36 velocity=82 time=0
note_off channel=0 note=36 velocity=64 time=268
note_on channel=0 note=36 velocity=94 time=88
note_off channel=0 note=36 velocity=64 time=116
note_on channel=0 note=35 velocity=75 time=8
note_off channel=0 note=35 velocity=64 time=480
note_on channel=0 note=36 velocity=102 time=0
note_off channel=0 note=36 velocity=64 time=316
note_on channel=0 note=24 velocity=110 time=40
note_off channel=0 note=24 velocity=64 time=92
note_on channel=0 note=38 velocity=102 time=32
note_off channel=0 note=38 velocity=64 time=476
note_on channel=0 note=39 velocity=82 time=4
note_off channel=0 note=39 velocity=64 time=480
note_on channel=0 note=43 velocity=95 time=0
note_off channel=0 note=43 velocity=64 time=336
note_on channel=0 note=36 velocity=100 time=20
note_off channel=0 note=36 velocity=64 time=124
note_on channel=0 note=41 velocity=85 time=0
note_off channel=0 note=41 velocity=64 time=480
note_on channel=0 note=48 velocity=84 time=0
note_off channel=0 note=48 velocity=64 time=484
note_on channel=0 note=45 velocity=79 time=0
note_off channel=0 note=45 velocity=64 time=484
note_on channel=0 note=41 velocity=97 time=0
note_off channel=0 note=41 velocity=64 time=472
note_on channel=0 note=34 velocity=72 time=0
note_off channel=0 note=34 velocity=64 time=360
note_on channel=0 note=22 velocity=69 time=0
note_off channel=0 note=22 velocity=64 time=32
note_on channel=0 note=33 velocity=70 time=88
note_off channel=0 note=33 velocity=64 time=480
note_on channel=0 note=34 velocity=98 time=0
note_on channel=0 note=22 velocity=91 time=356
note_off channel=0 note=34 velocity=64 time=8
note_off channel=0 note=22 velocity=64 time=116
note_on channel=0 note=34 velocity=100 time=0
note_off channel=0 note=34 velocity=64 time=476
note_on channel=0 note=34 velocity=72 time=4
note_off channel=0 note=34 velocity=64 time=360
note_on channel=0 note=22 velocity=69 time=0
note_off channel=0 note=22 velocity=64 time=32
note_on channel=0 note=34 velocity=70 time=88
note_off channel=0 note=34 velocity=64 time=480
note_on channel=0 note=39 velocity=87 time=0
note_off channel=0 note=39 velocity=64 time=256
note_on channel=0 note=39 velocity=80 time=100
note_on channel=0 note=46 velocity=73 time=124
note_off channel=0 note=39 velocity=64 time=16
note_off channel=0 note=46 velocity=64 time=464
note_on channel=0 note=41 velocity=72 time=0
note_off channel=0 note=41 velocity=64 time=360
note_on channel=0 note=29 velocity=69 time=0
note_off channel=0 note=29 velocity=64 time=32
note_on channel=0 note=40 velocity=70 time=88
note_off channel=0 note=40 velocity=64 time=480
note_on channel=0 note=39 velocity=72 time=0
note_off channel=0 note=39 velocity=64 time=360
note_on channel=0 note=27 velocity=69 time=0
note_off channel=0 note=27 velocity=64 time=32
note_on channel=0 note=38 velocity=72 time=88
note_off channel=0 note=38 velocity=64 time=360
note_on channel=0 note=26 velocity=69 time=0
note_off channel=0 note=26 velocity=64 time=32
note_on channel=0 note=33 velocity=87 time=88
note_off channel=0 note=33 velocity=64 time=256
note_on channel=0 note=33 velocity=80 time=100
note_on channel=0 note=40 velocity=73 time=124
note_off channel=0 note=33 velocity=64 time=16
note_off channel=0 note=40 velocity=64 time=464
note_on channel=0 note=38 velocity=82 time=0
note_off channel=0 note=38 velocity=64 time=268
note_on channel=0 note=38 velocity=94 time=88
note_off channel=0 note=38 velocity=64 time=116
note_on channel=0 note=42 velocity=75 time=8
note_off channel=0 note=42 velocity=64 time=480
note_on channel=0 note=43 velocity=70 time=0
note_off channel=0 note=43 velocity=64 time=480
note_on channel=0 note=43 velocity=72 time=0
note_off channel=0 note=43 velocity=64 time=360
note_on channel=0 note=31 velocity=69 time=0
note_off channel=0 note=31 velocity=64 time=32
note_on channel=0 note=43 velocity=87 time=88
note_off channel=0 note=43 velocity=64 time=256
note_on channel=0 note=43 velocity=80 time=100
note_on channel=0 note=50 velocity=73 time=124
note_off channel=0 note=43 velocity=64 time=16
note_off channel=0 note=50 velocity=64 time=464
note_on channel=0 note=36 velocity=86 time=0
note_on channel=0 note=31 velocity=62 time=356
note_off channel=0 note=31 velocity=64 time=80
note_off channel=0 note=36 velocity=64 time=24
note_on channel=0 note=43 velocity=79 time=20
note_off channel=0 note=43 velocity=64 time=356
note_on channel=0 note=31 velocity=64 time=0
note_off channel=0 note=31 velocity=64 time=68
note_on channel=0 note=36 velocity=72 time=56
note_off channel=0 note=36 velocity=64 time=300
note_on channel=0 note=41 velocity=85 time=40
note_off channel=0 note=41 velocity=64 time=612
control_change channel=0 control=11 value=89 time=3824
note_on channel=0 note=43 velocity=81 time=24
control_change channel=0 control=11 value=90 time=312
note_on channel=0 note=50 velocity=80 time=168
note_off channel=0 note=43 velocity=64 time=88
control_change channel=0 control=11 value=91 time=56
note_off channel=0 note=50 velocity=64 time=336
control_change channel=0 control=11 value=93 time=0
note_on channel=0 note=43 velocity=70 time=0
control_change channel=0 control=11 value=94 time=312
note_off channel=0 note=43 velocity=64 time=168
note_on channel=0 note=37 velocity=70 time=0
control_change channel=0 control=11 value=95 time=168
note_off channel=0 note=37 velocity=64 time=312
control_change channel=0 control=11 value=96 time=0
note_on channel=0 note=36 velocity=93 time=0
note_off channel=0 note=36 velocity=64 time=480
note_on channel=0 note=36 velocity=100 time=0
note_off channel=0 note=36 velocity=64 time=480
note_on channel=0 note=36 velocity=72 time=0
note_off channel=0 note=36 velocity=64 time=360
note_on channel=0 note=24 velocity=69 time=0
note_off channel=0 note=24 velocity=64 time=32
note_on channel=0 note=42 velocity=72 time=88
note_off channel=0 note=42 velocity=64 time=360
note_on channel=0 note=30 velocity=69 time=0
note_off channel=0 note=30 velocity=64 time=32
note_on channel=0 note=41 velocity=87 time=88
note_off channel=0 note=41 velocity=64 time=256
note_on channel=0 note=41 velocity=80 time=100
note_on channel=0 note=48 velocity=73 time=124
note_off channel=0 note=41 velocity=64 time=16
note_off channel=0 note=48 velocity=64 time=464
note_on channel=0 note=33 velocity=70 time=0
note_off channel=0 note=33 velocity=64 time=480
note_on channel=0 note=39 velocity=70 time=0
note_off channel=0 note=39 velocity=64 time=480
note_on channel=0 note=38 velocity=87 time=0
note_on channel=0 note=50 velocity=70 time=480
note_off channel=0 note=38 velocity=64 time=36
note_on channel=0 note=45 velocity=82 time=444
note_off channel=0 note=50 velocity=64 time=56
note_on channel=0 note=42 velocity=88 time=424
note_off channel=0 note=45 velocity=64 time=12
note_off channel=0 note=42 velocity=64 time=468
note_on channel=0 note=43 velocity=93 time=0
note_off channel=0 note=43 velocity=64 time=480
note_on channel=0 note=43 velocity=100 time=0
note_off channel=0 note=43 velocity=64 time=480
note_on channel=0 note=43 velocity=70 time=0
note_off channel=0 note=43 velocity=64 time=480
note_on channel=0 note=43 velocity=72 time=0
note_off channel=0 note=43 velocity=64 time=360
note_on channel=0 note=31 velocity=69 time=0
note_off channel=0 note=31 velocity=64 time=32
note_on channel=0 note=36 velocity=86 time=88
note_on channel=0 note=31 velocity=62 time=356
note_off channel=0 note=31 velocity=64 time=80
note_off channel=0 note=36 velocity=64 time=24
note_on channel=0 note=43 velocity=79 time=20
note_off channel=0 note=43 velocity=64 time=356
note_on channel=0 note=31 velocity=64 time=0
note_off channel=0 note=31 velocity=64 time=68
note_on channel=0 note=36 velocity=72 time=56
note_off channel=0 note=36 velocity=64 time=360
note_on channel=0 note=24 velocity=69 time=0
note_off channel=0 note=24 velocity=64 time=32
note_on channel=0 note=36 velocity=72 time=88
note_off channel=0 note=36 velocity=64 time=360
note_on channel=0 note=24 velocity=69 time=0
note_off channel=0 note=24 velocity=64 time=32
note_on channel=0 note=36 velocity=85 time=88
note_off channel=0 note=36 velocity=64 time=480
note_on channel=0 note=43 velocity=84 time=0
note_off channel=0 note=43 velocity=64 time=484
note_on channel=0 note=39 velocity=79 time=0
note_off channel=0 note=39 velocity=64 time=484
note_on channel=0 note=36 velocity=97 time=0
note_off channel=0 note=36 velocity=64 time=472
control_change channel=0 control=11 value=96 time=0
note_on channel=0 note=41 velocity=98 time=0
control_change channel=0 control=11 value=95 time=192
note_on channel=0 note=29 velocity=91 time=164
note_off channel=0 note=41 velocity=64 time=8
control_change channel=0 control=11 value=94 time=20
note_off channel=0 note=29 velocity=64 time=96
note_on channel=0 note=41 velocity=100 time=0
control_change channel=0 control=11 value=93 time=96
control_change channel=0 control=11 value=91 time=192
note_off channel=0 note=41 velocity=64 time=188
control_change channel=0 control=11 value=90 time=4
note_on channel=0 note=41 velocity=87 time=0
control_change channel=0 control=11 value=89 time=192
note_on channel=0 note=29 velocity=64 time=164
control_change channel=0 control=11 value=88 time=28
note_off channel=0 note=41 velocity=64 time=48
note_off channel=0 note=29 velocity=64 time=52
note_on channel=0 note=35 velocity=87 time=0
control_change channel=0 control=11 value=86 time=92
control_change channel=0 control=11 value=85 time=192
note_off channel=0 note=35 velocity=64 time=192
control_change channel=0 control=11 value=84 time=0
note_on channel=0 note=34 velocity=94 time=0
note_on channel=0 note=29 velocity=45 time=332
note_off channel=0 note=34 velocity=64 time=40
note_off channel=0 note=29 velocity=64 time=84
note_on channel=0 note=41 velocity=77 time=24
note_off channel=0 note=41 velocity=64 time=420
note_on channel=0 note=38 velocity=85 time=60
note_off channel=0 note=38 velocity=64 time=480
note_on channel=0 note=34 velocity=87 time=0
note_on channel=0 note=29 velocity=65 time=360
note_off channel=0 note=34 velocity=64 time=4
note_off channel=0 note=29 velocity=64 time=68
note_on channel=0 note=34 velocity=87 time=48
note_off channel=0 note=34 velocity=64 time=256
note_on channel=0 note=34 velocity=80 time=100
note_on channel=0 note=41 velocity=73 time=124
note_off channel=0 note=34 velocity=64 time=16
note_off channel=0 note=41 velocity=64 time=464
note_on channel=0 note=39 velocity=86 time=0
note_on channel=0 note=34 velocity=62 time=356
note_off channel=0 note=34 velocity=64 time=80
note_off channel=0 note=39 velocity=64 time=24
note_on channel=0 note=46 velocity=79 time=20
note_off channel=0 note=46 velocity=64 time=356
note_on channel=0 note=34 velocity=64 time=0
note_off channel=0 note=34 velocity=64 time=68
note_on channel=0 note=41 velocity=94 time=56
note_on channel=0 note=36 velocity=45 time=332
note_off channel=0 note=41 velocity=64 time=40
note_off channel=0 note=36 velocity=64 time=84
note_on channel=0 note=48 velocity=77 time=24
note_off channel=0 note=48 velocity=64 time=420
note_on channel=0 note=45 velocity=85 time=60
note_off channel=0 note=45 velocity=64 time=480
note_on channel=0 note=41 velocity=87 time=0
note_on channel=0 note=36 velocity=65 time=360
note_off channel=0 note=41 velocity=64 time=4
note_off channel=0 note=36 velocity=64 time=68
note_on channel=0 note=38 velocity=88 time=48
note_on channel=0 note=40 velocity=85 time=480
note_off channel=0 note=38 velocity=64 time=80
note_on channel=0 note=41 velocity=92 time=400
note_off channel=0 note=40 velocity=64 time=36
note_on channel=0 note=42 velocity=85 time=444
note_off channel=0 note=41 velocity=64 time=24
note_off channel=0 note=42 velocity=64 time=448
note_on channel=0 note=43 velocity=92 time=8
note_off channel=0 note=43 velocity=64 time=328
note_on channel=0 note=35 velocity=59 time=28
note_off channel=0 note=35 velocity=64 time=108
note_on channel=0 note=41 velocity=86 time=16
note_off channel=0 note=41 velocity=64 time=392
note_on channel=0 note=40 velocity=77 time=88
note_off channel=0 note=40 velocity=64 time=516
note_on channel=0 note=38 velocity=86 time=0
note_off channel=0 note=38 velocity=64 time=444
note_on channel=0 note=36 velocity=78 time=0
note_on channel=0 note=38 velocity=80 time=480
note_off channel=0 note=36 velocity=64 time=80
note_on channel=0 note=40 velocity=75 time=400
note_off channel=0 note=38 velocity=64 time=44
note_on channel=0 note=43 velocity=76 time=436
note_off channel=0 note=40 velocity=64 time=80
note_off channel=0 note=43 velocity=64 time=400
control_change channel=0 control=11 value=84 time=0
note_on channel=0 note=41 velocity=78 time=0
control_change channel=0 control=11 value=85 time=192
control_change channel=0 control=11 value=86 time=192
note_on channel=0 note=43 velocity=80 time=96
note_off channel=0 note=41 velocity=64 time=80
control_change channel=0 control=11 value=88 time=16
control_change channel=0 control=11 value=89 time=192
control_change channel=0 control=11 value=90 time=192
note_on channel=0 note=45 velocity=75 time=0
note_off channel=0 note=43 velocity=64 time=44
control_change channel=0 control=11 value=91 time=148
control_change channel=0 control=11 value=93 time=192
note_on channel=0 note=48 velocity=76 time=96
note_off channel=0 note=45 velocity=64 time=80
control_change channel=0 control=11 value=94 time=16
control_change channel=0 control=11 value=95 time=192
note_off channel=0 note=48 velocity=64 time=192
control_change channel=0 control=11 value=96 time=0
note_on channel=0 note=39 velocity=72 time=0
control_change channel=0 control=11 value=98 time=192
note_off channel=0 note=39 velocity=64 time=168
note_on channel=0 note=27 velocity=69 time=0
control_change channel=0 control=11 value=99 time=24
note_off channel=0 note=27 velocity=64 time=8
note_on channel=0 note=38 velocity=72 time=88
control_change channel=0 control=11 value=100 time=96
control_change channel=0 control=11 value=101 time=192
note_off channel=0 note=38 velocity=64 time=72
note_on channel=0 note=26 velocity=69 time=0
note_off channel=0 note=26 velocity=64 time=32
control_change channel=0 control=11 value=103 time=88
note_on channel=0 note=38 velocity=82 time=0
control_change channel=0 control=11 value=104 time=192
note_off channel=0 note=38 velocity=64 time=76
note_on channel=0 note=38 velocity=94 time=88
control_change channel=0 control=11 value=105 time=28
note_off channel=0 note=38 velocity=64 time=88
note_on channel=0 note=42 velocity=75 time=8
control_change channel=0 control=11 value=106 time=96
control_change channel=0 control=11 value=108 time=192
note_off channel=0 note=42 velocity=64 time=192
control_change channel=0 control=11 value=109 time=0
note_on channel=0 note=43 velocity=86 time=0
note_on channel=0 note=38 velocity=62 time=356
note_off channel=0 note=38 velocity=64 time=80
note_off channel=0 note=43 velocity=64 time=24
note_on channel=0 note=50 velocity=79 time=20
note_off channel=0 note=50 velocity=64 time=356
note_on channel=0 note=38 velocity=64 time=0
note_off channel=0 note=38 velocity=64 time=68
note_on channel=0 note=43 velocity=70 time=56
note_off channel=0 note=43 velocity=64 time=480
note_on channel=0 note=43 velocity=72 time=0
note_off channel=0 note=43 velocity=64 time=360
note_on channel=0 note=31 velocity=69 time=0
note_off channel=0 note=31 velocity=64 time=32
note_on channel=0 note=36 velocity=93 time=88
note_off channel=0 note=36 velocity=64 time=480
note_on channel=0 note=36 velocity=100 time=0
note_off channel=0 note=36 velocity=64 time=480
note_on channel=0 note=36 velocity=70 time=0
note_off channel=0 note=36 velocity=64 time=480
note_on channel=0 note=36 velocity=72 time=0
note_off channel=0 note=36 velocity=64 time=360
note_on channel=0 note=24 velocity=69 time=0
note_off channel=0 note=24 velocity=64 time=32
note_on channel=0 note=41 velocity=98 time=88
note_on channel=0 note=29 velocity=91 time=356
note_off channel=0 note=41 velocity=64 time=8
note_off channel=0 note=29 velocity=64 time=116
note_on channel=0 note=41 velocity=100 time=0
note_off channel=0 note=41 velocity=64 time=476
note_on channel=0 note=41 velocity=70 time=4
note_off channel=0 note=41 velocity=64 time=480
note_on channel=0 note=41 velocity=72 time=0
note_off channel=0 note=41 velocity=64 time=360
note_on channel=0 note=29 velocity=69 time=0
note_off channel=0 note=29 velocity=64 time=32
note_on channel=0 note=38 velocity=98 time=88
note_on channel=0 note=26 velocity=91 time=356
note_off channel=0 note=38 velocity=64 time=8
note_off channel=0 note=26 velocity=64 time=116
note_on channel=0 note=38 velocity=100 time=0
note_off channel=0 note=38 velocity=64 time=476
note_on channel=0 note=38 velocity=72 time=4
note_off channel=0 note=38 velocity=64 time=360
note_on channel=0 note=26 velocity=69 time=0
note_off channel=0 note=26 velocity=64 time=32
note_on channel=0 note=38 velocity=72 time=88
note_off channel=0 note=38 velocity=64 time=360
note_on channel=0 note=26 velocity=69 time=0
note_off channel=0 note=26 velocity=64 time=32
note_on channel=0 note=43 velocity=87 time=88
note_off channel=0 note=43 velocity=64 time=256
note_on channel=0 note=43 velocity=80 time=100
note_on channel=0 note=50 velocity=73 time=124
note_off channel=0 note=43 velocity=64 time=16
note_off channel=0 note=50 velocity=64 time=464
note_on channel=0 note=43 velocity=72 time=0
note_off channel=0 note=43 velocity=64 time=360
note_on channel=0 note=31 velocity=69 time=0
note_off channel=0 note=31 velocity=64 time=32
note_on channel=0 note=43 velocity=70 time=88
note_off channel=0 note=43 velocity=64 time=480
note_on channel=0 note=43 velocity=98 time=0
note_on channel=0 note=31 velocity=91 time=356
note_off channel=0 note=43 velocity=64 time=8
note_off channel=0 note=31 velocity=64 time=116
note_on channel=0 note=43 velocity=100 time=0
note_off channel=0 note=43 velocity=64 time=476
note_on channel=0 note=36 velocity=82 time=4
note_off channel=0 note=36 velocity=64 time=268
note_on channel=0 note=36 velocity=94 time=88
note_off channel=0 note=36 velocity=64 time=116
note_on channel=0 note=35 velocity=75 time=8
note_off channel=0 note=35 velocity=64 time=480
note_on channel=0 note=36 velocity=102 time=0
note_off channel=0 note=36 velocity=64 time=276
note_on channel=0 note=24 velocity=110 time=80
note_off channel=0 note=24 velocity=64 time=92
note_on channel=0 note=38 velocity=102 time=32
note_off channel=0 note=38 velocity=64 time=436
note_on channel=0 note=39 velocity=82 time=44
note_off channel=0 note=39 velocity=64 time=448
note_on channel=0 note=43 velocity=95 time=32
note_off channel=0 note=43 velocity=64 time=332
note_on channel=0 note=36 velocity=100 time=24
note_off channel=0 note=36 velocity=64 time=124
note_on channel=0 note=41 velocity=93 time=0
note_off channel=0 note=41 velocity=64 time=268
note_on channel=0 note=29 velocity=40 time=88
note_off channel=0 note=29 velocity=64 time=104
note_on channel=0 note=39 velocity=85 time=20
note_off channel=0 note=39 velocity=64 time=472
note_on channel=0 note=38 velocity=91 time=8
note_on channel=0 note=36 velocity=87 time=480
note_off channel=0 note=38 velocity=64 time=32
note_on channel=0 note=35 velocity=82 time=324
note_off channel=0 note=36 velocity=64 time=72
note_off channel=0 note=35 velocity=64 time=52
note_on channel=0 note=34 velocity=93 time=0
note_off channel=0 note=34 velocity=64 time=480
note_on channel=0 note=34 velocity=100 time=0
note_off channel=0 note=34 velocity=64 time=480
note_on channel=0 note=34 velocity=98 time=0
note_on channel=0 note=22 velocity=91 time=356
note_off channel=0 note=34 velocity=64 time=8
note_off channel=0 note=22 velocity=64 time=116
note_on channel=0 note=34 velocity=100 time=0
note_off channel=0 note=34 velocity=64 time=476
note_on channel=0 note=47 velocity=78 time=4
note_on channel=0 note=42 velocity=77 time=480
note_off channel=0 note=47 velocity=64 time=60
note_off channel=0 note=42 velocity=64 time=420
note_on channel=0 note=40 velocity=82 time=0
note_off channel=0 note=40 velocity=64 time=268
note_on channel=0 note=40 velocity=94 time=88
note_off channel=0 note=40 velocity=64 time=116
note_on channel=0 note=32 velocity=75 time=8
note_off channel=0 note=32 velocity=64 time=480
note_on channel=0 note=33 velocity=85 time=0
note_on channel=0 note=28 velocity=64 time=356
note_off channel=0 note=33 velocity=64 time=12
note_off channel=0 note=28 velocity=64 time=64
note_on channel=0 note=35 velocity=83 time=48
note_off channel=0 note=35 velocity=64 time=476
note_on channel=0 note=36 velocity=90 time=4
note_off channel=0 note=36 velocity=64 time=312
note_on channel=0 note=28 velocity=68 time=44
note_off channel=0 note=28 velocity=64 time=72
note_on channel=0 note=40 velocity=92 time=52
note_on channel=0 note=28 velocity=61 time=356
note_off channel=0 note=28 velocity=64 time=40
note_off channel=0 note=40 velocity=64 time=44
note_on channel=0 note=38 velocity=85 time=40
note_on channel=0 note=33 velocity=64 time=356
note_off channel=0 note=38 velocity=64 time=12
note_off channel=0 note=33 velocity=64 time=64
note_on channel=0 note=40 velocity=83 time=48
note_off channel=0 note=40 velocity=64 time=476
note_on channel=0 note=42 velocity=90 time=4
note_off channel=0 note=42 velocity=64 time=312
note_on channel=0 note=33 velocity=68 time=44
note_off channel=0 note=33 velocity=64 time=72
note_on channel=0 note=45 velocity=92 time=52
note_on channel=0 note=33 velocity=61 time=356
note_off channel=0 note=33 velocity=64 time=40
note_off channel=0 note=45 velocity=64 time=44
note_on channel=0 note=43 velocity=93 time=40
note_off channel=0 note=43 velocity=64 time=480
note_on channel=0 note=43 velocity=100 time=0
note_off channel=0 note=43 velocity=64 time=480
note_on channel=0 note=42 velocity=86 time=0
note_off channel=0 note=42 velocity=64 time=456
note_on channel=0 note=42 velocity=80 time=24
note_off channel=0 note=42 velocity=64 time=480
note_on channel=0 note=36 velocity=81 time=0
note_on channel=0 note=50 velocity=80 time=480
note_off channel=0 note=36 velocity=64 time=88
note_off channel=0 note=50 velocity=64 time=392
note_on channel=0 note=36 velocity=72 time=0
note_off channel=0 note=36 velocity=64 time=360
note_on channel=0 note=24 velocity=69 time=0
note_off channel=0 note=24 velocity=64 time=32
note_on channel=0 note=34 velocity=70 time=88
note_off channel=0 note=34 velocity=64 time=480
note_on channel=0 note=33 velocity=87 time=0
note_on channel=0 note=45 velocity=70 time=480
note_off channel=0 note=33 velocity=64 time=36
note_on channel=0 note=40 velocity=82 time=444
note_off channel=0 note=45 velocity=64 time=56
note_on channel=0 note=36 velocity=88 time=424
note_off channel=0 note=40 velocity=64 time=12
note_off channel=0 note=36 velocity=64 time=468
note_on channel=0 note=39 velocity=86 time=0
note_on channel=0 note=34 velocity=62 time=356
note_off channel=0 note=34 velocity=64 time=80
note_off channel=0 note=39 velocity=64 time=24
note_on channel=0 note=46 velocity=79 time=20
note_off channel=0 note=46 velocity=64 time=356
note_on channel=0 note=34 velocity=64 time=0
note_off channel=0 note=34 velocity=64 time=68
control_change channel=0 control=11 value=109 time=56
note_on channel=0 note=38 velocity=70 time=0
control_change channel=0 control=11 value=106 time=120
control_change channel=0 control=11 value=104 time=120
control_change channel=0 control=11 value=101 time=120
note_off channel=0 note=38 velocity=64 time=120
control_change channel=0 control=11 value=99 time=0
note_on channel=0 note=44 velocity=72 time=0
control_change channel=0 control=11 value=96 time=120
control_change channel=0 control=11 value=94 time=120
note_off channel=0 note=44 velocity=64 time=120
control_change channel=0 control=11 value=91 time=0
note_on channel=0 note=32 velocity=69 time=0
note_off channel=0 note=32 velocity=64 time=32
control_change channel=0 control=11 value=89 time=88
note_on channel=0 note=43 velocity=86 time=0
note_on channel=0 note=38 velocity=62 time=356
note_off channel=0 note=38 velocity=64 time=80
note_off channel=0 note=43 velocity=64 time=24
note_on channel=0 note=50 velocity=79 time=20
note_off channel=0 note=50 velocity=64 time=356
note_on channel=0 note=38 velocity=64 time=0
note_off channel=0 note=38 velocity=64 time=68
note_on channel=0 note=43 velocity=87 time=56
note_on channel=0 note=31 velocity=64 time=356
note_off channel=0 note=43 velocity=64 time=76
note_off channel=0 note=31 velocity=64 time=52
note_on channel=0 note=37 velocity=87 time=0
note_off channel=0 note=37 velocity=64 time=476
note_on channel=0 note=36 velocity=81 time=0
note_on channel=0 note=43 velocity=80 time=480
note_off channel=0 note=36 velocity=64 time=88
note_off channel=0 note=43 velocity=64 time=392
note_on channel=0 note=36 velocity=93 time=0
note_off channel=0 note=36 velocity=64 time=480
note_on channel=0 note=36 velocity=100 time=0
note_off channel=0 note=36 velocity=64 time=480
note_on channel=0 note=41 velocity=85 time=0
note_on channel=0 note=36 velocity=64 time=356
note_off channel=0 note=41 velocity=64 time=12
note_off channel=0 note=36 velocity=64 time=64
note_on channel=0 note=43 velocity=83 time=48
note_off channel=0 note=43 velocity=64 time=476
note_on channel=0 note=45 velocity=90 time=4
note_off channel=0 note=45 velocity=64 time=312
note_on channel=0 note=36 velocity=68 time=44
note_off channel=0 note=36 velocity=64 time=72
note_on channel=0 note=48 velocity=92 time=52
note_on channel=0 note=36 velocity=61 time=356
note_off channel=0 note=36 velocity=64 time=40
note_off channel=0 note=48 velocity=64 time=44
note_on channel=0 note=38 velocity=86 time=40
note_off channel=0 note=38 velocity=64 time=456
note_on channel=0 note=37 velocity=80 time=24
note_off channel=0 note=37 velocity=64 time=480
note_on channel=0 note=38 velocity=91 time=0
note_on channel=0 note=42 velocity=88 time=480
note_off channel=0 note=38 velocity=64 time=60
note_off channel=0 note=42 velocity=64 time=376
note_on channel=0 note=43 velocity=98 time=44
note_off channel=0 note=43 velocity=64 time=480
note_on channel=0 note=44 velocity=105 time=0
note_off channel=0 note=44 velocity=64 time=480
note_on channel=0 note=43 velocity=86 time=0
note_on channel=0 note=38 velocity=62 time=356
note_off channel=0 note=38 velocity=64 time=80
note_off channel=0 note=43 velocity=64 time=24
note_on channel=0 note=50 velocity=79 time=20
note_off channel=0 note=50 velocity=64 time=356
note_on channel=0 note=38 velocity=64 time=0
note_off channel=0 note=38 velocity=64 time=68
note_on channel=0 note=36 velocity=98 time=56
note_on channel=0 note=24 velocity=91 time=356
note_off channel=0 note=36 velocity=64 time=8
note_off channel=0 note=24 velocity=64 time=116
note_on channel=0 note=36 velocity=100 time=0
note_off channel=0 note=36 velocity=64 time=476
note_on channel=0 note=36 velocity=87 time=4
note_on channel=0 note=24 velocity=64 time=356
note_off channel=0 note=36 velocity=64 time=76
note_off channel=0 note=24 velocity=64 time=52
note_on channel=0 note=37 velocity=87 time=0
note_off channel=0 note=37 velocity=64 time=476
control_change channel=0 control=11 value=89 time=0
note_on channel=0 note=36 velocity=88 time=0
control_change channel=0 control=11 value=90 time=240
control_change channel=0 control=11 value=91 time=240
note_on channel=0 note=38 velocity=85 time=0
note_off channel=0 note=36 velocity=64 time=80
control_change channel=0 control=11 value=93 time=160
control_change channel=0 control=11 value=94 time=240
note_on channel=0 note=39 velocity=92 time=0
note_off channel=0 note=38 velocity=64 time=36
control_change channel=0 control=11 value=95 time=204
control_change channel=0 control=11 value=96 time=240
note_on channel=0 note=39 velocity=85 time=0
note_off channel=0 note=39 velocity=64 time=24
control_change channel=0 control=11 value=98 time=216
note_off channel=0 note=39 velocity=64 time=232
control_change channel=0 control=11 value=99 time=8
note_on channel=0 note=41 velocity=72 time=0
control_change channel=0 control=11 value=100 time=240
note_off channel=0 note=41 velocity=64 time=120
note_on channel=0 note=29 velocity=69 time=0
note_off channel=0 note=29 velocity=64 time=32
control_change channel=0 control=11 value=101 time=88
note_on channel=0 note=36 velocity=70 time=0
control_change channel=0 control=11 value=103 time=240
note_off channel=0 note=36 velocity=64 time=240
control_change channel=0 control=11 value=104 time=0
note_on channel=0 note=41 velocity=98 time=0
control_change channel=0 control=11 value=105 time=240
note_off channel=0 note=41 velocity=64 time=240
control_change channel=0 control=11 value=106 time=0
note_on channel=0 note=35 velocity=105 time=0
control_change channel=0 control=11 value=108 time=240
note_off channel=0 note=35 velocity=64 time=240
control_change channel=0 control=11 value=109 time=0
note_on channel=0 note=34 velocity=78 time=0
note_on channel=0 note=36 velocity=80 time=480
note_off channel=0 note=34 velocity=64 time=80
note_on channel=0 note=38 velocity=75 time=400
note_off channel=0 note=36 velocity=64 time=44
note_on channel=0 note=41 velocity=76 time=436
note_off channel=0 note=38 velocity=64 time=80
note_off channel=0 note=41 velocity=64 time=400
note_on channel=0 note=34 velocity=93 time=0
note_off channel=0 note=34 velocity=64 time=480
note_on channel=0 note=34 velocity=100 time=0
note_off channel=0 note=34 velocity=64 time=480
note_on channel=0 note=39 velocity=98 time=0
note_on channel=0 note=27 velocity=91 time=356
note_off channel=0 note=39 velocity=64 time=8
note_off channel=0 note=27 velocity=64 time=116
note_on channel=0 note=39 velocity=100 time=0
note_off channel=0 note=39 velocity=64 time=476
note_on channel=0 note=41 velocity=86 time=4
note_off channel=0 note=41 velocity=64 time=456
note_on channel=0 note=40 velocity=80 time=24
note_off channel=0 note=40 velocity=64 time=480
note_on channel=0 note=41 velocity=70 time=0
note_off channel=0 note=41 velocity=64 time=480
note_on channel=0 note=41 velocity=70 time=0
note_off channel=0 note=41 velocity=64 time=480
note_on channel=0 note=33 velocity=87 time=0
note_on channel=0 note=21 velocity=64 time=356
note_off channel=0 note=33 velocity=64 time=76
note_off channel=0 note=21 velocity=64 time=52
note_on channel=0 note=39 velocity=87 time=0
note_off channel=0 note=39 velocity=64 time=476
note_on channel=0 note=38 velocity=87 time=0
note_on channel=0 note=26 velocity=64 time=356
note_off channel=0 note=38 velocity=64 time=76
note_off channel=0 note=26 velocity=64 time=52
note_on channel=0 note=44 velocity=87 time=0
note_off channel=0 note=44 velocity=64 time=476
note_on channel=0 note=43 velocity=87 time=0
note_off channel=0 note=43 velocity=64 time=256
note_on channel=0 note=43 velocity=80 time=100
note_on channel=0 note=50 velocity=73 time=124
note_off channel=0 note=43 velocity=64 time=16
note_off channel=0 note=50 velocity=64 time=464
note_on channel=0 note=43 velocity=87 time=0
note_off channel=0 note=43 velocity=64 time=256
note_on channel=0 note=43 velocity=80 time=100
note_on channel=0 note=50 velocity=73 time=124
note_off channel=0 note=43 velocity=64 time=16
note_off channel=0 note=50 velocity=64 time=464
note_on channel=0 note=36 velocity=86 time=0
note_off channel=0 note=36 velocity=64 time=456
note_on channel=0 note=35 velocity=80 time=24
note_off channel=0 note=35 velocity=64 time=480
note_on channel=0 note=36 velocity=98 time=0
note_on channel=0 note=24 velocity=91 time=356
note_off channel=0 note=36 velocity=64 time=8
note_off channel=0 note=24 velocity=64 time=116
note_on channel=0 note=36 velocity=100 time=0
note_off channel=0 note=36 velocity=64 time=476
note_on channel=0 note=41 velocity=87 time=4
note_on channel=0 note=29 velocity=64 time=356
note_off channel=0 note=41 velocity=64 time=76
note_off channel=0 note=29 velocity=64 time=52
note_on channel=0 note=42 velocity=87 time=0
note_off channel=0 note=42 velocity=64 time=476
note_on channel=0 note=41 velocity=70 time=0
note_off channel=0 note=41 velocity=64 time=480
note_on channel=0 note=41 velocity=72 time=0
note_off channel=0 note=41 velocity=64 time=360
note_on channel=0 note=29 velocity=69 time=0
note_off channel=0 note=29 velocity=64 time=32
note_on channel=0 note=38 velocity=87 time=88
note_off channel=0 note=38 velocity=64 time=256
note_on channel=0 note=38 velocity=80 time=100
note_on channel=0 note=45 velocity=73 time=124
note_off channel=0 note=38 velocity=64 time=16
note_off channel=0 note=45 velocity=64 time=464
control_change channel=0 control=11 value=109 time=0
note_on channel=0 note=38 velocity=82 time=0
control_change channel=0 control=11 value=108 time=120
control_change channel=0 control=11 value=106 time=120
note_off channel=0 note=38 velocity=64 time=28
note_on channel=0 note=38 velocity=94 time=88
control_change channel=0 control=11 value=105 time=4
note_off channel=0 note=38 velocity=64 time=112
control_change channel=0 control=11 value=103 time=8
note_on channel=0 note=42 velocity=75 time=0
control_change channel=0 control=11 value=101 time=120
control_change channel=0 control=11 value=100 time=120
control_change channel=0 control=11 value=99 time=120
note_off channel=0 note=42 velocity=64 time=120
control_change channel=0 control=11 value=96 time=0
note_on channel=0 note=43 velocity=93 time=0
note_off channel=0 note=43 velocity=64 time=480
note_on channel=0 note=43 velocity=100 time=0
note_off channel=0 note=43 velocity=64 time=480
note_on channel=0 note=43 velocity=86 time=0
note_off channel=0 note=43 velocity=64 time=456
note_on channel=0 note=35 velocity=80 time=24
note_off channel=0 note=35 velocity=64 time=480
note_on channel=0 note=36 velocity=87 time=0
note_off channel=0 note=36 velocity=64 time=256
note_on channel=0 note=36 velocity=80 time=100
note_on channel=0 note=43 velocity=73 time=124
note_off channel=0 note=36 velocity=64 time=16
note_off channel=0 note=43 velocity=64 time=464
note_on channel=0 note=36 velocity=77 time=0
note_off channel=0 note=36 velocity=64 time=516
note_on channel=0 note=40 velocity=85 time=9
note_off channel=0 note=40 velocity=65 time=260
note_on channel=0 note=41 velocity=89 time=33
note_off channel=0 note=41 velocity=61 time=108
note_on channel=0 note=33 velocity=75 time=354
note_off channel=0 note=33 velocity=64 time=640
note_on channel=0 note=34 velocity=79 time=0
note_off channel=0 note=34 velocity=64 time=480
note_on channel=0 note=35 velocity=80 time=0
note_off channel=0 note=35 velocity=64 time=480
note_on channel=0 note=36 velocity=82 time=0
note_off channel=0 note=36 velocity=64 time=192
note_on channel=0 note=41 velocity=75 time=608
note_off channel=0 note=41 velocity=64 time=3976
<meta message end_of_track time=0>
<meta message text text='Piano' time=0>
control_change channel=1 control=11 value=96 time=0
control_change channel=1 control=7 value=94 time=0
control_change channel=1 control=10 value=35 time=0
control_change channel=1 control=91 value=81 time=0
control_change channel=1 control=93 value=5 time=0
control_change channel=1 control=0 value=56 time=0
control_change channel=1 control=32 value=0 time=0
program_change channel=1 program=0 time=0
note_on channel=1 note=75 velocity=81 time=6080
note_on channel=1 note=80 velocity=81 time=0
control_change channel=1 control=64 value=0 time=540
note_off channel=1 note=75 velocity=64 time=28
note_off channel=1 note=80 velocity=64 time=0
note_on channel=1 note=76 velocity=80 time=72
note_on channel=1 note=81 velocity=80 time=0
note_off channel=1 note=76 velocity=64 time=120
note_off channel=1 note=81 velocity=64 time=0
control_change channel=1 control=64 value=0 time=260
note_on channel=1 note=74 velocity=81 time=100
note_off channel=1 note=74 velocity=64 time=120
control_change channel=1 control=64 value=0 time=360
note_on channel=1 note=75 velocity=81 time=0
note_on channel=1 note=80 velocity=81 time=0
note_off channel=1 note=75 velocity=64 time=752
note_off channel=1 note=80 velocity=64 time=0
note_on channel=1 note=76 velocity=81 time=48
note_on channel=1 note=81 velocity=81 time=0
control_change channel=1 control=64 value=0 time=160
control_change channel=1 control=64 value=0 time=860
note_off channel=1 note=76 velocity=64 time=52
note_off channel=1 note=81 velocity=64 time=0
control_change channel=1 control=11 value=96 time=48
note_on channel=1 note=72 velocity=74 time=340
note_on channel=1 note=63 velocity=54 time=24
note_on channel=1 note=57 velocity=57 time=0
note_on channel=1 note=69 velocity=59 time=20
note_on channel=1 note=68 velocity=57 time=32
control_change channel=1 control=11 value=98 time=352
note_off channel=1 note=72 velocity=64 time=192
note_off channel=1 note=68 velocity=64 time=0
note_off channel=1 note=69 velocity=64 time=0
note_off channel=1 note=57 velocity=64 time=0
note_off channel=1 note=63 velocity=64 time=0
control_change channel=1 control=64 value=0 time=0
note_on channel=1 note=60 velocity=58 time=20
note_on channel=1 note=52 velocity=50 time=4
note_on channel=1 note=57 velocity=56 time=4
note_on channel=1 note=67 velocity=61 time=4
note_off channel=1 note=60 velocity=64 time=124
note_off channel=1 note=52 velocity=64 time=16
note_off channel=1 note=57 velocity=64 time=0
note_off channel=1 note=67 velocity=64 time=20
control_change channel=1 control=64 value=0 time=288
note_on channel=1 note=60 velocity=58 time=20
note_on channel=1 note=50 velocity=50 time=4
note_on channel=1 note=57 velocity=56 time=4
note_on channel=1 note=65 velocity=61 time=4
control_change channel=1 control=11 value=99 time=64
note_off channel=1 note=60 velocity=64 time=60
note_off channel=1 note=50 velocity=64 time=16
note_off channel=1 note=57 velocity=64 time=0
note_off channel=1 note=65 velocity=64 time=20
control_change channel=1 control=64 value=0 time=288
note_on channel=1 note=62 velocity=68 time=20
note_on channel=1 note=69 velocity=70 time=16
note_off channel=1 note=62 velocity=64 time=80
note_off channel=1 note=69 velocity=64 time=4
control_change channel=1 control=11 value=100 time=264
control_change channel=1 control=64 value=0 time=576
control_change channel=1 control=11 value=101 time=192
note_on channel=1 note=50 velocity=77 time=204
note_off channel=1 note=50 velocity=64 time=44
note_on channel=1 note=66 velocity=95 time=72
note_on channel=1 note=64 velocity=93 time=4
note_off channel=1 note=64 velocity=64 time=216
note_off channel=1 note=66 velocity=64 time=16
control_change channel=1 control=64 value=0 time=112
note_on channel=1 note=63 velocity=58 time=20
note_on channel=1 note=53 velocity=50 time=4
note_on channel=1 note=59 velocity=56 time=4
note_on channel=1 note=67 velocity=61 time=4
control_change channel=1 control=11 value=103 time=68
note_off channel=1 note=63 velocity=64 time=148
note_off channel=1 note=53 velocity=64 time=16
note_off channel=1 note=59 velocity=64 time=0
note_off channel=1 note=67 velocity=64 time=20
control_change channel=1 control=11 value=104 time=584
control_change channel=1 control=64 value=0 time=192
note_on channel=1 note=69 velocity=77 time=364
note_on channel=1 note=62 velocity=68 time=4
note_on channel=1 note=53 velocity=67 time=4
note_on channel=1 note=59 velocity=42 time=12
note_off channel=1 note=62 velocity=64 time=52
note_off channel=1 note=59 velocity=64 time=0
note_off channel=1 note=53 velocity=64 time=12
note_off channel=1 note=69 velocity=64 time=4
control_change channel=1 control=64 value=0 time=28
note_on channel=1 note=62 velocity=60 time=60
note_on channel=1 note=65 velocity=46 time=0
note_on channel=1 note=59 velocity=52 time=4
note_on channel=1 note=69 velocity=47 time=12
control_change channel=1 control=11 value=105 time=20
note_off channel=1 note=62 velocity=64 time=80
note_off channel=1 note=69 velocity=64 time=16
note_off channel=1 note=59 velocity=64 time=0
note_off channel=1 note=65 velocity=64 time=0
control_change channel=1 control=64 value=0 time=288
note_on channel=1 note=56 velocity=54 time=12
note_on channel=1 note=58 velocity=52 time=0
note_on channel=1 note=52 velocity=47 time=4
note_on channel=1 note=36 velocity=46 time=4
control_change channel=1 control=11 value=106 time=364
note_off channel=1 note=58 velocity=64 time=216
note_off channel=1 note=52 velocity=64 time=32
note_off channel=1 note=56 velocity=64 time=52
note_off channel=1 note=36 velocity=64 time=64
note_on channel=1 note=47 velocity=66 time=140
note_off channel=1 note=47 velocity=64 time=72
control_change channel=1 control=64 value=0 time=0
note_on channel=1 note=62 velocity=69 time=20
note_on channel=1 note=52 velocity=69 time=4
note_on channel=1 note=58 velocity=69 time=4
note_on channel=1 note=67 velocity=69 time=4
note_off channel=1 note=62 velocity=64 time=124
note_off channel=1 note=52 velocity=64 time=16
note_off channel=1 note=58 velocity=64 time=0
note_off channel=1 note=67 velocity=64 time=20
control_change channel=1 control=11 value=108 time=0
control_change channel=1 control=64 value=0 time=148
note_on channel=1 note=62 velocity=77 time=140
note_on channel=1 note=58 velocity=77 time=0
note_on channel=1 note=52 velocity=77 time=0
note_on channel=1 note=48 velocity=77 time=0
note_on channel=1 note=74 velocity=77 time=0
note_on channel=1 note=70 velocity=77 time=0
note_on channel=1 note=67 velocity=77 time=0
note_on channel=1 note=64 velocity=77 time=0
note_off channel=1 note=62 velocity=64 time=272
note_off channel=1 note=64 velocity=64 time=0
note_off channel=1 note=67 velocity=64 time=0
note_off channel=1 note=70 velocity=64 time=0
note_off channel=1 note=74 velocity=64 time=0
note_off channel=1 note=48 velocity=64 time=0
note_off channel=1 note=52 velocity=64 time=0
note_off channel=1 note=58 velocity=64 time=0
note_on channel=1 note=62 velocity=81 time=48
note_on channel=1 note=60 velocity=81 time=0
note_on channel=1 note=57 velocity=81 time=0
note_on channel=1 note=53 velocity=81 time=0
note_on channel=1 note=77 velocity=81 time=0
note_on channel=1 note=74 velocity=81 time=0
note_on channel=1 note=72 velocity=81 time=0
note_on channel=1 note=67 velocity=81 time=0
note_off channel=1 note=62 velocity=64 time=124
note_off channel=1 note=67 velocity=64 time=0
note_off channel=1 note=72 velocity=64 time=0
note_off channel=1 note=74 velocity=64 time=0
note_off channel=1 note=77 velocity=64 time=0
note_off channel=1 note=53 velocity=64 time=0
note_off channel=1 note=57 velocity=64 time=0
note_off channel=1 note=60 velocity=64 time=0
control_change channel=1 control=64 value=0 time=36
control_change channel=1 control=11 value=109 time=0
control_change channel=1 control=11 value=108 time=240
control_change channel=1 control=11 value=106 time=240
control_change channel=1 control=11 value=105 time=240
control_change channel=1 control=11 value=104 time=240
control_change channel=1 control=11 value=103 time=240
control_change channel=1 control=11 value=101 time=240
control_change channel=1 control=11 value=100 time=240
control_change channel=1 control=11 value=99 time=240
control_change channel=1 control=11 value=98 time=240
control_change channel=1 control=11 value=96 time=240
control_change channel=1 control=11 value=95 time=240
control_change channel=1 control=11 value=94 time=240
control_change channel=1 control=11 value=93 time=240
control_change channel=1 control=11 value=91 time=240
control_change channel=1 control=11 value=90 time=240
control_change channel=1 control=11 value=89 time=240
note_on channel=1 note=62 velocity=56 time=60
note_on channel=1 note=65 velocity=56 time=0
note_on channel=1 note=59 velocity=56 time=4
note_on channel=1 note=67 velocity=56 time=12
note_off channel=1 note=62 velocity=64 time=100
note_off channel=1 note=67 velocity=64 time=16
note_off channel=1 note=59 velocity=64 time=0
note_off channel=1 note=65 velocity=64 time=0
note_on channel=1 note=74 velocity=100 time=206
control_change channel=1 control=64 value=0 time=82
note_off channel=1 note=74 velocity=65 time=53
note_on channel=1 note=80 velocity=92 time=9
note_on channel=1 note=75 velocity=92 time=0
note_off channel=1 note=80 velocity=33 time=123
note_off channel=1 note=75 velocity=33 time=0
note_on channel=1 note=75 velocity=56 time=155
note_on channel=1 note=65 velocity=56 time=24
note_on channel=1 note=59 velocity=56 time=0
note_on channel=1 note=71 velocity=56 time=20
note_on channel=1 note=67 velocity=56 time=32
note_off channel=1 note=75 velocity=64 time=64
note_off channel=1 note=67 velocity=64 time=0
note_off channel=1 note=71 velocity=64 time=0
note_off channel=1 note=59 velocity=64 time=0
note_off channel=1 note=65 velocity=64 time=0
control_change channel=1 control=64 value=0 time=0
note_on channel=1 note=81 velocity=86 time=21
note_on channel=1 note=76 velocity=86 time=0
note_on channel=1 note=81 velocity=83 time=1
note_on channel=1 note=76 velocity=83 time=0
note_off channel=1 note=81 velocity=53 time=276
note_off channel=1 note=76 velocity=53 time=0
note_off channel=1 note=81 velocity=59 time=14
note_off channel=1 note=76 velocity=59 time=0
note_on channel=1 note=74 velocity=86 time=53
note_on channel=1 note=62 velocity=56 time=3
note_on channel=1 note=57 velocity=56 time=8
note_on channel=1 note=69 velocity=56 time=4
note_on channel=1 note=43 velocity=56 time=24
note_off channel=1 note=74 velocity=58 time=52
note_off channel=1 note=62 velocity=64 time=20
note_off channel=1 note=69 velocity=64 time=0
note_off channel=1 note=43 velocity=64 time=12
note_off channel=1 note=57 velocity=64 time=20
note_on channel=1 note=64 velocity=56 time=20
note_off channel=1 note=64 velocity=64 time=260
note_on channel=1 note=80 velocity=92 time=47
note_on channel=1 note=57 velocity=56 time=49
note_off channel=1 note=57 velocity=64 time=76
control_change channel=1 control=64 value=0 time=0
note_on channel=1 note=60 velocity=56 time=60
note_on channel=1 note=64 velocity=56 time=0
note_on channel=1 note=58 velocity=56 time=4
note_on channel=1 note=68 velocity=56 time=12
note_off channel=1 note=60 velocity=64 time=100
note_off channel=1 note=68 velocity=64 time=16
note_off channel=1 note=58 velocity=64 time=0
note_off channel=1 note=64 velocity=64 time=0
note_off channel=1 note=80 velocity=41 time=175
note_on channel=1 note=81 velocity=64 time=2
note_on channel=1 note=48 velocity=56 time=155
note_on channel=1 note=80 velocity=56 time=9
note_off channel=1 note=81 velocity=45 time=7
note_off channel=1 note=80 velocity=40 time=137
note_on channel=1 note=81 velocity=60 time=19
note_off channel=1 note=48 velocity=64 time=28
note_on channel=1 note=80 velocity=59 time=92
note_off channel=1 note=81 velocity=52 time=45
note_off channel=1 note=80 velocity=49 time=72
control_change channel=1 control=64 value=0 time=27
note_on channel=1 note=81 velocity=65 time=5
note_off channel=1 note=81 velocity=69 time=295
note_on channel=1 note=74 velocity=67 time=53
note_on channel=1 note=64 velocity=56 time=11
note_on channel=1 note=58 velocity=56 time=0
note_on channel=1 note=70 velocity=56 time=20
note_on channel=1 note=67 velocity=56 time=32
note_off channel=1 note=74 velocity=57 time=11
note_off channel=1 note=67 velocity=64 time=393
note_off channel=1 note=70 velocity=64 time=0
note_off channel=1 note=58 velocity=64 time=0
note_off channel=1 note=64 velocity=64 time=0
control_change channel=1 control=64 value=0 time=40
note_on channel=1 note=65 velocity=56 time=140
note_on channel=1 note=41 velocity=56 time=4
note_on channel=1 note=60 velocity=56 time=4
note_off channel=1 note=65 velocity=64 time=80
note_off channel=1 note=60 velocity=64 time=36
note_off channel=1 note=41 velocity=64 time=4
note_on channel=1 note=74 velocity=100 time=185
control_change channel=1 control=64 value=0 time=127
note_off channel=1 note=74 velocity=62 time=2
note_on channel=1 note=80 velocity=100 time=22
note_on channel=1 note=75 velocity=100 time=0
note_on channel=1 note=63 velocity=56 time=16
note_on channel=1 note=60 velocity=56 time=4
note_on channel=1 note=41 velocity=56 time=0
note_on channel=1 note=57 velocity=56 time=4
note_off channel=1 note=60 velocity=64 time=80
note_off channel=1 note=63 velocity=64 time=20
note_off channel=1 note=57 velocity=64 time=16
note_off channel=1 note=75 velocity=39 time=4
note_off channel=1 note=41 velocity=64 time=0
note_off channel=1 note=80 velocity=39 time=0
control_change channel=1 control=64 value=0 time=312
note_on channel=1 note=60 velocity=56 time=20
note_on channel=1 note=81 velocity=86 time=9
note_on channel=1 note=76 velocity=86 time=0
note_on channel=1 note=67 velocity=56 time=7
note_off channel=1 note=60 velocity=64 time=80
note_off channel=1 note=67 velocity=64 time=4
note_off channel=1 note=76 velocity=61 time=209
note_off channel=1 note=81 velocity=61 time=0
note_on channel=1 note=74 velocity=86 time=31
note_off channel=1 note=74 velocity=58 time=93
note_on channel=1 note=80 velocity=92 time=382
control_change channel=1 control=64 value=0 time=125
note_off channel=1 note=80 velocity=41 time=367
note_on channel=1 note=62 velocity=64 time=1
note_on channel=1 note=81 velocity=64 time=1
note_on channel=1 note=57 velocity=64 time=7
note_on channel=1 note=69 velocity=64 time=4
note_on channel=1 note=50 velocity=56 time=24
note_off channel=1 note=62 velocity=64 time=72
note_off channel=1 note=69 velocity=64 time=0
note_off channel=1 note=50 velocity=64 time=12
note_off channel=1 note=57 velocity=64 time=20
note_on channel=1 note=65 velocity=56 time=20
note_on channel=1 note=80 velocity=56 time=5
note_off channel=1 note=81 velocity=45 time=7
note_off channel=1 note=80 velocity=40 time=137
note_on channel=1 note=81 velocity=60 time=19
note_off channel=1 note=65 velocity=64 time=92
note_on channel=1 note=80 velocity=59 time=28
note_off channel=1 note=81 velocity=52 time=45
note_on channel=1 note=57 velocity=56 time=23
note_off channel=1 note=80 velocity=49 time=49
note_off channel=1 note=57 velocity=64 time=27
control_change channel=1 control=64 value=0 time=0
note_on channel=1 note=81 velocity=65 time=5
note_off channel=1 note=81 velocity=69 time=295
note_on channel=1 note=74 velocity=89 time=31
note_on channel=1 note=50 velocity=56 time=65
note_off channel=1 note=74 velocity=64 time=41
note_off channel=1 note=50 velocity=64 time=3
note_on channel=1 note=66 velocity=56 time=72
note_on channel=1 note=64 velocity=56 time=4
note_off channel=1 note=64 velocity=64 time=216
note_off channel=1 note=66 velocity=64 time=16
control_change channel=1 control=64 value=0 time=212
note_on channel=1 note=65 velocity=56 time=40
note_on channel=1 note=62 velocity=56 time=4
note_on channel=1 note=43 velocity=56 time=0
note_on channel=1 note=59 velocity=56 time=4
note_off channel=1 note=62 velocity=64 time=80
note_off channel=1 note=65 velocity=64 time=20
note_off channel=1 note=59 velocity=64 time=16
note_off channel=1 note=43 velocity=64 time=4
note_on channel=1 note=74 velocity=105 time=163
note_off channel=1 note=74 velocity=57 time=142
control_change channel=1 control=64 value=0 time=7
note_on channel=1 note=80 velocity=115 time=12
note_on channel=1 note=75 velocity=115 time=0
note_off channel=1 note=80 velocity=43 time=120
note_off channel=1 note=75 velocity=43 time=0
control_change channel=1 control=64 value=0 time=248
control_change channel=1 control=64 value=0 time=0
note_on channel=1 note=81 velocity=86 time=131
note_on channel=1 note=76 velocity=86 time=0
note_off channel=1 note=81 velocity=59 time=307
note_off channel=1 note=76 velocity=59 time=0
note_on channel=1 note=65 velocity=56 time=26
note_on channel=1 note=59 velocity=56 time=0
note_on channel=1 note=74 velocity=75 time=5
note_on channel=1 note=71 velocity=56 time=15
note_on channel=1 note=69 velocity=56 time=32
note_off channel=1 note=74 velocity=54 time=49
note_on channel=1 note=80 velocity=92 time=370
note_off channel=1 note=69 velocity=64 time=125
note_off channel=1 note=59 velocity=64 time=0
note_off channel=1 note=71 velocity=64 time=0
note_off channel=1 note=65 velocity=64 time=0
control_change channel=1 control=64 value=0 time=0
note_on channel=1 note=72 velocity=56 time=340
note_on channel=1 note=64 velocity=56 time=24
note_on channel=1 note=58 velocity=56 time=0
note_off channel=1 note=80 velocity=41 time=3
note_on channel=1 note=81 velocity=64 time=2
note_on channel=1 note=70 velocity=56 time=15
note_on channel=1 note=68 velocity=56 time=32
note_on channel=1 note=80 velocity=56 time=117
note_off channel=1 note=81 velocity=45 time=7
note_off channel=1 note=80 velocity=40 time=137
note_on channel=1 note=81 velocity=60 time=19
note_on channel=1 note=80 velocity=59 time=120
note_off channel=1 note=81 velocity=52 time=45
note_off channel=1 note=80 velocity=49 time=72
note_off channel=1 note=64 velocity=64 time=27
note_off channel=1 note=70 velocity=64 time=0
note_off channel=1 note=72 velocity=64 time=0
note_off channel=1 note=68 velocity=64 time=0
note_off channel=1 note=58 velocity=64 time=0
control_change channel=1 control=64 value=0 time=0
note_on channel=1 note=81 velocity=65 time=5
note_on channel=1 note=62 velocity=56 time=15
note_on channel=1 note=67 velocity=56 time=16
note_off channel=1 note=62 velocity=64 time=80
note_off channel=1 note=67 velocity=64 time=4
note_off channel=1 note=81 velocity=69 time=180
note_on channel=1 note=72 velocity=67 time=33
note_off channel=1 note=72 velocity=52 time=166
note_on channel=1 note=74 velocity=77 time=14
note_off channel=1 note=74 velocity=57 time=272
note_on channel=1 note=79 velocity=67 time=31
note_on channel=1 note=75 velocity=67 time=0
note_on channel=1 note=67 velocity=56 time=508
note_on channel=1 note=60 velocity=56 time=4
note_on channel=1 note=51 velocity=56 time=4
note_on channel=1 note=58 velocity=56 time=12
note_off channel=1 note=60 velocity=64 time=52
note_off channel=1 note=58 velocity=64 time=0
note_off channel=1 note=51 velocity=64 time=12
note_off channel=1 note=67 velocity=64 time=4
note_on channel=1 note=60 velocity=56 time=524
note_on channel=1 note=58 velocity=56 time=12
note_on channel=1 note=67 velocity=56 time=0
note_on channel=1 note=51 velocity=56 time=4
note_off channel=1 note=51 velocity=64 time=60
note_off channel=1 note=60 velocity=64 time=20
note_off channel=1 note=58 velocity=64 time=4
note_off channel=1 note=67 velocity=64 time=8
note_on channel=1 note=51 velocity=56 time=724
note_off channel=1 note=79 velocity=54 time=57
note_off channel=1 note=75 velocity=54 time=0
note_off channel=1 note=51 velocity=64 time=15
control_change channel=1 control=64 value=0 time=40
note_on channel=1 note=72 velocity=56 time=340
note_on channel=1 note=85 velocity=81 time=4
note_on channel=1 note=86 velocity=110 time=4
note_on channel=1 note=63 velocity=56 time=16
note_on channel=1 note=57 velocity=56 time=0
note_off channel=1 note=85 velocity=64 time=20
note_on channel=1 note=69 velocity=56 time=0
note_on channel=1 note=67 velocity=56 time=32
note_off channel=1 note=86 velocity=60 time=49
note_on channel=1 note=86 velocity=96 time=367
note_on channel=1 note=85 velocity=81 time=8
note_off channel=1 note=85 velocity=64 time=40
note_off channel=1 note=86 velocity=55 time=423
note_on channel=1 note=84 velocity=64 time=12
note_on channel=1 note=80 velocity=62 time=165
note_off channel=1 note=84 velocity=60 time=34
note_off channel=1 note=63 velocity=64 time=266
note_off channel=1 note=67 velocity=64 time=0
note_off channel=1 note=69 velocity=64 time=0
note_off channel=1 note=57 velocity=64 time=0
note_off channel=1 note=80 velocity=49 time=8
note_off channel=1 note=72 velocity=64 time=20
note_on channel=1 note=77 velocity=64 time=8
control_change channel=1 control=64 value=0 time=4
note_on channel=1 note=53 velocity=54 time=12
note_on channel=1 note=55 velocity=52 time=0
note_on channel=1 note=50 velocity=47 time=4
note_on channel=1 note=34 velocity=46 time=4
note_off channel=1 note=53 velocity=64 time=420
note_off channel=1 note=34 velocity=64 time=0
note_off channel=1 note=50 velocity=64 time=0
note_off channel=1 note=55 velocity=64 time=0
control_change channel=1 control=64 value=0 time=40
note_on channel=1 note=64 velocity=77 time=464
note_on channel=1 note=57 velocity=68 time=4
note_on channel=1 note=49 velocity=67 time=4
note_on channel=1 note=54 velocity=42 time=12
note_off channel=1 note=57 velocity=64 time=52
note_off channel=1 note=54 velocity=64 time=0
note_off channel=1 note=49 velocity=64 time=12
note_off channel=1 note=64 velocity=64 time=4
note_off channel=1 note=77 velocity=38 time=8
control_change channel=1 control=64 value=0 time=20
note_on channel=1 note=53 velocity=54 time=12
note_on channel=1 note=55 velocity=52 time=0
note_on channel=1 note=50 velocity=47 time=4
note_on channel=1 note=34 velocity=46 time=4
note_off channel=1 note=55 velocity=64 time=580
note_off channel=1 note=50 velocity=64 time=32
note_off channel=1 note=53 velocity=64 time=52
note_off channel=1 note=34 velocity=64 time=64
note_on channel=1 note=45 velocity=62 time=140
note_off channel=1 note=45 velocity=64 time=72
control_change channel=1 control=64 value=0 time=0
note_on channel=1 note=59 velocity=68 time=20
note_on channel=1 note=66 velocity=70 time=16
note_off channel=1 note=59 velocity=64 time=80
note_off channel=1 note=66 velocity=64 time=4
control_change channel=1 control=64 value=0 time=840
note_on channel=1 note=40 velocity=77 time=396
note_off channel=1 note=40 velocity=64 time=44
note_on channel=1 note=62 velocity=95 time=72
note_on channel=1 note=59 velocity=93 time=4
note_off channel=1 note=59 velocity=64 time=216
note_off channel=1 note=62 velocity=64 time=16
control_change channel=1 control=64 value=0 time=212
note_on channel=1 note=72 velocity=74 time=340
note_on channel=1 note=60 velocity=54 time=24
note_on channel=1 note=57 velocity=57 time=0
note_on channel=1 note=69 velocity=59 time=20
note_on channel=1 note=64 velocity=57 time=32
note_off channel=1 note=72 velocity=64 time=404
note_off channel=1 note=64 velocity=64 time=0
note_off channel=1 note=69 velocity=64 time=0
note_off channel=1 note=57 velocity=64 time=0
note_off channel=1 note=60 velocity=64 time=0
control_change channel=1 control=64 value=0 time=40
note_on channel=1 note=60 velocity=68 time=468
note_on channel=1 note=52 velocity=51 time=8
note_on channel=1 note=64 velocity=66 time=4
note_on channel=1 note=44 velocity=52 time=24
note_off channel=1 note=60 velocity=64 time=72
note_off channel=1 note=64 velocity=64 time=0
note_off channel=1 note=44 velocity=64 time=4
note_off channel=1 note=52 velocity=64 time=0
control_change channel=1 control=64 value=0 time=0
control_change channel=1 control=64 value=0 time=380
note_on channel=1 note=64 velocity=60 time=160
note_on channel=1 note=66 velocity=46 time=0
note_on channel=1 note=60 velocity=52 time=4
note_on channel=1 note=70 velocity=47 time=12
note_off channel=1 note=64 velocity=64 time=100
note_off channel=1 note=70 velocity=64 time=16
note_off channel=1 note=60 velocity=64 time=0
note_off channel=1 note=66 velocity=64 time=0
note_on channel=1 note=50 velocity=76 time=332
note_off channel=1 note=50 velocity=64 time=200
note_on channel=1 note=70 velocity=82 time=288
note_on channel=1 note=65 velocity=61 time=0
note_off channel=1 note=65 velocity=64 time=120
note_on channel=1 note=66 velocity=57 time=24
note_off channel=1 note=70 velocity=64 time=136
note_off channel=1 note=66 velocity=64 time=76
control_change channel=1 control=64 value=0 time=552
note_on channel=1 note=67 velocity=68 time=368
note_on channel=1 note=58 velocity=51 time=8
note_on channel=1 note=70 velocity=66 time=4
note_on channel=1 note=43 velocity=52 time=24
note_off channel=1 note=67 velocity=64 time=72
note_off channel=1 note=70 velocity=64 time=0
note_off channel=1 note=43 velocity=64 time=12
note_off channel=1 note=58 velocity=64 time=20
note_on channel=1 note=66 velocity=63 time=20
note_off channel=1 note=66 velocity=64 time=260
control_change channel=1 control=64 value=0 time=72
note_on channel=1 note=79 velocity=74 time=440
note_on channel=1 note=67 velocity=54 time=24
note_on channel=1 note=62 velocity=57 time=0
note_on channel=1 note=74 velocity=59 time=20
note_on channel=1 note=70 velocity=57 time=32
note_off channel=1 note=79 velocity=64 time=404
note_off channel=1 note=70 velocity=64 time=0
note_off channel=1 note=74 velocity=64 time=0
note_off channel=1 note=62 velocity=64 time=0
note_off channel=1 note=67 velocity=64 time=0
control_change channel=1 control=64 value=0 time=40
note_on channel=1 note=62 velocity=60 time=160
note_on channel=1 note=65 velocity=46 time=0
note_on channel=1 note=58 velocity=52 time=4
note_on channel=1 note=67 velocity=47 time=12
note_off channel=1 note=62 velocity=64 time=100
note_off channel=1 note=67 velocity=64 time=16
note_off channel=1 note=58 velocity=64 time=0
note_off channel=1 note=65 velocity=64 time=0
note_on channel=1 note=36 velocity=76 time=332
note_off channel=1 note=36 velocity=64 time=200
control_change channel=1 control=64 value=0 time=236
note_on channel=1 note=67 velocity=77 time=364
note_on channel=1 note=60 velocity=68 time=4
note_on channel=1 note=52 velocity=67 time=4
note_on channel=1 note=58 velocity=42 time=12
note_off channel=1 note=60 velocity=64 time=52
note_off channel=1 note=58 velocity=64 time=0
note_off channel=1 note=52 velocity=64 time=12
note_off channel=1 note=67 velocity=64 time=4
control_change channel=1 control=64 value=0 time=408
note_on channel=1 note=59 velocity=60 time=160
note_on channel=1 note=61 velocity=46 time=0
note_on channel=1 note=55 velocity=52 time=4
note_on channel=1 note=64 velocity=47 time=12
note_off channel=1 note=59 velocity=64 time=100
note_off channel=1 note=64 velocity=64 time=16
note_off channel=1 note=55 velocity=64 time=0
note_off channel=1 note=61 velocity=64 time=0
note_on channel=1 note=45 velocity=76 time=332
note_off channel=1 note=45 velocity=64 time=200
control_change channel=1 control=64 value=0 time=236
note_on channel=1 note=57 velocity=68 time=368
note_on channel=1 note=53 velocity=51 time=8
note_on channel=1 note=65 velocity=66 time=4
note_on channel=1 note=45 velocity=52 time=24
note_off channel=1 note=57 velocity=64 time=72
note_off channel=1 note=65 velocity=64 time=0
note_off channel=1 note=45 velocity=64 time=12
note_off channel=1 note=53 velocity=64 time=20
note_on channel=1 note=60 velocity=63 time=20
note_off channel=1 note=60 velocity=64 time=260
control_change channel=1 control=64 value=0 time=72
note_on channel=1 note=66 velocity=47 time=140
note_on channel=1 note=64 velocity=49 time=4
note_on channel=1 note=50 velocity=41 time=0
note_on channel=1 note=60 velocity=43 time=4
note_off channel=1 note=64 velocity=64 time=80
note_off channel=1 note=66 velocity=64 time=20
note_off channel=1 note=60 velocity=64 time=16
note_off channel=1 note=50 velocity=64 time=4
control_change channel=1 control=64 value=0 time=792
note_on channel=1 note=50 velocity=77 time=396
note_off channel=1 note=50 velocity=64 time=44
control_change channel=1 control=64 value=0 time=40
control_change channel=1 control=64 value=0 time=380
note_on channel=1 note=43 velocity=77 time=496
note_off channel=1 note=43 velocity=64 time=44
note_on channel=1 note=65 velocity=95 time=72
note_on channel=1 note=62 velocity=93 time=4
note_off channel=1 note=62 velocity=64 time=216
note_off channel=1 note=65 velocity=64 time=16
control_change channel=1 control=64 value=0 time=212
note_on channel=1 note=74 velocity=74 time=340
note_on channel=1 note=65 velocity=54 time=24
note_on channel=1 note=59 velocity=57 time=0
note_on channel=1 note=71 velocity=59 time=20
note_on channel=1 note=69 velocity=57 time=32
note_off channel=1 note=74 velocity=64 time=544
note_off channel=1 note=69 velocity=64 time=0
note_off channel=1 note=71 velocity=64 time=0
note_off channel=1 note=59 velocity=64 time=0
note_off channel=1 note=65 velocity=64 time=0
control_change channel=1 control=64 value=0 time=0
note_on channel=1 note=64 velocity=47 time=40
note_on channel=1 note=60 velocity=49 time=4
note_on channel=1 note=48 velocity=41 time=0
note_on channel=1 note=58 velocity=43 time=4
note_off channel=1 note=60 velocity=64 time=80
note_off channel=1 note=64 velocity=64 time=20
note_off channel=1 note=58 velocity=64 time=16
note_off channel=1 note=48 velocity=64 time=4
control_change channel=1 control=64 value=0 time=792
note_on channel=1 note=62 velocity=68 time=368
note_on channel=1 note=55 velocity=51 time=8
note_on channel=1 note=67 velocity=66 time=4
note_on channel=1 note=48 velocity=52 time=24
note_off channel=1 note=62 velocity=64 time=72
note_off channel=1 note=67 velocity=64 time=0
note_off channel=1 note=48 velocity=64 time=12
note_off channel=1 note=55 velocity=64 time=20
note_on channel=1 note=63 velocity=63 time=20
note_off channel=1 note=63 velocity=64 time=260
note_on channel=1 note=55 velocity=55 time=96
note_off channel=1 note=55 velocity=64 time=76
control_change channel=1 control=64 value=0 time=0
note_on channel=1 note=41 velocity=77 time=396
note_off channel=1 note=41 velocity=64 time=44
note_on channel=1 note=64 velocity=95 time=72
note_on channel=1 note=60 velocity=93 time=4
note_off channel=1 note=60 velocity=64 time=216
note_off channel=1 note=64 velocity=64 time=16
note_on channel=1 note=67 velocity=69 time=256
note_on channel=1 note=57 velocity=60 time=4
note_off channel=1 note=67 velocity=64 time=272
note_off channel=1 note=57 velocity=64 time=0
note_on channel=1 note=36 velocity=78 time=72
note_off channel=1 note=36 velocity=64 time=92
note_on channel=1 note=57 velocity=56 time=32
note_on channel=1 note=64 velocity=71 time=0
note_off channel=1 note=57 velocity=64 time=184
note_off channel=1 note=64 velocity=64 time=4
control_change channel=1 control=64 value=0 time=256
note_on channel=1 note=62 velocity=60 time=60
note_on channel=1 note=66 velocity=46 time=0
note_on channel=1 note=60 velocity=52 time=4
note_on channel=1 note=69 velocity=47 time=12
note_off channel=1 note=62 velocity=64 time=100
note_off channel=1 note=69 velocity=64 time=16
note_off channel=1 note=60 velocity=64 time=0
note_off channel=1 note=66 velocity=64 time=0
note_on channel=1 note=50 velocity=76 time=332
note_off channel=1 note=50 velocity=64 time=200
control_change channel=1 control=64 value=0 time=136
note_on channel=1 note=66 velocity=47 time=140
note_on channel=1 note=64 velocity=49 time=4
note_on channel=1 note=50 velocity=41 time=0
note_on channel=1 note=60 velocity=43 time=4
note_off channel=1 note=64 velocity=64 time=80
note_off channel=1 note=66 velocity=64 time=20
note_off channel=1 note=60 velocity=64 time=16
note_off channel=1 note=50 velocity=64 time=4
control_change channel=1 control=64 value=0 time=792
note_on channel=1 note=43 velocity=77 time=396
note_off channel=1 note=43 velocity=64 time=44
note_on channel=1 note=65 velocity=95 time=72
note_on channel=1 note=62 velocity=93 time=4
note_off channel=1 note=62 velocity=64 time=216
note_off channel=1 note=65 velocity=64 time=16
control_change channel=1 control=64 value=0 time=212
note_on channel=1 note=62 velocity=60 time=60
note_on channel=1 note=65 velocity=46 time=0
note_on channel=1 note=59 velocity=52 time=4
note_on channel=1 note=69 velocity=47 time=12
note_off channel=1 note=62 velocity=64 time=100
note_off channel=1 note=69 velocity=64 time=16
note_off channel=1 note=59 velocity=64 time=0
note_off channel=1 note=65 velocity=64 time=0
note_on channel=1 note=43 velocity=76 time=332
note_off channel=1 note=43 velocity=64 time=200
control_change channel=1 control=64 value=0 time=136
note_on channel=1 note=60 velocity=68 time=468
note_on channel=1 note=56 velocity=51 time=8
note_on channel=1 note=68 velocity=66 time=4
note_on channel=1 note=48 velocity=52 time=24
note_off channel=1 note=60 velocity=64 time=72
note_off channel=1 note=68 velocity=64 time=0
note_off channel=1 note=48 velocity=64 time=12
note_off channel=1 note=56 velocity=64 time=20
note_on channel=1 note=63 velocity=63 time=20
note_off channel=1 note=63 velocity=64 time=260
note_on channel=1 note=56 velocity=55 time=96
note_off channel=1 note=56 velocity=64 time=76
control_change channel=1 control=64 value=0 time=0
note_on channel=1 note=62 velocity=58 time=20
note_on channel=1 note=52 velocity=50 time=4
note_on channel=1 note=58 velocity=56 time=4
note_on channel=1 note=67 velocity=61 time=4
note_off channel=1 note=62 velocity=64 time=124
note_off channel=1 note=52 velocity=64 time=16
note_off channel=1 note=58 velocity=64 time=0
note_off channel=1 note=67 velocity=64 time=20
control_change channel=1 control=64 value=0 time=668
note_on channel=1 note=55 velocity=54 time=12
note_on channel=1 note=58 velocity=52 time=0
note_on channel=1 note=51 velocity=47 time=4
note_on channel=1 note=36 velocity=46 time=4
note_off channel=1 note=58 velocity=64 time=672
note_off channel=1 note=51 velocity=64 time=32
note_off channel=1 note=55 velocity=64 time=52
note_off channel=1 note=36 velocity=64 time=64
note_on channel=1 note=47 velocity=62 time=148
note_off channel=1 note=47 velocity=64 time=96
note_on channel=1 note=67 velocity=67 time=12
note_on channel=1 note=48 velocity=48 time=4
note_on channel=1 note=55 velocity=48 time=4
note_on channel=1 note=63 velocity=62 time=0
note_off channel=1 note=55 velocity=64 time=552
note_off channel=1 note=63 velocity=64 time=12
note_off channel=1 note=48 velocity=64 time=16
note_off channel=1 note=67 velocity=64 time=8
control_change channel=1 control=64 value=0 time=328
note_on channel=1 note=67 velocity=46 time=28
note_on channel=1 note=72 velocity=56 time=0
note_on channel=1 note=63 velocity=47 time=12
note_on channel=1 note=57 velocity=58 time=8
note_off channel=1 note=67 velocity=64 time=184
note_off channel=1 note=57 velocity=64 time=0
note_off channel=1 note=72 velocity=64 time=0
note_off channel=1 note=63 velocity=64 time=16
note_on channel=1 note=52 velocity=48 time=700
note_on channel=1 note=69 velocity=74 time=28
note_on channel=1 note=53 velocity=53 time=4
note_on channel=1 note=60 velocity=57 time=24
note_on channel=1 note=63 velocity=61 time=8
note_off channel=1 note=52 velocity=64 time=64
note_off channel=1 note=69 velocity=64 time=76
note_off channel=1 note=63 velocity=64 time=32
note_off channel=1 note=60 velocity=64 time=32
note_off channel=1 note=53 velocity=64 time=80
note_on channel=1 note=67 velocity=59 time=168
note_on channel=1 note=57 velocity=72 time=32
note_on channel=1 note=60 velocity=61 time=4
note_on channel=1 note=51 velocity=67 time=8
note_off channel=1 note=67 velocity=64 time=132
note_off channel=1 note=57 velocity=64 time=4
note_off channel=1 note=60 velocity=64 time=8
note_off channel=1 note=51 velocity=64 time=32
control_change channel=1 control=64 value=0 time=236
note_on channel=1 note=58 velocity=68 time=20
note_on channel=1 note=65 velocity=70 time=16
note_off channel=1 note=58 velocity=64 time=80
note_off channel=1 note=65 velocity=64 time=4
control_change channel=1 control=64 value=0 time=360
note_on channel=1 note=57 velocity=68 time=368
note_on channel=1 note=52 velocity=51 time=8
note_on channel=1 note=64 velocity=66 time=4
note_on channel=1 note=45 velocity=52 time=24
note_off channel=1 note=57 velocity=64 time=72
note_off channel=1 note=64 velocity=64 time=0
note_off channel=1 note=45 velocity=64 time=4
note_off channel=1 note=52 velocity=64 time=0
control_change channel=1 control=64 value=0 time=0
note_on channel=1 note=46 velocity=77 time=396
note_off channel=1 note=46 velocity=64 time=44
note_on channel=1 note=62 velocity=95 time=72
note_on channel=1 note=58 velocity=93 time=4
note_off channel=1 note=58 velocity=64 time=216
note_off channel=1 note=62 velocity=64 time=16
control_change channel=1 control=64 value=0 time=212
note_on channel=1 note=53 velocity=54 time=12
note_on channel=1 note=56 velocity=52 time=0
note_on channel=1 note=49 velocity=47 time=4
note_on channel=1 note=34 velocity=46 time=4
note_off channel=1 note=53 velocity=64 time=460
note_off channel=1 note=34 velocity=64 time=0
note_off channel=1 note=49 velocity=64 time=0
note_off channel=1 note=56 velocity=64 time=0
control_change channel=1 control=64 value=0 time=0
note_on channel=1 note=58 velocity=68 time=20
note_on channel=1 note=65 velocity=70 time=16
note_off channel=1 note=58 velocity=64 time=80
note_off channel=1 note=65 velocity=64 time=4
control_change channel=1 control=64 value=0 time=260
note_on channel=1 note=58 velocity=68 time=20
note_on channel=1 note=65 velocity=70 time=16
note_off channel=1 note=58 velocity=64 time=172
note_off channel=1 note=65 velocity=64 time=4
control_change channel=1 control=64 value=0 time=748
note_on channel=1 note=60 velocity=60 time=160
note_on channel=1 note=62 velocity=46 time=0
note_on channel=1 note=57 velocity=52 time=4
note_on channel=1 note=65 velocity=47 time=12
note_off channel=1 note=60 velocity=64 time=100
note_off channel=1 note=65 velocity=64 time=16
note_off channel=1 note=57 velocity=64 time=0
note_off channel=1 note=62 velocity=64 time=0
control_change channel=1 control=64 value=0 time=288
note_on channel=1 note=59 velocity=68 time=20
note_on channel=1 note=64 velocity=70 time=16
note_off channel=1 note=59 velocity=64 time=80
note_off channel=1 note=64 velocity=64 time=4
control_change channel=1 control=64 value=0 time=360
note_on channel=1 note=58 velocity=68 time=20
note_on channel=1 note=65 velocity=70 time=16
note_off channel=1 note=58 velocity=64 time=80
note_off channel=1 note=65 velocity=64 time=4
control_change channel=1 control=64 value=0 time=360
note_on channel=1 note=64 velocity=68 time=20
note_on channel=1 note=69 velocity=70 time=16
note_off channel=1 note=64 velocity=64 time=80
note_off channel=1 note=69 velocity=64 time=4
control_change channel=1 control=64 value=0 time=360
note_on channel=1 note=69 velocity=74 time=340
note_on channel=1 note=60 velocity=54 time=24
note_on channel=1 note=55 velocity=57 time=0
note_on channel=1 note=67 velocity=59 time=20
note_on channel=1 note=64 velocity=57 time=32
note_off channel=1 note=69 velocity=64 time=544
note_off channel=1 note=64 velocity=64 time=0
note_off channel=1 note=67 velocity=64 time=0
note_off channel=1 note=55 velocity=64 time=0
note_off channel=1 note=60 velocity=64 time=0
control_change channel=1 control=64 value=0 time=0
note_on channel=1 note=62 velocity=68 time=20
note_on channel=1 note=69 velocity=70 time=16
note_off channel=1 note=62 velocity=64 time=80
note_off channel=1 note=69 velocity=64 time=4
control_change channel=1 control=64 value=0 time=840
note_on channel=1 note=62 velocity=60 time=60
note_on channel=1 note=65 velocity=46 time=0
note_on channel=1 note=59 velocity=52 time=4
note_on channel=1 note=69 velocity=47 time=12
note_off channel=1 note=62 velocity=64 time=100
note_off channel=1 note=69 velocity=64 time=16
note_off channel=1 note=59 velocity=64 time=0
note_off channel=1 note=65 velocity=64 time=0
control_change channel=1 control=64 value=0 time=188
note_on channel=1 note=63 velocity=60 time=160
note_on channel=1 note=65 velocity=46 time=0
note_on channel=1 note=59 velocity=52 time=4
note_on channel=1 note=67 velocity=47 time=12
note_off channel=1 note=63 velocity=64 time=100
note_off channel=1 note=67 velocity=64 time=16
note_off channel=1 note=59 velocity=64 time=0
note_off channel=1 note=65 velocity=64 time=0
control_change channel=1 control=64 value=0 time=288
note_on channel=1 note=62 velocity=68 time=368
note_on channel=1 note=57 velocity=51 time=8
note_on channel=1 note=69 velocity=66 time=4
note_on channel=1 note=43 velocity=52 time=24
note_off channel=1 note=62 velocity=64 time=72
note_off channel=1 note=69 velocity=64 time=0
note_off channel=1 note=43 velocity=64 time=12
note_off channel=1 note=57 velocity=64 time=20
note_on channel=1 note=64 velocity=63 time=20
note_off channel=1 note=64 velocity=64 time=260
note_on channel=1 note=57 velocity=55 time=96
note_off channel=1 note=57 velocity=64 time=76
control_change channel=1 control=64 value=0 time=0
note_on channel=1 note=63 velocity=68 time=20
note_on channel=1 note=67 velocity=70 time=16
note_off channel=1 note=63 velocity=64 time=80
note_off channel=1 note=67 velocity=64 time=4
control_change channel=1 control=64 value=0 time=840
note_on channel=1 note=64 velocity=47 time=40
note_on channel=1 note=63 velocity=49 time=4
note_on channel=1 note=48 velocity=41 time=0
note_on channel=1 note=58 velocity=43 time=4
note_off channel=1 note=63 velocity=64 time=80
note_off channel=1 note=64 velocity=64 time=20
note_off channel=1 note=58 velocity=64 time=16
note_off channel=1 note=48 velocity=64 time=4
control_change channel=1 control=64 value=0 time=172
control_change channel=1 control=64 value=0 time=620
control_change channel=1 control=91 value=100 time=0
control_change channel=1 control=11 value=109 time=0
control_change channel=1 control=64 value=127 time=24
note_on channel=1 note=48 velocity=106 time=296
note_on channel=1 note=36 velocity=106 time=0
note_off channel=1 note=48 velocity=64 time=184
note_off channel=1 note=36 velocity=64 time=0
control_change channel=1 control=11 value=109 time=1416
control_change channel=1 control=11 value=108 time=120
control_change channel=1 control=11 value=106 time=120
control_change channel=1 control=11 value=105 time=120
control_change channel=1 control=11 value=104 time=120
control_change channel=1 control=11 value=103 time=120
control_change channel=1 control=11 value=101 time=120
control_change channel=1 control=11 value=100 time=120
control_change channel=1 control=11 value=99 time=120
control_change channel=1 control=11 value=98 time=120
control_change channel=1 control=11 value=96 time=120
control_change channel=1 control=11 value=95 time=120
control_change channel=1 control=11 value=94 time=120
control_change channel=1 control=11 value=93 time=120
control_change channel=1 control=11 value=91 time=120
control_change channel=1 control=11 value=90 time=120
control_change channel=1 control=11 value=89 time=96
control_change channel=1 control=64 value=0 time=24
control_change channel=1 control=91 value=81 time=0
control_change channel=1 control=11 value=90 time=312
note_on channel=1 note=43 velocity=77 time=84
note_off channel=1 note=43 velocity=64 time=44
note_on channel=1 note=65 velocity=95 time=72
note_on channel=1 note=62 velocity=93 time=4
control_change channel=1 control=11 value=91 time=108
note_off channel=1 note=62 velocity=64 time=108
note_off channel=1 note=65 velocity=64 time=16
control_change channel=1 control=64 value=0 time=212
control_change channel=1 control=11 value=93 time=0
note_on channel=1 note=62 velocity=68 time=20
note_on channel=1 note=69 velocity=70 time=16
note_off channel=1 note=62 velocity=64 time=80
note_off channel=1 note=69 velocity=64 time=4
control_change channel=1 control=11 value=94 time=192
control_change channel=1 control=64 value=0 time=168
note_on channel=1 note=63 velocity=68 time=20
note_on channel=1 note=69 velocity=70 time=16
note_off channel=1 note=63 velocity=64 time=80
note_off channel=1 note=69 velocity=64 time=4
control_change channel=1 control=11 value=95 time=48
control_change channel=1 control=11 value=96 time=312
control_change channel=1 control=64 value=0 time=0
note_on channel=1 note=62 velocity=68 time=368
note_on channel=1 note=55 velocity=51 time=8
note_on channel=1 note=67 velocity=66 time=4
note_on channel=1 note=48 velocity=52 time=24
note_off channel=1 note=62 velocity=64 time=72
note_off channel=1 note=67 velocity=64 time=0
note_off channel=1 note=48 velocity=64 time=12
note_off channel=1 note=55 velocity=64 time=20
note_on channel=1 note=63 velocity=63 time=20
note_off channel=1 note=63 velocity=64 time=260
note_on channel=1 note=55 velocity=55 time=96
note_off channel=1 note=55 velocity=64 time=76
control_change channel=1 control=64 value=0 time=0
note_on channel=1 note=64 velocity=47 time=40
note_on channel=1 note=62 velocity=49 time=4
note_on channel=1 note=48 velocity=41 time=0
note_on channel=1 note=58 velocity=43 time=4
note_off channel=1 note=62 velocity=64 time=80
note_off channel=1 note=64 velocity=64 time=20
note_off channel=1 note=58 velocity=64 time=16
note_off channel=1 note=48 velocity=64 time=4
control_change channel=1 control=64 value=0 time=312
control_change channel=1 control=64 value=0 time=380
note_on channel=1 note=60 velocity=60 time=160
note_on channel=1 note=62 velocity=46 time=0
note_on channel=1 note=57 velocity=52 time=4
note_on channel=1 note=65 velocity=47 time=12
note_off channel=1 note=60 velocity=64 time=100
note_off channel=1 note=65 velocity=64 time=16
note_off channel=1 note=57 velocity=64 time=0
note_off channel=1 note=62 velocity=64 time=0
note_on channel=1 note=41 velocity=76 time=332
note_off channel=1 note=41 velocity=64 time=200
control_change channel=1 control=64 value=0 time=236
note_on channel=1 note=60 velocity=47 time=40
note_on channel=1 note=57 velocity=49 time=4
note_on channel=1 note=45 velocity=41 time=0
note_on channel=1 note=55 velocity=43 time=4
note_off channel=1 note=57 velocity=64 time=80
note_off channel=1 note=60 velocity=64 time=20
note_off channel=1 note=55 velocity=64 time=16
note_off channel=1 note=45 velocity=64 time=4
control_change channel=1 control=64 value=0 time=312
note_on channel=1 note=65 velocity=77 time=364
note_on channel=1 note=58 velocity=68 time=4
note_on channel=1 note=49 velocity=67 time=4
note_on channel=1 note=55 velocity=42 time=12
note_off channel=1 note=58 velocity=64 time=52
note_off channel=1 note=55 velocity=64 time=0
note_off channel=1 note=49 velocity=64 time=12
note_off channel=1 note=65 velocity=64 time=4
control_change channel=1 control=64 value=0 time=28
note_on channel=1 note=70 velocity=77 time=364
note_on channel=1 note=64 velocity=68 time=4
note_on channel=1 note=54 velocity=67 time=4
note_on channel=1 note=60 velocity=42 time=12
note_off channel=1 note=64 velocity=64 time=52
note_off channel=1 note=60 velocity=64 time=0
note_off channel=1 note=54 velocity=64 time=12
note_off channel=1 note=70 velocity=64 time=4
note_on channel=1 note=64 velocity=61 time=524
note_on channel=1 note=60 velocity=61 time=12
note_on channel=1 note=70 velocity=59 time=0
note_on channel=1 note=54 velocity=59 time=4
note_off channel=1 note=54 velocity=64 time=60
note_off channel=1 note=64 velocity=64 time=20
note_off channel=1 note=60 velocity=64 time=4
note_off channel=1 note=70 velocity=64 time=8
note_on channel=1 note=53 velocity=55 time=724
note_off channel=1 note=53 velocity=64 time=72
control_change channel=1 control=64 value=0 time=40
note_on channel=1 note=63 velocity=68 time=20
note_on channel=1 note=69 velocity=70 time=16
note_off channel=1 note=63 velocity=64 time=80
note_off channel=1 note=69 velocity=64 time=4
control_change channel=1 control=64 value=0 time=740
note_on channel=1 note=63 velocity=60 time=160
note_on channel=1 note=65 velocity=46 time=0
note_on channel=1 note=59 velocity=52 time=4
note_on channel=1 note=69 velocity=47 time=12
note_off channel=1 note=63 velocity=64 time=100
note_off channel=1 note=69 velocity=64 time=16
note_off channel=1 note=59 velocity=64 time=0
note_off channel=1 note=65 velocity=64 time=0
control_change channel=1 control=64 value=0 time=288
note_on channel=1 note=62 velocity=68 time=20
note_on channel=1 note=69 velocity=70 time=16
note_off channel=1 note=62 velocity=64 time=80
note_off channel=1 note=69 velocity=64 time=4
control_change channel=1 control=64 value=0 time=260
note_on channel=1 note=60 velocity=68 time=468
note_on channel=1 note=55 velocity=51 time=8
note_on channel=1 note=67 velocity=66 time=4
note_on channel=1 note=48 velocity=52 time=24
note_off channel=1 note=60 velocity=64 time=72
note_off channel=1 note=67 velocity=64 time=0
note_off channel=1 note=48 velocity=64 time=12
note_off channel=1 note=55 velocity=64 time=20
note_on channel=1 note=63 velocity=63 time=20
note_off channel=1 note=63 velocity=64 time=260
note_on channel=1 note=55 velocity=55 time=96
note_off channel=1 note=55 velocity=64 time=76
control_change channel=1 control=64 value=0 time=0
control_change channel=1 control=64 value=0 time=380
note_on channel=1 note=62 velocity=58 time=20
note_on channel=1 note=52 velocity=50 time=4
note_on channel=1 note=58 velocity=56 time=4
note_on channel=1 note=67 velocity=61 time=4
note_off channel=1 note=62 velocity=64 time=216
note_off channel=1 note=52 velocity=64 time=16
note_off channel=1 note=58 velocity=64 time=0
note_off channel=1 note=67 velocity=64 time=20
control_change channel=1 control=64 value=0 time=196
note_on channel=1 note=67 velocity=77 time=464
note_on channel=1 note=60 velocity=68 time=4
note_on channel=1 note=51 velocity=67 time=4
note_on channel=1 note=58 velocity=42 time=12
note_off channel=1 note=60 velocity=64 time=52
note_off channel=1 note=58 velocity=64 time=0
note_off channel=1 note=51 velocity=64 time=12
note_off channel=1 note=67 velocity=64 time=4
note_on channel=1 note=60 velocity=61 time=524
note_on channel=1 note=58 velocity=61 time=12
note_on channel=1 note=67 velocity=59 time=0
note_on channel=1 note=51 velocity=59 time=4
note_off channel=1 note=51 velocity=64 time=60
note_off channel=1 note=60 velocity=64 time=20
note_off channel=1 note=58 velocity=64 time=4
note_off channel=1 note=67 velocity=64 time=8
control_change channel=1 control=64 value=0 time=836
note_on channel=1 note=67 velocity=77 time=364
note_on channel=1 note=60 velocity=68 time=4
note_on channel=1 note=51 velocity=67 time=4
note_on channel=1 note=58 velocity=42 time=12
note_off channel=1 note=60 velocity=64 time=52
note_off channel=1 note=58 velocity=64 time=0
note_off channel=1 note=51 velocity=64 time=12
note_off channel=1 note=67 velocity=64 time=4
control_change channel=1 control=64 value=0 time=508
note_on channel=1 note=73 velocity=74 time=340
note_on channel=1 note=63 velocity=54 time=24
note_on channel=1 note=57 velocity=57 time=0
note_on channel=1 note=69 velocity=59 time=20
note_on channel=1 note=65 velocity=57 time=32
note_off channel=1 note=73 velocity=64 time=544
note_off channel=1 note=65 velocity=64 time=0
note_off channel=1 note=69 velocity=64 time=0
note_off channel=1 note=57 velocity=64 time=0
note_off channel=1 note=63 velocity=64 time=0
control_change channel=1 control=64 value=0 time=0
control_change channel=1 control=11 value=109 time=0
note_on channel=1 note=58 velocity=44 time=20
note_on channel=1 note=50 velocity=44 time=4
note_on channel=1 note=55 velocity=44 time=4
note_on channel=1 note=65 velocity=44 time=4
note_off channel=1 note=58 velocity=64 time=124
note_off channel=1 note=50 velocity=64 time=16
note_off channel=1 note=55 velocity=64 time=0
note_off channel=1 note=65 velocity=64 time=20
note_on channel=1 note=73 velocity=83 time=670
note_off channel=1 note=73 velocity=46 time=93
note_on channel=1 note=74 velocity=55 time=70
note_off channel=1 note=74 velocity=58 time=261
note_on channel=1 note=77 velocity=67 time=29
note_on channel=1 note=55 velocity=44 time=69
note_off channel=1 note=55 velocity=64 time=40
note_on channel=1 note=79 velocity=86 time=14
note_off channel=1 note=77 velocity=60 time=14
note_on channel=1 note=70 velocity=44 time=8
note_on channel=1 note=55 velocity=44 time=4
note_on channel=1 note=62 velocity=44 time=8
note_on channel=1 note=65 velocity=44 time=0
note_off channel=1 note=79 velocity=55 time=64
note_off channel=1 note=62 velocity=64 time=120
note_off channel=1 note=70 velocity=64 time=124
note_off channel=1 note=55 velocity=64 time=0
note_off channel=1 note=65 velocity=64 time=0
control_change channel=1 control=64 value=0 time=40
note_on channel=1 note=80 velocity=83 time=107
note_on channel=1 note=65 velocity=44 time=357
note_on channel=1 note=58 velocity=44 time=4
note_on channel=1 note=49 velocity=44 time=4
note_on channel=1 note=56 velocity=44 time=12
note_off channel=1 note=58 velocity=64 time=52
note_off channel=1 note=56 velocity=64 time=0
note_off channel=1 note=49 velocity=64 time=12
note_off channel=1 note=65 velocity=64 time=4
note_off channel=1 note=80 velocity=37 time=381
note_on channel=1 note=77 velocity=67 time=29
control_change channel=1 control=64 value=0 time=98
note_on channel=1 note=70 velocity=44 time=340
note_on channel=1 note=61 velocity=44 time=24
note_on channel=1 note=55 velocity=44 time=0
note_on channel=1 note=67 velocity=44 time=20
note_on channel=1 note=65 velocity=44 time=32
note_off channel=1 note=70 velocity=64 time=544
note_off channel=1 note=65 velocity=64 time=0
note_off channel=1 note=67 velocity=64 time=0
note_off channel=1 note=55 velocity=64 time=0
note_off channel=1 note=61 velocity=64 time=0
control_change channel=1 control=64 value=0 time=0
note_off channel=1 note=77 velocity=33 time=34
note_on channel=1 note=60 velocity=44 time=334
note_on channel=1 note=53 velocity=44 time=8
note_on channel=1 note=65 velocity=44 time=4
note_on channel=1 note=41 velocity=44 time=24
note_off channel=1 note=60 velocity=64 time=72
note_off channel=1 note=65 velocity=64 time=0
note_off channel=1 note=41 velocity=64 time=12
note_off channel=1 note=53 velocity=64 time=20
note_on channel=1 note=62 velocity=44 time=20
note_off channel=1 note=62 velocity=64 time=260
note_on channel=1 note=73 velocity=75 time=62
note_on channel=1 note=53 velocity=44 time=34
note_off channel=1 note=53 velocity=64 time=88
note_off channel=1 note=73 velocity=42 time=12
note_on channel=1 note=57 velocity=44 time=16
note_on channel=1 note=62 velocity=44 time=0
note_on channel=1 note=74 velocity=55 time=34
note_off channel=1 note=57 velocity=64 time=154
note_off channel=1 note=62 velocity=64 time=8
note_off channel=1 note=74 velocity=58 time=107
note_on channel=1 note=77 velocity=86 time=15
note_off channel=1 note=77 velocity=57 time=144
note_on channel=1 note=79 velocity=89 time=16
note_off channel=1 note=79 velocity=33 time=178
note_on channel=1 note=50 velocity=44 time=156
note_off channel=1 note=50 velocity=64 time=72
control_change channel=1 control=64 value=0 time=36
note_on channel=1 note=66 velocity=44 time=0
note_on channel=1 note=69 velocity=44 time=16
note_on channel=1 note=54 velocity=44 time=0
note_on channel=1 note=60 velocity=44 time=0
note_on channel=1 note=80 velocity=96 time=10
note_off channel=1 note=69 velocity=64 time=174
note_off channel=1 note=66 velocity=64 time=568
note_off channel=1 note=60 velocity=64 time=4
note_off channel=1 note=54 velocity=64 time=0
note_off channel=1 note=80 velocity=42 time=46
note_on channel=1 note=77 velocity=83 time=27
note_on channel=1 note=69 velocity=44 time=115
note_on channel=1 note=65 velocity=44 time=0
note_on channel=1 note=60 velocity=44 time=0
note_on channel=1 note=50 velocity=44 time=0
note_off channel=1 note=65 velocity=64 time=128
note_on channel=1 note=66 velocity=44 time=32
note_off channel=1 note=50 velocity=64 time=448
note_off channel=1 note=60 velocity=64 time=0
note_off channel=1 note=69 velocity=64 time=0
note_off channel=1 note=66 velocity=64 time=288
control_change channel=1 control=64 value=0 time=64
note_off channel=1 note=77 velocity=44 time=34
note_on channel=1 note=67 velocity=44 time=330
note_on channel=1 note=62 velocity=44 time=4
note_on channel=1 note=53 velocity=44 time=4
note_on channel=1 note=59 velocity=44 time=12
note_off channel=1 note=62 velocity=64 time=52
note_off channel=1 note=59 velocity=64 time=0
note_off channel=1 note=53 velocity=64 time=12
note_off channel=1 note=67 velocity=64 time=4
note_on channel=1 note=73 velocity=92 time=388
note_off channel=1 note=73 velocity=53 time=127
note_on channel=1 note=62 velocity=44 time=9
note_on channel=1 note=59 velocity=44 time=12
note_on channel=1 note=67 velocity=44 time=0
note_on channel=1 note=53 velocity=44 time=4
note_on channel=1 note=74 velocity=73 time=6
note_off channel=1 note=53 velocity=64 time=54
note_off channel=1 note=62 velocity=64 time=20
note_off channel=1 note=59 velocity=64 time=4
note_off channel=1 note=67 velocity=64 time=8
note_off channel=1 note=74 velocity=58 time=195
note_on channel=1 note=77 velocity=86 time=17
note_off channel=1 note=77 velocity=62 time=134
note_on channel=1 note=79 velocity=96 time=29
note_off channel=1 note=79 velocity=58 time=108
control_change channel=1 control=64 value=0 time=253
note_on channel=1 note=80 velocity=90 time=129
note_off channel=1 note=80 velocity=50 time=290
note_on channel=1 note=67 velocity=44 time=45
note_on channel=1 note=60 velocity=44 time=4
note_on channel=1 note=83 velocity=89 time=2
note_on channel=1 note=52 velocity=44 time=2
note_on channel=1 note=58 velocity=44 time=12
note_off channel=1 note=60 velocity=64 time=52
note_off channel=1 note=58 velocity=64 time=0
note_off channel=1 note=52 velocity=64 time=12
note_off channel=1 note=67 velocity=64 time=4
note_on channel=1 note=60 velocity=44 time=524
note_on channel=1 note=58 velocity=44 time=12
note_on channel=1 note=67 velocity=44 time=0
note_on channel=1 note=52 velocity=44 time=4
note_off channel=1 note=52 velocity=64 time=60
note_off channel=1 note=60 velocity=64 time=20
note_off channel=1 note=58 velocity=64 time=4
note_off channel=1 note=67 velocity=64 time=8
note_off channel=1 note=83 velocity=59 time=190
note_on channel=1 note=82 velocity=63 time=53
note_off channel=1 note=82 velocity=40 time=166
note_on channel=1 note=80 velocity=69 time=12
note_off channel=1 note=80 velocity=55 time=278
note_on channel=1 note=51 velocity=44 time=25
note_on channel=1 note=77 velocity=83 time=11
note_off channel=1 note=51 velocity=64 time=61
control_change channel=1 control=64 value=0 time=40
control_change channel=1 control=11 value=109 time=0
note_on channel=1 note=65 velocity=44 time=368
note_on channel=1 note=57 velocity=44 time=8
note_on channel=1 note=69 velocity=44 time=4
note_on channel=1 note=41 velocity=44 time=24
note_off channel=1 note=65 velocity=64 time=72
note_off channel=1 note=69 velocity=64 time=0
control_change channel=1 control=11 value=108 time=4
note_off channel=1 note=41 velocity=64 time=8
note_off channel=1 note=57 velocity=64 time=20
note_on channel=1 note=64 velocity=44 time=20
note_off channel=1 note=64 velocity=64 time=260
note_on channel=1 note=57 velocity=44 time=96
control_change channel=1 control=11 value=106 time=76
note_off channel=1 note=57 velocity=64 time=12
note_on channel=1 note=60 velocity=44 time=28
note_on channel=1 note=65 velocity=44 time=0
note_off channel=1 note=60 velocity=64 time=188
note_off channel=1 note=65 velocity=64 time=8
control_change channel=1 control=11 value=105 time=244
control_change channel=1 control=64 value=0 time=380
note_on channel=1 note=58 velocity=58 time=20
note_on channel=1 note=49 velocity=50 time=4
note_on channel=1 note=55 velocity=56 time=4
note_on channel=1 note=63 velocity=61 time=4
control_change channel=1 control=11 value=104 time=44
note_off channel=1 note=77 velocity=47 time=22
note_off channel=1 note=58 velocity=64 time=150
note_off channel=1 note=55 velocity=64 time=16
note_off channel=1 note=49 velocity=64 time=0
note_off channel=1 note=63 velocity=64 time=20
control_change channel=1 control=64 value=0 time=296
note_on channel=1 note=65 velocity=60 time=60
note_on channel=1 note=66 velocity=46 time=0
note_on channel=1 note=60 velocity=52 time=4
note_on channel=1 note=69 velocity=47 time=12
note_off channel=1 note=65 velocity=64 time=100
note_off channel=1 note=69 velocity=64 time=16
note_off channel=1 note=60 velocity=64 time=0
note_off channel=1 note=66 velocity=64 time=0
control_change channel=1 control=64 value=0 time=188
note_on channel=1 note=65 velocity=58 time=20
note_on channel=1 note=54 velocity=50 time=4
note_on channel=1 note=60 velocity=56 time=4
note_on channel=1 note=69 velocity=61 time=4
note_off channel=1 note=65 velocity=64 time=216
note_off channel=1 note=54 velocity=64 time=16
note_off channel=1 note=60 velocity=64 time=0
note_off channel=1 note=69 velocity=64 time=20
control_change channel=1 control=64 value=0 time=676
note_on channel=1 note=62 velocity=68 time=20
note_on channel=1 note=69 velocity=70 time=16
note_off channel=1 note=62 velocity=64 time=172
note_off channel=1 note=69 velocity=64 time=4
control_change channel=1 control=64 value=0 time=848
note_on channel=1 note=55 velocity=54 time=12
note_on channel=1 note=59 velocity=52 time=0
note_on channel=1 note=53 velocity=47 time=4
note_on channel=1 note=43 velocity=46 time=4
note_off channel=1 note=55 velocity=64 time=320
note_off channel=1 note=43 velocity=64 time=0
note_off channel=1 note=53 velocity=64 time=0
note_off channel=1 note=59 velocity=64 time=0
control_change channel=1 control=64 value=0 time=40
note_on channel=1 note=65 velocity=47 time=140
note_on channel=1 note=62 velocity=49 time=4
note_on channel=1 note=43 velocity=41 time=0
note_on channel=1 note=59 velocity=43 time=4
note_off channel=1 note=62 velocity=64 time=80
note_off channel=1 note=65 velocity=64 time=20
note_off channel=1 note=59 velocity=64 time=16
note_off channel=1 note=43 velocity=64 time=4
control_change channel=1 control=64 value=0 time=212
note_on channel=1 note=67 velocity=77 time=464
note_on channel=1 note=62 velocity=68 time=4
note_on channel=1 note=52 velocity=67 time=4
note_on channel=1 note=58 velocity=42 time=12
note_off channel=1 note=62 velocity=64 time=52
note_off channel=1 note=58 velocity=64 time=0
note_off channel=1 note=52 velocity=64 time=12
note_off channel=1 note=67 velocity=64 time=4
control_change channel=1 control=64 value=0 time=408
note_on channel=1 note=63 velocity=68 time=468
note_on channel=1 note=55 velocity=51 time=8
note_on channel=1 note=67 velocity=66 time=4
note_on channel=1 note=48 velocity=52 time=24
note_off channel=1 note=63 velocity=64 time=72
note_off channel=1 note=67 velocity=64 time=0
note_off channel=1 note=48 velocity=64 time=4
note_off channel=1 note=55 velocity=64 time=0
control_change channel=1 control=64 value=0 time=0
control_change channel=1 control=64 value=0 time=380
note_on channel=1 note=62 velocity=47 time=140
note_on channel=1 note=60 velocity=49 time=4
note_on channel=1 note=41 velocity=41 time=0
note_on channel=1 note=57 velocity=43 time=4
note_off channel=1 note=60 velocity=64 time=80
note_off channel=1 note=62 velocity=64 time=20
note_off channel=1 note=57 velocity=64 time=16
note_off channel=1 note=41 velocity=64 time=4
control_change channel=1 control=64 value=0 time=792
note_on channel=1 note=53 velocity=54 time=12
note_on channel=1 note=56 velocity=52 time=0
note_on channel=1 note=50 velocity=47 time=4
note_on channel=1 note=41 velocity=46 time=4
note_off channel=1 note=53 velocity=64 time=320
note_off channel=1 note=41 velocity=64 time=0
note_off channel=1 note=50 velocity=64 time=0
note_off channel=1 note=56 velocity=64 time=0
control_change channel=1 control=64 value=0 time=40
note_on channel=1 note=60 velocity=68 time=468
note_on channel=1 note=53 velocity=51 time=8
note_on channel=1 note=65 velocity=66 time=4
note_on channel=1 note=41 velocity=52 time=24
note_off channel=1 note=60 velocity=64 time=72
note_off channel=1 note=65 velocity=64 time=0
note_off channel=1 note=41 velocity=64 time=4
note_off channel=1 note=53 velocity=64 time=0
control_change channel=1 control=64 value=0 time=0
note_on channel=1 note=57 velocity=54 time=12
note_on channel=1 note=60 velocity=52 time=0
note_on channel=1 note=54 velocity=47 time=4
note_on channel=1 note=38 velocity=46 time=4
note_off channel=1 note=60 velocity=64 time=580
note_off channel=1 note=54 velocity=64 time=32
note_off channel=1 note=57 velocity=64 time=52
note_off channel=1 note=38 velocity=64 time=64
note_on channel=1 note=49 velocity=62 time=140
note_off channel=1 note=49 velocity=64 time=72
control_change channel=1 control=64 value=0 time=0
note_on channel=1 note=62 velocity=60 time=60
note_on channel=1 note=66 velocity=46 time=0
note_on channel=1 note=60 velocity=52 time=4
note_on channel=1 note=69 velocity=47 time=12
note_off channel=1 note=62 velocity=64 time=100
note_off channel=1 note=69 velocity=64 time=16
note_off channel=1 note=60 velocity=64 time=0
note_off channel=1 note=66 velocity=64 time=0
control_change channel=1 control=64 value=0 time=288
note_on channel=1 note=64 velocity=68 time=368
note_on channel=1 note=57 velocity=51 time=8
note_on channel=1 note=69 velocity=66 time=4
note_on channel=1 note=50 velocity=52 time=24
note_off channel=1 note=64 velocity=64 time=72
note_off channel=1 note=69 velocity=64 time=0
note_off channel=1 note=50 velocity=64 time=4
note_off channel=1 note=57 velocity=64 time=0
control_change channel=1 control=64 value=0 time=0
note_on channel=1 note=69 velocity=77 time=364
note_on channel=1 note=62 velocity=68 time=4
note_on channel=1 note=53 velocity=67 time=4
note_on channel=1 note=59 velocity=42 time=12
note_off channel=1 note=62 velocity=64 time=52
note_off channel=1 note=59 velocity=64 time=0
note_off channel=1 note=53 velocity=64 time=12
note_off channel=1 note=69 velocity=64 time=4
control_change channel=1 control=64 value=0 time=508
note_on channel=1 note=62 velocity=68 time=20
note_on channel=1 note=69 velocity=70 time=16
note_off channel=1 note=62 velocity=64 time=80
note_off channel=1 note=69 velocity=64 time=4
control_change channel=1 control=64 value=0 time=260
note_on channel=1 note=65 velocity=47 time=140
note_on channel=1 note=62 velocity=49 time=4
note_on channel=1 note=43 velocity=41 time=0
note_on channel=1 note=59 velocity=43 time=4
note_off channel=1 note=62 velocity=64 time=80
note_off channel=1 note=65 velocity=64 time=20
note_off channel=1 note=59 velocity=64 time=16
note_off channel=1 note=43 velocity=64 time=4
control_change channel=1 control=64 value=0 time=312
note_on channel=1 note=65 velocity=47 time=40
note_on channel=1 note=62 velocity=49 time=4
note_on channel=1 note=43 velocity=41 time=0
note_on channel=1 note=58 velocity=43 time=4
note_off channel=1 note=62 velocity=64 time=80
note_off channel=1 note=65 velocity=64 time=20
note_off channel=1 note=58 velocity=64 time=16
note_off channel=1 note=43 velocity=64 time=4
control_change channel=1 control=64 value=0 time=792
note_on channel=1 note=62 velocity=68 time=368
note_on channel=1 note=55 velocity=51 time=8
note_on channel=1 note=67 velocity=66 time=4
note_on channel=1 note=48 velocity=52 time=24
note_off channel=1 note=62 velocity=64 time=72
note_off channel=1 note=67 velocity=64 time=0
note_off channel=1 note=48 velocity=64 time=12
note_off channel=1 note=55 velocity=64 time=20
note_on channel=1 note=63 velocity=63 time=20
note_off channel=1 note=63 velocity=64 time=260
control_change channel=1 control=64 value=0 time=72
note_on channel=1 note=72 velocity=74 time=440
note_on channel=1 note=63 velocity=54 time=24
note_on channel=1 note=58 velocity=57 time=0
note_on channel=1 note=70 velocity=59 time=20
note_on channel=1 note=67 velocity=57 time=32
note_off channel=1 note=72 velocity=64 time=1392
note_off channel=1 note=63 velocity=64 time=40
note_off channel=1 note=70 velocity=64 time=20
note_off channel=1 note=58 velocity=64 time=52
note_off channel=1 note=67 velocity=64 time=0
control_change channel=1 control=64 value=0 time=0
note_on channel=1 note=51 velocity=46 time=16
note_on channel=1 note=60 velocity=56 time=4
note_on channel=1 note=57 velocity=46 time=4
note_on channel=1 note=36 velocity=75 time=1276
note_off channel=1 note=51 velocity=64 time=12
note_off channel=1 note=36 velocity=64 time=40
note_off channel=1 note=57 velocity=64 time=332
note_off channel=1 note=60 velocity=64 time=0
control_change channel=1 control=64 value=0 time=136
note_on channel=1 note=62 velocity=47 time=140
note_on channel=1 note=58 velocity=49 time=4
note_on channel=1 note=46 velocity=41 time=0
note_on channel=1 note=57 velocity=43 time=4
note_off channel=1 note=58 velocity=64 time=80
note_off channel=1 note=62 velocity=64 time=20
note_off channel=1 note=57 velocity=64 time=16
note_off channel=1 note=46 velocity=64 time=4
control_change channel=1 control=64 value=0 time=792
note_on channel=1 note=58 velocity=60 time=60
note_on channel=1 note=62 velocity=46 time=0
note_on channel=1 note=55 velocity=52 time=4
note_on channel=1 note=65 velocity=47 time=12
note_off channel=1 note=58 velocity=64 time=100
note_off channel=1 note=65 velocity=64 time=16
note_off channel=1 note=55 velocity=64 time=0
note_off channel=1 note=62 velocity=64 time=0
note_on channel=1 note=46 velocity=76 time=332
note_off channel=1 note=46 velocity=64 time=200
control_change channel=1 control=64 value=0 time=136
note_on channel=1 note=47 velocity=77 time=496
note_off channel=1 note=47 velocity=64 time=44
note_on channel=1 note=62 velocity=95 time=72
note_on channel=1 note=59 velocity=93 time=4
note_off channel=1 note=59 velocity=64 time=216
note_off channel=1 note=62 velocity=64 time=16
control_change channel=1 control=64 value=0 time=212
note_on channel=1 note=71 velocity=74 time=340
note_on channel=1 note=62 velocity=54 time=24
note_on channel=1 note=56 velocity=57 time=0
note_on channel=1 note=68 velocity=59 time=20
note_on channel=1 note=64 velocity=57 time=32
note_off channel=1 note=71 velocity=64 time=544
note_off channel=1 note=64 velocity=64 time=0
note_off channel=1 note=68 velocity=64 time=0
note_off channel=1 note=56 velocity=64 time=0
note_off channel=1 note=62 velocity=64 time=0
control_change channel=1 control=64 value=0 time=0
note_on channel=1 note=48 velocity=46 time=16
note_on channel=1 note=57 velocity=56 time=4
note_on channel=1 note=55 velocity=46 time=4
note_on channel=1 note=40 velocity=75 time=1276
note_off channel=1 note=48 velocity=64 time=12
note_off channel=1 note=40 velocity=64 time=40
note_off channel=1 note=55 velocity=64 time=332
note_off channel=1 note=57 velocity=64 time=0
control_change channel=1 control=64 value=0 time=236
note_on channel=1 note=76 velocity=74 time=340
note_on channel=1 note=66 velocity=54 time=24
note_on channel=1 note=60 velocity=57 time=0
note_on channel=1 note=72 velocity=59 time=20
note_on channel=1 note=70 velocity=57 time=32
note_off channel=1 note=66 velocity=64 time=1364
note_off channel=1 note=70 velocity=64 time=0
note_off channel=1 note=72 velocity=64 time=0
note_off channel=1 note=60 velocity=64 time=0
note_off channel=1 note=76 velocity=64 time=28
control_change channel=1 control=64 value=0 time=12
note_on channel=1 note=67 velocity=46 time=160
note_on channel=1 note=62 velocity=52 time=4
note_on channel=1 note=70 velocity=47 time=12
note_off channel=1 note=67 velocity=64 time=100
note_off channel=1 note=70 velocity=64 time=16
note_off channel=1 note=62 velocity=64 time=0
note_on channel=1 note=43 velocity=76 time=332
note_off channel=1 note=43 velocity=64 time=200
control_change channel=1 control=64 value=0 time=236
note_on channel=1 note=70 velocity=77 time=364
note_on channel=1 note=67 velocity=68 time=4
note_on channel=1 note=55 velocity=67 time=4
note_on channel=1 note=62 velocity=42 time=12
note_off channel=1 note=67 velocity=64 time=52
note_off channel=1 note=62 velocity=64 time=0
note_off channel=1 note=55 velocity=64 time=12
note_off channel=1 note=70 velocity=64 time=4
control_change channel=1 control=64 value=0 time=508
note_on channel=1 note=74 velocity=74 time=340
note_on channel=1 note=65 velocity=54 time=24
note_on channel=1 note=58 velocity=57 time=0
note_on channel=1 note=70 velocity=59 time=20
note_on channel=1 note=67 velocity=57 time=32
note_off channel=1 note=74 velocity=64 time=544
note_off channel=1 note=67 velocity=64 time=0
note_off channel=1 note=70 velocity=64 time=0
note_off channel=1 note=58 velocity=64 time=0
note_off channel=1 note=65 velocity=64 time=0
control_change channel=1 control=64 value=0 time=0
note_on channel=1 note=62 velocity=58 time=20
note_on channel=1 note=53 velocity=50 time=4
note_on channel=1 note=58 velocity=56 time=4
note_on channel=1 note=67 velocity=61 time=4
note_off channel=1 note=62 velocity=64 time=124
note_off channel=1 note=53 velocity=64 time=16
note_off channel=1 note=58 velocity=64 time=0
note_off channel=1 note=67 velocity=64 time=20
control_change channel=1 control=64 value=0 time=288
control_change channel=1 control=64 value=0 time=380
note_on channel=1 note=57 velocity=58 time=20
note_on channel=1 note=48 velocity=50 time=4
note_on channel=1 note=55 velocity=56 time=4
note_on channel=1 note=64 velocity=61 time=4
note_off channel=1 note=57 velocity=64 time=216
note_off channel=1 note=48 velocity=64 time=16
note_off channel=1 note=55 velocity=64 time=0
note_off channel=1 note=64 velocity=64 time=20
note_on channel=1 note=53 velocity=42 time=1200
note_off channel=1 note=53 velocity=64 time=40
note_on channel=1 note=69 velocity=84 time=36
note_on channel=1 note=55 velocity=56 time=4
note_on channel=1 note=60 velocity=51 time=8
note_on channel=1 note=64 velocity=62 time=0
note_off channel=1 note=60 velocity=64 time=184
note_off channel=1 note=64 velocity=64 time=124
note_off channel=1 note=69 velocity=64 time=0
note_off channel=1 note=55 velocity=64 time=0
control_change channel=1 control=64 value=0 time=40
note_on channel=1 note=51 velocity=54 time=12
note_on channel=1 note=55 velocity=52 time=0
note_on channel=1 note=49 velocity=47 time=4
note_on channel=1 note=39 velocity=46 time=4
note_off channel=1 note=55 velocity=64 time=672
note_off channel=1 note=49 velocity=64 time=32
note_off channel=1 note=51 velocity=64 time=52
note_off channel=1 note=39 velocity=64 time=64
note_on channel=1 note=38 velocity=62 time=148
note_off channel=1 note=38 velocity=64 time=72
control_change channel=1 control=64 value=0 time=0
control_change channel=1 control=11 value=109 time=0
note_on channel=1 note=64 velocity=68 time=20
note_on channel=1 note=69 velocity=70 time=16
note_off channel=1 note=64 velocity=64 time=80
note_off channel=1 note=69 velocity=64 time=4
control_change channel=1 control=11 value=106 time=0
control_change channel=1 control=11 value=104 time=120
control_change channel=1 control=11 value=101 time=120
control_change channel=1 control=11 value=99 time=120
control_change channel=1 control=64 value=0 time=0
note_on channel=1 note=58 velocity=54 time=12
note_on channel=1 note=60 velocity=52 time=0
note_on channel=1 note=54 velocity=47 time=4
note_on channel=1 note=44 velocity=46 time=4
control_change channel=1 control=11 value=96 time=100
control_change channel=1 control=11 value=94 time=120
control_change channel=1 control=11 value=91 time=120
note_off channel=1 note=58 velocity=64 time=120
note_off channel=1 note=44 velocity=64 time=0
note_off channel=1 note=54 velocity=64 time=0
note_off channel=1 note=60 velocity=64 time=0
control_change channel=1 control=64 value=0 time=0
control_change channel=1 control=11 value=89 time=0
note_on channel=1 note=74 velocity=74 time=340
note_on channel=1 note=65 velocity=54 time=24
note_on channel=1 note=59 velocity=57 time=0
note_on channel=1 note=71 velocity=59 time=20
note_on channel=1 note=69 velocity=57 time=32
note_off channel=1 note=74 velocity=64 time=404
note_off channel=1 note=69 velocity=64 time=0
note_off channel=1 note=71 velocity=64 time=0
note_off channel=1 note=59 velocity=64 time=0
note_off channel=1 note=65 velocity=64 time=0
control_change channel=1 control=64 value=0 time=40
note_on channel=1 note=62 velocity=68 time=20
note_on channel=1 note=69 velocity=70 time=16
note_off channel=1 note=62 velocity=64 time=172
note_off channel=1 note=69 velocity=64 time=4
control_change channel=1 control=64 value=0 time=848
note_on channel=1 note=64 velocity=47 time=40
note_on channel=1 note=60 velocity=49 time=4
note_on channel=1 note=48 velocity=41 time=0
note_on channel=1 note=58 velocity=43 time=4
note_off channel=1 note=60 velocity=64 time=80
note_off channel=1 note=64 velocity=64 time=20
note_off channel=1 note=58 velocity=64 time=16
note_off channel=1 note=48 velocity=64 time=4
control_change channel=1 control=64 value=0 time=792
note_on channel=1 note=67 velocity=77 time=364
note_on channel=1 note=62 velocity=68 time=4
note_on channel=1 note=52 velocity=67 time=4
note_on channel=1 note=58 velocity=42 time=12
note_off channel=1 note=62 velocity=64 time=52
note_off channel=1 note=58 velocity=64 time=0
note_off channel=1 note=52 velocity=64 time=12
note_off channel=1 note=67 velocity=64 time=4
control_change channel=1 control=64 value=0 time=508
note_on channel=1 note=41 velocity=77 time=396
note_off channel=1 note=41 velocity=64 time=44
note_on channel=1 note=64 velocity=95 time=72
note_on channel=1 note=60 velocity=93 time=4
note_off channel=1 note=60 velocity=64 time=216
note_off channel=1 note=64 velocity=64 time=16
note_on channel=1 note=67 velocity=69 time=256
note_on channel=1 note=57 velocity=60 time=4
note_off channel=1 note=67 velocity=64 time=272
note_off channel=1 note=57 velocity=64 time=0
note_on channel=1 note=36 velocity=78 time=72
note_off channel=1 note=36 velocity=64 time=92
note_on channel=1 note=57 velocity=56 time=32
note_on channel=1 note=64 velocity=71 time=0
note_off channel=1 note=57 velocity=64 time=184
note_off channel=1 note=64 velocity=64 time=4
control_change channel=1 control=64 value=0 time=256
note_on channel=1 note=62 velocity=58 time=20
note_on channel=1 note=54 velocity=50 time=4
note_on channel=1 note=60 velocity=56 time=4
note_on channel=1 note=69 velocity=61 time=4
note_off channel=1 note=62 velocity=64 time=124
note_off channel=1 note=54 velocity=64 time=16
note_off channel=1 note=60 velocity=64 time=0
note_off channel=1 note=69 velocity=64 time=20
control_change channel=1 control=64 value=0 time=668
note_on channel=1 note=64 velocity=58 time=20
note_on channel=1 note=54 velocity=50 time=4
note_on channel=1 note=60 velocity=56 time=4
note_on channel=1 note=69 velocity=61 time=4
note_off channel=1 note=64 velocity=64 time=216
note_off channel=1 note=54 velocity=64 time=16
note_off channel=1 note=60 velocity=64 time=0
note_off channel=1 note=69 velocity=64 time=20
control_change channel=1 control=64 value=0 time=676
note_on channel=1 note=69 velocity=77 time=464
note_on channel=1 note=62 velocity=68 time=4
note_on channel=1 note=53 velocity=67 time=4
note_on channel=1 note=59 velocity=42 time=12
note_off channel=1 note=62 velocity=64 time=52
note_off channel=1 note=59 velocity=64 time=0
note_off channel=1 note=53 velocity=64 time=12
note_off channel=1 note=69 velocity=64 time=4
control_change channel=1 control=64 value=0 time=408
note_on channel=1 note=43 velocity=77 time=496
note_off channel=1 note=43 velocity=64 time=44
note_on channel=1 note=65 velocity=95 time=72
note_on channel=1 note=62 velocity=93 time=4
note_off channel=1 note=62 velocity=64 time=216
note_off channel=1 note=65 velocity=64 time=16
control_change channel=1 control=64 value=0 time=112
note_on channel=1 note=60 velocity=68 time=20
note_on channel=1 note=68 velocity=70 time=16
note_off channel=1 note=60 velocity=64 time=172
note_off channel=1 note=68 velocity=64 time=4
control_change channel=1 control=64 value=0 time=748
note_on channel=1 note=67 velocity=77 time=464
note_on channel=1 note=62 velocity=68 time=4
note_on channel=1 note=52 velocity=67 time=4
note_on channel=1 note=58 velocity=42 time=12
note_off channel=1 note=62 velocity=64 time=52
note_off channel=1 note=58 velocity=64 time=0
note_off channel=1 note=52 velocity=64 time=12
note_off channel=1 note=67 velocity=64 time=4
control_change channel=1 control=64 value=0 time=508
control_change channel=1 control=11 value=89 time=0
control_change channel=1 control=11 value=90 time=240
note_on channel=1 note=67 velocity=77 time=124
note_on channel=1 note=60 velocity=68 time=4
note_on channel=1 note=51 velocity=67 time=4
note_on channel=1 note=58 velocity=42 time=12
note_off channel=1 note=60 velocity=64 time=52
note_off channel=1 note=58 velocity=64 time=0
note_off channel=1 note=51 velocity=64 time=12
note_off channel=1 note=67 velocity=64 time=4
control_change channel=1 control=11 value=91 time=28
control_change channel=1 control=11 value=93 time=240
control_change channel=1 control=11 value=94 time=240
note_on channel=1 note=60 velocity=61 time=16
note_on channel=1 note=58 velocity=61 time=12
note_on channel=1 note=67 velocity=59 time=0
note_on channel=1 note=51 velocity=59 time=4
note_off channel=1 note=51 velocity=64 time=60
note_off channel=1 note=60 velocity=64 time=20
note_off channel=1 note=58 velocity=64 time=4
note_off channel=1 note=67 velocity=64 time=8
control_change channel=1 control=11 value=95 time=116
control_change channel=1 control=11 value=96 time=240
control_change channel=1 control=11 value=98 time=240
control_change channel=1 control=11 value=99 time=240
control_change channel=1 control=64 value=0 time=0
note_on channel=1 note=63 velocity=47 time=40
note_on channel=1 note=60 velocity=49 time=4
note_on channel=1 note=41 velocity=41 time=0
note_on channel=1 note=57 velocity=43 time=4
note_off channel=1 note=60 velocity=64 time=80
note_off channel=1 note=63 velocity=64 time=20
note_off channel=1 note=57 velocity=64 time=16
note_off channel=1 note=41 velocity=64 time=4
control_change channel=1 control=11 value=100 time=72
control_change channel=1 control=64 value=0 time=140
control_change channel=1 control=11 value=101 time=100
note_on channel=1 note=63 velocity=47 time=40
note_on channel=1 note=60 velocity=49 time=4
note_on channel=1 note=48 velocity=41 time=0
note_on channel=1 note=58 velocity=43 time=4
note_off channel=1 note=60 velocity=64 time=80
note_off channel=1 note=63 velocity=64 time=20
note_off channel=1 note=58 velocity=64 time=16
note_off channel=1 note=48 velocity=64 time=4
control_change channel=1 control=11 value=103 time=72
control_change channel=1 control=11 value=104 time=240
control_change channel=1 control=64 value=0 time=0
note_on channel=1 note=60 velocity=58 time=20
note_on channel=1 note=51 velocity=50 time=4
note_on channel=1 note=57 velocity=56 time=4
note_on channel=1 note=67 velocity=61 time=4
note_off channel=1 note=60 velocity=64 time=124
note_off channel=1 note=51 velocity=64 time=16
note_off channel=1 note=57 velocity=64 time=0
note_off channel=1 note=67 velocity=64 time=20
control_change channel=1 control=11 value=105 time=48
control_change channel=1 control=11 value=106 time=240
control_change channel=1 control=11 value=108 time=240
control_change channel=1 control=64 value=0 time=140
note_on channel=1 note=65 velocity=60 time=20
note_on channel=1 note=62 velocity=65 time=16
control_change channel=1 control=11 value=109 time=64
note_on channel=1 note=55 velocity=64 time=40
note_on channel=1 note=46 velocity=44 time=12
note_off channel=1 note=62 velocity=64 time=1708
note_off channel=1 note=46 velocity=64 time=8
note_off channel=1 note=55 velocity=64 time=0
note_off channel=1 note=65 velocity=64 time=8
control_change channel=1 control=64 value=0 time=44
note_on channel=1 note=58 velocity=58 time=20
note_on channel=1 note=49 velocity=50 time=4
note_on channel=1 note=56 velocity=56 time=4
note_on channel=1 note=65 velocity=61 time=4
note_off channel=1 note=58 velocity=64 time=216
note_off channel=1 note=49 velocity=64 time=16
note_off channel=1 note=56 velocity=64 time=0
note_off channel=1 note=65 velocity=64 time=20
control_change channel=1 control=64 value=0 time=776
note_on channel=1 note=51 velocity=54 time=12
note_on channel=1 note=55 velocity=52 time=0
note_on channel=1 note=49 velocity=47 time=4
note_on channel=1 note=39 velocity=46 time=4
note_off channel=1 note=55 velocity=64 time=580
note_off channel=1 note=49 velocity=64 time=32
note_off channel=1 note=51 velocity=64 time=52
note_off channel=1 note=39 velocity=64 time=64
note_on channel=1 note=38 velocity=62 time=140
note_off channel=1 note=38 velocity=64 time=72
control_change channel=1 control=64 value=0 time=0
note_on channel=1 note=72 velocity=74 time=340
note_on channel=1 note=62 velocity=54 time=24
note_on channel=1 note=57 velocity=57 time=0
note_on channel=1 note=69 velocity=59 time=20
note_on channel=1 note=65 velocity=57 time=32
note_off channel=1 note=72 velocity=64 time=404
note_off channel=1 note=65 velocity=64 time=0
note_off channel=1 note=69 velocity=64 time=0
note_off channel=1 note=57 velocity=64 time=0
note_off channel=1 note=62 velocity=64 time=0
control_change channel=1 control=64 value=0 time=40
note_on channel=1 note=60 velocity=58 time=20
note_on channel=1 note=50 velocity=50 time=4
note_on channel=1 note=57 velocity=56 time=4
note_on channel=1 note=65 velocity=61 time=4
note_off channel=1 note=60 velocity=64 time=216
note_off channel=1 note=50 velocity=64 time=16
note_off channel=1 note=57 velocity=64 time=0
note_off channel=1 note=65 velocity=64 time=20
control_change channel=1 control=64 value=0 time=296
note_on channel=1 note=60 velocity=58 time=20
note_on channel=1 note=52 velocity=50 time=4
note_on channel=1 note=57 velocity=56 time=4
note_on channel=1 note=67 velocity=61 time=4
note_off channel=1 note=60 velocity=64 time=124
note_off channel=1 note=52 velocity=64 time=16
note_off channel=1 note=57 velocity=64 time=0
note_off channel=1 note=67 velocity=64 time=20
control_change channel=1 control=64 value=0 time=288
note_on channel=1 note=57 velocity=68 time=368
note_on channel=1 note=52 velocity=51 time=8
note_on channel=1 note=64 velocity=66 time=4
note_on channel=1 note=45 velocity=52 time=24
note_off channel=1 note=57 velocity=64 time=72
note_off channel=1 note=64 velocity=64 time=0
note_off channel=1 note=45 velocity=64 time=12
note_off channel=1 note=52 velocity=64 time=20
note_on channel=1 note=60 velocity=63 time=20
note_off channel=1 note=60 velocity=64 time=260
control_change channel=1 control=64 value=0 time=72
note_on channel=1 note=62 velocity=68 time=468
note_on channel=1 note=58 velocity=51 time=8
note_on channel=1 note=70 velocity=66 time=4
note_on channel=1 note=50 velocity=52 time=24
note_off channel=1 note=62 velocity=64 time=72
note_off channel=1 note=70 velocity=64 time=0
note_off channel=1 note=50 velocity=64 time=12
note_off channel=1 note=58 velocity=64 time=20
note_on channel=1 note=65 velocity=63 time=20
note_off channel=1 note=65 velocity=64 time=260
note_on channel=1 note=58 velocity=55 time=96
note_off channel=1 note=58 velocity=64 time=76
control_change channel=1 control=64 value=0 time=0
note_on channel=1 note=75 velocity=74 time=340
note_on channel=1 note=65 velocity=54 time=24
note_on channel=1 note=59 velocity=57 time=0
note_on channel=1 note=71 velocity=59 time=20
note_on channel=1 note=67 velocity=57 time=32
note_off channel=1 note=75 velocity=64 time=544
note_off channel=1 note=67 velocity=64 time=0
note_off channel=1 note=71 velocity=64 time=0
note_off channel=1 note=59 velocity=64 time=0
note_off channel=1 note=65 velocity=64 time=0
control_change channel=1 control=64 value=0 time=0
note_on channel=1 note=43 velocity=77 time=396
note_off channel=1 note=43 velocity=64 time=44
note_on channel=1 note=65 velocity=95 time=72
note_on channel=1 note=62 velocity=93 time=4
note_off channel=1 note=62 velocity=64 time=216
note_off channel=1 note=65 velocity=64 time=16
control_change channel=1 control=64 value=0 time=212
note_on channel=1 note=72 velocity=74 time=340
note_on channel=1 note=64 velocity=54 time=24
note_on channel=1 note=58 velocity=57 time=0
note_on channel=1 note=70 velocity=59 time=20
note_on channel=1 note=68 velocity=57 time=32
note_off channel=1 note=72 velocity=64 time=544
note_off channel=1 note=68 velocity=64 time=0
note_off channel=1 note=70 velocity=64 time=0
note_off channel=1 note=58 velocity=64 time=0
note_off channel=1 note=64 velocity=64 time=0
control_change channel=1 control=64 value=0 time=0
note_on channel=1 note=72 velocity=74 time=340
note_on channel=1 note=64 velocity=54 time=24
note_on channel=1 note=58 velocity=57 time=0
note_on channel=1 note=70 velocity=59 time=20
note_on channel=1 note=67 velocity=57 time=32
note_off channel=1 note=72 velocity=64 time=544
note_off channel=1 note=67 velocity=64 time=0
note_off channel=1 note=70 velocity=64 time=0
note_off channel=1 note=58 velocity=64 time=0
note_off channel=1 note=64 velocity=64 time=0
control_change channel=1 control=64 value=0 time=0
note_on channel=1 note=53 velocity=54 time=12
note_on channel=1 note=57 velocity=52 time=0
note_on channel=1 note=51 velocity=47 time=4
note_on channel=1 note=41 velocity=46 time=4
note_off channel=1 note=57 velocity=64 time=580
note_off channel=1 note=51 velocity=64 time=32
note_off channel=1 note=53 velocity=64 time=52
note_off channel=1 note=41 velocity=64 time=64
note_on channel=1 note=40 velocity=62 time=140
note_off channel=1 note=40 velocity=64 time=72
control_change channel=1 control=64 value=0 time=0
note_on channel=1 note=60 velocity=58 time=20
note_on channel=1 note=52 velocity=50 time=4
note_on channel=1 note=57 velocity=56 time=4
note_on channel=1 note=67 velocity=61 time=4
note_off channel=1 note=60 velocity=64 time=124
note_off channel=1 note=52 velocity=64 time=16
note_off channel=1 note=57 velocity=64 time=0
note_off channel=1 note=67 velocity=64 time=20
control_change channel=1 control=64 value=0 time=288
note_on channel=1 note=60 velocity=60 time=60
note_on channel=1 note=62 velocity=46 time=0
note_on channel=1 note=57 velocity=52 time=4
note_on channel=1 note=65 velocity=47 time=12
note_off channel=1 note=60 velocity=64 time=100
note_off channel=1 note=65 velocity=64 time=16
note_off channel=1 note=57 velocity=64 time=0
note_off channel=1 note=62 velocity=64 time=0
control_change channel=1 control=64 value=0 time=188
note_on channel=1 note=62 velocity=60 time=160
note_on channel=1 note=66 velocity=46 time=0
note_on channel=1 note=60 velocity=52 time=4
note_on channel=1 note=69 velocity=47 time=12
note_off channel=1 note=62 velocity=64 time=100
note_off channel=1 note=69 velocity=64 time=16
note_off channel=1 note=60 velocity=64 time=0
note_off channel=1 note=66 velocity=64 time=0
note_on channel=1 note=50 velocity=76 time=332
note_off channel=1 note=50 velocity=64 time=200
control_change channel=1 control=64 value=0 time=236
note_on channel=1 note=64 velocity=60 time=60
note_on channel=1 note=66 velocity=46 time=0
note_on channel=1 note=60 velocity=52 time=4
note_on channel=1 note=69 velocity=47 time=12
note_off channel=1 note=64 velocity=64 time=100
note_off channel=1 note=69 velocity=64 time=16
note_off channel=1 note=60 velocity=64 time=0
note_off channel=1 note=66 velocity=64 time=0
note_on channel=1 note=50 velocity=76 time=332
note_off channel=1 note=50 velocity=64 time=200
control_change channel=1 control=64 value=0 time=136
note_on channel=1 note=63 velocity=68 time=20
note_on channel=1 note=67 velocity=70 time=16
control_change channel=1 control=64 value=0 time=64
note_off channel=1 note=63 velocity=64 time=108
note_off channel=1 note=67 velocity=64 time=4
note_on channel=1 note=80 velocity=81 time=243
note_on channel=1 note=75 velocity=81 time=0
note_off channel=1 note=80 velocity=50 time=588
note_off channel=1 note=75 velocity=50 time=0
control_change channel=1 control=64 value=0 time=17
note_on channel=1 note=57 velocity=50 time=12
note_on channel=1 note=59 velocity=50 time=0
note_on channel=1 note=53 velocity=50 time=4
note_on channel=1 note=43 velocity=50 time=4
note_on channel=1 note=81 velocity=81 time=6
note_on channel=1 note=76 velocity=81 time=0
note_off channel=1 note=81 velocity=53 time=142
note_off channel=1 note=76 velocity=53 time=0
note_on channel=1 note=74 velocity=81 time=314
note_off channel=1 note=59 velocity=64 time=118
note_off channel=1 note=53 velocity=64 time=32
note_off channel=1 note=74 velocity=52 time=16
note_off channel=1 note=57 velocity=64 time=36
note_off channel=1 note=43 velocity=64 time=64
control_change channel=1 control=64 value=0 time=112
note_on channel=1 note=80 velocity=81 time=109
note_on channel=1 note=75 velocity=81 time=0
note_on channel=1 note=72 velocity=50 time=331
note_on channel=1 note=64 velocity=50 time=24
note_on channel=1 note=58 velocity=50 time=0
note_on channel=1 note=70 velocity=50 time=20
note_on channel=1 note=68 velocity=50 time=32
note_off channel=1 note=80 velocity=44 time=409
note_off channel=1 note=75 velocity=44 time=0
note_on channel=1 note=81 velocity=81 time=29
note_on channel=1 note=76 velocity=81 time=0
note_off channel=1 note=70 velocity=64 time=106
note_off channel=1 note=68 velocity=64 time=0
note_off channel=1 note=64 velocity=64 time=0
note_off channel=1 note=58 velocity=64 time=0
note_off channel=1 note=72 velocity=64 time=0
control_change channel=1 control=64 value=0 time=0
control_change channel=1 control=64 value=0 time=340
note_off channel=1 note=76 velocity=75 time=159
note_off channel=1 note=81 velocity=75 time=0
note_on channel=1 note=74 velocity=81 time=26
note_off channel=1 note=74 velocity=65 time=260
note_on channel=1 note=77 velocity=81 time=33
note_off channel=1 note=77 velocity=61 time=108
control_change channel=1 control=64 value=0 time=34
control_change channel=1 control=11 value=96 time=0
note_on channel=1 note=68 velocity=75 time=2720
note_on channel=1 note=63 velocity=75 time=0
note_on channel=1 note=57 velocity=75 time=0
note_on channel=1 note=48 velocity=75 time=0
note_on channel=1 note=41 velocity=75 time=0
note_off channel=1 note=68 velocity=64 time=3976
note_off channel=1 note=41 velocity=64 time=0
note_off channel=1 note=48 velocity=64 time=0
note_off channel=1 note=57 velocity=64 time=0
note_off channel=1 note=63 velocity=64 time=0
<meta message end_of_track time=0>
<meta message text text='Alto Sax 1' time=0>
control_change channel=2 control=11 value=127 time=0
control_change channel=2 control=7 value=106 time=0
control_change channel=2 control=10 value=77 time=0
control_change channel=2 control=91 value=94 time=0
control_change channel=2 control=93 value=30 time=0
control_change channel=2 control=0 value=56 time=0
control_change channel=2 control=32 value=0 time=0
program_change channel=2 program=65 time=0
note_on channel=2 note=68 velocity=69 time=9920
note_off channel=2 note=68 velocity=64 time=604
note_on channel=2 note=69 velocity=70 time=36
note_off channel=2 note=69 velocity=64 time=192
note_on channel=2 note=62 velocity=72 time=288
note_off channel=2 note=62 velocity=64 time=192
note_on channel=2 note=68 velocity=74 time=288
note_off channel=2 note=68 velocity=64 time=788
note_on channel=2 note=69 velocity=76 time=12
note_off channel=2 note=69 velocity=64 time=1120
note_on channel=2 note=68 velocity=81 time=320
note_off channel=2 note=68 velocity=64 time=592
note_on channel=2 note=69 velocity=84 time=48
note_off channel=2 note=69 velocity=64 time=180
note_on channel=2 note=62 velocity=85 time=300
note_off channel=2 note=62 velocity=64 time=180
note_on channel=2 note=68 velocity=88 time=300
note_off channel=2 note=68 velocity=64 time=788
note_on channel=2 note=69 velocity=90 time=12
note_off channel=2 note=69 velocity=64 time=604
note_on channel=2 note=62 velocity=93 time=36
note_off channel=2 note=62 velocity=64 time=284
note_on channel=2 note=65 velocity=93 time=36
note_off channel=2 note=65 velocity=64 time=136
control_change channel=2 control=93 value=60 time=34584
note_on channel=2 note=62 velocity=62 time=320
note_off channel=2 note=62 velocity=64 time=148
note_on channel=2 note=68 velocity=75 time=12
note_off channel=2 note=68 velocity=64 time=156
note_on channel=2 note=69 velocity=69 time=324
note_off channel=2 note=69 velocity=64 time=308
note_on channel=2 note=62 velocity=69 time=12
note_off channel=2 note=62 velocity=64 time=112
note_on channel=2 note=68 velocity=76 time=368
note_off channel=2 note=68 velocity=64 time=468
note_on channel=2 note=69 velocity=69 time=12
note_off channel=2 note=69 velocity=64 time=160
note_on channel=2 note=68 velocity=56 time=0
note_on channel=2 note=69 velocity=44 time=160
note_off channel=2 note=68 velocity=64 time=24
note_on channel=2 note=68 velocity=62 time=136
note_off channel=2 note=69 velocity=64 time=24
note_on channel=2 note=69 velocity=69 time=136
note_off channel=2 note=68 velocity=64 time=24
note_off channel=2 note=69 velocity=64 time=284
note_on channel=2 note=62 velocity=69 time=12
note_off channel=2 note=62 velocity=64 time=148
note_on channel=2 note=62 velocity=62 time=812
note_off channel=2 note=62 velocity=64 time=148
note_on channel=2 note=68 velocity=75 time=12
note_off channel=2 note=68 velocity=64 time=156
note_on channel=2 note=69 velocity=69 time=324
note_off channel=2 note=69 velocity=64 time=308
note_on channel=2 note=62 velocity=69 time=12
note_off channel=2 note=62 velocity=64 time=112
note_on channel=2 note=68 velocity=76 time=368
note_off channel=2 note=68 velocity=64 time=468
note_on channel=2 note=69 velocity=69 time=12
note_off channel=2 note=69 velocity=64 time=160
note_on channel=2 note=68 velocity=56 time=0
note_on channel=2 note=69 velocity=44 time=160
note_off channel=2 note=68 velocity=64 time=24
note_on channel=2 note=68 velocity=62 time=136
note_off channel=2 note=69 velocity=64 time=24
note_on channel=2 note=69 velocity=69 time=136
note_off channel=2 note=68 velocity=64 time=24
note_off channel=2 note=69 velocity=64 time=284
note_on channel=2 note=62 velocity=69 time=12
note_off channel=2 note=62 velocity=64 time=148
note_on channel=2 note=62 velocity=62 time=812
note_off channel=2 note=62 velocity=64 time=148
note_on channel=2 note=68 velocity=75 time=12
note_off channel=2 note=68 velocity=64 time=156
note_on channel=2 note=69 velocity=69 time=324
note_off channel=2 note=69 velocity=64 time=308
note_on channel=2 note=62 velocity=69 time=12
note_off channel=2 note=62 velocity=64 time=112
note_on channel=2 note=68 velocity=75 time=368
note_off channel=2 note=68 velocity=64 time=468
note_on channel=2 note=69 velocity=69 time=12
note_off channel=2 note=69 velocity=64 time=160
note_on channel=2 note=68 velocity=56 time=0
note_on channel=2 note=69 velocity=44 time=160
note_off channel=2 note=68 velocity=64 time=24
note_on channel=2 note=68 velocity=62 time=136
note_off channel=2 note=69 velocity=64 time=24
note_on channel=2 note=69 velocity=69 time=136
note_off channel=2 note=68 velocity=64 time=24
note_off channel=2 note=69 velocity=64 time=284
note_on channel=2 note=60 velocity=56 time=12
note_off channel=2 note=60 velocity=64 time=160
note_on channel=2 note=62 velocity=65 time=0
note_off channel=2 note=62 velocity=64 time=320
note_on channel=2 note=67 velocity=69 time=0
control_change channel=2 control=11 value=127 time=232
control_change channel=2 control=11 value=121 time=24
control_change channel=2 control=11 value=115 time=24
control_change channel=2 control=11 value=109 time=24
control_change channel=2 control=11 value=103 time=24
control_change channel=2 control=11 value=96 time=24
control_change channel=2 control=11 value=90 time=24
control_change channel=2 control=11 value=84 time=24
control_change channel=2 control=11 value=84 time=0
control_change channel=2 control=11 value=85 time=120
control_change channel=2 control=11 value=86 time=120
control_change channel=2 control=11 value=88 time=120
control_change channel=2 control=11 value=89 time=120
control_change channel=2 control=11 value=91 time=120
control_change channel=2 control=11 value=93 time=120
control_change channel=2 control=11 value=94 time=120
control_change channel=2 control=11 value=95 time=120
control_change channel=2 control=11 value=96 time=120
control_change channel=2 control=11 value=99 time=120
control_change channel=2 control=11 value=100 time=120
control_change channel=2 control=11 value=101 time=120
control_change channel=2 control=11 value=103 time=120
control_change channel=2 control=11 value=105 time=120
control_change channel=2 control=11 value=104 time=288
control_change channel=2 control=11 value=103 time=264
control_change channel=2 control=11 value=101 time=264
control_change channel=2 control=11 value=100 time=288
control_change channel=2 control=11 value=99 time=264
control_change channel=2 control=11 value=98 time=264
note_off channel=2 note=67 velocity=64 time=216
control_change channel=2 control=11 value=96 time=48
control_change channel=2 control=11 value=127 time=24
control_change channel=2 control=93 value=30 time=0
note_on channel=2 note=58 velocity=69 time=3200
note_off channel=2 note=58 velocity=64 time=160
note_on channel=2 note=61 velocity=81 time=0
note_off channel=2 note=61 velocity=64 time=314
note_on channel=2 note=61 velocity=75 time=6
note_off channel=2 note=61 velocity=64 time=142
note_on channel=2 note=60 velocity=81 time=6
note_off channel=2 note=60 velocity=64 time=132
control_change channel=2 control=93 value=60 time=3720
note_on channel=2 note=62 velocity=62 time=320
note_off channel=2 note=62 velocity=64 time=136
note_on channel=2 note=68 velocity=75 time=24
note_off channel=2 note=68 velocity=64 time=156
note_on channel=2 note=69 velocity=69 time=324
note_off channel=2 note=69 velocity=64 time=308
note_on channel=2 note=62 velocity=69 time=12
note_off channel=2 note=62 velocity=64 time=136
note_on channel=2 note=63 velocity=75 time=344
control_change channel=2 control=11 value=127 time=160
pitchwheel channel=2 pitch=-1 time=9
control_change channel=2 control=11 value=123 time=3
control_change channel=2 control=11 value=119 time=12
pitchwheel channel=2 pitch=-130 time=0
control_change channel=2 control=11 value=114 time=12
control_change channel=2 control=11 value=110 time=12
pitchwheel channel=2 pitch=-323 time=7
control_change channel=2 control=11 value=105 time=5
control_change channel=2 control=11 value=101 time=12
pitchwheel channel=2 pitch=-517 time=0
control_change channel=2 control=11 value=98 time=12
control_change channel=2 control=11 value=93 time=12
control_change channel=2 control=11 value=89 time=12
control_change channel=2 control=11 value=84 time=12
control_change channel=2 control=11 value=84 time=0
pitchwheel channel=2 pitch=-646 time=60
control_change channel=2 control=11 value=88 time=36
pitchwheel channel=2 pitch=-839 time=24
control_change channel=2 control=11 value=91 time=60
control_change channel=2 control=11 value=94 time=60
pitchwheel channel=2 pitch=-646 time=81
control_change channel=2 control=11 value=98 time=15
pitchwheel channel=2 pitch=-517 time=16
pitchwheel channel=2 pitch=-323 time=60
control_change channel=2 control=11 value=101 time=8
pitchwheel channel=2 pitch=-130 time=57
control_change channel=2 control=11 value=104 time=3
pitchwheel channel=2 pitch=-1 time=43
control_change channel=2 control=11 value=108 time=41
pitchwheel channel=2 pitch=0 time=67
control_change channel=2 control=11 value=111 time=29
control_change channel=2 control=11 value=114 time=60
control_change channel=2 control=11 value=118 time=84
control_change channel=2 control=11 value=121 time=96
control_change channel=2 control=11 value=124 time=60
control_change channel=2 control=11 value=127 time=48
note_off channel=2 note=63 velocity=64 time=116
note_on channel=2 note=60 velocity=56 time=36
note_off channel=2 note=60 velocity=64 time=160
note_on channel=2 note=64 velocity=65 time=0
note_off channel=2 note=64 velocity=64 time=308
note_on channel=2 note=65 velocity=69 time=12
note_off channel=2 note=65 velocity=64 time=124
note_on channel=2 note=62 velocity=44 time=916
note_on channel=2 note=61 velocity=55 time=40
note_on channel=2 note=60 velocity=69 time=40
note_off channel=2 note=62 velocity=64 time=8
note_off channel=2 note=61 velocity=64 time=28
note_off channel=2 note=60 velocity=64 time=284
note_on channel=2 note=62 velocity=62 time=0
note_off channel=2 note=62 velocity=64 time=160
note_on channel=2 note=65 velocity=71 time=0
note_off channel=2 note=65 velocity=64 time=320
note_on channel=2 note=68 velocity=74 time=0
pitchwheel channel=2 pitch=-1 time=74
pitchwheel channel=2 pitch=-130 time=14
pitchwheel channel=2 pitch=-388 time=14
pitchwheel channel=2 pitch=-775 time=17
pitchwheel channel=2 pitch=-1033 time=15
pitchwheel channel=2 pitch=-1162 time=16
pitchwheel channel=2 pitch=-1355 time=15
pitchwheel channel=2 pitch=-1549 time=31
pitchwheel channel=2 pitch=-1355 time=108
pitchwheel channel=2 pitch=-1162 time=46
pitchwheel channel=2 pitch=-904 time=31
pitchwheel channel=2 pitch=-775 time=31
pitchwheel channel=2 pitch=-581 time=17
pitchwheel channel=2 pitch=-388 time=14
pitchwheel channel=2 pitch=-130 time=31
pitchwheel channel=2 pitch=-1 time=15
pitchwheel channel=2 pitch=0 time=31
note_off channel=2 note=68 velocity=64 time=108
note_on channel=2 note=65 velocity=75 time=12
note_off channel=2 note=65 velocity=64 time=320
note_on channel=2 note=63 velocity=81 time=0
control_change channel=2 control=11 value=127 time=160
control_change channel=2 control=11 value=124 time=120
control_change channel=2 control=11 value=121 time=96
control_change channel=2 control=11 value=119 time=120
control_change channel=2 control=11 value=116 time=96
control_change channel=2 control=11 value=114 time=120
control_change channel=2 control=11 value=111 time=72
control_change channel=2 control=11 value=109 time=120
control_change channel=2 control=11 value=106 time=96
note_off channel=2 note=63 velocity=64 time=72
control_change channel=2 control=11 value=104 time=24
control_change channel=2 control=11 value=127 time=24
control_change channel=2 control=93 value=30 time=0
note_on channel=2 note=64 velocity=69 time=0
note_off channel=2 note=64 velocity=64 time=156
note_on channel=2 note=64 velocity=69 time=324
note_off channel=2 note=64 velocity=64 time=308
note_on channel=2 note=62 velocity=69 time=12
note_off channel=2 note=62 velocity=64 time=148
note_on channel=2 note=64 velocity=62 time=12
note_off channel=2 note=64 velocity=64 time=68
note_on channel=2 note=64 velocity=69 time=12
note_off channel=2 note=64 velocity=64 time=80
note_on channel=2 note=63 velocity=69 time=320
note_off channel=2 note=63 velocity=64 time=320
control_change channel=2 control=11 value=104 time=0
note_on channel=2 note=62 velocity=75 time=0
control_change channel=2 control=11 value=105 time=100
control_change channel=2 control=11 value=108 time=80
control_change channel=2 control=11 value=109 time=100
control_change channel=2 control=11 value=111 time=100
control_change channel=2 control=11 value=114 time=90
control_change channel=2 control=11 value=115 time=100
control_change channel=2 control=11 value=118 time=70
control_change channel=2 control=11 value=119 time=100
control_change channel=2 control=11 value=121 time=100
control_change channel=2 control=11 value=124 time=90
control_change channel=2 control=11 value=125 time=100
control_change channel=2 control=11 value=127 time=10
note_off channel=2 note=62 velocity=64 time=92
note_on channel=2 note=68 velocity=76 time=308
note_on channel=2 note=67 velocity=40 time=112
note_on channel=2 note=66 velocity=28 time=40
note_off channel=2 note=68 velocity=64 time=4
note_off channel=2 note=67 velocity=64 time=8
note_on channel=2 note=65 velocity=17 time=28
note_off channel=2 note=66 velocity=64 time=12
note_off channel=2 note=65 velocity=64 time=40
note_on channel=2 note=67 velocity=75 time=236
note_off channel=2 note=67 velocity=64 time=604
note_on channel=2 note=67 velocity=69 time=36
note_off channel=2 note=67 velocity=64 time=308
note_on channel=2 note=67 velocity=57 time=12
note_off channel=2 note=67 velocity=64 time=148
note_on channel=2 note=67 velocity=69 time=12
note_off channel=2 note=67 velocity=64 time=296
note_on channel=2 note=65 velocity=69 time=24
note_off channel=2 note=65 velocity=64 time=168
note_on channel=2 note=64 velocity=69 time=312
control_change channel=2 control=11 value=127 time=160
control_change channel=2 control=11 value=124 time=96
control_change channel=2 control=11 value=121 time=72
control_change channel=2 control=11 value=118 time=120
control_change channel=2 control=11 value=115 time=72
control_change channel=2 control=11 value=111 time=120
control_change channel=2 control=11 value=108 time=120
control_change channel=2 control=11 value=105 time=72
control_change channel=2 control=11 value=101 time=120
note_off channel=2 note=64 velocity=64 time=108
control_change channel=2 control=11 value=98 time=12
control_change channel=2 control=11 value=96 time=24
control_change channel=2 control=11 value=127 time=24
control_change channel=2 control=93 value=60 time=0
note_on channel=2 note=64 velocity=81 time=320
note_off channel=2 note=64 velocity=64 time=148
note_on channel=2 note=62 velocity=69 time=12
note_off channel=2 note=62 velocity=64 time=296
note_on channel=2 note=57 velocity=75 time=24
control_change channel=2 control=11 value=127 time=160
control_change channel=2 control=11 value=119 time=24
control_change channel=2 control=11 value=111 time=24
control_change channel=2 control=11 value=104 time=24
control_change channel=2 control=11 value=96 time=24
control_change channel=2 control=11 value=89 time=24
control_change channel=2 control=11 value=89 time=0
control_change channel=2 control=11 value=93 time=120
control_change channel=2 control=11 value=96 time=96
control_change channel=2 control=11 value=99 time=72
control_change channel=2 control=11 value=103 time=96
control_change channel=2 control=11 value=106 time=120
control_change channel=2 control=11 value=109 time=48
control_change channel=2 control=11 value=113 time=120
control_change channel=2 control=11 value=116 time=96
control_change channel=2 control=11 value=119 time=72
control_change channel=2 control=11 value=123 time=96
control_change channel=2 control=11 value=127 time=96
note_off channel=2 note=57 velocity=64 time=104
note_on channel=2 note=64 velocity=81 time=24
note_off channel=2 note=64 velocity=64 time=148
note_on channel=2 note=62 velocity=69 time=12
note_off channel=2 note=62 velocity=64 time=296
note_on channel=2 note=57 velocity=75 time=24
control_change channel=2 control=11 value=127 time=160
control_change channel=2 control=11 value=119 time=24
control_change channel=2 control=11 value=111 time=24
control_change channel=2 control=11 value=104 time=24
control_change channel=2 control=11 value=96 time=24
control_change channel=2 control=11 value=89 time=24
control_change channel=2 control=11 value=89 time=0
control_change channel=2 control=11 value=93 time=120
control_change channel=2 control=11 value=96 time=96
control_change channel=2 control=11 value=99 time=72
control_change channel=2 control=11 value=103 time=96
control_change channel=2 control=11 value=106 time=120
control_change channel=2 control=11 value=109 time=48
control_change channel=2 control=11 value=113 time=120
control_change channel=2 control=11 value=116 time=96
control_change channel=2 control=11 value=119 time=72
control_change channel=2 control=11 value=123 time=96
control_change channel=2 control=11 value=127 time=96
note_off channel=2 note=57 velocity=64 time=104
note_on channel=2 note=62 velocity=81 time=24
note_off channel=2 note=62 velocity=64 time=148
note_on channel=2 note=60 velocity=69 time=12
note_off channel=2 note=60 velocity=64 time=296
note_on channel=2 note=55 velocity=75 time=24
control_change channel=2 control=11 value=127 time=232
control_change channel=2 control=11 value=121 time=24
control_change channel=2 control=11 value=115 time=24
control_change channel=2 control=11 value=109 time=24
control_change channel=2 control=11 value=103 time=24
control_change channel=2 control=11 value=96 time=24
control_change channel=2 control=11 value=90 time=24
control_change channel=2 control=11 value=85 time=24
control_change channel=2 control=11 value=84 time=0
control_change channel=2 control=11 value=84 time=0
control_change channel=2 control=11 value=85 time=120
control_change channel=2 control=11 value=88 time=120
control_change channel=2 control=11 value=89 time=120
control_change channel=2 control=11 value=91 time=120
control_change channel=2 control=11 value=94 time=120
control_change channel=2 control=11 value=95 time=120
control_change channel=2 control=11 value=98 time=120
control_change channel=2 control=11 value=99 time=120
control_change channel=2 control=11 value=101 time=120
control_change channel=2 control=11 value=104 time=120
control_change channel=2 control=11 value=105 time=120
control_change channel=2 control=11 value=108 time=120
control_change channel=2 control=11 value=109 time=120
control_change channel=2 control=11 value=111 time=120
control_change channel=2 control=11 value=114 time=120
control_change channel=2 control=11 value=115 time=120
control_change channel=2 control=11 value=118 time=120
control_change channel=2 control=11 value=119 time=120
control_change channel=2 control=11 value=121 time=120
control_change channel=2 control=11 value=124 time=120
control_change channel=2 control=11 value=125 time=120
control_change channel=2 control=11 value=127 time=24
note_off channel=2 note=55 velocity=64 time=368
control_change channel=2 control=93 value=30 time=40
note_on channel=2 note=65 velocity=75 time=8
note_off channel=2 note=65 velocity=64 time=616
note_on channel=2 note=60 velocity=69 time=24
note_off channel=2 note=60 velocity=64 time=296
note_on channel=2 note=60 velocity=70 time=24
note_off channel=2 note=60 velocity=64 time=136
control_change channel=2 control=93 value=60 time=12984
note_on channel=2 note=68 velocity=88 time=960
note_off channel=2 note=68 velocity=64 time=308
note_on channel=2 note=69 velocity=88 time=12
note_off channel=2 note=69 velocity=64 time=180
note_on channel=2 note=74 velocity=88 time=300
note_off channel=2 note=74 velocity=64 time=1072
note_on channel=2 note=68 velocity=88 time=48
note_off channel=2 note=68 velocity=64 time=308
note_on channel=2 note=69 velocity=88 time=12
note_off channel=2 note=69 velocity=64 time=180
note_on channel=2 note=62 velocity=88 time=300
note_off channel=2 note=62 velocity=64 time=1072
note_on channel=2 note=68 velocity=88 time=48
note_off channel=2 note=68 velocity=64 time=180
note_on channel=2 note=69 velocity=88 time=300
note_off channel=2 note=69 velocity=64 time=180
note_on channel=2 note=74 velocity=88 time=300
note_off channel=2 note=74 velocity=64 time=912
note_on channel=2 note=68 velocity=88 time=48
note_off channel=2 note=68 velocity=64 time=308
note_on channel=2 note=69 velocity=88 time=12
note_off channel=2 note=69 velocity=64 time=180
note_on channel=2 note=62 velocity=88 time=300
note_off channel=2 note=62 velocity=64 time=1072
note_on channel=2 note=68 velocity=88 time=48
note_off channel=2 note=68 velocity=64 time=180
note_on channel=2 note=69 velocity=88 time=300
note_off channel=2 note=69 velocity=64 time=180
note_on channel=2 note=74 velocity=88 time=300
note_off channel=2 note=74 velocity=64 time=912
note_on channel=2 note=76 velocity=88 time=48
note_off channel=2 note=76 velocity=64 time=308
note_on channel=2 note=74 velocity=88 time=12
note_off channel=2 note=74 velocity=64 time=180
note_on channel=2 note=62 velocity=88 time=300
note_off channel=2 note=62 velocity=64 time=1072
note_on channel=2 note=62 velocity=88 time=48
note_off channel=2 note=62 velocity=64 time=320
note_on channel=2 note=65 velocity=81 time=0
note_off channel=2 note=65 velocity=64 time=160
note_on channel=2 note=68 velocity=88 time=0
note_off channel=2 note=68 velocity=64 time=320
note_on channel=2 note=67 velocity=88 time=0
control_change channel=2 control=11 value=127 time=160
control_change channel=2 control=11 value=125 time=120
control_change channel=2 control=11 value=124 time=120
control_change channel=2 control=11 value=123 time=120
control_change channel=2 control=11 value=121 time=120
control_change channel=2 control=11 value=120 time=120
control_change channel=2 control=11 value=119 time=120
control_change channel=2 control=11 value=118 time=120
control_change channel=2 control=11 value=115 time=120
control_change channel=2 control=11 value=114 time=120
control_change channel=2 control=11 value=113 time=120
control_change channel=2 control=11 value=111 time=120
control_change channel=2 control=11 value=110 time=120
control_change channel=2 control=11 value=109 time=120
control_change channel=2 control=11 value=108 time=120
control_change channel=2 control=11 value=105 time=120
note_off channel=2 note=67 velocity=64 time=72
control_change channel=2 control=11 value=104 time=24
control_change channel=2 control=11 value=127 time=24
control_change channel=2 control=93 value=30 time=0
note_on channel=2 note=68 velocity=81 time=480
note_off channel=2 note=68 velocity=64 time=308
note_on channel=2 note=68 velocity=81 time=12
note_off channel=2 note=68 velocity=64 time=204
note_on channel=2 note=65 velocity=69 time=276
note_off channel=2 note=65 velocity=64 time=160
note_on channel=2 note=68 velocity=81 time=0
note_off channel=2 note=68 velocity=64 time=320
note_on channel=2 note=68 velocity=75 time=0
note_off channel=2 note=68 velocity=64 time=148
note_on channel=2 note=65 velocity=81 time=12
note_off channel=2 note=65 velocity=64 time=308
note_on channel=2 note=62 velocity=81 time=12
note_off channel=2 note=62 velocity=64 time=148
note_on channel=2 note=62 velocity=81 time=1932
note_off channel=2 note=62 velocity=64 time=180
note_on channel=2 note=64 velocity=81 time=300
note_off channel=2 note=64 velocity=64 time=308
note_on channel=2 note=65 velocity=81 time=12
note_off channel=2 note=65 velocity=64 time=192
note_on channel=2 note=72 velocity=81 time=288
note_on channel=2 note=74 velocity=59 time=1440
note_off channel=2 note=72 velocity=64 time=16
note_on channel=2 note=73 velocity=70 time=64
note_off channel=2 note=74 velocity=64 time=24
note_on channel=2 note=69 velocity=81 time=56
note_off channel=2 note=73 velocity=64 time=24
note_off channel=2 note=69 velocity=64 time=296
note_on channel=2 note=64 velocity=81 time=0
pitchwheel channel=2 pitch=0 time=160
control_change channel=2 control=11 value=127 time=0
pitchwheel channel=2 pitch=242 time=12
control_change channel=2 control=11 value=124 time=72
control_change channel=2 control=11 value=121 time=72
pitchwheel channel=2 pitch=0 time=48
control_change channel=2 control=11 value=119 time=60
control_change channel=2 control=11 value=116 time=48
pitchwheel channel=2 pitch=-82 time=36
control_change channel=2 control=11 value=114 time=72
pitchwheel channel=2 pitch=-244 time=24
control_change channel=2 control=11 value=111 time=24
pitchwheel channel=2 pitch=-407 time=48
pitchwheel channel=2 pitch=-569 time=60
control_change channel=2 control=11 value=109 time=0
control_change channel=2 control=11 value=106 time=48
pitchwheel channel=2 pitch=-731 time=12
pitchwheel channel=2 pitch=-893 time=36
pitchwheel channel=2 pitch=-1055 time=48
control_change channel=2 control=11 value=104 time=12
pitchwheel channel=2 pitch=-1218 time=24
pitchwheel channel=2 pitch=-1380 time=24
control_change channel=2 control=11 value=101 time=0
pitchwheel channel=2 pitch=-1542 time=36
pitchwheel channel=2 pitch=-1704 time=24
pitchwheel channel=2 pitch=-1866 time=12
pitchwheel channel=2 pitch=-2029 time=24
pitchwheel channel=2 pitch=-2191 time=12
control_change channel=2 control=11 value=99 time=0
pitchwheel channel=2 pitch=-2353 time=12
pitchwheel channel=2 pitch=-2515 time=12
note_off channel=2 note=64 velocity=64 time=12
pitchwheel channel=2 pitch=-2840 time=0
control_change channel=2 control=11 value=96 time=12
control_change channel=2 control=11 value=127 time=24
pitchwheel channel=2 pitch=0 time=0
note_on channel=2 note=67 velocity=81 time=1280
note_off channel=2 note=67 velocity=64 time=616
note_on channel=2 note=69 velocity=81 time=24
note_off channel=2 note=69 velocity=64 time=192
note_on channel=2 note=70 velocity=81 time=288
note_off channel=2 note=70 velocity=64 time=308
note_on channel=2 note=69 velocity=81 time=12
note_off channel=2 note=69 velocity=64 time=148
note_on channel=2 note=69 velocity=81 time=332
note_off channel=2 note=69 velocity=64 time=192
note_on channel=2 note=67 velocity=75 time=288
note_off channel=2 note=67 velocity=64 time=160
note_on channel=2 note=65 velocity=81 time=0
note_off channel=2 note=65 velocity=64 time=468
note_on channel=2 note=64 velocity=81 time=12
note_off channel=2 note=64 velocity=64 time=168
note_on channel=2 note=74 velocity=88 time=792
note_off channel=2 note=74 velocity=64 time=924
note_on channel=2 note=72 velocity=81 time=36
note_off channel=2 note=72 velocity=64 time=192
control_change channel=2 control=11 value=104 time=288
note_on channel=2 note=70 velocity=88 time=0
control_change channel=2 control=11 value=106 time=108
control_change channel=2 control=11 value=109 time=108
note_off channel=2 note=70 velocity=64 time=104
note_on channel=2 note=72 velocity=88 time=0
control_change channel=2 control=11 value=111 time=4
control_change channel=2 control=11 value=114 time=108
control_change channel=2 control=11 value=116 time=108
control_change channel=2 control=11 value=119 time=108
control_change channel=2 control=11 value=121 time=108
control_change channel=2 control=11 value=124 time=108
note_off channel=2 note=72 velocity=64 time=72
control_change channel=2 control=11 value=127 time=24
control_change channel=2 control=11 value=127 time=0
note_on channel=2 note=69 velocity=88 time=0
control_change channel=2 control=11 value=124 time=84
control_change channel=2 control=11 value=121 time=84
control_change channel=2 control=11 value=119 time=108
note_off channel=2 note=69 velocity=64 time=44
note_on channel=2 note=63 velocity=88 time=0
control_change channel=2 control=11 value=116 time=4
control_change channel=2 control=11 value=114 time=108
control_change channel=2 control=11 value=111 time=48
control_change channel=2 control=11 value=109 time=108
control_change channel=2 control=11 value=106 time=60
control_change channel=2 control=11 value=104 time=108
control_change channel=2 control=11 value=101 time=48
note_off channel=2 note=63 velocity=64 time=108
control_change channel=2 control=11 value=99 time=0
control_change channel=2 control=11 value=127 time=48
control_change channel=2 control=11 value=96 time=0
control_change channel=2 control=93 value=60 time=0
control_change channel=2 control=11 value=127 time=12
note_on channel=2 note=62 velocity=62 time=308
note_off channel=2 note=62 velocity=64 time=148
note_on channel=2 note=68 velocity=75 time=12
note_off channel=2 note=68 velocity=64 time=156
note_on channel=2 note=69 velocity=69 time=324
note_off channel=2 note=69 velocity=64 time=308
note_on channel=2 note=62 velocity=69 time=12
note_off channel=2 note=62 velocity=64 time=112
note_on channel=2 note=68 velocity=76 time=368
note_off channel=2 note=68 velocity=64 time=468
note_on channel=2 note=69 velocity=69 time=12
note_off channel=2 note=69 velocity=64 time=160
note_on channel=2 note=68 velocity=56 time=0
note_on channel=2 note=69 velocity=44 time=160
note_off channel=2 note=68 velocity=64 time=24
note_on channel=2 note=68 velocity=62 time=136
note_off channel=2 note=69 velocity=64 time=24
note_on channel=2 note=69 velocity=69 time=136
note_off channel=2 note=68 velocity=64 time=24
note_off channel=2 note=69 velocity=64 time=284
note_on channel=2 note=62 velocity=69 time=12
note_off channel=2 note=62 velocity=64 time=148
note_on channel=2 note=62 velocity=62 time=812
note_off channel=2 note=62 velocity=64 time=148
note_on channel=2 note=68 velocity=75 time=12
note_off channel=2 note=68 velocity=64 time=156
note_on channel=2 note=69 velocity=69 time=324
note_off channel=2 note=69 velocity=64 time=308
note_on channel=2 note=62 velocity=69 time=12
note_off channel=2 note=62 velocity=64 time=112
note_on channel=2 note=68 velocity=76 time=368
note_off channel=2 note=68 velocity=64 time=468
note_on channel=2 note=69 velocity=69 time=12
note_off channel=2 note=69 velocity=64 time=160
note_on channel=2 note=68 velocity=56 time=0
note_on channel=2 note=69 velocity=44 time=160
note_off channel=2 note=68 velocity=64 time=24
note_on channel=2 note=68 velocity=62 time=136
note_off channel=2 note=69 velocity=64 time=24
note_on channel=2 note=69 velocity=69 time=136
note_off channel=2 note=68 velocity=64 time=24
note_off channel=2 note=69 velocity=64 time=284
note_on channel=2 note=62 velocity=69 time=12
note_off channel=2 note=62 velocity=64 time=148
note_on channel=2 note=62 velocity=62 time=812
note_off channel=2 note=62 velocity=64 time=148
note_on channel=2 note=68 velocity=75 time=12
note_off channel=2 note=68 velocity=64 time=156
note_on channel=2 note=69 velocity=69 time=324
note_off channel=2 note=69 velocity=64 time=308
note_on channel=2 note=62 velocity=69 time=12
note_off channel=2 note=62 velocity=64 time=112
note_on channel=2 note=68 velocity=75 time=368
note_off channel=2 note=68 velocity=64 time=468
note_on channel=2 note=69 velocity=69 time=12
note_off channel=2 note=69 velocity=64 time=160
note_on channel=2 note=68 velocity=56 time=0
note_on channel=2 note=69 velocity=44 time=160
note_off channel=2 note=68 velocity=64 time=24
note_on channel=2 note=68 velocity=62 time=136
note_off channel=2 note=69 velocity=64 time=24
note_on channel=2 note=69 velocity=69 time=136
note_off channel=2 note=68 velocity=64 time=24
note_off channel=2 note=69 velocity=64 time=284
note_on channel=2 note=60 velocity=56 time=12
note_off channel=2 note=60 velocity=64 time=160
note_on channel=2 note=62 velocity=65 time=0
note_off channel=2 note=62 velocity=64 time=320
note_on channel=2 note=67 velocity=69 time=0
control_change channel=2 control=11 value=127 time=232
control_change channel=2 control=11 value=121 time=24
control_change channel=2 control=11 value=115 time=24
control_change channel=2 control=11 value=109 time=24
control_change channel=2 control=11 value=103 time=24
control_change channel=2 control=11 value=96 time=24
control_change channel=2 control=11 value=90 time=24
control_change channel=2 control=11 value=84 time=24
control_change channel=2 control=11 value=84 time=0
control_change channel=2 control=11 value=84 time=0
control_change channel=2 control=11 value=84 time=0
control_change channel=2 control=11 value=85 time=120
control_change channel=2 control=11 value=88 time=120
control_change channel=2 control=11 value=89 time=120
control_change channel=2 control=11 value=91 time=120
control_change channel=2 control=11 value=93 time=120
control_change channel=2 control=11 value=95 time=120
control_change channel=2 control=11 value=96 time=120
control_change channel=2 control=11 value=99 time=96
control_change channel=2 control=11 value=100 time=120
control_change channel=2 control=11 value=103 time=120
control_change channel=2 control=11 value=104 time=120
control_change channel=2 control=11 value=106 time=120
control_change channel=2 control=11 value=108 time=120
control_change channel=2 control=11 value=110 time=120
control_change channel=2 control=11 value=111 time=120
control_change channel=2 control=11 value=114 time=96
control_change channel=2 control=11 value=115 time=120
control_change channel=2 control=11 value=118 time=120
control_change channel=2 control=11 value=119 time=120
control_change channel=2 control=11 value=121 time=120
control_change channel=2 control=11 value=123 time=120
control_change channel=2 control=11 value=125 time=120
control_change channel=2 control=11 value=127 time=48
note_on channel=2 note=66 velocity=21 time=320
note_off channel=2 note=67 velocity=64 time=40
note_on channel=2 note=65 velocity=31 time=0
note_on channel=2 note=64 velocity=44 time=40
note_off channel=2 note=66 velocity=64 time=8
note_on channel=2 note=63 velocity=54 time=32
note_off channel=2 note=65 velocity=64 time=8
note_on channel=2 note=62 velocity=75 time=32
note_off channel=2 note=64 velocity=64 time=8
note_off channel=2 note=63 velocity=64 time=40
note_off channel=2 note=62 velocity=64 time=272
control_change channel=2 control=11 value=104 time=0
note_on channel=2 note=65 velocity=81 time=0
control_change channel=2 control=11 value=105 time=120
control_change channel=2 control=11 value=106 time=110
control_change channel=2 control=11 value=108 time=110
control_change channel=2 control=11 value=109 time=110
control_change channel=2 control=11 value=110 time=110
control_change channel=2 control=11 value=111 time=110
control_change channel=2 control=11 value=113 time=110
control_change channel=2 control=11 value=114 time=110
control_change channel=2 control=11 value=115 time=110
control_change channel=2 control=11 value=116 time=120
control_change channel=2 control=11 value=118 time=110
control_change channel=2 control=11 value=119 time=110
control_change channel=2 control=11 value=120 time=110
control_change channel=2 control=11 value=121 time=110
control_change channel=2 control=11 value=123 time=110
control_change channel=2 control=11 value=124 time=110
control_change channel=2 control=11 value=125 time=110
control_change channel=2 control=11 value=127 time=110
note_off channel=2 note=65 velocity=64 time=32
control_change channel=2 control=93 value=30 time=48
note_on channel=2 note=68 velocity=81 time=0
note_off channel=2 note=68 velocity=64 time=456
note_on channel=2 note=70 velocity=81 time=24
note_off channel=2 note=70 velocity=64 time=308
note_on channel=2 note=72 velocity=81 time=12
note_off channel=2 note=72 velocity=64 time=148
note_on channel=2 note=60 velocity=81 time=812
note_off channel=2 note=60 velocity=64 time=616
note_on channel=2 note=62 velocity=81 time=24
note_off channel=2 note=62 velocity=64 time=308
note_on channel=2 note=60 velocity=69 time=12
note_off channel=2 note=60 velocity=64 time=148
note_on channel=2 note=65 velocity=81 time=12
note_off channel=2 note=65 velocity=64 time=296
note_on channel=2 note=67 velocity=81 time=24
note_off channel=2 note=67 velocity=64 time=180
note_on channel=2 note=69 velocity=81 time=300
note_off channel=2 note=69 velocity=64 time=616
note_on channel=2 note=72 velocity=81 time=24
note_off channel=2 note=72 velocity=64 time=308
note_on channel=2 note=70 velocity=81 time=12
note_off channel=2 note=70 velocity=64 time=136
note_on channel=2 note=68 velocity=81 time=1304
note_off channel=2 note=68 velocity=64 time=580
note_on channel=2 note=69 velocity=81 time=60
note_off channel=2 note=69 velocity=64 time=168
note_on channel=2 note=62 velocity=81 time=312
note_off channel=2 note=62 velocity=64 time=168
note_on channel=2 note=68 velocity=81 time=312
note_off channel=2 note=68 velocity=64 time=794
note_on channel=2 note=69 velocity=81 time=6
note_off channel=2 note=69 velocity=64 time=1072
note_on channel=2 note=68 velocity=81 time=368
note_off channel=2 note=68 velocity=64 time=592
note_on channel=2 note=69 velocity=81 time=48
note_off channel=2 note=69 velocity=64 time=180
note_on channel=2 note=62 velocity=81 time=300
note_off channel=2 note=62 velocity=64 time=180
note_on channel=2 note=68 velocity=81 time=300
note_off channel=2 note=68 velocity=64 time=794
note_on channel=2 note=69 velocity=81 time=6
note_off channel=2 note=69 velocity=64 time=1072
<meta message end_of_track time=0>
<meta message text text='Alto Sax 2' time=0>
control_change channel=3 control=11 value=127 time=0
control_change channel=3 control=7 value=106 time=0
control_change channel=3 control=10 value=88 time=0
control_change channel=3 control=91 value=88 time=0
control_change channel=3 control=93 value=25 time=0
control_change channel=3 control=0 value=56 time=0
control_change channel=3 control=32 value=0 time=0
program_change channel=3 program=65 time=0
note_on channel=3 note=63 velocity=62 time=9920
note_off channel=3 note=63 velocity=64 time=604
note_on channel=3 note=64 velocity=64 time=36
note_off channel=3 note=64 velocity=64 time=192
note_on channel=3 note=63 velocity=67 time=768
note_off channel=3 note=63 velocity=64 time=788
note_on channel=3 note=64 velocity=70 time=12
note_off channel=3 note=64 velocity=64 time=1120
note_on channel=3 note=63 velocity=75 time=320
note_off channel=3 note=63 velocity=64 time=592
note_on channel=3 note=64 velocity=77 time=48
note_off channel=3 note=64 velocity=64 time=180
note_on channel=3 note=57 velocity=79 time=300
note_off channel=3 note=57 velocity=64 time=180
note_on channel=3 note=63 velocity=80 time=300
note_off channel=3 note=63 velocity=64 time=788
note_on channel=3 note=64 velocity=84 time=12
note_off channel=3 note=64 velocity=64 time=604
note_on channel=3 note=58 velocity=85 time=36
note_off channel=3 note=58 velocity=64 time=284
note_on channel=3 note=62 velocity=86 time=36
note_off channel=3 note=62 velocity=64 time=136
control_change channel=3 control=0 value=56 time=34584
control_change channel=3 control=32 value=0 time=0
program_change channel=3 program=73 time=0
note_on channel=3 note=86 velocity=56 time=3200
note_off channel=3 note=86 velocity=64 time=136
note_on channel=3 note=84 velocity=50 time=24
note_off channel=3 note=84 velocity=64 time=296
note_on channel=3 note=81 velocity=45 time=24
note_off channel=3 note=81 velocity=64 time=136
note_on channel=3 note=86 velocity=56 time=3224
note_off channel=3 note=86 velocity=64 time=136
note_on channel=3 note=84 velocity=50 time=24
note_off channel=3 note=84 velocity=64 time=296
note_on channel=3 note=81 velocity=45 time=24
note_off channel=3 note=81 velocity=64 time=136
control_change channel=3 control=0 value=56 time=24
control_change channel=3 control=32 value=0 time=0
program_change channel=3 program=65 time=0
note_on channel=3 note=55 velocity=62 time=10880
note_off channel=3 note=55 velocity=64 time=160
note_on channel=3 note=58 velocity=75 time=0
note_off channel=3 note=58 velocity=64 time=314
note_on channel=3 note=58 velocity=69 time=6
note_off channel=3 note=58 velocity=64 time=142
note_on channel=3 note=57 velocity=75 time=6
note_off channel=3 note=57 velocity=64 time=132
control_change channel=3 control=11 value=127 time=11400
note_on channel=3 note=59 velocity=62 time=0
note_off channel=3 note=59 velocity=64 time=156
note_on channel=3 note=59 velocity=62 time=324
note_off channel=3 note=59 velocity=64 time=308
note_on channel=3 note=59 velocity=62 time=12
note_off channel=3 note=59 velocity=64 time=148
note_on channel=3 note=59 velocity=56 time=12
note_off channel=3 note=59 velocity=64 time=68
note_on channel=3 note=59 velocity=62 time=12
note_off channel=3 note=59 velocity=64 time=80
note_on channel=3 note=59 velocity=65 time=320
note_off channel=3 note=59 velocity=64 time=320
control_change channel=3 control=11 value=104 time=0
note_on channel=3 note=58 velocity=67 time=0
control_change channel=3 control=11 value=105 time=100
control_change channel=3 control=11 value=108 time=80
control_change channel=3 control=11 value=109 time=100
control_change channel=3 control=11 value=111 time=100
control_change channel=3 control=11 value=114 time=90
control_change channel=3 control=11 value=115 time=100
control_change channel=3 control=11 value=118 time=70
control_change channel=3 control=11 value=119 time=100
control_change channel=3 control=11 value=121 time=100
control_change channel=3 control=11 value=124 time=90
control_change channel=3 control=11 value=125 time=100
control_change channel=3 control=11 value=127 time=10
note_off channel=3 note=58 velocity=64 time=92
note_on channel=3 note=64 velocity=69 time=308
note_on channel=3 note=63 velocity=40 time=112
note_on channel=3 note=62 velocity=28 time=40
note_off channel=3 note=64 velocity=64 time=4
note_off channel=3 note=63 velocity=64 time=8
note_on channel=3 note=61 velocity=17 time=28
note_off channel=3 note=62 velocity=64 time=12
note_off channel=3 note=61 velocity=64 time=40
note_on channel=3 note=62 velocity=70 time=236
note_off channel=3 note=62 velocity=64 time=604
note_on channel=3 note=62 velocity=62 time=36
note_off channel=3 note=62 velocity=64 time=308
note_on channel=3 note=60 velocity=50 time=12
note_off channel=3 note=60 velocity=64 time=148
note_on channel=3 note=62 velocity=62 time=12
note_off channel=3 note=62 velocity=64 time=296
note_on channel=3 note=61 velocity=62 time=24
note_off channel=3 note=61 velocity=64 time=168
note_on channel=3 note=60 velocity=62 time=312
control_change channel=3 control=11 value=127 time=160
control_change channel=3 control=11 value=124 time=96
control_change channel=3 control=11 value=121 time=72
control_change channel=3 control=11 value=118 time=120
control_change channel=3 control=11 value=115 time=72
control_change channel=3 control=11 value=111 time=120
control_change channel=3 control=11 value=108 time=120
control_change channel=3 control=11 value=105 time=72
control_change channel=3 control=11 value=101 time=120
note_off channel=3 note=60 velocity=64 time=108
control_change channel=3 control=11 value=98 time=12
control_change channel=3 control=11 value=96 time=24
control_change channel=3 control=11 value=127 time=24
note_on channel=3 note=63 velocity=69 time=8000
note_off channel=3 note=63 velocity=64 time=616
note_on channel=3 note=55 velocity=62 time=24
note_off channel=3 note=55 velocity=64 time=296
note_on channel=3 note=55 velocity=62 time=24
note_off channel=3 note=55 velocity=64 time=136
note_on channel=3 note=65 velocity=75 time=28824
note_off channel=3 note=65 velocity=64 time=308
note_on channel=3 note=65 velocity=75 time=12
note_off channel=3 note=65 velocity=64 time=204
note_on channel=3 note=63 velocity=62 time=276
note_off channel=3 note=63 velocity=64 time=160
note_on channel=3 note=65 velocity=75 time=0
note_off channel=3 note=65 velocity=64 time=320
note_on channel=3 note=65 velocity=69 time=0
note_off channel=3 note=65 velocity=64 time=148
note_on channel=3 note=62 velocity=75 time=12
note_off channel=3 note=62 velocity=64 time=308
note_on channel=3 note=58 velocity=75 time=12
note_off channel=3 note=58 velocity=64 time=148
note_on channel=3 note=59 velocity=75 time=1932
note_off channel=3 note=59 velocity=64 time=180
note_on channel=3 note=62 velocity=75 time=300
note_off channel=3 note=62 velocity=64 time=308
note_on channel=3 note=62 velocity=75 time=12
note_off channel=3 note=62 velocity=64 time=192
note_on channel=3 note=64 velocity=75 time=288
note_on channel=3 note=66 velocity=54 time=1440
note_off channel=3 note=64 velocity=64 time=16
note_on channel=3 note=65 velocity=62 time=64
note_off channel=3 note=66 velocity=64 time=24
note_on channel=3 note=64 velocity=74 time=56
note_off channel=3 note=65 velocity=64 time=24
note_off channel=3 note=64 velocity=64 time=284
note_on channel=3 note=60 velocity=75 time=12
pitchwheel channel=3 pitch=0 time=160
control_change channel=3 control=11 value=127 time=0
pitchwheel channel=3 pitch=242 time=12
control_change channel=3 control=11 value=124 time=72
control_change channel=3 control=11 value=121 time=72
pitchwheel channel=3 pitch=0 time=48
control_change channel=3 control=11 value=119 time=60
control_change channel=3 control=11 value=116 time=48
pitchwheel channel=3 pitch=-82 time=36
control_change channel=3 control=11 value=114 time=72
pitchwheel channel=3 pitch=-244 time=24
control_change channel=3 control=11 value=111 time=24
pitchwheel channel=3 pitch=-407 time=48
pitchwheel channel=3 pitch=-569 time=60
control_change channel=3 control=11 value=109 time=0
control_change channel=3 control=11 value=106 time=48
pitchwheel channel=3 pitch=-731 time=12
pitchwheel channel=3 pitch=-893 time=36
pitchwheel channel=3 pitch=-1055 time=48
control_change channel=3 control=11 value=104 time=12
pitchwheel channel=3 pitch=-1218 time=24
pitchwheel channel=3 pitch=-1380 time=24
control_change channel=3 control=11 value=101 time=0
pitchwheel channel=3 pitch=-1542 time=36
pitchwheel channel=3 pitch=-1704 time=24
pitchwheel channel=3 pitch=-1866 time=12
pitchwheel channel=3 pitch=-2029 time=24
pitchwheel channel=3 pitch=-2191 time=12
control_change channel=3 control=11 value=99 time=0
pitchwheel channel=3 pitch=-2353 time=12
note_off channel=3 note=60 velocity=64 time=12
pitchwheel channel=3 pitch=-2515 time=0
pitchwheel channel=3 pitch=-2840 time=12
control_change channel=3 control=11 value=96 time=12
control_change channel=3 control=11 value=127 time=24
pitchwheel channel=3 pitch=0 time=0
note_on channel=3 note=62 velocity=75 time=1280
note_off channel=3 note=62 velocity=64 time=616
note_on channel=3 note=66 velocity=75 time=24
note_off channel=3 note=66 velocity=64 time=192
note_on channel=3 note=66 velocity=75 time=288
note_off channel=3 note=66 velocity=64 time=308
note_on channel=3 note=65 velocity=75 time=12
note_off channel=3 note=65 velocity=64 time=148
note_on channel=3 note=65 velocity=75 time=332
note_off channel=3 note=65 velocity=64 time=192
note_on channel=3 note=65 velocity=69 time=288
note_off channel=3 note=65 velocity=64 time=160
note_on channel=3 note=62 velocity=75 time=0
note_off channel=3 note=62 velocity=64 time=468
note_on channel=3 note=60 velocity=75 time=12
note_off channel=3 note=60 velocity=64 time=168
note_on channel=3 note=67 velocity=81 time=792
note_off channel=3 note=67 velocity=64 time=924
note_on channel=3 note=67 velocity=75 time=36
note_off channel=3 note=67 velocity=64 time=192
control_change channel=3 control=11 value=104 time=288
note_on channel=3 note=65 velocity=81 time=0
control_change channel=3 control=11 value=106 time=108
control_change channel=3 control=11 value=109 time=108
note_off channel=3 note=65 velocity=64 time=104
note_on channel=3 note=65 velocity=81 time=0
control_change channel=3 control=11 value=111 time=4
control_change channel=3 control=11 value=114 time=108
control_change channel=3 control=11 value=116 time=108
control_change channel=3 control=11 value=119 time=108
control_change channel=3 control=11 value=121 time=108
control_change channel=3 control=11 value=124 time=108
note_off channel=3 note=65 velocity=64 time=72
control_change channel=3 control=11 value=127 time=24
control_change channel=3 control=11 value=127 time=0
note_on channel=3 note=64 velocity=81 time=0
control_change channel=3 control=11 value=124 time=84
control_change channel=3 control=11 value=121 time=84
control_change channel=3 control=11 value=119 time=108
note_off channel=3 note=64 velocity=64 time=44
note_on channel=3 note=60 velocity=81 time=0
control_change channel=3 control=11 value=116 time=4
control_change channel=3 control=11 value=114 time=108
control_change channel=3 control=11 value=111 time=48
control_change channel=3 control=11 value=109 time=108
control_change channel=3 control=11 value=106 time=60
control_change channel=3 control=11 value=104 time=108
control_change channel=3 control=11 value=101 time=48
note_off channel=3 note=60 velocity=64 time=108
control_change channel=3 control=11 value=127 time=48
control_change channel=3 control=0 value=56 time=1920
control_change channel=3 control=32 value=0 time=0
program_change channel=3 program=73 time=0
note_on channel=3 note=86 velocity=56 time=1280
note_off channel=3 note=86 velocity=64 time=136
note_on channel=3 note=84 velocity=50 time=24
note_off channel=3 note=84 velocity=64 time=296
note_on channel=3 note=81 velocity=45 time=24
note_off channel=3 note=81 velocity=64 time=136
note_on channel=3 note=86 velocity=56 time=3224
note_off channel=3 note=86 velocity=64 time=136
note_on channel=3 note=84 velocity=50 time=24
note_off channel=3 note=84 velocity=64 time=296
note_on channel=3 note=81 velocity=45 time=24
note_off channel=3 note=81 velocity=64 time=136
control_change channel=3 control=0 value=56 time=24
control_change channel=3 control=32 value=0 time=0
program_change channel=3 program=65 time=0
control_change channel=3 control=93 value=30 time=9600
note_on channel=3 note=65 velocity=75 time=0
note_off channel=3 note=65 velocity=64 time=456
note_on channel=3 note=65 velocity=75 time=24
note_off channel=3 note=65 velocity=64 time=308
note_on channel=3 note=65 velocity=75 time=12
note_off channel=3 note=65 velocity=64 time=148
note_on channel=3 note=57 velocity=75 time=812
note_off channel=3 note=57 velocity=64 time=616
note_on channel=3 note=60 velocity=75 time=24
note_off channel=3 note=60 velocity=64 time=308
note_on channel=3 note=57 velocity=62 time=12
note_off channel=3 note=57 velocity=64 time=148
note_on channel=3 note=62 velocity=75 time=12
note_off channel=3 note=62 velocity=64 time=296
note_on channel=3 note=64 velocity=75 time=24
note_off channel=3 note=64 velocity=64 time=180
note_on channel=3 note=63 velocity=75 time=300
note_off channel=3 note=63 velocity=64 time=616
note_on channel=3 note=63 velocity=75 time=24
note_off channel=3 note=63 velocity=64 time=308
note_on channel=3 note=63 velocity=75 time=12
note_off channel=3 note=63 velocity=64 time=136
note_on channel=3 note=63 velocity=75 time=1304
note_off channel=3 note=63 velocity=64 time=580
note_on channel=3 note=64 velocity=75 time=60
note_off channel=3 note=64 velocity=64 time=168
note_on channel=3 note=57 velocity=75 time=312
note_off channel=3 note=57 velocity=64 time=168
note_on channel=3 note=63 velocity=75 time=312
note_off channel=3 note=63 velocity=64 time=794
note_on channel=3 note=64 velocity=75 time=6
note_off channel=3 note=64 velocity=64 time=1072
note_on channel=3 note=63 velocity=75 time=368
note_off channel=3 note=63 velocity=64 time=592
note_on channel=3 note=64 velocity=75 time=48
note_off channel=3 note=64 velocity=64 time=180
note_on channel=3 note=57 velocity=75 time=300
note_off channel=3 note=57 velocity=64 time=180
note_on channel=3 note=63 velocity=75 time=300
note_off channel=3 note=63 velocity=64 time=794
note_on channel=3 note=64 velocity=75 time=6
note_off channel=3 note=64 velocity=64 time=1072
<meta message end_of_track time=0>
<meta message text text='Tenor Sax 1' time=0>
control_change channel=4 control=11 value=127 time=0
control_change channel=4 control=7 value=106 time=0
control_change channel=4 control=10 value=62 time=0
control_change channel=4 control=91 value=88 time=0
control_change channel=4 control=93 value=28 time=0
control_change channel=4 control=0 value=56 time=0
control_change channel=4 control=32 value=0 time=0
program_change channel=4 program=66 time=0
control_change channel=4 control=11 value=109 time=9920
note_on channel=4 note=57 velocity=62 time=0
control_change channel=4 control=11 value=110 time=250
control_change channel=4 control=11 value=111 time=250
control_change channel=4 control=11 value=113 time=250
control_change channel=4 control=11 value=114 time=250
control_change channel=4 control=11 value=115 time=240
control_change channel=4 control=11 value=116 time=250
note_off channel=4 note=57 velocity=64 time=86
note_on channel=4 note=54 velocity=67 time=24
control_change channel=4 control=11 value=118 time=140
control_change channel=4 control=11 value=119 time=250
control_change channel=4 control=11 value=120 time=250
control_change channel=4 control=11 value=121 time=240
control_change channel=4 control=11 value=123 time=250
control_change channel=4 control=11 value=124 time=250
control_change channel=4 control=11 value=125 time=250
control_change channel=4 control=11 value=127 time=240
note_off channel=4 note=54 velocity=64 time=26
note_on channel=4 note=53 velocity=75 time=344
note_off channel=4 note=53 velocity=64 time=592
note_on channel=4 note=53 velocity=77 time=48
note_off channel=4 note=53 velocity=64 time=180
note_on channel=4 note=55 velocity=79 time=300
note_off channel=4 note=55 velocity=64 time=180
note_on channel=4 note=52 velocity=80 time=300
note_off channel=4 note=52 velocity=64 time=788
note_on channel=4 note=52 velocity=84 time=12
note_off channel=4 note=52 velocity=64 time=604
note_on channel=4 note=52 velocity=85 time=36
note_off channel=4 note=52 velocity=64 time=284
note_on channel=4 note=48 velocity=86 time=36
note_off channel=4 note=48 velocity=64 time=136
control_change channel=4 control=93 value=60 time=34584
note_on channel=4 note=62 velocity=62 time=320
note_off channel=4 note=62 velocity=64 time=148
note_on channel=4 note=68 velocity=75 time=12
note_off channel=4 note=68 velocity=64 time=156
note_on channel=4 note=69 velocity=69 time=324
note_off channel=4 note=69 velocity=64 time=308
note_on channel=4 note=62 velocity=69 time=12
note_off channel=4 note=62 velocity=64 time=112
note_on channel=4 note=68 velocity=76 time=368
note_off channel=4 note=68 velocity=64 time=468
note_on channel=4 note=69 velocity=69 time=12
note_off channel=4 note=69 velocity=64 time=160
note_on channel=4 note=68 velocity=56 time=0
note_on channel=4 note=69 velocity=44 time=160
note_off channel=4 note=68 velocity=64 time=24
note_on channel=4 note=68 velocity=62 time=136
note_off channel=4 note=69 velocity=64 time=24
note_on channel=4 note=69 velocity=69 time=136
note_off channel=4 note=68 velocity=64 time=24
note_off channel=4 note=69 velocity=64 time=284
note_on channel=4 note=62 velocity=69 time=12
note_off channel=4 note=62 velocity=64 time=148
note_on channel=4 note=62 velocity=62 time=812
note_off channel=4 note=62 velocity=64 time=148
note_on channel=4 note=68 velocity=75 time=12
note_off channel=4 note=68 velocity=64 time=156
note_on channel=4 note=69 velocity=69 time=324
note_off channel=4 note=69 velocity=64 time=308
note_on channel=4 note=62 velocity=69 time=12
note_off channel=4 note=62 velocity=64 time=112
note_on channel=4 note=68 velocity=76 time=368
note_off channel=4 note=68 velocity=64 time=468
note_on channel=4 note=69 velocity=69 time=12
note_off channel=4 note=69 velocity=64 time=160
note_on channel=4 note=68 velocity=56 time=0
note_on channel=4 note=69 velocity=44 time=160
note_off channel=4 note=68 velocity=64 time=24
note_on channel=4 note=68 velocity=62 time=136
note_off channel=4 note=69 velocity=64 time=24
note_on channel=4 note=69 velocity=69 time=136
note_off channel=4 note=68 velocity=64 time=24
note_off channel=4 note=69 velocity=64 time=284
note_on channel=4 note=62 velocity=69 time=12
note_off channel=4 note=62 velocity=64 time=148
note_on channel=4 note=62 velocity=62 time=812
note_off channel=4 note=62 velocity=64 time=148
note_on channel=4 note=68 velocity=75 time=12
note_off channel=4 note=68 velocity=64 time=156
note_on channel=4 note=69 velocity=69 time=324
note_off channel=4 note=69 velocity=64 time=308
note_on channel=4 note=62 velocity=69 time=12
note_off channel=4 note=62 velocity=64 time=112
note_on channel=4 note=68 velocity=75 time=368
note_off channel=4 note=68 velocity=64 time=468
note_on channel=4 note=69 velocity=69 time=12
note_off channel=4 note=69 velocity=64 time=160
note_on channel=4 note=68 velocity=56 time=0
note_on channel=4 note=69 velocity=44 time=160
note_off channel=4 note=68 velocity=64 time=24
note_on channel=4 note=68 velocity=62 time=136
note_off channel=4 note=69 velocity=64 time=24
note_on channel=4 note=69 velocity=69 time=136
note_off channel=4 note=68 velocity=64 time=24
note_off channel=4 note=69 velocity=64 time=284
note_on channel=4 note=60 velocity=56 time=12
note_off channel=4 note=60 velocity=64 time=160
note_on channel=4 note=62 velocity=65 time=0
note_off channel=4 note=62 velocity=64 time=320
note_on channel=4 note=63 velocity=69 time=0
control_change channel=4 control=11 value=127 time=232
control_change channel=4 control=11 value=121 time=24
control_change channel=4 control=11 value=115 time=24
control_change channel=4 control=11 value=109 time=24
control_change channel=4 control=11 value=103 time=24
control_change channel=4 control=11 value=96 time=24
control_change channel=4 control=11 value=90 time=24
control_change channel=4 control=11 value=84 time=24
control_change channel=4 control=11 value=84 time=0
control_change channel=4 control=11 value=85 time=120
control_change channel=4 control=11 value=86 time=120
control_change channel=4 control=11 value=88 time=120
control_change channel=4 control=11 value=89 time=120
control_change channel=4 control=11 value=91 time=120
control_change channel=4 control=11 value=93 time=120
control_change channel=4 control=11 value=94 time=120
control_change channel=4 control=11 value=95 time=120
control_change channel=4 control=11 value=96 time=120
control_change channel=4 control=11 value=99 time=120
control_change channel=4 control=11 value=100 time=120
control_change channel=4 control=11 value=101 time=120
control_change channel=4 control=11 value=103 time=120
control_change channel=4 control=11 value=105 time=120
control_change channel=4 control=11 value=104 time=288
control_change channel=4 control=11 value=103 time=264
control_change channel=4 control=11 value=101 time=264
control_change channel=4 control=11 value=100 time=288
control_change channel=4 control=11 value=99 time=264
control_change channel=4 control=11 value=98 time=264
note_off channel=4 note=63 velocity=64 time=216
control_change channel=4 control=11 value=96 time=48
control_change channel=4 control=11 value=127 time=24
control_change channel=4 control=93 value=30 time=0
note_on channel=4 note=53 velocity=62 time=3200
note_off channel=4 note=53 velocity=64 time=160
note_on channel=4 note=55 velocity=75 time=0
note_off channel=4 note=55 velocity=64 time=314
note_on channel=4 note=55 velocity=69 time=6
note_off channel=4 note=55 velocity=64 time=142
note_on channel=4 note=53 velocity=75 time=6
note_off channel=4 note=53 velocity=64 time=132
control_change channel=4 control=93 value=60 time=3720
note_on channel=4 note=62 velocity=62 time=320
note_off channel=4 note=62 velocity=64 time=136
note_on channel=4 note=68 velocity=75 time=24
note_off channel=4 note=68 velocity=64 time=156
note_on channel=4 note=69 velocity=69 time=324
note_off channel=4 note=69 velocity=64 time=308
note_on channel=4 note=62 velocity=69 time=12
note_off channel=4 note=62 velocity=64 time=136
note_on channel=4 note=63 velocity=75 time=344
control_change channel=4 control=11 value=127 time=160
control_change channel=4 control=11 value=123 time=12
control_change channel=4 control=11 value=119 time=12
control_change channel=4 control=11 value=114 time=12
control_change channel=4 control=11 value=110 time=12
control_change channel=4 control=11 value=105 time=12
control_change channel=4 control=11 value=101 time=12
control_change channel=4 control=11 value=98 time=12
control_change channel=4 control=11 value=93 time=12
control_change channel=4 control=11 value=89 time=12
control_change channel=4 control=11 value=84 time=12
control_change channel=4 control=11 value=84 time=0
control_change channel=4 control=11 value=88 time=96
control_change channel=4 control=11 value=91 time=84
control_change channel=4 control=11 value=94 time=60
control_change channel=4 control=11 value=98 time=96
control_change channel=4 control=11 value=101 time=84
control_change channel=4 control=11 value=104 time=60
control_change channel=4 control=11 value=108 time=84
control_change channel=4 control=11 value=111 time=96
control_change channel=4 control=11 value=114 time=60
control_change channel=4 control=11 value=118 time=84
control_change channel=4 control=11 value=121 time=96
control_change channel=4 control=11 value=124 time=60
control_change channel=4 control=11 value=127 time=48
note_off channel=4 note=63 velocity=64 time=116
note_on channel=4 note=60 velocity=56 time=36
note_off channel=4 note=60 velocity=64 time=160
note_on channel=4 note=64 velocity=65 time=0
note_off channel=4 note=64 velocity=64 time=308
note_on channel=4 note=65 velocity=69 time=12
note_off channel=4 note=65 velocity=64 time=124
note_on channel=4 note=62 velocity=44 time=916
note_on channel=4 note=61 velocity=55 time=40
note_on channel=4 note=60 velocity=69 time=40
note_off channel=4 note=62 velocity=64 time=8
note_off channel=4 note=61 velocity=64 time=28
note_off channel=4 note=60 velocity=64 time=284
note_on channel=4 note=62 velocity=62 time=0
note_off channel=4 note=62 velocity=64 time=160
note_on channel=4 note=65 velocity=71 time=0
note_off channel=4 note=65 velocity=64 time=320
note_on channel=4 note=63 velocity=74 time=0
note_off channel=4 note=63 velocity=64 time=628
note_on channel=4 note=60 velocity=70 time=12
note_off channel=4 note=60 velocity=64 time=320
note_on channel=4 note=58 velocity=75 time=0
control_change channel=4 control=11 value=127 time=160
control_change channel=4 control=11 value=124 time=120
control_change channel=4 control=11 value=121 time=96
control_change channel=4 control=11 value=119 time=120
control_change channel=4 control=11 value=116 time=96
control_change channel=4 control=11 value=114 time=120
control_change channel=4 control=11 value=111 time=72
control_change channel=4 control=11 value=109 time=120
control_change channel=4 control=11 value=106 time=96
note_off channel=4 note=58 velocity=64 time=72
control_change channel=4 control=11 value=104 time=24
control_change channel=4 control=11 value=127 time=24
control_change channel=4 control=11 value=127 time=0
control_change channel=4 control=93 value=30 time=0
note_on channel=4 note=57 velocity=62 time=0
note_off channel=4 note=57 velocity=64 time=156
note_on channel=4 note=57 velocity=62 time=324
note_off channel=4 note=57 velocity=64 time=308
note_on channel=4 note=55 velocity=62 time=12
note_off channel=4 note=55 velocity=64 time=148
note_on channel=4 note=57 velocity=56 time=12
note_off channel=4 note=57 velocity=64 time=68
note_on channel=4 note=57 velocity=62 time=12
note_off channel=4 note=57 velocity=64 time=80
note_on channel=4 note=55 velocity=65 time=320
note_off channel=4 note=55 velocity=64 time=320
control_change channel=4 control=11 value=104 time=0
note_on channel=4 note=57 velocity=67 time=0
control_change channel=4 control=11 value=105 time=100
control_change channel=4 control=11 value=108 time=80
control_change channel=4 control=11 value=109 time=100
control_change channel=4 control=11 value=111 time=100
control_change channel=4 control=11 value=114 time=90
control_change channel=4 control=11 value=115 time=100
control_change channel=4 control=11 value=118 time=70
control_change channel=4 control=11 value=119 time=100
control_change channel=4 control=11 value=121 time=100
control_change channel=4 control=11 value=124 time=90
control_change channel=4 control=11 value=125 time=100
control_change channel=4 control=11 value=127 time=10
note_off channel=4 note=57 velocity=64 time=92
note_on channel=4 note=60 velocity=69 time=308
note_on channel=4 note=59 velocity=40 time=112
note_on channel=4 note=58 velocity=28 time=40
note_off channel=4 note=60 velocity=64 time=4
note_off channel=4 note=59 velocity=64 time=8
note_on channel=4 note=57 velocity=17 time=28
note_off channel=4 note=58 velocity=64 time=12
note_off channel=4 note=57 velocity=64 time=40
note_on channel=4 note=60 velocity=70 time=236
note_off channel=4 note=60 velocity=64 time=604
note_on channel=4 note=60 velocity=62 time=36
note_off channel=4 note=60 velocity=64 time=308
note_on channel=4 note=60 velocity=50 time=12
note_off channel=4 note=60 velocity=64 time=148
note_on channel=4 note=60 velocity=62 time=12
note_off channel=4 note=60 velocity=64 time=296
note_on channel=4 note=60 velocity=62 time=24
note_off channel=4 note=60 velocity=64 time=168
note_on channel=4 note=56 velocity=62 time=312
control_change channel=4 control=11 value=127 time=160
control_change channel=4 control=11 value=124 time=96
control_change channel=4 control=11 value=121 time=72
control_change channel=4 control=11 value=118 time=120
control_change channel=4 control=11 value=115 time=72
control_change channel=4 control=11 value=111 time=120
control_change channel=4 control=11 value=108 time=120
control_change channel=4 control=11 value=105 time=72
control_change channel=4 control=11 value=101 time=120
note_off channel=4 note=56 velocity=64 time=108
control_change channel=4 control=11 value=98 time=12
control_change channel=4 control=11 value=96 time=24
control_change channel=4 control=11 value=127 time=24
control_change channel=4 control=93 value=60 time=0
note_on channel=4 note=64 velocity=75 time=320
note_off channel=4 note=64 velocity=64 time=148
note_on channel=4 note=62 velocity=62 time=12
note_off channel=4 note=62 velocity=64 time=296
note_on channel=4 note=57 velocity=69 time=24
control_change channel=4 control=11 value=127 time=160
control_change channel=4 control=11 value=119 time=24
control_change channel=4 control=11 value=111 time=24
control_change channel=4 control=11 value=104 time=24
control_change channel=4 control=11 value=96 time=24
control_change channel=4 control=11 value=89 time=24
control_change channel=4 control=11 value=89 time=0
control_change channel=4 control=11 value=93 time=120
control_change channel=4 control=11 value=96 time=96
control_change channel=4 control=11 value=99 time=72
control_change channel=4 control=11 value=103 time=96
control_change channel=4 control=11 value=106 time=120
control_change channel=4 control=11 value=109 time=48
control_change channel=4 control=11 value=113 time=120
control_change channel=4 control=11 value=116 time=96
control_change channel=4 control=11 value=119 time=72
control_change channel=4 control=11 value=123 time=96
control_change channel=4 control=11 value=127 time=96
note_off channel=4 note=57 velocity=64 time=104
note_on channel=4 note=64 velocity=75 time=24
note_off channel=4 note=64 velocity=64 time=148
note_on channel=4 note=62 velocity=62 time=12
note_off channel=4 note=62 velocity=64 time=296
note_on channel=4 note=57 velocity=69 time=24
control_change channel=4 control=11 value=127 time=160
control_change channel=4 control=11 value=119 time=24
control_change channel=4 control=11 value=111 time=24
control_change channel=4 control=11 value=104 time=24
control_change channel=4 control=11 value=96 time=24
control_change channel=4 control=11 value=89 time=24
control_change channel=4 control=11 value=89 time=0
control_change channel=4 control=11 value=93 time=120
control_change channel=4 control=11 value=96 time=96
control_change channel=4 control=11 value=99 time=72
control_change channel=4 control=11 value=103 time=96
control_change channel=4 control=11 value=106 time=120
control_change channel=4 control=11 value=109 time=48
control_change channel=4 control=11 value=113 time=120
control_change channel=4 control=11 value=116 time=96
control_change channel=4 control=11 value=119 time=72
control_change channel=4 control=11 value=123 time=96
control_change channel=4 control=11 value=127 time=96
note_off channel=4 note=57 velocity=64 time=104
note_on channel=4 note=62 velocity=75 time=24
note_off channel=4 note=62 velocity=64 time=148
note_on channel=4 note=60 velocity=62 time=12
note_off channel=4 note=60 velocity=64 time=296
note_on channel=4 note=55 velocity=69 time=24
control_change channel=4 control=11 value=127 time=232
control_change channel=4 control=11 value=121 time=24
control_change channel=4 control=11 value=115 time=24
control_change channel=4 control=11 value=109 time=24
control_change channel=4 control=11 value=103 time=24
control_change channel=4 control=11 value=96 time=24
control_change channel=4 control=11 value=90 time=24
control_change channel=4 control=11 value=84 time=24
control_change channel=4 control=11 value=84 time=0
control_change channel=4 control=11 value=85 time=0
control_change channel=4 control=11 value=85 time=120
control_change channel=4 control=11 value=88 time=120
control_change channel=4 control=11 value=89 time=120
control_change channel=4 control=11 value=91 time=120
control_change channel=4 control=11 value=94 time=120
control_change channel=4 control=11 value=95 time=120
control_change channel=4 control=11 value=98 time=120
control_change channel=4 control=11 value=99 time=120
control_change channel=4 control=11 value=101 time=120
control_change channel=4 control=11 value=104 time=120
control_change channel=4 control=11 value=105 time=120
control_change channel=4 control=11 value=108 time=120
control_change channel=4 control=11 value=109 time=120
control_change channel=4 control=11 value=111 time=120
control_change channel=4 control=11 value=114 time=120
control_change channel=4 control=11 value=115 time=120
control_change channel=4 control=11 value=118 time=120
control_change channel=4 control=11 value=119 time=120
control_change channel=4 control=11 value=121 time=120
control_change channel=4 control=11 value=124 time=120
control_change channel=4 control=11 value=125 time=120
control_change channel=4 control=11 value=127 time=24
note_off channel=4 note=55 velocity=64 time=368
control_change channel=4 control=93 value=30 time=40
note_on channel=4 note=61 velocity=69 time=8
note_off channel=4 note=61 velocity=64 time=616
note_on channel=4 note=53 velocity=62 time=24
note_off channel=4 note=53 velocity=64 time=296
note_on channel=4 note=53 velocity=62 time=24
note_off channel=4 note=53 velocity=64 time=136
control_change channel=4 control=93 value=60 time=12984
note_on channel=4 note=56 velocity=88 time=960
note_off channel=4 note=56 velocity=64 time=308
note_on channel=4 note=57 velocity=88 time=12
note_off channel=4 note=57 velocity=64 time=180
note_on channel=4 note=62 velocity=88 time=300
note_off channel=4 note=62 velocity=64 time=1072
note_on channel=4 note=56 velocity=88 time=48
note_off channel=4 note=56 velocity=64 time=308
note_on channel=4 note=57 velocity=88 time=12
note_off channel=4 note=57 velocity=64 time=180
note_on channel=4 note=50 velocity=88 time=300
note_off channel=4 note=50 velocity=64 time=1072
note_on channel=4 note=56 velocity=88 time=48
note_off channel=4 note=56 velocity=64 time=180
note_on channel=4 note=57 velocity=88 time=300
note_off channel=4 note=57 velocity=64 time=180
note_on channel=4 note=62 velocity=88 time=300
note_off channel=4 note=62 velocity=64 time=912
note_on channel=4 note=56 velocity=88 time=48
note_off channel=4 note=56 velocity=64 time=308
note_on channel=4 note=57 velocity=88 time=12
note_off channel=4 note=57 velocity=64 time=180
note_on channel=4 note=50 velocity=88 time=300
note_off channel=4 note=50 velocity=64 time=1072
note_on channel=4 note=56 velocity=88 time=48
note_off channel=4 note=56 velocity=64 time=180
note_on channel=4 note=57 velocity=88 time=300
note_off channel=4 note=57 velocity=64 time=180
note_on channel=4 note=62 velocity=88 time=300
note_off channel=4 note=62 velocity=64 time=912
note_on channel=4 note=64 velocity=88 time=48
note_off channel=4 note=64 velocity=64 time=308
note_on channel=4 note=62 velocity=88 time=12
note_off channel=4 note=62 velocity=64 time=180
note_on channel=4 note=50 velocity=88 time=300
note_off channel=4 note=50 velocity=64 time=1072
note_on channel=4 note=50 velocity=88 time=48
note_off channel=4 note=50 velocity=64 time=320
note_on channel=4 note=53 velocity=81 time=0
note_off channel=4 note=53 velocity=64 time=160
note_on channel=4 note=56 velocity=88 time=0
note_off channel=4 note=56 velocity=64 time=320
note_on channel=4 note=55 velocity=88 time=0
control_change channel=4 control=11 value=127 time=160
control_change channel=4 control=11 value=125 time=120
control_change channel=4 control=11 value=124 time=120
control_change channel=4 control=11 value=123 time=120
control_change channel=4 control=11 value=121 time=120
control_change channel=4 control=11 value=120 time=120
control_change channel=4 control=11 value=119 time=120
control_change channel=4 control=11 value=118 time=120
control_change channel=4 control=11 value=115 time=120
control_change channel=4 control=11 value=114 time=120
control_change channel=4 control=11 value=113 time=120
control_change channel=4 control=11 value=111 time=120
control_change channel=4 control=11 value=110 time=120
control_change channel=4 control=11 value=109 time=120
control_change channel=4 control=11 value=108 time=120
control_change channel=4 control=11 value=105 time=120
note_off channel=4 note=55 velocity=64 time=72
control_change channel=4 control=93 value=30 time=48
control_change channel=4 control=11 value=127 time=0
note_on channel=4 note=63 velocity=75 time=480
note_off channel=4 note=63 velocity=64 time=308
note_on channel=4 note=63 velocity=75 time=12
note_off channel=4 note=63 velocity=64 time=204
note_on channel=4 note=60 velocity=62 time=276
note_off channel=4 note=60 velocity=64 time=160
note_on channel=4 note=63 velocity=75 time=0
note_off channel=4 note=63 velocity=64 time=320
note_on channel=4 note=63 velocity=69 time=0
note_off channel=4 note=63 velocity=64 time=148
note_on channel=4 note=60 velocity=75 time=12
note_off channel=4 note=60 velocity=64 time=308
note_on channel=4 note=55 velocity=75 time=12
note_off channel=4 note=55 velocity=64 time=148
note_on channel=4 note=57 velocity=75 time=1932
note_off channel=4 note=57 velocity=64 time=180
note_on channel=4 note=58 velocity=75 time=300
note_off channel=4 note=58 velocity=64 time=308
note_on channel=4 note=58 velocity=75 time=12
note_off channel=4 note=58 velocity=64 time=192
note_on channel=4 note=60 velocity=75 time=288
note_on channel=4 note=62 velocity=54 time=1440
note_off channel=4 note=60 velocity=64 time=16
note_on channel=4 note=61 velocity=62 time=64
note_off channel=4 note=62 velocity=64 time=24
note_on channel=4 note=60 velocity=74 time=56
note_off channel=4 note=61 velocity=64 time=24
note_off channel=4 note=60 velocity=64 time=284
note_on channel=4 note=56 velocity=75 time=12
pitchwheel channel=4 pitch=0 time=160
control_change channel=4 control=11 value=127 time=0
pitchwheel channel=4 pitch=242 time=12
control_change channel=4 control=11 value=124 time=72
control_change channel=4 control=11 value=121 time=72
pitchwheel channel=4 pitch=0 time=48
control_change channel=4 control=11 value=119 time=60
control_change channel=4 control=11 value=116 time=48
pitchwheel channel=4 pitch=-82 time=36
control_change channel=4 control=11 value=114 time=72
pitchwheel channel=4 pitch=-244 time=24
control_change channel=4 control=11 value=111 time=24
pitchwheel channel=4 pitch=-407 time=48
pitchwheel channel=4 pitch=-569 time=60
control_change channel=4 control=11 value=109 time=0
control_change channel=4 control=11 value=106 time=48
pitchwheel channel=4 pitch=-731 time=12
pitchwheel channel=4 pitch=-893 time=36
pitchwheel channel=4 pitch=-1055 time=48
control_change channel=4 control=11 value=104 time=12
pitchwheel channel=4 pitch=-1218 time=24
pitchwheel channel=4 pitch=-1380 time=24
control_change channel=4 control=11 value=101 time=0
pitchwheel channel=4 pitch=-1542 time=36
pitchwheel channel=4 pitch=-1704 time=24
pitchwheel channel=4 pitch=-1866 time=12
pitchwheel channel=4 pitch=-2029 time=24
pitchwheel channel=4 pitch=-2191 time=12
control_change channel=4 control=11 value=99 time=0
pitchwheel channel=4 pitch=-2353 time=12
note_off channel=4 note=56 velocity=64 time=12
pitchwheel channel=4 pitch=-2515 time=0
pitchwheel channel=4 pitch=-2840 time=12
control_change channel=4 control=11 value=96 time=12
control_change channel=4 control=11 value=127 time=24
pitchwheel channel=4 pitch=0 time=0
note_on channel=4 note=58 velocity=75 time=1280
note_off channel=4 note=58 velocity=64 time=616
note_on channel=4 note=58 velocity=75 time=24
note_off channel=4 note=58 velocity=64 time=192
note_on channel=4 note=58 velocity=75 time=288
note_off channel=4 note=58 velocity=64 time=308
note_on channel=4 note=62 velocity=75 time=12
note_off channel=4 note=62 velocity=64 time=148
note_on channel=4 note=62 velocity=75 time=332
note_off channel=4 note=62 velocity=64 time=192
note_on channel=4 note=62 velocity=69 time=288
note_off channel=4 note=62 velocity=64 time=160
note_on channel=4 note=58 velocity=75 time=0
note_off channel=4 note=58 velocity=64 time=468
note_on channel=4 note=55 velocity=75 time=12
note_off channel=4 note=55 velocity=64 time=168
note_on channel=4 note=63 velocity=81 time=792
note_off channel=4 note=63 velocity=64 time=924
note_on channel=4 note=63 velocity=75 time=36
note_off channel=4 note=63 velocity=64 time=192
control_change channel=4 control=11 value=104 time=288
note_on channel=4 note=61 velocity=81 time=0
control_change channel=4 control=11 value=106 time=108
control_change channel=4 control=11 value=109 time=108
note_off channel=4 note=61 velocity=64 time=104
note_on channel=4 note=61 velocity=81 time=0
control_change channel=4 control=11 value=111 time=4
control_change channel=4 control=11 value=114 time=108
control_change channel=4 control=11 value=116 time=108
control_change channel=4 control=11 value=119 time=108
control_change channel=4 control=11 value=121 time=108
control_change channel=4 control=11 value=124 time=108
note_off channel=4 note=61 velocity=64 time=72
control_change channel=4 control=11 value=127 time=24
control_change channel=4 control=11 value=127 time=0
note_on channel=4 note=60 velocity=81 time=0
control_change channel=4 control=11 value=124 time=84
control_change channel=4 control=11 value=121 time=84
control_change channel=4 control=11 value=119 time=108
note_off channel=4 note=60 velocity=64 time=44
note_on channel=4 note=58 velocity=81 time=0
control_change channel=4 control=11 value=116 time=4
control_change channel=4 control=11 value=114 time=108
control_change channel=4 control=11 value=111 time=48
control_change channel=4 control=11 value=109 time=108
control_change channel=4 control=11 value=106 time=60
control_change channel=4 control=11 value=104 time=108
control_change channel=4 control=11 value=101 time=48
note_off channel=4 note=58 velocity=64 time=108
control_change channel=4 control=93 value=60 time=24
control_change channel=4 control=11 value=127 time=24
note_on channel=4 note=62 velocity=62 time=320
note_off channel=4 note=62 velocity=64 time=148
note_on channel=4 note=68 velocity=75 time=12
note_off channel=4 note=68 velocity=64 time=156
note_on channel=4 note=69 velocity=69 time=324
note_off channel=4 note=69 velocity=64 time=308
note_on channel=4 note=62 velocity=69 time=12
note_off channel=4 note=62 velocity=64 time=112
note_on channel=4 note=68 velocity=76 time=368
note_off channel=4 note=68 velocity=64 time=468
note_on channel=4 note=69 velocity=69 time=12
note_off channel=4 note=69 velocity=64 time=160
note_on channel=4 note=68 velocity=56 time=0
note_on channel=4 note=69 velocity=44 time=160
note_off channel=4 note=68 velocity=64 time=24
note_on channel=4 note=68 velocity=62 time=136
note_off channel=4 note=69 velocity=64 time=24
note_on channel=4 note=69 velocity=69 time=136
note_off channel=4 note=68 velocity=64 time=24
note_off channel=4 note=69 velocity=64 time=284
note_on channel=4 note=62 velocity=69 time=12
note_off channel=4 note=62 velocity=64 time=148
note_on channel=4 note=62 velocity=62 time=812
note_off channel=4 note=62 velocity=64 time=148
note_on channel=4 note=68 velocity=75 time=12
note_off channel=4 note=68 velocity=64 time=156
note_on channel=4 note=69 velocity=69 time=324
note_off channel=4 note=69 velocity=64 time=308
note_on channel=4 note=62 velocity=69 time=12
note_off channel=4 note=62 velocity=64 time=112
note_on channel=4 note=68 velocity=76 time=368
note_off channel=4 note=68 velocity=64 time=468
note_on channel=4 note=69 velocity=69 time=12
note_off channel=4 note=69 velocity=64 time=160
note_on channel=4 note=68 velocity=56 time=0
note_on channel=4 note=69 velocity=44 time=160
note_off channel=4 note=68 velocity=64 time=24
note_on channel=4 note=68 velocity=62 time=136
note_off channel=4 note=69 velocity=64 time=24
note_on channel=4 note=69 velocity=69 time=136
note_off channel=4 note=68 velocity=64 time=24
note_off channel=4 note=69 velocity=64 time=284
note_on channel=4 note=62 velocity=69 time=12
note_off channel=4 note=62 velocity=64 time=148
note_on channel=4 note=62 velocity=62 time=812
note_off channel=4 note=62 velocity=64 time=148
note_on channel=4 note=68 velocity=75 time=12
note_off channel=4 note=68 velocity=64 time=156
note_on channel=4 note=69 velocity=69 time=324
note_off channel=4 note=69 velocity=64 time=308
note_on channel=4 note=62 velocity=69 time=12
note_off channel=4 note=62 velocity=64 time=112
note_on channel=4 note=68 velocity=75 time=368
note_off channel=4 note=68 velocity=64 time=468
note_on channel=4 note=69 velocity=69 time=12
note_off channel=4 note=69 velocity=64 time=160
note_on channel=4 note=68 velocity=56 time=0
note_on channel=4 note=69 velocity=44 time=160
note_off channel=4 note=68 velocity=64 time=24
note_on channel=4 note=68 velocity=62 time=136
note_off channel=4 note=69 velocity=64 time=24
note_on channel=4 note=69 velocity=69 time=136
note_off channel=4 note=68 velocity=64 time=24
note_off channel=4 note=69 velocity=64 time=284
note_on channel=4 note=60 velocity=56 time=12
note_off channel=4 note=60 velocity=64 time=160
note_on channel=4 note=62 velocity=65 time=0
note_off channel=4 note=62 velocity=64 time=320
note_on channel=4 note=63 velocity=69 time=0
control_change channel=4 control=11 value=127 time=232
control_change channel=4 control=11 value=121 time=24
control_change channel=4 control=11 value=115 time=24
control_change channel=4 control=11 value=109 time=24
control_change channel=4 control=11 value=103 time=24
control_change channel=4 control=11 value=96 time=24
control_change channel=4 control=11 value=90 time=24
control_change channel=4 control=11 value=84 time=24
control_change channel=4 control=11 value=84 time=0
control_change channel=4 control=11 value=84 time=0
control_change channel=4 control=11 value=84 time=0
control_change channel=4 control=11 value=85 time=120
control_change channel=4 control=11 value=88 time=120
control_change channel=4 control=11 value=89 time=120
control_change channel=4 control=11 value=91 time=120
control_change channel=4 control=11 value=93 time=120
control_change channel=4 control=11 value=95 time=120
control_change channel=4 control=11 value=96 time=120
control_change channel=4 control=11 value=99 time=96
control_change channel=4 control=11 value=100 time=120
control_change channel=4 control=11 value=103 time=120
control_change channel=4 control=11 value=104 time=120
control_change channel=4 control=11 value=106 time=120
control_change channel=4 control=11 value=108 time=120
control_change channel=4 control=11 value=110 time=120
control_change channel=4 control=11 value=111 time=120
control_change channel=4 control=11 value=114 time=96
control_change channel=4 control=11 value=115 time=120
control_change channel=4 control=11 value=118 time=120
control_change channel=4 control=11 value=119 time=120
control_change channel=4 control=11 value=121 time=120
control_change channel=4 control=11 value=123 time=120
control_change channel=4 control=11 value=125 time=120
control_change channel=4 control=11 value=127 time=48
note_on channel=4 note=61 velocity=21 time=320
note_off channel=4 note=63 velocity=64 time=40
note_on channel=4 note=58 velocity=31 time=0
note_on channel=4 note=55 velocity=44 time=40
note_off channel=4 note=61 velocity=64 time=8
note_on channel=4 note=52 velocity=54 time=32
note_off channel=4 note=58 velocity=64 time=8
note_on channel=4 note=50 velocity=75 time=32
note_off channel=4 note=55 velocity=64 time=8
note_off channel=4 note=52 velocity=64 time=40
note_off channel=4 note=50 velocity=64 time=272
control_change channel=4 control=11 value=104 time=0
note_on channel=4 note=53 velocity=81 time=0
control_change channel=4 control=11 value=105 time=120
control_change channel=4 control=11 value=106 time=110
control_change channel=4 control=11 value=108 time=110
control_change channel=4 control=11 value=109 time=110
control_change channel=4 control=11 value=110 time=110
control_change channel=4 control=11 value=111 time=110
control_change channel=4 control=11 value=113 time=110
control_change channel=4 control=11 value=114 time=110
control_change channel=4 control=11 value=115 time=110
control_change channel=4 control=11 value=116 time=120
control_change channel=4 control=11 value=118 time=110
control_change channel=4 control=11 value=119 time=110
control_change channel=4 control=11 value=120 time=110
control_change channel=4 control=11 value=121 time=110
control_change channel=4 control=11 value=123 time=110
control_change channel=4 control=11 value=124 time=110
control_change channel=4 control=11 value=125 time=110
control_change channel=4 control=11 value=127 time=110
note_off channel=4 note=53 velocity=64 time=32
control_change channel=4 control=93 value=30 time=48
control_change channel=4 control=93 value=30 time=0
note_on channel=4 note=61 velocity=75 time=0
note_off channel=4 note=61 velocity=64 time=456
note_on channel=4 note=61 velocity=75 time=24
note_off channel=4 note=61 velocity=64 time=308
note_on channel=4 note=61 velocity=75 time=12
note_off channel=4 note=61 velocity=64 time=148
note_on channel=4 note=53 velocity=75 time=812
note_off channel=4 note=53 velocity=64 time=616
note_on channel=4 note=57 velocity=75 time=24
note_off channel=4 note=57 velocity=64 time=308
note_on channel=4 note=53 velocity=62 time=12
note_off channel=4 note=53 velocity=64 time=148
note_on channel=4 note=60 velocity=75 time=12
note_off channel=4 note=60 velocity=64 time=296
note_on channel=4 note=60 velocity=75 time=24
note_off channel=4 note=60 velocity=64 time=180
note_on channel=4 note=60 velocity=75 time=300
note_off channel=4 note=60 velocity=64 time=616
note_on channel=4 note=60 velocity=75 time=24
note_off channel=4 note=60 velocity=64 time=308
note_on channel=4 note=60 velocity=75 time=12
note_off channel=4 note=60 velocity=64 time=136
note_on channel=4 note=59 velocity=75 time=1304
note_off channel=4 note=59 velocity=64 time=580
note_on channel=4 note=59 velocity=75 time=60
note_off channel=4 note=59 velocity=64 time=168
note_on channel=4 note=59 velocity=75 time=312
note_off channel=4 note=59 velocity=64 time=168
note_on channel=4 note=58 velocity=75 time=312
note_off channel=4 note=58 velocity=64 time=794
note_on channel=4 note=58 velocity=75 time=6
note_off channel=4 note=58 velocity=64 time=1072
note_on channel=4 note=60 velocity=69 time=368
note_off channel=4 note=60 velocity=64 time=1588
note_on channel=4 note=60 velocity=69 time=12
note_off channel=4 note=60 velocity=64 time=1850
<meta message end_of_track time=0>
<meta message text text='Tenor Sax 2' time=0>
control_change channel=5 control=11 value=127 time=0
control_change channel=5 control=7 value=106 time=0
control_change channel=5 control=10 value=51 time=0
control_change channel=5 control=91 value=81 time=0
control_change channel=5 control=93 value=25 time=0
control_change channel=5 control=0 value=56 time=0
control_change channel=5 control=32 value=0 time=0
program_change channel=5 program=66 time=0
control_change channel=5 control=11 value=109 time=9920
note_on channel=5 note=60 velocity=60 time=0
control_change channel=5 control=11 value=110 time=250
control_change channel=5 control=11 value=111 time=250
control_change channel=5 control=11 value=113 time=250
control_change channel=5 control=11 value=114 time=250
control_change channel=5 control=11 value=115 time=240
control_change channel=5 control=11 value=116 time=250
note_off channel=5 note=60 velocity=64 time=86
note_on channel=5 note=61 velocity=62 time=24
control_change channel=5 control=11 value=118 time=140
control_change channel=5 control=11 value=119 time=250
control_change channel=5 control=11 value=120 time=250
control_change channel=5 control=11 value=121 time=240
control_change channel=5 control=11 value=123 time=250
control_change channel=5 control=11 value=124 time=250
control_change channel=5 control=11 value=125 time=250
control_change channel=5 control=11 value=127 time=240
note_off channel=5 note=61 velocity=64 time=26
note_on channel=5 note=59 velocity=75 time=344
note_off channel=5 note=59 velocity=64 time=592
note_on channel=5 note=59 velocity=77 time=48
note_off channel=5 note=59 velocity=64 time=180
note_on channel=5 note=59 velocity=79 time=300
note_off channel=5 note=59 velocity=64 time=180
note_on channel=5 note=58 velocity=80 time=300
note_off channel=5 note=58 velocity=64 time=788
note_on channel=5 note=58 velocity=84 time=12
note_off channel=5 note=58 velocity=64 time=604
note_on channel=5 note=58 velocity=85 time=36
note_off channel=5 note=58 velocity=64 time=284
note_on channel=5 note=57 velocity=86 time=36
note_off channel=5 note=57 velocity=64 time=136
note_on channel=5 note=49 velocity=62 time=53144
note_off channel=5 note=49 velocity=64 time=160
note_on channel=5 note=53 velocity=75 time=0
note_off channel=5 note=53 velocity=64 time=314
note_on channel=5 note=53 velocity=69 time=6
note_off channel=5 note=53 velocity=64 time=142
note_on channel=5 note=50 velocity=75 time=6
note_off channel=5 note=50 velocity=64 time=132
note_on channel=5 note=54 velocity=62 time=10760
note_off channel=5 note=54 velocity=64 time=580
note_on channel=5 note=53 velocity=62 time=60
note_off channel=5 note=53 velocity=64 time=156
note_on channel=5 note=53 velocity=62 time=324
note_off channel=5 note=53 velocity=64 time=308
note_on channel=5 note=53 velocity=62 time=12
note_off channel=5 note=53 velocity=64 time=148
note_on channel=5 note=53 velocity=56 time=12
note_off channel=5 note=53 velocity=64 time=68
note_on channel=5 note=53 velocity=62 time=12
note_off channel=5 note=53 velocity=64 time=80
note_on channel=5 note=53 velocity=65 time=320
note_off channel=5 note=53 velocity=64 time=320
control_change channel=5 control=11 value=104 time=0
note_on channel=5 note=52 velocity=67 time=0
control_change channel=5 control=11 value=105 time=100
control_change channel=5 control=11 value=108 time=80
control_change channel=5 control=11 value=109 time=100
control_change channel=5 control=11 value=111 time=100
control_change channel=5 control=11 value=114 time=90
control_change channel=5 control=11 value=115 time=100
control_change channel=5 control=11 value=118 time=70
control_change channel=5 control=11 value=119 time=100
control_change channel=5 control=11 value=121 time=100
control_change channel=5 control=11 value=124 time=90
control_change channel=5 control=11 value=125 time=100
control_change channel=5 control=11 value=127 time=10
note_off channel=5 note=52 velocity=64 time=92
note_on channel=5 note=58 velocity=69 time=308
note_on channel=5 note=57 velocity=40 time=112
note_on channel=5 note=56 velocity=28 time=40
note_off channel=5 note=58 velocity=64 time=4
note_off channel=5 note=57 velocity=64 time=8
note_on channel=5 note=55 velocity=17 time=28
note_off channel=5 note=56 velocity=64 time=12
note_off channel=5 note=55 velocity=64 time=40
note_on channel=5 note=57 velocity=70 time=236
note_off channel=5 note=57 velocity=64 time=604
note_on channel=5 note=57 velocity=62 time=36
note_off channel=5 note=57 velocity=64 time=308
note_on channel=5 note=57 velocity=50 time=12
note_off channel=5 note=57 velocity=64 time=148
note_on channel=5 note=55 velocity=62 time=12
note_off channel=5 note=55 velocity=64 time=296
note_on channel=5 note=55 velocity=62 time=24
note_off channel=5 note=55 velocity=64 time=168
note_on channel=5 note=54 velocity=62 time=312
control_change channel=5 control=11 value=127 time=160
control_change channel=5 control=11 value=124 time=96
control_change channel=5 control=11 value=121 time=72
control_change channel=5 control=11 value=118 time=120
control_change channel=5 control=11 value=115 time=72
control_change channel=5 control=11 value=111 time=120
control_change channel=5 control=11 value=108 time=120
control_change channel=5 control=11 value=105 time=72
control_change channel=5 control=11 value=101 time=120
note_off channel=5 note=54 velocity=64 time=108
control_change channel=5 control=11 value=98 time=12
control_change channel=5 control=11 value=96 time=24
control_change channel=5 control=11 value=127 time=24
note_on channel=5 note=57 velocity=69 time=8000
note_off channel=5 note=57 velocity=64 time=616
note_on channel=5 note=50 velocity=62 time=24
note_off channel=5 note=50 velocity=64 time=296
note_on channel=5 note=50 velocity=62 time=24
note_off channel=5 note=50 velocity=64 time=136
note_on channel=5 note=57 velocity=75 time=28824
note_off channel=5 note=57 velocity=64 time=308
note_on channel=5 note=57 velocity=75 time=12
note_off channel=5 note=57 velocity=64 time=204
note_on channel=5 note=57 velocity=75 time=436
note_off channel=5 note=57 velocity=64 time=320
note_on channel=5 note=57 velocity=69 time=0
note_off channel=5 note=57 velocity=64 time=148
note_on channel=5 note=57 velocity=75 time=12
note_off channel=5 note=57 velocity=64 time=308
note_on channel=5 note=53 velocity=75 time=12
note_off channel=5 note=53 velocity=64 time=148
note_on channel=5 note=53 velocity=75 time=1932
note_off channel=5 note=53 velocity=64 time=180
note_on channel=5 note=56 velocity=75 time=300
note_off channel=5 note=56 velocity=64 time=308
note_on channel=5 note=56 velocity=75 time=12
note_off channel=5 note=56 velocity=64 time=192
note_on channel=5 note=55 velocity=75 time=288
note_on channel=5 note=57 velocity=54 time=1440
note_off channel=5 note=55 velocity=64 time=16
note_on channel=5 note=56 velocity=62 time=64
note_off channel=5 note=57 velocity=64 time=24
note_on channel=5 note=55 velocity=74 time=56
note_off channel=5 note=56 velocity=64 time=24
note_off channel=5 note=55 velocity=64 time=284
note_on channel=5 note=54 velocity=75 time=12
pitchwheel channel=5 pitch=0 time=160
control_change channel=5 control=11 value=127 time=0
pitchwheel channel=5 pitch=242 time=12
control_change channel=5 control=11 value=124 time=72
control_change channel=5 control=11 value=121 time=72
pitchwheel channel=5 pitch=0 time=48
control_change channel=5 control=11 value=119 time=60
control_change channel=5 control=11 value=116 time=48
pitchwheel channel=5 pitch=-82 time=36
control_change channel=5 control=11 value=114 time=72
pitchwheel channel=5 pitch=-244 time=24
control_change channel=5 control=11 value=111 time=24
pitchwheel channel=5 pitch=-407 time=48
pitchwheel channel=5 pitch=-569 time=60
control_change channel=5 control=11 value=109 time=0
control_change channel=5 control=11 value=106 time=48
pitchwheel channel=5 pitch=-731 time=12
pitchwheel channel=5 pitch=-893 time=36
pitchwheel channel=5 pitch=-1055 time=48
control_change channel=5 control=11 value=104 time=12
pitchwheel channel=5 pitch=-1218 time=24
pitchwheel channel=5 pitch=-1380 time=24
control_change channel=5 control=11 value=101 time=0
pitchwheel channel=5 pitch=-1542 time=36
pitchwheel channel=5 pitch=-1704 time=24
pitchwheel channel=5 pitch=-1866 time=12
pitchwheel channel=5 pitch=-2029 time=24
pitchwheel channel=5 pitch=-2191 time=12
control_change channel=5 control=11 value=99 time=0
pitchwheel channel=5 pitch=-2353 time=12
note_off channel=5 note=54 velocity=64 time=12
pitchwheel channel=5 pitch=-2515 time=0
pitchwheel channel=5 pitch=-2840 time=12
control_change channel=5 control=11 value=96 time=12
control_change channel=5 control=11 value=127 time=24
pitchwheel channel=5 pitch=0 time=0
note_on channel=5 note=50 velocity=75 time=1280
note_off channel=5 note=50 velocity=64 time=616
note_on channel=5 note=50 velocity=75 time=24
note_off channel=5 note=50 velocity=64 time=192
note_on channel=5 note=50 velocity=75 time=288
note_off channel=5 note=50 velocity=64 time=308
note_on channel=5 note=58 velocity=75 time=12
note_off channel=5 note=58 velocity=64 time=148
note_on channel=5 note=58 velocity=75 time=332
note_off channel=5 note=58 velocity=64 time=192
note_on channel=5 note=58 velocity=69 time=288
note_off channel=5 note=58 velocity=64 time=160
note_on channel=5 note=55 velocity=75 time=0
note_off channel=5 note=55 velocity=64 time=468
note_on channel=5 note=52 velocity=75 time=12
note_off channel=5 note=52 velocity=64 time=168
note_on channel=5 note=60 velocity=81 time=792
note_off channel=5 note=60 velocity=64 time=924
note_on channel=5 note=60 velocity=75 time=36
note_off channel=5 note=60 velocity=64 time=192
control_change channel=5 control=11 value=104 time=288
note_on channel=5 note=55 velocity=81 time=0
control_change channel=5 control=11 value=106 time=108
control_change channel=5 control=11 value=109 time=108
note_off channel=5 note=55 velocity=64 time=104
note_on channel=5 note=55 velocity=81 time=0
control_change channel=5 control=11 value=111 time=4
control_change channel=5 control=11 value=114 time=108
control_change channel=5 control=11 value=116 time=108
control_change channel=5 control=11 value=119 time=108
control_change channel=5 control=11 value=121 time=108
control_change channel=5 control=11 value=124 time=108
note_off channel=5 note=55 velocity=64 time=72
control_change channel=5 control=11 value=127 time=24
control_change channel=5 control=11 value=127 time=0
note_on channel=5 note=54 velocity=81 time=0
control_change channel=5 control=11 value=124 time=84
control_change channel=5 control=11 value=121 time=84
control_change channel=5 control=11 value=119 time=108
note_off channel=5 note=54 velocity=64 time=44
note_on channel=5 note=54 velocity=81 time=0
control_change channel=5 control=11 value=116 time=4
control_change channel=5 control=11 value=114 time=108
control_change channel=5 control=11 value=111 time=48
control_change channel=5 control=11 value=109 time=108
control_change channel=5 control=11 value=106 time=60
control_change channel=5 control=11 value=104 time=108
control_change channel=5 control=11 value=101 time=48
note_off channel=5 note=54 velocity=64 time=108
control_change channel=5 control=11 value=127 time=48
control_change channel=5 control=93 value=30 time=17280
note_on channel=5 note=56 velocity=75 time=0
note_off channel=5 note=56 velocity=64 time=456
note_on channel=5 note=56 velocity=75 time=24
note_off channel=5 note=56 velocity=64 time=308
note_on channel=5 note=55 velocity=75 time=12
note_off channel=5 note=55 velocity=64 time=148
note_on channel=5 note=50 velocity=75 time=812
note_off channel=5 note=50 velocity=64 time=616
note_on channel=5 note=53 velocity=75 time=24
note_off channel=5 note=53 velocity=64 time=308
note_on channel=5 note=50 velocity=62 time=12
note_off channel=5 note=50 velocity=64 time=148
note_on channel=5 note=57 velocity=75 time=12
note_off channel=5 note=57 velocity=64 time=296
note_on channel=5 note=57 velocity=75 time=24
note_off channel=5 note=57 velocity=64 time=180
note_on channel=5 note=55 velocity=75 time=300
note_off channel=5 note=55 velocity=64 time=616
note_on channel=5 note=55 velocity=75 time=24
note_off channel=5 note=55 velocity=64 time=308
note_on channel=5 note=54 velocity=75 time=12
note_off channel=5 note=54 velocity=64 time=136
note_on channel=5 note=53 velocity=75 time=1304
note_off channel=5 note=53 velocity=64 time=580
note_on channel=5 note=53 velocity=75 time=60
note_off channel=5 note=53 velocity=64 time=168
note_on channel=5 note=53 velocity=75 time=312
note_off channel=5 note=53 velocity=64 time=168
note_on channel=5 note=52 velocity=75 time=312
note_off channel=5 note=52 velocity=64 time=794
note_on channel=5 note=52 velocity=75 time=6
note_off channel=5 note=52 velocity=64 time=1072
note_on channel=5 note=57 velocity=69 time=368
note_off channel=5 note=57 velocity=64 time=1588
note_on channel=5 note=54 velocity=69 time=12
note_off channel=5 note=54 velocity=64 time=1850
<meta message end_of_track time=0>
<meta message text text='Bari Sax' time=0>
control_change channel=6 control=11 value=127 time=0
control_change channel=6 control=7 value=106 time=0
control_change channel=6 control=10 value=96 time=0
control_change channel=6 control=91 value=81 time=0
control_change channel=6 control=93 value=25 time=0
control_change channel=6 control=0 value=56 time=0
control_change channel=6 control=32 value=0 time=0
program_change channel=6 program=67 time=0
control_change channel=6 control=11 value=109 time=9944
note_on channel=6 note=53 velocity=60 time=0
control_change channel=6 control=11 value=110 time=250
control_change channel=6 control=11 value=111 time=250
control_change channel=6 control=11 value=113 time=250
control_change channel=6 control=11 value=114 time=250
control_change channel=6 control=11 value=115 time=240
control_change channel=6 control=11 value=116 time=250
note_off channel=6 note=53 velocity=64 time=86
note_on channel=6 note=50 velocity=62 time=24
control_change channel=6 control=11 value=118 time=140
control_change channel=6 control=11 value=119 time=250
control_change channel=6 control=11 value=120 time=250
control_change channel=6 control=11 value=121 time=240
control_change channel=6 control=11 value=123 time=250
control_change channel=6 control=11 value=124 time=250
control_change channel=6 control=11 value=125 time=250
control_change channel=6 control=11 value=127 time=240
note_off channel=6 note=50 velocity=64 time=26
note_on channel=6 note=55 velocity=75 time=344
note_off channel=6 note=55 velocity=64 time=592
note_on channel=6 note=55 velocity=77 time=48
note_off channel=6 note=55 velocity=64 time=180
note_on channel=6 note=55 velocity=79 time=300
note_off channel=6 note=55 velocity=64 time=180
note_on channel=6 note=60 velocity=81 time=300
note_off channel=6 note=60 velocity=64 time=788
note_on channel=6 note=60 velocity=84 time=12
note_off channel=6 note=60 velocity=64 time=604
note_on channel=6 note=60 velocity=86 time=36
note_off channel=6 note=60 velocity=64 time=284
note_on channel=6 note=53 velocity=86 time=36
note_off channel=6 note=53 velocity=64 time=136
note_on channel=6 note=46 velocity=62 time=53120
note_off channel=6 note=46 velocity=64 time=160
note_on channel=6 note=49 velocity=75 time=0
note_off channel=6 note=49 velocity=64 time=314
note_on channel=6 note=49 velocity=69 time=6
note_off channel=6 note=49 velocity=64 time=142
note_on channel=6 note=48 velocity=75 time=6
note_off channel=6 note=48 velocity=64 time=132
note_on channel=6 note=44 velocity=62 time=10760
note_off channel=6 note=44 velocity=64 time=580
note_on channel=6 note=43 velocity=62 time=60
note_off channel=6 note=43 velocity=64 time=156
note_on channel=6 note=43 velocity=62 time=324
note_off channel=6 note=43 velocity=64 time=308
note_on channel=6 note=43 velocity=62 time=12
note_off channel=6 note=43 velocity=64 time=148
note_on channel=6 note=43 velocity=56 time=12
note_off channel=6 note=43 velocity=64 time=68
note_on channel=6 note=43 velocity=62 time=12
note_off channel=6 note=43 velocity=64 time=80
note_on channel=6 note=49 velocity=65 time=320
note_off channel=6 note=49 velocity=64 time=320
control_change channel=6 control=11 value=104 time=0
note_on channel=6 note=48 velocity=67 time=0
control_change channel=6 control=11 value=105 time=100
control_change channel=6 control=11 value=108 time=80
control_change channel=6 control=11 value=109 time=100
control_change channel=6 control=11 value=111 time=100
control_change channel=6 control=11 value=114 time=90
control_change channel=6 control=11 value=115 time=100
control_change channel=6 control=11 value=118 time=70
control_change channel=6 control=11 value=119 time=100
control_change channel=6 control=11 value=121 time=100
control_change channel=6 control=11 value=124 time=90
control_change channel=6 control=11 value=125 time=100
control_change channel=6 control=11 value=127 time=10
note_off channel=6 note=48 velocity=64 time=92
note_on channel=6 note=42 velocity=69 time=308
note_on channel=6 note=41 velocity=40 time=112
note_on channel=6 note=40 velocity=28 time=40
note_off channel=6 note=42 velocity=64 time=4
note_off channel=6 note=41 velocity=64 time=8
note_on channel=6 note=39 velocity=17 time=28
note_off channel=6 note=40 velocity=64 time=12
note_off channel=6 note=39 velocity=64 time=40
note_on channel=6 note=41 velocity=70 time=236
note_off channel=6 note=41 velocity=64 time=604
note_on channel=6 note=41 velocity=62 time=36
note_off channel=6 note=41 velocity=64 time=308
note_on channel=6 note=41 velocity=50 time=12
note_off channel=6 note=41 velocity=64 time=148
note_on channel=6 note=45 velocity=62 time=12
note_off channel=6 note=45 velocity=64 time=296
note_on channel=6 note=39 velocity=62 time=24
note_off channel=6 note=39 velocity=64 time=168
note_on channel=6 note=38 velocity=62 time=312
control_change channel=6 control=11 value=127 time=160
control_change channel=6 control=11 value=124 time=96
control_change channel=6 control=11 value=121 time=72
control_change channel=6 control=11 value=118 time=120
control_change channel=6 control=11 value=115 time=72
control_change channel=6 control=11 value=111 time=120
control_change channel=6 control=11 value=108 time=120
control_change channel=6 control=11 value=105 time=72
control_change channel=6 control=11 value=101 time=120
note_off channel=6 note=38 velocity=64 time=108
control_change channel=6 control=11 value=98 time=12
control_change channel=6 control=11 value=96 time=24
control_change channel=6 control=11 value=127 time=24
note_on channel=6 note=64 velocity=75 time=320
note_off channel=6 note=64 velocity=64 time=148
note_on channel=6 note=62 velocity=62 time=12
note_off channel=6 note=62 velocity=64 time=296
note_on channel=6 note=57 velocity=69 time=24
control_change channel=6 control=11 value=127 time=160
control_change channel=6 control=11 value=119 time=24
control_change channel=6 control=11 value=111 time=24
control_change channel=6 control=11 value=104 time=24
control_change channel=6 control=11 value=96 time=24
control_change channel=6 control=11 value=89 time=24
control_change channel=6 control=11 value=89 time=0
control_change channel=6 control=11 value=93 time=120
control_change channel=6 control=11 value=96 time=96
control_change channel=6 control=11 value=99 time=72
control_change channel=6 control=11 value=103 time=96
control_change channel=6 control=11 value=106 time=120
control_change channel=6 control=11 value=109 time=48
control_change channel=6 control=11 value=113 time=120
control_change channel=6 control=11 value=116 time=96
control_change channel=6 control=11 value=119 time=72
control_change channel=6 control=11 value=123 time=96
control_change channel=6 control=11 value=127 time=96
note_off channel=6 note=57 velocity=64 time=104
note_on channel=6 note=64 velocity=75 time=24
note_off channel=6 note=64 velocity=64 time=148
note_on channel=6 note=62 velocity=62 time=12
note_off channel=6 note=62 velocity=64 time=296
note_on channel=6 note=57 velocity=69 time=24
control_change channel=6 control=11 value=127 time=160
control_change channel=6 control=11 value=119 time=24
control_change channel=6 control=11 value=111 time=24
control_change channel=6 control=11 value=104 time=24
control_change channel=6 control=11 value=96 time=24
control_change channel=6 control=11 value=89 time=24
control_change channel=6 control=11 value=89 time=0
control_change channel=6 control=11 value=93 time=120
control_change channel=6 control=11 value=96 time=96
control_change channel=6 control=11 value=99 time=72
control_change channel=6 control=11 value=103 time=96
control_change channel=6 control=11 value=106 time=120
control_change channel=6 control=11 value=109 time=48
control_change channel=6 control=11 value=113 time=120
control_change channel=6 control=11 value=116 time=96
control_change channel=6 control=11 value=119 time=72
control_change channel=6 control=11 value=123 time=96
control_change channel=6 control=11 value=127 time=96
note_off channel=6 note=57 velocity=64 time=104
note_on channel=6 note=62 velocity=75 time=24
note_off channel=6 note=62 velocity=64 time=148
note_on channel=6 note=60 velocity=62 time=12
note_off channel=6 note=60 velocity=64 time=296
note_on channel=6 note=55 velocity=69 time=24
control_change channel=6 control=11 value=127 time=232
control_change channel=6 control=11 value=121 time=24
control_change channel=6 control=11 value=115 time=24
control_change channel=6 control=11 value=109 time=24
control_change channel=6 control=11 value=103 time=24
control_change channel=6 control=11 value=96 time=24
control_change channel=6 control=11 value=90 time=24
control_change channel=6 control=11 value=85 time=24
control_change channel=6 control=11 value=84 time=0
control_change channel=6 control=11 value=84 time=0
control_change channel=6 control=11 value=85 time=120
control_change channel=6 control=11 value=88 time=120
control_change channel=6 control=11 value=89 time=120
control_change channel=6 control=11 value=91 time=120
control_change channel=6 control=11 value=94 time=120
control_change channel=6 control=11 value=95 time=120
control_change channel=6 control=11 value=98 time=120
control_change channel=6 control=11 value=99 time=120
control_change channel=6 control=11 value=101 time=120
control_change channel=6 control=11 value=104 time=120
control_change channel=6 control=11 value=105 time=120
control_change channel=6 control=11 value=108 time=120
control_change channel=6 control=11 value=109 time=120
control_change channel=6 control=11 value=111 time=120
control_change channel=6 control=11 value=114 time=120
control_change channel=6 control=11 value=115 time=120
control_change channel=6 control=11 value=118 time=120
control_change channel=6 control=11 value=119 time=120
control_change channel=6 control=11 value=121 time=120
control_change channel=6 control=11 value=124 time=120
control_change channel=6 control=11 value=125 time=120
control_change channel=6 control=11 value=127 time=24
note_off channel=6 note=55 velocity=64 time=368
note_on channel=6 note=41 velocity=69 time=48
note_off channel=6 note=41 velocity=64 time=616
note_on channel=6 note=46 velocity=62 time=24
note_off channel=6 note=46 velocity=64 time=296
note_on channel=6 note=46 velocity=62 time=24
note_off channel=6 note=46 velocity=64 time=136
note_on channel=6 note=56 velocity=81 time=13944
note_off channel=6 note=56 velocity=64 time=308
note_on channel=6 note=57 velocity=81 time=12
note_off channel=6 note=57 velocity=64 time=180
note_on channel=6 note=62 velocity=81 time=300
note_off channel=6 note=62 velocity=64 time=1072
note_on channel=6 note=56 velocity=81 time=48
note_off channel=6 note=56 velocity=64 time=308
note_on channel=6 note=57 velocity=81 time=12
note_off channel=6 note=57 velocity=64 time=180
note_on channel=6 note=50 velocity=81 time=300
note_off channel=6 note=50 velocity=64 time=1072
note_on channel=6 note=56 velocity=81 time=48
note_off channel=6 note=56 velocity=64 time=180
note_on channel=6 note=57 velocity=81 time=300
note_off channel=6 note=57 velocity=64 time=180
note_on channel=6 note=62 velocity=81 time=300
note_off channel=6 note=62 velocity=64 time=912
note_on channel=6 note=56 velocity=81 time=48
note_off channel=6 note=56 velocity=64 time=308
note_on channel=6 note=57 velocity=81 time=12
note_off channel=6 note=57 velocity=64 time=180
note_on channel=6 note=50 velocity=81 time=300
note_off channel=6 note=50 velocity=64 time=1072
note_on channel=6 note=56 velocity=81 time=48
note_off channel=6 note=56 velocity=64 time=180
note_on channel=6 note=57 velocity=81 time=300
note_off channel=6 note=57 velocity=64 time=180
note_on channel=6 note=62 velocity=81 time=300
note_off channel=6 note=62 velocity=64 time=912
note_on channel=6 note=64 velocity=81 time=48
note_off channel=6 note=64 velocity=64 time=308
note_on channel=6 note=62 velocity=81 time=12
note_off channel=6 note=62 velocity=64 time=180
note_on channel=6 note=50 velocity=81 time=300
note_off channel=6 note=50 velocity=64 time=1072
note_on channel=6 note=50 velocity=81 time=48
note_off channel=6 note=50 velocity=64 time=320
note_on channel=6 note=53 velocity=74 time=0
note_off channel=6 note=53 velocity=64 time=160
note_on channel=6 note=56 velocity=81 time=0
note_off channel=6 note=56 velocity=64 time=320
note_on channel=6 note=55 velocity=81 time=0
control_change channel=6 control=11 value=127 time=160
control_change channel=6 control=11 value=125 time=120
control_change channel=6 control=11 value=124 time=120
control_change channel=6 control=11 value=123 time=120
control_change channel=6 control=11 value=121 time=120
control_change channel=6 control=11 value=120 time=120
control_change channel=6 control=11 value=119 time=120
control_change channel=6 control=11 value=118 time=120
control_change channel=6 control=11 value=115 time=120
control_change channel=6 control=11 value=114 time=120
control_change channel=6 control=11 value=113 time=120
control_change channel=6 control=11 value=111 time=120
control_change channel=6 control=11 value=110 time=120
control_change channel=6 control=11 value=109 time=120
control_change channel=6 control=11 value=108 time=120
control_change channel=6 control=11 value=105 time=120
note_off channel=6 note=55 velocity=64 time=72
control_change channel=6 control=11 value=127 time=48
note_on channel=6 note=56 velocity=75 time=480
note_off channel=6 note=56 velocity=64 time=308
note_on channel=6 note=56 velocity=75 time=12
note_off channel=6 note=56 velocity=64 time=204
note_on channel=6 note=53 velocity=62 time=276
note_off channel=6 note=53 velocity=64 time=160
note_on channel=6 note=56 velocity=75 time=0
note_off channel=6 note=56 velocity=64 time=320
note_on channel=6 note=56 velocity=69 time=0
note_off channel=6 note=56 velocity=64 time=148
note_on channel=6 note=53 velocity=75 time=12
note_off channel=6 note=53 velocity=64 time=308
note_on channel=6 note=50 velocity=75 time=12
note_off channel=6 note=50 velocity=64 time=148
note_on channel=6 note=47 velocity=75 time=1932
note_off channel=6 note=47 velocity=64 time=180
note_on channel=6 note=40 velocity=75 time=300
note_off channel=6 note=40 velocity=64 time=308
note_on channel=6 note=40 velocity=75 time=12
note_off channel=6 note=40 velocity=64 time=192
note_on channel=6 note=45 velocity=75 time=288
note_on channel=6 note=47 velocity=54 time=1440
note_off channel=6 note=45 velocity=64 time=16
note_on channel=6 note=46 velocity=62 time=64
note_off channel=6 note=47 velocity=64 time=24
note_on channel=6 note=45 velocity=74 time=56
note_off channel=6 note=46 velocity=64 time=24
note_off channel=6 note=45 velocity=64 time=284
note_on channel=6 note=38 velocity=75 time=12
pitchwheel channel=6 pitch=0 time=160
control_change channel=6 control=11 value=127 time=0
pitchwheel channel=6 pitch=242 time=12
control_change channel=6 control=11 value=124 time=72
control_change channel=6 control=11 value=121 time=72
pitchwheel channel=6 pitch=0 time=48
control_change channel=6 control=11 value=119 time=60
control_change channel=6 control=11 value=116 time=48
pitchwheel channel=6 pitch=-82 time=36
control_change channel=6 control=11 value=114 time=72
pitchwheel channel=6 pitch=-244 time=24
control_change channel=6 control=11 value=111 time=24
pitchwheel channel=6 pitch=-407 time=48
pitchwheel channel=6 pitch=-569 time=60
control_change channel=6 control=11 value=109 time=0
control_change channel=6 control=11 value=106 time=48
pitchwheel channel=6 pitch=-731 time=12
pitchwheel channel=6 pitch=-893 time=36
pitchwheel channel=6 pitch=-1055 time=48
control_change channel=6 control=11 value=104 time=12
pitchwheel channel=6 pitch=-1218 time=24
pitchwheel channel=6 pitch=-1380 time=24
control_change channel=6 control=11 value=101 time=0
pitchwheel channel=6 pitch=-1542 time=36
pitchwheel channel=6 pitch=-1704 time=24
pitchwheel channel=6 pitch=-1866 time=12
pitchwheel channel=6 pitch=-2029 time=24
pitchwheel channel=6 pitch=-2191 time=12
control_change channel=6 control=11 value=99 time=0
pitchwheel channel=6 pitch=-2353 time=12
note_off channel=6 note=38 velocity=64 time=12
pitchwheel channel=6 pitch=-2515 time=0
pitchwheel channel=6 pitch=-2840 time=12
control_change channel=6 control=11 value=96 time=12
control_change channel=6 control=11 value=127 time=24
pitchwheel channel=6 pitch=0 time=0
note_on channel=6 note=43 velocity=75 time=1280
note_off channel=6 note=43 velocity=64 time=616
note_on channel=6 note=43 velocity=75 time=24
note_off channel=6 note=43 velocity=64 time=192
note_on channel=6 note=43 velocity=75 time=288
note_off channel=6 note=43 velocity=64 time=308
note_on channel=6 note=48 velocity=75 time=12
note_off channel=6 note=48 velocity=64 time=148
note_on channel=6 note=48 velocity=75 time=332
note_off channel=6 note=48 velocity=64 time=192
note_on channel=6 note=55 velocity=69 time=288
note_off channel=6 note=55 velocity=64 time=160
note_on channel=6 note=48 velocity=75 time=0
note_off channel=6 note=48 velocity=64 time=468
note_on channel=6 note=46 velocity=75 time=12
note_off channel=6 note=46 velocity=64 time=168
note_on channel=6 note=45 velocity=81 time=792
note_off channel=6 note=45 velocity=64 time=924
note_on channel=6 note=45 velocity=75 time=36
note_off channel=6 note=45 velocity=64 time=192
control_change channel=6 control=11 value=104 time=288
note_on channel=6 note=46 velocity=81 time=0
control_change channel=6 control=11 value=106 time=108
control_change channel=6 control=11 value=109 time=108
note_off channel=6 note=46 velocity=64 time=104
note_on channel=6 note=39 velocity=81 time=0
control_change channel=6 control=11 value=111 time=4
control_change channel=6 control=11 value=114 time=108
control_change channel=6 control=11 value=116 time=108
control_change channel=6 control=11 value=119 time=108
control_change channel=6 control=11 value=121 time=108
control_change channel=6 control=11 value=124 time=108
note_off channel=6 note=39 velocity=64 time=72
control_change channel=6 control=11 value=127 time=24
control_change channel=6 control=11 value=127 time=0
note_on channel=6 note=38 velocity=81 time=0
control_change channel=6 control=11 value=124 time=84
control_change channel=6 control=11 value=121 time=84
control_change channel=6 control=11 value=119 time=108
note_off channel=6 note=38 velocity=64 time=44
note_on channel=6 note=44 velocity=81 time=0
control_change channel=6 control=11 value=116 time=4
control_change channel=6 control=11 value=114 time=108
control_change channel=6 control=11 value=111 time=48
control_change channel=6 control=11 value=109 time=108
control_change channel=6 control=11 value=106 time=60
control_change channel=6 control=11 value=104 time=108
control_change channel=6 control=11 value=101 time=48
note_off channel=6 note=44 velocity=64 time=108
control_change channel=6 control=11 value=127 time=48
control_change channel=6 control=93 value=30 time=17280
note_on channel=6 note=46 velocity=75 time=0
note_off channel=6 note=46 velocity=64 time=456
note_on channel=6 note=46 velocity=75 time=24
note_off channel=6 note=46 velocity=64 time=308
note_on channel=6 note=39 velocity=75 time=12
note_off channel=6 note=39 velocity=64 time=148
note_on channel=6 note=48 velocity=75 time=812
note_off channel=6 note=48 velocity=64 time=616
note_on channel=6 note=50 velocity=75 time=24
note_off channel=6 note=50 velocity=64 time=308
note_on channel=6 note=48 velocity=62 time=12
note_off channel=6 note=48 velocity=64 time=148
note_on channel=6 note=53 velocity=75 time=12
note_off channel=6 note=53 velocity=64 time=296
note_on channel=6 note=48 velocity=75 time=24
note_off channel=6 note=48 velocity=64 time=180
note_on channel=6 note=45 velocity=75 time=300
note_off channel=6 note=45 velocity=64 time=616
note_on channel=6 note=45 velocity=75 time=24
note_off channel=6 note=45 velocity=64 time=308
note_on channel=6 note=38 velocity=75 time=12
note_off channel=6 note=38 velocity=64 time=136
note_on channel=6 note=43 velocity=75 time=1304
note_off channel=6 note=43 velocity=64 time=580
note_on channel=6 note=43 velocity=75 time=60
note_off channel=6 note=43 velocity=64 time=168
note_on channel=6 note=43 velocity=75 time=312
note_off channel=6 note=43 velocity=64 time=168
note_on channel=6 note=48 velocity=75 time=312
note_off channel=6 note=48 velocity=64 time=794
note_on channel=6 note=48 velocity=75 time=6
note_off channel=6 note=48 velocity=64 time=1072
note_on channel=6 note=41 velocity=75 time=368
note_off channel=6 note=41 velocity=64 time=1588
note_on channel=6 note=38 velocity=75 time=12
note_off channel=6 note=38 velocity=64 time=1850
<meta message end_of_track time=0>
<meta message text text='Trumpet 1' time=0>
control_change channel=7 control=11 value=127 time=0
control_change channel=7 control=7 value=106 time=0
control_change channel=7 control=10 value=74 time=0
control_change channel=7 control=91 value=94 time=0
control_change channel=7 control=93 value=30 time=0
control_change channel=7 control=0 value=56 time=0
control_change channel=7 control=32 value=0 time=0
program_change channel=7 program=56 time=0
note_on channel=7 note=80 velocity=121 time=13760
note_off channel=7 note=80 velocity=64 time=580
note_on channel=7 note=81 velocity=121 time=60
note_off channel=7 note=81 velocity=64 time=168
note_on channel=7 note=74 velocity=121 time=312
note_off channel=7 note=74 velocity=64 time=168
note_on channel=7 note=80 velocity=121 time=312
note_off channel=7 note=80 velocity=64 time=764
note_on channel=7 note=81 velocity=121 time=36
note_off channel=7 note=81 velocity=64 time=592
note_on channel=7 note=74 velocity=121 time=48
note_off channel=7 note=74 velocity=64 time=272
note_on channel=7 note=77 velocity=121 time=48
note_off channel=7 note=77 velocity=64 time=124
note_on channel=7 note=65 velocity=75 time=19556
note_off channel=7 note=65 velocity=64 time=124
note_on channel=7 note=73 velocity=80 time=36
note_off channel=7 note=73 velocity=64 time=132
note_on channel=7 note=74 velocity=75 time=348
note_off channel=7 note=74 velocity=64 time=294
control_change channel=7 control=11 value=109 time=26
note_on channel=7 note=77 velocity=82 time=0
control_change channel=7 control=11 value=110 time=100
control_change channel=7 control=11 value=111 time=100
control_change channel=7 control=11 value=113 time=100
control_change channel=7 control=11 value=114 time=100
control_change channel=7 control=11 value=115 time=100
control_change channel=7 control=11 value=116 time=100
control_change channel=7 control=11 value=118 time=100
control_change channel=7 control=11 value=119 time=100
control_change channel=7 control=11 value=120 time=100
control_change channel=7 control=11 value=121 time=100
control_change channel=7 control=11 value=123 time=100
control_change channel=7 control=11 value=124 time=100
control_change channel=7 control=11 value=125 time=100
control_change channel=7 control=11 value=127 time=60
note_off channel=7 note=77 velocity=64 time=44
note_on channel=7 note=76 velocity=85 time=36
note_off channel=7 note=76 velocity=64 time=112
note_on channel=7 note=74 velocity=81 time=368
note_off channel=7 note=74 velocity=64 time=144
note_on channel=7 note=76 velocity=75 time=336
note_off channel=7 note=76 velocity=64 time=136
note_on channel=7 note=64 velocity=80 time=24
note_off channel=7 note=64 velocity=64 time=284
note_on channel=7 note=64 velocity=75 time=36
note_off channel=7 note=64 velocity=64 time=136
note_on channel=7 note=69 velocity=80 time=24
note_off channel=7 note=69 velocity=64 time=120
note_on channel=7 note=72 velocity=80 time=360
note_off channel=7 note=72 velocity=64 time=284
note_on channel=7 note=76 velocity=80 time=36
note_off channel=7 note=76 velocity=64 time=120
note_on channel=7 note=71 velocity=80 time=360
control_change channel=7 control=11 value=127 time=232
control_change channel=7 control=11 value=120 time=24
control_change channel=7 control=11 value=114 time=24
control_change channel=7 control=11 value=108 time=24
control_change channel=7 control=11 value=101 time=24
control_change channel=7 control=11 value=94 time=24
control_change channel=7 control=11 value=96 time=120
control_change channel=7 control=11 value=99 time=120
control_change channel=7 control=11 value=101 time=120
control_change channel=7 control=11 value=104 time=120
control_change channel=7 control=11 value=106 time=120
control_change channel=7 control=11 value=109 time=120
control_change channel=7 control=11 value=111 time=120
control_change channel=7 control=11 value=114 time=120
control_change channel=7 control=11 value=116 time=120
control_change channel=7 control=11 value=119 time=120
control_change channel=7 control=11 value=121 time=120
control_change channel=7 control=11 value=124 time=120
control_change channel=7 control=11 value=127 time=120
note_off channel=7 note=71 velocity=64 time=120
note_on channel=7 note=62 velocity=75 time=368
note_off channel=7 note=62 velocity=64 time=124
note_on channel=7 note=67 velocity=80 time=36
note_off channel=7 note=67 velocity=64 time=120
note_on channel=7 note=70 velocity=79 time=360
note_off channel=7 note=70 velocity=64 time=284
note_on channel=7 note=74 velocity=83 time=36
note_off channel=7 note=74 velocity=64 time=108
note_on channel=7 note=77 velocity=89 time=372
note_off channel=7 note=77 velocity=64 time=592
note_on channel=7 note=76 velocity=85 time=48
note_off channel=7 note=76 velocity=64 time=296
note_on channel=7 note=74 velocity=75 time=24
note_off channel=7 note=74 velocity=64 time=134
note_on channel=7 note=72 velocity=82 time=26
note_off channel=7 note=72 velocity=64 time=284
note_on channel=7 note=74 velocity=78 time=36
note_off channel=7 note=74 velocity=64 time=120
note_on channel=7 note=69 velocity=85 time=360
control_change channel=7 control=11 value=127 time=232
control_change channel=7 control=11 value=120 time=24
control_change channel=7 control=11 value=114 time=24
control_change channel=7 control=11 value=108 time=24
control_change channel=7 control=11 value=101 time=24
control_change channel=7 control=11 value=95 time=24
control_change channel=7 control=11 value=95 time=0
control_change channel=7 control=11 value=96 time=120
control_change channel=7 control=11 value=98 time=120
control_change channel=7 control=11 value=99 time=120
control_change channel=7 control=11 value=100 time=120
control_change channel=7 control=11 value=101 time=120
control_change channel=7 control=11 value=103 time=120
control_change channel=7 control=11 value=104 time=120
control_change channel=7 control=11 value=105 time=120
control_change channel=7 control=11 value=106 time=120
control_change channel=7 control=11 value=108 time=120
control_change channel=7 control=11 value=109 time=120
control_change channel=7 control=11 value=110 time=120
control_change channel=7 control=11 value=111 time=120
control_change channel=7 control=11 value=113 time=120
control_change channel=7 control=11 value=114 time=120
control_change channel=7 control=11 value=115 time=120
control_change channel=7 control=11 value=116 time=120
control_change channel=7 control=11 value=118 time=120
control_change channel=7 control=11 value=119 time=120
control_change channel=7 control=11 value=120 time=120
control_change channel=7 control=11 value=121 time=120
control_change channel=7 control=11 value=123 time=120
control_change channel=7 control=11 value=124 time=120
control_change channel=7 control=11 value=125 time=120
control_change channel=7 control=11 value=127 time=48
note_off channel=7 note=69 velocity=64 time=192
note_on channel=7 note=70 velocity=85 time=48
note_off channel=7 note=70 velocity=64 time=284
note_on channel=7 note=69 velocity=85 time=36
note_off channel=7 note=69 velocity=64 time=112
note_on channel=7 note=65 velocity=90 time=15728
note_off channel=7 note=65 velocity=64 time=136
note_on channel=7 note=73 velocity=96 time=24
note_off channel=7 note=73 velocity=64 time=144
note_on channel=7 note=74 velocity=101 time=336
note_off channel=7 note=74 velocity=64 time=296
note_on channel=7 note=77 velocity=90 time=24
note_off channel=7 note=77 velocity=64 time=136
note_on channel=7 note=79 velocity=103 time=24
note_off channel=7 note=79 velocity=64 time=296
note_on channel=7 note=80 velocity=109 time=24
note_off channel=7 note=80 velocity=64 time=604
note_on channel=7 note=79 velocity=103 time=36
note_off channel=7 note=79 velocity=64 time=308
note_on channel=7 note=77 velocity=106 time=12
control_change channel=7 control=11 value=127 time=16
control_change channel=7 control=11 value=125 time=120
control_change channel=7 control=11 value=123 time=120
control_change channel=7 control=11 value=121 time=120
control_change channel=7 control=11 value=119 time=120
control_change channel=7 control=11 value=118 time=120
control_change channel=7 control=11 value=115 time=96
control_change channel=7 control=11 value=114 time=120
control_change channel=7 control=11 value=111 time=120
note_off channel=7 note=77 velocity=64 time=120
control_change channel=7 control=11 value=110 time=0
control_change channel=7 control=11 value=109 time=24
control_change channel=7 control=11 value=127 time=24
note_on channel=7 note=65 velocity=90 time=320
note_off channel=7 note=65 velocity=64 time=136
note_on channel=7 note=68 velocity=96 time=24
note_off channel=7 note=68 velocity=64 time=144
note_on channel=7 note=69 velocity=101 time=336
note_off channel=7 note=69 velocity=64 time=296
note_on channel=7 note=72 velocity=90 time=24
note_off channel=7 note=72 velocity=64 time=136
note_on channel=7 note=74 velocity=103 time=24
note_off channel=7 note=74 velocity=64 time=296
note_on channel=7 note=75 velocity=109 time=24
note_off channel=7 note=75 velocity=64 time=604
note_on channel=7 note=74 velocity=103 time=36
note_off channel=7 note=74 velocity=64 time=308
note_on channel=7 note=72 velocity=106 time=12
control_change channel=7 control=11 value=127 time=16
control_change channel=7 control=11 value=125 time=120
control_change channel=7 control=11 value=123 time=120
control_change channel=7 control=11 value=121 time=120
control_change channel=7 control=11 value=119 time=120
control_change channel=7 control=11 value=118 time=120
control_change channel=7 control=11 value=115 time=96
control_change channel=7 control=11 value=114 time=120
control_change channel=7 control=11 value=111 time=120
note_off channel=7 note=72 velocity=64 time=120
control_change channel=7 control=11 value=110 time=0
control_change channel=7 control=11 value=109 time=24
control_change channel=7 control=11 value=127 time=24
note_on channel=7 note=70 velocity=96 time=7040
note_off channel=7 note=70 velocity=64 time=580
note_on channel=7 note=69 velocity=96 time=60
note_off channel=7 note=69 velocity=64 time=144
note_on channel=7 note=69 velocity=96 time=336
note_off channel=7 note=69 velocity=64 time=296
note_on channel=7 note=67 velocity=96 time=24
note_off channel=7 note=67 velocity=64 time=136
note_on channel=7 note=69 velocity=90 time=24
note_off channel=7 note=69 velocity=64 time=56
note_on channel=7 note=69 velocity=96 time=24
note_off channel=7 note=69 velocity=64 time=68
note_on channel=7 note=67 velocity=96 time=332
note_off channel=7 note=67 velocity=64 time=308
control_change channel=7 control=11 value=104 time=12
note_on channel=7 note=69 velocity=103 time=0
control_change channel=7 control=11 value=105 time=100
control_change channel=7 control=11 value=108 time=80
control_change channel=7 control=11 value=109 time=100
control_change channel=7 control=11 value=111 time=100
control_change channel=7 control=11 value=114 time=90
control_change channel=7 control=11 value=115 time=100
control_change channel=7 control=11 value=118 time=70
control_change channel=7 control=11 value=119 time=100
control_change channel=7 control=11 value=121 time=100
control_change channel=7 control=11 value=124 time=90
control_change channel=7 control=11 value=125 time=100
control_change channel=7 control=11 value=127 time=10
note_off channel=7 note=69 velocity=64 time=80
note_on channel=7 note=72 velocity=103 time=320
note_on channel=7 note=71 velocity=66 time=112
note_on channel=7 note=70 velocity=47 time=40
note_off channel=7 note=72 velocity=64 time=4
note_off channel=7 note=71 velocity=64 time=8
note_on channel=7 note=69 velocity=33 time=28
note_off channel=7 note=70 velocity=64 time=12
note_off channel=7 note=69 velocity=64 time=40
note_on channel=7 note=74 velocity=103 time=236
note_off channel=7 note=74 velocity=64 time=592
note_on channel=7 note=74 velocity=96 time=48
note_off channel=7 note=74 velocity=64 time=296
note_on channel=7 note=72 velocity=85 time=24
note_off channel=7 note=72 velocity=64 time=136
note_on channel=7 note=74 velocity=96 time=24
note_off channel=7 note=74 velocity=64 time=284
note_on channel=7 note=72 velocity=96 time=36
note_off channel=7 note=72 velocity=64 time=156
note_on channel=7 note=74 velocity=96 time=324
control_change channel=7 control=11 value=127 time=160
control_change channel=7 control=11 value=125 time=120
control_change channel=7 control=11 value=123 time=120
control_change channel=7 control=11 value=121 time=120
control_change channel=7 control=11 value=119 time=120
control_change channel=7 control=11 value=118 time=120
control_change channel=7 control=11 value=115 time=120
control_change channel=7 control=11 value=114 time=120
control_change channel=7 control=11 value=111 time=120
control_change channel=7 control=11 value=110 time=120
control_change channel=7 control=11 value=108 time=120
control_change channel=7 control=11 value=106 time=120
control_change channel=7 control=11 value=104 time=120
control_change channel=7 control=11 value=103 time=120
control_change channel=7 control=11 value=100 time=120
control_change channel=7 control=11 value=99 time=120
note_off channel=7 note=74 velocity=64 time=60
control_change channel=7 control=11 value=96 time=36
control_change channel=7 control=11 value=127 time=24
note_on channel=7 note=73 velocity=103 time=320
note_on channel=7 note=72 velocity=51 time=112
note_on channel=7 note=71 velocity=27 time=40
note_off channel=7 note=73 velocity=64 time=4
note_off channel=7 note=72 velocity=64 time=8
note_off channel=7 note=71 velocity=64 time=40
note_on channel=7 note=76 velocity=103 time=276
note_off channel=7 note=76 velocity=64 time=580
note_on channel=7 note=74 velocity=103 time=60
note_off channel=7 note=74 velocity=64 time=168
note_on channel=7 note=73 velocity=103 time=632
note_on channel=7 note=72 velocity=51 time=112
note_on channel=7 note=71 velocity=27 time=40
note_off channel=7 note=73 velocity=64 time=4
note_off channel=7 note=72 velocity=64 time=8
note_off channel=7 note=71 velocity=64 time=40
note_on channel=7 note=74 velocity=103 time=276
note_off channel=7 note=74 velocity=64 time=580
note_on channel=7 note=72 velocity=103 time=60
note_off channel=7 note=72 velocity=64 time=168
note_on channel=7 note=67 velocity=96 time=632
note_off channel=7 note=67 velocity=64 time=444
note_on channel=7 note=70 velocity=99 time=36
note_off channel=7 note=70 velocity=64 time=444
note_on channel=7 note=72 velocity=103 time=36
note_off channel=7 note=72 velocity=64 time=444
note_on channel=7 note=70 velocity=100 time=36
note_off channel=7 note=70 velocity=64 time=136
note_on channel=7 note=74 velocity=106 time=24
note_off channel=7 note=74 velocity=64 time=148
note_on channel=7 note=70 velocity=90 time=12
note_off channel=7 note=70 velocity=64 time=148
note_on channel=7 note=77 velocity=109 time=12
note_off channel=7 note=77 velocity=64 time=924
note_on channel=7 note=68 velocity=103 time=36
note_off channel=7 note=68 velocity=64 time=604
note_on channel=7 note=65 velocity=99 time=36
note_off channel=7 note=65 velocity=64 time=284
note_on channel=7 note=65 velocity=97 time=36
note_off channel=7 note=65 velocity=64 time=124
note_on channel=7 note=81 velocity=109 time=15236
note_off channel=7 note=81 velocity=64 time=604
note_on channel=7 note=76 velocity=109 time=36
note_off channel=7 note=76 velocity=64 time=296
note_on channel=7 note=74 velocity=109 time=24
note_off channel=7 note=74 velocity=64 time=136
note_on channel=7 note=81 velocity=109 time=824
note_off channel=7 note=81 velocity=64 time=604
note_on channel=7 note=75 velocity=109 time=36
note_off channel=7 note=75 velocity=64 time=296
note_on channel=7 note=72 velocity=109 time=24
note_off channel=7 note=72 velocity=64 time=136
note_on channel=7 note=81 velocity=109 time=824
note_off channel=7 note=81 velocity=64 time=604
note_on channel=7 note=76 velocity=109 time=36
note_off channel=7 note=76 velocity=64 time=296
note_on channel=7 note=74 velocity=109 time=24
note_off channel=7 note=74 velocity=64 time=136
note_on channel=7 note=81 velocity=109 time=824
note_off channel=7 note=81 velocity=64 time=604
note_on channel=7 note=75 velocity=109 time=36
note_off channel=7 note=75 velocity=64 time=296
note_on channel=7 note=72 velocity=109 time=24
note_off channel=7 note=72 velocity=64 time=136
note_on channel=7 note=81 velocity=109 time=824
note_off channel=7 note=81 velocity=64 time=580
note_on channel=7 note=81 velocity=109 time=60
note_off channel=7 note=81 velocity=64 time=168
note_on channel=7 note=81 velocity=109 time=312
note_off channel=7 note=81 velocity=64 time=168
note_on channel=7 note=81 velocity=109 time=312
note_off channel=7 note=81 velocity=64 time=296
note_on channel=7 note=84 velocity=96 time=24
note_off channel=7 note=84 velocity=64 time=148
note_on channel=7 note=81 velocity=109 time=12
note_off channel=7 note=81 velocity=64 time=311
note_on channel=7 note=81 velocity=109 time=9
pitchwheel channel=7 pitch=0 time=16
control_change channel=7 control=11 value=127 time=0
pitchwheel channel=7 pitch=242 time=24
control_change channel=7 control=11 value=124 time=72
control_change channel=7 control=11 value=121 time=96
pitchwheel channel=7 pitch=0 time=72
control_change channel=7 control=11 value=119 time=48
control_change channel=7 control=11 value=116 time=48
pitchwheel channel=7 pitch=-82 time=96
control_change channel=7 control=11 value=114 time=24
control_change channel=7 control=11 value=111 time=72
pitchwheel channel=7 pitch=-244 time=24
pitchwheel channel=7 pitch=-407 time=96
control_change channel=7 control=11 value=109 time=0
control_change channel=7 control=11 value=106 time=48
pitchwheel channel=7 pitch=-569 time=24
pitchwheel channel=7 pitch=-731 time=72
control_change channel=7 control=11 value=104 time=24
pitchwheel channel=7 pitch=-893 time=24
pitchwheel channel=7 pitch=-1055 time=48
control_change channel=7 control=11 value=101 time=0
pitchwheel channel=7 pitch=-1218 time=48
pitchwheel channel=7 pitch=-1380 time=24
pitchwheel channel=7 pitch=-1542 time=24
pitchwheel channel=7 pitch=-1704 time=24
control_change channel=7 control=11 value=99 time=0
note_off channel=7 note=81 velocity=64 time=24
pitchwheel channel=7 pitch=-2029 time=0
control_change channel=7 control=11 value=96 time=24
control_change channel=7 control=11 value=127 time=0
control_change channel=7 control=11 value=127 time=24
pitchwheel channel=7 pitch=0 time=0
note_on channel=7 note=79 velocity=109 time=320
note_on channel=7 note=78 velocity=45 time=112
note_on channel=7 note=77 velocity=35 time=40
note_off channel=7 note=79 velocity=64 time=8
note_off channel=7 note=78 velocity=64 time=4
note_off channel=7 note=77 velocity=64 time=40
note_on channel=7 note=79 velocity=109 time=436
note_off channel=7 note=79 velocity=64 time=168
note_on channel=7 note=79 velocity=109 time=312
note_off channel=7 note=79 velocity=64 time=168
note_on channel=7 note=80 velocity=109 time=792
note_off channel=7 note=80 velocity=64 time=296
note_on channel=7 note=80 velocity=109 time=24
note_off channel=7 note=80 velocity=64 time=192
note_on channel=7 note=77 velocity=96 time=288
note_off channel=7 note=77 velocity=64 time=148
note_on channel=7 note=80 velocity=109 time=12
note_off channel=7 note=80 velocity=64 time=308
note_on channel=7 note=80 velocity=103 time=12
note_off channel=7 note=80 velocity=64 time=136
note_on channel=7 note=77 velocity=109 time=24
note_off channel=7 note=77 velocity=64 time=296
note_on channel=7 note=74 velocity=109 time=24
note_off channel=7 note=74 velocity=64 time=136
note_on channel=7 note=74 velocity=109 time=1944
note_off channel=7 note=74 velocity=64 time=168
note_on channel=7 note=76 velocity=109 time=312
note_off channel=7 note=76 velocity=64 time=296
note_on channel=7 note=77 velocity=109 time=24
note_off channel=7 note=77 velocity=64 time=180
note_on channel=7 note=84 velocity=109 time=300
note_on channel=7 note=86 velocity=90 time=1440
note_off channel=7 note=84 velocity=64 time=16
note_on channel=7 note=85 velocity=99 time=64
note_off channel=7 note=86 velocity=64 time=24
note_on channel=7 note=81 velocity=109 time=56
note_off channel=7 note=85 velocity=64 time=24
note_off channel=7 note=81 velocity=64 time=284
note_on channel=7 note=76 velocity=109 time=12
pitchwheel channel=7 pitch=0 time=160
control_change channel=7 control=11 value=127 time=0
pitchwheel channel=7 pitch=242 time=12
control_change channel=7 control=11 value=124 time=72
control_change channel=7 control=11 value=121 time=72
pitchwheel channel=7 pitch=0 time=48
control_change channel=7 control=11 value=119 time=60
control_change channel=7 control=11 value=116 time=48
pitchwheel channel=7 pitch=-82 time=36
control_change channel=7 control=11 value=114 time=72
pitchwheel channel=7 pitch=-244 time=24
control_change channel=7 control=11 value=111 time=24
pitchwheel channel=7 pitch=-407 time=48
pitchwheel channel=7 pitch=-569 time=60
control_change channel=7 control=11 value=109 time=0
control_change channel=7 control=11 value=106 time=48
pitchwheel channel=7 pitch=-731 time=12
pitchwheel channel=7 pitch=-893 time=36
pitchwheel channel=7 pitch=-1055 time=48
control_change channel=7 control=11 value=104 time=12
pitchwheel channel=7 pitch=-1218 time=24
pitchwheel channel=7 pitch=-1380 time=24
control_change channel=7 control=11 value=101 time=0
pitchwheel channel=7 pitch=-1542 time=36
pitchwheel channel=7 pitch=-1704 time=24
pitchwheel channel=7 pitch=-1866 time=12
pitchwheel channel=7 pitch=-2029 time=24
pitchwheel channel=7 pitch=-2191 time=12
control_change channel=7 control=11 value=99 time=0
pitchwheel channel=7 pitch=-2353 time=12
note_off channel=7 note=76 velocity=64 time=12
pitchwheel channel=7 pitch=-2515 time=0
pitchwheel channel=7 pitch=-2840 time=12
control_change channel=7 control=11 value=96 time=12
control_change channel=7 control=11 value=127 time=24
pitchwheel channel=7 pitch=0 time=0
note_on channel=7 note=79 velocity=109 time=1280
note_off channel=7 note=79 velocity=64 time=604
note_on channel=7 note=81 velocity=109 time=36
note_off channel=7 note=81 velocity=64 time=180
note_on channel=7 note=82 velocity=109 time=300
note_off channel=7 note=82 velocity=64 time=296
note_on channel=7 note=81 velocity=109 time=24
note_off channel=7 note=81 velocity=64 time=136
note_on channel=7 note=81 velocity=109 time=344
note_off channel=7 note=81 velocity=64 time=180
note_on channel=7 note=79 velocity=103 time=300
note_off channel=7 note=79 velocity=64 time=148
note_on channel=7 note=77 velocity=109 time=12
note_off channel=7 note=77 velocity=64 time=456
note_on channel=7 note=76 velocity=109 time=24
note_off channel=7 note=76 velocity=64 time=156
note_on channel=7 note=86 velocity=116 time=804
note_off channel=7 note=86 velocity=64 time=912
note_on channel=7 note=84 velocity=109 time=48
note_off channel=7 note=84 velocity=64 time=180
control_change channel=7 control=11 value=104 time=300
note_on channel=7 note=82 velocity=115 time=0
control_change channel=7 control=11 value=106 time=108
control_change channel=7 control=11 value=109 time=108
note_off channel=7 note=82 velocity=64 time=92
note_on channel=7 note=84 velocity=115 time=12
control_change channel=7 control=11 value=111 time=4
control_change channel=7 control=11 value=114 time=108
control_change channel=7 control=11 value=116 time=108
control_change channel=7 control=11 value=119 time=108
control_change channel=7 control=11 value=121 time=108
control_change channel=7 control=11 value=124 time=108
note_off channel=7 note=84 velocity=64 time=60
control_change channel=7 control=11 value=127 time=36
control_change channel=7 control=11 value=127 time=0
note_on channel=7 note=81 velocity=115 time=0
control_change channel=7 control=11 value=124 time=84
control_change channel=7 control=11 value=121 time=84
control_change channel=7 control=11 value=119 time=108
note_off channel=7 note=81 velocity=64 time=32
note_on channel=7 note=75 velocity=115 time=12
control_change channel=7 control=11 value=116 time=4
control_change channel=7 control=11 value=114 time=108
control_change channel=7 control=11 value=111 time=48
control_change channel=7 control=11 value=109 time=108
control_change channel=7 control=11 value=106 time=60
control_change channel=7 control=11 value=104 time=108
control_change channel=7 control=11 value=101 time=48
note_off channel=7 note=75 velocity=64 time=108
control_change channel=7 control=11 value=99 time=0
control_change channel=7 control=11 value=96 time=48
control_change channel=7 control=11 value=127 time=0
control_change channel=7 control=11 value=127 time=12
note_on channel=7 note=74 velocity=110 time=15668
note_off channel=7 note=74 velocity=64 time=168
note_on channel=7 note=76 velocity=110 time=312
note_off channel=7 note=76 velocity=64 time=136
note_on channel=7 note=77 velocity=110 time=24
note_off channel=7 note=77 velocity=64 time=168
note_on channel=7 note=79 velocity=110 time=312
note_off channel=7 note=79 velocity=64 time=168
control_change channel=7 control=93 value=30 time=312
note_on channel=7 note=80 velocity=109 time=0
note_off channel=7 note=80 velocity=64 time=444
note_on channel=7 note=82 velocity=109 time=36
note_off channel=7 note=82 velocity=64 time=296
note_on channel=7 note=84 velocity=109 time=24
note_off channel=7 note=84 velocity=64 time=136
note_on channel=7 note=72 velocity=109 time=824
note_off channel=7 note=72 velocity=64 time=604
note_on channel=7 note=74 velocity=109 time=36
note_off channel=7 note=74 velocity=64 time=296
note_on channel=7 note=72 velocity=96 time=24
note_off channel=7 note=72 velocity=64 time=136
note_on channel=7 note=77 velocity=109 time=24
note_off channel=7 note=77 velocity=64 time=284
note_on channel=7 note=79 velocity=109 time=36
note_off channel=7 note=79 velocity=64 time=168
note_on channel=7 note=81 velocity=109 time=312
note_off channel=7 note=81 velocity=64 time=604
note_on channel=7 note=84 velocity=109 time=36
note_off channel=7 note=84 velocity=64 time=296
note_on channel=7 note=82 velocity=109 time=24
note_off channel=7 note=82 velocity=64 time=124
note_on channel=7 note=80 velocity=109 time=1316
note_off channel=7 note=80 velocity=64 time=568
note_on channel=7 note=81 velocity=109 time=72
note_off channel=7 note=81 velocity=64 time=156
note_on channel=7 note=74 velocity=109 time=324
note_off channel=7 note=74 velocity=64 time=156
note_on channel=7 note=80 velocity=109 time=324
note_off channel=7 note=80 velocity=64 time=782
note_on channel=7 note=81 velocity=109 time=18
note_off channel=7 note=81 velocity=64 time=1060
control_change channel=7 control=0 value=56 time=7740
control_change channel=7 control=32 value=0 time=0
program_change channel=7 program=59 time=0
note_on channel=7 note=74 velocity=75 time=2720
control_change channel=7 control=11 value=127 time=1120
control_change channel=7 control=11 value=125 time=120
control_change channel=7 control=11 value=124 time=120
control_change channel=7 control=11 value=123 time=120
control_change channel=7 control=11 value=121 time=120
control_change channel=7 control=11 value=120 time=120
control_change channel=7 control=11 value=119 time=120
control_change channel=7 control=11 value=118 time=120
control_change channel=7 control=11 value=116 time=120
control_change channel=7 control=11 value=115 time=120
control_change channel=7 control=11 value=114 time=120
control_change channel=7 control=11 value=113 time=120
control_change channel=7 control=11 value=111 time=120
control_change channel=7 control=11 value=110 time=120
control_change channel=7 control=11 value=109 time=120
control_change channel=7 control=11 value=108 time=120
control_change channel=7 control=11 value=106 time=120
control_change channel=7 control=11 value=105 time=120
control_change channel=7 control=11 value=104 time=120
control_change channel=7 control=11 value=103 time=120
control_change channel=7 control=11 value=101 time=120
control_change channel=7 control=11 value=100 time=120
control_change channel=7 control=11 value=99 time=120
control_change channel=7 control=11 value=98 time=120
note_off channel=7 note=74 velocity=64 time=96
control_change channel=7 control=11 value=96 time=0
<meta message end_of_track time=0>
<meta message text text='Trumpet 2' time=0>
control_change channel=8 control=11 value=127 time=0
control_change channel=8 control=7 value=106 time=0
control_change channel=8 control=91 value=89 time=0
control_change channel=8 control=93 value=25 time=0
control_change channel=8 control=0 value=56 time=0
control_change channel=8 control=32 value=0 time=0
program_change channel=8 program=56 time=0
note_on channel=8 note=75 velocity=94 time=13760
note_off channel=8 note=75 velocity=64 time=580
note_on channel=8 note=76 velocity=94 time=60
note_off channel=8 note=76 velocity=64 time=168
note_on channel=8 note=69 velocity=94 time=312
note_off channel=8 note=69 velocity=64 time=168
note_on channel=8 note=75 velocity=94 time=312
note_off channel=8 note=75 velocity=64 time=764
note_on channel=8 note=76 velocity=94 time=36
note_off channel=8 note=76 velocity=64 time=592
note_on channel=8 note=70 velocity=94 time=48
note_off channel=8 note=70 velocity=64 time=272
note_on channel=8 note=74 velocity=94 time=48
note_off channel=8 note=74 velocity=64 time=124
note_on channel=8 note=62 velocity=50 time=19556
note_off channel=8 note=62 velocity=64 time=124
note_on channel=8 note=69 velocity=55 time=36
note_off channel=8 note=69 velocity=64 time=132
note_on channel=8 note=70 velocity=50 time=348
note_off channel=8 note=70 velocity=64 time=294
control_change channel=8 control=11 value=109 time=26
note_on channel=8 note=74 velocity=58 time=0
control_change channel=8 control=11 value=110 time=100
control_change channel=8 control=11 value=111 time=100
control_change channel=8 control=11 value=113 time=100
control_change channel=8 control=11 value=114 time=100
control_change channel=8 control=11 value=115 time=100
control_change channel=8 control=11 value=116 time=100
control_change channel=8 control=11 value=118 time=100
control_change channel=8 control=11 value=119 time=100
control_change channel=8 control=11 value=120 time=100
control_change channel=8 control=11 value=121 time=100
control_change channel=8 control=11 value=123 time=100
control_change channel=8 control=11 value=124 time=100
control_change channel=8 control=11 value=125 time=100
control_change channel=8 control=11 value=127 time=60
note_off channel=8 note=74 velocity=64 time=44
note_on channel=8 note=70 velocity=70 time=36
note_off channel=8 note=70 velocity=64 time=112
note_on channel=8 note=70 velocity=55 time=368
note_off channel=8 note=70 velocity=64 time=144
note_on channel=8 note=70 velocity=50 time=336
note_off channel=8 note=70 velocity=64 time=136
note_on channel=8 note=60 velocity=55 time=24
note_off channel=8 note=60 velocity=64 time=284
note_on channel=8 note=60 velocity=50 time=36
note_off channel=8 note=60 velocity=64 time=136
note_on channel=8 note=64 velocity=55 time=24
note_off channel=8 note=64 velocity=64 time=120
note_on channel=8 note=68 velocity=55 time=360
note_off channel=8 note=68 velocity=64 time=284
note_on channel=8 note=72 velocity=55 time=36
note_off channel=8 note=72 velocity=64 time=120
note_on channel=8 note=67 velocity=55 time=360
control_change channel=8 control=11 value=127 time=232
control_change channel=8 control=11 value=120 time=24
control_change channel=8 control=11 value=114 time=24
control_change channel=8 control=11 value=108 time=24
control_change channel=8 control=11 value=101 time=24
control_change channel=8 control=11 value=94 time=24
control_change channel=8 control=11 value=96 time=120
control_change channel=8 control=11 value=99 time=120
control_change channel=8 control=11 value=101 time=120
control_change channel=8 control=11 value=104 time=120
control_change channel=8 control=11 value=106 time=120
control_change channel=8 control=11 value=109 time=120
control_change channel=8 control=11 value=111 time=120
control_change channel=8 control=11 value=114 time=120
control_change channel=8 control=11 value=116 time=120
control_change channel=8 control=11 value=119 time=120
control_change channel=8 control=11 value=121 time=120
control_change channel=8 control=11 value=124 time=120
control_change channel=8 control=11 value=127 time=120
note_off channel=8 note=67 velocity=64 time=120
note_on channel=8 note=62 velocity=54 time=528
note_off channel=8 note=62 velocity=64 time=120
note_on channel=8 note=66 velocity=56 time=360
note_off channel=8 note=66 velocity=64 time=284
note_on channel=8 note=70 velocity=59 time=36
note_off channel=8 note=70 velocity=64 time=108
note_on channel=8 note=74 velocity=65 time=372
note_off channel=8 note=74 velocity=64 time=592
note_on channel=8 note=72 velocity=60 time=48
note_off channel=8 note=72 velocity=64 time=296
note_on channel=8 note=70 velocity=50 time=24
note_off channel=8 note=70 velocity=64 time=134
note_on channel=8 note=67 velocity=55 time=26
note_off channel=8 note=67 velocity=64 time=284
note_on channel=8 note=67 velocity=55 time=36
note_off channel=8 note=67 velocity=64 time=120
control_change channel=8 control=93 value=50 time=40
note_on channel=8 note=66 velocity=70 time=320
note_off channel=8 note=66 velocity=64 time=468
note_on channel=8 note=65 velocity=63 time=12
note_off channel=8 note=65 velocity=64 time=160
note_on channel=8 note=66 velocity=69 time=0
note_off channel=8 note=66 velocity=64 time=192
note_on channel=8 note=65 velocity=67 time=288
note_off channel=8 note=65 velocity=64 time=308
note_on channel=8 note=66 velocity=59 time=12
note_off channel=8 note=66 velocity=64 time=160
note_on channel=8 note=65 velocity=66 time=0
note_off channel=8 note=65 velocity=64 time=192
note_on channel=8 note=64 velocity=65 time=288
note_off channel=8 note=64 velocity=64 time=308
note_on channel=8 note=65 velocity=58 time=12
note_off channel=8 note=65 velocity=64 time=160
note_on channel=8 note=64 velocity=63 time=0
note_off channel=8 note=64 velocity=64 time=308
note_on channel=8 note=63 velocity=62 time=12
note_off channel=8 note=63 velocity=64 time=592
control_change channel=8 control=93 value=25 time=48
note_on channel=8 note=66 velocity=61 time=0
note_off channel=8 note=66 velocity=64 time=284
note_on channel=8 note=65 velocity=60 time=36
note_off channel=8 note=65 velocity=64 time=112
note_on channel=8 note=74 velocity=75 time=3248
note_off channel=8 note=74 velocity=64 time=136
note_on channel=8 note=72 velocity=72 time=24
note_off channel=8 note=72 velocity=64 time=296
note_on channel=8 note=69 velocity=63 time=24
note_off channel=8 note=69 velocity=64 time=136
note_on channel=8 note=74 velocity=75 time=3224
note_off channel=8 note=74 velocity=64 time=136
note_on channel=8 note=72 velocity=72 time=24
note_off channel=8 note=72 velocity=64 time=296
note_on channel=8 note=69 velocity=63 time=24
note_off channel=8 note=69 velocity=64 time=136
note_on channel=8 note=62 velocity=62 time=8024
note_off channel=8 note=62 velocity=64 time=136
note_on channel=8 note=69 velocity=69 time=24
note_off channel=8 note=69 velocity=64 time=144
note_on channel=8 note=70 velocity=75 time=336
note_off channel=8 note=70 velocity=64 time=296
note_on channel=8 note=74 velocity=62 time=24
note_off channel=8 note=74 velocity=64 time=136
note_on channel=8 note=77 velocity=72 time=24
note_off channel=8 note=77 velocity=64 time=296
note_on channel=8 note=77 velocity=81 time=24
note_off channel=8 note=77 velocity=64 time=604
note_on channel=8 note=73 velocity=71 time=36
note_off channel=8 note=73 velocity=64 time=308
note_on channel=8 note=73 velocity=77 time=12
control_change channel=8 control=11 value=127 time=16
control_change channel=8 control=11 value=125 time=120
control_change channel=8 control=11 value=123 time=120
control_change channel=8 control=11 value=121 time=120
control_change channel=8 control=11 value=119 time=120
control_change channel=8 control=11 value=118 time=120
control_change channel=8 control=11 value=115 time=96
control_change channel=8 control=11 value=114 time=120
control_change channel=8 control=11 value=111 time=120
note_off channel=8 note=73 velocity=64 time=120
control_change channel=8 control=11 value=110 time=0
control_change channel=8 control=11 value=109 time=24
control_change channel=8 control=11 value=127 time=24
note_on channel=8 note=62 velocity=62 time=320
note_off channel=8 note=62 velocity=64 time=136
note_on channel=8 note=64 velocity=69 time=24
note_off channel=8 note=64 velocity=64 time=144
note_on channel=8 note=65 velocity=76 time=336
note_off channel=8 note=65 velocity=64 time=296
note_on channel=8 note=69 velocity=62 time=24
note_off channel=8 note=69 velocity=64 time=136
note_on channel=8 note=69 velocity=72 time=24
note_off channel=8 note=69 velocity=64 time=296
note_on channel=8 note=72 velocity=81 time=24
note_off channel=8 note=72 velocity=64 time=604
note_on channel=8 note=69 velocity=72 time=36
note_off channel=8 note=69 velocity=64 time=308
note_on channel=8 note=68 velocity=77 time=12
control_change channel=8 control=11 value=127 time=16
control_change channel=8 control=11 value=125 time=120
control_change channel=8 control=11 value=123 time=120
control_change channel=8 control=11 value=121 time=120
control_change channel=8 control=11 value=119 time=120
control_change channel=8 control=11 value=118 time=120
control_change channel=8 control=11 value=115 time=96
control_change channel=8 control=11 value=114 time=120
control_change channel=8 control=11 value=111 time=120
note_off channel=8 note=68 velocity=64 time=120
control_change channel=8 control=11 value=110 time=0
control_change channel=8 control=11 value=109 time=24
control_change channel=8 control=11 value=127 time=24
note_on channel=8 note=63 velocity=69 time=7040
note_off channel=8 note=63 velocity=64 time=580
note_on channel=8 note=64 velocity=69 time=60
note_off channel=8 note=64 velocity=64 time=144
note_on channel=8 note=64 velocity=69 time=336
note_off channel=8 note=64 velocity=64 time=296
note_on channel=8 note=62 velocity=69 time=24
note_off channel=8 note=62 velocity=64 time=136
note_on channel=8 note=64 velocity=62 time=24
note_off channel=8 note=64 velocity=64 time=56
note_on channel=8 note=64 velocity=69 time=24
note_off channel=8 note=64 velocity=64 time=68
note_on channel=8 note=63 velocity=69 time=332
note_off channel=8 note=63 velocity=64 time=308
control_change channel=8 control=11 value=104 time=12
note_on channel=8 note=64 velocity=75 time=0
control_change channel=8 control=11 value=105 time=100
control_change channel=8 control=11 value=108 time=80
control_change channel=8 control=11 value=109 time=100
control_change channel=8 control=11 value=111 time=100
control_change channel=8 control=11 value=114 time=90
control_change channel=8 control=11 value=115 time=100
control_change channel=8 control=11 value=118 time=70
control_change channel=8 control=11 value=119 time=100
control_change channel=8 control=11 value=121 time=100
control_change channel=8 control=11 value=124 time=90
control_change channel=8 control=11 value=125 time=100
control_change channel=8 control=11 value=127 time=10
note_off channel=8 note=64 velocity=64 time=80
note_on channel=8 note=68 velocity=76 time=320
note_on channel=8 note=67 velocity=40 time=112
note_on channel=8 note=66 velocity=28 time=40
note_off channel=8 note=68 velocity=64 time=4
note_off channel=8 note=67 velocity=64 time=8
note_on channel=8 note=65 velocity=17 time=28
note_off channel=8 note=66 velocity=64 time=12
note_off channel=8 note=65 velocity=64 time=40
note_on channel=8 note=69 velocity=75 time=236
note_off channel=8 note=69 velocity=64 time=592
note_on channel=8 note=69 velocity=69 time=48
note_off channel=8 note=69 velocity=64 time=296
note_on channel=8 note=69 velocity=57 time=24
note_off channel=8 note=69 velocity=64 time=136
note_on channel=8 note=69 velocity=69 time=24
note_off channel=8 note=69 velocity=64 time=284
note_on channel=8 note=67 velocity=69 time=36
note_off channel=8 note=67 velocity=64 time=156
note_on channel=8 note=71 velocity=69 time=324
control_change channel=8 control=11 value=127 time=160
control_change channel=8 control=11 value=125 time=120
control_change channel=8 control=11 value=123 time=120
control_change channel=8 control=11 value=121 time=120
control_change channel=8 control=11 value=119 time=120
control_change channel=8 control=11 value=118 time=120
control_change channel=8 control=11 value=115 time=120
control_change channel=8 control=11 value=114 time=120
control_change channel=8 control=11 value=111 time=120
control_change channel=8 control=11 value=110 time=120
control_change channel=8 control=11 value=108 time=120
control_change channel=8 control=11 value=106 time=120
control_change channel=8 control=11 value=104 time=120
control_change channel=8 control=11 value=103 time=120
control_change channel=8 control=11 value=100 time=120
control_change channel=8 control=11 value=99 time=120
note_off channel=8 note=71 velocity=64 time=60
control_change channel=8 control=11 value=96 time=36
control_change channel=8 control=11 value=127 time=24
note_on channel=8 note=69 velocity=75 time=320
note_on channel=8 note=68 velocity=30 time=112
note_on channel=8 note=67 velocity=20 time=40
note_off channel=8 note=69 velocity=64 time=4
note_off channel=8 note=68 velocity=64 time=8
note_off channel=8 note=67 velocity=64 time=40
note_on channel=8 note=73 velocity=75 time=276
note_off channel=8 note=73 velocity=64 time=580
note_on channel=8 note=71 velocity=75 time=60
note_off channel=8 note=71 velocity=64 time=168
note_on channel=8 note=69 velocity=74 time=632
note_on channel=8 note=68 velocity=32 time=112
note_on channel=8 note=67 velocity=23 time=40
note_off channel=8 note=69 velocity=64 time=4
note_off channel=8 note=68 velocity=64 time=8
note_off channel=8 note=67 velocity=64 time=40
note_on channel=8 note=69 velocity=75 time=276
note_off channel=8 note=69 velocity=64 time=580
note_on channel=8 note=69 velocity=75 time=60
note_off channel=8 note=69 velocity=64 time=168
note_on channel=8 note=63 velocity=69 time=632
note_off channel=8 note=63 velocity=64 time=444
note_on channel=8 note=67 velocity=71 time=36
note_off channel=8 note=67 velocity=64 time=444
note_on channel=8 note=70 velocity=74 time=36
note_off channel=8 note=70 velocity=64 time=444
note_on channel=8 note=67 velocity=66 time=36
note_off channel=8 note=67 velocity=64 time=136
note_on channel=8 note=70 velocity=79 time=24
note_off channel=8 note=70 velocity=64 time=148
note_on channel=8 note=67 velocity=65 time=12
note_off channel=8 note=67 velocity=64 time=148
note_on channel=8 note=72 velocity=80 time=12
note_off channel=8 note=72 velocity=64 time=924
note_on channel=8 note=65 velocity=75 time=36
note_off channel=8 note=65 velocity=64 time=604
note_on channel=8 note=62 velocity=69 time=36
note_off channel=8 note=62 velocity=64 time=284
note_on channel=8 note=62 velocity=70 time=36
note_off channel=8 note=62 velocity=64 time=124
note_on channel=8 note=77 velocity=81 time=15236
note_off channel=8 note=77 velocity=64 time=604
note_on channel=8 note=71 velocity=81 time=36
note_off channel=8 note=71 velocity=64 time=296
note_on channel=8 note=71 velocity=81 time=24
note_off channel=8 note=71 velocity=64 time=136
note_on channel=8 note=76 velocity=81 time=824
note_off channel=8 note=76 velocity=64 time=604
note_on channel=8 note=72 velocity=81 time=36
note_off channel=8 note=72 velocity=64 time=296
note_on channel=8 note=69 velocity=81 time=24
note_off channel=8 note=69 velocity=64 time=136
note_on channel=8 note=77 velocity=81 time=824
note_off channel=8 note=77 velocity=64 time=604
note_on channel=8 note=71 velocity=81 time=36
note_off channel=8 note=71 velocity=64 time=296
note_on channel=8 note=72 velocity=81 time=24
note_off channel=8 note=72 velocity=64 time=136
note_on channel=8 note=78 velocity=81 time=824
note_off channel=8 note=78 velocity=64 time=604
note_on channel=8 note=72 velocity=81 time=36
note_off channel=8 note=72 velocity=64 time=296
note_on channel=8 note=69 velocity=81 time=24
note_off channel=8 note=69 velocity=64 time=136
note_on channel=8 note=77 velocity=81 time=824
note_off channel=8 note=77 velocity=64 time=580
note_on channel=8 note=77 velocity=81 time=60
note_off channel=8 note=77 velocity=64 time=168
note_on channel=8 note=77 velocity=81 time=312
note_off channel=8 note=77 velocity=64 time=168
note_on channel=8 note=77 velocity=81 time=312
note_off channel=8 note=77 velocity=64 time=296
note_on channel=8 note=81 velocity=69 time=24
note_off channel=8 note=81 velocity=64 time=148
note_on channel=8 note=77 velocity=81 time=12
note_off channel=8 note=77 velocity=64 time=311
note_on channel=8 note=76 velocity=81 time=9
pitchwheel channel=8 pitch=0 time=16
control_change channel=8 control=11 value=127 time=0
pitchwheel channel=8 pitch=242 time=24
control_change channel=8 control=11 value=124 time=72
control_change channel=8 control=11 value=121 time=96
pitchwheel channel=8 pitch=0 time=72
control_change channel=8 control=11 value=119 time=48
control_change channel=8 control=11 value=116 time=48
pitchwheel channel=8 pitch=-82 time=96
control_change channel=8 control=11 value=114 time=24
control_change channel=8 control=11 value=111 time=72
pitchwheel channel=8 pitch=-244 time=24
pitchwheel channel=8 pitch=-407 time=96
control_change channel=8 control=11 value=109 time=0
control_change channel=8 control=11 value=106 time=48
pitchwheel channel=8 pitch=-569 time=24
pitchwheel channel=8 pitch=-731 time=72
control_change channel=8 control=11 value=104 time=24
pitchwheel channel=8 pitch=-893 time=24
pitchwheel channel=8 pitch=-1055 time=48
control_change channel=8 control=11 value=101 time=0
pitchwheel channel=8 pitch=-1218 time=48
pitchwheel channel=8 pitch=-1380 time=24
pitchwheel channel=8 pitch=-1542 time=24
pitchwheel channel=8 pitch=-1704 time=24
control_change channel=8 control=11 value=99 time=0
note_off channel=8 note=76 velocity=64 time=24
pitchwheel channel=8 pitch=-2029 time=0
control_change channel=8 control=11 value=96 time=24
control_change channel=8 control=11 value=127 time=0
control_change channel=8 control=11 value=127 time=24
pitchwheel channel=8 pitch=0 time=0
note_on channel=8 note=74 velocity=81 time=320
note_on channel=8 note=73 velocity=30 time=112
note_on channel=8 note=72 velocity=20 time=40
note_off channel=8 note=74 velocity=64 time=8
note_off channel=8 note=73 velocity=64 time=4
note_off channel=8 note=72 velocity=64 time=40
note_on channel=8 note=74 velocity=81 time=436
note_off channel=8 note=74 velocity=64 time=168
note_on channel=8 note=74 velocity=81 time=312
note_off channel=8 note=74 velocity=64 time=168
note_on channel=8 note=77 velocity=81 time=792
note_off channel=8 note=77 velocity=64 time=296
note_on channel=8 note=77 velocity=81 time=24
note_off channel=8 note=77 velocity=64 time=192
note_on channel=8 note=72 velocity=69 time=288
note_off channel=8 note=72 velocity=64 time=148
note_on channel=8 note=77 velocity=81 time=12
note_off channel=8 note=77 velocity=64 time=308
note_on channel=8 note=77 velocity=75 time=12
note_off channel=8 note=77 velocity=64 time=136
note_on channel=8 note=74 velocity=81 time=24
note_off channel=8 note=74 velocity=64 time=296
note_on channel=8 note=70 velocity=81 time=24
note_off channel=8 note=70 velocity=64 time=136
note_on channel=8 note=71 velocity=81 time=1944
note_off channel=8 note=71 velocity=64 time=168
note_on channel=8 note=70 velocity=81 time=312
note_off channel=8 note=70 velocity=64 time=296
note_on channel=8 note=70 velocity=81 time=24
note_off channel=8 note=70 velocity=64 time=180
note_on channel=8 note=79 velocity=81 time=300
note_on channel=8 note=81 velocity=59 time=1440
note_off channel=8 note=79 velocity=64 time=16
note_on channel=8 note=80 velocity=70 time=64
note_off channel=8 note=81 velocity=64 time=24
note_on channel=8 note=76 velocity=81 time=56
note_off channel=8 note=80 velocity=64 time=24
note_off channel=8 note=76 velocity=64 time=284
note_on channel=8 note=71 velocity=81 time=12
pitchwheel channel=8 pitch=0 time=160
control_change channel=8 control=11 value=127 time=0
pitchwheel channel=8 pitch=242 time=12
control_change channel=8 control=11 value=124 time=72
control_change channel=8 control=11 value=121 time=72
pitchwheel channel=8 pitch=0 time=48
control_change channel=8 control=11 value=119 time=60
control_change channel=8 control=11 value=116 time=48
pitchwheel channel=8 pitch=-82 time=36
control_change channel=8 control=11 value=114 time=72
pitchwheel channel=8 pitch=-244 time=24
control_change channel=8 control=11 value=111 time=24
pitchwheel channel=8 pitch=-407 time=48
pitchwheel channel=8 pitch=-569 time=60
control_change channel=8 control=11 value=109 time=0
control_change channel=8 control=11 value=106 time=48
pitchwheel channel=8 pitch=-731 time=12
pitchwheel channel=8 pitch=-893 time=36
pitchwheel channel=8 pitch=-1055 time=48
control_change channel=8 control=11 value=104 time=12
pitchwheel channel=8 pitch=-1218 time=24
pitchwheel channel=8 pitch=-1380 time=24
control_change channel=8 control=11 value=101 time=0
pitchwheel channel=8 pitch=-1542 time=36
pitchwheel channel=8 pitch=-1704 time=24
pitchwheel channel=8 pitch=-1866 time=12
pitchwheel channel=8 pitch=-2029 time=24
pitchwheel channel=8 pitch=-2191 time=12
control_change channel=8 control=11 value=99 time=0
pitchwheel channel=8 pitch=-2353 time=12
note_off channel=8 note=71 velocity=64 time=12
pitchwheel channel=8 pitch=-2515 time=0
pitchwheel channel=8 pitch=-2840 time=12
control_change channel=8 control=11 value=96 time=12
control_change channel=8 control=11 value=127 time=24
pitchwheel channel=8 pitch=0 time=0
note_on channel=8 note=74 velocity=81 time=1280
note_off channel=8 note=74 velocity=64 time=604
note_on channel=8 note=78 velocity=81 time=36
note_off channel=8 note=78 velocity=64 time=180
note_on channel=8 note=78 velocity=81 time=300
note_off channel=8 note=78 velocity=64 time=296
note_on channel=8 note=77 velocity=81 time=24
note_off channel=8 note=77 velocity=64 time=136
note_on channel=8 note=77 velocity=81 time=344
note_off channel=8 note=77 velocity=64 time=180
note_on channel=8 note=74 velocity=75 time=300
note_off channel=8 note=74 velocity=64 time=148
note_on channel=8 note=74 velocity=81 time=12
note_off channel=8 note=74 velocity=64 time=456
note_on channel=8 note=72 velocity=81 time=24
note_off channel=8 note=72 velocity=64 time=156
note_on channel=8 note=81 velocity=88 time=804
note_off channel=8 note=81 velocity=64 time=912
note_on channel=8 note=79 velocity=81 time=48
note_off channel=8 note=79 velocity=64 time=180
control_change channel=8 control=11 value=104 time=300
note_on channel=8 note=79 velocity=88 time=0
control_change channel=8 control=11 value=106 time=108
control_change channel=8 control=11 value=109 time=108
note_off channel=8 note=79 velocity=64 time=92
note_on channel=8 note=81 velocity=88 time=12
control_change channel=8 control=11 value=111 time=4
control_change channel=8 control=11 value=114 time=108
control_change channel=8 control=11 value=116 time=108
control_change channel=8 control=11 value=119 time=108
control_change channel=8 control=11 value=121 time=108
control_change channel=8 control=11 value=124 time=108
note_off channel=8 note=81 velocity=64 time=60
control_change channel=8 control=11 value=127 time=36
control_change channel=8 control=11 value=127 time=0
note_on channel=8 note=78 velocity=88 time=0
control_change channel=8 control=11 value=124 time=84
control_change channel=8 control=11 value=121 time=84
control_change channel=8 control=11 value=119 time=108
note_off channel=8 note=78 velocity=64 time=32
note_on channel=8 note=72 velocity=88 time=12
control_change channel=8 control=11 value=116 time=4
control_change channel=8 control=11 value=114 time=108
control_change channel=8 control=11 value=111 time=48
control_change channel=8 control=11 value=109 time=108
control_change channel=8 control=11 value=106 time=60
control_change channel=8 control=11 value=104 time=108
control_change channel=8 control=11 value=101 time=48
note_off channel=8 note=72 velocity=64 time=108
control_change channel=8 control=11 value=99 time=0
control_change channel=8 control=11 value=96 time=48
control_change channel=8 control=11 value=127 time=0
control_change channel=8 control=11 value=127 time=12
note_on channel=8 note=74 velocity=75 time=3188
note_off channel=8 note=74 velocity=64 time=136
note_on channel=8 note=72 velocity=72 time=24
note_off channel=8 note=72 velocity=64 time=296
note_on channel=8 note=69 velocity=63 time=24
note_off channel=8 note=69 velocity=64 time=136
note_on channel=8 note=74 velocity=75 time=3224
note_off channel=8 note=74 velocity=64 time=136
note_on channel=8 note=72 velocity=72 time=24
note_off channel=8 note=72 velocity=64 time=296
note_on channel=8 note=69 velocity=63 time=24
note_off channel=8 note=69 velocity=64 time=136
note_on channel=8 note=70 velocity=81 time=8024
note_off channel=8 note=70 velocity=64 time=168
note_on channel=8 note=72 velocity=81 time=312
note_off channel=8 note=72 velocity=64 time=136
note_on channel=8 note=74 velocity=81 time=24
note_off channel=8 note=74 velocity=64 time=168
note_on channel=8 note=74 velocity=81 time=312
note_off channel=8 note=74 velocity=64 time=168
control_change channel=8 control=93 value=30 time=312
note_on channel=8 note=77 velocity=81 time=0
note_off channel=8 note=77 velocity=64 time=444
note_on channel=8 note=77 velocity=81 time=36
note_off channel=8 note=77 velocity=64 time=296
note_on channel=8 note=79 velocity=81 time=24
note_off channel=8 note=79 velocity=64 time=136
note_on channel=8 note=69 velocity=81 time=824
note_off channel=8 note=69 velocity=64 time=604
note_on channel=8 note=72 velocity=81 time=36
note_off channel=8 note=72 velocity=64 time=296
note_on channel=8 note=69 velocity=69 time=24
note_off channel=8 note=69 velocity=64 time=136
note_on channel=8 note=74 velocity=81 time=24
note_off channel=8 note=74 velocity=64 time=284
note_on channel=8 note=76 velocity=81 time=36
note_off channel=8 note=76 velocity=64 time=168
note_on channel=8 note=75 velocity=81 time=312
note_off channel=8 note=75 velocity=64 time=604
note_on channel=8 note=79 velocity=81 time=36
note_off channel=8 note=79 velocity=64 time=296
note_on channel=8 note=78 velocity=81 time=24
note_off channel=8 note=78 velocity=64 time=124
note_on channel=8 note=75 velocity=81 time=1316
note_off channel=8 note=75 velocity=64 time=568
note_on channel=8 note=76 velocity=81 time=72
note_off channel=8 note=76 velocity=64 time=156
note_on channel=8 note=69 velocity=81 time=324
note_off channel=8 note=69 velocity=64 time=156
note_on channel=8 note=75 velocity=81 time=324
note_off channel=8 note=75 velocity=64 time=782
note_on channel=8 note=76 velocity=81 time=18
note_off channel=8 note=76 velocity=64 time=1060
control_change channel=8 control=0 value=56 time=7740
control_change channel=8 control=32 value=0 time=0
program_change channel=8 program=59 time=0
note_on channel=8 note=71 velocity=45 time=2720
control_change channel=8 control=11 value=127 time=1120
control_change channel=8 control=11 value=125 time=120
control_change channel=8 control=11 value=124 time=120
control_change channel=8 control=11 value=123 time=120
control_change channel=8 control=11 value=121 time=120
control_change channel=8 control=11 value=120 time=120
control_change channel=8 control=11 value=119 time=120
control_change channel=8 control=11 value=118 time=120
control_change channel=8 control=11 value=116 time=120
control_change channel=8 control=11 value=115 time=120
control_change channel=8 control=11 value=114 time=120
control_change channel=8 control=11 value=113 time=120
control_change channel=8 control=11 value=111 time=120
control_change channel=8 control=11 value=110 time=120
control_change channel=8 control=11 value=109 time=120
control_change channel=8 control=11 value=108 time=120
control_change channel=8 control=11 value=106 time=120
control_change channel=8 control=11 value=105 time=120
control_change channel=8 control=11 value=104 time=120
control_change channel=8 control=11 value=103 time=120
control_change channel=8 control=11 value=101 time=120
control_change channel=8 control=11 value=100 time=120
control_change channel=8 control=11 value=99 time=120
control_change channel=8 control=11 value=98 time=120
note_off channel=8 note=71 velocity=64 time=96
<meta message end_of_track time=0>
<meta message text text='Trumpet 3' time=0>
control_change channel=10 control=11 value=127 time=0
control_change channel=10 control=7 value=106 time=0
control_change channel=10 control=10 value=54 time=0
control_change channel=10 control=91 value=84 time=0
control_change channel=10 control=93 value=25 time=0
control_change channel=10 control=0 value=56 time=0
control_change channel=10 control=32 value=0 time=0
program_change channel=10 program=56 time=0
note_on channel=10 note=71 velocity=94 time=13760
note_off channel=10 note=71 velocity=64 time=580
note_on channel=10 note=71 velocity=94 time=60
note_off channel=10 note=71 velocity=64 time=168
note_on channel=10 note=65 velocity=94 time=312
note_off channel=10 note=65 velocity=64 time=168
note_on channel=10 note=72 velocity=94 time=312
note_off channel=10 note=72 velocity=64 time=764
note_on channel=10 note=72 velocity=94 time=36
note_off channel=10 note=72 velocity=64 time=592
note_on channel=10 note=67 velocity=94 time=48
note_off channel=10 note=67 velocity=64 time=272
note_on channel=10 note=72 velocity=94 time=48
note_off channel=10 note=72 velocity=64 time=124
note_on channel=10 note=58 velocity=50 time=19556
note_off channel=10 note=58 velocity=64 time=124
note_on channel=10 note=66 velocity=55 time=36
note_off channel=10 note=66 velocity=64 time=132
note_on channel=10 note=67 velocity=50 time=348
note_off channel=10 note=67 velocity=64 time=294
control_change channel=10 control=11 value=109 time=26
note_on channel=10 note=70 velocity=58 time=0
control_change channel=10 control=11 value=110 time=100
control_change channel=10 control=11 value=111 time=100
control_change channel=10 control=11 value=113 time=100
control_change channel=10 control=11 value=114 time=100
control_change channel=10 control=11 value=115 time=100
control_change channel=10 control=11 value=116 time=100
note_off channel=10 note=70 velocity=64 time=12
note_on channel=10 note=71 velocity=58 time=28
control_change channel=10 control=11 value=118 time=60
control_change channel=10 control=11 value=119 time=100
control_change channel=10 control=11 value=120 time=100
control_change channel=10 control=11 value=121 time=100
control_change channel=10 control=11 value=123 time=100
control_change channel=10 control=11 value=124 time=100
control_change channel=10 control=11 value=125 time=100
control_change channel=10 control=11 value=127 time=60
note_off channel=10 note=71 velocity=64 time=32
note_on channel=10 note=68 velocity=60 time=48
note_off channel=10 note=68 velocity=64 time=112
note_on channel=10 note=68 velocity=55 time=368
note_off channel=10 note=68 velocity=64 time=144
note_on channel=10 note=68 velocity=50 time=336
note_off channel=10 note=68 velocity=64 time=136
note_on channel=10 note=60 velocity=55 time=24
note_off channel=10 note=60 velocity=64 time=284
note_on channel=10 note=60 velocity=50 time=36
note_off channel=10 note=60 velocity=64 time=136
note_on channel=10 note=60 velocity=55 time=24
note_off channel=10 note=60 velocity=64 time=120
note_on channel=10 note=64 velocity=55 time=360
note_off channel=10 note=64 velocity=64 time=284
note_on channel=10 note=69 velocity=55 time=36
note_off channel=10 note=69 velocity=64 time=120
note_on channel=10 note=64 velocity=55 time=360
control_change channel=10 control=11 value=127 time=232
control_change channel=10 control=11 value=120 time=24
control_change channel=10 control=11 value=114 time=24
control_change channel=10 control=11 value=108 time=24
control_change channel=10 control=11 value=101 time=24
control_change channel=10 control=11 value=94 time=24
control_change channel=10 control=11 value=96 time=120
control_change channel=10 control=11 value=99 time=120
control_change channel=10 control=11 value=101 time=120
control_change channel=10 control=11 value=104 time=120
control_change channel=10 control=11 value=106 time=120
control_change channel=10 control=11 value=109 time=120
control_change channel=10 control=11 value=111 time=120
control_change channel=10 control=11 value=114 time=120
control_change channel=10 control=11 value=116 time=120
control_change channel=10 control=11 value=119 time=120
control_change channel=10 control=11 value=121 time=120
control_change channel=10 control=11 value=124 time=120
control_change channel=10 control=11 value=127 time=120
note_off channel=10 note=64 velocity=64 time=120
note_on channel=10 note=58 velocity=60 time=368
note_off channel=10 note=58 velocity=64 time=124
note_on channel=10 note=58 velocity=54 time=36
note_off channel=10 note=58 velocity=64 time=120
note_on channel=10 note=62 velocity=56 time=360
note_off channel=10 note=62 velocity=64 time=284
note_on channel=10 note=66 velocity=59 time=36
note_off channel=10 note=66 velocity=64 time=108
note_on channel=10 note=70 velocity=65 time=372
note_off channel=10 note=70 velocity=64 time=592
note_on channel=10 note=69 velocity=60 time=48
note_off channel=10 note=69 velocity=64 time=296
note_on channel=10 note=67 velocity=50 time=24
note_off channel=10 note=67 velocity=64 time=134
note_on channel=10 note=64 velocity=55 time=26
note_off channel=10 note=64 velocity=64 time=284
note_on channel=10 note=64 velocity=55 time=36
note_off channel=10 note=64 velocity=64 time=120
note_on channel=10 note=64 velocity=59 time=3880
note_off channel=10 note=64 velocity=64 time=284
note_on channel=10 note=62 velocity=60 time=36
note_off channel=10 note=62 velocity=64 time=112
note_on channel=10 note=58 velocity=62 time=15728
note_off channel=10 note=58 velocity=64 time=136
note_on channel=10 note=66 velocity=69 time=24
note_off channel=10 note=66 velocity=64 time=144
note_on channel=10 note=67 velocity=75 time=336
note_off channel=10 note=67 velocity=64 time=296
note_on channel=10 note=70 velocity=62 time=24
note_off channel=10 note=70 velocity=64 time=136
note_on channel=10 note=74 velocity=72 time=24
note_off channel=10 note=74 velocity=64 time=296
note_on channel=10 note=73 velocity=81 time=24
note_off channel=10 note=73 velocity=64 time=604
note_on channel=10 note=70 velocity=71 time=36
note_off channel=10 note=70 velocity=64 time=308
note_on channel=10 note=70 velocity=77 time=12
control_change channel=10 control=11 value=127 time=16
control_change channel=10 control=11 value=125 time=120
control_change channel=10 control=11 value=123 time=120
control_change channel=10 control=11 value=121 time=120
control_change channel=10 control=11 value=119 time=120
control_change channel=10 control=11 value=118 time=120
control_change channel=10 control=11 value=115 time=96
control_change channel=10 control=11 value=114 time=120
control_change channel=10 control=11 value=111 time=120
note_off channel=10 note=70 velocity=64 time=120
control_change channel=10 control=11 value=110 time=0
control_change channel=10 control=11 value=109 time=24
control_change channel=10 control=11 value=127 time=24
note_on channel=10 note=60 velocity=62 time=320
note_off channel=10 note=60 velocity=64 time=136
note_on channel=10 note=62 velocity=69 time=24
note_off channel=10 note=62 velocity=64 time=144
note_on channel=10 note=61 velocity=76 time=336
note_off channel=10 note=61 velocity=64 time=296
note_on channel=10 note=65 velocity=62 time=24
note_off channel=10 note=65 velocity=64 time=136
note_on channel=10 note=66 velocity=72 time=24
note_off channel=10 note=66 velocity=64 time=296
note_on channel=10 note=69 velocity=81 time=24
note_off channel=10 note=69 velocity=64 time=604
note_on channel=10 note=67 velocity=72 time=36
note_off channel=10 note=67 velocity=64 time=308
note_on channel=10 note=66 velocity=77 time=12
control_change channel=10 control=11 value=127 time=16
control_change channel=10 control=11 value=125 time=120
control_change channel=10 control=11 value=123 time=120
control_change channel=10 control=11 value=121 time=120
control_change channel=10 control=11 value=119 time=120
control_change channel=10 control=11 value=118 time=120
control_change channel=10 control=11 value=115 time=96
control_change channel=10 control=11 value=114 time=120
control_change channel=10 control=11 value=111 time=120
note_off channel=10 note=66 velocity=64 time=120
control_change channel=10 control=11 value=110 time=0
control_change channel=10 control=11 value=109 time=24
control_change channel=10 control=11 value=127 time=24
control_change channel=10 control=11 value=104 time=9440
note_on channel=10 note=62 velocity=75 time=0
control_change channel=10 control=11 value=105 time=100
control_change channel=10 control=11 value=108 time=80
control_change channel=10 control=11 value=109 time=100
control_change channel=10 control=11 value=111 time=100
control_change channel=10 control=11 value=114 time=90
control_change channel=10 control=11 value=115 time=100
control_change channel=10 control=11 value=118 time=70
control_change channel=10 control=11 value=119 time=100
control_change channel=10 control=11 value=121 time=100
control_change channel=10 control=11 value=124 time=90
control_change channel=10 control=11 value=125 time=100
control_change channel=10 control=11 value=127 time=10
note_off channel=10 note=62 velocity=64 time=80
note_on channel=10 note=64 velocity=76 time=320
note_on channel=10 note=63 velocity=40 time=112
note_on channel=10 note=62 velocity=28 time=40
note_off channel=10 note=64 velocity=64 time=4
note_off channel=10 note=63 velocity=64 time=8
note_on channel=10 note=61 velocity=17 time=28
note_off channel=10 note=62 velocity=64 time=12
note_off channel=10 note=61 velocity=64 time=40
note_on channel=10 note=67 velocity=75 time=236
note_off channel=10 note=67 velocity=64 time=592
note_on channel=10 note=67 velocity=69 time=48
note_off channel=10 note=67 velocity=64 time=296
note_on channel=10 note=65 velocity=57 time=24
note_off channel=10 note=65 velocity=64 time=136
note_on channel=10 note=67 velocity=69 time=24
note_off channel=10 note=67 velocity=64 time=284
note_on channel=10 note=65 velocity=69 time=36
note_off channel=10 note=65 velocity=64 time=156
note_on channel=10 note=68 velocity=69 time=324
control_change channel=10 control=11 value=127 time=160
control_change channel=10 control=11 value=125 time=120
control_change channel=10 control=11 value=123 time=120
control_change channel=10 control=11 value=121 time=120
control_change channel=10 control=11 value=119 time=120
control_change channel=10 control=11 value=118 time=120
control_change channel=10 control=11 value=115 time=120
control_change channel=10 control=11 value=114 time=120
control_change channel=10 control=11 value=111 time=120
control_change channel=10 control=11 value=110 time=120
control_change channel=10 control=11 value=108 time=120
control_change channel=10 control=11 value=106 time=120
control_change channel=10 control=11 value=104 time=120
control_change channel=10 control=11 value=103 time=120
control_change channel=10 control=11 value=100 time=120
control_change channel=10 control=11 value=99 time=120
note_off channel=10 note=68 velocity=64 time=60
control_change channel=10 control=11 value=96 time=36
control_change channel=10 control=11 value=127 time=24
note_on channel=10 note=64 velocity=75 time=320
note_on channel=10 note=63 velocity=30 time=112
note_on channel=10 note=62 velocity=20 time=40
note_off channel=10 note=64 velocity=64 time=4
note_off channel=10 note=63 velocity=64 time=8
note_off channel=10 note=62 velocity=64 time=40
note_on channel=10 note=69 velocity=75 time=276
note_off channel=10 note=69 velocity=64 time=580
note_on channel=10 note=67 velocity=75 time=60
note_off channel=10 note=67 velocity=64 time=168
note_on channel=10 note=64 velocity=74 time=632
note_on channel=10 note=63 velocity=32 time=112
note_on channel=10 note=62 velocity=23 time=40
note_off channel=10 note=64 velocity=64 time=4
note_off channel=10 note=63 velocity=64 time=8
note_off channel=10 note=62 velocity=64 time=40
note_on channel=10 note=64 velocity=75 time=276
note_off channel=10 note=64 velocity=64 time=580
note_on channel=10 note=64 velocity=75 time=60
note_off channel=10 note=64 velocity=64 time=168
note_on channel=10 note=60 velocity=69 time=632
note_off channel=10 note=60 velocity=64 time=444
note_on channel=10 note=63 velocity=71 time=36
note_off channel=10 note=63 velocity=64 time=444
note_on channel=10 note=67 velocity=74 time=36
note_off channel=10 note=67 velocity=64 time=444
note_on channel=10 note=63 velocity=66 time=36
note_off channel=10 note=63 velocity=64 time=136
note_on channel=10 note=67 velocity=79 time=24
note_off channel=10 note=67 velocity=64 time=148
note_on channel=10 note=63 velocity=65 time=12
note_off channel=10 note=63 velocity=64 time=148
note_on channel=10 note=70 velocity=80 time=12
note_off channel=10 note=70 velocity=64 time=924
note_on channel=10 note=63 velocity=75 time=36
note_off channel=10 note=63 velocity=64 time=604
note_on channel=10 note=60 velocity=69 time=36
note_off channel=10 note=60 velocity=64 time=284
note_on channel=10 note=60 velocity=70 time=36
note_off channel=10 note=60 velocity=64 time=124
note_on channel=10 note=74 velocity=81 time=15236
note_off channel=10 note=74 velocity=64 time=604
note_on channel=10 note=68 velocity=81 time=36
note_off channel=10 note=68 velocity=64 time=296
note_on channel=10 note=69 velocity=81 time=24
note_off channel=10 note=69 velocity=64 time=136
note_on channel=10 note=72 velocity=81 time=824
note_off channel=10 note=72 velocity=64 time=604
note_on channel=10 note=68 velocity=81 time=36
note_off channel=10 note=68 velocity=64 time=296
note_on channel=10 note=64 velocity=81 time=24
note_off channel=10 note=64 velocity=64 time=136
note_on channel=10 note=72 velocity=81 time=824
note_off channel=10 note=72 velocity=64 time=604
note_on channel=10 note=68 velocity=81 time=36
note_off channel=10 note=68 velocity=64 time=296
note_on channel=10 note=69 velocity=81 time=24
note_off channel=10 note=69 velocity=64 time=136
note_on channel=10 note=74 velocity=81 time=824
note_off channel=10 note=74 velocity=64 time=604
note_on channel=10 note=68 velocity=81 time=36
note_off channel=10 note=68 velocity=64 time=296
note_on channel=10 note=66 velocity=81 time=24
note_off channel=10 note=66 velocity=64 time=136
note_on channel=10 note=74 velocity=81 time=824
note_off channel=10 note=74 velocity=64 time=580
note_on channel=10 note=76 velocity=81 time=60
note_off channel=10 note=76 velocity=64 time=168
note_on channel=10 note=74 velocity=81 time=312
note_off channel=10 note=74 velocity=64 time=168
note_on channel=10 note=72 velocity=81 time=312
note_off channel=10 note=72 velocity=64 time=296
note_on channel=10 note=77 velocity=69 time=24
note_off channel=10 note=77 velocity=64 time=148
note_on channel=10 note=72 velocity=81 time=12
note_off channel=10 note=72 velocity=64 time=311
note_on channel=10 note=72 velocity=81 time=9
pitchwheel channel=10 pitch=0 time=16
control_change channel=10 control=11 value=127 time=0
pitchwheel channel=10 pitch=242 time=24
control_change channel=10 control=11 value=124 time=72
control_change channel=10 control=11 value=121 time=96
pitchwheel channel=10 pitch=0 time=72
control_change channel=10 control=11 value=119 time=48
control_change channel=10 control=11 value=116 time=48
pitchwheel channel=10 pitch=-82 time=96
control_change channel=10 control=11 value=114 time=24
control_change channel=10 control=11 value=111 time=72
pitchwheel channel=10 pitch=-244 time=24
pitchwheel channel=10 pitch=-407 time=96
control_change channel=10 control=11 value=109 time=0
control_change channel=10 control=11 value=106 time=48
pitchwheel channel=10 pitch=-569 time=24
pitchwheel channel=10 pitch=-731 time=72
control_change channel=10 control=11 value=104 time=24
pitchwheel channel=10 pitch=-893 time=24
pitchwheel channel=10 pitch=-1055 time=48
control_change channel=10 control=11 value=101 time=0
pitchwheel channel=10 pitch=-1218 time=48
pitchwheel channel=10 pitch=-1380 time=24
pitchwheel channel=10 pitch=-1542 time=24
pitchwheel channel=10 pitch=-1704 time=24
control_change channel=10 control=11 value=99 time=0
note_off channel=10 note=72 velocity=64 time=24
pitchwheel channel=10 pitch=-2029 time=0
control_change channel=10 control=11 value=96 time=24
control_change channel=10 control=11 value=127 time=0
control_change channel=10 control=11 value=127 time=24
pitchwheel channel=10 pitch=0 time=0
note_on channel=10 note=70 velocity=81 time=320
note_on channel=10 note=69 velocity=30 time=112
note_on channel=10 note=68 velocity=20 time=40
note_off channel=10 note=70 velocity=64 time=8
note_off channel=10 note=69 velocity=64 time=4
note_off channel=10 note=68 velocity=64 time=40
note_on channel=10 note=70 velocity=81 time=436
note_off channel=10 note=70 velocity=64 time=168
note_on channel=10 note=70 velocity=81 time=312
note_off channel=10 note=70 velocity=64 time=168
note_on channel=10 note=72 velocity=81 time=792
note_off channel=10 note=72 velocity=64 time=296
note_on channel=10 note=72 velocity=81 time=24
note_off channel=10 note=72 velocity=64 time=192
note_on channel=10 note=68 velocity=69 time=288
note_off channel=10 note=68 velocity=64 time=148
note_on channel=10 note=72 velocity=81 time=12
note_off channel=10 note=72 velocity=64 time=308
note_on channel=10 note=72 velocity=75 time=12
note_off channel=10 note=72 velocity=64 time=136
note_on channel=10 note=72 velocity=81 time=24
note_off channel=10 note=72 velocity=64 time=296
note_on channel=10 note=67 velocity=81 time=24
note_off channel=10 note=67 velocity=64 time=136
note_on channel=10 note=69 velocity=81 time=1944
note_off channel=10 note=69 velocity=64 time=168
note_on channel=10 note=68 velocity=81 time=312
note_off channel=10 note=68 velocity=64 time=296
note_on channel=10 note=68 velocity=81 time=24
note_off channel=10 note=68 velocity=64 time=180
note_on channel=10 note=76 velocity=81 time=300
note_on channel=10 note=78 velocity=59 time=1440
note_off channel=10 note=76 velocity=64 time=16
note_on channel=10 note=77 velocity=70 time=64
note_off channel=10 note=78 velocity=64 time=24
note_on channel=10 note=72 velocity=81 time=56
note_off channel=10 note=77 velocity=64 time=24
note_off channel=10 note=72 velocity=64 time=284
note_on channel=10 note=68 velocity=81 time=12
pitchwheel channel=10 pitch=0 time=160
control_change channel=10 control=11 value=127 time=0
pitchwheel channel=10 pitch=242 time=12
control_change channel=10 control=11 value=124 time=72
control_change channel=10 control=11 value=121 time=72
pitchwheel channel=10 pitch=0 time=48
control_change channel=10 control=11 value=119 time=60
control_change channel=10 control=11 value=116 time=48
pitchwheel channel=10 pitch=-82 time=36
control_change channel=10 control=11 value=114 time=72
pitchwheel channel=10 pitch=-244 time=24
control_change channel=10 control=11 value=111 time=24
pitchwheel channel=10 pitch=-407 time=48
pitchwheel channel=10 pitch=-569 time=60
control_change channel=10 control=11 value=109 time=0
control_change channel=10 control=11 value=106 time=48
pitchwheel channel=10 pitch=-731 time=12
pitchwheel channel=10 pitch=-893 time=36
pitchwheel channel=10 pitch=-1055 time=48
control_change channel=10 control=11 value=104 time=12
pitchwheel channel=10 pitch=-1218 time=24
pitchwheel channel=10 pitch=-1380 time=24
control_change channel=10 control=11 value=101 time=0
pitchwheel channel=10 pitch=-1542 time=36
pitchwheel channel=10 pitch=-1704 time=24
pitchwheel channel=10 pitch=-1866 time=12
pitchwheel channel=10 pitch=-2029 time=24
pitchwheel channel=10 pitch=-2191 time=12
control_change channel=10 control=11 value=99 time=0
pitchwheel channel=10 pitch=-2353 time=12
note_off channel=10 note=68 velocity=64 time=12
pitchwheel channel=10 pitch=-2515 time=0
pitchwheel channel=10 pitch=-2840 time=12
control_change channel=10 control=11 value=96 time=12
control_change channel=10 control=11 value=127 time=24
pitchwheel channel=10 pitch=0 time=0
note_on channel=10 note=70 velocity=81 time=1280
note_off channel=10 note=70 velocity=64 time=604
note_on channel=10 note=74 velocity=81 time=36
note_off channel=10 note=74 velocity=64 time=180
note_on channel=10 note=74 velocity=81 time=300
note_off channel=10 note=74 velocity=64 time=296
note_on channel=10 note=74 velocity=81 time=24
note_off channel=10 note=74 velocity=64 time=136
note_on channel=10 note=74 velocity=81 time=344
note_off channel=10 note=74 velocity=64 time=180
note_on channel=10 note=70 velocity=75 time=300
note_off channel=10 note=70 velocity=64 time=148
note_on channel=10 note=70 velocity=81 time=12
note_off channel=10 note=70 velocity=64 time=456
note_on channel=10 note=67 velocity=81 time=24
note_off channel=10 note=67 velocity=64 time=156
note_on channel=10 note=79 velocity=88 time=804
note_off channel=10 note=79 velocity=64 time=912
note_on channel=10 note=75 velocity=81 time=48
note_off channel=10 note=75 velocity=64 time=180
control_change channel=10 control=11 value=104 time=300
note_on channel=10 note=75 velocity=88 time=0
control_change channel=10 control=11 value=106 time=108
control_change channel=10 control=11 value=109 time=108
note_off channel=10 note=75 velocity=64 time=92
note_on channel=10 note=77 velocity=88 time=12
control_change channel=10 control=11 value=111 time=4
control_change channel=10 control=11 value=114 time=108
control_change channel=10 control=11 value=116 time=108
control_change channel=10 control=11 value=119 time=108
control_change channel=10 control=11 value=121 time=108
control_change channel=10 control=11 value=124 time=108
note_off channel=10 note=77 velocity=64 time=60
control_change channel=10 control=11 value=127 time=36
control_change channel=10 control=11 value=127 time=0
note_on channel=10 note=74 velocity=88 time=0
control_change channel=10 control=11 value=124 time=84
control_change channel=10 control=11 value=121 time=84
control_change channel=10 control=11 value=119 time=108
note_off channel=10 note=74 velocity=64 time=32
note_on channel=10 note=68 velocity=88 time=12
control_change channel=10 control=11 value=116 time=4
control_change channel=10 control=11 value=114 time=108
control_change channel=10 control=11 value=111 time=48
control_change channel=10 control=11 value=109 time=108
control_change channel=10 control=11 value=106 time=60
control_change channel=10 control=11 value=104 time=108
control_change channel=10 control=11 value=101 time=48
note_off channel=10 note=68 velocity=64 time=108
control_change channel=10 control=11 value=99 time=0
control_change channel=10 control=11 value=96 time=48
control_change channel=10 control=11 value=127 time=0
control_change channel=10 control=11 value=127 time=12
note_on channel=10 note=67 velocity=81 time=15668
note_off channel=10 note=67 velocity=64 time=168
note_on channel=10 note=69 velocity=81 time=312
note_off channel=10 note=69 velocity=64 time=136
note_on channel=10 note=70 velocity=81 time=24
note_off channel=10 note=70 velocity=64 time=168
note_on channel=10 note=70 velocity=81 time=312
note_off channel=10 note=70 velocity=64 time=168
control_change channel=10 control=93 value=30 time=312
note_on channel=10 note=73 velocity=81 time=0
note_off channel=10 note=73 velocity=64 time=444
note_on channel=10 note=73 velocity=81 time=36
note_off channel=10 note=73 velocity=64 time=296
note_on channel=10 note=75 velocity=81 time=24
note_off channel=10 note=75 velocity=64 time=136
note_on channel=10 note=65 velocity=81 time=824
note_off channel=10 note=65 velocity=64 time=604
note_on channel=10 note=69 velocity=81 time=36
note_off channel=10 note=69 velocity=64 time=296
note_on channel=10 note=65 velocity=69 time=24
note_off channel=10 note=65 velocity=64 time=136
note_on channel=10 note=72 velocity=81 time=24
note_off channel=10 note=72 velocity=64 time=284
note_on channel=10 note=72 velocity=81 time=36
note_off channel=10 note=72 velocity=64 time=168
note_on channel=10 note=72 velocity=81 time=312
note_off channel=10 note=72 velocity=64 time=604
note_on channel=10 note=75 velocity=81 time=36
note_off channel=10 note=75 velocity=64 time=296
note_on channel=10 note=75 velocity=81 time=24
note_off channel=10 note=75 velocity=64 time=124
note_on channel=10 note=71 velocity=81 time=1316
note_off channel=10 note=71 velocity=64 time=568
note_on channel=10 note=71 velocity=81 time=72
note_off channel=10 note=71 velocity=64 time=156
note_on channel=10 note=65 velocity=81 time=324
note_off channel=10 note=65 velocity=64 time=156
note_on channel=10 note=72 velocity=81 time=324
note_off channel=10 note=72 velocity=64 time=782
note_on channel=10 note=73 velocity=81 time=18
note_off channel=10 note=73 velocity=64 time=1060
control_change channel=10 control=0 value=56 time=7740
control_change channel=10 control=32 value=0 time=0
program_change channel=10 program=59 time=0
note_on channel=10 note=68 velocity=45 time=2720
control_change channel=10 control=11 value=127 time=1120
control_change channel=10 control=11 value=125 time=120
control_change channel=10 control=11 value=124 time=120
control_change channel=10 control=11 value=123 time=120
control_change channel=10 control=11 value=121 time=120
control_change channel=10 control=11 value=120 time=120
control_change channel=10 control=11 value=119 time=120
control_change channel=10 control=11 value=118 time=120
control_change channel=10 control=11 value=116 time=120
control_change channel=10 control=11 value=115 time=120
control_change channel=10 control=11 value=114 time=120
control_change channel=10 control=11 value=113 time=120
control_change channel=10 control=11 value=111 time=120
control_change channel=10 control=11 value=110 time=120
control_change channel=10 control=11 value=109 time=120
control_change channel=10 control=11 value=108 time=120
control_change channel=10 control=11 value=106 time=120
control_change channel=10 control=11 value=105 time=120
control_change channel=10 control=11 value=104 time=120
control_change channel=10 control=11 value=103 time=120
control_change channel=10 control=11 value=101 time=120
control_change channel=10 control=11 value=100 time=120
control_change channel=10 control=11 value=99 time=120
control_change channel=10 control=11 value=98 time=120
note_off channel=10 note=68 velocity=64 time=96
<meta message end_of_track time=0>
<meta message text text='Trumpet 4' time=0>
control_change channel=11 control=11 value=127 time=0
control_change channel=11 control=7 value=106 time=0
control_change channel=11 control=10 value=44 time=0
control_change channel=11 control=91 value=81 time=0
control_change channel=11 control=93 value=25 time=0
control_change channel=11 control=0 value=56 time=0
control_change channel=11 control=32 value=0 time=0
program_change channel=11 program=56 time=0
note_on channel=11 note=68 velocity=94 time=13760
note_off channel=11 note=68 velocity=64 time=580
note_on channel=11 note=69 velocity=94 time=60
note_off channel=11 note=69 velocity=64 time=168
note_on channel=11 note=62 velocity=94 time=312
note_off channel=11 note=62 velocity=64 time=168
note_on channel=11 note=68 velocity=94 time=312
note_off channel=11 note=68 velocity=64 time=764
note_on channel=11 note=69 velocity=94 time=36
note_off channel=11 note=69 velocity=64 time=592
note_on channel=11 note=64 velocity=94 time=48
note_off channel=11 note=64 velocity=64 time=272
note_on channel=11 note=67 velocity=94 time=48
note_off channel=11 note=67 velocity=64 time=124
note_on channel=11 note=55 velocity=50 time=19556
note_off channel=11 note=55 velocity=64 time=124
note_on channel=11 note=64 velocity=55 time=36
note_off channel=11 note=64 velocity=64 time=132
note_on channel=11 note=65 velocity=50 time=348
note_off channel=11 note=65 velocity=64 time=294
control_change channel=11 control=11 value=109 time=26
note_on channel=11 note=67 velocity=58 time=0
control_change channel=11 control=11 value=110 time=100
control_change channel=11 control=11 value=111 time=100
control_change channel=11 control=11 value=113 time=100
control_change channel=11 control=11 value=114 time=100
control_change channel=11 control=11 value=115 time=100
control_change channel=11 control=11 value=116 time=100
note_off channel=11 note=67 velocity=64 time=12
note_on channel=11 note=69 velocity=58 time=28
control_change channel=11 control=11 value=118 time=60
control_change channel=11 control=11 value=119 time=100
control_change channel=11 control=11 value=120 time=100
control_change channel=11 control=11 value=121 time=100
control_change channel=11 control=11 value=123 time=100
control_change channel=11 control=11 value=124 time=100
control_change channel=11 control=11 value=125 time=100
control_change channel=11 control=11 value=127 time=60
note_off channel=11 note=69 velocity=64 time=32
note_on channel=11 note=65 velocity=60 time=48
note_off channel=11 note=65 velocity=64 time=112
note_on channel=11 note=65 velocity=55 time=368
note_off channel=11 note=65 velocity=64 time=144
note_on channel=11 note=65 velocity=50 time=336
note_off channel=11 note=65 velocity=64 time=136
note_on channel=11 note=59 velocity=55 time=24
note_off channel=11 note=59 velocity=64 time=284
note_on channel=11 note=59 velocity=50 time=36
note_off channel=11 note=59 velocity=64 time=136
note_on channel=11 note=57 velocity=55 time=24
note_off channel=11 note=57 velocity=64 time=120
note_on channel=11 note=60 velocity=55 time=360
note_off channel=11 note=60 velocity=64 time=284
note_on channel=11 note=67 velocity=55 time=36
note_off channel=11 note=67 velocity=64 time=120
note_on channel=11 note=60 velocity=55 time=360
control_change channel=11 control=11 value=127 time=232
control_change channel=11 control=11 value=120 time=24
control_change channel=11 control=11 value=114 time=24
control_change channel=11 control=11 value=108 time=24
control_change channel=11 control=11 value=101 time=24
control_change channel=11 control=11 value=94 time=24
control_change channel=11 control=11 value=96 time=120
control_change channel=11 control=11 value=99 time=120
control_change channel=11 control=11 value=101 time=120
control_change channel=11 control=11 value=104 time=120
control_change channel=11 control=11 value=106 time=120
control_change channel=11 control=11 value=109 time=120
control_change channel=11 control=11 value=111 time=120
control_change channel=11 control=11 value=114 time=120
control_change channel=11 control=11 value=116 time=120
control_change channel=11 control=11 value=119 time=120
control_change channel=11 control=11 value=121 time=120
control_change channel=11 control=11 value=124 time=120
control_change channel=11 control=11 value=127 time=120
note_off channel=11 note=60 velocity=64 time=120
note_on channel=11 note=58 velocity=56 time=1008
note_off channel=11 note=58 velocity=64 time=284
note_on channel=11 note=62 velocity=59 time=36
note_off channel=11 note=62 velocity=64 time=108
note_on channel=11 note=65 velocity=65 time=372
note_off channel=11 note=65 velocity=64 time=592
note_on channel=11 note=64 velocity=60 time=48
note_off channel=11 note=64 velocity=64 time=296
note_on channel=11 note=62 velocity=50 time=24
note_off channel=11 note=62 velocity=64 time=134
note_on channel=11 note=60 velocity=55 time=26
note_off channel=11 note=60 velocity=64 time=284
note_on channel=11 note=61 velocity=55 time=36
note_off channel=11 note=61 velocity=64 time=120
note_on channel=11 note=61 velocity=56 time=360
control_change channel=11 control=11 value=127 time=232
control_change channel=11 control=11 value=120 time=24
control_change channel=11 control=11 value=114 time=24
control_change channel=11 control=11 value=108 time=24
control_change channel=11 control=11 value=101 time=24
control_change channel=11 control=11 value=95 time=24
control_change channel=11 control=11 value=95 time=0
control_change channel=11 control=11 value=96 time=120
control_change channel=11 control=11 value=98 time=120
control_change channel=11 control=11 value=99 time=120
control_change channel=11 control=11 value=100 time=120
control_change channel=11 control=11 value=101 time=120
control_change channel=11 control=11 value=103 time=120
control_change channel=11 control=11 value=104 time=120
control_change channel=11 control=11 value=105 time=120
control_change channel=11 control=11 value=106 time=120
control_change channel=11 control=11 value=108 time=120
control_change channel=11 control=11 value=109 time=120
control_change channel=11 control=11 value=110 time=120
control_change channel=11 control=11 value=111 time=120
control_change channel=11 control=11 value=113 time=120
note_off channel=11 note=61 velocity=64 time=32
note_on channel=11 note=60 velocity=51 time=16
control_change channel=11 control=11 value=114 time=72
control_change channel=11 control=11 value=115 time=120
control_change channel=11 control=11 value=116 time=120
control_change channel=11 control=11 value=118 time=120
control_change channel=11 control=11 value=119 time=120
control_change channel=11 control=11 value=120 time=120
control_change channel=11 control=11 value=121 time=120
control_change channel=11 control=11 value=123 time=120
control_change channel=11 control=11 value=124 time=120
control_change channel=11 control=11 value=125 time=120
control_change channel=11 control=11 value=127 time=48
note_off channel=11 note=60 velocity=64 time=180
note_on channel=11 note=60 velocity=59 time=60
note_off channel=11 note=60 velocity=64 time=284
note_on channel=11 note=59 velocity=60 time=36
note_off channel=11 note=59 velocity=64 time=112
note_on channel=11 note=62 velocity=69 time=3248
note_off channel=11 note=62 velocity=64 time=136
note_on channel=11 note=60 velocity=66 time=24
note_off channel=11 note=60 velocity=64 time=296
note_on channel=11 note=57 velocity=57 time=24
note_off channel=11 note=57 velocity=64 time=136
note_on channel=11 note=62 velocity=69 time=3224
note_off channel=11 note=62 velocity=64 time=136
note_on channel=11 note=60 velocity=66 time=24
note_off channel=11 note=60 velocity=64 time=296
note_on channel=11 note=57 velocity=57 time=24
note_off channel=11 note=57 velocity=64 time=136
note_on channel=11 note=55 velocity=62 time=8024
note_off channel=11 note=55 velocity=64 time=136
note_on channel=11 note=64 velocity=69 time=24
note_off channel=11 note=64 velocity=64 time=144
note_on channel=11 note=65 velocity=75 time=336
note_off channel=11 note=65 velocity=64 time=296
note_on channel=11 note=67 velocity=62 time=24
note_off channel=11 note=67 velocity=64 time=136
note_on channel=11 note=70 velocity=72 time=24
note_off channel=11 note=70 velocity=64 time=296
note_on channel=11 note=70 velocity=81 time=24
note_off channel=11 note=70 velocity=64 time=604
note_on channel=11 note=67 velocity=71 time=36
note_off channel=11 note=67 velocity=64 time=308
note_on channel=11 note=67 velocity=77 time=12
control_change channel=11 control=11 value=127 time=16
control_change channel=11 control=11 value=125 time=120
control_change channel=11 control=11 value=123 time=120
control_change channel=11 control=11 value=121 time=120
control_change channel=11 control=11 value=119 time=120
control_change channel=11 control=11 value=118 time=120
control_change channel=11 control=11 value=115 time=96
control_change channel=11 control=11 value=114 time=120
control_change channel=11 control=11 value=111 time=120
note_off channel=11 note=67 velocity=64 time=120
control_change channel=11 control=11 value=110 time=0
control_change channel=11 control=11 value=109 time=24
control_change channel=11 control=11 value=127 time=24
note_on channel=11 note=57 velocity=62 time=320
note_off channel=11 note=57 velocity=64 time=136
note_on channel=11 note=59 velocity=69 time=24
note_off channel=11 note=59 velocity=64 time=144
note_on channel=11 note=61 velocity=76 time=336
note_off channel=11 note=61 velocity=64 time=296
note_on channel=11 note=61 velocity=62 time=24
note_off channel=11 note=61 velocity=64 time=136
note_on channel=11 note=64 velocity=72 time=24
note_off channel=11 note=64 velocity=64 time=296
note_on channel=11 note=67 velocity=81 time=24
note_off channel=11 note=67 velocity=64 time=604
note_on channel=11 note=63 velocity=72 time=36
note_off channel=11 note=63 velocity=64 time=308
note_on channel=11 note=63 velocity=77 time=12
control_change channel=11 control=11 value=127 time=16
control_change channel=11 control=11 value=125 time=120
control_change channel=11 control=11 value=123 time=120
control_change channel=11 control=11 value=121 time=120
control_change channel=11 control=11 value=119 time=120
control_change channel=11 control=11 value=118 time=120
control_change channel=11 control=11 value=115 time=96
control_change channel=11 control=11 value=114 time=120
control_change channel=11 control=11 value=111 time=120
note_off channel=11 note=63 velocity=64 time=120
control_change channel=11 control=11 value=110 time=0
control_change channel=11 control=11 value=109 time=24
control_change channel=11 control=11 value=127 time=24
note_on channel=11 note=60 velocity=69 time=7040
note_off channel=11 note=60 velocity=64 time=580
note_on channel=11 note=59 velocity=69 time=60
note_off channel=11 note=59 velocity=64 time=144
note_on channel=11 note=59 velocity=69 time=336
note_off channel=11 note=59 velocity=64 time=296
note_on channel=11 note=59 velocity=69 time=24
note_off channel=11 note=59 velocity=64 time=136
note_on channel=11 note=59 velocity=62 time=24
note_off channel=11 note=59 velocity=64 time=56
note_on channel=11 note=59 velocity=69 time=24
note_off channel=11 note=59 velocity=64 time=68
note_on channel=11 note=59 velocity=69 time=332
note_off channel=11 note=59 velocity=64 time=308
control_change channel=11 control=11 value=104 time=12
note_on channel=11 note=58 velocity=75 time=0
control_change channel=11 control=11 value=105 time=100
control_change channel=11 control=11 value=108 time=80
control_change channel=11 control=11 value=109 time=100
control_change channel=11 control=11 value=111 time=100
control_change channel=11 control=11 value=114 time=90
control_change channel=11 control=11 value=115 time=100
control_change channel=11 control=11 value=118 time=70
control_change channel=11 control=11 value=119 time=100
control_change channel=11 control=11 value=121 time=100
control_change channel=11 control=11 value=124 time=90
control_change channel=11 control=11 value=125 time=100
control_change channel=11 control=11 value=127 time=10
note_off channel=11 note=58 velocity=64 time=80
note_on channel=11 note=60 velocity=76 time=320
note_on channel=11 note=59 velocity=40 time=112
note_on channel=11 note=58 velocity=28 time=40
note_off channel=11 note=60 velocity=64 time=4
note_off channel=11 note=59 velocity=64 time=8
note_on channel=11 note=57 velocity=17 time=28
note_off channel=11 note=58 velocity=64 time=12
note_off channel=11 note=57 velocity=64 time=40
note_on channel=11 note=62 velocity=75 time=236
note_off channel=11 note=62 velocity=64 time=592
note_on channel=11 note=62 velocity=69 time=48
note_off channel=11 note=62 velocity=64 time=296
note_on channel=11 note=60 velocity=57 time=24
note_off channel=11 note=60 velocity=64 time=136
note_on channel=11 note=64 velocity=69 time=24
note_off channel=11 note=64 velocity=64 time=284
note_on channel=11 note=61 velocity=69 time=36
note_off channel=11 note=61 velocity=64 time=156
note_on channel=11 note=64 velocity=69 time=324
control_change channel=11 control=11 value=127 time=160
control_change channel=11 control=11 value=125 time=120
control_change channel=11 control=11 value=123 time=120
control_change channel=11 control=11 value=121 time=120
control_change channel=11 control=11 value=119 time=120
control_change channel=11 control=11 value=118 time=120
control_change channel=11 control=11 value=115 time=120
control_change channel=11 control=11 value=114 time=120
control_change channel=11 control=11 value=111 time=120
control_change channel=11 control=11 value=110 time=120
control_change channel=11 control=11 value=108 time=120
control_change channel=11 control=11 value=106 time=120
control_change channel=11 control=11 value=104 time=120
control_change channel=11 control=11 value=103 time=120
control_change channel=11 control=11 value=100 time=120
control_change channel=11 control=11 value=99 time=120
note_off channel=11 note=64 velocity=64 time=60
control_change channel=11 control=11 value=96 time=36
control_change channel=11 control=11 value=127 time=24
note_on channel=11 note=61 velocity=75 time=320
note_on channel=11 note=60 velocity=30 time=112
note_on channel=11 note=59 velocity=20 time=40
note_off channel=11 note=61 velocity=64 time=4
note_off channel=11 note=60 velocity=64 time=8
note_off channel=11 note=59 velocity=64 time=40
note_on channel=11 note=64 velocity=75 time=276
note_off channel=11 note=64 velocity=64 time=580
note_on channel=11 note=62 velocity=75 time=60
note_off channel=11 note=62 velocity=64 time=168
note_on channel=11 note=61 velocity=74 time=632
note_on channel=11 note=60 velocity=32 time=112
note_on channel=11 note=59 velocity=23 time=40
note_off channel=11 note=61 velocity=64 time=4
note_off channel=11 note=60 velocity=64 time=8
note_off channel=11 note=59 velocity=64 time=40
note_on channel=11 note=62 velocity=75 time=276
note_off channel=11 note=62 velocity=64 time=580
note_on channel=11 note=60 velocity=75 time=60
note_off channel=11 note=60 velocity=64 time=168
note_on channel=11 note=58 velocity=69 time=632
note_off channel=11 note=58 velocity=64 time=444
note_on channel=11 note=60 velocity=71 time=36
note_off channel=11 note=60 velocity=64 time=444
note_on channel=11 note=63 velocity=74 time=36
note_off channel=11 note=63 velocity=64 time=444
note_on channel=11 note=60 velocity=66 time=36
note_off channel=11 note=60 velocity=64 time=136
note_on channel=11 note=63 velocity=79 time=24
note_off channel=11 note=63 velocity=64 time=148
note_on channel=11 note=60 velocity=65 time=12
note_off channel=11 note=60 velocity=64 time=148
note_on channel=11 note=67 velocity=80 time=12
note_off channel=11 note=67 velocity=64 time=924
note_on channel=11 note=61 velocity=75 time=36
note_off channel=11 note=61 velocity=64 time=604
note_on channel=11 note=55 velocity=69 time=36
note_off channel=11 note=55 velocity=64 time=284
note_on channel=11 note=55 velocity=70 time=36
note_off channel=11 note=55 velocity=64 time=124
note_on channel=11 note=69 velocity=81 time=15236
note_off channel=11 note=69 velocity=64 time=604
note_on channel=11 note=64 velocity=81 time=36
note_off channel=11 note=64 velocity=64 time=296
note_on channel=11 note=65 velocity=81 time=24
note_off channel=11 note=65 velocity=64 time=136
note_on channel=11 note=69 velocity=81 time=824
note_off channel=11 note=69 velocity=64 time=604
note_on channel=11 note=63 velocity=81 time=36
note_off channel=11 note=63 velocity=64 time=296
note_on channel=11 note=60 velocity=81 time=24
note_off channel=11 note=60 velocity=64 time=136
note_on channel=11 note=69 velocity=81 time=824
note_off channel=11 note=69 velocity=64 time=604
note_on channel=11 note=64 velocity=81 time=36
note_off channel=11 note=64 velocity=64 time=296
note_on channel=11 note=65 velocity=81 time=24
note_off channel=11 note=65 velocity=64 time=136
note_on channel=11 note=69 velocity=81 time=824
note_off channel=11 note=69 velocity=64 time=604
note_on channel=11 note=63 velocity=81 time=36
note_off channel=11 note=63 velocity=64 time=296
note_on channel=11 note=64 velocity=81 time=24
note_off channel=11 note=64 velocity=64 time=136
note_on channel=11 note=69 velocity=81 time=824
note_off channel=11 note=69 velocity=64 time=580
note_on channel=11 note=69 velocity=81 time=60
note_off channel=11 note=69 velocity=64 time=168
note_on channel=11 note=69 velocity=81 time=312
note_off channel=11 note=69 velocity=64 time=168
note_on channel=11 note=69 velocity=81 time=312
note_off channel=11 note=69 velocity=64 time=296
note_on channel=11 note=72 velocity=69 time=24
note_off channel=11 note=72 velocity=64 time=148
note_on channel=11 note=69 velocity=81 time=12
note_off channel=11 note=69 velocity=64 time=311
note_on channel=11 note=69 velocity=81 time=9
pitchwheel channel=11 pitch=0 time=16
control_change channel=11 control=11 value=127 time=0
pitchwheel channel=11 pitch=242 time=24
control_change channel=11 control=11 value=124 time=72
control_change channel=11 control=11 value=121 time=96
pitchwheel channel=11 pitch=0 time=72
control_change channel=11 control=11 value=119 time=48
control_change channel=11 control=11 value=116 time=48
pitchwheel channel=11 pitch=-82 time=96
control_change channel=11 control=11 value=114 time=24
control_change channel=11 control=11 value=111 time=72
pitchwheel channel=11 pitch=-244 time=24
pitchwheel channel=11 pitch=-407 time=96
control_change channel=11 control=11 value=109 time=0
control_change channel=11 control=11 value=106 time=48
pitchwheel channel=11 pitch=-569 time=24
pitchwheel channel=11 pitch=-731 time=72
control_change channel=11 control=11 value=104 time=24
pitchwheel channel=11 pitch=-893 time=24
pitchwheel channel=11 pitch=-1055 time=48
control_change channel=11 control=11 value=101 time=0
pitchwheel channel=11 pitch=-1218 time=48
pitchwheel channel=11 pitch=-1380 time=24
pitchwheel channel=11 pitch=-1542 time=24
pitchwheel channel=11 pitch=-1704 time=24
control_change channel=11 control=11 value=99 time=0
note_off channel=11 note=69 velocity=64 time=24
pitchwheel channel=11 pitch=-2029 time=0
control_change channel=11 control=11 value=96 time=24
control_change channel=11 control=11 value=127 time=0
control_change channel=11 control=11 value=127 time=24
pitchwheel channel=11 pitch=0 time=0
note_on channel=11 note=67 velocity=81 time=320
note_on channel=11 note=66 velocity=30 time=112
note_on channel=11 note=65 velocity=20 time=40
note_off channel=11 note=67 velocity=64 time=8
note_off channel=11 note=66 velocity=64 time=4
note_off channel=11 note=65 velocity=64 time=40
note_on channel=11 note=67 velocity=81 time=436
note_off channel=11 note=67 velocity=64 time=168
note_on channel=11 note=67 velocity=81 time=312
note_off channel=11 note=67 velocity=64 time=168
note_on channel=11 note=68 velocity=81 time=792
note_off channel=11 note=68 velocity=64 time=296
note_on channel=11 note=68 velocity=81 time=24
note_off channel=11 note=68 velocity=64 time=192
note_on channel=11 note=65 velocity=69 time=288
note_off channel=11 note=65 velocity=64 time=148
note_on channel=11 note=68 velocity=81 time=12
note_off channel=11 note=68 velocity=64 time=308
note_on channel=11 note=68 velocity=75 time=12
note_off channel=11 note=68 velocity=64 time=136
note_on channel=11 note=69 velocity=81 time=24
note_off channel=11 note=69 velocity=64 time=296
note_on channel=11 note=65 velocity=81 time=24
note_off channel=11 note=65 velocity=64 time=136
note_on channel=11 note=65 velocity=81 time=1944
note_off channel=11 note=65 velocity=64 time=168
note_on channel=11 note=64 velocity=81 time=312
note_off channel=11 note=64 velocity=64 time=296
note_on channel=11 note=65 velocity=81 time=24
note_off channel=11 note=65 velocity=64 time=180
note_on channel=11 note=72 velocity=81 time=300
note_on channel=11 note=74 velocity=59 time=1440
note_off channel=11 note=72 velocity=64 time=16
note_on channel=11 note=73 velocity=70 time=64
note_off channel=11 note=74 velocity=64 time=24
note_on channel=11 note=69 velocity=81 time=56
note_off channel=11 note=73 velocity=64 time=24
note_off channel=11 note=69 velocity=64 time=284
note_on channel=11 note=64 velocity=81 time=12
pitchwheel channel=11 pitch=0 time=160
control_change channel=11 control=11 value=127 time=0
pitchwheel channel=11 pitch=242 time=12
control_change channel=11 control=11 value=124 time=72
control_change channel=11 control=11 value=121 time=72
pitchwheel channel=11 pitch=0 time=48
control_change channel=11 control=11 value=119 time=60
control_change channel=11 control=11 value=116 time=48
pitchwheel channel=11 pitch=-82 time=36
control_change channel=11 control=11 value=114 time=72
pitchwheel channel=11 pitch=-244 time=24
control_change channel=11 control=11 value=111 time=24
pitchwheel channel=11 pitch=-407 time=48
pitchwheel channel=11 pitch=-569 time=60
control_change channel=11 control=11 value=109 time=0
control_change channel=11 control=11 value=106 time=48
pitchwheel channel=11 pitch=-731 time=12
pitchwheel channel=11 pitch=-893 time=36
pitchwheel channel=11 pitch=-1055 time=48
control_change channel=11 control=11 value=104 time=12
pitchwheel channel=11 pitch=-1218 time=24
pitchwheel channel=11 pitch=-1380 time=24
control_change channel=11 control=11 value=101 time=0
pitchwheel channel=11 pitch=-1542 time=36
pitchwheel channel=11 pitch=-1704 time=24
pitchwheel channel=11 pitch=-1866 time=12
pitchwheel channel=11 pitch=-2029 time=24
pitchwheel channel=11 pitch=-2191 time=12
control_change channel=11 control=11 value=99 time=0
pitchwheel channel=11 pitch=-2353 time=12
note_off channel=11 note=64 velocity=64 time=12
pitchwheel channel=11 pitch=-2515 time=0
pitchwheel channel=11 pitch=-2840 time=12
control_change channel=11 control=11 value=96 time=12
control_change channel=11 control=11 value=127 time=24
pitchwheel channel=11 pitch=0 time=0
note_on channel=11 note=67 velocity=81 time=1280
note_off channel=11 note=67 velocity=64 time=604
note_on channel=11 note=69 velocity=81 time=36
note_off channel=11 note=69 velocity=64 time=180
note_on channel=11 note=70 velocity=81 time=300
note_off channel=11 note=70 velocity=64 time=296
note_on channel=11 note=69 velocity=81 time=24
note_off channel=11 note=69 velocity=64 time=136
note_on channel=11 note=69 velocity=81 time=344
note_off channel=11 note=69 velocity=64 time=180
note_on channel=11 note=67 velocity=75 time=300
note_off channel=11 note=67 velocity=64 time=148
note_on channel=11 note=65 velocity=81 time=12
note_off channel=11 note=65 velocity=64 time=456
note_on channel=11 note=64 velocity=81 time=24
note_off channel=11 note=64 velocity=64 time=156
note_on channel=11 note=74 velocity=88 time=804
note_off channel=11 note=74 velocity=64 time=912
note_on channel=11 note=72 velocity=81 time=48
note_off channel=11 note=72 velocity=64 time=180
control_change channel=11 control=11 value=104 time=300
note_on channel=11 note=70 velocity=88 time=0
control_change channel=11 control=11 value=106 time=108
control_change channel=11 control=11 value=109 time=108
note_off channel=11 note=70 velocity=64 time=92
note_on channel=11 note=72 velocity=88 time=12
control_change channel=11 control=11 value=111 time=4
control_change channel=11 control=11 value=114 time=108
control_change channel=11 control=11 value=116 time=108
control_change channel=11 control=11 value=119 time=108
control_change channel=11 control=11 value=121 time=108
control_change channel=11 control=11 value=124 time=108
note_off channel=11 note=72 velocity=64 time=60
control_change channel=11 control=11 value=127 time=36
control_change channel=11 control=11 value=127 time=0
note_on channel=11 note=69 velocity=88 time=0
control_change channel=11 control=11 value=124 time=84
control_change channel=11 control=11 value=121 time=84
control_change channel=11 control=11 value=119 time=108
note_off channel=11 note=69 velocity=64 time=32
note_on channel=11 note=63 velocity=88 time=12
control_change channel=11 control=11 value=116 time=4
control_change channel=11 control=11 value=114 time=108
control_change channel=11 control=11 value=111 time=48
control_change channel=11 control=11 value=109 time=108
control_change channel=11 control=11 value=106 time=60
control_change channel=11 control=11 value=104 time=108
control_change channel=11 control=11 value=101 time=48
note_off channel=11 note=63 velocity=64 time=108
control_change channel=11 control=11 value=99 time=0
control_change channel=11 control=11 value=96 time=48
control_change channel=11 control=11 value=127 time=0
control_change channel=11 control=11 value=127 time=12
note_on channel=11 note=62 velocity=69 time=3188
note_off channel=11 note=62 velocity=64 time=136
note_on channel=11 note=60 velocity=66 time=24
note_off channel=11 note=60 velocity=64 time=296
note_on channel=11 note=57 velocity=57 time=24
note_off channel=11 note=57 velocity=64 time=136
note_on channel=11 note=62 velocity=69 time=3224
note_off channel=11 note=62 velocity=64 time=136
note_on channel=11 note=60 velocity=66 time=24
note_off channel=11 note=60 velocity=64 time=296
note_on channel=11 note=57 velocity=57 time=24
note_off channel=11 note=57 velocity=64 time=136
note_on channel=11 note=65 velocity=81 time=8024
note_off channel=11 note=65 velocity=64 time=168
note_on channel=11 note=67 velocity=81 time=312
note_off channel=11 note=67 velocity=64 time=136
note_on channel=11 note=67 velocity=81 time=24
note_off channel=11 note=67 velocity=64 time=168
note_on channel=11 note=67 velocity=81 time=312
note_off channel=11 note=67 velocity=64 time=168
control_change channel=11 control=93 value=30 time=312
note_on channel=11 note=68 velocity=81 time=0
note_off channel=11 note=68 velocity=64 time=444
note_on channel=11 note=70 velocity=81 time=36
note_off channel=11 note=70 velocity=64 time=296
note_on channel=11 note=72 velocity=81 time=24
note_off channel=11 note=72 velocity=64 time=136
note_on channel=11 note=62 velocity=81 time=824
note_off channel=11 note=62 velocity=64 time=604
note_on channel=11 note=65 velocity=81 time=36
note_off channel=11 note=65 velocity=64 time=296
note_on channel=11 note=62 velocity=69 time=24
note_off channel=11 note=62 velocity=64 time=136
note_on channel=11 note=69 velocity=81 time=24
note_off channel=11 note=69 velocity=64 time=284
note_on channel=11 note=69 velocity=81 time=36
note_off channel=11 note=69 velocity=64 time=168
note_on channel=11 note=69 velocity=81 time=312
note_off channel=11 note=69 velocity=64 time=604
note_on channel=11 note=72 velocity=81 time=36
note_off channel=11 note=72 velocity=64 time=296
note_on channel=11 note=70 velocity=81 time=24
note_off channel=11 note=70 velocity=64 time=124
note_on channel=11 note=68 velocity=81 time=1316
note_off channel=11 note=68 velocity=64 time=568
note_on channel=11 note=69 velocity=81 time=72
note_off channel=11 note=69 velocity=64 time=156
note_on channel=11 note=62 velocity=81 time=324
note_off channel=11 note=62 velocity=64 time=156
note_on channel=11 note=68 velocity=81 time=324
note_off channel=11 note=68 velocity=64 time=782
note_on channel=11 note=69 velocity=81 time=18
note_off channel=11 note=69 velocity=64 time=1060
control_change channel=11 control=0 value=56 time=7740
control_change channel=11 control=32 value=0 time=0
program_change channel=11 program=59 time=0
note_on channel=11 note=65 velocity=45 time=2720
control_change channel=11 control=11 value=127 time=1120
control_change channel=11 control=11 value=125 time=120
control_change channel=11 control=11 value=124 time=120
control_change channel=11 control=11 value=123 time=120
control_change channel=11 control=11 value=121 time=120
control_change channel=11 control=11 value=120 time=120
control_change channel=11 control=11 value=119 time=120
control_change channel=11 control=11 value=118 time=120
control_change channel=11 control=11 value=116 time=120
control_change channel=11 control=11 value=115 time=120
control_change channel=11 control=11 value=114 time=120
control_change channel=11 control=11 value=113 time=120
control_change channel=11 control=11 value=111 time=120
control_change channel=11 control=11 value=110 time=120
control_change channel=11 control=11 value=109 time=120
control_change channel=11 control=11 value=108 time=120
control_change channel=11 control=11 value=106 time=120
control_change channel=11 control=11 value=105 time=120
control_change channel=11 control=11 value=104 time=120
control_change channel=11 control=11 value=103 time=120
control_change channel=11 control=11 value=101 time=120
control_change channel=11 control=11 value=100 time=120
control_change channel=11 control=11 value=99 time=120
control_change channel=11 control=11 value=98 time=120
note_off channel=11 note=65 velocity=64 time=96
<meta message end_of_track time=0>
<meta message text text='Trombone 1' time=0>
control_change channel=12 control=11 value=127 time=0
control_change channel=12 control=7 value=106 time=0
control_change channel=12 control=10 value=84 time=0
control_change channel=12 control=91 value=94 time=0
control_change channel=12 control=93 value=30 time=0
control_change channel=12 control=0 value=56 time=0
control_change channel=12 control=32 value=0 time=0
program_change channel=12 program=57 time=0
note_on channel=12 note=68 velocity=69 time=9920
note_off channel=12 note=68 velocity=64 time=580
note_on channel=12 note=69 velocity=70 time=60
note_off channel=12 note=69 velocity=64 time=168
note_on channel=12 note=62 velocity=72 time=312
note_off channel=12 note=62 velocity=64 time=168
note_on channel=12 note=68 velocity=74 time=312
note_off channel=12 note=68 velocity=64 time=764
note_on channel=12 note=69 velocity=76 time=36
note_off channel=12 note=69 velocity=64 time=1072
note_on channel=12 note=63 velocity=81 time=368
note_off channel=12 note=63 velocity=64 time=580
note_on channel=12 note=64 velocity=84 time=60
note_off channel=12 note=64 velocity=64 time=168
note_on channel=12 note=62 velocity=85 time=312
note_off channel=12 note=62 velocity=64 time=168
note_on channel=12 note=63 velocity=88 time=312
note_off channel=12 note=63 velocity=64 time=764
note_on channel=12 note=62 velocity=90 time=36
note_off channel=12 note=62 velocity=64 time=592
note_on channel=12 note=62 velocity=93 time=48
note_off channel=12 note=62 velocity=64 time=272
note_on channel=12 note=62 velocity=93 time=48
note_off channel=12 note=62 velocity=64 time=124
note_on channel=12 note=53 velocity=50 time=19556
note_off channel=12 note=53 velocity=64 time=124
note_on channel=12 note=61 velocity=55 time=36
note_off channel=12 note=61 velocity=64 time=132
note_on channel=12 note=62 velocity=50 time=348
note_off channel=12 note=62 velocity=64 time=294
control_change channel=12 control=11 value=109 time=26
note_on channel=12 note=65 velocity=58 time=0
control_change channel=12 control=11 value=110 time=100
control_change channel=12 control=11 value=111 time=100
control_change channel=12 control=11 value=113 time=100
control_change channel=12 control=11 value=114 time=100
control_change channel=12 control=11 value=115 time=100
control_change channel=12 control=11 value=116 time=100
control_change channel=12 control=11 value=118 time=100
control_change channel=12 control=11 value=119 time=100
control_change channel=12 control=11 value=120 time=100
control_change channel=12 control=11 value=121 time=100
control_change channel=12 control=11 value=123 time=100
control_change channel=12 control=11 value=124 time=100
control_change channel=12 control=11 value=125 time=100
control_change channel=12 control=11 value=127 time=60
note_off channel=12 note=65 velocity=64 time=44
note_on channel=12 note=64 velocity=60 time=36
note_off channel=12 note=64 velocity=64 time=112
note_on channel=12 note=62 velocity=55 time=368
note_off channel=12 note=62 velocity=64 time=144
note_on channel=12 note=64 velocity=50 time=336
note_off channel=12 note=64 velocity=64 time=136
note_on channel=12 note=59 velocity=55 time=24
note_off channel=12 note=59 velocity=64 time=284
note_on channel=12 note=59 velocity=50 time=36
note_off channel=12 note=59 velocity=64 time=136
note_on channel=12 note=57 velocity=55 time=24
note_off channel=12 note=57 velocity=64 time=120
note_on channel=12 note=56 velocity=55 time=360
note_off channel=12 note=56 velocity=64 time=284
note_on channel=12 note=64 velocity=55 time=36
note_off channel=12 note=64 velocity=64 time=120
note_on channel=12 note=59 velocity=55 time=360
control_change channel=12 control=11 value=127 time=232
control_change channel=12 control=11 value=120 time=24
control_change channel=12 control=11 value=114 time=24
control_change channel=12 control=11 value=108 time=24
control_change channel=12 control=11 value=101 time=24
control_change channel=12 control=11 value=94 time=24
control_change channel=12 control=11 value=96 time=120
control_change channel=12 control=11 value=99 time=120
control_change channel=12 control=11 value=101 time=120
control_change channel=12 control=11 value=104 time=120
control_change channel=12 control=11 value=106 time=120
control_change channel=12 control=11 value=109 time=120
control_change channel=12 control=11 value=111 time=120
control_change channel=12 control=11 value=114 time=120
control_change channel=12 control=11 value=116 time=120
control_change channel=12 control=11 value=119 time=120
control_change channel=12 control=11 value=121 time=120
control_change channel=12 control=11 value=124 time=120
control_change channel=12 control=11 value=127 time=120
note_off channel=12 note=59 velocity=64 time=120
note_on channel=12 note=55 velocity=60 time=368
note_off channel=12 note=55 velocity=64 time=124
note_on channel=12 note=55 velocity=54 time=36
note_off channel=12 note=55 velocity=64 time=120
note_on channel=12 note=58 velocity=56 time=360
note_off channel=12 note=58 velocity=64 time=284
note_on channel=12 note=58 velocity=59 time=36
note_off channel=12 note=58 velocity=64 time=108
note_on channel=12 note=62 velocity=65 time=372
note_off channel=12 note=62 velocity=64 time=592
note_on channel=12 note=62 velocity=60 time=48
note_off channel=12 note=62 velocity=64 time=296
note_on channel=12 note=62 velocity=50 time=24
note_off channel=12 note=62 velocity=64 time=134
note_on channel=12 note=60 velocity=55 time=26
note_off channel=12 note=60 velocity=64 time=284
note_on channel=12 note=62 velocity=55 time=36
note_off channel=12 note=62 velocity=64 time=120
note_on channel=12 note=61 velocity=56 time=360
control_change channel=12 control=11 value=127 time=232
control_change channel=12 control=11 value=120 time=24
control_change channel=12 control=11 value=114 time=24
control_change channel=12 control=11 value=108 time=24
control_change channel=12 control=11 value=101 time=24
control_change channel=12 control=11 value=95 time=24
control_change channel=12 control=11 value=95 time=0
control_change channel=12 control=11 value=96 time=120
control_change channel=12 control=11 value=98 time=120
control_change channel=12 control=11 value=99 time=120
control_change channel=12 control=11 value=100 time=120
control_change channel=12 control=11 value=101 time=120
control_change channel=12 control=11 value=103 time=120
control_change channel=12 control=11 value=104 time=120
control_change channel=12 control=11 value=105 time=120
control_change channel=12 control=11 value=106 time=120
control_change channel=12 control=11 value=108 time=120
control_change channel=12 control=11 value=109 time=120
control_change channel=12 control=11 value=110 time=120
control_change channel=12 control=11 value=111 time=120
control_change channel=12 control=11 value=113 time=120
note_off channel=12 note=61 velocity=64 time=32
note_on channel=12 note=60 velocity=51 time=16
control_change channel=12 control=11 value=114 time=72
control_change channel=12 control=11 value=115 time=120
control_change channel=12 control=11 value=116 time=120
control_change channel=12 control=11 value=118 time=120
control_change channel=12 control=11 value=119 time=120
control_change channel=12 control=11 value=120 time=120
control_change channel=12 control=11 value=121 time=120
control_change channel=12 control=11 value=123 time=120
control_change channel=12 control=11 value=124 time=120
control_change channel=12 control=11 value=125 time=120
control_change channel=12 control=11 value=127 time=48
note_off channel=12 note=60 velocity=64 time=180
note_on channel=12 note=60 velocity=59 time=60
note_off channel=12 note=60 velocity=64 time=284
note_on channel=12 note=59 velocity=60 time=36
note_off channel=12 note=59 velocity=64 time=112
note_on channel=12 note=58 velocity=48 time=1808
control_change channel=12 control=11 value=127 time=232
control_change channel=12 control=11 value=121 time=24
control_change channel=12 control=11 value=115 time=24
control_change channel=12 control=11 value=109 time=24
control_change channel=12 control=11 value=103 time=24
control_change channel=12 control=11 value=96 time=24
control_change channel=12 control=11 value=90 time=24
control_change channel=12 control=11 value=84 time=24
control_change channel=12 control=11 value=84 time=24
control_change channel=12 control=11 value=86 time=120
control_change channel=12 control=11 value=89 time=48
control_change channel=12 control=11 value=93 time=120
control_change channel=12 control=11 value=95 time=120
control_change channel=12 control=11 value=98 time=48
control_change channel=12 control=11 value=101 time=120
control_change channel=12 control=11 value=104 time=96
control_change channel=12 control=11 value=108 time=120
control_change channel=12 control=11 value=111 time=120
control_change channel=12 control=11 value=114 time=72
control_change channel=12 control=11 value=116 time=120
control_change channel=12 control=11 value=119 time=48
control_change channel=12 control=11 value=123 time=120
control_change channel=12 control=11 value=127 time=120
note_off channel=12 note=58 velocity=64 time=80
note_on channel=12 note=57 velocity=60 time=24
note_off channel=12 note=57 velocity=64 time=136
note_on channel=12 note=60 velocity=60 time=1784
control_change channel=12 control=11 value=127 time=232
control_change channel=12 control=11 value=121 time=24
control_change channel=12 control=11 value=115 time=24
control_change channel=12 control=11 value=109 time=24
control_change channel=12 control=11 value=103 time=24
control_change channel=12 control=11 value=96 time=24
control_change channel=12 control=11 value=90 time=24
control_change channel=12 control=11 value=84 time=24
control_change channel=12 control=11 value=84 time=24
control_change channel=12 control=11 value=86 time=120
control_change channel=12 control=11 value=89 time=48
control_change channel=12 control=11 value=93 time=120
control_change channel=12 control=11 value=95 time=120
control_change channel=12 control=11 value=98 time=48
control_change channel=12 control=11 value=101 time=120
control_change channel=12 control=11 value=104 time=96
control_change channel=12 control=11 value=108 time=120
control_change channel=12 control=11 value=111 time=120
control_change channel=12 control=11 value=114 time=72
control_change channel=12 control=11 value=116 time=120
control_change channel=12 control=11 value=119 time=48
control_change channel=12 control=11 value=123 time=120
control_change channel=12 control=11 value=127 time=120
note_off channel=12 note=60 velocity=64 time=80
note_on channel=12 note=59 velocity=60 time=24
note_off channel=12 note=59 velocity=64 time=136
note_on channel=12 note=58 velocity=60 time=1784
control_change channel=12 control=11 value=127 time=232
control_change channel=12 control=11 value=121 time=24
control_change channel=12 control=11 value=115 time=24
control_change channel=12 control=11 value=109 time=24
control_change channel=12 control=11 value=103 time=24
control_change channel=12 control=11 value=96 time=24
control_change channel=12 control=11 value=90 time=24
control_change channel=12 control=11 value=84 time=24
control_change channel=12 control=11 value=84 time=24
control_change channel=12 control=11 value=86 time=120
control_change channel=12 control=11 value=89 time=48
control_change channel=12 control=11 value=93 time=120
control_change channel=12 control=11 value=95 time=120
control_change channel=12 control=11 value=98 time=48
control_change channel=12 control=11 value=101 time=120
control_change channel=12 control=11 value=104 time=96
control_change channel=12 control=11 value=108 time=120
control_change channel=12 control=11 value=111 time=120
control_change channel=12 control=11 value=114 time=72
control_change channel=12 control=11 value=116 time=120
control_change channel=12 control=11 value=119 time=48
control_change channel=12 control=11 value=123 time=120
control_change channel=12 control=11 value=127 time=120
note_off channel=12 note=58 velocity=64 time=80
control_change channel=12 control=93 value=60 time=184
note_on channel=12 note=62 velocity=75 time=320
note_off channel=12 note=62 velocity=64 time=580
note_on channel=12 note=60 velocity=75 time=60
note_off channel=12 note=60 velocity=64 time=144
note_on channel=12 note=55 velocity=75 time=336
note_off channel=12 note=55 velocity=64 time=144
note_on channel=12 note=59 velocity=75 time=336
note_off channel=12 note=59 velocity=64 time=444
note_on channel=12 note=60 velocity=75 time=36
note_off channel=12 note=60 velocity=64 time=284
note_on channel=12 note=62 velocity=75 time=36
note_off channel=12 note=62 velocity=64 time=124
note_on channel=12 note=60 velocity=75 time=380
note_off channel=12 note=60 velocity=64 time=556
control_change channel=12 control=93 value=30 time=60
note_on channel=12 note=53 velocity=62 time=320
note_off channel=12 note=53 velocity=64 time=136
note_on channel=12 note=61 velocity=69 time=24
note_off channel=12 note=61 velocity=64 time=144
note_on channel=12 note=62 velocity=75 time=336
note_off channel=12 note=62 velocity=64 time=296
note_on channel=12 note=65 velocity=62 time=24
note_off channel=12 note=65 velocity=64 time=136
note_on channel=12 note=67 velocity=72 time=24
note_off channel=12 note=67 velocity=64 time=296
note_on channel=12 note=68 velocity=81 time=24
note_off channel=12 note=68 velocity=64 time=604
note_on channel=12 note=67 velocity=71 time=36
note_off channel=12 note=67 velocity=64 time=308
note_on channel=12 note=65 velocity=77 time=12
control_change channel=12 control=11 value=127 time=16
control_change channel=12 control=11 value=125 time=120
control_change channel=12 control=11 value=123 time=120
control_change channel=12 control=11 value=121 time=120
control_change channel=12 control=11 value=119 time=120
control_change channel=12 control=11 value=118 time=120
control_change channel=12 control=11 value=115 time=96
control_change channel=12 control=11 value=114 time=120
control_change channel=12 control=11 value=111 time=120
note_off channel=12 note=65 velocity=64 time=120
control_change channel=12 control=11 value=110 time=0
control_change channel=12 control=11 value=109 time=24
control_change channel=12 control=11 value=127 time=24
note_on channel=12 note=57 velocity=62 time=320
note_off channel=12 note=57 velocity=64 time=136
note_on channel=12 note=56 velocity=69 time=24
note_off channel=12 note=56 velocity=64 time=144
note_on channel=12 note=57 velocity=76 time=336
note_off channel=12 note=57 velocity=64 time=296
note_on channel=12 note=60 velocity=62 time=24
note_off channel=12 note=60 velocity=64 time=136
note_on channel=12 note=62 velocity=72 time=24
note_off channel=12 note=62 velocity=64 time=296
note_on channel=12 note=63 velocity=81 time=24
note_off channel=12 note=63 velocity=64 time=604
note_on channel=12 note=62 velocity=72 time=36
note_off channel=12 note=62 velocity=64 time=308
note_on channel=12 note=60 velocity=77 time=12
control_change channel=12 control=11 value=127 time=16
control_change channel=12 control=11 value=125 time=120
control_change channel=12 control=11 value=123 time=120
control_change channel=12 control=11 value=121 time=120
control_change channel=12 control=11 value=119 time=120
control_change channel=12 control=11 value=118 time=120
control_change channel=12 control=11 value=115 time=96
control_change channel=12 control=11 value=114 time=120
control_change channel=12 control=11 value=111 time=120
note_off channel=12 note=60 velocity=64 time=120
control_change channel=12 control=11 value=110 time=0
control_change channel=12 control=11 value=109 time=24
control_change channel=12 control=11 value=127 time=24
note_on channel=12 note=58 velocity=62 time=1760
control_change channel=12 control=11 value=127 time=232
control_change channel=12 control=11 value=121 time=24
control_change channel=12 control=11 value=115 time=24
control_change channel=12 control=11 value=109 time=24
control_change channel=12 control=11 value=103 time=24
control_change channel=12 control=11 value=96 time=24
control_change channel=12 control=11 value=90 time=24
control_change channel=12 control=11 value=84 time=24
control_change channel=12 control=11 value=88 time=96
control_change channel=12 control=11 value=91 time=96
control_change channel=12 control=11 value=94 time=72
control_change channel=12 control=11 value=98 time=96
control_change channel=12 control=11 value=101 time=96
control_change channel=12 control=11 value=104 time=48
control_change channel=12 control=11 value=108 time=96
control_change channel=12 control=11 value=111 time=96
control_change channel=12 control=11 value=114 time=72
control_change channel=12 control=11 value=118 time=72
control_change channel=12 control=11 value=121 time=96
control_change channel=12 control=11 value=124 time=72
control_change channel=12 control=11 value=127 time=48
note_off channel=12 note=58 velocity=64 time=104
note_on channel=12 note=58 velocity=62 time=40
note_off channel=12 note=58 velocity=64 time=296
note_on channel=12 note=57 velocity=62 time=24
note_off channel=12 note=57 velocity=64 time=136
note_on channel=12 note=60 velocity=69 time=3224
note_off channel=12 note=60 velocity=64 time=580
note_on channel=12 note=59 velocity=69 time=60
note_off channel=12 note=59 velocity=64 time=144
note_on channel=12 note=59 velocity=69 time=336
note_off channel=12 note=59 velocity=64 time=296
note_on channel=12 note=59 velocity=69 time=24
note_off channel=12 note=59 velocity=64 time=136
note_on channel=12 note=59 velocity=62 time=24
note_off channel=12 note=59 velocity=64 time=56
note_on channel=12 note=59 velocity=69 time=24
note_off channel=12 note=59 velocity=64 time=68
note_on channel=12 note=59 velocity=69 time=332
note_off channel=12 note=59 velocity=64 time=308
control_change channel=12 control=11 value=104 time=12
note_on channel=12 note=58 velocity=75 time=0
control_change channel=12 control=11 value=105 time=100
control_change channel=12 control=11 value=108 time=80
control_change channel=12 control=11 value=109 time=100
control_change channel=12 control=11 value=111 time=100
control_change channel=12 control=11 value=114 time=90
control_change channel=12 control=11 value=115 time=100
control_change channel=12 control=11 value=118 time=70
control_change channel=12 control=11 value=119 time=100
control_change channel=12 control=11 value=121 time=100
control_change channel=12 control=11 value=124 time=90
control_change channel=12 control=11 value=125 time=100
control_change channel=12 control=11 value=127 time=10
note_off channel=12 note=58 velocity=64 time=80
note_on channel=12 note=58 velocity=76 time=320
note_on channel=12 note=57 velocity=40 time=112
note_on channel=12 note=56 velocity=28 time=40
note_off channel=12 note=58 velocity=64 time=4
note_off channel=12 note=57 velocity=64 time=8
note_on channel=12 note=55 velocity=17 time=28
note_off channel=12 note=56 velocity=64 time=12
note_off channel=12 note=55 velocity=64 time=40
note_on channel=12 note=57 velocity=75 time=236
note_off channel=12 note=57 velocity=64 time=592
note_on channel=12 note=57 velocity=69 time=48
note_off channel=12 note=57 velocity=64 time=296
note_on channel=12 note=57 velocity=57 time=24
note_off channel=12 note=57 velocity=64 time=136
note_on channel=12 note=60 velocity=69 time=24
note_off channel=12 note=60 velocity=64 time=284
note_on channel=12 note=60 velocity=69 time=36
note_off channel=12 note=60 velocity=64 time=156
note_on channel=12 note=60 velocity=69 time=324
control_change channel=12 control=11 value=127 time=160
control_change channel=12 control=11 value=125 time=120
control_change channel=12 control=11 value=123 time=120
control_change channel=12 control=11 value=121 time=120
control_change channel=12 control=11 value=119 time=120
control_change channel=12 control=11 value=118 time=120
control_change channel=12 control=11 value=115 time=120
control_change channel=12 control=11 value=114 time=120
control_change channel=12 control=11 value=111 time=120
control_change channel=12 control=11 value=110 time=120
control_change channel=12 control=11 value=108 time=120
control_change channel=12 control=11 value=106 time=120
control_change channel=12 control=11 value=104 time=120
control_change channel=12 control=11 value=103 time=120
control_change channel=12 control=11 value=100 time=120
control_change channel=12 control=11 value=99 time=120
note_off channel=12 note=60 velocity=64 time=60
control_change channel=12 control=11 value=96 time=36
control_change channel=12 control=11 value=127 time=24
note_on channel=12 note=59 velocity=75 time=320
note_on channel=12 note=58 velocity=30 time=112
note_on channel=12 note=57 velocity=20 time=40
note_off channel=12 note=59 velocity=64 time=4
note_off channel=12 note=58 velocity=64 time=8
note_off channel=12 note=57 velocity=64 time=40
note_on channel=12 note=59 velocity=75 time=276
note_off channel=12 note=59 velocity=64 time=580
note_on channel=12 note=59 velocity=75 time=60
note_off channel=12 note=59 velocity=64 time=168
note_on channel=12 note=58 velocity=74 time=632
note_on channel=12 note=57 velocity=32 time=112
note_on channel=12 note=56 velocity=23 time=40
note_off channel=12 note=58 velocity=64 time=4
note_off channel=12 note=57 velocity=64 time=8
note_off channel=12 note=56 velocity=64 time=40
note_on channel=12 note=58 velocity=75 time=276
note_off channel=12 note=58 velocity=64 time=580
note_on channel=12 note=58 velocity=75 time=60
note_off channel=12 note=58 velocity=64 time=168
note_on channel=12 note=58 velocity=69 time=632
note_off channel=12 note=58 velocity=64 time=444
note_on channel=12 note=58 velocity=71 time=36
note_off channel=12 note=58 velocity=64 time=444
note_on channel=12 note=60 velocity=74 time=36
note_off channel=12 note=60 velocity=64 time=444
note_on channel=12 note=58 velocity=66 time=36
note_off channel=12 note=58 velocity=64 time=136
note_on channel=12 note=62 velocity=79 time=24
note_off channel=12 note=62 velocity=64 time=148
note_on channel=12 note=58 velocity=65 time=12
note_off channel=12 note=58 velocity=64 time=148
note_on channel=12 note=65 velocity=80 time=12
note_off channel=12 note=65 velocity=64 time=924
note_on channel=12 note=57 velocity=75 time=36
note_off channel=12 note=57 velocity=64 time=604
note_on channel=12 note=55 velocity=69 time=36
note_off channel=12 note=55 velocity=64 time=284
note_on channel=12 note=55 velocity=70 time=36
note_off channel=12 note=55 velocity=64 time=124
note_on channel=12 note=60 velocity=81 time=12516
note_off channel=12 note=60 velocity=64 time=168
note_on channel=12 note=63 velocity=71 time=312
note_off channel=12 note=63 velocity=64 time=308
control_change channel=12 control=11 value=109 time=12
note_on channel=12 note=65 velocity=82 time=0
control_change channel=12 control=11 value=110 time=120
control_change channel=12 control=11 value=111 time=110
control_change channel=12 control=11 value=113 time=110
control_change channel=12 control=11 value=114 time=110
control_change channel=12 control=11 value=115 time=110
control_change channel=12 control=11 value=116 time=110
control_change channel=12 control=11 value=118 time=110
control_change channel=12 control=11 value=119 time=120
control_change channel=12 control=11 value=120 time=110
control_change channel=12 control=11 value=121 time=110
control_change channel=12 control=11 value=123 time=110
control_change channel=12 control=11 value=124 time=110
control_change channel=12 control=11 value=125 time=110
note_off channel=12 note=65 velocity=64 time=102
control_change channel=12 control=11 value=127 time=8
note_on channel=12 note=65 velocity=81 time=360
note_off channel=12 note=65 velocity=64 time=604
note_on channel=12 note=64 velocity=81 time=36
note_off channel=12 note=64 velocity=64 time=296
note_on channel=12 note=62 velocity=81 time=24
note_off channel=12 note=62 velocity=64 time=136
note_on channel=12 note=62 velocity=81 time=824
note_off channel=12 note=62 velocity=64 time=604
note_on channel=12 note=58 velocity=81 time=36
note_off channel=12 note=58 velocity=64 time=296
note_on channel=12 note=58 velocity=81 time=24
note_off channel=12 note=58 velocity=64 time=136
note_on channel=12 note=67 velocity=81 time=824
note_off channel=12 note=67 velocity=64 time=604
note_on channel=12 note=61 velocity=81 time=36
note_off channel=12 note=61 velocity=64 time=296
note_on channel=12 note=62 velocity=81 time=24
note_off channel=12 note=62 velocity=64 time=136
note_on channel=12 note=64 velocity=81 time=824
note_off channel=12 note=64 velocity=64 time=604
note_on channel=12 note=60 velocity=81 time=36
note_off channel=12 note=60 velocity=64 time=296
note_on channel=12 note=60 velocity=81 time=24
note_off channel=12 note=60 velocity=64 time=136
note_on channel=12 note=65 velocity=81 time=824
note_off channel=12 note=65 velocity=64 time=580
note_on channel=12 note=65 velocity=81 time=60
note_off channel=12 note=65 velocity=64 time=168
note_on channel=12 note=65 velocity=81 time=312
note_off channel=12 note=65 velocity=64 time=168
note_on channel=12 note=65 velocity=81 time=312
note_off channel=12 note=65 velocity=64 time=296
note_on channel=12 note=67 velocity=69 time=24
note_off channel=12 note=67 velocity=64 time=148
note_on channel=12 note=65 velocity=81 time=12
note_off channel=12 note=65 velocity=64 time=311
note_on channel=12 note=64 velocity=81 time=9
pitchwheel channel=12 pitch=0 time=16
control_change channel=12 control=11 value=127 time=0
pitchwheel channel=12 pitch=242 time=24
control_change channel=12 control=11 value=124 time=72
control_change channel=12 control=11 value=121 time=96
pitchwheel channel=12 pitch=0 time=72
control_change channel=12 control=11 value=119 time=48
control_change channel=12 control=11 value=116 time=48
pitchwheel channel=12 pitch=-82 time=96
control_change channel=12 control=11 value=114 time=24
control_change channel=12 control=11 value=111 time=72
pitchwheel channel=12 pitch=-244 time=24
pitchwheel channel=12 pitch=-407 time=96
control_change channel=12 control=11 value=109 time=0
control_change channel=12 control=11 value=106 time=48
pitchwheel channel=12 pitch=-569 time=24
pitchwheel channel=12 pitch=-731 time=72
control_change channel=12 control=11 value=104 time=24
pitchwheel channel=12 pitch=-893 time=24
pitchwheel channel=12 pitch=-1055 time=48
control_change channel=12 control=11 value=101 time=0
pitchwheel channel=12 pitch=-1218 time=48
pitchwheel channel=12 pitch=-1380 time=24
pitchwheel channel=12 pitch=-1542 time=24
pitchwheel channel=12 pitch=-1704 time=24
control_change channel=12 control=11 value=99 time=0
note_off channel=12 note=64 velocity=64 time=24
pitchwheel channel=12 pitch=-2029 time=0
control_change channel=12 control=11 value=127 time=24
control_change channel=12 control=11 value=96 time=0
control_change channel=12 control=11 value=127 time=24
pitchwheel channel=12 pitch=0 time=0
note_on channel=12 note=63 velocity=81 time=320
note_on channel=12 note=62 velocity=30 time=112
note_on channel=12 note=61 velocity=20 time=40
note_off channel=12 note=63 velocity=64 time=8
note_off channel=12 note=62 velocity=64 time=4
note_off channel=12 note=61 velocity=64 time=40
note_on channel=12 note=63 velocity=81 time=436
note_off channel=12 note=63 velocity=64 time=168
note_on channel=12 note=63 velocity=81 time=312
note_off channel=12 note=63 velocity=64 time=168
note_on channel=12 note=65 velocity=81 time=792
note_off channel=12 note=65 velocity=64 time=296
note_on channel=12 note=65 velocity=81 time=24
note_off channel=12 note=65 velocity=64 time=192
note_on channel=12 note=63 velocity=69 time=288
note_off channel=12 note=63 velocity=64 time=148
note_on channel=12 note=65 velocity=81 time=12
note_off channel=12 note=65 velocity=64 time=308
note_on channel=12 note=65 velocity=75 time=12
note_off channel=12 note=65 velocity=64 time=136
note_on channel=12 note=65 velocity=81 time=24
note_off channel=12 note=65 velocity=64 time=296
note_on channel=12 note=62 velocity=81 time=24
note_off channel=12 note=62 velocity=64 time=136
note_on channel=12 note=62 velocity=81 time=1944
note_off channel=12 note=62 velocity=64 time=168
note_on channel=12 note=62 velocity=81 time=312
note_off channel=12 note=62 velocity=64 time=296
note_on channel=12 note=62 velocity=81 time=24
note_off channel=12 note=62 velocity=64 time=180
note_on channel=12 note=67 velocity=81 time=300
note_on channel=12 note=69 velocity=59 time=1440
note_off channel=12 note=67 velocity=64 time=16
note_on channel=12 note=68 velocity=70 time=64
note_off channel=12 note=69 velocity=64 time=24
note_on channel=12 note=67 velocity=81 time=56
note_off channel=12 note=68 velocity=64 time=24
note_off channel=12 note=67 velocity=64 time=284
note_on channel=12 note=60 velocity=81 time=12
pitchwheel channel=12 pitch=0 time=160
control_change channel=12 control=11 value=127 time=0
pitchwheel channel=12 pitch=242 time=12
control_change channel=12 control=11 value=124 time=72
control_change channel=12 control=11 value=121 time=72
pitchwheel channel=12 pitch=0 time=48
control_change channel=12 control=11 value=119 time=60
control_change channel=12 control=11 value=116 time=48
pitchwheel channel=12 pitch=-82 time=36
control_change channel=12 control=11 value=114 time=72
pitchwheel channel=12 pitch=-244 time=24
control_change channel=12 control=11 value=111 time=24
pitchwheel channel=12 pitch=-407 time=48
pitchwheel channel=12 pitch=-569 time=60
control_change channel=12 control=11 value=109 time=0
control_change channel=12 control=11 value=106 time=48
pitchwheel channel=12 pitch=-731 time=12
pitchwheel channel=12 pitch=-893 time=36
pitchwheel channel=12 pitch=-1055 time=48
control_change channel=12 control=11 value=104 time=12
pitchwheel channel=12 pitch=-1218 time=24
pitchwheel channel=12 pitch=-1380 time=24
control_change channel=12 control=11 value=101 time=0
pitchwheel channel=12 pitch=-1542 time=36
pitchwheel channel=12 pitch=-1704 time=24
pitchwheel channel=12 pitch=-1866 time=12
pitchwheel channel=12 pitch=-2029 time=24
pitchwheel channel=12 pitch=-2191 time=12
control_change channel=12 control=11 value=99 time=0
pitchwheel channel=12 pitch=-2353 time=12
note_off channel=12 note=60 velocity=64 time=12
pitchwheel channel=12 pitch=-2515 time=0
pitchwheel channel=12 pitch=-2840 time=12
control_change channel=12 control=11 value=96 time=12
control_change channel=12 control=11 value=127 time=24
pitchwheel channel=12 pitch=0 time=0
note_on channel=12 note=62 velocity=81 time=1280
note_off channel=12 note=62 velocity=64 time=604
note_on channel=12 note=66 velocity=81 time=36
note_off channel=12 note=66 velocity=64 time=180
note_on channel=12 note=66 velocity=81 time=300
note_off channel=12 note=66 velocity=64 time=296
note_on channel=12 note=65 velocity=81 time=24
note_off channel=12 note=65 velocity=64 time=136
note_on channel=12 note=65 velocity=81 time=344
note_off channel=12 note=65 velocity=64 time=180
note_on channel=12 note=65 velocity=75 time=300
note_off channel=12 note=65 velocity=64 time=148
note_on channel=12 note=62 velocity=81 time=12
note_off channel=12 note=62 velocity=64 time=456
note_on channel=12 note=64 velocity=81 time=24
note_off channel=12 note=64 velocity=64 time=156
note_on channel=12 note=67 velocity=88 time=804
note_off channel=12 note=67 velocity=64 time=912
note_on channel=12 note=67 velocity=81 time=48
note_off channel=12 note=67 velocity=64 time=180
control_change channel=12 control=11 value=104 time=300
note_on channel=12 note=65 velocity=88 time=0
control_change channel=12 control=11 value=106 time=108
control_change channel=12 control=11 value=109 time=108
note_off channel=12 note=65 velocity=64 time=92
note_on channel=12 note=65 velocity=88 time=12
control_change channel=12 control=11 value=111 time=4
control_change channel=12 control=11 value=114 time=108
control_change channel=12 control=11 value=116 time=108
control_change channel=12 control=11 value=119 time=108
control_change channel=12 control=11 value=121 time=108
control_change channel=12 control=11 value=124 time=108
note_off channel=12 note=65 velocity=64 time=60
control_change channel=12 control=11 value=127 time=36
control_change channel=12 control=11 value=127 time=0
note_on channel=12 note=64 velocity=88 time=0
control_change channel=12 control=11 value=124 time=84
control_change channel=12 control=11 value=121 time=84
control_change channel=12 control=11 value=119 time=108
note_off channel=12 note=64 velocity=64 time=32
note_on channel=12 note=60 velocity=88 time=12
control_change channel=12 control=11 value=116 time=4
control_change channel=12 control=11 value=114 time=108
control_change channel=12 control=11 value=111 time=48
control_change channel=12 control=11 value=109 time=108
control_change channel=12 control=11 value=106 time=60
control_change channel=12 control=11 value=104 time=108
control_change channel=12 control=11 value=101 time=48
note_off channel=12 note=60 velocity=64 time=108
control_change channel=12 control=11 value=99 time=0
control_change channel=12 control=11 value=127 time=48
control_change channel=12 control=11 value=96 time=0
control_change channel=12 control=11 value=127 time=12
note_on channel=12 note=58 velocity=60 time=1748
control_change channel=12 control=11 value=127 time=232
control_change channel=12 control=11 value=121 time=24
control_change channel=12 control=11 value=115 time=24
control_change channel=12 control=11 value=109 time=24
control_change channel=12 control=11 value=103 time=24
control_change channel=12 control=11 value=96 time=24
control_change channel=12 control=11 value=90 time=24
control_change channel=12 control=11 value=84 time=24
control_change channel=12 control=11 value=84 time=24
control_change channel=12 control=11 value=86 time=120
control_change channel=12 control=11 value=89 time=48
control_change channel=12 control=11 value=93 time=120
control_change channel=12 control=11 value=95 time=120
control_change channel=12 control=11 value=98 time=48
control_change channel=12 control=11 value=101 time=120
control_change channel=12 control=11 value=104 time=96
control_change channel=12 control=11 value=108 time=120
control_change channel=12 control=11 value=111 time=120
control_change channel=12 control=11 value=114 time=72
control_change channel=12 control=11 value=116 time=120
control_change channel=12 control=11 value=119 time=48
control_change channel=12 control=11 value=123 time=120
control_change channel=12 control=11 value=127 time=120
note_off channel=12 note=58 velocity=64 time=80
note_on channel=12 note=57 velocity=60 time=24
note_off channel=12 note=57 velocity=64 time=136
note_on channel=12 note=60 velocity=60 time=1784
control_change channel=12 control=11 value=127 time=232
control_change channel=12 control=11 value=121 time=24
control_change channel=12 control=11 value=115 time=24
control_change channel=12 control=11 value=109 time=24
control_change channel=12 control=11 value=103 time=24
control_change channel=12 control=11 value=96 time=24
control_change channel=12 control=11 value=90 time=24
control_change channel=12 control=11 value=84 time=24
control_change channel=12 control=11 value=84 time=24
control_change channel=12 control=11 value=86 time=120
control_change channel=12 control=11 value=89 time=48
control_change channel=12 control=11 value=93 time=120
control_change channel=12 control=11 value=95 time=120
control_change channel=12 control=11 value=98 time=48
control_change channel=12 control=11 value=101 time=120
control_change channel=12 control=11 value=104 time=96
control_change channel=12 control=11 value=108 time=120
control_change channel=12 control=11 value=111 time=120
control_change channel=12 control=11 value=114 time=72
control_change channel=12 control=11 value=116 time=120
control_change channel=12 control=11 value=119 time=48
control_change channel=12 control=11 value=123 time=120
control_change channel=12 control=11 value=127 time=120
note_off channel=12 note=60 velocity=64 time=80
note_on channel=12 note=59 velocity=60 time=24
note_off channel=12 note=59 velocity=64 time=136
note_on channel=12 note=58 velocity=60 time=1784
control_change channel=12 control=11 value=127 time=232
control_change channel=12 control=11 value=121 time=24
control_change channel=12 control=11 value=115 time=24
control_change channel=12 control=11 value=109 time=24
control_change channel=12 control=11 value=103 time=24
control_change channel=12 control=11 value=96 time=24
control_change channel=12 control=11 value=90 time=24
control_change channel=12 control=11 value=84 time=24
control_change channel=12 control=11 value=84 time=24
control_change channel=12 control=11 value=86 time=120
control_change channel=12 control=11 value=89 time=48
control_change channel=12 control=11 value=93 time=120
control_change channel=12 control=11 value=95 time=120
control_change channel=12 control=11 value=98 time=48
control_change channel=12 control=11 value=101 time=120
control_change channel=12 control=11 value=104 time=96
control_change channel=12 control=11 value=108 time=120
control_change channel=12 control=11 value=111 time=120
control_change channel=12 control=11 value=114 time=72
control_change channel=12 control=11 value=116 time=120
control_change channel=12 control=11 value=119 time=48
control_change channel=12 control=11 value=123 time=120
control_change channel=12 control=11 value=127 time=120
note_off channel=12 note=58 velocity=64 time=80
control_change channel=12 control=93 value=60 time=184
note_on channel=12 note=62 velocity=75 time=320
note_off channel=12 note=62 velocity=64 time=580
note_on channel=12 note=60 velocity=75 time=60
note_off channel=12 note=60 velocity=64 time=144
note_on channel=12 note=55 velocity=75 time=336
note_off channel=12 note=55 velocity=64 time=144
note_on channel=12 note=59 velocity=75 time=336
note_off channel=12 note=59 velocity=64 time=444
note_on channel=12 note=58 velocity=75 time=36
note_off channel=12 note=58 velocity=64 time=284
note_on channel=12 note=57 velocity=75 time=36
note_off channel=12 note=57 velocity=64 time=124
control_change channel=12 control=93 value=30 time=36
note_on channel=12 note=62 velocity=81 time=1280
note_off channel=12 note=62 velocity=64 time=168
note_on channel=12 note=64 velocity=81 time=312
note_off channel=12 note=64 velocity=64 time=136
note_on channel=12 note=65 velocity=81 time=24
note_off channel=12 note=65 velocity=64 time=168
note_on channel=12 note=65 velocity=81 time=312
note_off channel=12 note=65 velocity=64 time=168
control_change channel=12 control=93 value=30 time=312
note_on channel=12 note=65 velocity=81 time=0
note_off channel=12 note=65 velocity=64 time=444
note_on channel=12 note=65 velocity=81 time=36
note_off channel=12 note=65 velocity=64 time=296
note_on channel=12 note=65 velocity=81 time=24
note_off channel=12 note=65 velocity=64 time=136
note_on channel=12 note=60 velocity=81 time=824
note_off channel=12 note=60 velocity=64 time=604
note_on channel=12 note=62 velocity=81 time=36
note_off channel=12 note=62 velocity=64 time=296
note_on channel=12 note=60 velocity=69 time=24
note_off channel=12 note=60 velocity=64 time=136
note_on channel=12 note=65 velocity=81 time=24
note_off channel=12 note=65 velocity=64 time=284
note_on channel=12 note=67 velocity=81 time=36
note_off channel=12 note=67 velocity=64 time=168
note_on channel=12 note=67 velocity=81 time=312
note_off channel=12 note=67 velocity=64 time=604
note_on channel=12 note=67 velocity=81 time=36
note_off channel=12 note=67 velocity=64 time=296
note_on channel=12 note=66 velocity=81 time=24
note_off channel=12 note=66 velocity=64 time=124
note_on channel=12 note=63 velocity=81 time=1316
note_off channel=12 note=63 velocity=64 time=568
note_on channel=12 note=64 velocity=81 time=72
note_off channel=12 note=64 velocity=64 time=156
note_on channel=12 note=62 velocity=81 time=324
note_off channel=12 note=62 velocity=64 time=156
note_on channel=12 note=63 velocity=81 time=324
note_off channel=12 note=63 velocity=64 time=782
note_on channel=12 note=64 velocity=81 time=18
note_off channel=12 note=64 velocity=64 time=1060
note_on channel=12 note=68 velocity=81 time=380
note_off channel=12 note=68 velocity=64 time=580
note_on channel=12 note=69 velocity=81 time=60
note_off channel=12 note=69 velocity=64 time=168
note_on channel=12 note=62 velocity=81 time=312
note_off channel=12 note=62 velocity=64 time=168
note_on channel=12 note=68 velocity=81 time=312
note_off channel=12 note=68 velocity=64 time=782
note_on channel=12 note=69 velocity=81 time=18
note_off channel=12 note=69 velocity=64 time=1060
note_on channel=12 note=60 velocity=56 time=5820
note_off channel=12 note=60 velocity=64 time=80
note_on channel=12 note=60 velocity=62 time=0
note_off channel=12 note=60 velocity=64 time=80
note_on channel=12 note=57 velocity=45 time=640
control_change channel=12 control=11 value=127 time=1120
control_change channel=12 control=11 value=125 time=120
control_change channel=12 control=11 value=124 time=120
control_change channel=12 control=11 value=123 time=120
control_change channel=12 control=11 value=121 time=120
control_change channel=12 control=11 value=120 time=120
control_change channel=12 control=11 value=119 time=120
control_change channel=12 control=11 value=118 time=120
control_change channel=12 control=11 value=116 time=120
control_change channel=12 control=11 value=115 time=120
control_change channel=12 control=11 value=114 time=120
control_change channel=12 control=11 value=113 time=120
control_change channel=12 control=11 value=111 time=120
control_change channel=12 control=11 value=110 time=120
control_change channel=12 control=11 value=109 time=120
control_change channel=12 control=11 value=108 time=120
control_change channel=12 control=11 value=106 time=120
control_change channel=12 control=11 value=105 time=120
control_change channel=12 control=11 value=104 time=120
control_change channel=12 control=11 value=103 time=120
control_change channel=12 control=11 value=101 time=120
control_change channel=12 control=11 value=100 time=120
control_change channel=12 control=11 value=99 time=120
control_change channel=12 control=11 value=98 time=120
note_off channel=12 note=57 velocity=64 time=96
<meta message end_of_track time=0>
<meta message text text='Trombone 2' time=0>
control_change channel=13 control=11 value=127 time=0
control_change channel=13 control=7 value=106 time=0
control_change channel=13 control=10 value=89 time=0
control_change channel=13 control=91 value=89 time=0
control_change channel=13 control=93 value=25 time=0
control_change channel=13 control=0 value=56 time=0
control_change channel=13 control=32 value=0 time=0
program_change channel=13 program=57 time=0
note_on channel=13 note=63 velocity=62 time=9920
note_off channel=13 note=63 velocity=64 time=580
note_on channel=13 note=64 velocity=64 time=60
note_off channel=13 note=64 velocity=64 time=168
note_on channel=13 note=63 velocity=67 time=792
note_off channel=13 note=63 velocity=64 time=764
note_on channel=13 note=64 velocity=70 time=36
note_off channel=13 note=64 velocity=64 time=1072
note_on channel=13 note=59 velocity=75 time=368
note_off channel=13 note=59 velocity=64 time=580
note_on channel=13 note=59 velocity=77 time=60
note_off channel=13 note=59 velocity=64 time=168
note_on channel=13 note=59 velocity=79 time=312
note_off channel=13 note=59 velocity=64 time=168
note_on channel=13 note=58 velocity=81 time=312
note_off channel=13 note=58 velocity=64 time=764
note_on channel=13 note=58 velocity=84 time=36
note_off channel=13 note=58 velocity=64 time=592
note_on channel=13 note=58 velocity=86 time=48
note_off channel=13 note=58 velocity=64 time=272
note_on channel=13 note=60 velocity=86 time=48
note_off channel=13 note=60 velocity=64 time=124
note_on channel=13 note=55 velocity=45 time=19556
note_off channel=13 note=55 velocity=64 time=124
note_on channel=13 note=57 velocity=50 time=36
note_off channel=13 note=57 velocity=64 time=132
note_on channel=13 note=58 velocity=45 time=348
note_off channel=13 note=58 velocity=64 time=294
control_change channel=13 control=11 value=109 time=26
note_on channel=13 note=62 velocity=52 time=0
control_change channel=13 control=11 value=110 time=100
control_change channel=13 control=11 value=111 time=100
control_change channel=13 control=11 value=113 time=100
control_change channel=13 control=11 value=114 time=100
control_change channel=13 control=11 value=115 time=100
control_change channel=13 control=11 value=116 time=100
control_change channel=13 control=11 value=118 time=100
control_change channel=13 control=11 value=119 time=100
control_change channel=13 control=11 value=120 time=100
control_change channel=13 control=11 value=121 time=100
control_change channel=13 control=11 value=123 time=100
control_change channel=13 control=11 value=124 time=100
control_change channel=13 control=11 value=125 time=100
control_change channel=13 control=11 value=127 time=60
note_off channel=13 note=62 velocity=64 time=44
note_on channel=13 note=58 velocity=55 time=36
note_off channel=13 note=58 velocity=64 time=112
note_on channel=13 note=58 velocity=50 time=368
note_off channel=13 note=58 velocity=64 time=144
note_on channel=13 note=58 velocity=45 time=336
note_off channel=13 note=58 velocity=64 time=136
note_on channel=13 note=52 velocity=50 time=24
note_off channel=13 note=52 velocity=64 time=284
note_on channel=13 note=52 velocity=45 time=36
note_off channel=13 note=52 velocity=64 time=136
note_on channel=13 note=52 velocity=50 time=24
note_off channel=13 note=52 velocity=64 time=120
note_on channel=13 note=52 velocity=50 time=360
note_off channel=13 note=52 velocity=64 time=284
note_on channel=13 note=60 velocity=50 time=36
note_off channel=13 note=60 velocity=64 time=120
note_on channel=13 note=56 velocity=50 time=360
control_change channel=13 control=11 value=127 time=232
control_change channel=13 control=11 value=120 time=24
control_change channel=13 control=11 value=114 time=24
control_change channel=13 control=11 value=108 time=24
control_change channel=13 control=11 value=101 time=24
control_change channel=13 control=11 value=94 time=24
control_change channel=13 control=11 value=96 time=120
control_change channel=13 control=11 value=99 time=120
control_change channel=13 control=11 value=101 time=120
control_change channel=13 control=11 value=104 time=120
control_change channel=13 control=11 value=106 time=120
control_change channel=13 control=11 value=109 time=120
control_change channel=13 control=11 value=111 time=120
control_change channel=13 control=11 value=114 time=120
control_change channel=13 control=11 value=116 time=120
control_change channel=13 control=11 value=119 time=120
control_change channel=13 control=11 value=121 time=120
control_change channel=13 control=11 value=124 time=120
control_change channel=13 control=11 value=127 time=120
note_off channel=13 note=56 velocity=64 time=120
note_on channel=13 note=50 velocity=55 time=368
note_off channel=13 note=50 velocity=64 time=124
note_on channel=13 note=50 velocity=50 time=36
note_off channel=13 note=50 velocity=64 time=120
note_on channel=13 note=54 velocity=52 time=360
note_off channel=13 note=54 velocity=64 time=284
note_on channel=13 note=54 velocity=55 time=36
note_off channel=13 note=54 velocity=64 time=108
note_on channel=13 note=58 velocity=60 time=372
note_off channel=13 note=58 velocity=64 time=592
note_on channel=13 note=58 velocity=55 time=48
note_off channel=13 note=58 velocity=64 time=296
note_on channel=13 note=58 velocity=45 time=24
note_off channel=13 note=58 velocity=64 time=134
note_on channel=13 note=55 velocity=50 time=26
note_off channel=13 note=55 velocity=64 time=284
note_on channel=13 note=55 velocity=50 time=36
note_off channel=13 note=55 velocity=64 time=120
note_on channel=13 note=55 velocity=50 time=360
control_change channel=13 control=11 value=127 time=232
control_change channel=13 control=11 value=120 time=24
control_change channel=13 control=11 value=114 time=24
control_change channel=13 control=11 value=108 time=24
control_change channel=13 control=11 value=101 time=24
control_change channel=13 control=11 value=95 time=24
control_change channel=13 control=11 value=95 time=0
control_change channel=13 control=11 value=96 time=120
control_change channel=13 control=11 value=98 time=120
control_change channel=13 control=11 value=99 time=120
control_change channel=13 control=11 value=100 time=120
control_change channel=13 control=11 value=101 time=120
control_change channel=13 control=11 value=103 time=120
control_change channel=13 control=11 value=104 time=120
control_change channel=13 control=11 value=105 time=120
control_change channel=13 control=11 value=106 time=120
control_change channel=13 control=11 value=108 time=120
control_change channel=13 control=11 value=109 time=120
control_change channel=13 control=11 value=110 time=120
control_change channel=13 control=11 value=111 time=120
control_change channel=13 control=11 value=113 time=120
note_off channel=13 note=55 velocity=64 time=32
note_on channel=13 note=54 velocity=45 time=16
control_change channel=13 control=11 value=114 time=72
control_change channel=13 control=11 value=115 time=120
control_change channel=13 control=11 value=116 time=120
control_change channel=13 control=11 value=118 time=120
control_change channel=13 control=11 value=119 time=120
control_change channel=13 control=11 value=120 time=120
control_change channel=13 control=11 value=121 time=120
control_change channel=13 control=11 value=123 time=120
control_change channel=13 control=11 value=124 time=120
control_change channel=13 control=11 value=125 time=120
control_change channel=13 control=11 value=127 time=48
note_off channel=13 note=54 velocity=64 time=180
note_on channel=13 note=54 velocity=55 time=60
note_off channel=13 note=54 velocity=64 time=284
note_on channel=13 note=53 velocity=55 time=36
note_off channel=13 note=53 velocity=64 time=112
note_on channel=13 note=52 velocity=45 time=1808
control_change channel=13 control=11 value=127 time=232
control_change channel=13 control=11 value=121 time=24
control_change channel=13 control=11 value=115 time=24
control_change channel=13 control=11 value=109 time=24
control_change channel=13 control=11 value=103 time=24
control_change channel=13 control=11 value=96 time=24
control_change channel=13 control=11 value=90 time=24
control_change channel=13 control=11 value=84 time=24
control_change channel=13 control=11 value=84 time=24
control_change channel=13 control=11 value=86 time=120
control_change channel=13 control=11 value=89 time=48
control_change channel=13 control=11 value=93 time=120
control_change channel=13 control=11 value=95 time=120
control_change channel=13 control=11 value=98 time=48
control_change channel=13 control=11 value=101 time=120
control_change channel=13 control=11 value=104 time=96
control_change channel=13 control=11 value=108 time=120
control_change channel=13 control=11 value=111 time=120
control_change channel=13 control=11 value=114 time=72
control_change channel=13 control=11 value=116 time=120
control_change channel=13 control=11 value=119 time=48
control_change channel=13 control=11 value=123 time=120
control_change channel=13 control=11 value=127 time=120
note_off channel=13 note=52 velocity=64 time=80
note_on channel=13 note=50 velocity=56 time=24
note_off channel=13 note=50 velocity=64 time=136
note_on channel=13 note=54 velocity=56 time=1784
control_change channel=13 control=11 value=127 time=232
control_change channel=13 control=11 value=121 time=24
control_change channel=13 control=11 value=115 time=24
control_change channel=13 control=11 value=109 time=24
control_change channel=13 control=11 value=103 time=24
control_change channel=13 control=11 value=96 time=24
control_change channel=13 control=11 value=90 time=24
control_change channel=13 control=11 value=84 time=24
control_change channel=13 control=11 value=84 time=24
control_change channel=13 control=11 value=86 time=120
control_change channel=13 control=11 value=89 time=48
control_change channel=13 control=11 value=93 time=120
control_change channel=13 control=11 value=95 time=120
control_change channel=13 control=11 value=98 time=48
control_change channel=13 control=11 value=101 time=120
control_change channel=13 control=11 value=104 time=96
control_change channel=13 control=11 value=108 time=120
control_change channel=13 control=11 value=111 time=120
control_change channel=13 control=11 value=114 time=72
control_change channel=13 control=11 value=116 time=120
control_change channel=13 control=11 value=119 time=48
control_change channel=13 control=11 value=123 time=120
control_change channel=13 control=11 value=127 time=120
note_off channel=13 note=54 velocity=64 time=80
note_on channel=13 note=53 velocity=56 time=24
note_off channel=13 note=53 velocity=64 time=136
note_on channel=13 note=52 velocity=56 time=1784
control_change channel=13 control=11 value=127 time=232
control_change channel=13 control=11 value=121 time=24
control_change channel=13 control=11 value=115 time=24
control_change channel=13 control=11 value=109 time=24
control_change channel=13 control=11 value=103 time=24
control_change channel=13 control=11 value=96 time=24
control_change channel=13 control=11 value=90 time=24
control_change channel=13 control=11 value=84 time=24
control_change channel=13 control=11 value=84 time=24
control_change channel=13 control=11 value=86 time=120
control_change channel=13 control=11 value=89 time=48
control_change channel=13 control=11 value=93 time=120
control_change channel=13 control=11 value=95 time=120
control_change channel=13 control=11 value=98 time=48
control_change channel=13 control=11 value=101 time=120
control_change channel=13 control=11 value=104 time=96
control_change channel=13 control=11 value=108 time=120
control_change channel=13 control=11 value=111 time=120
control_change channel=13 control=11 value=114 time=72
control_change channel=13 control=11 value=116 time=120
control_change channel=13 control=11 value=119 time=48
control_change channel=13 control=11 value=123 time=120
control_change channel=13 control=11 value=127 time=120
note_off channel=13 note=52 velocity=64 time=80
note_on channel=13 note=50 velocity=56 time=4344
note_off channel=13 note=50 velocity=64 time=136
note_on channel=13 note=57 velocity=62 time=24
note_off channel=13 note=57 velocity=64 time=144
note_on channel=13 note=58 velocity=69 time=336
note_off channel=13 note=58 velocity=64 time=296
note_on channel=13 note=62 velocity=56 time=24
note_off channel=13 note=62 velocity=64 time=136
note_on channel=13 note=65 velocity=67 time=24
note_off channel=13 note=65 velocity=64 time=296
note_on channel=13 note=65 velocity=81 time=24
note_off channel=13 note=65 velocity=64 time=604
note_on channel=13 note=65 velocity=65 time=36
note_off channel=13 note=65 velocity=64 time=308
note_on channel=13 note=61 velocity=69 time=12
control_change channel=13 control=11 value=127 time=16
control_change channel=13 control=11 value=125 time=120
control_change channel=13 control=11 value=123 time=120
control_change channel=13 control=11 value=121 time=120
control_change channel=13 control=11 value=119 time=120
control_change channel=13 control=11 value=118 time=120
control_change channel=13 control=11 value=115 time=96
control_change channel=13 control=11 value=114 time=120
control_change channel=13 control=11 value=111 time=120
note_off channel=13 note=61 velocity=64 time=120
control_change channel=13 control=11 value=110 time=0
control_change channel=13 control=11 value=109 time=24
control_change channel=13 control=11 value=127 time=24
note_on channel=13 note=53 velocity=56 time=320
note_off channel=13 note=53 velocity=64 time=136
note_on channel=13 note=52 velocity=64 time=24
note_off channel=13 note=52 velocity=64 time=144
note_on channel=13 note=55 velocity=69 time=336
note_off channel=13 note=55 velocity=64 time=296
note_on channel=13 note=55 velocity=56 time=24
note_off channel=13 note=55 velocity=64 time=136
note_on channel=13 note=60 velocity=66 time=24
note_off channel=13 note=60 velocity=64 time=296
note_on channel=13 note=60 velocity=75 time=24
note_off channel=13 note=60 velocity=64 time=604
note_on channel=13 note=60 velocity=64 time=36
note_off channel=13 note=60 velocity=64 time=308
note_on channel=13 note=56 velocity=69 time=12
control_change channel=13 control=11 value=127 time=16
control_change channel=13 control=11 value=125 time=120
control_change channel=13 control=11 value=123 time=120
control_change channel=13 control=11 value=121 time=120
control_change channel=13 control=11 value=119 time=120
control_change channel=13 control=11 value=118 time=120
control_change channel=13 control=11 value=115 time=96
control_change channel=13 control=11 value=114 time=120
control_change channel=13 control=11 value=111 time=120
note_off channel=13 note=56 velocity=64 time=120
control_change channel=13 control=11 value=110 time=0
control_change channel=13 control=11 value=109 time=24
control_change channel=13 control=11 value=127 time=24
note_on channel=13 note=52 velocity=56 time=1760
control_change channel=13 control=11 value=127 time=232
control_change channel=13 control=11 value=121 time=24
control_change channel=13 control=11 value=115 time=24
control_change channel=13 control=11 value=109 time=24
control_change channel=13 control=11 value=103 time=24
control_change channel=13 control=11 value=96 time=24
control_change channel=13 control=11 value=90 time=24
control_change channel=13 control=11 value=84 time=24
control_change channel=13 control=11 value=88 time=96
control_change channel=13 control=11 value=91 time=96
control_change channel=13 control=11 value=94 time=72
control_change channel=13 control=11 value=98 time=96
control_change channel=13 control=11 value=101 time=96
control_change channel=13 control=11 value=104 time=48
control_change channel=13 control=11 value=108 time=96
control_change channel=13 control=11 value=111 time=96
control_change channel=13 control=11 value=114 time=72
control_change channel=13 control=11 value=118 time=72
control_change channel=13 control=11 value=121 time=96
control_change channel=13 control=11 value=124 time=72
control_change channel=13 control=11 value=127 time=48
note_off channel=13 note=52 velocity=64 time=104
note_on channel=13 note=52 velocity=56 time=40
note_off channel=13 note=52 velocity=64 time=296
note_on channel=13 note=50 velocity=56 time=24
note_off channel=13 note=50 velocity=64 time=136
note_on channel=13 note=58 velocity=62 time=3224
note_off channel=13 note=58 velocity=64 time=580
note_on channel=13 note=57 velocity=62 time=60
note_off channel=13 note=57 velocity=64 time=144
note_on channel=13 note=57 velocity=62 time=336
note_off channel=13 note=57 velocity=64 time=296
note_on channel=13 note=55 velocity=62 time=24
note_off channel=13 note=55 velocity=64 time=136
note_on channel=13 note=57 velocity=56 time=24
note_off channel=13 note=57 velocity=64 time=56
note_on channel=13 note=57 velocity=62 time=24
note_off channel=13 note=57 velocity=64 time=68
note_on channel=13 note=55 velocity=62 time=332
note_off channel=13 note=55 velocity=64 time=308
control_change channel=13 control=11 value=104 time=12
note_on channel=13 note=57 velocity=69 time=0
control_change channel=13 control=11 value=105 time=100
control_change channel=13 control=11 value=108 time=80
control_change channel=13 control=11 value=109 time=100
control_change channel=13 control=11 value=111 time=100
control_change channel=13 control=11 value=114 time=90
control_change channel=13 control=11 value=115 time=100
control_change channel=13 control=11 value=118 time=70
control_change channel=13 control=11 value=119 time=100
control_change channel=13 control=11 value=121 time=100
control_change channel=13 control=11 value=124 time=90
control_change channel=13 control=11 value=125 time=100
control_change channel=13 control=11 value=127 time=10
note_off channel=13 note=57 velocity=64 time=80
note_on channel=13 note=52 velocity=69 time=320
note_on channel=13 note=51 velocity=40 time=112
note_on channel=13 note=50 velocity=28 time=40
note_off channel=13 note=52 velocity=64 time=4
note_off channel=13 note=51 velocity=64 time=8
note_on channel=13 note=49 velocity=17 time=28
note_off channel=13 note=50 velocity=64 time=12
note_off channel=13 note=49 velocity=64 time=40
note_on channel=13 note=50 velocity=69 time=236
note_off channel=13 note=50 velocity=64 time=592
note_on channel=13 note=50 velocity=62 time=48
note_off channel=13 note=50 velocity=64 time=296
note_on channel=13 note=50 velocity=50 time=24
note_off channel=13 note=50 velocity=64 time=136
note_on channel=13 note=55 velocity=62 time=24
note_off channel=13 note=55 velocity=64 time=284
note_on channel=13 note=55 velocity=62 time=36
note_off channel=13 note=55 velocity=64 time=156
note_on channel=13 note=54 velocity=62 time=324
control_change channel=13 control=11 value=127 time=160
control_change channel=13 control=11 value=125 time=120
control_change channel=13 control=11 value=123 time=120
control_change channel=13 control=11 value=121 time=120
control_change channel=13 control=11 value=119 time=120
control_change channel=13 control=11 value=118 time=120
control_change channel=13 control=11 value=115 time=120
control_change channel=13 control=11 value=114 time=120
control_change channel=13 control=11 value=111 time=120
control_change channel=13 control=11 value=110 time=120
control_change channel=13 control=11 value=108 time=120
control_change channel=13 control=11 value=106 time=120
control_change channel=13 control=11 value=104 time=120
control_change channel=13 control=11 value=103 time=120
control_change channel=13 control=11 value=100 time=120
control_change channel=13 control=11 value=99 time=120
note_off channel=13 note=54 velocity=64 time=60
control_change channel=13 control=11 value=96 time=36
control_change channel=13 control=11 value=127 time=24
note_on channel=13 note=57 velocity=69 time=320
note_on channel=13 note=56 velocity=30 time=112
note_on channel=13 note=55 velocity=20 time=40
note_off channel=13 note=57 velocity=64 time=4
note_off channel=13 note=56 velocity=64 time=8
note_off channel=13 note=55 velocity=64 time=40
note_on channel=13 note=57 velocity=69 time=276
note_off channel=13 note=57 velocity=64 time=580
note_on channel=13 note=57 velocity=69 time=60
note_off channel=13 note=57 velocity=64 time=168
note_on channel=13 note=57 velocity=69 time=632
note_on channel=13 note=56 velocity=32 time=112
note_on channel=13 note=55 velocity=23 time=40
note_off channel=13 note=57 velocity=64 time=4
note_off channel=13 note=56 velocity=64 time=8
note_off channel=13 note=55 velocity=64 time=40
note_on channel=13 note=54 velocity=69 time=276
note_off channel=13 note=54 velocity=64 time=580
note_on channel=13 note=55 velocity=69 time=60
note_off channel=13 note=55 velocity=64 time=168
note_on channel=13 note=55 velocity=62 time=632
note_off channel=13 note=55 velocity=64 time=444
note_on channel=13 note=55 velocity=65 time=36
note_off channel=13 note=55 velocity=64 time=444
note_on channel=13 note=58 velocity=69 time=36
note_off channel=13 note=58 velocity=64 time=444
note_on channel=13 note=55 velocity=61 time=36
note_off channel=13 note=55 velocity=64 time=136
note_on channel=13 note=58 velocity=72 time=24
note_off channel=13 note=58 velocity=64 time=148
note_on channel=13 note=55 velocity=60 time=12
note_off channel=13 note=55 velocity=64 time=148
note_on channel=13 note=63 velocity=74 time=12
note_off channel=13 note=63 velocity=64 time=924
note_on channel=13 note=53 velocity=69 time=36
note_off channel=13 note=53 velocity=64 time=604
note_on channel=13 note=53 velocity=62 time=36
note_off channel=13 note=53 velocity=64 time=284
note_on channel=13 note=53 velocity=65 time=36
note_off channel=13 note=53 velocity=64 time=124
note_on channel=13 note=61 velocity=64 time=12996
note_off channel=13 note=61 velocity=64 time=308
control_change channel=13 control=11 value=109 time=12
note_on channel=13 note=60 velocity=75 time=0
control_change channel=13 control=11 value=110 time=120
control_change channel=13 control=11 value=111 time=110
control_change channel=13 control=11 value=113 time=110
control_change channel=13 control=11 value=114 time=110
control_change channel=13 control=11 value=115 time=110
control_change channel=13 control=11 value=116 time=110
control_change channel=13 control=11 value=118 time=110
control_change channel=13 control=11 value=119 time=120
control_change channel=13 control=11 value=120 time=110
control_change channel=13 control=11 value=121 time=110
control_change channel=13 control=11 value=123 time=110
control_change channel=13 control=11 value=124 time=110
control_change channel=13 control=11 value=125 time=110
note_off channel=13 note=60 velocity=64 time=102
control_change channel=13 control=11 value=127 time=8
note_on channel=13 note=62 velocity=75 time=360
note_off channel=13 note=62 velocity=64 time=604
note_on channel=13 note=59 velocity=75 time=36
note_off channel=13 note=59 velocity=64 time=296
note_on channel=13 note=59 velocity=75 time=24
note_off channel=13 note=59 velocity=64 time=136
note_on channel=13 note=58 velocity=75 time=824
note_off channel=13 note=58 velocity=64 time=604
note_on channel=13 note=56 velocity=75 time=36
note_off channel=13 note=56 velocity=64 time=296
note_on channel=13 note=57 velocity=75 time=24
note_off channel=13 note=57 velocity=64 time=136
note_on channel=13 note=62 velocity=75 time=824
note_off channel=13 note=62 velocity=64 time=604
note_on channel=13 note=59 velocity=75 time=36
note_off channel=13 note=59 velocity=64 time=296
note_on channel=13 note=60 velocity=75 time=24
note_off channel=13 note=60 velocity=64 time=136
note_on channel=13 note=60 velocity=75 time=824
note_off channel=13 note=60 velocity=64 time=604
note_on channel=13 note=56 velocity=75 time=36
note_off channel=13 note=56 velocity=64 time=296
note_on channel=13 note=57 velocity=75 time=24
note_off channel=13 note=57 velocity=64 time=136
note_on channel=13 note=62 velocity=75 time=824
note_off channel=13 note=62 velocity=64 time=580
note_on channel=13 note=64 velocity=75 time=60
note_off channel=13 note=64 velocity=64 time=168
note_on channel=13 note=62 velocity=75 time=312
note_off channel=13 note=62 velocity=64 time=168
note_on channel=13 note=62 velocity=75 time=312
note_off channel=13 note=62 velocity=64 time=296
note_on channel=13 note=65 velocity=62 time=24
note_off channel=13 note=65 velocity=64 time=148
note_on channel=13 note=62 velocity=75 time=12
note_off channel=13 note=62 velocity=64 time=311
note_on channel=13 note=62 velocity=75 time=9
control_change channel=13 control=11 value=127 time=16
control_change channel=13 control=11 value=124 time=96
control_change channel=13 control=11 value=121 time=96
control_change channel=13 control=11 value=119 time=120
control_change channel=13 control=11 value=116 time=48
control_change channel=13 control=11 value=114 time=120
control_change channel=13 control=11 value=111 time=72
control_change channel=13 control=11 value=109 time=120
control_change channel=13 control=11 value=106 time=48
control_change channel=13 control=11 value=104 time=120
control_change channel=13 control=11 value=101 time=72
control_change channel=13 control=11 value=99 time=120
note_off channel=13 note=62 velocity=64 time=24
control_change channel=13 control=11 value=96 time=24
control_change channel=13 control=11 value=127 time=0
control_change channel=13 control=11 value=127 time=24
note_on channel=13 note=60 velocity=75 time=320
note_on channel=13 note=59 velocity=30 time=112
note_on channel=13 note=58 velocity=20 time=40
note_off channel=13 note=60 velocity=64 time=8
note_off channel=13 note=59 velocity=64 time=4
note_off channel=13 note=58 velocity=64 time=40
note_on channel=13 note=60 velocity=75 time=436
note_off channel=13 note=60 velocity=64 time=168
note_on channel=13 note=60 velocity=75 time=312
note_off channel=13 note=60 velocity=64 time=168
note_on channel=13 note=63 velocity=75 time=792
note_off channel=13 note=63 velocity=64 time=296
note_on channel=13 note=63 velocity=75 time=24
note_off channel=13 note=63 velocity=64 time=192
note_on channel=13 note=60 velocity=62 time=288
note_off channel=13 note=60 velocity=64 time=148
note_on channel=13 note=63 velocity=75 time=12
note_off channel=13 note=63 velocity=64 time=308
note_on channel=13 note=63 velocity=69 time=12
note_off channel=13 note=63 velocity=64 time=136
note_on channel=13 note=62 velocity=75 time=24
note_off channel=13 note=62 velocity=64 time=296
note_on channel=13 note=58 velocity=75 time=24
note_off channel=13 note=58 velocity=64 time=136
note_on channel=13 note=59 velocity=75 time=1944
note_off channel=13 note=59 velocity=64 time=168
note_on channel=13 note=58 velocity=75 time=312
note_off channel=13 note=58 velocity=64 time=296
note_on channel=13 note=58 velocity=75 time=24
note_off channel=13 note=58 velocity=64 time=180
note_on channel=13 note=64 velocity=75 time=300
note_on channel=13 note=66 velocity=54 time=1440
note_off channel=13 note=64 velocity=64 time=16
note_on channel=13 note=65 velocity=62 time=64
note_off channel=13 note=66 velocity=64 time=24
note_on channel=13 note=64 velocity=74 time=56
note_off channel=13 note=65 velocity=64 time=24
note_off channel=13 note=64 velocity=64 time=284
note_on channel=13 note=56 velocity=75 time=12
pitchwheel channel=13 pitch=0 time=160
control_change channel=13 control=11 value=127 time=0
pitchwheel channel=13 pitch=242 time=12
control_change channel=13 control=11 value=124 time=72
control_change channel=13 control=11 value=121 time=72
pitchwheel channel=13 pitch=0 time=48
control_change channel=13 control=11 value=119 time=60
control_change channel=13 control=11 value=116 time=48
pitchwheel channel=13 pitch=-82 time=36
control_change channel=13 control=11 value=114 time=72
pitchwheel channel=13 pitch=-244 time=24
control_change channel=13 control=11 value=111 time=24
pitchwheel channel=13 pitch=-407 time=48
pitchwheel channel=13 pitch=-569 time=60
control_change channel=13 control=11 value=109 time=0
control_change channel=13 control=11 value=106 time=48
pitchwheel channel=13 pitch=-731 time=12
pitchwheel channel=13 pitch=-893 time=36
pitchwheel channel=13 pitch=-1055 time=48
control_change channel=13 control=11 value=104 time=12
pitchwheel channel=13 pitch=-1218 time=24
pitchwheel channel=13 pitch=-1380 time=24
control_change channel=13 control=11 value=101 time=0
pitchwheel channel=13 pitch=-1542 time=36
pitchwheel channel=13 pitch=-1704 time=24
pitchwheel channel=13 pitch=-1866 time=12
pitchwheel channel=13 pitch=-2029 time=24
pitchwheel channel=13 pitch=-2191 time=12
control_change channel=13 control=11 value=99 time=0
pitchwheel channel=13 pitch=-2353 time=12
note_off channel=13 note=56 velocity=64 time=12
pitchwheel channel=13 pitch=-2515 time=0
pitchwheel channel=13 pitch=-2840 time=12
control_change channel=13 control=11 value=96 time=12
control_change channel=13 control=11 value=127 time=24
pitchwheel channel=13 pitch=0 time=0
note_on channel=13 note=58 velocity=75 time=1280
note_off channel=13 note=58 velocity=64 time=604
note_on channel=13 note=62 velocity=75 time=36
note_off channel=13 note=62 velocity=64 time=180
note_on channel=13 note=62 velocity=75 time=300
note_off channel=13 note=62 velocity=64 time=296
note_on channel=13 note=62 velocity=75 time=24
note_off channel=13 note=62 velocity=64 time=136
note_on channel=13 note=62 velocity=75 time=344
note_off channel=13 note=62 velocity=64 time=180
note_on channel=13 note=62 velocity=69 time=300
note_off channel=13 note=62 velocity=64 time=148
note_on channel=13 note=58 velocity=75 time=12
note_off channel=13 note=58 velocity=64 time=456
note_on channel=13 note=60 velocity=75 time=24
note_off channel=13 note=60 velocity=64 time=156
note_on channel=13 note=63 velocity=81 time=804
note_off channel=13 note=63 velocity=64 time=912
note_on channel=13 note=63 velocity=75 time=48
note_off channel=13 note=63 velocity=64 time=180
control_change channel=13 control=11 value=104 time=300
note_on channel=13 note=61 velocity=81 time=0
control_change channel=13 control=11 value=106 time=108
control_change channel=13 control=11 value=109 time=108
note_off channel=13 note=61 velocity=64 time=92
note_on channel=13 note=61 velocity=81 time=12
control_change channel=13 control=11 value=111 time=4
control_change channel=13 control=11 value=114 time=108
control_change channel=13 control=11 value=116 time=108
control_change channel=13 control=11 value=119 time=108
control_change channel=13 control=11 value=121 time=108
control_change channel=13 control=11 value=124 time=108
note_off channel=13 note=61 velocity=64 time=60
control_change channel=13 control=11 value=127 time=36
control_change channel=13 control=11 value=127 time=0
note_on channel=13 note=60 velocity=81 time=0
control_change channel=13 control=11 value=124 time=84
control_change channel=13 control=11 value=121 time=84
control_change channel=13 control=11 value=119 time=108
note_off channel=13 note=60 velocity=64 time=32
note_on channel=13 note=58 velocity=81 time=12
control_change channel=13 control=11 value=116 time=4
control_change channel=13 control=11 value=114 time=108
control_change channel=13 control=11 value=111 time=48
control_change channel=13 control=11 value=109 time=108
control_change channel=13 control=11 value=106 time=60
control_change channel=13 control=11 value=104 time=108
control_change channel=13 control=11 value=101 time=48
note_off channel=13 note=58 velocity=64 time=108
control_change channel=13 control=11 value=127 time=48
note_on channel=13 note=52 velocity=56 time=1760
control_change channel=13 control=11 value=127 time=232
control_change channel=13 control=11 value=121 time=24
control_change channel=13 control=11 value=115 time=24
control_change channel=13 control=11 value=109 time=24
control_change channel=13 control=11 value=103 time=24
control_change channel=13 control=11 value=96 time=24
control_change channel=13 control=11 value=90 time=24
control_change channel=13 control=11 value=84 time=24
control_change channel=13 control=11 value=84 time=24
control_change channel=13 control=11 value=86 time=120
control_change channel=13 control=11 value=89 time=48
control_change channel=13 control=11 value=93 time=120
control_change channel=13 control=11 value=95 time=120
control_change channel=13 control=11 value=98 time=48
control_change channel=13 control=11 value=101 time=120
control_change channel=13 control=11 value=104 time=96
control_change channel=13 control=11 value=108 time=120
control_change channel=13 control=11 value=111 time=120
control_change channel=13 control=11 value=114 time=72
control_change channel=13 control=11 value=116 time=120
control_change channel=13 control=11 value=119 time=48
control_change channel=13 control=11 value=123 time=120
control_change channel=13 control=11 value=127 time=120
note_off channel=13 note=52 velocity=64 time=80
note_on channel=13 note=50 velocity=56 time=24
note_off channel=13 note=50 velocity=64 time=136
note_on channel=13 note=54 velocity=56 time=1784
control_change channel=13 control=11 value=127 time=232
control_change channel=13 control=11 value=121 time=24
control_change channel=13 control=11 value=115 time=24
control_change channel=13 control=11 value=109 time=24
control_change channel=13 control=11 value=103 time=24
control_change channel=13 control=11 value=96 time=24
control_change channel=13 control=11 value=90 time=24
control_change channel=13 control=11 value=84 time=24
control_change channel=13 control=11 value=84 time=24
control_change channel=13 control=11 value=86 time=120
control_change channel=13 control=11 value=89 time=48
control_change channel=13 control=11 value=93 time=120
control_change channel=13 control=11 value=95 time=120
control_change channel=13 control=11 value=98 time=48
control_change channel=13 control=11 value=101 time=120
control_change channel=13 control=11 value=104 time=96
control_change channel=13 control=11 value=108 time=120
control_change channel=13 control=11 value=111 time=120
control_change channel=13 control=11 value=114 time=72
control_change channel=13 control=11 value=116 time=120
control_change channel=13 control=11 value=119 time=48
control_change channel=13 control=11 value=123 time=120
control_change channel=13 control=11 value=127 time=120
note_off channel=13 note=54 velocity=64 time=80
note_on channel=13 note=53 velocity=56 time=24
note_off channel=13 note=53 velocity=64 time=136
note_on channel=13 note=52 velocity=56 time=1784
control_change channel=13 control=11 value=127 time=232
control_change channel=13 control=11 value=121 time=24
control_change channel=13 control=11 value=115 time=24
control_change channel=13 control=11 value=109 time=24
control_change channel=13 control=11 value=103 time=24
control_change channel=13 control=11 value=96 time=24
control_change channel=13 control=11 value=90 time=24
control_change channel=13 control=11 value=84 time=24
control_change channel=13 control=11 value=84 time=24
control_change channel=13 control=11 value=86 time=120
control_change channel=13 control=11 value=89 time=48
control_change channel=13 control=11 value=93 time=120
control_change channel=13 control=11 value=95 time=120
control_change channel=13 control=11 value=98 time=48
control_change channel=13 control=11 value=101 time=120
control_change channel=13 control=11 value=104 time=96
control_change channel=13 control=11 value=108 time=120
control_change channel=13 control=11 value=111 time=120
control_change channel=13 control=11 value=114 time=72
control_change channel=13 control=11 value=116 time=120
control_change channel=13 control=11 value=119 time=48
control_change channel=13 control=11 value=123 time=120
control_change channel=13 control=11 value=127 time=120
note_off channel=13 note=52 velocity=64 time=80
note_on channel=13 note=58 velocity=75 time=4344
note_off channel=13 note=58 velocity=64 time=168
note_on channel=13 note=60 velocity=75 time=312
note_off channel=13 note=60 velocity=64 time=136
note_on channel=13 note=62 velocity=75 time=24
note_off channel=13 note=62 velocity=64 time=168
note_on channel=13 note=62 velocity=75 time=312
note_off channel=13 note=62 velocity=64 time=168
control_change channel=13 control=93 value=30 time=312
note_on channel=13 note=61 velocity=75 time=0
note_off channel=13 note=61 velocity=64 time=444
note_on channel=13 note=61 velocity=75 time=36
note_off channel=13 note=61 velocity=64 time=296
note_on channel=13 note=61 velocity=75 time=24
note_off channel=13 note=61 velocity=64 time=136
note_on channel=13 note=57 velocity=75 time=824
note_off channel=13 note=57 velocity=64 time=604
note_on channel=13 note=60 velocity=75 time=36
note_off channel=13 note=60 velocity=64 time=296
note_on channel=13 note=57 velocity=64 time=24
note_off channel=13 note=57 velocity=64 time=136
note_on channel=13 note=62 velocity=75 time=24
note_off channel=13 note=62 velocity=64 time=284
note_on channel=13 note=64 velocity=75 time=36
note_off channel=13 note=64 velocity=64 time=168
note_on channel=13 note=63 velocity=75 time=312
note_off channel=13 note=63 velocity=64 time=604
note_on channel=13 note=63 velocity=75 time=36
note_off channel=13 note=63 velocity=64 time=296
note_on channel=13 note=63 velocity=75 time=24
note_off channel=13 note=63 velocity=64 time=124
note_on channel=13 note=59 velocity=75 time=1316
note_off channel=13 note=59 velocity=64 time=568
note_on channel=13 note=59 velocity=75 time=72
note_off channel=13 note=59 velocity=64 time=156
note_on channel=13 note=59 velocity=75 time=324
note_off channel=13 note=59 velocity=64 time=156
note_on channel=13 note=58 velocity=75 time=324
note_off channel=13 note=58 velocity=64 time=782
note_on channel=13 note=61 velocity=75 time=18
note_off channel=13 note=61 velocity=64 time=1060
note_on channel=13 note=63 velocity=75 time=380
note_off channel=13 note=63 velocity=64 time=580
note_on channel=13 note=64 velocity=75 time=60
note_off channel=13 note=64 velocity=64 time=168
note_on channel=13 note=62 velocity=75 time=312
note_off channel=13 note=62 velocity=64 time=168
note_on channel=13 note=63 velocity=75 time=312
note_off channel=13 note=63 velocity=64 time=782
note_on channel=13 note=64 velocity=75 time=18
note_off channel=13 note=64 velocity=64 time=1060
note_on channel=13 note=48 velocity=56 time=5820
note_off channel=13 note=48 velocity=64 time=80
note_on channel=13 note=48 velocity=62 time=0
note_off channel=13 note=48 velocity=64 time=80
note_on channel=13 note=51 velocity=40 time=640
control_change channel=13 control=11 value=127 time=1120
control_change channel=13 control=11 value=125 time=120
control_change channel=13 control=11 value=124 time=120
control_change channel=13 control=11 value=123 time=120
control_change channel=13 control=11 value=121 time=120
control_change channel=13 control=11 value=120 time=120
control_change channel=13 control=11 value=119 time=120
control_change channel=13 control=11 value=118 time=120
control_change channel=13 control=11 value=116 time=120
control_change channel=13 control=11 value=115 time=120
control_change channel=13 control=11 value=114 time=120
control_change channel=13 control=11 value=113 time=120
control_change channel=13 control=11 value=111 time=120
control_change channel=13 control=11 value=110 time=120
control_change channel=13 control=11 value=109 time=120
control_change channel=13 control=11 value=108 time=120
control_change channel=13 control=11 value=106 time=120
control_change channel=13 control=11 value=105 time=120
control_change channel=13 control=11 value=104 time=120
control_change channel=13 control=11 value=103 time=120
control_change channel=13 control=11 value=101 time=120
control_change channel=13 control=11 value=100 time=120
control_change channel=13 control=11 value=99 time=120
control_change channel=13 control=11 value=98 time=120
note_off channel=13 note=51 velocity=64 time=96
<meta message end_of_track time=0>
<meta message text text='Trombone 3' time=0>
control_change channel=14 control=11 value=127 time=0
control_change channel=14 control=7 value=106 time=0
control_change channel=14 control=10 value=94 time=0
control_change channel=14 control=91 value=85 time=0
control_change channel=14 control=93 value=25 time=0
control_change channel=14 control=0 value=56 time=0
control_change channel=14 control=32 value=0 time=0
program_change channel=14 program=57 time=0
control_change channel=14 control=11 value=109 time=9944
note_on channel=14 note=57 velocity=60 time=0
control_change channel=14 control=11 value=110 time=250
control_change channel=14 control=11 value=111 time=250
control_change channel=14 control=11 value=113 time=250
control_change channel=14 control=11 value=114 time=250
control_change channel=14 control=11 value=115 time=240
control_change channel=14 control=11 value=116 time=250
note_off channel=14 note=57 velocity=64 time=74
note_on channel=14 note=54 velocity=62 time=36
control_change channel=14 control=11 value=118 time=140
control_change channel=14 control=11 value=119 time=250
control_change channel=14 control=11 value=120 time=250
control_change channel=14 control=11 value=121 time=240
control_change channel=14 control=11 value=123 time=250
control_change channel=14 control=11 value=124 time=250
control_change channel=14 control=11 value=125 time=250
control_change channel=14 control=11 value=127 time=240
note_off channel=14 note=54 velocity=64 time=14
note_on channel=14 note=53 velocity=75 time=332
note_off channel=14 note=53 velocity=64 time=580
note_on channel=14 note=53 velocity=77 time=60
note_off channel=14 note=53 velocity=64 time=168
note_on channel=14 note=53 velocity=79 time=312
note_off channel=14 note=53 velocity=64 time=168
note_on channel=14 note=52 velocity=81 time=312
note_off channel=14 note=52 velocity=64 time=764
note_on channel=14 note=52 velocity=84 time=36
note_off channel=14 note=52 velocity=64 time=592
note_on channel=14 note=52 velocity=86 time=48
note_off channel=14 note=52 velocity=64 time=272
note_on channel=14 note=57 velocity=86 time=48
note_off channel=14 note=57 velocity=64 time=124
note_on channel=14 note=50 velocity=45 time=19556
note_off channel=14 note=50 velocity=64 time=124
note_on channel=14 note=54 velocity=50 time=36
note_off channel=14 note=54 velocity=64 time=132
note_on channel=14 note=55 velocity=45 time=348
note_off channel=14 note=55 velocity=64 time=294
control_change channel=14 control=11 value=109 time=26
note_on channel=14 note=58 velocity=52 time=0
control_change channel=14 control=11 value=110 time=100
control_change channel=14 control=11 value=111 time=100
control_change channel=14 control=11 value=113 time=100
control_change channel=14 control=11 value=114 time=100
control_change channel=14 control=11 value=115 time=100
control_change channel=14 control=11 value=116 time=100
note_off channel=14 note=58 velocity=64 time=12
note_on channel=14 note=59 velocity=50 time=28
control_change channel=14 control=11 value=118 time=60
control_change channel=14 control=11 value=119 time=100
control_change channel=14 control=11 value=120 time=100
control_change channel=14 control=11 value=121 time=100
control_change channel=14 control=11 value=123 time=100
control_change channel=14 control=11 value=124 time=100
control_change channel=14 control=11 value=125 time=100
control_change channel=14 control=11 value=127 time=60
note_off channel=14 note=59 velocity=64 time=32
note_on channel=14 note=56 velocity=55 time=48
note_off channel=14 note=56 velocity=64 time=112
note_on channel=14 note=56 velocity=50 time=368
note_off channel=14 note=56 velocity=64 time=144
note_on channel=14 note=56 velocity=45 time=336
note_off channel=14 note=56 velocity=64 time=136
note_on channel=14 note=48 velocity=50 time=24
note_off channel=14 note=48 velocity=64 time=284
note_on channel=14 note=48 velocity=45 time=36
note_off channel=14 note=48 velocity=64 time=136
note_on channel=14 note=48 velocity=50 time=24
note_off channel=14 note=48 velocity=64 time=120
note_on channel=14 note=48 velocity=50 time=360
note_off channel=14 note=48 velocity=64 time=284
note_on channel=14 note=55 velocity=50 time=36
note_off channel=14 note=55 velocity=64 time=120
note_on channel=14 note=54 velocity=50 time=360
control_change channel=14 control=11 value=127 time=232
control_change channel=14 control=11 value=120 time=24
control_change channel=14 control=11 value=114 time=24
control_change channel=14 control=11 value=108 time=24
control_change channel=14 control=11 value=101 time=24
control_change channel=14 control=11 value=94 time=24
control_change channel=14 control=11 value=96 time=120
control_change channel=14 control=11 value=99 time=120
control_change channel=14 control=11 value=101 time=120
control_change channel=14 control=11 value=104 time=120
control_change channel=14 control=11 value=106 time=120
control_change channel=14 control=11 value=109 time=120
control_change channel=14 control=11 value=111 time=120
control_change channel=14 control=11 value=114 time=120
control_change channel=14 control=11 value=116 time=120
control_change channel=14 control=11 value=119 time=120
control_change channel=14 control=11 value=121 time=120
control_change channel=14 control=11 value=124 time=120
control_change channel=14 control=11 value=127 time=120
note_off channel=14 note=54 velocity=64 time=120
note_on channel=14 note=45 velocity=52 time=1008
note_off channel=14 note=45 velocity=64 time=284
note_on channel=14 note=45 velocity=55 time=36
note_off channel=14 note=45 velocity=64 time=108
note_on channel=14 note=55 velocity=60 time=372
note_off channel=14 note=55 velocity=64 time=592
note_on channel=14 note=55 velocity=55 time=48
note_off channel=14 note=55 velocity=64 time=296
note_on channel=14 note=55 velocity=45 time=24
note_off channel=14 note=55 velocity=64 time=134
note_on channel=14 note=57 velocity=50 time=826
control_change channel=14 control=11 value=127 time=232
control_change channel=14 control=11 value=120 time=24
control_change channel=14 control=11 value=114 time=24
control_change channel=14 control=11 value=108 time=24
control_change channel=14 control=11 value=101 time=24
control_change channel=14 control=11 value=95 time=24
control_change channel=14 control=11 value=95 time=0
control_change channel=14 control=11 value=96 time=120
control_change channel=14 control=11 value=98 time=120
control_change channel=14 control=11 value=99 time=120
control_change channel=14 control=11 value=100 time=120
control_change channel=14 control=11 value=101 time=120
control_change channel=14 control=11 value=103 time=120
control_change channel=14 control=11 value=104 time=120
control_change channel=14 control=11 value=105 time=120
control_change channel=14 control=11 value=106 time=120
control_change channel=14 control=11 value=108 time=120
control_change channel=14 control=11 value=109 time=120
control_change channel=14 control=11 value=110 time=120
control_change channel=14 control=11 value=111 time=120
control_change channel=14 control=11 value=113 time=120
control_change channel=14 control=11 value=114 time=120
control_change channel=14 control=11 value=115 time=120
control_change channel=14 control=11 value=116 time=120
control_change channel=14 control=11 value=118 time=120
control_change channel=14 control=11 value=119 time=120
control_change channel=14 control=11 value=120 time=120
control_change channel=14 control=11 value=121 time=120
control_change channel=14 control=11 value=123 time=120
control_change channel=14 control=11 value=124 time=120
control_change channel=14 control=11 value=125 time=120
control_change channel=14 control=11 value=127 time=48
note_off channel=14 note=57 velocity=64 time=192
note_on channel=14 note=50 velocity=55 time=48
note_off channel=14 note=50 velocity=64 time=284
note_on channel=14 note=50 velocity=55 time=36
note_off channel=14 note=50 velocity=64 time=112
note_on channel=14 note=43 velocity=45 time=1808
control_change channel=14 control=11 value=127 time=232
control_change channel=14 control=11 value=121 time=24
control_change channel=14 control=11 value=115 time=24
control_change channel=14 control=11 value=109 time=24
control_change channel=14 control=11 value=103 time=24
control_change channel=14 control=11 value=96 time=24
control_change channel=14 control=11 value=90 time=24
control_change channel=14 control=11 value=84 time=24
control_change channel=14 control=11 value=84 time=24
control_change channel=14 control=11 value=86 time=120
control_change channel=14 control=11 value=89 time=48
control_change channel=14 control=11 value=93 time=120
control_change channel=14 control=11 value=95 time=120
control_change channel=14 control=11 value=98 time=48
control_change channel=14 control=11 value=101 time=120
control_change channel=14 control=11 value=104 time=96
control_change channel=14 control=11 value=108 time=120
control_change channel=14 control=11 value=111 time=120
control_change channel=14 control=11 value=114 time=72
control_change channel=14 control=11 value=116 time=120
control_change channel=14 control=11 value=119 time=48
control_change channel=14 control=11 value=123 time=120
control_change channel=14 control=11 value=127 time=120
note_off channel=14 note=43 velocity=64 time=80
note_on channel=14 note=48 velocity=56 time=24
note_off channel=14 note=48 velocity=64 time=136
note_on channel=14 note=45 velocity=56 time=1784
control_change channel=14 control=11 value=127 time=232
control_change channel=14 control=11 value=121 time=24
control_change channel=14 control=11 value=115 time=24
control_change channel=14 control=11 value=109 time=24
control_change channel=14 control=11 value=103 time=24
control_change channel=14 control=11 value=96 time=24
control_change channel=14 control=11 value=90 time=24
control_change channel=14 control=11 value=84 time=24
control_change channel=14 control=11 value=84 time=24
control_change channel=14 control=11 value=86 time=120
control_change channel=14 control=11 value=89 time=48
control_change channel=14 control=11 value=93 time=120
control_change channel=14 control=11 value=95 time=120
control_change channel=14 control=11 value=98 time=48
control_change channel=14 control=11 value=101 time=120
control_change channel=14 control=11 value=104 time=96
control_change channel=14 control=11 value=108 time=120
control_change channel=14 control=11 value=111 time=120
control_change channel=14 control=11 value=114 time=72
control_change channel=14 control=11 value=116 time=120
control_change channel=14 control=11 value=119 time=48
control_change channel=14 control=11 value=123 time=120
control_change channel=14 control=11 value=127 time=120
note_off channel=14 note=45 velocity=64 time=80
note_on channel=14 note=50 velocity=56 time=24
note_off channel=14 note=50 velocity=64 time=136
note_on channel=14 note=43 velocity=56 time=1784
control_change channel=14 control=11 value=127 time=232
control_change channel=14 control=11 value=121 time=24
control_change channel=14 control=11 value=115 time=24
control_change channel=14 control=11 value=109 time=24
control_change channel=14 control=11 value=103 time=24
control_change channel=14 control=11 value=96 time=24
control_change channel=14 control=11 value=90 time=24
control_change channel=14 control=11 value=84 time=24
control_change channel=14 control=11 value=84 time=24
control_change channel=14 control=11 value=86 time=120
control_change channel=14 control=11 value=89 time=48
control_change channel=14 control=11 value=93 time=120
control_change channel=14 control=11 value=95 time=120
control_change channel=14 control=11 value=98 time=48
control_change channel=14 control=11 value=101 time=120
control_change channel=14 control=11 value=104 time=96
control_change channel=14 control=11 value=108 time=120
control_change channel=14 control=11 value=111 time=120
control_change channel=14 control=11 value=114 time=72
control_change channel=14 control=11 value=116 time=120
control_change channel=14 control=11 value=119 time=48
control_change channel=14 control=11 value=123 time=120
control_change channel=14 control=11 value=127 time=120
note_off channel=14 note=43 velocity=64 time=80
note_on channel=14 note=46 velocity=56 time=4344
note_off channel=14 note=46 velocity=64 time=136
note_on channel=14 note=54 velocity=62 time=24
note_off channel=14 note=54 velocity=64 time=144
note_on channel=14 note=55 velocity=69 time=336
note_off channel=14 note=55 velocity=64 time=296
note_on channel=14 note=58 velocity=56 time=24
note_off channel=14 note=58 velocity=64 time=136
note_on channel=14 note=62 velocity=67 time=24
note_off channel=14 note=62 velocity=64 time=296
note_on channel=14 note=61 velocity=81 time=24
note_off channel=14 note=61 velocity=64 time=604
note_on channel=14 note=61 velocity=65 time=36
note_off channel=14 note=61 velocity=64 time=308
note_on channel=14 note=58 velocity=69 time=12
control_change channel=14 control=11 value=127 time=16
control_change channel=14 control=11 value=125 time=120
control_change channel=14 control=11 value=123 time=120
control_change channel=14 control=11 value=121 time=120
control_change channel=14 control=11 value=119 time=120
control_change channel=14 control=11 value=118 time=120
control_change channel=14 control=11 value=115 time=96
control_change channel=14 control=11 value=114 time=120
control_change channel=14 control=11 value=111 time=120
note_off channel=14 note=58 velocity=64 time=120
control_change channel=14 control=11 value=110 time=0
control_change channel=14 control=11 value=109 time=24
control_change channel=14 control=11 value=127 time=24
note_on channel=14 note=50 velocity=56 time=320
note_off channel=14 note=50 velocity=64 time=136
note_on channel=14 note=50 velocity=64 time=24
note_off channel=14 note=50 velocity=64 time=144
note_on channel=14 note=51 velocity=69 time=336
note_off channel=14 note=51 velocity=64 time=296
note_on channel=14 note=51 velocity=56 time=24
note_off channel=14 note=51 velocity=64 time=136
note_on channel=14 note=54 velocity=66 time=24
note_off channel=14 note=54 velocity=64 time=296
note_on channel=14 note=55 velocity=75 time=24
note_off channel=14 note=55 velocity=64 time=604
note_on channel=14 note=55 velocity=64 time=36
note_off channel=14 note=55 velocity=64 time=308
note_on channel=14 note=54 velocity=69 time=12
control_change channel=14 control=11 value=127 time=16
control_change channel=14 control=11 value=125 time=120
control_change channel=14 control=11 value=123 time=120
control_change channel=14 control=11 value=121 time=120
control_change channel=14 control=11 value=119 time=120
control_change channel=14 control=11 value=118 time=120
control_change channel=14 control=11 value=115 time=96
control_change channel=14 control=11 value=114 time=120
control_change channel=14 control=11 value=111 time=120
note_off channel=14 note=54 velocity=64 time=120
control_change channel=14 control=11 value=110 time=0
control_change channel=14 control=11 value=109 time=24
control_change channel=14 control=11 value=127 time=24
note_on channel=14 note=43 velocity=56 time=1760
control_change channel=14 control=11 value=127 time=232
control_change channel=14 control=11 value=121 time=24
control_change channel=14 control=11 value=115 time=24
control_change channel=14 control=11 value=109 time=24
control_change channel=14 control=11 value=103 time=24
control_change channel=14 control=11 value=96 time=24
control_change channel=14 control=11 value=90 time=24
control_change channel=14 control=11 value=84 time=24
control_change channel=14 control=11 value=88 time=96
control_change channel=14 control=11 value=91 time=96
control_change channel=14 control=11 value=94 time=72
control_change channel=14 control=11 value=98 time=96
control_change channel=14 control=11 value=101 time=96
control_change channel=14 control=11 value=104 time=48
control_change channel=14 control=11 value=108 time=96
control_change channel=14 control=11 value=111 time=96
control_change channel=14 control=11 value=114 time=72
control_change channel=14 control=11 value=118 time=72
control_change channel=14 control=11 value=121 time=96
control_change channel=14 control=11 value=124 time=72
control_change channel=14 control=11 value=127 time=48
note_off channel=14 note=43 velocity=64 time=104
note_on channel=14 note=43 velocity=56 time=40
note_off channel=14 note=43 velocity=64 time=296
note_on channel=14 note=48 velocity=56 time=24
note_off channel=14 note=48 velocity=64 time=136
note_on channel=14 note=54 velocity=62 time=3224
note_off channel=14 note=54 velocity=64 time=580
note_on channel=14 note=53 velocity=62 time=60
note_off channel=14 note=53 velocity=64 time=144
note_on channel=14 note=53 velocity=62 time=336
note_off channel=14 note=53 velocity=64 time=296
note_on channel=14 note=53 velocity=62 time=24
note_off channel=14 note=53 velocity=64 time=136
note_on channel=14 note=53 velocity=56 time=24
note_off channel=14 note=53 velocity=64 time=56
note_on channel=14 note=53 velocity=62 time=24
note_off channel=14 note=53 velocity=64 time=68
note_on channel=14 note=53 velocity=62 time=332
note_off channel=14 note=53 velocity=64 time=308
control_change channel=14 control=11 value=104 time=12
note_on channel=14 note=52 velocity=69 time=0
control_change channel=14 control=11 value=105 time=100
control_change channel=14 control=11 value=108 time=80
control_change channel=14 control=11 value=109 time=100
control_change channel=14 control=11 value=111 time=100
control_change channel=14 control=11 value=114 time=90
control_change channel=14 control=11 value=115 time=100
control_change channel=14 control=11 value=118 time=70
control_change channel=14 control=11 value=119 time=100
control_change channel=14 control=11 value=121 time=100
control_change channel=14 control=11 value=124 time=90
control_change channel=14 control=11 value=125 time=100
control_change channel=14 control=11 value=127 time=10
note_off channel=14 note=52 velocity=64 time=80
note_on channel=14 note=49 velocity=69 time=320
note_on channel=14 note=48 velocity=40 time=112
note_on channel=14 note=47 velocity=28 time=40
note_off channel=14 note=49 velocity=64 time=4
note_off channel=14 note=48 velocity=64 time=8
note_on channel=14 note=46 velocity=17 time=28
note_off channel=14 note=47 velocity=64 time=12
note_off channel=14 note=46 velocity=64 time=40
note_on channel=14 note=48 velocity=69 time=236
note_off channel=14 note=48 velocity=64 time=592
note_on channel=14 note=48 velocity=62 time=48
note_off channel=14 note=48 velocity=64 time=296
note_on channel=14 note=48 velocity=50 time=24
note_off channel=14 note=48 velocity=64 time=136
note_on channel=14 note=52 velocity=62 time=24
note_off channel=14 note=52 velocity=64 time=284
note_on channel=14 note=46 velocity=62 time=36
note_off channel=14 note=46 velocity=64 time=156
note_on channel=14 note=45 velocity=62 time=324
control_change channel=14 control=11 value=127 time=160
control_change channel=14 control=11 value=125 time=120
control_change channel=14 control=11 value=123 time=120
control_change channel=14 control=11 value=121 time=120
control_change channel=14 control=11 value=119 time=120
control_change channel=14 control=11 value=118 time=120
control_change channel=14 control=11 value=115 time=120
control_change channel=14 control=11 value=114 time=120
control_change channel=14 control=11 value=111 time=120
control_change channel=14 control=11 value=110 time=120
control_change channel=14 control=11 value=108 time=120
control_change channel=14 control=11 value=106 time=120
control_change channel=14 control=11 value=104 time=120
control_change channel=14 control=11 value=103 time=120
control_change channel=14 control=11 value=100 time=120
control_change channel=14 control=11 value=99 time=120
note_off channel=14 note=45 velocity=64 time=60
control_change channel=14 control=11 value=96 time=36
control_change channel=14 control=11 value=127 time=24
note_on channel=14 note=53 velocity=69 time=320
note_on channel=14 note=52 velocity=30 time=112
note_on channel=14 note=51 velocity=20 time=40
note_off channel=14 note=53 velocity=64 time=4
note_off channel=14 note=52 velocity=64 time=8
note_off channel=14 note=51 velocity=64 time=40
note_on channel=14 note=53 velocity=69 time=276
note_off channel=14 note=53 velocity=64 time=580
note_on channel=14 note=53 velocity=69 time=60
note_off channel=14 note=53 velocity=64 time=168
note_on channel=14 note=52 velocity=69 time=632
note_on channel=14 note=51 velocity=32 time=112
note_on channel=14 note=50 velocity=23 time=40
note_off channel=14 note=52 velocity=64 time=4
note_off channel=14 note=51 velocity=64 time=8
note_off channel=14 note=50 velocity=64 time=40
note_on channel=14 note=52 velocity=69 time=276
note_off channel=14 note=52 velocity=64 time=580
note_on channel=14 note=52 velocity=69 time=60
note_off channel=14 note=52 velocity=64 time=168
note_on channel=14 note=51 velocity=62 time=632
note_off channel=14 note=51 velocity=64 time=444
note_on channel=14 note=51 velocity=65 time=36
note_off channel=14 note=51 velocity=64 time=444
note_on channel=14 note=55 velocity=69 time=36
note_off channel=14 note=55 velocity=64 time=444
note_on channel=14 note=51 velocity=61 time=36
note_off channel=14 note=51 velocity=64 time=136
note_on channel=14 note=55 velocity=72 time=24
note_off channel=14 note=55 velocity=64 time=148
note_on channel=14 note=51 velocity=60 time=12
note_off channel=14 note=51 velocity=64 time=148
note_on channel=14 note=60 velocity=74 time=12
note_off channel=14 note=60 velocity=64 time=924
note_on channel=14 note=51 velocity=69 time=36
note_off channel=14 note=51 velocity=64 time=604
note_on channel=14 note=50 velocity=62 time=36
note_off channel=14 note=50 velocity=64 time=284
note_on channel=14 note=50 velocity=65 time=36
note_off channel=14 note=50 velocity=64 time=124
note_on channel=14 note=55 velocity=64 time=12996
note_off channel=14 note=55 velocity=64 time=308
control_change channel=14 control=11 value=109 time=12
note_on channel=14 note=54 velocity=75 time=0
control_change channel=14 control=11 value=110 time=120
control_change channel=14 control=11 value=111 time=110
control_change channel=14 control=11 value=113 time=110
control_change channel=14 control=11 value=114 time=110
control_change channel=14 control=11 value=115 time=110
control_change channel=14 control=11 value=116 time=110
control_change channel=14 control=11 value=118 time=110
control_change channel=14 control=11 value=119 time=120
control_change channel=14 control=11 value=120 time=110
control_change channel=14 control=11 value=121 time=110
control_change channel=14 control=11 value=123 time=110
control_change channel=14 control=11 value=124 time=110
control_change channel=14 control=11 value=125 time=110
note_off channel=14 note=54 velocity=64 time=102
control_change channel=14 control=11 value=127 time=8
note_on channel=14 note=59 velocity=75 time=360
note_off channel=14 note=59 velocity=64 time=604
note_on channel=14 note=56 velocity=75 time=36
note_off channel=14 note=56 velocity=64 time=296
note_on channel=14 note=57 velocity=75 time=24
note_off channel=14 note=57 velocity=64 time=136
note_on channel=14 note=55 velocity=75 time=824
note_off channel=14 note=55 velocity=64 time=604
note_on channel=14 note=52 velocity=75 time=36
note_off channel=14 note=52 velocity=64 time=296
note_on channel=14 note=52 velocity=75 time=24
note_off channel=14 note=52 velocity=64 time=136
note_on channel=14 note=60 velocity=75 time=824
note_off channel=14 note=60 velocity=64 time=604
note_on channel=14 note=56 velocity=75 time=36
note_off channel=14 note=56 velocity=64 time=296
note_on channel=14 note=57 velocity=75 time=24
note_off channel=14 note=57 velocity=64 time=136
note_on channel=14 note=57 velocity=75 time=824
note_off channel=14 note=57 velocity=64 time=604
note_on channel=14 note=54 velocity=75 time=36
note_off channel=14 note=54 velocity=64 time=296
note_on channel=14 note=54 velocity=75 time=24
note_off channel=14 note=54 velocity=64 time=136
note_on channel=14 note=59 velocity=75 time=824
note_off channel=14 note=59 velocity=64 time=580
note_on channel=14 note=59 velocity=75 time=60
note_off channel=14 note=59 velocity=64 time=168
note_on channel=14 note=59 velocity=75 time=312
note_off channel=14 note=59 velocity=64 time=168
note_on channel=14 note=58 velocity=75 time=312
note_off channel=14 note=58 velocity=64 time=296
note_on channel=14 note=62 velocity=62 time=24
note_off channel=14 note=62 velocity=64 time=148
note_on channel=14 note=58 velocity=75 time=12
note_off channel=14 note=58 velocity=64 time=311
note_on channel=14 note=58 velocity=75 time=9
control_change channel=14 control=11 value=127 time=16
control_change channel=14 control=11 value=124 time=96
control_change channel=14 control=11 value=121 time=96
control_change channel=14 control=11 value=119 time=120
control_change channel=14 control=11 value=116 time=48
control_change channel=14 control=11 value=114 time=120
control_change channel=14 control=11 value=111 time=72
control_change channel=14 control=11 value=109 time=120
control_change channel=14 control=11 value=106 time=48
control_change channel=14 control=11 value=104 time=120
control_change channel=14 control=11 value=101 time=72
control_change channel=14 control=11 value=99 time=120
note_off channel=14 note=58 velocity=64 time=24
control_change channel=14 control=11 value=96 time=24
control_change channel=14 control=11 value=127 time=0
control_change channel=14 control=11 value=127 time=24
note_on channel=14 note=58 velocity=75 time=320
note_on channel=14 note=57 velocity=30 time=112
note_on channel=14 note=56 velocity=20 time=40
note_off channel=14 note=58 velocity=64 time=8
note_off channel=14 note=57 velocity=64 time=4
note_off channel=14 note=56 velocity=64 time=40
note_on channel=14 note=58 velocity=75 time=436
note_off channel=14 note=58 velocity=64 time=168
note_on channel=14 note=58 velocity=75 time=312
note_off channel=14 note=58 velocity=64 time=168
note_on channel=14 note=60 velocity=75 time=792
note_off channel=14 note=60 velocity=64 time=296
note_on channel=14 note=60 velocity=75 time=24
note_off channel=14 note=60 velocity=64 time=192
note_on channel=14 note=57 velocity=62 time=288
note_off channel=14 note=57 velocity=64 time=148
note_on channel=14 note=60 velocity=75 time=12
note_off channel=14 note=60 velocity=64 time=308
note_on channel=14 note=60 velocity=69 time=12
note_off channel=14 note=60 velocity=64 time=136
note_on channel=14 note=60 velocity=75 time=24
note_off channel=14 note=60 velocity=64 time=296
note_on channel=14 note=55 velocity=75 time=24
note_off channel=14 note=55 velocity=64 time=136
note_on channel=14 note=57 velocity=75 time=1944
note_off channel=14 note=57 velocity=64 time=168
note_on channel=14 note=56 velocity=75 time=312
note_off channel=14 note=56 velocity=64 time=296
note_on channel=14 note=56 velocity=75 time=24
note_off channel=14 note=56 velocity=64 time=180
note_on channel=14 note=60 velocity=75 time=300
note_on channel=14 note=62 velocity=54 time=1440
note_off channel=14 note=60 velocity=64 time=16
note_on channel=14 note=61 velocity=62 time=64
note_off channel=14 note=62 velocity=64 time=24
note_on channel=14 note=60 velocity=74 time=56
note_off channel=14 note=61 velocity=64 time=24
note_off channel=14 note=60 velocity=64 time=284
note_on channel=14 note=54 velocity=75 time=12
pitchwheel channel=14 pitch=0 time=160
control_change channel=14 control=11 value=127 time=0
pitchwheel channel=14 pitch=242 time=12
control_change channel=14 control=11 value=124 time=72
control_change channel=14 control=11 value=121 time=72
pitchwheel channel=14 pitch=0 time=48
control_change channel=14 control=11 value=119 time=60
control_change channel=14 control=11 value=116 time=48
pitchwheel channel=14 pitch=-82 time=36
control_change channel=14 control=11 value=114 time=72
pitchwheel channel=14 pitch=-244 time=24
control_change channel=14 control=11 value=111 time=24
pitchwheel channel=14 pitch=-407 time=48
pitchwheel channel=14 pitch=-569 time=60
control_change channel=14 control=11 value=109 time=0
control_change channel=14 control=11 value=106 time=48
pitchwheel channel=14 pitch=-731 time=12
pitchwheel channel=14 pitch=-893 time=36
pitchwheel channel=14 pitch=-1055 time=48
control_change channel=14 control=11 value=104 time=12
pitchwheel channel=14 pitch=-1218 time=24
pitchwheel channel=14 pitch=-1380 time=24
control_change channel=14 control=11 value=101 time=0
pitchwheel channel=14 pitch=-1542 time=36
pitchwheel channel=14 pitch=-1704 time=24
pitchwheel channel=14 pitch=-1866 time=12
pitchwheel channel=14 pitch=-2029 time=24
pitchwheel channel=14 pitch=-2191 time=12
control_change channel=14 control=11 value=99 time=0
pitchwheel channel=14 pitch=-2353 time=12
note_off channel=14 note=54 velocity=64 time=12
pitchwheel channel=14 pitch=-2515 time=0
pitchwheel channel=14 pitch=-2840 time=12
control_change channel=14 control=11 value=96 time=12
control_change channel=14 control=11 value=127 time=24
pitchwheel channel=14 pitch=0 time=0
note_on channel=14 note=55 velocity=75 time=1280
note_off channel=14 note=55 velocity=64 time=604
note_on channel=14 note=58 velocity=75 time=36
note_off channel=14 note=58 velocity=64 time=180
note_on channel=14 note=58 velocity=75 time=300
note_off channel=14 note=58 velocity=64 time=296
note_on channel=14 note=58 velocity=75 time=24
note_off channel=14 note=58 velocity=64 time=136
note_on channel=14 note=58 velocity=75 time=344
note_off channel=14 note=58 velocity=64 time=180
note_on channel=14 note=58 velocity=69 time=300
note_off channel=14 note=58 velocity=64 time=148
note_on channel=14 note=55 velocity=75 time=12
note_off channel=14 note=55 velocity=64 time=456
note_on channel=14 note=55 velocity=75 time=24
note_off channel=14 note=55 velocity=64 time=156
note_on channel=14 note=60 velocity=81 time=804
note_off channel=14 note=60 velocity=64 time=912
note_on channel=14 note=60 velocity=75 time=48
note_off channel=14 note=60 velocity=64 time=180
control_change channel=14 control=11 value=104 time=300
note_on channel=14 note=58 velocity=81 time=0
control_change channel=14 control=11 value=106 time=108
control_change channel=14 control=11 value=109 time=108
note_off channel=14 note=58 velocity=64 time=92
note_on channel=14 note=58 velocity=81 time=12
control_change channel=14 control=11 value=111 time=4
control_change channel=14 control=11 value=114 time=108
control_change channel=14 control=11 value=116 time=108
control_change channel=14 control=11 value=119 time=108
control_change channel=14 control=11 value=121 time=108
control_change channel=14 control=11 value=124 time=108
note_off channel=14 note=58 velocity=64 time=60
control_change channel=14 control=11 value=127 time=36
control_change channel=14 control=11 value=127 time=0
note_on channel=14 note=57 velocity=81 time=0
control_change channel=14 control=11 value=124 time=84
control_change channel=14 control=11 value=121 time=84
control_change channel=14 control=11 value=119 time=108
note_off channel=14 note=57 velocity=64 time=32
note_on channel=14 note=54 velocity=81 time=12
control_change channel=14 control=11 value=116 time=4
control_change channel=14 control=11 value=114 time=108
control_change channel=14 control=11 value=111 time=48
control_change channel=14 control=11 value=109 time=108
control_change channel=14 control=11 value=106 time=60
control_change channel=14 control=11 value=104 time=108
control_change channel=14 control=11 value=101 time=48
note_off channel=14 note=54 velocity=64 time=108
control_change channel=14 control=11 value=127 time=72
note_on channel=14 note=43 velocity=56 time=1736
control_change channel=14 control=11 value=127 time=232
control_change channel=14 control=11 value=121 time=24
control_change channel=14 control=11 value=115 time=24
control_change channel=14 control=11 value=109 time=24
control_change channel=14 control=11 value=103 time=24
control_change channel=14 control=11 value=96 time=24
control_change channel=14 control=11 value=90 time=24
control_change channel=14 control=11 value=84 time=24
control_change channel=14 control=11 value=84 time=24
control_change channel=14 control=11 value=86 time=120
control_change channel=14 control=11 value=89 time=48
control_change channel=14 control=11 value=93 time=120
control_change channel=14 control=11 value=95 time=120
control_change channel=14 control=11 value=98 time=48
control_change channel=14 control=11 value=101 time=120
control_change channel=14 control=11 value=104 time=96
control_change channel=14 control=11 value=108 time=120
control_change channel=14 control=11 value=111 time=120
control_change channel=14 control=11 value=114 time=72
control_change channel=14 control=11 value=116 time=120
control_change channel=14 control=11 value=119 time=48
control_change channel=14 control=11 value=123 time=120
control_change channel=14 control=11 value=127 time=120
note_off channel=14 note=43 velocity=64 time=80
note_on channel=14 note=48 velocity=56 time=24
note_off channel=14 note=48 velocity=64 time=136
note_on channel=14 note=45 velocity=56 time=1784
control_change channel=14 control=11 value=127 time=232
control_change channel=14 control=11 value=121 time=24
control_change channel=14 control=11 value=115 time=24
control_change channel=14 control=11 value=109 time=24
control_change channel=14 control=11 value=103 time=24
control_change channel=14 control=11 value=96 time=24
control_change channel=14 control=11 value=90 time=24
control_change channel=14 control=11 value=84 time=24
control_change channel=14 control=11 value=84 time=24
control_change channel=14 control=11 value=86 time=120
control_change channel=14 control=11 value=89 time=48
control_change channel=14 control=11 value=93 time=120
control_change channel=14 control=11 value=95 time=120
control_change channel=14 control=11 value=98 time=48
control_change channel=14 control=11 value=101 time=120
control_change channel=14 control=11 value=104 time=96
control_change channel=14 control=11 value=108 time=120
control_change channel=14 control=11 value=111 time=120
control_change channel=14 control=11 value=114 time=72
control_change channel=14 control=11 value=116 time=120
control_change channel=14 control=11 value=119 time=48
control_change channel=14 control=11 value=123 time=120
control_change channel=14 control=11 value=127 time=120
note_off channel=14 note=45 velocity=64 time=80
note_on channel=14 note=50 velocity=56 time=24
note_off channel=14 note=50 velocity=64 time=136
note_on channel=14 note=43 velocity=56 time=1784
control_change channel=14 control=11 value=127 time=232
control_change channel=14 control=11 value=121 time=24
control_change channel=14 control=11 value=115 time=24
control_change channel=14 control=11 value=109 time=24
control_change channel=14 control=11 value=103 time=24
control_change channel=14 control=11 value=96 time=24
control_change channel=14 control=11 value=90 time=24
control_change channel=14 control=11 value=84 time=24
control_change channel=14 control=11 value=84 time=24
control_change channel=14 control=11 value=86 time=120
control_change channel=14 control=11 value=89 time=48
control_change channel=14 control=11 value=93 time=120
control_change channel=14 control=11 value=95 time=120
control_change channel=14 control=11 value=98 time=48
control_change channel=14 control=11 value=101 time=120
control_change channel=14 control=11 value=104 time=96
control_change channel=14 control=11 value=108 time=120
control_change channel=14 control=11 value=111 time=120
control_change channel=14 control=11 value=114 time=72
control_change channel=14 control=11 value=116 time=120
control_change channel=14 control=11 value=119 time=48
control_change channel=14 control=11 value=123 time=120
control_change channel=14 control=11 value=127 time=120
note_off channel=14 note=43 velocity=64 time=80
note_on channel=14 note=55 velocity=75 time=4344
note_off channel=14 note=55 velocity=64 time=168
note_on channel=14 note=57 velocity=75 time=312
note_off channel=14 note=57 velocity=64 time=136
note_on channel=14 note=58 velocity=75 time=24
note_off channel=14 note=58 velocity=64 time=168
note_on channel=14 note=58 velocity=75 time=312
note_off channel=14 note=58 velocity=64 time=168
control_change channel=14 control=93 value=30 time=312
note_on channel=14 note=58 velocity=75 time=0
note_off channel=14 note=58 velocity=64 time=444
note_on channel=14 note=58 velocity=75 time=36
note_off channel=14 note=58 velocity=64 time=296
note_on channel=14 note=58 velocity=75 time=24
note_off channel=14 note=58 velocity=64 time=136
note_on channel=14 note=53 velocity=75 time=824
note_off channel=14 note=53 velocity=64 time=604
note_on channel=14 note=57 velocity=75 time=36
note_off channel=14 note=57 velocity=64 time=296
note_on channel=14 note=53 velocity=64 time=24
note_off channel=14 note=53 velocity=64 time=136
note_on channel=14 note=60 velocity=75 time=24
note_off channel=14 note=60 velocity=64 time=284
note_on channel=14 note=60 velocity=75 time=36
note_off channel=14 note=60 velocity=64 time=168
note_on channel=14 note=60 velocity=75 time=312
note_off channel=14 note=60 velocity=64 time=604
note_on channel=14 note=60 velocity=75 time=36
note_off channel=14 note=60 velocity=64 time=296
note_on channel=14 note=60 velocity=75 time=24
note_off channel=14 note=60 velocity=64 time=124
note_on channel=14 note=53 velocity=75 time=1316
note_off channel=14 note=53 velocity=64 time=568
note_on channel=14 note=53 velocity=75 time=72
note_off channel=14 note=53 velocity=64 time=156
note_on channel=14 note=53 velocity=75 time=324
note_off channel=14 note=53 velocity=64 time=156
note_on channel=14 note=52 velocity=75 time=324
note_off channel=14 note=52 velocity=64 time=782
note_on channel=14 note=58 velocity=75 time=18
note_off channel=14 note=58 velocity=64 time=1060
note_on channel=14 note=57 velocity=69 time=380
note_off channel=14 note=57 velocity=64 time=1576
note_on channel=14 note=54 velocity=69 time=24
note_off channel=14 note=54 velocity=64 time=1838
note_on channel=14 note=59 velocity=40 time=6642
control_change channel=14 control=11 value=127 time=1120
control_change channel=14 control=11 value=125 time=120
control_change channel=14 control=11 value=124 time=120
control_change channel=14 control=11 value=123 time=120
control_change channel=14 control=11 value=121 time=120
control_change channel=14 control=11 value=120 time=120
control_change channel=14 control=11 value=119 time=120
control_change channel=14 control=11 value=118 time=120
control_change channel=14 control=11 value=116 time=120
control_change channel=14 control=11 value=115 time=120
control_change channel=14 control=11 value=114 time=120
control_change channel=14 control=11 value=113 time=120
control_change channel=14 control=11 value=111 time=120
control_change channel=14 control=11 value=110 time=120
control_change channel=14 control=11 value=109 time=120
control_change channel=14 control=11 value=108 time=120
control_change channel=14 control=11 value=106 time=120
control_change channel=14 control=11 value=105 time=120
control_change channel=14 control=11 value=104 time=120
control_change channel=14 control=11 value=103 time=120
control_change channel=14 control=11 value=101 time=120
control_change channel=14 control=11 value=100 time=120
control_change channel=14 control=11 value=99 time=120
control_change channel=14 control=11 value=98 time=120
note_off channel=14 note=59 velocity=64 time=96
<meta message end_of_track time=0>
<meta message text text='Trombone 4' time=0>
control_change channel=15 control=11 value=127 time=0
control_change channel=15 control=7 value=106 time=0
control_change channel=15 control=10 value=99 time=0
control_change channel=15 control=91 value=81 time=0
control_change channel=15 control=93 value=25 time=0
control_change channel=15 control=0 value=56 time=0
control_change channel=15 control=32 value=0 time=0
program_change channel=15 program=57 time=0
control_change channel=15 control=11 value=109 time=9944
note_on channel=15 note=48 velocity=60 time=0
control_change channel=15 control=11 value=110 time=250
control_change channel=15 control=11 value=111 time=250
control_change channel=15 control=11 value=113 time=250
control_change channel=15 control=11 value=114 time=250
control_change channel=15 control=11 value=115 time=240
control_change channel=15 control=11 value=116 time=250
note_off channel=15 note=48 velocity=64 time=74
note_on channel=15 note=45 velocity=62 time=60
control_change channel=15 control=11 value=118 time=116
control_change channel=15 control=11 value=119 time=250
control_change channel=15 control=11 value=120 time=250
control_change channel=15 control=11 value=121 time=240
control_change channel=15 control=11 value=123 time=250
control_change channel=15 control=11 value=124 time=250
control_change channel=15 control=11 value=125 time=250
control_change channel=15 control=11 value=127 time=240
note_off channel=15 note=45 velocity=64 time=38
note_on channel=15 note=43 velocity=75 time=308
note_off channel=15 note=43 velocity=64 time=580
note_on channel=15 note=43 velocity=77 time=60
note_off channel=15 note=43 velocity=64 time=168
note_on channel=15 note=43 velocity=79 time=312
note_off channel=15 note=43 velocity=64 time=168
note_on channel=15 note=48 velocity=81 time=312
note_off channel=15 note=48 velocity=64 time=764
note_on channel=15 note=48 velocity=84 time=36
note_off channel=15 note=48 velocity=64 time=592
note_on channel=15 note=48 velocity=86 time=48
note_off channel=15 note=48 velocity=64 time=272
note_on channel=15 note=53 velocity=86 time=48
note_off channel=15 note=53 velocity=64 time=124
note_on channel=15 note=46 velocity=45 time=19556
note_off channel=15 note=46 velocity=64 time=124
note_on channel=15 note=52 velocity=50 time=36
note_off channel=15 note=52 velocity=64 time=132
note_on channel=15 note=54 velocity=45 time=348
note_off channel=15 note=54 velocity=64 time=294
control_change channel=15 control=11 value=109 time=26
note_on channel=15 note=55 velocity=52 time=0
control_change channel=15 control=11 value=110 time=100
control_change channel=15 control=11 value=111 time=100
control_change channel=15 control=11 value=113 time=100
control_change channel=15 control=11 value=114 time=100
control_change channel=15 control=11 value=115 time=100
control_change channel=15 control=11 value=116 time=100
note_off channel=15 note=55 velocity=64 time=12
note_on channel=15 note=57 velocity=50 time=28
control_change channel=15 control=11 value=118 time=60
control_change channel=15 control=11 value=119 time=100
control_change channel=15 control=11 value=120 time=100
control_change channel=15 control=11 value=121 time=100
control_change channel=15 control=11 value=123 time=100
control_change channel=15 control=11 value=124 time=100
control_change channel=15 control=11 value=125 time=100
control_change channel=15 control=11 value=127 time=60
note_off channel=15 note=57 velocity=64 time=32
note_on channel=15 note=52 velocity=55 time=48
note_off channel=15 note=52 velocity=64 time=112
note_on channel=15 note=52 velocity=50 time=368
note_off channel=15 note=52 velocity=64 time=144
note_on channel=15 note=52 velocity=45 time=336
note_off channel=15 note=52 velocity=64 time=136
note_on channel=15 note=45 velocity=50 time=24
note_off channel=15 note=45 velocity=64 time=284
note_on channel=15 note=45 velocity=45 time=36
note_off channel=15 note=45 velocity=64 time=136
note_on channel=15 note=45 velocity=50 time=24
note_off channel=15 note=45 velocity=64 time=120
note_on channel=15 note=45 velocity=50 time=360
note_off channel=15 note=45 velocity=64 time=284
note_on channel=15 note=45 velocity=50 time=36
note_off channel=15 note=45 velocity=64 time=120
note_on channel=15 note=50 velocity=50 time=360
control_change channel=15 control=11 value=127 time=232
control_change channel=15 control=11 value=120 time=24
control_change channel=15 control=11 value=114 time=24
control_change channel=15 control=11 value=108 time=24
control_change channel=15 control=11 value=101 time=24
control_change channel=15 control=11 value=94 time=24
control_change channel=15 control=11 value=96 time=120
control_change channel=15 control=11 value=99 time=120
control_change channel=15 control=11 value=101 time=120
control_change channel=15 control=11 value=104 time=120
control_change channel=15 control=11 value=106 time=120
control_change channel=15 control=11 value=109 time=120
control_change channel=15 control=11 value=111 time=120
control_change channel=15 control=11 value=114 time=120
control_change channel=15 control=11 value=116 time=120
control_change channel=15 control=11 value=119 time=120
control_change channel=15 control=11 value=121 time=120
control_change channel=15 control=11 value=124 time=120
control_change channel=15 control=11 value=127 time=120
note_off channel=15 note=50 velocity=64 time=120
note_on channel=15 note=43 velocity=55 time=368
note_off channel=15 note=43 velocity=64 time=124
note_on channel=15 note=43 velocity=50 time=36
note_off channel=15 note=43 velocity=64 time=120
note_on channel=15 note=43 velocity=52 time=360
note_off channel=15 note=43 velocity=64 time=284
note_on channel=15 note=43 velocity=55 time=36
note_off channel=15 note=43 velocity=64 time=108
note_on channel=15 note=48 velocity=60 time=372
note_off channel=15 note=48 velocity=64 time=592
note_on channel=15 note=48 velocity=55 time=48
note_off channel=15 note=48 velocity=64 time=296
note_on channel=15 note=48 velocity=45 time=24
note_off channel=15 note=48 velocity=64 time=134
note_on channel=15 note=46 velocity=50 time=26
note_off channel=15 note=46 velocity=64 time=284
note_on channel=15 note=46 velocity=50 time=36
note_off channel=15 note=46 velocity=64 time=120
note_on channel=15 note=45 velocity=50 time=360
control_change channel=15 control=11 value=127 time=232
control_change channel=15 control=11 value=120 time=24
control_change channel=15 control=11 value=114 time=24
control_change channel=15 control=11 value=108 time=24
control_change channel=15 control=11 value=101 time=24
control_change channel=15 control=11 value=95 time=24
control_change channel=15 control=11 value=95 time=0
control_change channel=15 control=11 value=96 time=120
control_change channel=15 control=11 value=98 time=120
control_change channel=15 control=11 value=99 time=120
control_change channel=15 control=11 value=100 time=120
control_change channel=15 control=11 value=101 time=120
control_change channel=15 control=11 value=103 time=120
control_change channel=15 control=11 value=104 time=120
control_change channel=15 control=11 value=105 time=120
control_change channel=15 control=11 value=106 time=120
control_change channel=15 control=11 value=108 time=120
control_change channel=15 control=11 value=109 time=120
control_change channel=15 control=11 value=110 time=120
control_change channel=15 control=11 value=111 time=120
control_change channel=15 control=11 value=113 time=120
note_off channel=15 note=45 velocity=64 time=32
note_on channel=15 note=38 velocity=45 time=16
control_change channel=15 control=11 value=114 time=72
control_change channel=15 control=11 value=115 time=120
control_change channel=15 control=11 value=116 time=120
control_change channel=15 control=11 value=118 time=120
control_change channel=15 control=11 value=119 time=120
control_change channel=15 control=11 value=120 time=120
control_change channel=15 control=11 value=121 time=120
control_change channel=15 control=11 value=123 time=120
control_change channel=15 control=11 value=124 time=120
control_change channel=15 control=11 value=125 time=120
control_change channel=15 control=11 value=127 time=48
note_off channel=15 note=38 velocity=64 time=180
note_on channel=15 note=38 velocity=55 time=60
note_off channel=15 note=38 velocity=64 time=284
note_on channel=15 note=43 velocity=55 time=36
note_off channel=15 note=43 velocity=64 time=112
note_on channel=15 note=36 velocity=45 time=1808
control_change channel=15 control=11 value=127 time=232
control_change channel=15 control=11 value=121 time=24
control_change channel=15 control=11 value=115 time=24
control_change channel=15 control=11 value=109 time=24
control_change channel=15 control=11 value=103 time=24
control_change channel=15 control=11 value=96 time=24
control_change channel=15 control=11 value=90 time=24
control_change channel=15 control=11 value=84 time=24
control_change channel=15 control=11 value=84 time=24
control_change channel=15 control=11 value=86 time=120
control_change channel=15 control=11 value=89 time=48
control_change channel=15 control=11 value=93 time=120
control_change channel=15 control=11 value=95 time=120
control_change channel=15 control=11 value=98 time=48
control_change channel=15 control=11 value=101 time=120
control_change channel=15 control=11 value=104 time=96
control_change channel=15 control=11 value=108 time=120
control_change channel=15 control=11 value=111 time=120
control_change channel=15 control=11 value=114 time=72
control_change channel=15 control=11 value=116 time=120
control_change channel=15 control=11 value=119 time=48
control_change channel=15 control=11 value=123 time=120
control_change channel=15 control=11 value=127 time=120
note_off channel=15 note=36 velocity=64 time=80
note_on channel=15 note=41 velocity=56 time=24
note_off channel=15 note=41 velocity=64 time=136
note_on channel=15 note=38 velocity=56 time=1784
control_change channel=15 control=11 value=127 time=232
control_change channel=15 control=11 value=121 time=24
control_change channel=15 control=11 value=115 time=24
control_change channel=15 control=11 value=109 time=24
control_change channel=15 control=11 value=103 time=24
control_change channel=15 control=11 value=96 time=24
control_change channel=15 control=11 value=90 time=24
control_change channel=15 control=11 value=84 time=24
control_change channel=15 control=11 value=84 time=24
control_change channel=15 control=11 value=86 time=120
control_change channel=15 control=11 value=89 time=48
control_change channel=15 control=11 value=93 time=120
control_change channel=15 control=11 value=95 time=120
control_change channel=15 control=11 value=98 time=48
control_change channel=15 control=11 value=101 time=120
control_change channel=15 control=11 value=104 time=96
control_change channel=15 control=11 value=108 time=120
control_change channel=15 control=11 value=111 time=120
control_change channel=15 control=11 value=114 time=72
control_change channel=15 control=11 value=116 time=120
control_change channel=15 control=11 value=119 time=48
control_change channel=15 control=11 value=123 time=120
control_change channel=15 control=11 value=127 time=120
note_off channel=15 note=38 velocity=64 time=80
note_on channel=15 note=43 velocity=56 time=24
note_off channel=15 note=43 velocity=64 time=136
note_on channel=15 note=36 velocity=56 time=1784
control_change channel=15 control=11 value=127 time=232
control_change channel=15 control=11 value=121 time=24
control_change channel=15 control=11 value=115 time=24
control_change channel=15 control=11 value=109 time=24
control_change channel=15 control=11 value=103 time=24
control_change channel=15 control=11 value=96 time=24
control_change channel=15 control=11 value=90 time=24
control_change channel=15 control=11 value=84 time=24
control_change channel=15 control=11 value=84 time=24
control_change channel=15 control=11 value=86 time=120
control_change channel=15 control=11 value=89 time=48
control_change channel=15 control=11 value=93 time=120
control_change channel=15 control=11 value=95 time=120
control_change channel=15 control=11 value=98 time=48
control_change channel=15 control=11 value=101 time=120
control_change channel=15 control=11 value=104 time=96
control_change channel=15 control=11 value=108 time=120
control_change channel=15 control=11 value=111 time=120
control_change channel=15 control=11 value=114 time=72
control_change channel=15 control=11 value=116 time=120
control_change channel=15 control=11 value=119 time=48
control_change channel=15 control=11 value=123 time=120
control_change channel=15 control=11 value=127 time=120
note_off channel=15 note=36 velocity=64 time=80
note_on channel=15 note=50 velocity=69 time=504
note_off channel=15 note=50 velocity=64 time=580
note_on channel=15 note=48 velocity=69 time=60
note_off channel=15 note=48 velocity=64 time=144
note_on channel=15 note=43 velocity=69 time=336
note_off channel=15 note=43 velocity=64 time=144
note_on channel=15 note=47 velocity=69 time=336
note_off channel=15 note=47 velocity=64 time=444
note_on channel=15 note=48 velocity=69 time=36
note_off channel=15 note=48 velocity=64 time=284
note_on channel=15 note=50 velocity=69 time=36
note_off channel=15 note=50 velocity=64 time=124
note_on channel=15 note=48 velocity=69 time=380
note_off channel=15 note=48 velocity=64 time=556
note_on channel=15 note=46 velocity=56 time=380
note_off channel=15 note=46 velocity=64 time=136
note_on channel=15 note=52 velocity=62 time=24
note_off channel=15 note=52 velocity=64 time=144
note_on channel=15 note=53 velocity=69 time=336
note_off channel=15 note=53 velocity=64 time=296
note_on channel=15 note=55 velocity=56 time=24
note_off channel=15 note=55 velocity=64 time=136
note_on channel=15 note=58 velocity=67 time=24
note_off channel=15 note=58 velocity=64 time=296
note_on channel=15 note=58 velocity=81 time=24
note_off channel=15 note=58 velocity=64 time=604
note_on channel=15 note=58 velocity=65 time=36
note_off channel=15 note=58 velocity=64 time=308
note_on channel=15 note=55 velocity=69 time=12
control_change channel=15 control=11 value=127 time=16
control_change channel=15 control=11 value=125 time=120
control_change channel=15 control=11 value=123 time=120
control_change channel=15 control=11 value=121 time=120
control_change channel=15 control=11 value=119 time=120
control_change channel=15 control=11 value=118 time=120
control_change channel=15 control=11 value=115 time=96
control_change channel=15 control=11 value=114 time=120
control_change channel=15 control=11 value=111 time=120
note_off channel=15 note=55 velocity=64 time=120
control_change channel=15 control=11 value=110 time=0
control_change channel=15 control=11 value=109 time=24
control_change channel=15 control=11 value=127 time=24
note_on channel=15 note=48 velocity=56 time=320
note_off channel=15 note=48 velocity=64 time=136
note_on channel=15 note=47 velocity=64 time=24
note_off channel=15 note=47 velocity=64 time=144
note_on channel=15 note=46 velocity=69 time=336
note_off channel=15 note=46 velocity=64 time=296
note_on channel=15 note=46 velocity=56 time=24
note_off channel=15 note=46 velocity=64 time=136
note_on channel=15 note=50 velocity=66 time=24
note_off channel=15 note=50 velocity=64 time=296
note_on channel=15 note=45 velocity=75 time=24
note_off channel=15 note=45 velocity=64 time=604
note_on channel=15 note=45 velocity=64 time=36
note_off channel=15 note=45 velocity=64 time=308
note_on channel=15 note=50 velocity=69 time=12
control_change channel=15 control=11 value=127 time=16
control_change channel=15 control=11 value=125 time=120
control_change channel=15 control=11 value=123 time=120
control_change channel=15 control=11 value=121 time=120
control_change channel=15 control=11 value=119 time=120
control_change channel=15 control=11 value=118 time=120
control_change channel=15 control=11 value=115 time=96
control_change channel=15 control=11 value=114 time=120
control_change channel=15 control=11 value=111 time=120
note_off channel=15 note=50 velocity=64 time=120
control_change channel=15 control=11 value=110 time=0
control_change channel=15 control=11 value=109 time=24
control_change channel=15 control=11 value=127 time=24
note_on channel=15 note=36 velocity=56 time=1760
control_change channel=15 control=11 value=127 time=232
control_change channel=15 control=11 value=121 time=24
control_change channel=15 control=11 value=115 time=24
control_change channel=15 control=11 value=109 time=24
control_change channel=15 control=11 value=103 time=24
control_change channel=15 control=11 value=96 time=24
control_change channel=15 control=11 value=90 time=24
control_change channel=15 control=11 value=84 time=24
control_change channel=15 control=11 value=88 time=96
control_change channel=15 control=11 value=91 time=96
control_change channel=15 control=11 value=94 time=72
control_change channel=15 control=11 value=98 time=96
control_change channel=15 control=11 value=101 time=96
control_change channel=15 control=11 value=104 time=48
control_change channel=15 control=11 value=108 time=96
control_change channel=15 control=11 value=111 time=96
control_change channel=15 control=11 value=114 time=72
control_change channel=15 control=11 value=118 time=72
control_change channel=15 control=11 value=121 time=96
control_change channel=15 control=11 value=124 time=72
control_change channel=15 control=11 value=127 time=48
note_off channel=15 note=36 velocity=64 time=104
note_on channel=15 note=36 velocity=56 time=40
note_off channel=15 note=36 velocity=64 time=296
note_on channel=15 note=41 velocity=56 time=24
note_off channel=15 note=41 velocity=64 time=136
note_on channel=15 note=44 velocity=62 time=3224
note_off channel=15 note=44 velocity=64 time=580
note_on channel=15 note=43 velocity=62 time=60
note_off channel=15 note=43 velocity=64 time=144
note_on channel=15 note=43 velocity=62 time=336
note_off channel=15 note=43 velocity=64 time=296
note_on channel=15 note=43 velocity=62 time=24
note_off channel=15 note=43 velocity=64 time=136
note_on channel=15 note=43 velocity=56 time=24
note_off channel=15 note=43 velocity=64 time=56
note_on channel=15 note=43 velocity=62 time=24
note_off channel=15 note=43 velocity=64 time=68
note_on channel=15 note=49 velocity=62 time=332
note_off channel=15 note=49 velocity=64 time=308
control_change channel=15 control=11 value=104 time=12
note_on channel=15 note=48 velocity=69 time=0
control_change channel=15 control=11 value=105 time=100
control_change channel=15 control=11 value=108 time=80
control_change channel=15 control=11 value=109 time=100
control_change channel=15 control=11 value=111 time=100
control_change channel=15 control=11 value=114 time=90
control_change channel=15 control=11 value=115 time=100
control_change channel=15 control=11 value=118 time=70
control_change channel=15 control=11 value=119 time=100
control_change channel=15 control=11 value=121 time=100
control_change channel=15 control=11 value=124 time=90
control_change channel=15 control=11 value=125 time=100
control_change channel=15 control=11 value=127 time=10
note_off channel=15 note=48 velocity=64 time=80
note_on channel=15 note=42 velocity=69 time=320
note_on channel=15 note=41 velocity=40 time=112
note_on channel=15 note=40 velocity=28 time=40
note_off channel=15 note=42 velocity=64 time=4
note_off channel=15 note=41 velocity=64 time=8
note_on channel=15 note=39 velocity=17 time=28
note_off channel=15 note=40 velocity=64 time=12
note_off channel=15 note=39 velocity=64 time=40
note_on channel=15 note=41 velocity=69 time=236
note_off channel=15 note=41 velocity=64 time=592
note_on channel=15 note=41 velocity=62 time=48
note_off channel=15 note=41 velocity=64 time=296
note_on channel=15 note=41 velocity=50 time=24
note_off channel=15 note=41 velocity=64 time=136
note_on channel=15 note=45 velocity=62 time=24
note_off channel=15 note=45 velocity=64 time=284
note_on channel=15 note=39 velocity=62 time=36
note_off channel=15 note=39 velocity=64 time=156
note_on channel=15 note=38 velocity=62 time=324
note_off channel=15 note=38 velocity=64 time=2020
note_on channel=15 note=43 velocity=69 time=380
note_on channel=15 note=42 velocity=30 time=112
note_on channel=15 note=41 velocity=20 time=40
note_off channel=15 note=43 velocity=64 time=4
note_off channel=15 note=42 velocity=64 time=8
note_off channel=15 note=41 velocity=64 time=40
note_on channel=15 note=43 velocity=69 time=276
note_off channel=15 note=43 velocity=64 time=580
note_on channel=15 note=43 velocity=69 time=60
note_off channel=15 note=43 velocity=64 time=168
note_on channel=15 note=48 velocity=69 time=632
note_on channel=15 note=47 velocity=32 time=112
note_on channel=15 note=46 velocity=23 time=40
note_off channel=15 note=48 velocity=64 time=4
note_off channel=15 note=47 velocity=64 time=8
note_off channel=15 note=46 velocity=64 time=40
note_on channel=15 note=48 velocity=69 time=276
note_off channel=15 note=48 velocity=64 time=580
note_on channel=15 note=48 velocity=69 time=60
note_off channel=15 note=48 velocity=64 time=168
note_on channel=15 note=48 velocity=62 time=632
note_off channel=15 note=48 velocity=64 time=444
note_on channel=15 note=48 velocity=65 time=36
note_off channel=15 note=48 velocity=64 time=444
note_on channel=15 note=51 velocity=69 time=36
note_off channel=15 note=51 velocity=64 time=444
note_on channel=15 note=48 velocity=61 time=36
note_off channel=15 note=48 velocity=64 time=136
note_on channel=15 note=51 velocity=72 time=24
note_off channel=15 note=51 velocity=64 time=148
note_on channel=15 note=48 velocity=60 time=12
note_off channel=15 note=48 velocity=64 time=148
note_on channel=15 note=53 velocity=74 time=12
note_off channel=15 note=53 velocity=64 time=924
note_on channel=15 note=41 velocity=69 time=36
note_off channel=15 note=41 velocity=64 time=604
note_on channel=15 note=46 velocity=62 time=36
note_off channel=15 note=46 velocity=64 time=284
note_on channel=15 note=46 velocity=65 time=36
note_off channel=15 note=46 velocity=64 time=124
note_on channel=15 note=48 velocity=81 time=12516
note_off channel=15 note=48 velocity=64 time=168
note_on channel=15 note=51 velocity=64 time=312
note_off channel=15 note=51 velocity=64 time=308
control_change channel=15 control=11 value=109 time=12
note_on channel=15 note=50 velocity=75 time=0
control_change channel=15 control=11 value=110 time=120
control_change channel=15 control=11 value=111 time=110
control_change channel=15 control=11 value=113 time=110
control_change channel=15 control=11 value=114 time=110
control_change channel=15 control=11 value=115 time=110
control_change channel=15 control=11 value=116 time=110
control_change channel=15 control=11 value=118 time=110
control_change channel=15 control=11 value=119 time=120
control_change channel=15 control=11 value=120 time=110
control_change channel=15 control=11 value=121 time=110
control_change channel=15 control=11 value=123 time=110
control_change channel=15 control=11 value=124 time=110
control_change channel=15 control=11 value=125 time=110
note_off channel=15 note=50 velocity=64 time=102
control_change channel=15 control=11 value=127 time=8
note_on channel=15 note=57 velocity=75 time=360
note_off channel=15 note=57 velocity=64 time=604
note_on channel=15 note=53 velocity=75 time=36
note_off channel=15 note=53 velocity=64 time=296
note_on channel=15 note=53 velocity=75 time=24
note_off channel=15 note=53 velocity=64 time=136
note_on channel=15 note=52 velocity=75 time=824
note_off channel=15 note=52 velocity=64 time=604
note_on channel=15 note=48 velocity=75 time=36
note_off channel=15 note=48 velocity=64 time=296
note_on channel=15 note=48 velocity=75 time=24
note_off channel=15 note=48 velocity=64 time=136
note_on channel=15 note=57 velocity=75 time=824
note_off channel=15 note=57 velocity=64 time=604
note_on channel=15 note=53 velocity=75 time=36
note_off channel=15 note=53 velocity=64 time=296
note_on channel=15 note=53 velocity=75 time=24
note_off channel=15 note=53 velocity=64 time=136
note_on channel=15 note=54 velocity=75 time=824
note_off channel=15 note=54 velocity=64 time=604
note_on channel=15 note=50 velocity=75 time=36
note_off channel=15 note=50 velocity=64 time=296
note_on channel=15 note=50 velocity=75 time=24
note_off channel=15 note=50 velocity=64 time=136
note_on channel=15 note=57 velocity=75 time=824
note_off channel=15 note=57 velocity=64 time=580
note_on channel=15 note=57 velocity=75 time=60
note_off channel=15 note=57 velocity=64 time=168
note_on channel=15 note=57 velocity=75 time=312
note_off channel=15 note=57 velocity=64 time=168
note_on channel=15 note=57 velocity=75 time=312
note_off channel=15 note=57 velocity=64 time=296
note_on channel=15 note=60 velocity=62 time=24
note_off channel=15 note=60 velocity=64 time=148
note_on channel=15 note=57 velocity=75 time=12
note_off channel=15 note=57 velocity=64 time=311
note_on channel=15 note=57 velocity=75 time=9
control_change channel=15 control=11 value=127 time=16
control_change channel=15 control=11 value=124 time=96
control_change channel=15 control=11 value=121 time=96
control_change channel=15 control=11 value=119 time=120
control_change channel=15 control=11 value=116 time=48
control_change channel=15 control=11 value=114 time=120
control_change channel=15 control=11 value=111 time=72
control_change channel=15 control=11 value=109 time=120
control_change channel=15 control=11 value=106 time=48
control_change channel=15 control=11 value=104 time=120
control_change channel=15 control=11 value=101 time=72
control_change channel=15 control=11 value=99 time=120
note_off channel=15 note=57 velocity=64 time=24
control_change channel=15 control=11 value=96 time=24
control_change channel=15 control=11 value=127 time=0
control_change channel=15 control=11 value=127 time=24
note_on channel=15 note=55 velocity=75 time=320
note_on channel=15 note=54 velocity=30 time=112
note_on channel=15 note=53 velocity=20 time=40
note_off channel=15 note=55 velocity=64 time=8
note_off channel=15 note=54 velocity=64 time=4
note_off channel=15 note=53 velocity=64 time=40
note_on channel=15 note=55 velocity=75 time=436
note_off channel=15 note=55 velocity=64 time=168
note_on channel=15 note=55 velocity=75 time=312
note_off channel=15 note=55 velocity=64 time=168
note_on channel=15 note=57 velocity=75 time=792
note_off channel=15 note=57 velocity=64 time=296
note_on channel=15 note=57 velocity=75 time=24
note_off channel=15 note=57 velocity=64 time=192
note_on channel=15 note=53 velocity=62 time=288
note_off channel=15 note=53 velocity=64 time=148
note_on channel=15 note=57 velocity=75 time=12
note_off channel=15 note=57 velocity=64 time=308
note_on channel=15 note=57 velocity=69 time=12
note_off channel=15 note=57 velocity=64 time=136
note_on channel=15 note=57 velocity=75 time=24
note_off channel=15 note=57 velocity=64 time=296
note_on channel=15 note=53 velocity=75 time=24
note_off channel=15 note=53 velocity=64 time=136
note_on channel=15 note=53 velocity=75 time=1944
note_off channel=15 note=53 velocity=64 time=168
note_on channel=15 note=52 velocity=75 time=312
note_off channel=15 note=52 velocity=64 time=296
note_on channel=15 note=52 velocity=75 time=24
note_off channel=15 note=52 velocity=64 time=180
note_on channel=15 note=57 velocity=75 time=300
note_on channel=15 note=59 velocity=54 time=1440
note_off channel=15 note=57 velocity=64 time=16
note_on channel=15 note=58 velocity=62 time=64
note_off channel=15 note=59 velocity=64 time=24
note_on channel=15 note=57 velocity=74 time=56
note_off channel=15 note=58 velocity=64 time=24
note_off channel=15 note=57 velocity=64 time=284
note_on channel=15 note=50 velocity=75 time=12
pitchwheel channel=15 pitch=0 time=160
control_change channel=15 control=11 value=127 time=0
pitchwheel channel=15 pitch=242 time=12
control_change channel=15 control=11 value=124 time=72
control_change channel=15 control=11 value=121 time=72
pitchwheel channel=15 pitch=0 time=48
control_change channel=15 control=11 value=119 time=60
control_change channel=15 control=11 value=116 time=48
pitchwheel channel=15 pitch=-82 time=36
control_change channel=15 control=11 value=114 time=72
pitchwheel channel=15 pitch=-244 time=24
control_change channel=15 control=11 value=111 time=24
pitchwheel channel=15 pitch=-407 time=48
pitchwheel channel=15 pitch=-569 time=60
control_change channel=15 control=11 value=109 time=0
control_change channel=15 control=11 value=106 time=48
pitchwheel channel=15 pitch=-731 time=12
pitchwheel channel=15 pitch=-893 time=36
pitchwheel channel=15 pitch=-1055 time=48
control_change channel=15 control=11 value=104 time=12
pitchwheel channel=15 pitch=-1218 time=24
pitchwheel channel=15 pitch=-1380 time=24
control_change channel=15 control=11 value=101 time=0
pitchwheel channel=15 pitch=-1542 time=36
pitchwheel channel=15 pitch=-1704 time=24
pitchwheel channel=15 pitch=-1866 time=12
pitchwheel channel=15 pitch=-2029 time=24
pitchwheel channel=15 pitch=-2191 time=12
control_change channel=15 control=11 value=99 time=0
pitchwheel channel=15 pitch=-2353 time=12
note_off channel=15 note=50 velocity=64 time=12
pitchwheel channel=15 pitch=-2515 time=0
pitchwheel channel=15 pitch=-2840 time=12
control_change channel=15 control=11 value=96 time=12
control_change channel=15 control=11 value=127 time=24
pitchwheel channel=15 pitch=0 time=0
note_on channel=15 note=43 velocity=75 time=1280
note_off channel=15 note=43 velocity=64 time=604
note_on channel=15 note=43 velocity=75 time=36
note_off channel=15 note=43 velocity=64 time=180
note_on channel=15 note=43 velocity=75 time=300
note_off channel=15 note=43 velocity=64 time=296
note_on channel=15 note=48 velocity=75 time=24
note_off channel=15 note=48 velocity=64 time=136
note_on channel=15 note=48 velocity=75 time=344
note_off channel=15 note=48 velocity=64 time=180
note_on channel=15 note=55 velocity=69 time=300
note_off channel=15 note=55 velocity=64 time=148
note_on channel=15 note=48 velocity=75 time=12
note_off channel=15 note=48 velocity=64 time=456
note_on channel=15 note=46 velocity=75 time=24
note_off channel=15 note=46 velocity=64 time=156
note_on channel=15 note=57 velocity=81 time=804
note_off channel=15 note=57 velocity=64 time=912
note_on channel=15 note=57 velocity=75 time=48
note_off channel=15 note=57 velocity=64 time=180
control_change channel=15 control=11 value=104 time=300
note_on channel=15 note=55 velocity=81 time=0
control_change channel=15 control=11 value=106 time=108
control_change channel=15 control=11 value=109 time=108
note_off channel=15 note=55 velocity=64 time=92
note_on channel=15 note=55 velocity=81 time=12
control_change channel=15 control=11 value=111 time=4
control_change channel=15 control=11 value=114 time=108
control_change channel=15 control=11 value=116 time=108
control_change channel=15 control=11 value=119 time=108
control_change channel=15 control=11 value=121 time=108
control_change channel=15 control=11 value=124 time=108
note_off channel=15 note=55 velocity=64 time=60
control_change channel=15 control=11 value=127 time=36
control_change channel=15 control=11 value=127 time=0
note_on channel=15 note=54 velocity=81 time=0
control_change channel=15 control=11 value=124 time=84
control_change channel=15 control=11 value=121 time=84
control_change channel=15 control=11 value=119 time=108
note_off channel=15 note=54 velocity=64 time=32
note_on channel=15 note=44 velocity=81 time=12
control_change channel=15 control=11 value=116 time=4
control_change channel=15 control=11 value=114 time=108
control_change channel=15 control=11 value=111 time=48
control_change channel=15 control=11 value=109 time=108
control_change channel=15 control=11 value=106 time=60
control_change channel=15 control=11 value=104 time=108
control_change channel=15 control=11 value=101 time=48
note_off channel=15 note=44 velocity=64 time=108
control_change channel=15 control=11 value=127 time=72
note_on channel=15 note=36 velocity=56 time=1736
control_change channel=15 control=11 value=127 time=232
control_change channel=15 control=11 value=121 time=24
control_change channel=15 control=11 value=115 time=24
control_change channel=15 control=11 value=109 time=24
control_change channel=15 control=11 value=103 time=24
control_change channel=15 control=11 value=96 time=24
control_change channel=15 control=11 value=90 time=24
control_change channel=15 control=11 value=84 time=24
control_change channel=15 control=11 value=84 time=24
control_change channel=15 control=11 value=86 time=120
control_change channel=15 control=11 value=89 time=48
control_change channel=15 control=11 value=93 time=120
control_change channel=15 control=11 value=95 time=120
control_change channel=15 control=11 value=98 time=48
control_change channel=15 control=11 value=101 time=120
control_change channel=15 control=11 value=104 time=96
control_change channel=15 control=11 value=108 time=120
control_change channel=15 control=11 value=111 time=120
control_change channel=15 control=11 value=114 time=72
control_change channel=15 control=11 value=116 time=120
control_change channel=15 control=11 value=119 time=48
control_change channel=15 control=11 value=123 time=120
control_change channel=15 control=11 value=127 time=120
note_off channel=15 note=36 velocity=64 time=80
note_on channel=15 note=41 velocity=56 time=24
note_off channel=15 note=41 velocity=64 time=136
note_on channel=15 note=38 velocity=56 time=1784
control_change channel=15 control=11 value=127 time=232
control_change channel=15 control=11 value=121 time=24
control_change channel=15 control=11 value=115 time=24
control_change channel=15 control=11 value=109 time=24
control_change channel=15 control=11 value=103 time=24
control_change channel=15 control=11 value=96 time=24
control_change channel=15 control=11 value=90 time=24
control_change channel=15 control=11 value=84 time=24
control_change channel=15 control=11 value=84 time=24
control_change channel=15 control=11 value=86 time=120
control_change channel=15 control=11 value=89 time=48
control_change channel=15 control=11 value=93 time=120
control_change channel=15 control=11 value=95 time=120
control_change channel=15 control=11 value=98 time=48
control_change channel=15 control=11 value=101 time=120
control_change channel=15 control=11 value=104 time=96
control_change channel=15 control=11 value=108 time=120
control_change channel=15 control=11 value=111 time=120
control_change channel=15 control=11 value=114 time=72
control_change channel=15 control=11 value=116 time=120
control_change channel=15 control=11 value=119 time=48
control_change channel=15 control=11 value=123 time=120
control_change channel=15 control=11 value=127 time=120
note_off channel=15 note=38 velocity=64 time=80
note_on channel=15 note=43 velocity=56 time=24
note_off channel=15 note=43 velocity=64 time=136
note_on channel=15 note=36 velocity=56 time=1784
control_change channel=15 control=11 value=127 time=232
control_change channel=15 control=11 value=121 time=24
control_change channel=15 control=11 value=115 time=24
control_change channel=15 control=11 value=109 time=24
control_change channel=15 control=11 value=103 time=24
control_change channel=15 control=11 value=96 time=24
control_change channel=15 control=11 value=90 time=24
control_change channel=15 control=11 value=84 time=24
control_change channel=15 control=11 value=84 time=24
control_change channel=15 control=11 value=86 time=120
control_change channel=15 control=11 value=89 time=48
control_change channel=15 control=11 value=93 time=120
control_change channel=15 control=11 value=95 time=120
control_change channel=15 control=11 value=98 time=48
control_change channel=15 control=11 value=101 time=120
control_change channel=15 control=11 value=104 time=96
control_change channel=15 control=11 value=108 time=120
control_change channel=15 control=11 value=111 time=120
control_change channel=15 control=11 value=114 time=72
control_change channel=15 control=11 value=116 time=120
control_change channel=15 control=11 value=119 time=48
control_change channel=15 control=11 value=123 time=120
control_change channel=15 control=11 value=127 time=120
note_off channel=15 note=36 velocity=64 time=80
note_on channel=15 note=50 velocity=69 time=504
note_off channel=15 note=50 velocity=64 time=580
note_on channel=15 note=48 velocity=69 time=60
note_off channel=15 note=48 velocity=64 time=144
note_on channel=15 note=43 velocity=69 time=336
note_off channel=15 note=43 velocity=64 time=144
note_on channel=15 note=47 velocity=69 time=336
note_off channel=15 note=47 velocity=64 time=444
note_on channel=15 note=46 velocity=69 time=36
note_off channel=15 note=46 velocity=64 time=284
note_on channel=15 note=45 velocity=69 time=36
note_off channel=15 note=45 velocity=64 time=124
note_on channel=15 note=53 velocity=75 time=1316
note_off channel=15 note=53 velocity=64 time=168
note_on channel=15 note=55 velocity=75 time=312
note_off channel=15 note=55 velocity=64 time=136
note_on channel=15 note=55 velocity=75 time=24
note_off channel=15 note=55 velocity=64 time=168
note_on channel=15 note=55 velocity=75 time=312
note_off channel=15 note=55 velocity=64 time=168
control_change channel=15 control=93 value=30 time=312
note_on channel=15 note=56 velocity=75 time=0
note_off channel=15 note=56 velocity=64 time=444
note_on channel=15 note=56 velocity=75 time=36
note_off channel=15 note=56 velocity=64 time=296
note_on channel=15 note=55 velocity=75 time=24
note_off channel=15 note=55 velocity=64 time=136
note_on channel=15 note=50 velocity=75 time=824
note_off channel=15 note=50 velocity=64 time=604
note_on channel=15 note=53 velocity=75 time=36
note_off channel=15 note=53 velocity=64 time=296
note_on channel=15 note=50 velocity=64 time=24
note_off channel=15 note=50 velocity=64 time=136
note_on channel=15 note=57 velocity=75 time=24
note_off channel=15 note=57 velocity=64 time=284
note_on channel=15 note=57 velocity=75 time=36
note_off channel=15 note=57 velocity=64 time=168
note_on channel=15 note=57 velocity=75 time=312
note_off channel=15 note=57 velocity=64 time=604
note_on channel=15 note=57 velocity=75 time=36
note_off channel=15 note=57 velocity=64 time=296
note_on channel=15 note=58 velocity=75 time=24
note_off channel=15 note=58 velocity=64 time=124
note_on channel=15 note=43 velocity=75 time=1316
note_off channel=15 note=43 velocity=64 time=568
note_on channel=15 note=43 velocity=75 time=72
note_off channel=15 note=43 velocity=64 time=156
note_on channel=15 note=43 velocity=75 time=324
note_off channel=15 note=43 velocity=64 time=156
note_on channel=15 note=48 velocity=75 time=324
note_off channel=15 note=48 velocity=64 time=782
note_on channel=15 note=48 velocity=75 time=18
note_off channel=15 note=48 velocity=64 time=1060
note_on channel=15 note=48 velocity=69 time=380
note_off channel=15 note=48 velocity=64 time=1576
note_on channel=15 note=45 velocity=69 time=24
note_off channel=15 note=45 velocity=64 time=1838
note_on channel=15 note=41 velocity=40 time=6642
control_change channel=15 control=11 value=127 time=1120
control_change channel=15 control=11 value=125 time=120
control_change channel=15 control=11 value=124 time=120
control_change channel=15 control=11 value=123 time=120
control_change channel=15 control=11 value=121 time=120
control_change channel=15 control=11 value=120 time=120
control_change channel=15 control=11 value=119 time=120
control_change channel=15 control=11 value=118 time=120
control_change channel=15 control=11 value=116 time=120
control_change channel=15 control=11 value=115 time=120
control_change channel=15 control=11 value=114 time=120
control_change channel=15 control=11 value=113 time=120
control_change channel=15 control=11 value=111 time=120
control_change channel=15 control=11 value=110 time=120
control_change channel=15 control=11 value=109 time=120
control_change channel=15 control=11 value=108 time=120
control_change channel=15 control=11 value=106 time=120
control_change channel=15 control=11 value=105 time=120
control_change channel=15 control=11 value=104 time=120
control_change channel=15 control=11 value=103 time=120
control_change channel=15 control=11 value=101 time=120
control_change channel=15 control=11 value=100 time=120
control_change channel=15 control=11 value=99 time=120
control_change channel=15 control=11 value=98 time=120
note_off channel=15 note=41 velocity=64 time=96
<meta message end_of_track time=0>
